<?xml version="1.0" encoding="utf-8"?>
<!-- Generator: Adobe Illustrator 23.1.1, SVG Export Plug-In . SVG Version: 6.00 Build 0)  -->
<svg version="1.1" id="Livello_1" xmlns="http://www.w3.org/2000/svg" xmlns:xlink="http://www.w3.org/1999/xlink" x="0px" y="0px"
	 viewBox="0 0 420 518.2" style="enable-background:new 0 0 420 518.2;" xml:space="preserve">
<style type="text/css">
	.st0{clip-path:url(#SVGID_2_);}
	.st1{clip-path:url(#SVGID_4_);fill:#E9EDD9;}
	.st2{clip-path:url(#SVGID_6_);fill:#F2F5EC;}
	.st3{clip-path:url(#SVGID_6_);fill:#2FF141;}
	.st4{clip-path:url(#SVGID_2_);fill:#2B4835;}
	.st5{clip-path:url(#SVGID_2_);fill:#2FF141;}
	.st6{clip-path:url(#SVGID_8_);fill:#2B4835;}
	.st7{clip-path:url(#SVGID_8_);fill:#2FF141;}
	.st8{clip-path:url(#SVGID_10_);fill:#F8F9F4;}
	.st9{clip-path:url(#SVGID_10_);}
	.st10{clip-path:url(#SVGID_12_);}
	.st11{enable-background:new    ;}
	.st12{fill:#2B4835;}
	.st13{clip-path:url(#SVGID_10_);fill:#2B4835;}
	.st14{clip-path:url(#SVGID_14_);}
	.st15{clip-path:url(#SVGID_16_);}
	.st16{clip-path:url(#SVGID_18_);}
	.st17{clip-path:url(#SVGID_20_);}
</style>
<title>Risorsa 1</title>
<g>
	<g>
		<defs>
			<rect id="SVGID_1_" y="0.2" width="420" height="518"/>
		</defs>
		<clipPath id="SVGID_2_">
			<use xlink:href="#SVGID_1_"  style="overflow:visible;"/>
		</clipPath>
		<g class="st0">
			<defs>
				<rect id="SVGID_3_" y="0.2" width="420" height="518"/>
			</defs>
			<clipPath id="SVGID_4_">
				<use xlink:href="#SVGID_3_"  style="overflow:visible;"/>
			</clipPath>
			<path class="st1" d="M402.2,518.2H17.8c-9.8,0-17.8-8-17.8-17.8V19C0,9.2,8,1.2,17.8,1.1h384.3c9.8,0,17.8,8,17.8,17.9v481.3
				C420,510.2,412,518.1,402.2,518.2"/>
		</g>
		<g class="st0">
			<defs>
				<rect id="SVGID_5_" y="0.2" width="420" height="518"/>
			</defs>
			<clipPath id="SVGID_6_">
				<use xlink:href="#SVGID_5_"  style="overflow:visible;"/>
			</clipPath>
			<path class="st2" d="M420,288.1H0V16C0,7.2,7.2,0,16,0h388c8.8,0,16,7.2,16,16V288.1z"/>
			<path class="st3" d="M360,476.1h-43c-9.9,0-18-8.1-18-18s8.1-18,18-18h43c9.9,0,18,8.1,18,18S369.9,476.1,360,476.1"/>
		</g>
		<path class="st4" d="M332.5,452.6v8.4H331l-3.3-5.4h-0.2v5.4h-1.6v-8.4h1.6l3.3,5.3h0.1v-5.3H332.5z"/>
		<path class="st4" d="M339.6,458.5h-4.4c0.2,0.9,0.9,1.2,1.6,1.2c0.8,0,1.2-0.5,1.2-0.5h1.5c-0.5,1.2-1.5,1.9-2.7,1.9
			c-1.6,0-3-1.2-3-3.1s1.4-3,3-3C338.3,455,339.8,456,339.6,458.5z M335.4,457.3h2.7c-0.2-0.7-0.7-1-1.3-1
			C336.1,456.3,335.6,456.6,335.4,457.3z"/>
		<path class="st4" d="M343.1,459H343l-1.2,2H340l2-3.1l-1.9-2.9h1.7l1.2,1.8h0.1l1.2-1.8h1.7l-1.9,2.9l2,3.1h-1.7L343.1,459z"/>
		<path class="st4" d="M351.5,460.6c0,0-0.5,0.5-1.4,0.5c-1.2,0-2.1-0.8-2.1-2v-2.8h-1.2v-1.2h0.6c0.4,0,0.7-0.3,0.7-0.7v-1.2h1.5
			v1.8h1.5v1.3h-1.5v2.7c0,0.4,0.3,0.7,0.8,0.7c0.4,0,0.7-0.2,0.7-0.2L351.5,460.6z"/>
		<path class="st4" d="M58.6,138c-0.1-1.5-0.5-3-1.1-4.4s-1.6-2.5-2.8-3.4s-2.8-1.3-4.7-1.3c-2,0-3.5,0.6-4.6,1.7
			c-1.1,1.1-1.6,2.4-1.6,3.9c0,1.3,0.4,2.5,1.2,3.4s1.8,1.7,3,2.4s2.5,1.4,3.9,2c1.2,0.5,2.4,1.1,3.6,1.8c1.2,0.6,2.3,1.3,3.3,2.1
			s1.8,1.8,2.4,2.9c0.6,1.1,0.9,2.4,0.9,4c0,1.8-0.4,3.3-1.3,4.7c-0.9,1.4-2.2,2.5-3.8,3.2c-1.7,0.8-3.7,1.2-6.1,1.2
			c-1.4,0-2.9-0.2-4.5-0.6c-1.5-0.4-2.9-1-4.1-1.8l0.2,2.1H40l-0.3-10.2h1.9c0.2,2.8,1.1,5,2.9,6.4c1.8,1.5,4,2.2,6.5,2.2
			c1.2,0,2.4-0.2,3.5-0.7s1.9-1.1,2.5-2s0.9-2,0.9-3.3c0-1.4-0.4-2.6-1.2-3.6s-1.8-1.8-3-2.5s-2.5-1.4-3.9-2
			c-1.2-0.5-2.4-1.1-3.6-1.7c-1.2-0.6-2.3-1.3-3.2-2.1c-1-0.8-1.8-1.7-2.4-2.8c-0.6-1.1-0.9-2.4-0.9-3.9c0-0.8,0.1-1.7,0.4-2.7
			s0.8-1.9,1.5-2.8c0.7-0.9,1.7-1.6,3-2.2c1.3-0.6,2.9-0.8,4.8-0.8c1.2,0,2.6,0.2,4.1,0.5s2.9,1,4.2,1.9l-0.2-2.1h2.4V138H58.6z"/>
		<path class="st4" d="M78,162.2c-2.2,0-4.2-0.5-6-1.6s-3.2-2.5-4.2-4.4s-1.5-4.2-1.5-6.7c0-2.2,0.5-4.3,1.5-6.3s2.4-3.5,4.2-4.7
			c1.8-1.2,3.9-1.8,6.3-1.8c1.3,0,2.6,0.2,3.8,0.6c1.2,0.4,2.2,1.1,3.1,2s1.6,2,2.1,3.3s0.8,2.9,0.8,4.7l-16.9,0.3
			c0,2.4,0.3,4.6,0.8,6.4c0.5,1.8,1.4,3.3,2.6,4.3s2.7,1.5,4.6,1.5c1,0,2-0.2,3-0.5c1-0.4,2-0.8,2.9-1.4c0.9-0.6,1.6-1.3,2.2-2
			l1.2,1c-0.9,1.3-1.9,2.4-3.1,3.2s-2.5,1.4-3.7,1.7C80.3,162,79.1,162.2,78,162.2z M71.4,145.5h12.2c0-1.2-0.2-2.3-0.5-3.3
			s-0.9-2-1.7-2.6c-0.8-0.7-1.8-1-3-1c-1.9,0-3.4,0.6-4.6,1.7C72.6,141.3,71.8,143,71.4,145.5z"/>
		<path class="st4" d="M103.9,162.2c-2.1,0-4.1-0.5-5.9-1.5s-3.2-2.4-4.3-4.2c-1.1-1.8-1.6-4.1-1.6-6.6c0-1.7,0.3-3.3,0.9-4.8
			c0.6-1.6,1.5-3,2.6-4.2c1.1-1.3,2.4-2.3,4-3c1.5-0.7,3.2-1.1,5.1-1.1c1.8,0,3.4,0.3,4.7,0.8c1.3,0.5,2.4,1.3,3.1,2.2
			s1.1,1.9,1.1,2.9c0,0.7-0.2,1.3-0.6,1.8s-0.9,0.7-1.7,0.7c-0.8,0-1.4-0.2-1.7-0.7c-0.3-0.5-0.5-1-0.5-1.4c0-0.3,0-0.6,0.1-1
			c0.1-0.3,0.3-0.6,0.6-0.9c-0.3-0.8-0.7-1.3-1.3-1.7c-0.6-0.4-1.3-0.6-2-0.7c-0.7-0.1-1.3-0.2-1.7-0.2c-2.2,0-4,0.9-5.5,2.6
			c-1.5,1.7-2.2,4.3-2.2,7.6c0,2.1,0.3,4,1,5.7s1.7,3,2.9,3.9c1.2,0.9,2.7,1.4,4.3,1.4c1.5,0,2.9-0.4,4.3-1.2s2.4-1.8,3.2-2.9l1.2,1
			c-0.8,1.3-1.8,2.4-3,3.3c-1.2,0.8-2.4,1.4-3.6,1.8C106.2,162,105,162.2,103.9,162.2z"/>
		<path class="st4" d="M117.8,159.9c1,0,1.7-0.2,2.1-0.7s0.6-1.2,0.7-2.1c0.1-0.9,0.1-1.9,0.1-3v-10.9c0-0.5,0-1,0-1.5
			s0.1-1,0.2-1.6c-0.6,0-1.1,0.1-1.7,0.1s-1.1,0-1.7,0.1v-2h1.5c1.4,0,2.3-0.1,2.9-0.4c0.5-0.3,1-0.6,1.3-0.9h1.4
			c0.1,0.5,0.1,1.1,0.1,1.9c0,0.8,0.1,1.7,0.1,2.9c0.5-0.8,1.1-1.6,2-2.4c0.8-0.8,1.8-1.4,2.8-1.9s2.1-0.8,3.3-0.8
			c0.9,0,1.7,0.2,2.4,0.7s1,1.2,1,2.3c0,0.3-0.1,0.6-0.2,0.9c-0.2,0.4-0.4,0.7-0.8,1c-0.4,0.3-0.8,0.4-1.4,0.4
			c-0.7,0-1.3-0.3-1.7-0.8s-0.6-1.1-0.5-1.8c-0.8,0-1.6,0.2-2.5,0.6c-0.8,0.4-1.6,1.1-2.4,1.8c-0.7,0.8-1.4,1.7-2,2.8v11.8
			c0,0.6,0,1.2,0,1.7s-0.1,1-0.2,1.6c0.5,0,1-0.1,1.5-0.1s1,0,1.5-0.1v2h-9.8C117.8,161.5,117.8,159.9,117.8,159.9z"/>
		<path class="st4" d="M149.3,162.2c-2.2,0-4.2-0.5-6-1.6s-3.2-2.5-4.2-4.4s-1.5-4.2-1.5-6.7c0-2.2,0.5-4.3,1.5-6.3s2.4-3.5,4.2-4.7
			s3.9-1.8,6.3-1.8c1.3,0,2.6,0.2,3.8,0.6c1.2,0.4,2.2,1.1,3.1,2c0.9,0.9,1.6,2,2.1,3.3s0.8,2.9,0.8,4.7l-16.9,0.3
			c0,2.4,0.3,4.6,0.8,6.4c0.5,1.8,1.4,3.3,2.6,4.3c1.2,1,2.7,1.5,4.6,1.5c1,0,2-0.2,3-0.5c1-0.4,2-0.8,2.9-1.4
			c0.9-0.6,1.6-1.3,2.2-2l1.2,1c-0.9,1.3-1.9,2.4-3.1,3.2c-1.2,0.8-2.5,1.4-3.7,1.7C151.6,162,150.4,162.2,149.3,162.2z
			 M142.7,145.5H155c0-1.2-0.2-2.3-0.5-3.3s-0.9-2-1.7-2.6c-0.8-0.7-1.8-1-3-1c-1.9,0-3.4,0.6-4.6,1.7
			C143.9,141.3,143.1,143,142.7,145.5z"/>
		<path class="st4" d="M173,162.2c-0.7,0-1.5-0.1-2.3-0.3s-1.5-0.6-2.1-1.2c-0.7-0.6-1.2-1.5-1.6-2.7c-0.4-1.2-0.6-2.7-0.6-4.6
			l0.1-13.9h-3.7v-2.1c0.8,0,1.7-0.3,2.5-0.9c0.9-0.6,1.6-1.4,2.3-2.4s1.2-2.1,1.4-3.4h1.6v6.7h8.1v1.9l-8.1,0.1l-0.1,13.3
			c0,1.4,0.1,2.7,0.4,3.7c0.2,1,0.6,1.8,1.2,2.3c0.5,0.5,1.2,0.8,2.1,0.8c0.9,0,1.7-0.3,2.5-0.8s1.5-1.2,2.1-2.1l1.3,1.1
			c-0.7,1.1-1.4,1.9-2.1,2.5c-0.7,0.6-1.4,1.1-2,1.4c-0.6,0.3-1.2,0.5-1.8,0.6C173.9,162.1,173.4,162.2,173,162.2z"/>
		<path class="st5" d="M210.2,161.6c-8.2,0-15.2-7-15.2-17s7.1-17,15.2-17c6.1,0,11.7,4,13.8,9.8h-5c-1.6-3.6-4.9-5.6-8.8-5.6
			c-6.3,0-10.6,5.1-10.6,12.8s4.3,12.8,10.7,12.8c4,0,7.2-2.1,8.8-5.6h4.9C221.9,157.5,216.6,161.6,210.2,161.6z"/>
		<path class="st5" d="M226.6,149.4c0-7.1,5.5-12.2,11.5-12.2s11.5,5.1,11.5,12.2s-5.5,12.2-11.5,12.2
			C232.2,161.6,226.6,156.5,226.6,149.4z M245.4,149.4c0-4.7-3-8.3-7.3-8.3s-7.3,3.6-7.3,8.3s3,8.3,7.3,8.3
			C242.5,157.7,245.4,154.1,245.4,149.4z"/>
		<path class="st5" d="M275.4,127.3v34.1h-2.8l-0.9-3.1H271c-1.5,2-3.7,3.3-6.9,3.3c-6.1,0-11.1-5.1-11.1-12.2s5-12.2,11.1-12.2
			c3.4,0,5.7,1.6,7.2,3.8v-13.7H275.4z M264.5,157.7c3.2,0,6.9-2.4,6.9-8.3s-3.7-8.3-6.9-8.3c-3.6,0-7.2,3.1-7.2,8.3
			S260.9,157.7,264.5,157.7z"/>
		<path class="st5" d="M302,150.5h-18.1c0.4,4.5,3.2,7.2,7.3,7.2c2.7,0,4.8-1.2,5.9-3.1h4.4c-1.8,4.4-6,7-10.3,7
			c-6,0-11.4-4.9-11.4-12.4c0-7.4,5.4-12,11.4-12C296.9,137.1,302.5,141.4,302,150.5z M284.1,147h13.6c-0.6-3.7-3-6.3-6.6-6.3
			S284.9,143.1,284.1,147z"/>
		<path class="st4" d="M47.8,101.8c0,1.9-1.4,3.2-3,3.2h-2v3.6H41v-9.8h3.7C46.4,98.8,47.8,99.8,47.8,101.8z M46,101.8
			c0-0.8-0.5-1.3-1.3-1.3h-1.8v2.7h1.8C45.5,103.2,46,102.6,46,101.8z"/>
		<path class="st4" d="M51.2,98.6v9.9h-1.8v-9.9H51.2z"/>
		<path class="st4" d="M59.4,105.6h-5.1c0.2,1.1,1.1,1.5,1.8,1.5c1,0,1.4-0.6,1.4-0.6h1.8c-0.5,1.4-1.8,2.2-3.2,2.2
			c-1.9,0-3.5-1.4-3.5-3.6s1.6-3.5,3.5-3.5C57.8,101.5,59.6,102.8,59.4,105.6z M54.4,104.2h3.2c-0.2-0.8-0.8-1.2-1.5-1.2
			C55.3,103,54.7,103.5,54.4,104.2z"/>
		<path class="st4" d="M67.3,107.2v1.3h-0.4c-0.8,0-1.4-0.3-1.6-0.9c-0.4,0.6-1.1,1-2.2,1c-1.6,0-2.6-0.8-2.6-2.1
			c0-2.2,3-2.4,4.3-2.5c0-0.8-0.5-1.1-1.2-1.1c-1,0-1.1,0.6-1.1,0.6h-1.8c0.1-1.2,1.1-2.1,2.9-2.1c1.7,0,2.8,0.8,2.8,2.9v1.9
			C66.5,107,66.8,107.2,67.3,107.2z M64.8,105.6L64.8,105.6c-1.3,0-2.5,0.2-2.5,0.9C62.2,107.6,64.7,107.5,64.8,105.6z"/>
		<path class="st4" d="M71,103c-0.6,0-0.8,0.3-0.8,0.6c0,0.5,0.6,0.6,1.1,0.7c1.2,0.3,2.5,0.6,2.5,2.1c0,1.4-1.2,2.2-2.6,2.2
			c-1.6,0-2.9-1-2.9-2.5H70c0,0.4,0.3,1,1.2,1c0.7,0,0.9-0.4,0.9-0.7c0-0.5-0.5-0.7-1-0.8c-0.8-0.2-2.6-0.5-2.6-2.1
			c0-1.4,1.3-2.1,2.7-2.1c1.6,0,2.6,1,2.7,2.1H72C71.9,103.4,71.7,103,71,103z"/>
		<path class="st4" d="M81.6,105.6h-5.1c0.2,1.1,1.1,1.5,1.8,1.5c1,0,1.4-0.6,1.4-0.6h1.8c-0.5,1.4-1.8,2.2-3.2,2.2
			c-1.9,0-3.5-1.4-3.5-3.6s1.6-3.5,3.5-3.5C80,101.5,81.8,102.8,81.6,105.6z M76.6,104.2h3.2c-0.2-0.8-0.8-1.2-1.5-1.2
			C77.5,103,76.9,103.5,76.6,104.2z"/>
		<path class="st4" d="M93.4,105.6h-5.1c0.2,1.1,1.1,1.5,1.8,1.5c1,0,1.4-0.6,1.4-0.6h1.8c-0.5,1.4-1.8,2.2-3.2,2.2
			c-1.9,0-3.5-1.4-3.5-3.6s1.6-3.5,3.5-3.5C91.8,101.5,93.6,102.8,93.4,105.6z M88.4,104.2h3.2c-0.2-0.8-0.8-1.2-1.5-1.2
			C89.3,103,88.7,103.5,88.4,104.2z"/>
		<path class="st4" d="M101.5,104.8v3.8h-1.9v-3.4c0-0.2,0.2-2-1.2-2.1c-0.7,0-1.8,0.3-1.8,2.2v3.3h-1.8v-7h1.4l0.2,0.9h0.2
			c0.3-0.4,1-0.9,2.1-0.9C100.6,101.5,101.5,102.9,101.5,104.8z"/>
		<path class="st4" d="M107.9,108.1c0,0-0.6,0.6-1.7,0.6c-1.3,0-2.5-0.9-2.5-2.3v-3.2h-1.4v-1.4h0.7c0.5,0,0.8-0.3,0.8-0.8v-1.4h1.7
			v2.1h1.8v1.5h-1.8v3.1c0,0.5,0.4,0.8,0.9,0.8c0.4,0,0.8-0.2,0.8-0.2L107.9,108.1z"/>
		<path class="st4" d="M115.3,105.6h-5.1c0.2,1.1,1.1,1.5,1.8,1.5c1,0,1.4-0.6,1.4-0.6h1.8c-0.5,1.4-1.8,2.2-3.2,2.2
			c-1.9,0-3.5-1.4-3.5-3.6s1.6-3.5,3.5-3.5C113.7,101.5,115.5,102.8,115.3,105.6z M110.3,104.2h3.2c-0.2-0.8-0.8-1.2-1.5-1.2
			C111.2,103,110.6,103.5,110.3,104.2z"/>
		<path class="st4" d="M121.1,101.5v1.8c-0.1,0-0.4-0.1-0.6-0.1c-1,0-2,0.5-2,1.8v3.5h-1.9v-7h1.4l0.3,0.8h0.2
			c0.3-0.3,1-0.8,2.1-0.8C120.6,101.5,121.1,101.5,121.1,101.5z"/>
		<path class="st4" d="M132.9,101.6l-2.4,7.3c-0.4,1.2-0.9,2.6-3,2.6c-1.3,0-1.9-0.5-2.1-0.8l0.9-1.2c0.1,0.1,0.5,0.4,1.1,0.4
			s1-0.2,1.1-0.7l0.2-0.6h-0.9l-2.4-7h1.9l1.8,5.1h0.3l1.7-5.1C131.1,101.6,132.9,101.6,132.9,101.6z"/>
		<path class="st4" d="M133.4,105.1c0-2.2,1.7-3.6,3.6-3.6c1.9,0,3.5,1.4,3.5,3.6s-1.7,3.6-3.6,3.6
			C135,108.7,133.4,107.3,133.4,105.1z M138.7,105.1c0-1.1-0.6-1.9-1.7-1.9s-1.8,0.9-1.8,1.9s0.7,1.9,1.8,1.9
			S138.7,106.2,138.7,105.1z"/>
		<path class="st4" d="M148.1,101.6v7h-1.4l-0.3-0.8h-0.2c-0.3,0.3-0.9,0.9-2,0.9c-1.9,0-2.8-1.3-2.8-3.3v-3.8h1.9v3.4
			c0,0.9,0.1,2.1,1.3,2.1c0.6,0,1.6-0.3,1.6-2.2v-3.3C146.2,101.6,148.1,101.6,148.1,101.6z"/>
		<path class="st4" d="M154.4,101.5v1.8c-0.1,0-0.4-0.1-0.6-0.1c-1,0-2,0.5-2,1.8v3.5h-1.9v-7h1.4l0.3,0.8h0.2
			c0.3-0.3,1-0.8,2.1-0.8C153.9,101.5,154.4,101.5,154.4,101.5z"/>
		<path class="st4" d="M50.3,202.5v5.8c0,1.2-0.3,2.1-0.9,2.7c-0.6,0.6-1.5,0.9-2.7,0.9s-2.1-0.3-2.7-0.9c-0.6-0.6-0.9-1.5-0.9-2.7
			v-5.8h1.1v5.5c0,1,0.2,1.7,0.6,2.1c0.4,0.5,1,0.7,1.9,0.7s1.5-0.2,1.9-0.7s0.6-1.2,0.6-2.1v-5.5H50.3z"/>
		<path class="st4" d="M54.9,211.9c-0.7,0-1.3-0.1-1.9-0.4c-0.6-0.3-1-0.7-1.3-1.2l1-0.7c0.2,0.4,0.5,0.8,0.9,1s0.9,0.4,1.4,0.4
			s0.9-0.1,1.2-0.3s0.4-0.4,0.4-0.7c0-0.2-0.1-0.4-0.2-0.5S56,209,55.6,209l-1.7-0.3c-0.7-0.1-1.2-0.4-1.5-0.7s-0.4-0.7-0.4-1.2
			c0-0.4,0.1-0.7,0.3-1s0.5-0.6,0.9-0.8s0.9-0.3,1.4-0.3c0.7,0,1.3,0.1,1.8,0.4c0.5,0.3,0.8,0.7,1.1,1.1l-0.9,0.6
			c-0.2-0.4-0.4-0.7-0.8-0.9c-0.4-0.2-0.7-0.3-1.1-0.3c-0.3,0-0.6,0-0.9,0.1c-0.2,0.1-0.4,0.2-0.5,0.4s-0.2,0.3-0.2,0.6
			s0.1,0.4,0.2,0.6s0.4,0.3,0.8,0.4l1.8,0.4c0.7,0.1,1.1,0.3,1.4,0.6s0.4,0.7,0.4,1.1c0,0.4-0.1,0.8-0.4,1.2s-0.6,0.6-1,0.8
			C55.9,211.8,55.4,211.9,54.9,211.9z"/>
		<path class="st4" d="M62.2,211.9c-0.7,0-1.3-0.1-1.8-0.4s-0.9-0.7-1.2-1.3c-0.3-0.5-0.4-1.2-0.4-2s0.1-1.4,0.4-2
			c0.3-0.5,0.7-1,1.2-1.3s1.1-0.4,1.7-0.4c0.7,0,1.2,0.1,1.7,0.4c0.5,0.3,0.8,0.7,1.1,1.1c0.2,0.5,0.4,1,0.4,1.6c0,0.2,0,0.3,0,0.4
			c0,0.1,0,0.2,0,0.4h-5.7v-1h5.2l-0.6,0.1c0-0.7-0.2-1.2-0.6-1.6c-0.4-0.4-0.9-0.5-1.4-0.5s-0.9,0.1-1.2,0.3s-0.6,0.5-0.8,0.9
			s-0.3,0.9-0.3,1.4c0,0.6,0.1,1,0.3,1.4s0.5,0.7,0.8,0.9s0.7,0.3,1.2,0.3s0.9-0.1,1.3-0.3c0.3-0.2,0.6-0.5,0.8-0.8l0.9,0.5
			c-0.2,0.3-0.4,0.6-0.7,0.8c-0.3,0.2-0.6,0.4-1,0.5S62.7,211.9,62.2,211.9z"/>
		<path class="st4" d="M75.3,204.7v1h-5.1v-1H75.3z M72.7,202.7v7.1c0,0.3,0.1,0.6,0.3,0.8s0.4,0.3,0.8,0.3c0.3,0,0.5,0,0.7-0.1
			s0.4-0.2,0.5-0.4l0.4,0.9c-0.2,0.2-0.5,0.4-0.8,0.5s-0.6,0.2-1,0.2s-0.7-0.1-1-0.2c-0.3-0.1-0.6-0.3-0.7-0.6
			c-0.2-0.3-0.3-0.6-0.3-1.1v-6.9L72.7,202.7z"/>
		<path class="st4" d="M76.5,211.7v-10.2h1.1v4.3c0.2-0.4,0.6-0.7,1-0.9s0.8-0.3,1.3-0.3s1,0.1,1.4,0.3s0.7,0.5,1,0.9
			c0.2,0.4,0.4,0.9,0.4,1.5v4.5h-1.1v-4.1c0-0.8-0.2-1.3-0.5-1.6s-0.7-0.5-1.2-0.5c-0.3,0-0.7,0.1-1,0.2c-0.3,0.2-0.6,0.4-0.8,0.8
			c-0.2,0.4-0.3,0.8-0.3,1.4v3.7L76.5,211.7L76.5,211.7z"/>
		<path class="st4" d="M87.7,211.9c-0.7,0-1.3-0.1-1.8-0.4c-0.5-0.3-0.9-0.7-1.2-1.3c-0.3-0.5-0.4-1.2-0.4-2s0.1-1.4,0.4-2
			c0.3-0.5,0.7-1,1.2-1.3s1.1-0.4,1.7-0.4c0.7,0,1.2,0.1,1.7,0.4c0.5,0.3,0.8,0.7,1.1,1.1c0.2,0.5,0.4,1,0.4,1.6c0,0.2,0,0.3,0,0.4
			c0,0.1,0,0.2,0,0.4H85v-1h5.2l-0.6,0.1c0-0.7-0.2-1.2-0.6-1.6c-0.4-0.4-0.9-0.5-1.4-0.5s-0.9,0.1-1.2,0.3
			c-0.3,0.2-0.6,0.5-0.8,0.9c-0.2,0.4-0.3,0.9-0.3,1.4c0,0.6,0.1,1,0.3,1.4s0.5,0.7,0.8,0.9s0.7,0.3,1.2,0.3s0.9-0.1,1.3-0.3
			c0.3-0.2,0.6-0.5,0.8-0.8l0.9,0.5c-0.2,0.3-0.4,0.6-0.7,0.8s-0.6,0.4-1,0.5C88.5,211.8,88.1,211.9,87.7,211.9z"/>
		<path class="st4" d="M100.5,204.7v1h-4.9v-1H100.5z M99.4,201.4c0.2,0,0.5,0,0.7,0.1s0.4,0.1,0.5,0.2l-0.3,0.9
			c-0.1-0.1-0.2-0.1-0.4-0.2c-0.1,0-0.3,0-0.4,0c-0.4,0-0.7,0.1-0.9,0.3c-0.2,0.2-0.3,0.5-0.3,0.9v1.1v0.4v6.6h-1.1v-8.2
			c0-0.3,0-0.6,0.1-0.9c0.1-0.3,0.2-0.5,0.4-0.7c0.2-0.2,0.4-0.3,0.7-0.4S99,201.4,99.4,201.4z"/>
		<path class="st4" d="M104.3,204.6c0.7,0,1.2,0.1,1.8,0.4s0.9,0.7,1.2,1.3c0.3,0.5,0.4,1.2,0.4,2s-0.1,1.4-0.4,2
			c-0.3,0.5-0.7,1-1.2,1.3s-1.1,0.4-1.8,0.4c-0.7,0-1.2-0.1-1.8-0.4c-0.5-0.3-0.9-0.7-1.2-1.3c-0.3-0.5-0.4-1.2-0.4-2s0.1-1.4,0.4-2
			c0.3-0.5,0.7-1,1.2-1.3C103.1,204.7,103.7,204.6,104.3,204.6z M104.3,205.6c-0.5,0-0.9,0.1-1.2,0.3s-0.6,0.5-0.8,0.9
			c-0.2,0.4-0.3,0.9-0.3,1.4c0,0.6,0.1,1,0.3,1.4s0.4,0.7,0.8,0.9c0.3,0.2,0.7,0.3,1.2,0.3s0.9-0.1,1.2-0.3c0.3-0.2,0.6-0.5,0.8-0.9
			c0.2-0.4,0.3-0.9,0.3-1.4c0-0.6-0.1-1-0.3-1.4c-0.2-0.4-0.4-0.7-0.8-0.9S104.8,205.6,104.3,205.6z"/>
		<path class="st4" d="M109.4,211.7v-7h0.9l0.2,1.1c0.2-0.4,0.5-0.8,0.9-1s0.8-0.3,1.4-0.3c0.1,0,0.3,0,0.4,0s0.3,0.1,0.4,0.1
			l-0.2,1c-0.1,0-0.2-0.1-0.3-0.1c-0.1,0-0.3,0-0.5,0c-0.3,0-0.6,0.1-0.9,0.3s-0.5,0.4-0.7,0.8c-0.2,0.3-0.3,0.8-0.3,1.3v3.8
			L109.4,211.7L109.4,211.7z"/>
		<path class="st4" d="M114.7,211.7v-7h1l0.1,1.1c0.3-0.4,0.6-0.7,1-0.9s0.8-0.3,1.3-0.3s1,0.1,1.4,0.3s0.8,0.6,1,1
			c0.1-0.3,0.4-0.6,0.6-0.8c0.3-0.2,0.6-0.3,0.9-0.4c0.3-0.1,0.6-0.1,0.9-0.1c0.4,0,0.9,0.1,1.3,0.3s0.7,0.5,1,0.9s0.4,0.9,0.4,1.5
			v4.5h-1.1v-4.4c0-0.6-0.2-1.1-0.5-1.4c-0.3-0.3-0.7-0.4-1.2-0.4c-0.4,0-0.7,0.1-1,0.3s-0.6,0.4-0.8,0.8c-0.2,0.3-0.3,0.8-0.3,1.3
			v3.8h-1.1v-4.4c0-0.6-0.2-1.1-0.5-1.4c-0.3-0.3-0.7-0.4-1.2-0.4c-0.3,0-0.6,0.1-0.9,0.2c-0.3,0.2-0.6,0.4-0.8,0.8
			c-0.2,0.4-0.3,0.8-0.3,1.4v3.7L114.7,211.7L114.7,211.7z"/>
		<path class="st4" d="M135.4,211.9c-0.4,0-0.8-0.1-1.1-0.2c-0.3-0.1-0.6-0.3-0.9-0.6s-0.4-0.5-0.5-0.9l0.2-0.2l-0.1,1.7h-1v-10.2
			h1.1v4.8l-0.1-0.2c0.2-0.4,0.5-0.8,0.9-1.1s0.9-0.4,1.5-0.4s1.1,0.1,1.6,0.4s0.9,0.7,1.2,1.2s0.4,1.2,0.4,2s-0.1,1.4-0.4,2
			s-0.7,1-1.2,1.3C136.5,211.7,136,211.9,135.4,211.9z M135.3,210.9c0.7,0,1.2-0.2,1.6-0.7c0.4-0.5,0.6-1.1,0.6-1.9
			s-0.2-1.4-0.6-1.9c-0.4-0.5-0.9-0.7-1.6-0.7c-0.4,0-0.8,0.1-1.2,0.3c-0.3,0.2-0.6,0.5-0.8,0.9s-0.3,0.9-0.3,1.4s0.1,1,0.3,1.4
			s0.4,0.7,0.8,0.9C134.5,210.8,134.9,210.9,135.3,210.9z"/>
		<path class="st4" d="M143.3,211.9c-0.7,0-1.3-0.1-1.8-0.4s-0.9-0.7-1.2-1.3c-0.3-0.5-0.4-1.2-0.4-2s0.1-1.4,0.4-2
			c0.3-0.5,0.7-1,1.2-1.3s1.1-0.4,1.7-0.4c0.7,0,1.2,0.1,1.7,0.4c0.5,0.3,0.8,0.7,1.1,1.1c0.2,0.5,0.4,1,0.4,1.6c0,0.2,0,0.3,0,0.4
			c0,0.1,0,0.2,0,0.4h-5.7v-1h5.2l-0.6,0.1c0-0.7-0.2-1.2-0.6-1.6c-0.4-0.4-0.9-0.5-1.4-0.5s-0.9,0.1-1.2,0.3s-0.6,0.5-0.8,0.9
			s-0.3,0.9-0.3,1.4c0,0.6,0.1,1,0.3,1.4s0.5,0.7,0.8,0.9s0.7,0.3,1.2,0.3s0.9-0.1,1.3-0.3c0.3-0.2,0.6-0.5,0.8-0.8l0.9,0.5
			c-0.2,0.3-0.4,0.6-0.7,0.8s-0.6,0.4-1,0.5S143.8,211.9,143.3,211.9z"/>
		<path class="st4" d="M149.1,201.5v8.4c0,0.4,0.1,0.6,0.2,0.7c0.1,0.1,0.3,0.2,0.6,0.2c0.2,0,0.3,0,0.5,0c0.1,0,0.3-0.1,0.5-0.2
			l-0.2,1c-0.1,0.1-0.3,0.1-0.5,0.1s-0.4,0-0.5,0c-0.6,0-1-0.2-1.3-0.5s-0.4-0.8-0.4-1.4v-8.5h1.1V201.5z"/>
		<path class="st4" d="M154.9,204.6c0.7,0,1.2,0.1,1.8,0.4s0.9,0.7,1.2,1.3c0.3,0.5,0.4,1.2,0.4,2s-0.1,1.4-0.4,2
			c-0.3,0.5-0.7,1-1.2,1.3s-1.1,0.4-1.8,0.4s-1.2-0.1-1.8-0.4c-0.5-0.3-0.9-0.7-1.2-1.3c-0.3-0.5-0.4-1.2-0.4-2s0.1-1.4,0.4-2
			c0.3-0.5,0.7-1,1.2-1.3C153.6,204.7,154.2,204.6,154.9,204.6z M154.9,205.6c-0.5,0-0.9,0.1-1.2,0.3s-0.6,0.5-0.8,0.9
			s-0.3,0.9-0.3,1.4c0,0.6,0.1,1,0.3,1.4s0.4,0.7,0.8,0.9c0.3,0.2,0.7,0.3,1.2,0.3s0.9-0.1,1.2-0.3s0.6-0.5,0.8-0.9s0.3-0.9,0.3-1.4
			c0-0.6-0.1-1-0.3-1.4s-0.4-0.7-0.8-0.9S155.3,205.6,154.9,205.6z"/>
		<path class="st4" d="M168.5,204.7h1.2l-2.4,7h-1.1l-2-5.6l-1.9,5.6h-1.1l-2.4-7h1.2l1.8,5.7l1.9-5.7h1.1l1.9,5.7L168.5,204.7z"/>
		<path class="st4" d="M179,204.7v1h-5.1v-1H179z M176.5,202.7v7.1c0,0.3,0.1,0.6,0.3,0.8s0.4,0.3,0.8,0.3c0.3,0,0.5,0,0.7-0.1
			s0.4-0.2,0.5-0.4l0.4,0.9c-0.2,0.2-0.5,0.4-0.8,0.5s-0.6,0.2-1,0.2s-0.7-0.1-1-0.2s-0.6-0.3-0.7-0.6c-0.2-0.3-0.3-0.6-0.3-1.1
			v-6.9L176.5,202.7z"/>
		<path class="st4" d="M183.1,204.6c0.7,0,1.2,0.1,1.8,0.4s0.9,0.7,1.2,1.3c0.3,0.5,0.4,1.2,0.4,2s-0.1,1.4-0.4,2
			c-0.3,0.5-0.7,1-1.2,1.3s-1.1,0.4-1.8,0.4s-1.2-0.1-1.8-0.4c-0.5-0.3-0.9-0.7-1.2-1.3c-0.3-0.5-0.4-1.2-0.4-2s0.1-1.4,0.4-2
			c0.3-0.5,0.7-1,1.2-1.3C181.9,204.7,182.5,204.6,183.1,204.6z M183.1,205.6c-0.5,0-0.9,0.1-1.2,0.3s-0.6,0.5-0.8,0.9
			s-0.3,0.9-0.3,1.4c0,0.6,0.1,1,0.3,1.4s0.4,0.7,0.8,0.9c0.3,0.2,0.7,0.3,1.2,0.3s0.9-0.1,1.2-0.3s0.6-0.5,0.8-0.9s0.3-0.9,0.3-1.4
			c0-0.6-0.1-1-0.3-1.4s-0.4-0.7-0.8-0.9S183.6,205.6,183.1,205.6z"/>
		<path class="st4" d="M195.1,211.9c-0.7,0-1.3-0.1-1.9-0.4c-0.6-0.3-1-0.7-1.3-1.2l1-0.7c0.2,0.4,0.5,0.8,0.9,1s0.9,0.4,1.4,0.4
			s0.9-0.1,1.2-0.3s0.4-0.4,0.4-0.7c0-0.2-0.1-0.4-0.2-0.5s-0.4-0.3-0.7-0.4l-1.7-0.3c-0.7-0.1-1.2-0.4-1.5-0.7s-0.4-0.7-0.4-1.2
			c0-0.4,0.1-0.7,0.3-1s0.5-0.6,0.9-0.8s0.9-0.3,1.4-0.3c0.7,0,1.3,0.1,1.8,0.4c0.5,0.3,0.8,0.7,1.1,1.1l-0.9,0.6
			c-0.2-0.4-0.4-0.7-0.8-0.9c-0.4-0.2-0.7-0.3-1.1-0.3c-0.3,0-0.6,0-0.9,0.1c-0.2,0.1-0.4,0.2-0.5,0.4s-0.2,0.3-0.2,0.6
			s0.1,0.4,0.2,0.6s0.4,0.3,0.8,0.4l1.8,0.4c0.7,0.1,1.1,0.3,1.4,0.6s0.4,0.7,0.4,1.1c0,0.4-0.1,0.8-0.4,1.2s-0.6,0.6-1,0.8
			C196.2,211.8,195.7,211.9,195.1,211.9z"/>
		<path class="st4" d="M202.1,211.9c-0.4,0-0.9-0.1-1.3-0.3c-0.4-0.2-0.7-0.4-1-0.8c-0.2-0.4-0.4-0.9-0.4-1.5v-4.6h1.1v4.3
			c0,0.7,0.2,1.2,0.5,1.5s0.7,0.4,1.3,0.4c0.3,0,0.5,0,0.8-0.1s0.5-0.2,0.7-0.4s0.4-0.4,0.5-0.7s0.2-0.7,0.2-1.1v-3.8h1.1v7h-1
			l-0.1-1.1c-0.2,0.4-0.6,0.7-1,0.9C203.2,211.8,202.7,211.9,202.1,211.9z"/>
		<path class="st4" d="M211.2,211.9c-0.4,0-0.8-0.1-1.1-0.2c-0.3-0.1-0.6-0.3-0.9-0.6c-0.2-0.3-0.4-0.5-0.5-0.9l0.2-0.2l-0.1,1.7h-1
			v-10.2h1.1v4.8l-0.1-0.2c0.2-0.4,0.5-0.8,0.9-1.1s0.9-0.4,1.5-0.4s1.1,0.1,1.6,0.4s0.9,0.7,1.2,1.2s0.4,1.2,0.4,2s-0.1,1.4-0.4,2
			s-0.7,1-1.2,1.3S211.8,211.9,211.2,211.9z M211.1,210.9c0.7,0,1.2-0.2,1.6-0.7c0.4-0.5,0.6-1.1,0.6-1.9s-0.2-1.4-0.6-1.9
			s-0.9-0.7-1.6-0.7c-0.4,0-0.8,0.1-1.2,0.3c-0.3,0.2-0.6,0.5-0.8,0.9s-0.3,0.9-0.3,1.4s0.1,1,0.3,1.4s0.4,0.7,0.8,0.9
			C210.3,210.8,210.7,210.9,211.1,210.9z"/>
		<path class="st4" d="M216.2,211.7v-7h1l0.1,1.1c0.3-0.4,0.6-0.7,1-0.9s0.8-0.3,1.3-0.3s1,0.1,1.4,0.3s0.8,0.6,1,1
			c0.1-0.3,0.4-0.6,0.6-0.8c0.3-0.2,0.6-0.3,0.9-0.4c0.3-0.1,0.6-0.1,0.9-0.1c0.4,0,0.9,0.1,1.3,0.3c0.4,0.2,0.7,0.5,1,0.9
			s0.4,0.9,0.4,1.5v4.5H226v-4.4c0-0.6-0.2-1.1-0.5-1.4c-0.3-0.3-0.7-0.4-1.2-0.4c-0.4,0-0.7,0.1-1,0.3s-0.6,0.4-0.8,0.8
			c-0.2,0.3-0.3,0.8-0.3,1.3v3.8H221v-4.4c0-0.6-0.2-1.1-0.5-1.4c-0.3-0.3-0.7-0.4-1.2-0.4c-0.3,0-0.6,0.1-0.9,0.2s-0.6,0.4-0.8,0.8
			c-0.2,0.4-0.3,0.8-0.3,1.4v3.7L216.2,211.7L216.2,211.7z"/>
		<path class="st4" d="M229.7,203.4c-0.3,0-0.5-0.1-0.6-0.2c-0.2-0.2-0.2-0.4-0.2-0.6s0.1-0.5,0.2-0.6s0.4-0.2,0.6-0.2
			s0.5,0.1,0.6,0.2s0.2,0.4,0.2,0.6s-0.1,0.5-0.2,0.6C230.1,203.3,229.9,203.4,229.7,203.4z M230.2,204.7v7h-1.1v-7H230.2z"/>
		<path class="st4" d="M236.6,204.7v1h-5.1v-1H236.6z M234,202.7v7.1c0,0.3,0.1,0.6,0.3,0.8s0.4,0.3,0.8,0.3c0.3,0,0.5,0,0.7-0.1
			s0.4-0.2,0.5-0.4l0.4,0.9c-0.2,0.2-0.5,0.4-0.8,0.5s-0.6,0.2-1,0.2s-0.7-0.1-1-0.2c-0.3-0.1-0.6-0.3-0.7-0.6
			c-0.2-0.3-0.3-0.6-0.3-1.1v-6.9L234,202.7z"/>
		<path class="st4" d="M247.6,204.7l-3.3,8.2c-0.2,0.5-0.4,0.8-0.6,1.1c-0.2,0.3-0.4,0.5-0.7,0.6s-0.6,0.2-0.9,0.2
			c-0.3,0-0.6,0-0.9-0.1c-0.3-0.1-0.5-0.2-0.7-0.4l0.3-1c0.2,0.2,0.4,0.3,0.6,0.4s0.4,0.1,0.6,0.1c0.2,0,0.5-0.1,0.7-0.2
			c0.2-0.1,0.4-0.5,0.6-0.9l0.4-0.9l-0.7-1.7l-2.2-5.3h1.3l1.8,4.6l0.4,1.2l0.5-1.4l1.6-4.4h1.2V204.7z"/>
		<path class="st4" d="M251.6,204.6c0.7,0,1.2,0.1,1.8,0.4s0.9,0.7,1.2,1.3s0.4,1.2,0.4,2s-0.1,1.4-0.4,2s-0.7,1-1.2,1.3
			s-1.1,0.4-1.8,0.4s-1.2-0.1-1.8-0.4s-0.9-0.7-1.2-1.3s-0.4-1.2-0.4-2s0.1-1.4,0.4-2s0.7-1,1.2-1.3S250.9,204.6,251.6,204.6z
			 M251.6,205.6c-0.5,0-0.9,0.1-1.2,0.3s-0.6,0.5-0.8,0.9s-0.3,0.9-0.3,1.4c0,0.6,0.1,1,0.3,1.4s0.4,0.7,0.8,0.9
			c0.3,0.2,0.7,0.3,1.2,0.3s0.9-0.1,1.2-0.3s0.6-0.5,0.8-0.9s0.3-0.9,0.3-1.4c0-0.6-0.1-1-0.3-1.4s-0.4-0.7-0.8-0.9
			S252.1,205.6,251.6,205.6z"/>
		<path class="st4" d="M259.2,211.9c-0.4,0-0.9-0.1-1.3-0.3s-0.7-0.4-1-0.8s-0.4-0.9-0.4-1.5v-4.6h1.1v4.3c0,0.7,0.2,1.2,0.5,1.5
			s0.7,0.4,1.3,0.4c0.3,0,0.5,0,0.8-0.1s0.5-0.2,0.7-0.4s0.4-0.4,0.5-0.7s0.2-0.7,0.2-1.1v-3.8h1.1v7h-1l-0.1-1.1
			c-0.2,0.4-0.6,0.7-1,0.9C260.3,211.8,259.8,211.9,259.2,211.9z"/>
		<path class="st4" d="M264.9,211.7v-7h0.9l0.2,1.1c0.2-0.4,0.5-0.8,0.9-1s0.8-0.3,1.4-0.3c0.1,0,0.3,0,0.4,0s0.3,0.1,0.4,0.1
			l-0.2,1c-0.1,0-0.2-0.1-0.3-0.1c-0.1,0-0.3,0-0.5,0c-0.3,0-0.6,0.1-0.9,0.3s-0.5,0.4-0.7,0.8c-0.2,0.3-0.3,0.8-0.3,1.3v3.8
			L264.9,211.7L264.9,211.7z"/>
		<path class="st4" d="M277.5,202.4c0.8,0,1.5,0.2,2.1,0.5s1.1,0.8,1.5,1.5l-0.9,0.7c-0.3-0.6-0.7-1-1.2-1.3c-0.4-0.2-1-0.4-1.6-0.4
			c-0.5,0-0.9,0.1-1.2,0.2c-0.3,0.1-0.6,0.3-0.7,0.6c-0.1,0.2-0.2,0.5-0.2,0.8s0.1,0.6,0.3,0.9c0.2,0.2,0.6,0.4,1.2,0.6l2,0.4
			c0.9,0.2,1.5,0.5,1.9,0.9c0.3,0.4,0.5,0.9,0.5,1.5c0,0.5-0.1,1-0.4,1.4s-0.7,0.7-1.2,0.9s-1.2,0.3-1.9,0.3c-0.7,0-1.3-0.1-1.8-0.3
			s-0.9-0.4-1.3-0.7s-0.7-0.7-0.9-1l1-0.8c0.2,0.4,0.4,0.7,0.7,0.9c0.3,0.3,0.6,0.5,1,0.6s0.9,0.2,1.4,0.2s0.9-0.1,1.2-0.2
			c0.3-0.1,0.6-0.3,0.8-0.5c0.2-0.2,0.3-0.5,0.3-0.8s-0.1-0.6-0.3-0.8c-0.2-0.2-0.6-0.4-1.1-0.5l-2.2-0.5c-0.6-0.1-1-0.3-1.4-0.5
			s-0.6-0.5-0.8-0.8c-0.2-0.3-0.2-0.7-0.2-1c0-0.5,0.1-1,0.4-1.4s0.7-0.7,1.2-1C276.1,202.5,276.7,202.4,277.5,202.4z"/>
		<path class="st4" d="M285.8,211.9c-0.7,0-1.3-0.1-1.8-0.4c-0.5-0.3-0.9-0.7-1.2-1.3s-0.4-1.2-0.4-2s0.1-1.4,0.4-2s0.7-1,1.2-1.3
			s1.1-0.4,1.7-0.4c0.7,0,1.2,0.1,1.7,0.4c0.5,0.3,0.8,0.7,1.1,1.1c0.2,0.5,0.4,1,0.4,1.6c0,0.2,0,0.3,0,0.4c0,0.1,0,0.2,0,0.4h-5.7
			v-1h5.2l-0.6,0.1c0-0.7-0.2-1.2-0.6-1.6c-0.4-0.4-0.9-0.5-1.4-0.5s-0.9,0.1-1.2,0.3s-0.6,0.5-0.8,0.9c-0.2,0.4-0.3,0.9-0.3,1.4
			c0,0.6,0.1,1,0.3,1.4c0.2,0.4,0.5,0.7,0.8,0.9s0.7,0.3,1.2,0.3s0.9-0.1,1.3-0.3c0.3-0.2,0.6-0.5,0.8-0.8l0.9,0.5
			c-0.2,0.3-0.4,0.6-0.7,0.8c-0.3,0.2-0.6,0.4-1,0.5C286.6,211.8,286.2,211.9,285.8,211.9z"/>
		<path class="st4" d="M293.4,204.6c0.5,0,0.9,0.1,1.3,0.2c0.4,0.1,0.7,0.4,1,0.6c0.3,0.3,0.5,0.6,0.7,1l-1.1,0.5
			c-0.1-0.4-0.4-0.8-0.7-1c-0.3-0.2-0.7-0.4-1.2-0.4s-0.9,0.1-1.2,0.3s-0.6,0.5-0.8,0.9c-0.2,0.4-0.3,0.9-0.3,1.4
			c0,0.6,0.1,1,0.3,1.4c0.2,0.4,0.4,0.7,0.8,0.9s0.7,0.3,1.2,0.3c0.4,0,0.7-0.1,0.9-0.2c0.3-0.1,0.5-0.3,0.7-0.5s0.3-0.5,0.4-0.8
			l1,0.4c-0.2,0.4-0.4,0.8-0.7,1.1c-0.3,0.3-0.6,0.5-1,0.7s-0.8,0.2-1.3,0.2c-0.7,0-1.2-0.1-1.8-0.4c-0.5-0.3-0.9-0.7-1.2-1.3
			c-0.3-0.5-0.4-1.2-0.4-2s0.1-1.4,0.4-2c0.3-0.5,0.7-1,1.2-1.3C292.2,204.7,292.8,204.6,293.4,204.6z"/>
		<path class="st4" d="M297.9,211.7v-7h0.9l0.2,1.1c0.2-0.4,0.5-0.8,0.9-1s0.8-0.3,1.4-0.3c0.1,0,0.3,0,0.4,0s0.3,0.1,0.4,0.1
			l-0.2,1c-0.1,0-0.2-0.1-0.3-0.1c-0.1,0-0.3,0-0.5,0c-0.3,0-0.6,0.1-0.9,0.3s-0.5,0.4-0.7,0.8c-0.2,0.3-0.3,0.8-0.3,1.3v3.8
			L297.9,211.7L297.9,211.7z"/>
		<path class="st4" d="M305.9,211.9c-0.7,0-1.3-0.1-1.8-0.4c-0.5-0.3-0.9-0.7-1.2-1.3c-0.3-0.5-0.4-1.2-0.4-2s0.1-1.4,0.4-2
			c0.3-0.5,0.7-1,1.2-1.3s1.1-0.4,1.7-0.4c0.7,0,1.2,0.1,1.7,0.4c0.5,0.3,0.8,0.7,1.1,1.1c0.2,0.5,0.4,1,0.4,1.6c0,0.2,0,0.3,0,0.4
			c0,0.1,0,0.2,0,0.4h-5.7v-1h5.2l-0.6,0.1c0-0.7-0.2-1.2-0.6-1.6c-0.4-0.4-0.9-0.5-1.4-0.5s-0.9,0.1-1.2,0.3
			c-0.3,0.2-0.6,0.5-0.8,0.9c-0.2,0.4-0.3,0.9-0.3,1.4c0,0.6,0.1,1,0.3,1.4s0.5,0.7,0.8,0.9s0.7,0.3,1.2,0.3s0.9-0.1,1.3-0.3
			c0.3-0.2,0.6-0.5,0.8-0.8l0.9,0.5c-0.2,0.3-0.4,0.6-0.7,0.8s-0.6,0.4-1,0.5C306.8,211.8,306.4,211.9,305.9,211.9z"/>
		<path class="st4" d="M314.7,204.7v1h-5.1v-1H314.7z M312.1,202.7v7.1c0,0.3,0.1,0.6,0.3,0.8c0.2,0.2,0.4,0.3,0.8,0.3
			c0.3,0,0.5,0,0.7-0.1s0.4-0.2,0.5-0.4l0.4,0.9c-0.2,0.2-0.5,0.4-0.8,0.5s-0.6,0.2-1,0.2s-0.7-0.1-1-0.2c-0.3-0.1-0.6-0.3-0.7-0.6
			c-0.2-0.3-0.3-0.6-0.3-1.1v-6.9L312.1,202.7z"/>
		<path class="st4" d="M328.6,209.4c-0.2,0.5-0.5,1-0.8,1.4c-0.4,0.4-0.8,0.7-1.3,0.9s-1,0.3-1.6,0.3c-0.9,0-1.6-0.2-2.3-0.6
			c-0.6-0.4-1.1-0.9-1.5-1.6c-0.3-0.7-0.5-1.6-0.5-2.5c0-1,0.2-1.8,0.5-2.5c0.4-0.7,0.8-1.3,1.5-1.6c0.6-0.4,1.4-0.6,2.2-0.6
			c0.6,0,1.1,0.1,1.6,0.2s0.9,0.4,1.2,0.7c0.3,0.3,0.6,0.7,0.8,1.2l-1.1,0.5c-0.2-0.5-0.5-0.9-0.9-1.2s-0.9-0.4-1.5-0.4
			s-1.2,0.1-1.7,0.4c-0.5,0.3-0.8,0.7-1.1,1.3c-0.3,0.6-0.4,1.2-0.4,2s0.1,1.4,0.4,2s0.6,1,1.1,1.3s1,0.4,1.7,0.4
			c0.6,0,1.2-0.2,1.6-0.5s0.8-0.8,1-1.4L328.6,209.4z"/>
		<path class="st4" d="M333,204.6c0.7,0,1.2,0.1,1.8,0.4s0.9,0.7,1.2,1.3c0.3,0.5,0.4,1.2,0.4,2s-0.1,1.4-0.4,2
			c-0.3,0.5-0.7,1-1.2,1.3s-1.1,0.4-1.8,0.4c-0.7,0-1.2-0.1-1.8-0.4c-0.5-0.3-0.9-0.7-1.2-1.3c-0.3-0.5-0.4-1.2-0.4-2s0.1-1.4,0.4-2
			c0.3-0.5,0.7-1,1.2-1.3C331.8,204.7,332.3,204.6,333,204.6z M333,205.6c-0.5,0-0.9,0.1-1.2,0.3s-0.6,0.5-0.8,0.9
			c-0.2,0.4-0.3,0.9-0.3,1.4c0,0.6,0.1,1,0.3,1.4c0.2,0.4,0.4,0.7,0.8,0.9c0.3,0.2,0.7,0.3,1.2,0.3s0.9-0.1,1.2-0.3
			c0.3-0.2,0.6-0.5,0.8-0.9c0.2-0.4,0.3-0.9,0.3-1.4c0-0.6-0.1-1-0.3-1.4c-0.2-0.4-0.4-0.7-0.8-0.9S333.5,205.6,333,205.6z"/>
		<path class="st4" d="M340.9,211.9c-0.6,0-1.1-0.1-1.6-0.4s-0.9-0.7-1.2-1.3s-0.4-1.2-0.4-2s0.2-1.4,0.5-2c0.3-0.5,0.7-1,1.2-1.2
			s1-0.4,1.6-0.4s1.1,0.1,1.5,0.4c0.4,0.3,0.7,0.7,0.8,1.2l-0.1,0.1v-4.8h1.1v10.2h-1l-0.1-1.7l0.2-0.1c-0.1,0.4-0.2,0.8-0.5,1
			c-0.2,0.3-0.6,0.5-0.9,0.7S341.3,211.9,340.9,211.9z M341,210.9c0.4,0,0.8-0.1,1.2-0.3c0.3-0.2,0.6-0.5,0.8-1
			c0.2-0.4,0.3-0.9,0.3-1.5c0-0.5-0.1-1-0.3-1.4c-0.2-0.4-0.4-0.7-0.8-0.9c-0.3-0.2-0.7-0.3-1.1-0.3c-0.7,0-1.3,0.2-1.7,0.7
			c-0.4,0.5-0.6,1.1-0.6,1.9s0.2,1.4,0.6,1.9C339.7,210.6,340.3,210.9,341,210.9z"/>
		<path class="st4" d="M349.4,211.9c-0.7,0-1.3-0.1-1.8-0.4c-0.5-0.3-0.9-0.7-1.2-1.3s-0.4-1.2-0.4-2s0.1-1.4,0.4-2s0.7-1,1.2-1.3
			s1.1-0.4,1.7-0.4c0.7,0,1.2,0.1,1.7,0.4c0.5,0.3,0.8,0.7,1.1,1.1c0.2,0.5,0.4,1,0.4,1.6c0,0.2,0,0.3,0,0.4c0,0.1,0,0.2,0,0.4h-5.7
			v-1h5.2l-0.6,0.1c0-0.7-0.2-1.2-0.6-1.6c-0.4-0.4-0.9-0.5-1.4-0.5s-0.9,0.1-1.2,0.3s-0.6,0.5-0.8,0.9c-0.2,0.4-0.3,0.9-0.3,1.4
			c0,0.6,0.1,1,0.3,1.4c0.2,0.4,0.5,0.7,0.8,0.9s0.7,0.3,1.2,0.3s0.9-0.1,1.3-0.3c0.3-0.2,0.6-0.5,0.8-0.8l0.9,0.5
			c-0.2,0.3-0.4,0.6-0.7,0.8c-0.3,0.2-0.6,0.4-1,0.5C350.3,211.8,349.9,211.9,349.4,211.9z"/>
		<path class="st4" d="M354.7,210.1c0.3,0,0.5,0.1,0.7,0.3s0.3,0.4,0.3,0.7s-0.1,0.5-0.3,0.7s-0.4,0.3-0.7,0.3s-0.5-0.1-0.7-0.3
			s-0.3-0.4-0.3-0.7s0.1-0.5,0.3-0.7S354.4,210.1,354.7,210.1z"/>
		<path class="st4" d="M49.5,230.5l-3.3,5.6v3.6h-1.1v-3.6l-3.3-5.6h1.3l1.8,3.2l0.7,1.3l0.7-1.3l1.8-3.2H49.5z"/>
		<path class="st4" d="M52.5,232.6c0.7,0,1.2,0.1,1.8,0.4s0.9,0.7,1.2,1.3c0.3,0.5,0.4,1.2,0.4,2s-0.1,1.4-0.4,2
			c-0.3,0.5-0.7,1-1.2,1.3s-1.1,0.4-1.8,0.4s-1.2-0.1-1.8-0.4c-0.5-0.3-0.9-0.7-1.2-1.3c-0.3-0.5-0.4-1.2-0.4-2s0.1-1.4,0.4-2
			c0.3-0.5,0.7-1,1.2-1.3S51.8,232.6,52.5,232.6z M52.5,233.6c-0.5,0-0.9,0.1-1.2,0.3s-0.6,0.5-0.8,0.9s-0.3,0.9-0.3,1.4
			c0,0.6,0.1,1,0.3,1.4s0.4,0.7,0.8,0.9c0.3,0.2,0.7,0.3,1.2,0.3s0.9-0.1,1.2-0.3s0.6-0.5,0.8-0.9s0.3-0.9,0.3-1.4
			c0-0.6-0.1-1-0.3-1.4s-0.4-0.7-0.8-0.9S52.9,233.6,52.5,233.6z"/>
		<path class="st4" d="M60.1,239.9c-0.4,0-0.9-0.1-1.3-0.3c-0.4-0.2-0.7-0.4-1-0.8c-0.2-0.4-0.4-0.9-0.4-1.5v-4.6h1.1v4.3
			c0,0.7,0.2,1.2,0.5,1.5s0.7,0.4,1.3,0.4c0.3,0,0.5,0,0.8-0.1s0.5-0.2,0.7-0.4s0.4-0.4,0.5-0.7s0.2-0.7,0.2-1.1v-3.8h1.1v7h-1
			l-0.1-1.1c-0.2,0.4-0.6,0.7-1,0.9C61.1,239.8,60.6,239.9,60.1,239.9z"/>
		<path class="st4" d="M72.9,239.9c-0.6,0-1.1-0.1-1.6-0.4s-0.9-0.7-1.2-1.3c-0.3-0.5-0.4-1.2-0.4-2s0.2-1.4,0.5-2
			c0.3-0.5,0.7-1,1.2-1.2s1-0.4,1.6-0.4s1.1,0.1,1.5,0.4c0.4,0.3,0.7,0.7,0.8,1.2l-0.1,0.1v-4.8h1.1v10.2h-1l-0.1-1.7l0.2-0.1
			c-0.1,0.4-0.2,0.8-0.5,1c-0.2,0.3-0.6,0.5-0.9,0.7S73.3,239.9,72.9,239.9z M73,238.9c0.4,0,0.8-0.1,1.2-0.3c0.3-0.2,0.6-0.5,0.8-1
			s0.3-0.9,0.3-1.5c0-0.5-0.1-1-0.3-1.4s-0.4-0.7-0.8-0.9c-0.3-0.2-0.7-0.3-1.1-0.3c-0.7,0-1.3,0.2-1.7,0.7s-0.6,1.1-0.6,1.9
			s0.2,1.4,0.6,1.9C71.7,238.6,72.3,238.9,73,238.9z"/>
		<path class="st4" d="M79,231.4c-0.3,0-0.5-0.1-0.6-0.2c-0.2-0.2-0.2-0.4-0.2-0.6s0.1-0.5,0.2-0.6c0.2-0.2,0.4-0.2,0.6-0.2
			s0.5,0.1,0.6,0.2c0.2,0.2,0.2,0.4,0.2,0.6s-0.1,0.5-0.2,0.6S79.3,231.4,79,231.4z M79.6,232.7v7h-1.1v-7H79.6z"/>
		<path class="st4" d="M84.5,239.9c-0.6,0-1.1-0.1-1.6-0.4s-0.9-0.7-1.2-1.3c-0.3-0.5-0.4-1.2-0.4-2s0.2-1.4,0.5-2
			c0.3-0.5,0.7-1,1.2-1.2s1-0.4,1.6-0.4s1.1,0.1,1.5,0.4c0.4,0.3,0.7,0.7,0.8,1.2l-0.1,0.1v-4.8H88v10.2h-1l-0.1-1.7H87
			c-0.1,0.4-0.2,0.8-0.5,1c-0.2,0.3-0.6,0.5-0.9,0.7S84.9,239.9,84.5,239.9z M84.6,238.9c0.4,0,0.8-0.1,1.2-0.3
			c0.3-0.2,0.6-0.5,0.8-1s0.3-0.9,0.3-1.5c0-0.5-0.1-1-0.3-1.4s-0.4-0.7-0.8-0.9c-0.3-0.2-0.7-0.3-1.1-0.3c-0.7,0-1.3,0.2-1.7,0.7
			s-0.6,1.1-0.6,1.9s0.2,1.4,0.6,1.9C83.4,238.6,83.9,238.9,84.6,238.9z"/>
		<path class="st4" d="M90.2,239.7v-7h1l0.1,1.6l-0.2-0.2c0.1-0.4,0.3-0.7,0.6-0.9c0.3-0.2,0.5-0.4,0.9-0.5c0.3-0.1,0.7-0.2,1-0.2
			c0.5,0,1,0.1,1.4,0.3s0.7,0.5,1,0.9c0.2,0.4,0.4,0.9,0.4,1.5v4.5h-1.1v-4.1c0-0.8-0.2-1.3-0.5-1.6s-0.7-0.5-1.2-0.5
			c-0.3,0-0.7,0.1-1,0.2c-0.3,0.2-0.6,0.4-0.8,0.8c-0.2,0.4-0.3,0.8-0.3,1.4v3.7h-1.3V239.7z"/>
		<path class="st4" d="M98.3,229.9c0.2,0,0.4,0.1,0.6,0.2c0.2,0.1,0.3,0.3,0.4,0.5s0.1,0.4,0.1,0.7s-0.1,0.6-0.2,0.9
			s-0.3,0.6-0.5,0.8c-0.2,0.3-0.5,0.5-0.9,0.6l-0.6-0.5c0.3-0.1,0.5-0.2,0.7-0.3s0.3-0.3,0.5-0.5c0.1-0.2,0.2-0.4,0.2-0.6h-0.1
			l-0.1,0.1c-0.1,0-0.1,0-0.3,0c-0.1,0-0.2,0-0.3-0.1c-0.1-0.1-0.2-0.2-0.3-0.3s-0.1-0.3-0.1-0.5s0-0.3,0.1-0.5s0.2-0.3,0.3-0.3
			C98,230,98.2,229.9,98.3,229.9z"/>
		<path class="st4" d="M105.1,232.7v1H100v-1H105.1z M102.6,230.7v7.1c0,0.3,0.1,0.6,0.3,0.8s0.4,0.3,0.8,0.3c0.3,0,0.5,0,0.7-0.1
			s0.4-0.2,0.5-0.4l0.4,0.9c-0.2,0.2-0.5,0.4-0.8,0.5s-0.6,0.2-1,0.2s-0.7-0.1-1-0.2c-0.3-0.1-0.6-0.3-0.7-0.6
			c-0.2-0.3-0.3-0.6-0.3-1.1v-6.9L102.6,230.7z"/>
		<path class="st4" d="M110.8,239.7v-7h0.9l0.2,1.1c0.2-0.4,0.5-0.8,0.9-1s0.8-0.3,1.4-0.3c0.1,0,0.3,0,0.4,0s0.3,0.1,0.4,0.1
			l-0.2,1c-0.1,0-0.2-0.1-0.3-0.1c-0.1,0-0.3,0-0.5,0c-0.3,0-0.6,0.1-0.9,0.3s-0.5,0.4-0.7,0.8c-0.2,0.3-0.3,0.8-0.3,1.3v3.8
			L110.8,239.7L110.8,239.7z"/>
		<path class="st4" d="M118.8,239.9c-0.7,0-1.3-0.1-1.8-0.4s-0.9-0.7-1.2-1.3c-0.3-0.5-0.4-1.2-0.4-2s0.1-1.4,0.4-2
			c0.3-0.5,0.7-1,1.2-1.3s1.1-0.4,1.7-0.4c0.7,0,1.2,0.1,1.7,0.4c0.5,0.3,0.8,0.7,1.1,1.1c0.2,0.5,0.4,1,0.4,1.6c0,0.2,0,0.3,0,0.4
			c0,0.1,0,0.2,0,0.4h-5.7v-1h5.2l-0.6,0.1c0-0.7-0.2-1.2-0.6-1.6c-0.4-0.4-0.9-0.5-1.4-0.5s-0.9,0.1-1.2,0.3
			c-0.3,0.2-0.6,0.5-0.8,0.9c-0.2,0.4-0.3,0.9-0.3,1.4c0,0.6,0.1,1,0.3,1.4c0.2,0.4,0.5,0.7,0.8,0.9s0.7,0.3,1.2,0.3
			s0.9-0.1,1.3-0.3c0.3-0.2,0.6-0.5,0.8-0.8l0.9,0.5c-0.2,0.3-0.4,0.6-0.7,0.8c-0.3,0.2-0.6,0.4-1,0.5S119.2,239.9,118.8,239.9z"/>
		<path class="st4" d="M126.4,232.6c0.5,0,0.9,0.1,1.3,0.2s0.7,0.4,1,0.6c0.3,0.3,0.5,0.6,0.7,1l-1.1,0.5c-0.1-0.4-0.4-0.8-0.7-1
			c-0.3-0.2-0.7-0.4-1.2-0.4s-0.9,0.1-1.2,0.3c-0.3,0.2-0.6,0.5-0.8,0.9c-0.2,0.4-0.3,0.9-0.3,1.4c0,0.6,0.1,1,0.3,1.4
			c0.2,0.4,0.4,0.7,0.8,0.9c0.3,0.2,0.7,0.3,1.2,0.3c0.4,0,0.7-0.1,0.9-0.2c0.3-0.1,0.5-0.3,0.7-0.5c0.2-0.2,0.3-0.5,0.4-0.8l1,0.4
			c-0.2,0.4-0.4,0.8-0.7,1.1s-0.6,0.5-1,0.7c-0.4,0.2-0.8,0.2-1.3,0.2c-0.7,0-1.2-0.1-1.8-0.4c-0.5-0.3-0.9-0.7-1.2-1.3
			c-0.3-0.5-0.4-1.2-0.4-2s0.1-1.4,0.4-2c0.3-0.5,0.7-1,1.2-1.3C125.2,232.7,125.8,232.6,126.4,232.6z"/>
		<path class="st4" d="M133.9,239.9c-0.7,0-1.3-0.1-1.8-0.4s-0.9-0.7-1.2-1.3c-0.3-0.5-0.4-1.2-0.4-2s0.1-1.4,0.4-2
			c0.3-0.5,0.7-1,1.2-1.3s1.1-0.4,1.7-0.4c0.7,0,1.2,0.1,1.7,0.4c0.5,0.3,0.8,0.7,1.1,1.1c0.2,0.5,0.4,1,0.4,1.6c0,0.2,0,0.3,0,0.4
			c0,0.1,0,0.2,0,0.4h-5.7v-1h5.2l-0.6,0.1c0-0.7-0.2-1.2-0.6-1.6c-0.4-0.4-0.9-0.5-1.4-0.5s-0.9,0.1-1.2,0.3s-0.6,0.5-0.8,0.9
			s-0.3,0.9-0.3,1.4c0,0.6,0.1,1,0.3,1.4s0.5,0.7,0.8,0.9s0.7,0.3,1.2,0.3s0.9-0.1,1.3-0.3c0.3-0.2,0.6-0.5,0.8-0.8l0.9,0.5
			c-0.2,0.3-0.4,0.6-0.7,0.8s-0.6,0.4-1,0.5S134.4,239.9,133.9,239.9z"/>
		<path class="st4" d="M139.2,231.4c-0.3,0-0.5-0.1-0.6-0.2c-0.2-0.2-0.2-0.4-0.2-0.6s0.1-0.5,0.2-0.6c0.2-0.2,0.4-0.2,0.6-0.2
			s0.5,0.1,0.6,0.2c0.2,0.2,0.2,0.4,0.2,0.6s-0.1,0.5-0.2,0.6C139.6,231.3,139.4,231.4,139.2,231.4z M139.8,232.7v7h-1.1v-7H139.8z"
			/>
		<path class="st4" d="M146.6,232.7h1.2l-2.9,7h-1.1l-2.9-7h1.3l2.2,5.9L146.6,232.7z"/>
		<path class="st4" d="M151.7,239.9c-0.7,0-1.3-0.1-1.8-0.4s-0.9-0.7-1.2-1.3c-0.3-0.5-0.4-1.2-0.4-2s0.1-1.4,0.4-2
			c0.3-0.5,0.7-1,1.2-1.3s1.1-0.4,1.7-0.4c0.7,0,1.2,0.1,1.7,0.4c0.5,0.3,0.8,0.7,1.1,1.1c0.2,0.5,0.4,1,0.4,1.6c0,0.2,0,0.3,0,0.4
			c0,0.1,0,0.2,0,0.4H149v-1h5.2l-0.6,0.1c0-0.7-0.2-1.2-0.6-1.6c-0.4-0.4-0.9-0.5-1.4-0.5s-0.9,0.1-1.2,0.3s-0.6,0.5-0.8,0.9
			s-0.3,0.9-0.3,1.4c0,0.6,0.1,1,0.3,1.4s0.5,0.7,0.8,0.9s0.7,0.3,1.2,0.3s0.9-0.1,1.3-0.3c0.3-0.2,0.6-0.5,0.8-0.8l0.9,0.5
			c-0.2,0.3-0.4,0.6-0.7,0.8s-0.6,0.4-1,0.5S152.2,239.9,151.7,239.9z"/>
		<path class="st4" d="M161.4,231.4c-0.3,0-0.5-0.1-0.6-0.2c-0.2-0.2-0.2-0.4-0.2-0.6s0.1-0.5,0.2-0.6c0.2-0.2,0.4-0.2,0.6-0.2
			s0.5,0.1,0.6,0.2c0.2,0.2,0.2,0.4,0.2,0.6s-0.1,0.5-0.2,0.6C161.8,231.3,161.6,231.4,161.4,231.4z M161.9,232.7v7h-1.1v-7H161.9z"
			/>
		<path class="st4" d="M168.3,232.7v1h-5.1v-1H168.3z M165.8,230.7v7.1c0,0.3,0.1,0.6,0.3,0.8s0.4,0.3,0.8,0.3c0.3,0,0.5,0,0.7-0.1
			s0.4-0.2,0.5-0.4l0.4,0.9c-0.2,0.2-0.5,0.4-0.8,0.5s-0.6,0.2-1,0.2s-0.7-0.1-1-0.2s-0.6-0.3-0.7-0.6c-0.2-0.3-0.3-0.6-0.3-1.1
			v-6.9L165.8,230.7z"/>
		<path class="st4" d="M172.1,230.4c0.6,0,1.1,0.1,1.6,0.3s0.8,0.5,1.1,0.8c0.3,0.4,0.4,0.8,0.4,1.3s-0.1,1-0.4,1.4
			c-0.2,0.4-0.6,0.7-1,0.8c-0.4,0.2-0.8,0.3-1.3,0.4v1.5h-1.2v-2.1c0.6-0.1,1.1-0.2,1.5-0.4s0.7-0.4,0.8-0.6
			c0.2-0.2,0.3-0.5,0.3-0.9s-0.2-0.8-0.5-1.1s-0.8-0.4-1.5-0.4c-0.6,0-1.1,0.2-1.5,0.5s-0.6,0.8-0.7,1.4l-1-0.6
			c0.1-0.5,0.3-0.9,0.6-1.3s0.7-0.6,1.1-0.8C171,230.4,171.5,230.4,172.1,230.4z M171.9,238.1c0.3,0,0.5,0.1,0.7,0.3
			s0.3,0.4,0.3,0.7s-0.1,0.5-0.3,0.7s-0.4,0.3-0.7,0.3s-0.5-0.1-0.7-0.3s-0.3-0.4-0.3-0.7s0.1-0.5,0.3-0.7S171.6,238.1,171.9,238.1z
			"/>
		<path class="st5" d="M184.2,230.4c0.8,0,1.6,0.1,2.2,0.4c0.6,0.3,1.2,0.7,1.6,1.3l-1.1,1.2c-0.4-0.5-0.8-0.8-1.3-1.1
			c-0.5-0.2-1-0.3-1.6-0.3c-0.4,0-0.7,0.1-1,0.2c-0.3,0.1-0.4,0.2-0.6,0.4s-0.2,0.4-0.2,0.6c0,0.3,0.1,0.5,0.3,0.6
			c0.2,0.2,0.5,0.3,1,0.4l1.7,0.4c0.9,0.2,1.6,0.5,2,0.9s0.6,0.9,0.6,1.6c0,0.6-0.2,1.1-0.5,1.6c-0.3,0.4-0.8,0.8-1.3,1
			s-1.2,0.3-2,0.3c-0.6,0-1.2-0.1-1.8-0.2c-0.5-0.2-1-0.4-1.4-0.6c-0.4-0.3-0.8-0.6-1.1-0.9l1.1-1.3c0.2,0.3,0.5,0.6,0.8,0.8
			s0.7,0.4,1.1,0.6c0.4,0.1,0.8,0.2,1.3,0.2c0.4,0,0.7,0,1-0.1s0.5-0.2,0.6-0.4s0.2-0.4,0.2-0.6c0-0.2-0.1-0.5-0.2-0.6
			c-0.2-0.2-0.5-0.3-0.9-0.4l-1.9-0.4c-0.5-0.1-1-0.3-1.4-0.5s-0.7-0.5-0.9-0.8s-0.3-0.7-0.3-1.2c0-0.6,0.1-1,0.4-1.5
			c0.3-0.4,0.7-0.8,1.3-1C182.7,230.5,183.4,230.4,184.2,230.4z"/>
		<path class="st5" d="M192.4,239.9c-0.7,0-1.4-0.1-1.9-0.4s-1-0.7-1.3-1.2s-0.4-1.2-0.4-2s0.1-1.4,0.4-2s0.7-1,1.3-1.2
			s1.2-0.4,1.8-0.4c0.7,0,1.3,0.1,1.8,0.4s0.9,0.7,1.1,1.2c0.3,0.5,0.4,1,0.4,1.7c0,0.2,0,0.4,0,0.5s0,0.3,0,0.4H190v-1.3h4.7
			l-0.9,0.3c0-0.6-0.1-1-0.4-1.4s-0.6-0.5-1.1-0.5c-0.4,0-0.7,0.1-0.9,0.3c-0.3,0.2-0.5,0.4-0.6,0.7s-0.2,0.7-0.2,1.3
			c0,0.5,0.1,0.9,0.2,1.2c0.1,0.3,0.4,0.6,0.6,0.7c0.3,0.2,0.6,0.2,1,0.2s0.7-0.1,1-0.2c0.3-0.2,0.4-0.4,0.6-0.7l1.5,0.6
			c-0.1,0.4-0.4,0.7-0.7,0.9c-0.3,0.3-0.7,0.5-1.1,0.6C193.4,239.8,192.9,239.9,192.4,239.9z"/>
		<path class="st5" d="M196.9,239.7v-7h1.7l0.1,2.1l-0.2-0.2c0.1-0.5,0.3-0.8,0.5-1.1s0.5-0.5,0.9-0.7s0.7-0.2,1.2-0.2
			s0.9,0.1,1.3,0.3c0.4,0.2,0.7,0.5,0.9,0.8c0.2,0.4,0.3,0.9,0.3,1.4v4.6h-1.9v-4c0-0.6-0.1-1-0.4-1.2c-0.2-0.2-0.5-0.3-0.9-0.3
			c-0.3,0-0.5,0.1-0.8,0.2c-0.2,0.1-0.4,0.3-0.6,0.6c-0.2,0.3-0.2,0.7-0.2,1.1v3.7h-1.9V239.7z"/>
		<path class="st5" d="M207.8,239.9c-0.6,0-1.1-0.1-1.5-0.4s-0.8-0.7-1.1-1.2s-0.4-1.2-0.4-1.9c0-0.8,0.1-1.4,0.4-2
			c0.3-0.5,0.6-1,1.1-1.2s1-0.4,1.6-0.4s1.1,0.2,1.5,0.5c0.4,0.4,0.7,0.8,0.8,1.4l-0.2,0.2v-5.1h1.9v10.1h-1.7l-0.1-2.1l0.2,0.1
			c-0.1,0.4-0.2,0.8-0.4,1.1s-0.5,0.6-0.9,0.7C208.6,239.8,208.2,239.9,207.8,239.9z M208.3,238.4c0.3,0,0.6-0.1,0.9-0.3
			s0.4-0.4,0.6-0.8c0.1-0.3,0.2-0.7,0.2-1.2c0-0.4-0.1-0.8-0.2-1.1c-0.1-0.3-0.3-0.6-0.6-0.7c-0.2-0.2-0.5-0.3-0.9-0.3
			c-0.5,0-0.9,0.2-1.2,0.6c-0.3,0.4-0.4,0.9-0.4,1.6s0.1,1.2,0.4,1.6C207.4,238.2,207.8,238.4,208.3,238.4z"/>
		<path class="st5" d="M218.4,231.7c-0.4,0-0.7-0.1-0.9-0.3s-0.3-0.4-0.3-0.8c0-0.3,0.1-0.6,0.3-0.8s0.5-0.3,0.9-0.3
			s0.7,0.1,0.9,0.3s0.3,0.4,0.3,0.8c0,0.3-0.1,0.6-0.3,0.8S218.8,231.7,218.4,231.7z M219.3,232.7v7h-1.9v-7H219.3z"/>
		<path class="st5" d="M225.7,232.7v1.4h-5.4v-1.4H225.7z M223.4,230.6v6.9c0,0.3,0.1,0.6,0.3,0.7s0.4,0.2,0.7,0.2
			c0.2,0,0.5,0,0.6-0.1s0.3-0.2,0.5-0.3l0.3,1.3c-0.2,0.2-0.5,0.3-0.8,0.4c-0.3,0.1-0.7,0.2-1.1,0.2c-0.5,0-0.9-0.1-1.2-0.2
			c-0.4-0.1-0.6-0.4-0.8-0.7s-0.3-0.7-0.3-1.2v-6.6L223.4,230.6z"/>
		<path class="st5" d="M234.4,235.3c0-0.4-0.1-0.7-0.3-0.9s-0.5-0.3-0.9-0.3c-0.3,0-0.6,0.1-0.9,0.3c-0.3,0.2-0.5,0.5-0.6,0.9
			l-1.6-0.5c0.2-0.6,0.5-1.1,1-1.5s1.3-0.6,2.2-0.6c0.6,0,1.2,0.1,1.6,0.3c0.5,0.2,0.8,0.5,1.1,0.9s0.4,0.9,0.4,1.4v2.8
			c0,0.4,0.2,0.5,0.5,0.5c0.2,0,0.3,0,0.4-0.1l-0.1,1.2c-0.2,0.1-0.5,0.2-0.9,0.2c-0.3,0-0.6-0.1-0.9-0.2c-0.3-0.1-0.5-0.3-0.6-0.5
			s-0.2-0.5-0.2-0.9v-0.1l0.3-0.1c-0.1,0.4-0.2,0.7-0.5,0.9s-0.6,0.4-0.9,0.6c-0.4,0.1-0.7,0.2-1.1,0.2c-0.5,0-0.9-0.1-1.2-0.2
			s-0.6-0.4-0.8-0.6s-0.3-0.6-0.3-1c0-0.5,0.2-0.9,0.5-1.3c0.3-0.3,0.8-0.6,1.4-0.7l2.6-0.5v1.2l-1.7,0.3c-0.3,0.1-0.6,0.2-0.7,0.3
			s-0.2,0.3-0.2,0.5s0.1,0.4,0.3,0.5s0.4,0.2,0.6,0.2c0.2,0,0.4,0,0.6-0.1s0.4-0.1,0.5-0.2s0.3-0.2,0.4-0.4c0.1-0.2,0.1-0.4,0.1-0.6
			v-1.9H234.4z"/>
		<path class="st5" d="M242.2,238.4c0.8,0,1.3,0.2,1.8,0.5c0.4,0.3,0.6,0.8,0.6,1.4c0,0.5-0.2,1-0.5,1.4s-0.7,0.6-1.3,0.8
			s-1.2,0.3-1.9,0.3c-1.2,0-2.1-0.2-2.6-0.5c-0.6-0.3-0.8-0.8-0.8-1.3c0-0.4,0.1-0.7,0.4-1c0.3-0.3,0.8-0.4,1.5-0.4l-0.1,0.2
			c-0.5-0.1-0.9-0.2-1.1-0.5c-0.3-0.2-0.4-0.6-0.4-1s0.2-0.8,0.5-1.1s0.8-0.4,1.4-0.5l0.8,0.4h-0.2c-0.4,0-0.7,0.1-0.8,0.2
			c-0.2,0.1-0.2,0.3-0.2,0.5s0.1,0.3,0.2,0.4s0.4,0.1,0.7,0.1h2V238.4z M241,232.6c0.7,0,1.2,0.1,1.7,0.3s0.8,0.5,1.1,0.8
			c0.3,0.4,0.4,0.8,0.4,1.3s-0.1,0.9-0.4,1.3s-0.6,0.6-1.1,0.8s-1,0.3-1.7,0.3c-1,0-1.8-0.2-2.4-0.6s-0.8-1-0.8-1.7
			c0-0.5,0.1-0.9,0.4-1.3c0.3-0.4,0.6-0.6,1.1-0.8C239.7,232.7,240.3,232.6,241,232.6z M240.9,241.4c0.5,0,0.9,0,1.2-0.1
			s0.5-0.2,0.7-0.3s0.2-0.3,0.2-0.4c0-0.2-0.1-0.3-0.2-0.4c-0.1-0.1-0.4-0.2-0.8-0.2h-2.4c-0.2,0-0.4,0.1-0.6,0.2
			c-0.1,0.1-0.2,0.3-0.2,0.5c0,0.3,0.2,0.5,0.5,0.6C239.8,241.3,240.3,241.4,240.9,241.4z M241,233.8c-0.4,0-0.7,0.1-0.9,0.3
			s-0.4,0.5-0.4,0.9s0.1,0.7,0.4,0.9c0.2,0.2,0.5,0.3,0.9,0.3s0.7-0.1,0.9-0.3s0.4-0.5,0.4-0.9s-0.1-0.6-0.4-0.9
			S241.3,233.8,241,233.8z M244.5,231.1l0.2,1.4h-0.1h-0.1c-0.4,0-0.7,0.1-1,0.3c-0.2,0.2-0.3,0.5-0.3,0.8l-0.8-0.3
			c0-0.4,0.1-0.7,0.2-1c0.1-0.3,0.4-0.6,0.7-0.8s0.6-0.3,1.1-0.3C244.4,231.1,244.4,231.1,244.5,231.1L244.5,231.1z"/>
		<path class="st5" d="M249.3,235.3c0-0.4-0.1-0.7-0.3-0.9s-0.5-0.3-0.9-0.3c-0.3,0-0.6,0.1-0.9,0.3c-0.3,0.2-0.5,0.5-0.6,0.9
			l-1.6-0.5c0.2-0.6,0.5-1.1,1-1.5s1.3-0.6,2.2-0.6c0.6,0,1.2,0.1,1.6,0.3s0.8,0.5,1.1,0.9s0.4,0.9,0.4,1.4v2.8
			c0,0.4,0.2,0.5,0.5,0.5c0.2,0,0.3,0,0.4-0.1l-0.1,1.2c-0.2,0.1-0.5,0.2-0.9,0.2c-0.3,0-0.6-0.1-0.9-0.2s-0.5-0.3-0.6-0.5
			s-0.2-0.5-0.2-0.9v-0.1l0.3-0.1c-0.1,0.4-0.2,0.7-0.5,0.9s-0.6,0.4-0.9,0.6c-0.4,0.1-0.7,0.2-1.1,0.2c-0.5,0-0.9-0.1-1.2-0.2
			c-0.3-0.1-0.6-0.4-0.8-0.6s-0.3-0.6-0.3-1c0-0.5,0.2-0.9,0.5-1.3c0.3-0.3,0.8-0.6,1.4-0.7l2.6-0.5v1.2l-1.7,0.3
			c-0.3,0.1-0.6,0.2-0.7,0.3c-0.2,0.1-0.2,0.3-0.2,0.5s0.1,0.4,0.3,0.5s0.4,0.2,0.6,0.2c0.2,0,0.4,0,0.6-0.1c0.2,0,0.4-0.1,0.5-0.2
			s0.3-0.2,0.3-0.4c0.1-0.2,0.1-0.4,0.1-0.6L249.3,235.3L249.3,235.3z"/>
		<path class="st5" d="M253.9,231.7c-0.4,0-0.7-0.1-0.9-0.3s-0.3-0.4-0.3-0.8c0-0.3,0.1-0.6,0.3-0.8s0.5-0.3,0.9-0.3
			s0.7,0.1,0.9,0.3s0.3,0.4,0.3,0.8c0,0.3-0.1,0.6-0.3,0.8C254.6,231.6,254.3,231.7,253.9,231.7z M254.9,232.7v7H253v-7H254.9z"/>
		<path class="st5" d="M256.5,239.7v-7h1.7l0.1,2.1l-0.2-0.2c0.1-0.5,0.3-0.8,0.5-1.1s0.5-0.5,0.9-0.7c0.4-0.1,0.7-0.2,1.2-0.2
			s0.9,0.1,1.3,0.3s0.7,0.5,0.9,0.8c0.2,0.4,0.3,0.9,0.3,1.4v4.6h-1.9v-4c0-0.6-0.1-1-0.4-1.2s-0.5-0.3-0.9-0.3
			c-0.3,0-0.5,0.1-0.8,0.2s-0.4,0.3-0.6,0.6s-0.2,0.7-0.2,1.1v3.7h-1.9V239.7z"/>
		<g class="st0">
			<defs>
				<rect id="SVGID_7_" y="0.2" width="420" height="518"/>
			</defs>
			<clipPath id="SVGID_8_">
				<use xlink:href="#SVGID_7_"  style="overflow:visible;"/>
			</clipPath>
			
				<rect x="362.1" y="46.6" transform="matrix(0.7071 -0.7071 0.7071 0.7071 75.6285 276.817)" class="st6" width="19.8" height="1"/>
			
				<rect x="371.5" y="37.3" transform="matrix(0.7071 -0.7071 0.7071 0.7071 75.5992 276.8877)" class="st6" width="1" height="19.8"/>
			<path class="st7" d="M257,457.1H77c-1.1,0-2-0.9-2-2s0.9-2,2-2h180c1.1,0,2,0.9,2,2S258.1,457.1,257,457.1"/>
			<path class="st7" d="M186,457.1H77c-1.1,0-2-0.9-2-2s0.9-2,2-2h109c1.1,0,2,0.9,2,2S187.1,457.1,186,457.1"/>
		</g>
		<path class="st4" d="M48.3,455.8c0,1.4-1.1,2.7-3,2.7c-1.8,0-2.9-1.2-2.9-2.6h1.2c0.1,0.6,0.6,1.4,1.7,1.4c1.1,0,1.7-0.8,1.7-1.6
			c0-0.8-0.5-1.5-1.7-1.5h-0.5v-1.1h0.4c0.9,0,1.5-0.5,1.5-1.3c0-0.7-0.5-1.3-1.4-1.3c-0.7,0-1.3,0.4-1.4,1h-1.2
			c0-1.3,1.2-2.2,2.6-2.2c1.5,0,2.6,1,2.6,2.3c0,0.8-0.4,1.5-1,1.8v0.2C47.7,453.9,48.3,454.8,48.3,455.8z"/>
		<path class="st4" d="M50.7,459.1h-1.2l5-11.2h1.2L50.7,459.1z"/>
		<path class="st4" d="M62.1,455.8c0,1.4-1.1,2.7-3,2.7c-1.8,0-2.9-1.2-2.9-2.6h1.2c0.1,0.6,0.6,1.4,1.7,1.4c1.1,0,1.7-0.8,1.7-1.6
			c0-0.8-0.5-1.5-1.7-1.5h-0.5v-1.1H59c0.9,0,1.5-0.5,1.5-1.3c0-0.7-0.5-1.3-1.4-1.3c-0.7,0-1.3,0.4-1.4,1h-1.2
			c0-1.3,1.2-2.2,2.6-2.2c1.5,0,2.6,1,2.6,2.3c0,0.8-0.4,1.5-1,1.8v0.2C61.6,453.9,62.1,454.8,62.1,455.8z"/>
		<g class="st0">
			<defs>
				<rect id="SVGID_9_" y="0.2" width="420" height="518"/>
			</defs>
			<clipPath id="SVGID_10_">
				<use xlink:href="#SVGID_9_"  style="overflow:visible;"/>
			</clipPath>
			<path class="st8" d="M354,384.2H65.5c-13.8,0-25-11.2-25-25s11.2-25,25-25H354c13.8,0,25,11.2,25,25S367.8,384.2,354,384.2"/>
			<g class="st9">
				<g>
					<defs>
						<rect id="SVGID_11_" x="68.7" y="353.1" width="221.3" height="22"/>
					</defs>
					<clipPath id="SVGID_12_">
						<use xlink:href="#SVGID_11_"  style="overflow:visible;"/>
					</clipPath>
					<g class="st10">
						<g class="st11">
							<path class="st12" d="M71.3,355.5v9.2h-1.1v-9.2H71.3z"/>
						</g>
						<g class="st11">
							<path class="st12" d="M73.7,364.7v-7h1l0.1,1.6l-0.2-0.2c0.1-0.4,0.3-0.7,0.6-0.9c0.3-0.2,0.5-0.4,0.9-0.5
								c0.3-0.1,0.7-0.2,1-0.2c0.5,0,1,0.1,1.4,0.3c0.4,0.2,0.7,0.5,1,0.9c0.2,0.4,0.4,0.9,0.4,1.5v4.5h-1.1v-4.1
								c0-0.8-0.2-1.3-0.5-1.6c-0.3-0.3-0.7-0.5-1.2-0.5c-0.3,0-0.7,0.1-1,0.2c-0.3,0.2-0.6,0.4-0.8,0.8c-0.2,0.4-0.3,0.8-0.3,1.4
								v3.7h-1.3V364.7z"/>
						</g>
						<g class="st11">
							<path class="st12" d="M84.4,364.9c-0.7,0-1.3-0.1-1.9-0.4s-1-0.7-1.3-1.2l1-0.7c0.2,0.4,0.5,0.8,0.9,1s0.9,0.4,1.4,0.4
								s0.9-0.1,1.2-0.3c0.3-0.2,0.4-0.4,0.4-0.7c0-0.2-0.1-0.4-0.2-0.5s-0.4-0.3-0.7-0.4l-1.7-0.3c-0.7-0.1-1.2-0.4-1.5-0.7
								c-0.3-0.3-0.4-0.7-0.4-1.2c0-0.4,0.1-0.7,0.3-1c0.2-0.3,0.5-0.6,0.9-0.8c0.4-0.2,0.9-0.3,1.4-0.3c0.7,0,1.3,0.1,1.8,0.4
								s0.8,0.7,1.1,1.1l-0.9,0.6c-0.2-0.4-0.4-0.7-0.8-0.9c-0.4-0.2-0.7-0.3-1.1-0.3c-0.3,0-0.6,0-0.9,0.1
								c-0.2,0.1-0.4,0.2-0.5,0.4s-0.2,0.3-0.2,0.6s0.1,0.4,0.2,0.6s0.4,0.3,0.8,0.4l1.8,0.4c0.7,0.1,1.1,0.3,1.4,0.6
								s0.4,0.7,0.4,1.1s-0.1,0.8-0.4,1.2s-0.6,0.6-1,0.8C85.5,364.8,85,364.9,84.4,364.9z"/>
						</g>
						<g class="st11">
							<path class="st12" d="M91.8,364.9c-0.7,0-1.3-0.1-1.8-0.4s-0.9-0.7-1.2-1.3c-0.3-0.5-0.4-1.2-0.4-2s0.1-1.4,0.4-2
								c0.3-0.5,0.7-1,1.2-1.3s1.1-0.4,1.7-0.4c0.7,0,1.2,0.1,1.7,0.4s0.8,0.7,1.1,1.1c0.2,0.5,0.4,1,0.4,1.6c0,0.2,0,0.3,0,0.4
								s0,0.2,0,0.4h-5.7v-1h5.2l-0.6,0.1c0-0.7-0.2-1.2-0.6-1.6s-0.9-0.5-1.4-0.5s-0.9,0.1-1.2,0.3c-0.3,0.2-0.6,0.5-0.8,0.9
								c-0.2,0.4-0.3,0.9-0.3,1.4c0,0.6,0.1,1,0.3,1.4c0.2,0.4,0.5,0.7,0.8,0.9c0.3,0.2,0.7,0.3,1.2,0.3s0.9-0.1,1.3-0.3
								c0.3-0.2,0.6-0.5,0.8-0.8l0.9,0.5c-0.2,0.3-0.4,0.6-0.7,0.8c-0.3,0.2-0.6,0.4-1,0.5S92.3,364.9,91.8,364.9z"/>
						</g>
						<g class="st11">
							<path class="st12" d="M96.5,364.7v-7h0.9l0.2,1.1c0.2-0.4,0.5-0.8,0.9-1s0.8-0.3,1.4-0.3c0.1,0,0.3,0,0.4,0s0.3,0.1,0.4,0.1
								l-0.2,1c-0.1,0-0.2-0.1-0.3-0.1c-0.1,0-0.3,0-0.5,0c-0.3,0-0.6,0.1-0.9,0.3s-0.5,0.4-0.7,0.8s-0.3,0.8-0.3,1.3v3.8
								L96.5,364.7L96.5,364.7z"/>
						</g>
						<g class="st11">
							<path class="st12" d="M105.6,357.7v1h-5.1v-1H105.6z M103.1,355.8v7.1c0,0.3,0.1,0.6,0.3,0.8c0.2,0.2,0.4,0.3,0.8,0.3
								c0.3,0,0.5,0,0.7-0.1s0.4-0.2,0.5-0.4l0.4,0.9c-0.2,0.2-0.5,0.4-0.8,0.5s-0.6,0.2-1,0.2s-0.7-0.1-1-0.2s-0.6-0.3-0.7-0.6
								c-0.2-0.3-0.3-0.6-0.3-1.1v-6.9L103.1,355.8z"/>
							<path class="st12" d="M150.8,357.7v1h-5.1v-1H150.8z M148.3,355.8v7.1c0,0.3,0.1,0.6,0.3,0.8c0.2,0.2,0.4,0.3,0.8,0.3
								c0.3,0,0.5,0,0.7-0.1s0.4-0.2,0.5-0.4l0.4,0.9c-0.2,0.2-0.5,0.4-0.8,0.5s-0.6,0.2-1,0.2c-0.4,0-0.7-0.1-1-0.2
								s-0.6-0.3-0.7-0.6c-0.2-0.3-0.3-0.6-0.3-1.1v-6.9L148.3,355.8z"/>
							<path class="st12" d="M113.7,364.9c-0.7,0-1.3-0.1-1.9-0.4s-1-0.7-1.3-1.2l1-0.7c0.2,0.4,0.5,0.8,0.9,1s0.9,0.4,1.4,0.4
								s0.9-0.1,1.2-0.3c0.3-0.2,0.4-0.4,0.4-0.7c0-0.2-0.1-0.4-0.2-0.5s-0.4-0.3-0.7-0.4l-1.7-0.3c-0.7-0.1-1.2-0.4-1.5-0.7
								c-0.3-0.3-0.4-0.7-0.4-1.2c0-0.4,0.1-0.7,0.3-1c0.2-0.3,0.5-0.6,0.9-0.8c0.4-0.2,0.9-0.3,1.4-0.3c0.7,0,1.3,0.1,1.8,0.4
								s0.8,0.7,1.1,1.1l-0.9,0.6c-0.2-0.4-0.4-0.7-0.8-0.9c-0.4-0.2-0.7-0.3-1.1-0.3c-0.3,0-0.6,0-0.9,0.1
								c-0.2,0.1-0.4,0.2-0.5,0.4s-0.2,0.3-0.2,0.6s0.1,0.4,0.2,0.6s0.4,0.3,0.8,0.4l1.8,0.4c0.7,0.1,1.1,0.3,1.4,0.6
								s0.4,0.7,0.4,1.1s-0.1,0.8-0.4,1.2s-0.6,0.6-1,0.8C114.8,364.8,114.3,364.9,113.7,364.9z"/>
							<path class="st12" d="M121.1,364.9c-0.7,0-1.3-0.1-1.8-0.4s-0.9-0.7-1.2-1.3c-0.3-0.5-0.4-1.2-0.4-2s0.1-1.4,0.4-2
								c0.3-0.5,0.7-1,1.2-1.3s1.1-0.4,1.7-0.4c0.7,0,1.2,0.1,1.7,0.4s0.8,0.7,1.1,1.1c0.2,0.5,0.4,1,0.4,1.6c0,0.2,0,0.3,0,0.4
								s0,0.2,0,0.4h-5.7v-1h5.2l-0.6,0.1c0-0.7-0.2-1.2-0.6-1.6s-0.9-0.5-1.4-0.5s-0.9,0.1-1.2,0.3c-0.3,0.2-0.6,0.5-0.8,0.9
								c-0.2,0.4-0.3,0.9-0.3,1.4c0,0.6,0.1,1,0.3,1.4c0.2,0.4,0.5,0.7,0.8,0.9c0.3,0.2,0.7,0.3,1.2,0.3s0.9-0.1,1.3-0.3
								c0.3-0.2,0.6-0.5,0.8-0.8l0.9,0.5c-0.2,0.3-0.4,0.6-0.7,0.8c-0.3,0.2-0.6,0.4-1,0.5S121.6,364.9,121.1,364.9z"/>
						</g>
						<g class="st11">
							<path class="st12" d="M128.8,357.6c0.5,0,0.9,0.1,1.3,0.2s0.7,0.4,1,0.6c0.3,0.3,0.5,0.6,0.7,1l-1.1,0.5
								c-0.1-0.4-0.4-0.8-0.7-1s-0.7-0.4-1.2-0.4s-0.9,0.1-1.2,0.3c-0.3,0.2-0.6,0.5-0.8,0.9c-0.2,0.4-0.3,0.9-0.3,1.4
								c0,0.6,0.1,1,0.3,1.4c0.2,0.4,0.4,0.7,0.8,0.9c0.3,0.2,0.7,0.3,1.2,0.3c0.4,0,0.7-0.1,0.9-0.2c0.3-0.1,0.5-0.3,0.7-0.5
								s0.3-0.5,0.4-0.8l1,0.4c-0.2,0.4-0.4,0.8-0.7,1.1c-0.3,0.3-0.6,0.5-1,0.7s-0.8,0.2-1.3,0.2c-0.7,0-1.2-0.1-1.8-0.4
								c-0.5-0.3-0.9-0.7-1.2-1.3c-0.3-0.5-0.4-1.2-0.4-2s0.1-1.4,0.4-2c0.3-0.5,0.7-1,1.2-1.3C127.6,357.7,128.1,357.6,128.8,357.6
								z"/>
						</g>
						<g class="st11">
							<path class="st12" d="M133.3,364.7v-7h0.9l0.2,1.1c0.2-0.4,0.5-0.8,0.9-1s0.8-0.3,1.4-0.3c0.1,0,0.3,0,0.4,0
								c0.1,0,0.3,0.1,0.4,0.1l-0.2,1c-0.1,0-0.2-0.1-0.3-0.1s-0.3,0-0.5,0c-0.3,0-0.6,0.1-0.9,0.3s-0.5,0.4-0.7,0.8
								c-0.2,0.3-0.3,0.8-0.3,1.3v3.8L133.3,364.7L133.3,364.7z"/>
						</g>
						<g class="st11">
							<path class="st12" d="M141.3,364.9c-0.7,0-1.3-0.1-1.8-0.4s-0.9-0.7-1.2-1.3c-0.3-0.5-0.4-1.2-0.4-2s0.1-1.4,0.4-2
								c0.3-0.5,0.7-1,1.2-1.3s1.1-0.4,1.7-0.4c0.7,0,1.2,0.1,1.7,0.4s0.8,0.7,1.1,1.1c0.2,0.5,0.4,1,0.4,1.6c0,0.2,0,0.3,0,0.4
								s0,0.2,0,0.4h-5.7v-1h5.2l-0.6,0.1c0-0.7-0.2-1.2-0.6-1.6c-0.4-0.4-0.9-0.5-1.4-0.5s-0.9,0.1-1.2,0.3
								c-0.3,0.2-0.6,0.5-0.8,0.9s-0.3,0.9-0.3,1.4c0,0.6,0.1,1,0.3,1.4s0.5,0.7,0.8,0.9c0.3,0.2,0.7,0.3,1.2,0.3s0.9-0.1,1.3-0.3
								c0.3-0.2,0.6-0.5,0.8-0.8l0.9,0.5c-0.2,0.3-0.4,0.6-0.7,0.8c-0.3,0.2-0.6,0.4-1,0.5S141.8,364.9,141.3,364.9z"/>
						</g>
						<g class="st11">
							<path class="st12" d="M161.7,357.6c0.5,0,0.9,0.1,1.3,0.2s0.7,0.4,1,0.6c0.3,0.3,0.5,0.6,0.7,1l-1.1,0.5
								c-0.1-0.4-0.4-0.8-0.7-1s-0.7-0.4-1.2-0.4s-0.9,0.1-1.2,0.3c-0.3,0.2-0.6,0.5-0.8,0.9s-0.3,0.9-0.3,1.4c0,0.6,0.1,1,0.3,1.4
								s0.4,0.7,0.8,0.9c0.3,0.2,0.7,0.3,1.2,0.3c0.4,0,0.7-0.1,0.9-0.2c0.3-0.1,0.5-0.3,0.7-0.5s0.3-0.5,0.4-0.8l1,0.4
								c-0.2,0.4-0.4,0.8-0.7,1.1c-0.3,0.3-0.6,0.5-1,0.7s-0.8,0.2-1.3,0.2c-0.7,0-1.2-0.1-1.8-0.4c-0.5-0.3-0.9-0.7-1.2-1.3
								c-0.3-0.5-0.4-1.2-0.4-2s0.1-1.4,0.4-2c0.3-0.5,0.7-1,1.2-1.3C160.4,357.7,161,357.6,161.7,357.6z"/>
							<path class="st12" d="M169.1,357.6c0.7,0,1.2,0.1,1.8,0.4s0.9,0.7,1.2,1.3c0.3,0.5,0.4,1.2,0.4,2s-0.1,1.4-0.4,2
								c-0.3,0.5-0.7,1-1.2,1.3s-1.1,0.4-1.8,0.4s-1.2-0.1-1.8-0.4c-0.5-0.3-0.9-0.7-1.2-1.3c-0.3-0.5-0.4-1.2-0.4-2s0.1-1.4,0.4-2
								c0.3-0.5,0.7-1,1.2-1.3S168.4,357.6,169.1,357.6z M169.1,358.6c-0.5,0-0.9,0.1-1.2,0.3s-0.6,0.5-0.8,0.9s-0.3,0.9-0.3,1.4
								c0,0.6,0.1,1,0.3,1.4s0.4,0.7,0.8,0.9c0.3,0.2,0.7,0.3,1.2,0.3s0.9-0.1,1.2-0.3c0.3-0.2,0.6-0.5,0.8-0.9s0.3-0.9,0.3-1.4
								c0-0.6-0.1-1-0.3-1.4s-0.4-0.7-0.8-0.9S169.6,358.6,169.1,358.6z"/>
							<path class="st12" d="M176.9,364.9c-0.6,0-1.1-0.1-1.6-0.4s-0.9-0.7-1.2-1.3c-0.3-0.5-0.4-1.2-0.4-2s0.2-1.4,0.5-2
								c0.3-0.5,0.7-1,1.2-1.2s1-0.4,1.6-0.4s1.1,0.1,1.5,0.4s0.7,0.7,0.8,1.2l-0.1,0.1v-4.8h1.1v10.2h-1l-0.1-1.7l0.2-0.1
								c-0.1,0.4-0.2,0.8-0.5,1c-0.2,0.3-0.6,0.5-0.9,0.7S177.3,364.9,176.9,364.9z M177,363.9c0.4,0,0.8-0.1,1.2-0.3
								c0.3-0.2,0.6-0.5,0.8-1s0.3-0.9,0.3-1.5c0-0.5-0.1-1-0.3-1.4s-0.4-0.7-0.8-0.9c-0.3-0.2-0.7-0.3-1.1-0.3
								c-0.7,0-1.3,0.2-1.7,0.7s-0.6,1.1-0.6,1.9s0.2,1.4,0.6,1.9C175.8,363.7,176.3,363.9,177,363.9z"/>
						</g>
						<g class="st11">
							<path class="st12" d="M185.5,364.9c-0.7,0-1.3-0.1-1.8-0.4s-0.9-0.7-1.2-1.3c-0.3-0.5-0.4-1.2-0.4-2s0.1-1.4,0.4-2
								c0.3-0.5,0.7-1,1.2-1.3s1.1-0.4,1.7-0.4c0.7,0,1.2,0.1,1.7,0.4s0.8,0.7,1.1,1.1c0.2,0.5,0.4,1,0.4,1.6c0,0.2,0,0.3,0,0.4
								s0,0.2,0,0.4h-5.7v-1h5.2l-0.6,0.1c0-0.7-0.2-1.2-0.6-1.6c-0.4-0.4-0.9-0.5-1.4-0.5s-0.9,0.1-1.2,0.3
								c-0.3,0.2-0.6,0.5-0.8,0.9s-0.3,0.9-0.3,1.4c0,0.6,0.1,1,0.3,1.4s0.5,0.7,0.8,0.9c0.3,0.2,0.7,0.3,1.2,0.3s0.9-0.1,1.3-0.3
								c0.3-0.2,0.6-0.5,0.8-0.8l0.9,0.5c-0.2,0.3-0.4,0.6-0.7,0.8c-0.3,0.2-0.6,0.4-1,0.5S186,364.9,185.5,364.9z"/>
						</g>
						<g class="st11">
							<path class="st12" d="M194.6,364.7v-10.2h1.1v4.3c0.2-0.4,0.6-0.7,1-0.9c0.4-0.2,0.8-0.3,1.3-0.3s1,0.1,1.4,0.3
								c0.4,0.2,0.7,0.5,1,0.9c0.2,0.4,0.4,0.9,0.4,1.5v4.5h-1.1v-4.1c0-0.8-0.2-1.3-0.5-1.6c-0.3-0.3-0.7-0.5-1.2-0.5
								c-0.3,0-0.7,0.1-1,0.2c-0.3,0.2-0.6,0.4-0.8,0.8s-0.3,0.8-0.3,1.4v3.7L194.6,364.7L194.6,364.7z"/>
							<path class="st12" d="M205.8,364.9c-0.7,0-1.3-0.1-1.8-0.4s-0.9-0.7-1.2-1.3c-0.3-0.5-0.4-1.2-0.4-2s0.1-1.4,0.4-2
								c0.3-0.5,0.7-1,1.2-1.3s1.1-0.4,1.7-0.4c0.7,0,1.2,0.1,1.7,0.4s0.8,0.7,1.1,1.1c0.2,0.5,0.4,1,0.4,1.6c0,0.2,0,0.3,0,0.4
								s0,0.2,0,0.4h-5.7v-1h5.2l-0.6,0.1c0-0.7-0.2-1.2-0.6-1.6c-0.4-0.4-0.9-0.5-1.4-0.5s-0.9,0.1-1.2,0.3
								c-0.3,0.2-0.6,0.5-0.8,0.9s-0.3,0.9-0.3,1.4c0,0.6,0.1,1,0.3,1.4s0.5,0.7,0.8,0.9c0.3,0.2,0.7,0.3,1.2,0.3s0.9-0.1,1.3-0.3
								c0.3-0.2,0.6-0.5,0.8-0.8l0.9,0.5c-0.2,0.3-0.4,0.6-0.7,0.8c-0.3,0.2-0.6,0.4-1,0.5S206.2,364.9,205.8,364.9z"/>
						</g>
						<g class="st11">
							<path class="st12" d="M210.6,364.7v-7h0.9l0.2,1.1c0.2-0.4,0.5-0.8,0.9-1s0.8-0.3,1.4-0.3c0.1,0,0.3,0,0.4,0
								c0.1,0,0.3,0.1,0.4,0.1l-0.2,1c-0.1,0-0.2-0.1-0.3-0.1s-0.3,0-0.5,0c-0.3,0-0.6,0.1-0.9,0.3s-0.5,0.4-0.7,0.8
								s-0.3,0.8-0.3,1.3v3.8L210.6,364.7L210.6,364.7z"/>
						</g>
						<g class="st11">
							<path class="st12" d="M218.6,364.9c-0.7,0-1.3-0.1-1.8-0.4s-0.9-0.7-1.2-1.3c-0.3-0.5-0.4-1.2-0.4-2s0.1-1.4,0.4-2
								c0.3-0.5,0.7-1,1.2-1.3s1.1-0.4,1.7-0.4c0.7,0,1.2,0.1,1.7,0.4s0.8,0.7,1.1,1.1c0.2,0.5,0.4,1,0.4,1.6c0,0.2,0,0.3,0,0.4
								s0,0.2,0,0.4H216v-1h5.2l-0.6,0.1c0-0.7-0.2-1.2-0.6-1.6c-0.4-0.4-0.9-0.5-1.4-0.5s-0.9,0.1-1.2,0.3
								c-0.3,0.2-0.6,0.5-0.8,0.9s-0.3,0.9-0.3,1.4c0,0.6,0.1,1,0.3,1.4s0.5,0.7,0.8,0.9s0.7,0.3,1.2,0.3s0.9-0.1,1.3-0.3
								c0.3-0.2,0.6-0.5,0.8-0.8l0.9,0.5c-0.2,0.3-0.4,0.6-0.7,0.8s-0.6,0.4-1,0.5C219.4,364.8,219,364.9,218.6,364.9z"/>
						</g>
					</g>
				</g>
			</g>
			<path class="st13" d="M62.7,48.8V49c0,1.1,0.9,2,2,2c0.1,0,0.2,0,0.2,0c1.2,0,2.1-0.7,2.1-1.6c0-0.7-0.4-1.3-1.5-1.7L63.9,47
				c-1.8-0.7-2.8-1.6-2.8-3.1c0-1.9,1.8-3.2,4-3.2s3.7,1,3.8,2.8l-2.2,0.3v-0.2c-0.1-1.1-1-1.9-2.1-1.8c-0.9,0.1-1.6,0.7-1.7,1.5
				c0,0.6,0.4,1.3,1.8,1.8l1.8,0.7c1.7,0.7,2.5,1.6,2.5,2.9c0,2.2-2,3.3-4.3,3.3s-4.1-1-4.1-3L62.7,48.8z M71.9,46.6
				c0.3,2.5,1.8,3.7,3.6,3.7c1.3,0,2.5-0.5,3.3-1.4c-0.3,1.9-2,3.3-3.9,3.1c-2.8,0-4.9-2.3-4.9-5.5c0-3,1.8-5.8,5.1-5.8
				c2,0,4,1.2,4,3.5c0,0.1,0,0.3,0,0.4L71.9,46.6z M71.9,45h4.9c0-2.4-1.1-3.1-2.2-3.1S72.2,42.6,71.9,45 M81.9,46.6
				c0.3,2.5,1.8,3.7,3.6,3.7c1.3,0,2.5-0.5,3.4-1.4c-0.3,1.9-2,3.2-3.9,3.1c-2.8,0-4.9-2.3-4.9-5.5c0-3,1.8-5.8,5.1-5.8
				c2,0,4,1.2,4,3.5c0,0.1,0,0.3,0,0.4L81.9,46.6z M82,45h4.9c0-2.4-1.1-3.1-2.2-3.1S82.2,42.6,82,45 M99.6,51.9h-1.9v-1.6
				c-0.7,1.1-1.9,1.8-3.2,1.8c-2.2,0-4.3-1.9-4.3-5.4s2.2-6,5.2-6c0.8,0,1.6,0.2,2.3,0.5v-4.6l1.9-0.3V51.9z M97.7,49.8V43
				c-0.6-0.7-1.5-1.1-2.4-1.1c-1.6,0-3.1,1.2-3.1,4.3c0,2.5,1.1,4.4,3.4,4.4C96.3,50.5,97,50.3,97.7,49.8 M102.9,48.9L102.9,48.9
				c0,1.2,0.9,2.1,2,2.1c0.1,0,0.2,0,0.2,0c1.2,0,2.1-0.7,2.1-1.6c0-0.7-0.4-1.3-1.5-1.7l-1.7-0.6c-1.8-0.7-2.8-1.6-2.8-3.1
				c0-1.9,1.8-3.2,4-3.2s3.7,1,3.8,2.8l-2.2,0.3v-0.2c-0.1-1.1-1-1.9-2.1-1.8c-0.9,0.1-1.6,0.7-1.8,1.6c0,0.6,0.4,1.3,1.8,1.8
				l1.8,0.7c1.7,0.7,2.5,1.6,2.5,2.9c0,2.2-2,3.3-4.3,3.3s-4.1-1-4.1-3L102.9,48.9z M111.7,49.2c-0.7,0-1.3,0.6-1.3,1.4
				c0,0.7,0.6,1.3,1.4,1.3s1.3-0.6,1.3-1.4l0,0C113,49.8,112.4,49.2,111.7,49.2"/>
			<g class="st9">
				<g>
					<defs>
						<rect id="SVGID_13_" x="46.8" y="39.3" width="10.2" height="6.4"/>
					</defs>
					<clipPath id="SVGID_14_">
						<use xlink:href="#SVGID_13_"  style="overflow:visible;"/>
					</clipPath>
					<g class="st14">
						<g>
							<path class="st12" d="M46.8,45.3l0.2-0.1L46.8,45C46.8,45.1,46.8,45.2,46.8,45.3"/>
						</g>
						<g>
							<path class="st12" d="M57,40.3c-1.1-0.7-2.3-1-3.5-1c-3.1,0-5.9,2.2-6.5,5.2c0.2,0.2,0.4,0.3,0.6,0.4
								c0.2-0.1,0.5-0.2,0.7-0.3l0,0c0.6-0.2,1.3-0.3,2-0.3c1.5,0,3,0.5,4.2,1.3C56.1,44.5,57,42.5,57,40.3"/>
						</g>
					</g>
				</g>
			</g>
			<g class="st9">
				<g>
					<defs>
						<rect id="SVGID_15_" x="47.9" y="44.8" width="9.1" height="7.9"/>
					</defs>
					<clipPath id="SVGID_16_">
						<use xlink:href="#SVGID_15_"  style="overflow:visible;"/>
					</clipPath>
					<g class="st15">
						<g>
							<path class="st12" d="M56.1,48.2c-1.6-2.8-5.1-4.1-8.2-2.9c1.3,0.8,2.3,2,2.8,3.4l0.1,0.3c0.3,0.8,0.4,1.6,0.5,2.4v0.3
								c0,0.2,0,0.5,0,0.7c1.9,0.6,4,0.4,5.7-0.7C57,50.5,56.7,49.3,56.1,48.2"/>
						</g>
					</g>
				</g>
			</g>
			<g class="st9">
				<g>
					<defs>
						<rect id="SVGID_17_" x="37.2" y="46.3" width="10.2" height="6.4"/>
					</defs>
					<clipPath id="SVGID_18_">
						<use xlink:href="#SVGID_17_"  style="overflow:visible;"/>
					</clipPath>
					<g class="st16">
						<g>
							<path class="st12" d="M47.4,46.7l-0.3,0.1l0.2,0.2C47.4,46.9,47.4,46.8,47.4,46.7"/>
						</g>
						<g>
							<path class="st12" d="M47.3,47.5c-0.2-0.1-0.4-0.3-0.6-0.4c-0.2,0.1-0.3,0.1-0.5,0.2l0,0c-1.1,0.4-2.3,0.5-3.4,0.3
								c-1.1-0.2-2.1-0.6-3-1.3c-0.7,0.5-1.2,1.2-1.6,1.9c-0.6,1.1-0.9,2.3-0.9,3.5c3.1,1.9,7.3,1,9.2-2.2
								C46.9,48.9,47.2,48.2,47.3,47.5"/>
						</g>
					</g>
				</g>
			</g>
			<g class="st9">
				<g>
					<defs>
						<rect id="SVGID_19_" x="37.2" y="39.3" width="9.1" height="7.9"/>
					</defs>
					<clipPath id="SVGID_20_">
						<use xlink:href="#SVGID_19_"  style="overflow:visible;"/>
					</clipPath>
					<g class="st17">
						<g>
							<path class="st12" d="M46.3,46.8c-1.3-0.8-2.3-2-2.8-3.4l-0.1-0.3c-0.3-0.8-0.4-1.6-0.5-2.4v-0.3c0-0.2,0-0.5,0-0.7
								c-0.7-0.2-1.4-0.3-2.1-0.3c-1.2,0-2.5,0.3-3.5,1c0,1.2,0.3,2.5,0.9,3.5C39.7,46.7,43.2,48,46.3,46.8"/>
						</g>
					</g>
				</g>
			</g>
			<path class="st13" d="M50.4,54.3c0-0.1,0.1-0.2,0.1-0.3c0.3-0.7,0.4-1.5,0.4-2.3v-0.3c0-0.8-0.2-1.6-0.4-2.3l-0.1-0.3
				c-0.6-1.4-1.7-2.6-3-3.4c-0.9-0.5-1.6-1.2-2.1-2.1c-0.1-0.2-0.3-0.6-0.4-0.8c-0.5-1.4-0.5-3,0.1-4.3l0.3-0.5l0.1-0.1
				c0.4-0.7,1-1.3,1.7-1.7c0.7,0.5,1.3,1.1,1.8,1.9c0.4,0.7,0.7,1.5,0.7,2.3c0.4-0.3,0.8-0.5,1.3-0.7c-0.2-0.9-0.5-1.9-1-2.7
				c-0.6-0.9-1.4-1.7-2.4-2.2l-0.3-0.2h-0.1H47l-0.3,0.2c-1.3,0.8-2.4,1.9-3,3.4l-0.1,0.3c-0.3,0.7-0.4,1.5-0.5,2.3v0.3
				c0,0.8,0.2,1.6,0.4,2.3l0.1,0.3c0.6,1.4,1.7,2.6,3,3.4c0.9,0.5,1.6,1.2,2.1,2.1c0.1,0.2,0.3,0.6,0.4,0.8c0.5,1.4,0.5,3-0.1,4.3
				c-0.1,0.2-0.3,0.5-0.3,0.5l-0.1,0.1c-0.4,0.7-1,1.3-1.7,1.7c-0.7-0.5-1.3-1.1-1.8-1.9c-0.4-0.7-0.6-1.4-0.7-2.1
				c-0.4,0.2-0.8,0.5-1.3,0.7c0.2,0.9,0.5,1.7,1,2.5c0.6,0.9,1.4,1.7,2.4,2.2l0.3,0.2h0.1l0,0c0.1,0,0.2-0.1,0.3-0.2
				C48.8,56.9,49.8,55.7,50.4,54.3"/>
		</g>
	</g>
</g>
</svg>
