<?xml version="1.0" encoding="utf-8"?>
<!-- Generator: Adobe Illustrator 23.1.1, SVG Export Plug-In . SVG Version: 6.00 Build 0)  -->
<svg version="1.1" id="Livello_1" xmlns="http://www.w3.org/2000/svg" xmlns:xlink="http://www.w3.org/1999/xlink" x="0px" y="0px"
	 viewBox="0 0 420 518.2" style="enable-background:new 0 0 420 518.2;" xml:space="preserve">
<style type="text/css">
	.st0{clip-path:url(#SVGID_2_);}
	.st1{clip-path:url(#SVGID_4_);}
	.st2{fill:#E9EDD9;}
	.st3{clip-path:url(#SVGID_6_);}
	.st4{fill:#F2F5EC;}
	.st5{clip-path:url(#SVGID_2_);fill:#2B4835;}
	.st6{clip-path:url(#SVGID_2_);fill:#2FF141;}
	.st7{clip-path:url(#SVGID_2_);enable-background:new    ;}
	.st8{fill:#2B4835;}
	.st9{clip-path:url(#SVGID_8_);fill:none;stroke:#2B4835;stroke-miterlimit:10;}
	.st10{clip-path:url(#SVGID_8_);fill:#2B4835;}
	.st11{clip-path:url(#SVGID_8_);}
	.st12{clip-path:url(#SVGID_10_);fill:#2B4835;}
	.st13{clip-path:url(#SVGID_12_);fill:#2B4835;}
	.st14{clip-path:url(#SVGID_14_);fill:#2B4835;}
	.st15{clip-path:url(#SVGID_16_);fill:#2B4835;}
	.st16{clip-path:url(#SVGID_18_);}
	.st17{fill:#2FF141;}
	.st18{clip-path:url(#SVGID_20_);fill:#2FF141;}
</style>
<title>Risorsa 1</title>
<g>
	<defs>
		<rect id="SVGID_1_" y="0.2" width="420" height="518"/>
	</defs>
	<clipPath id="SVGID_2_">
		<use xlink:href="#SVGID_1_"  style="overflow:visible;"/>
	</clipPath>
	<g class="st0">
		<defs>
			<rect id="SVGID_3_" y="0.2" width="420" height="518"/>
		</defs>
		<clipPath id="SVGID_4_">
			<use xlink:href="#SVGID_3_"  style="overflow:visible;"/>
		</clipPath>
		<g class="st1">
			<g>
				<path class="st2" d="M402.2,518.2H17.8c-9.8,0-17.8-8-17.8-17.8V19C0,9.2,8,1.2,17.8,1.1h384.3c9.8,0,17.8,8,17.8,17.9v481.3
					C420,510.2,412,518.1,402.2,518.2"/>
			</g>
		</g>
	</g>
	<g class="st0">
		<defs>
			<rect id="SVGID_5_" y="0.2" width="420" height="518"/>
		</defs>
		<clipPath id="SVGID_6_">
			<use xlink:href="#SVGID_5_"  style="overflow:visible;"/>
		</clipPath>
		<g class="st3">
			<path class="st4" d="M420,394.1H0V16C0,7.2,7.2,0,16,0h388c8.8,0,16,7.2,16,16V394.1z"/>
		</g>
	</g>
	<path class="st5" d="M57.7,163.2c-3.2,0-6-0.7-8.5-2c-2.5-1.3-4.4-3.3-5.8-5.8c-1.4-2.5-2.1-5.5-2.1-9c0-2.3,0.3-4.5,1-6.6
		c0.7-2.2,1.7-4.1,3.1-5.9c1.4-1.8,3.1-3.2,5.2-4.2c2.1-1,4.5-1.6,7.3-1.6c1.2,0,2.3,0.1,3.5,0.3c1.2,0.2,2.3,0.5,3.4,0.9
		s2.1,0.9,3,1.4l-0.2-2.3h2.6v11h-1.7c-0.1-2-0.7-3.7-1.6-5.1c-0.9-1.4-2.2-2.5-3.7-3.2c-1.5-0.7-3.2-1.1-5-1.1
		c-1.7,0-3.3,0.4-4.8,1.1c-1.5,0.8-2.8,1.8-3.9,3.2c-1.1,1.4-2,3-2.7,4.8c-0.6,1.9-1,3.9-1,6.1c0,3,0.5,5.7,1.6,8.1
		c1.1,2.4,2.6,4.2,4.5,5.6c1.9,1.3,4.2,2,6.7,2c0.9,0,1.8-0.1,2.7-0.2c0.9-0.2,1.9-0.4,2.8-0.8c0.9-0.4,1.8-0.8,2.7-1.4v-5.9
		c0-0.8,0-1.5,0-2.3c0-0.8,0-1.6,0-2.3c-0.5,0-1.1,0.1-1.7,0.1s-1.1,0.1-1.7,0.1V146h10.8v1.6c-0.9,0-1.6,0.2-2.1,0.7s-0.8,1-1,1.7
		c-0.2,0.7-0.3,1.3-0.3,1.9c0,0.6,0,1.1,0,1.4v7.3h-1.3c-0.5,0-1.2,0.1-2.1,0.3c-0.9,0.2-1.9,0.5-3.1,1c-1,0.4-2.1,0.7-3.5,0.9
		C59.9,163,58.7,163.2,57.7,163.2z"/>
	<path class="st5" d="M89.3,163.2c-2.2,0-4.2-0.5-6-1.6s-3.2-2.5-4.2-4.4c-1-1.9-1.5-4.2-1.5-6.7c0-2.2,0.5-4.3,1.5-6.3
		c1-2,2.4-3.5,4.2-4.7c1.8-1.2,3.9-1.8,6.3-1.8c1.3,0,2.6,0.2,3.8,0.6c1.2,0.4,2.2,1.1,3.1,2c0.9,0.9,1.6,2,2.1,3.3
		c0.5,1.3,0.8,2.9,0.8,4.7l-16.9,0.3c0,2.4,0.3,4.6,0.8,6.4c0.5,1.8,1.4,3.3,2.6,4.3c1.2,1,2.7,1.5,4.6,1.5c1,0,2-0.2,3-0.5
		c1-0.4,2-0.8,2.9-1.4c0.9-0.6,1.6-1.3,2.2-2l1.2,1c-0.9,1.3-1.9,2.4-3.1,3.2c-1.2,0.8-2.5,1.4-3.7,1.7
		C91.6,163,90.4,163.2,89.3,163.2z M82.7,146.5H95c0-1.2-0.2-2.3-0.5-3.3s-0.9-2-1.7-2.6c-0.8-0.7-1.8-1-3-1c-1.9,0-3.4,0.6-4.6,1.7
		C83.9,142.3,83.1,144,82.7,146.5z"/>
	<path class="st5" d="M112.5,163.2c-0.7,0-1.5-0.1-2.3-0.3c-0.8-0.2-1.5-0.6-2.1-1.2c-0.7-0.6-1.2-1.5-1.6-2.7
		c-0.4-1.2-0.6-2.7-0.6-4.6l0.1-13.9l-3.7,0v-2.1c0.8,0,1.7-0.3,2.5-0.9c0.9-0.6,1.6-1.4,2.3-2.4c0.7-1,1.2-2.1,1.4-3.4h1.6v6.7h8.1
		v1.9l-8.1,0.1l-0.1,13.3c0,1.4,0.1,2.7,0.4,3.7c0.2,1,0.6,1.8,1.2,2.3c0.5,0.5,1.2,0.8,2.1,0.8c0.9,0,1.7-0.3,2.5-0.8
		c0.8-0.5,1.5-1.2,2.1-2.1l1.3,1.1c-0.7,1.1-1.4,1.9-2.1,2.5c-0.7,0.6-1.4,1.1-2,1.4c-0.6,0.3-1.2,0.5-1.8,0.6
		C113.3,163.1,112.9,163.2,112.5,163.2z"/>
	<path class="st5" d="M138.3,175.4c-1,0-1.8-0.2-2.5-0.7c-0.7-0.5-1.1-1.2-1.1-2.2c0-0.6,0.2-1.1,0.6-1.6c0.4-0.5,0.9-0.7,1.5-0.7
		c0.8,0,1.3,0.2,1.6,0.7c0.3,0.5,0.4,1,0.4,1.3c0,0.1,0,0.2,0,0.3c0,0.1,0,0.2,0,0.4c0.1,0.1,0.3,0.1,0.5,0.1c0.4,0,0.8-0.2,1.2-0.5
		c0.4-0.3,0.8-0.8,1.2-1.4c0.4-0.7,0.9-1.8,1.5-3.2c0.6-1.4,1.2-3.1,1.9-5l-7.5-16c-0.8-1.8-1.4-3.2-1.8-4.3
		c-0.4-1.1-0.6-1.8-0.7-2.4l-2.3,0.1v-2h9.9v1.4h-0.2c-1.3,0.1-2.1,0.6-2.2,1.5c-0.1,0.9,0.2,2.3,1.1,4.2l5.6,12
		c0.7-2,1.4-4.1,2.1-6.1s1.3-4,2-6c0.3-0.7,0.5-1.4,0.8-2.2c0.3-0.8,0.5-1.4,0.8-2c0.3-0.6,0.5-1,0.7-1.1l-3.3,0.2v-2h7.5v1.4
		c-1.2,0.4-2.1,1.2-2.7,2.2c-0.6,1-1.2,2.4-1.8,4l-6,16.8c-1,2.7-1.8,5-2.6,6.8c-0.8,1.9-1.7,3.3-2.6,4.3
		C141,174.9,139.8,175.4,138.3,175.4z"/>
	<path class="st5" d="M171.5,163.2c-2.2,0-4.3-0.5-6.1-1.6c-1.8-1-3.3-2.5-4.3-4.3c-1.1-1.8-1.6-3.9-1.6-6.3c0-2.5,0.5-4.8,1.6-6.8
		c1.1-2,2.5-3.6,4.3-4.8c1.8-1.2,3.9-1.8,6.1-1.8c2.2,0,4.3,0.5,6.1,1.6c1.8,1.1,3.3,2.5,4.4,4.3c1.1,1.8,1.6,3.9,1.6,6.2
		c0,2.5-0.5,4.7-1.6,6.7c-1.1,2-2.5,3.6-4.3,4.8C175.8,162.6,173.7,163.2,171.5,163.2z M171.9,161.2c1.7,0,3-0.5,4-1.4
		c1-1,1.7-2.2,2.1-3.7c0.4-1.5,0.6-3.2,0.6-4.8c0-1.4-0.1-2.9-0.4-4.2c-0.3-1.4-0.7-2.7-1.3-3.8c-0.6-1.1-1.3-2-2.2-2.7
		c-0.9-0.7-2-1-3.3-1c-1.7,0-3,0.5-4.1,1.4s-1.8,2.2-2.3,3.7c-0.5,1.5-0.7,3.2-0.7,4.9c0,2,0.3,3.9,0.8,5.6c0.5,1.8,1.4,3.2,2.5,4.3
		S170.2,161.2,171.9,161.2z"/>
	<path class="st5" d="M197.8,163.2c-1.7,0-3.2-0.3-4.3-1c-1.2-0.6-2-1.7-2.6-3.3c-0.6-1.5-0.9-3.6-0.9-6.2v-8.5c0-0.5,0-1,0-1.5
		c0-0.5,0.1-1,0.2-1.6c-0.5,0-1.1,0.1-1.7,0.1c-0.6,0-1.1,0-1.7,0.1v-2h1.5c1.4,0,2.4-0.1,3-0.4c0.6-0.3,1.1-0.6,1.5-0.9h1.4v14.6
		c0,2.8,0.4,4.8,1.2,6.2c0.8,1.4,2.1,2,4,2c1.2,0,2.4-0.4,3.5-1.1c1.1-0.7,2-1.6,2.7-2.6v-12.3c0-0.8,0-1.4,0-2
		c0-0.6,0.1-1.1,0.2-1.7c-0.6,0-1.2,0.1-1.7,0.1c-0.6,0-1.2,0-1.7,0.1v-2h1.5c1.4,0,2.4-0.1,3-0.4c0.6-0.3,1.1-0.6,1.5-0.9h1.4
		l0,18.1c0,0.5,0,1.2,0,2.2c0,0.9-0.1,1.7-0.1,2.4c0.6,0,1.2-0.1,1.7-0.1c0.6,0,1.2-0.1,1.7-0.1v2h-6.9c-0.1-0.5-0.2-1.1-0.2-1.5
		c0-0.5-0.1-0.9-0.1-1.3c-1,1-2.2,1.8-3.6,2.6C200.6,162.8,199.2,163.2,197.8,163.2z"/>
	<path class="st5" d="M216.3,160.9c1,0,1.7-0.2,2.1-0.7c0.4-0.5,0.6-1.2,0.7-2.1c0.1-0.9,0.1-1.9,0.1-3v-10.9c0-0.5,0-1,0-1.5
		c0-0.5,0.1-1,0.2-1.6c-0.6,0-1.1,0.1-1.7,0.1c-0.6,0-1.1,0-1.7,0.1v-2h1.5c1.4,0,2.3-0.1,2.9-0.4c0.5-0.3,1-0.6,1.3-0.9h1.4
		c0.1,0.5,0.1,1.1,0.1,1.9c0,0.8,0.1,1.7,0.1,2.9c0.5-0.8,1.1-1.6,2-2.4c0.8-0.8,1.8-1.4,2.8-1.9c1-0.5,2.1-0.8,3.3-0.8
		c0.9,0,1.7,0.2,2.4,0.7c0.7,0.5,1,1.2,1,2.3c0,0.3-0.1,0.6-0.2,0.9s-0.4,0.7-0.8,1c-0.4,0.3-0.8,0.4-1.4,0.4
		c-0.7,0-1.3-0.3-1.7-0.8c-0.4-0.5-0.6-1.1-0.5-1.8c-0.8,0-1.6,0.2-2.5,0.6s-1.6,1.1-2.4,1.8c-0.7,0.8-1.4,1.7-2,2.8l0,11.8
		c0,0.6,0,1.2,0,1.7c0,0.5-0.1,1-0.2,1.6c0.5,0,1-0.1,1.5-0.1c0.5,0,1,0,1.5-0.1v2h-9.8V160.9z"/>
	<path class="st6" d="M47.4,204.4h-4.5v-33.6h4.5V204.4z"/>
	<path class="st6" d="M73.8,191.4v13h-4.2v-11.6c0-4.3-0.7-9-5.5-9c-3.6,0-6.5,2.7-6.5,6.9v13.7h-4.2v-24h2.8l0.9,2.7h0.6
		c0.9-1.1,3.1-3,7.1-3C70.8,180.1,73.8,184.7,73.8,191.4z"/>
	<path class="st6" d="M98.9,180.4l-7.8,24h-6.3l-7.8-24h4.4l6.2,20.5h0.6l6.2-20.5H98.9z"/>
	<path class="st6" d="M101.8,173.1c0-1.7,1.4-3.1,3.1-3.1c1.7,0,3.1,1.3,3.1,3.1c0,1.7-1.4,3.1-3.1,3.1
		C103.2,176.2,101.8,174.8,101.8,173.1z M107,204.4h-4.2v-24h4.2V204.4z"/>
	<path class="st6" d="M125.5,203.1c-0.7,0.6-2,1.5-4.2,1.5c-4.2,0-6.7-3.1-6.7-7.5v-13.2h-4.2v-3.1h1.5c1.9,0,3.2-1.3,3.2-3.3v-4.3
		h3.6v7.2h5.8v3.5h-5.8v12.9c0,3.1,1.4,4.1,3.1,4.1c1,0,1.5-0.3,1.9-0.7L125.5,203.1z"/>
	<path class="st6" d="M148.9,193.5h-18.1c0.4,4.5,3.2,7.2,7.3,7.2c2.7,0,4.8-1.2,5.9-3.1h4.4c-1.8,4.4-6,7-10.3,7
		c-6,0-11.4-4.9-11.4-12.4c0-7.4,5.4-12,11.4-12C143.7,180.1,149.3,184.4,148.9,193.5z M130.9,190h13.6c-0.6-3.7-3-6.3-6.6-6.3
		C134.4,183.7,131.7,186.1,130.9,190z"/>
	<path class="st6" d="M153.2,201.7c0-1.6,1.3-2.9,2.9-2.9c1.6,0,2.9,1.2,2.9,2.9c0,1.6-1.3,2.9-2.9,2.9
		C154.5,204.6,153.2,203.3,153.2,201.7z M158.6,170.8l-1,24.4h-3.1l-1-24.4H158.6z"/>
	<g class="st7">
		<path class="st8" d="M48.2,108.6c-0.6,1.9-2.1,3-4,3c-2.6,0-4.4-2.1-4.4-5c0-2.9,1.8-5,4.4-5c1.9,0,3.5,1.1,4,3h-2.1
			c-0.4-0.8-1-1.2-1.9-1.2c-1.6,0-2.5,1.3-2.5,3.1c0,1.8,0.9,3.1,2.5,3.1c0.9,0,1.5-0.4,1.9-1.2H48.2z"/>
		<path class="st8" d="M48.9,108.1c0-2.2,1.7-3.6,3.6-3.6c1.9,0,3.5,1.4,3.5,3.6c0,2.2-1.7,3.6-3.6,3.6
			C50.5,111.7,48.9,110.3,48.9,108.1z M54.2,108.1c0-1.1-0.6-1.9-1.7-1.9c-1.1,0-1.8,0.9-1.8,1.9s0.7,1.9,1.8,1.9
			C53.5,110,54.2,109.2,54.2,108.1z"/>
	</g>
	<g class="st7">
		<path class="st8" d="M64.4,107.8v3.8h-1.9v-3.4c0-0.2,0.2-2-1.2-2.1c-0.7,0-1.8,0.3-1.8,2.2v3.3h-1.8v-7h1.4l0.2,0.9h0.2
			c0.3-0.4,1-0.9,2.1-0.9C63.5,104.5,64.4,105.9,64.4,107.8z"/>
	</g>
	<g class="st7">
		<path class="st8" d="M72,112.2c-0.1,1.6-1.5,2.3-3.2,2.3c-2.2,0-3.4-1.2-3.1-2.8l0.8-0.6c-0.4-0.3-0.7-0.7-0.7-1.2
			c0-0.6,0.4-1,0.9-1.2c-0.5-0.4-0.7-1-0.7-1.7c0-1.3,1-2.4,2.8-2.4c0.6,0,1.2,0.1,1.6,0.4c0.8-0.4,1.2-0.9,1.2-0.9l0.9,1.2
			c0,0-0.5,0.3-1.1,0.5c0.3,0.4,0.4,0.8,0.4,1.3c0,1.3-1.2,2.4-3,2.4c-0.4,0-0.7,0-1-0.1c-0.1,0.1-0.2,0.2-0.2,0.4
			c0,0.5,0.8,0.4,1.2,0.4h1C71.3,109.9,72,111,72,112.2z M70.3,112.1c0-0.4-0.3-0.7-1.1-0.7c-0.4,0-0.9,0-1.3,0l-0.5,0.5
			c-0.1,0.3,0.3,0.9,1.5,0.9C69.8,112.8,70.3,112.5,70.3,112.1z M67.6,106.9c0,0.5,0.4,0.9,1.2,0.9c0.8,0,1.2-0.4,1.2-0.9
			c0-0.5-0.4-0.9-1.2-0.9S67.6,106.3,67.6,106.9z"/>
	</g>
	<g class="st7">
		<path class="st8" d="M77.8,104.5v1.8c-0.1,0-0.4-0.1-0.6-0.1c-1,0-2,0.5-2,1.8v3.5h-1.9v-7h1.4l0.3,0.8h0.2c0.3-0.3,1-0.8,2.1-0.8
			H77.8z"/>
	</g>
	<g class="st7">
		<path class="st8" d="M85.3,110.2v1.3h-0.4c-0.8,0-1.4-0.3-1.6-0.9c-0.4,0.6-1.1,1-2.2,1c-1.6,0-2.6-0.8-2.6-2.1
			c0-2.2,3-2.4,4.3-2.5c0-0.8-0.5-1.1-1.2-1.1c-1,0-1.1,0.6-1.1,0.6h-1.8c0.1-1.2,1.1-2.1,2.9-2.1c1.7,0,2.8,0.8,2.8,2.9v1.9
			C84.5,110,84.7,110.2,85.3,110.2z M82.7,108.6v-0.1c-1.3,0.1-2.5,0.3-2.5,1C80.2,110.6,82.6,110.5,82.7,108.6z"/>
	</g>
	<g class="st7">
		<path class="st8" d="M91.1,111.1c0,0-0.6,0.6-1.7,0.6c-1.3,0-2.5-0.9-2.5-2.3v-3.2h-1.4v-1.4h0.7c0.5,0,0.8-0.3,0.8-0.8v-1.4h1.7
			v2.1h1.8v1.5h-1.8v3.1c0,0.5,0.4,0.8,0.9,0.8c0.4,0,0.8-0.2,0.8-0.2L91.1,111.1z"/>
	</g>
	<g class="st7">
		<path class="st8" d="M97.8,104.6v7h-1.4l-0.3-0.8h-0.2c-0.3,0.3-0.9,0.9-2,0.9c-1.9,0-2.8-1.3-2.8-3.3v-3.8H93v3.4
			c0,0.9,0.1,2.1,1.3,2.1c0.6,0,1.6-0.3,1.6-2.2v-3.3H97.8z"/>
	</g>
	<g class="st7">
		<path class="st8" d="M101.4,101.6v9.9h-1.8v-9.9H101.4z"/>
	</g>
	<g class="st7">
		<path class="st8" d="M109.8,110.2v1.3h-0.4c-0.8,0-1.4-0.3-1.6-0.9c-0.4,0.6-1.1,1-2.2,1c-1.6,0-2.6-0.8-2.6-2.1
			c0-2.2,3-2.4,4.3-2.5c0-0.8-0.5-1.1-1.2-1.1c-1,0-1.1,0.6-1.1,0.6h-1.8c0.1-1.2,1.1-2.1,2.9-2.1c1.7,0,2.8,0.8,2.8,2.9v1.9
			C109,110,109.3,110.2,109.8,110.2z M107.3,108.6v-0.1c-1.3,0.1-2.5,0.3-2.5,1C104.8,110.6,107.2,110.5,107.3,108.6z"/>
	</g>
	<g class="st7">
		<path class="st8" d="M115.6,111.1c0,0-0.6,0.6-1.7,0.6c-1.3,0-2.5-0.9-2.5-2.3v-3.2H110v-1.4h0.7c0.5,0,0.8-0.3,0.8-0.8v-1.4h1.7
			v2.1h1.8v1.5h-1.8v3.1c0,0.5,0.4,0.8,0.9,0.8c0.4,0,0.8-0.2,0.8-0.2L115.6,111.1z"/>
	</g>
	<g class="st7">
		<path class="st8" d="M116.2,102.6c0-0.7,0.5-1.2,1.2-1.2c0.6,0,1.2,0.5,1.2,1.2c0,0.6-0.5,1.2-1.2,1.2
			C116.8,103.8,116.2,103.3,116.2,102.6z M118.3,111.6h-1.8v-7h1.8V111.6z"/>
	</g>
	<g class="st7">
		<path class="st8" d="M119.8,108.1c0-2.2,1.7-3.6,3.6-3.6c1.9,0,3.5,1.4,3.5,3.6c0,2.2-1.7,3.6-3.6,3.6
			C121.4,111.7,119.8,110.3,119.8,108.1z M125.1,108.1c0-1.1-0.6-1.9-1.7-1.9s-1.8,0.9-1.8,1.9s0.7,1.9,1.8,1.9
			S125.1,109.2,125.1,108.1z"/>
	</g>
	<g class="st7">
		<path class="st8" d="M135,107.8v3.8h-1.9v-3.4c0-0.2,0.2-2-1.2-2.1c-0.7,0-1.8,0.3-1.8,2.2v3.3h-1.8v-7h1.4l0.2,0.9h0.2
			c0.3-0.4,1-0.9,2.1-0.9C134.1,104.5,135,105.9,135,107.8z"/>
	</g>
	<g class="st7">
		<path class="st8" d="M139.2,106c-0.6,0-0.8,0.3-0.8,0.6c0,0.5,0.6,0.6,1.1,0.7c1.2,0.3,2.5,0.6,2.5,2.1c0,1.4-1.2,2.2-2.6,2.2
			c-1.6,0-2.9-1-2.9-2.5h1.7c0,0.4,0.3,1,1.2,1c0.7,0,0.9-0.4,0.9-0.7c0-0.5-0.5-0.7-1-0.8c-0.8-0.2-2.6-0.5-2.6-2.1
			c0-1.4,1.3-2.1,2.7-2.1c1.6,0,2.6,1,2.7,2.1h-1.7C140.1,106.4,139.9,106,139.2,106z"/>
	</g>
	<g class="st7">
		<path class="st8" d="M145.5,110.5c0,0.6-0.5,1.1-1.1,1.1s-1.1-0.5-1.1-1.1c0-0.6,0.5-1.1,1.1-1.1S145.5,109.9,145.5,110.5z
			 M143.7,108.8l-0.3-7h1.9l-0.3,7H143.7z"/>
	</g>
	<g class="st0">
		<defs>
			<rect id="SVGID_7_" y="0.2" width="420" height="518"/>
		</defs>
		<clipPath id="SVGID_8_">
			<use xlink:href="#SVGID_7_"  style="overflow:visible;"/>
		</clipPath>
		<line class="st9" x1="379" y1="40.2" x2="365" y2="54.2"/>
		<line class="st9" x1="379" y1="54.2" x2="365" y2="40.2"/>
		<path class="st10" d="M62.7,48.8V49c0,1.1,0.9,2,2,2c0.1,0,0.2,0,0.2,0c1.2,0,2.1-0.7,2.1-1.6c0-0.7-0.4-1.3-1.5-1.7L63.9,47
			c-1.8-0.7-2.8-1.6-2.8-3.1c0-1.9,1.8-3.2,4-3.2s3.7,1,3.8,2.8l-2.2,0.3v-0.2c-0.1-1.1-1-1.9-2.1-1.8c-0.9,0.1-1.6,0.7-1.7,1.5
			c0,0.6,0.4,1.3,1.8,1.8l1.8,0.7c1.7,0.7,2.5,1.6,2.5,2.9c0,2.2-2,3.3-4.3,3.3s-4.1-1-4.1-3L62.7,48.8z M71.9,46.6
			c0.3,2.5,1.8,3.7,3.6,3.7c1.3,0,2.5-0.5,3.3-1.4c-0.3,1.9-2,3.3-3.9,3.1c-2.8,0-4.9-2.3-4.9-5.5c0-3,1.8-5.8,5.1-5.8
			c2,0,4,1.2,4,3.5c0,0.1,0,0.3,0,0.4L71.9,46.6z M71.9,45h4.9c0-2.4-1.1-3.1-2.2-3.1S72.2,42.6,71.9,45 M81.9,46.6
			c0.3,2.5,1.8,3.7,3.6,3.7c1.3,0,2.5-0.5,3.4-1.4c-0.3,1.9-2,3.2-3.9,3.1c-2.8,0-4.9-2.3-4.9-5.5c0-3,1.8-5.8,5.1-5.8
			c2,0,4,1.2,4,3.5c0,0.1,0,0.3,0,0.4L81.9,46.6z M82,45h4.9c0-2.4-1.1-3.1-2.2-3.1S82.2,42.6,82,45 M99.6,51.9h-1.9v-1.6
			c-0.7,1.1-1.9,1.8-3.2,1.8c-2.2,0-4.3-1.9-4.3-5.4s2.2-6,5.2-6c0.8,0,1.6,0.2,2.3,0.5v-4.6l1.9-0.3V51.9z M97.7,49.8V43
			c-0.6-0.7-1.5-1.1-2.4-1.1c-1.6,0-3.1,1.2-3.1,4.3c0,2.5,1.1,4.4,3.4,4.4C96.3,50.5,97,50.3,97.7,49.8 M102.9,48.9V49
			c0,1.1,0.9,2,2,2c0.1,0,0.2,0,0.2,0c1.2,0,2.1-0.7,2.1-1.6c0-0.7-0.4-1.3-1.5-1.7l-1.7-0.6c-1.8-0.7-2.8-1.6-2.8-3.1
			c0-1.9,1.8-3.2,4-3.2s3.7,1,3.8,2.8l-2.2,0.3v-0.2c-0.1-1.1-1-1.9-2.1-1.8c-0.9,0.1-1.6,0.7-1.8,1.6c0,0.6,0.4,1.3,1.8,1.8
			l1.8,0.7c1.7,0.7,2.5,1.6,2.5,2.9c0,2.2-2,3.3-4.3,3.3s-4.1-1-4.1-3L102.9,48.9z M111.7,49.2c-0.7,0-1.3,0.6-1.3,1.4
			c0,0.7,0.6,1.3,1.4,1.3s1.3-0.6,1.3-1.4c0,0,0,0,0,0C113,49.8,112.4,49.2,111.7,49.2"/>
		<g class="st11">
			<defs>
				<rect id="SVGID_9_" x="46.8" y="39.3" width="10.2" height="6.4"/>
			</defs>
			<clipPath id="SVGID_10_">
				<use xlink:href="#SVGID_9_"  style="overflow:visible;"/>
			</clipPath>
			<path class="st12" d="M57,40.3c-1.1-0.7-2.3-1-3.5-1c-3.1,0-5.9,2.2-6.5,5.2c0.2,0.2,0.4,0.3,0.6,0.4c0.2-0.1,0.5-0.2,0.7-0.3
				l0,0c0.6-0.2,1.3-0.3,2-0.3c1.5,0,3,0.5,4.2,1.3C56.1,44.5,57,42.5,57,40.3"/>
		</g>
		<g class="st11">
			<defs>
				<rect id="SVGID_11_" x="47.9" y="44.8" width="9.1" height="7.9"/>
			</defs>
			<clipPath id="SVGID_12_">
				<use xlink:href="#SVGID_11_"  style="overflow:visible;"/>
			</clipPath>
			<path class="st13" d="M56.1,48.2c-1.6-2.8-5.1-4.1-8.2-2.9c1.3,0.8,2.3,2,2.8,3.4l0.1,0.3c0.3,0.8,0.4,1.6,0.5,2.4v0.3
				c0,0.2,0,0.5,0,0.7c1.9,0.6,4,0.4,5.7-0.7C57,50.5,56.7,49.3,56.1,48.2"/>
		</g>
		<g class="st11">
			<defs>
				<rect id="SVGID_13_" x="37.2" y="46.3" width="10.2" height="6.4"/>
			</defs>
			<clipPath id="SVGID_14_">
				<use xlink:href="#SVGID_13_"  style="overflow:visible;"/>
			</clipPath>
			<path class="st14" d="M47.3,47.5c-0.2-0.1-0.4-0.3-0.6-0.4c-0.2,0.1-0.3,0.1-0.5,0.2l0,0c-1.1,0.4-2.3,0.5-3.4,0.3
				c-1.1-0.2-2.1-0.6-3-1.3c-0.7,0.5-1.2,1.2-1.6,1.9c-0.6,1.1-0.9,2.3-0.9,3.5c3.1,1.9,7.3,1,9.2-2.2
				C46.9,48.9,47.2,48.2,47.3,47.5"/>
		</g>
		<g class="st11">
			<defs>
				<rect id="SVGID_15_" x="37.2" y="39.3" width="9.1" height="7.9"/>
			</defs>
			<clipPath id="SVGID_16_">
				<use xlink:href="#SVGID_15_"  style="overflow:visible;"/>
			</clipPath>
			<path class="st15" d="M46.3,46.8c-1.3-0.8-2.3-2-2.8-3.4c0,0-0.1-0.3-0.1-0.3c-0.3-0.8-0.4-1.6-0.5-2.4v-0.3c0-0.2,0-0.5,0-0.7
				c-0.7-0.2-1.4-0.3-2.1-0.3c-1.2,0-2.5,0.3-3.5,1c0,1.2,0.3,2.5,0.9,3.5C39.7,46.7,43.2,48,46.3,46.8"/>
		</g>
		<path class="st10" d="M50.4,54.3c0-0.1,0.1-0.2,0.1-0.3c0.3-0.7,0.4-1.5,0.4-2.3v-0.3c0-0.8-0.2-1.6-0.4-2.3c0,0-0.1-0.3-0.1-0.3
			c-0.6-1.4-1.7-2.6-3-3.4c-0.9-0.5-1.6-1.2-2.1-2.1c-0.1-0.2-0.3-0.6-0.4-0.8c-0.5-1.4-0.5-3,0.1-4.3l0.3-0.5l0.1-0.1
			c0.4-0.7,1-1.3,1.7-1.7c0.7,0.5,1.3,1.1,1.8,1.9c0.4,0.7,0.7,1.5,0.7,2.3c0.4-0.3,0.8-0.5,1.3-0.7c-0.2-0.9-0.5-1.9-1-2.7
			c-0.6-0.9-1.4-1.7-2.4-2.2l-0.3-0.2h-0.1h-0.1l-0.3,0.2c-1.3,0.8-2.4,1.9-3,3.4c0,0-0.1,0.3-0.1,0.3c-0.3,0.7-0.4,1.5-0.5,2.3v0.3
			c0,0.8,0.2,1.6,0.4,2.3l0.1,0.3c0.6,1.4,1.7,2.6,3,3.4c0.9,0.5,1.6,1.2,2.1,2.1c0.1,0.2,0.3,0.6,0.4,0.8c0.5,1.4,0.5,3-0.1,4.3
			c-0.1,0.2-0.3,0.5-0.3,0.5l-0.1,0.1c-0.4,0.7-1,1.3-1.7,1.7c-0.7-0.5-1.3-1.1-1.8-1.9c-0.4-0.7-0.6-1.4-0.7-2.1
			c-0.4,0.2-0.8,0.5-1.3,0.7c0.2,0.9,0.5,1.7,1,2.5c0.6,0.9,1.4,1.7,2.4,2.2l0.3,0.2h0.1l0,0c0.1,0,0.2-0.1,0.3-0.2
			C48.8,56.9,49.8,55.7,50.4,54.3"/>
	</g>
	<g class="st7">
		<path class="st8" d="M46.2,264.4c0.8,0,1.5,0.2,2.1,0.5s1.1,0.8,1.5,1.5l-0.9,0.7c-0.3-0.6-0.7-1-1.2-1.3s-1-0.4-1.6-0.4
			c-0.5,0-0.9,0.1-1.2,0.2c-0.3,0.1-0.6,0.3-0.7,0.6c-0.1,0.2-0.2,0.5-0.2,0.8c0,0.3,0.1,0.6,0.3,0.9c0.2,0.2,0.6,0.4,1.2,0.6l2,0.4
			c0.9,0.2,1.5,0.5,1.9,0.9s0.5,0.9,0.5,1.5c0,0.5-0.1,1-0.4,1.4c-0.3,0.4-0.7,0.7-1.2,0.9c-0.5,0.2-1.2,0.3-1.9,0.3
			c-0.7,0-1.3-0.1-1.8-0.3c-0.5-0.2-0.9-0.4-1.3-0.7c-0.4-0.3-0.7-0.7-0.9-1l1-0.8c0.2,0.4,0.4,0.7,0.7,0.9c0.3,0.3,0.6,0.5,1,0.6
			c0.4,0.1,0.9,0.2,1.4,0.2c0.5,0,0.9-0.1,1.2-0.2c0.3-0.1,0.6-0.3,0.8-0.5c0.2-0.2,0.3-0.5,0.3-0.8c0-0.3-0.1-0.6-0.3-0.8
			c-0.2-0.2-0.6-0.4-1.1-0.5l-2.2-0.5c-0.6-0.1-1-0.3-1.4-0.5s-0.6-0.5-0.8-0.8c-0.2-0.3-0.2-0.7-0.2-1c0-0.5,0.1-1,0.4-1.4
			c0.3-0.4,0.7-0.7,1.2-1S45.5,264.4,46.2,264.4z"/>
		<path class="st8" d="M54.4,266.6c0.5,0,0.9,0.1,1.3,0.2s0.7,0.4,1,0.6c0.3,0.3,0.5,0.6,0.7,1l-1.1,0.5c-0.1-0.4-0.4-0.8-0.7-1
			c-0.3-0.2-0.7-0.4-1.2-0.4c-0.5,0-0.9,0.1-1.2,0.3c-0.3,0.2-0.6,0.5-0.8,0.9c-0.2,0.4-0.3,0.9-0.3,1.4c0,0.6,0.1,1,0.3,1.4
			c0.2,0.4,0.4,0.7,0.8,0.9c0.3,0.2,0.7,0.3,1.2,0.3c0.4,0,0.7-0.1,0.9-0.2c0.3-0.1,0.5-0.3,0.7-0.5s0.3-0.5,0.4-0.8l1,0.4
			c-0.2,0.4-0.4,0.8-0.7,1.1c-0.3,0.3-0.6,0.5-1,0.7c-0.4,0.2-0.8,0.2-1.3,0.2c-0.7,0-1.2-0.1-1.8-0.4c-0.5-0.3-0.9-0.7-1.2-1.3
			c-0.3-0.5-0.4-1.2-0.4-2s0.1-1.4,0.4-2c0.3-0.5,0.7-1,1.2-1.3C53.2,266.7,53.8,266.6,54.4,266.6z"/>
		<path class="st8" d="M63,269.2c0-0.5-0.1-0.9-0.4-1.2c-0.3-0.3-0.7-0.4-1.2-0.4c-0.5,0-0.9,0.1-1.2,0.3s-0.6,0.5-0.7,1l-0.9-0.6
			c0.2-0.5,0.5-0.9,1-1.3c0.5-0.3,1.1-0.5,1.9-0.5c0.5,0,1,0.1,1.4,0.3c0.4,0.2,0.7,0.4,1,0.8c0.2,0.3,0.4,0.8,0.4,1.4v3.4
			c0,0.3,0.2,0.5,0.5,0.5c0.2,0,0.4,0,0.5-0.1l-0.1,0.9c-0.2,0.1-0.4,0.1-0.7,0.1c-0.3,0-0.5-0.1-0.7-0.2s-0.4-0.3-0.5-0.5
			c-0.1-0.2-0.2-0.5-0.2-0.8v-0.1l0.3,0c-0.1,0.4-0.3,0.7-0.6,0.9c-0.3,0.2-0.6,0.4-0.9,0.5c-0.3,0.1-0.7,0.2-1,0.2
			c-0.4,0-0.8-0.1-1.1-0.2c-0.4-0.1-0.6-0.4-0.8-0.6c-0.2-0.3-0.3-0.6-0.3-1.1c0-0.5,0.2-1,0.5-1.3s0.8-0.6,1.5-0.7l2.8-0.5v0.9
			l-2.3,0.5c-0.5,0.1-0.8,0.2-1,0.4c-0.2,0.2-0.3,0.4-0.3,0.7c0,0.3,0.1,0.5,0.3,0.7c0.2,0.2,0.6,0.3,1,0.3c0.3,0,0.5,0,0.8-0.1
			c0.2-0.1,0.5-0.2,0.7-0.3c0.2-0.1,0.4-0.3,0.5-0.5c0.1-0.2,0.2-0.5,0.2-0.8V269.2z"/>
		<path class="st8" d="M66.5,273.7v-7h1l0.1,1.6l-0.2-0.2c0.1-0.4,0.3-0.7,0.6-0.9c0.3-0.2,0.5-0.4,0.9-0.5c0.3-0.1,0.7-0.2,1-0.2
			c0.5,0,1,0.1,1.4,0.3c0.4,0.2,0.7,0.5,1,0.9c0.2,0.4,0.4,0.9,0.4,1.5v4.5h-1.1v-4.1c0-0.8-0.2-1.3-0.5-1.6
			c-0.3-0.3-0.7-0.5-1.2-0.5c-0.3,0-0.7,0.1-1,0.2c-0.3,0.2-0.6,0.4-0.8,0.8c-0.2,0.4-0.3,0.8-0.3,1.4v3.7H66.5z"/>
	</g>
	<g class="st7">
	</g>
	<g class="st7">
		<path class="st8" d="M83,266.7v1H78v-1H83z M80.5,264.8v7.1c0,0.3,0.1,0.6,0.3,0.8c0.2,0.2,0.4,0.3,0.8,0.3c0.3,0,0.5,0,0.7-0.1
			c0.2-0.1,0.4-0.2,0.5-0.4l0.4,0.9c-0.2,0.2-0.5,0.4-0.8,0.5c-0.3,0.1-0.6,0.2-1,0.2c-0.4,0-0.7-0.1-1-0.2s-0.6-0.3-0.7-0.6
			c-0.2-0.3-0.3-0.6-0.3-1.1v-6.9L80.5,264.8z"/>
		<path class="st8" d="M84.3,273.7v-10.2h1.1v4.3c0.2-0.4,0.6-0.7,1-0.9c0.4-0.2,0.8-0.3,1.3-0.3c0.5,0,1,0.1,1.4,0.3
			c0.4,0.2,0.7,0.5,1,0.9c0.2,0.4,0.4,0.9,0.4,1.5v4.5h-1.1v-4.1c0-0.8-0.2-1.3-0.5-1.6c-0.3-0.3-0.7-0.5-1.2-0.5
			c-0.3,0-0.7,0.1-1,0.2c-0.3,0.2-0.6,0.4-0.8,0.8s-0.3,0.8-0.3,1.4v3.7H84.3z"/>
		<path class="st8" d="M95.4,273.9c-0.7,0-1.3-0.1-1.8-0.4s-0.9-0.7-1.2-1.3c-0.3-0.5-0.4-1.2-0.4-2s0.1-1.4,0.4-2
			c0.3-0.5,0.7-1,1.2-1.3s1.1-0.4,1.7-0.4c0.7,0,1.2,0.1,1.7,0.4c0.5,0.3,0.8,0.7,1.1,1.1c0.2,0.5,0.4,1,0.4,1.6c0,0.2,0,0.3,0,0.4
			c0,0.1,0,0.2,0,0.4h-5.7v-1h5.2l-0.6,0.1c0-0.7-0.2-1.2-0.6-1.6c-0.4-0.4-0.9-0.5-1.4-0.5c-0.5,0-0.9,0.1-1.2,0.3
			c-0.3,0.2-0.6,0.5-0.8,0.9c-0.2,0.4-0.3,0.9-0.3,1.4c0,0.6,0.1,1,0.3,1.4c0.2,0.4,0.5,0.7,0.8,0.9c0.3,0.2,0.7,0.3,1.2,0.3
			c0.5,0,0.9-0.1,1.3-0.3c0.3-0.2,0.6-0.5,0.8-0.8l0.9,0.5c-0.2,0.3-0.4,0.6-0.7,0.8c-0.3,0.2-0.6,0.4-1,0.5S95.9,273.9,95.4,273.9z
			"/>
		<path class="st8" d="M108.5,264.4c0.9,0,1.6,0.2,2.3,0.6c0.6,0.4,1.1,0.9,1.5,1.6c0.4,0.7,0.5,1.6,0.5,2.5c0,1-0.2,1.8-0.5,2.5
			s-0.8,1.3-1.5,1.6c-0.6,0.4-1.4,0.6-2.3,0.6s-1.6-0.2-2.3-0.6c-0.6-0.4-1.1-0.9-1.5-1.6s-0.5-1.6-0.5-2.5c0-1,0.2-1.8,0.5-2.5
			c0.4-0.7,0.8-1.3,1.5-1.6S107.6,264.4,108.5,264.4z M108.5,265.4c-0.6,0-1.2,0.1-1.7,0.4s-0.8,0.7-1.1,1.3c-0.3,0.6-0.4,1.2-0.4,2
			c0,0.8,0.1,1.4,0.4,2s0.6,1,1.1,1.3s1,0.4,1.7,0.4c0.6,0,1.2-0.1,1.7-0.4s0.8-0.7,1.1-1.3s0.4-1.2,0.4-2c0-0.8-0.1-1.4-0.4-2
			c-0.3-0.6-0.6-1-1.1-1.3S109.1,265.4,108.5,265.4z M110.7,276.5c-0.5,0-0.9-0.1-1.3-0.3s-0.8-0.5-1-0.9c-0.3-0.4-0.4-1-0.4-1.8
			c0-0.1,0-0.2,0-0.3c0-0.1,0-0.2,0-0.3l1,0c0,0.1,0,0.2,0,0.3c0,0.1,0,0.2,0,0.2c0,0.5,0.1,0.9,0.3,1.2c0.2,0.3,0.4,0.4,0.7,0.5
			c0.3,0.1,0.6,0.1,0.9,0.1c0.3,0,0.7,0,1-0.1c0.3-0.1,0.5-0.2,0.7-0.4l0.4,1c-0.2,0.2-0.5,0.3-0.9,0.5
			C111.4,276.4,111.1,276.5,110.7,276.5z"/>
		<path class="st8" d="M118.3,264.5c0.9,0,1.7,0.2,2.3,0.7s0.9,1.1,0.9,2c0,0.8-0.3,1.5-0.9,1.9c-0.6,0.5-1.3,0.7-2.3,0.7l-0.1,0.1
			h-2.3v3.8h-1.1v-9.2H118.3z M118.3,268.9c0.7,0,1.2-0.1,1.5-0.4c0.3-0.3,0.5-0.7,0.5-1.2s-0.2-1-0.5-1.2c-0.3-0.3-0.8-0.4-1.5-0.4
			h-2.4v3.3H118.3z M118.9,269.1l3.1,4.7h-1.3l-2.7-4L118.9,269.1z"/>
	</g>
	<g class="st7">
		<path class="st8" d="M130.8,266.6c0.5,0,0.9,0.1,1.3,0.2s0.7,0.4,1,0.6c0.3,0.3,0.5,0.6,0.7,1l-1.1,0.5c-0.1-0.4-0.4-0.8-0.7-1
			c-0.3-0.2-0.7-0.4-1.2-0.4c-0.5,0-0.9,0.1-1.2,0.3c-0.3,0.2-0.6,0.5-0.8,0.9c-0.2,0.4-0.3,0.9-0.3,1.4c0,0.6,0.1,1,0.3,1.4
			c0.2,0.4,0.4,0.7,0.8,0.9c0.3,0.2,0.7,0.3,1.2,0.3c0.4,0,0.7-0.1,0.9-0.2c0.3-0.1,0.5-0.3,0.7-0.5s0.3-0.5,0.4-0.8l1,0.4
			c-0.2,0.4-0.4,0.8-0.7,1.1c-0.3,0.3-0.6,0.5-1,0.7c-0.4,0.2-0.8,0.2-1.3,0.2c-0.7,0-1.2-0.1-1.8-0.4c-0.5-0.3-0.9-0.7-1.2-1.3
			c-0.3-0.5-0.4-1.2-0.4-2s0.1-1.4,0.4-2c0.3-0.5,0.7-1,1.2-1.3C129.6,266.7,130.2,266.6,130.8,266.6z"/>
	</g>
	<g class="st7">
		<path class="st8" d="M138.2,266.6c0.7,0,1.2,0.1,1.8,0.4s0.9,0.7,1.2,1.3c0.3,0.5,0.4,1.2,0.4,2s-0.1,1.4-0.4,2
			c-0.3,0.5-0.7,1-1.2,1.3s-1.1,0.4-1.8,0.4c-0.7,0-1.2-0.1-1.8-0.4c-0.5-0.3-0.9-0.7-1.2-1.3c-0.3-0.5-0.4-1.2-0.4-2s0.1-1.4,0.4-2
			c0.3-0.5,0.7-1,1.2-1.3C137,266.7,137.6,266.6,138.2,266.6z M138.2,267.6c-0.5,0-0.9,0.1-1.2,0.3s-0.6,0.5-0.8,0.9
			c-0.2,0.4-0.3,0.9-0.3,1.4c0,0.6,0.1,1,0.3,1.4s0.4,0.7,0.8,0.9c0.3,0.2,0.7,0.3,1.2,0.3c0.5,0,0.9-0.1,1.2-0.3
			c0.3-0.2,0.6-0.5,0.8-0.9c0.2-0.4,0.3-0.9,0.3-1.4c0-0.6-0.1-1-0.3-1.4c-0.2-0.4-0.4-0.7-0.8-0.9S138.7,267.6,138.2,267.6z"/>
		<path class="st8" d="M146.1,273.9c-0.6,0-1.1-0.1-1.6-0.4s-0.9-0.7-1.2-1.3c-0.3-0.5-0.4-1.2-0.4-2c0-0.8,0.2-1.4,0.5-2
			c0.3-0.5,0.7-1,1.2-1.2s1-0.4,1.6-0.4s1.1,0.1,1.5,0.4c0.4,0.3,0.7,0.7,0.8,1.2l-0.1,0.1v-4.8h1.1v10.2h-1l-0.1-1.7l0.2-0.1
			c-0.1,0.4-0.2,0.8-0.5,1c-0.2,0.3-0.6,0.5-0.9,0.7S146.5,273.9,146.1,273.9z M146.2,272.9c0.4,0,0.8-0.1,1.2-0.3
			c0.3-0.2,0.6-0.5,0.8-1s0.3-0.9,0.3-1.5c0-0.5-0.1-1-0.3-1.4s-0.4-0.7-0.8-0.9c-0.3-0.2-0.7-0.3-1.1-0.3c-0.7,0-1.3,0.2-1.7,0.7
			s-0.6,1.1-0.6,1.9s0.2,1.4,0.6,1.9C144.9,272.7,145.5,272.9,146.2,272.9z"/>
		<path class="st8" d="M154.6,273.9c-0.7,0-1.3-0.1-1.8-0.4s-0.9-0.7-1.2-1.3c-0.3-0.5-0.4-1.2-0.4-2s0.1-1.4,0.4-2
			c0.3-0.5,0.7-1,1.2-1.3s1.1-0.4,1.7-0.4c0.7,0,1.2,0.1,1.7,0.4c0.5,0.3,0.8,0.7,1.1,1.1c0.2,0.5,0.4,1,0.4,1.6c0,0.2,0,0.3,0,0.4
			c0,0.1,0,0.2,0,0.4h-5.7v-1h5.2l-0.6,0.1c0-0.7-0.2-1.2-0.6-1.6c-0.4-0.4-0.9-0.5-1.4-0.5c-0.5,0-0.9,0.1-1.2,0.3
			c-0.3,0.2-0.6,0.5-0.8,0.9c-0.2,0.4-0.3,0.9-0.3,1.4c0,0.6,0.1,1,0.3,1.4c0.2,0.4,0.5,0.7,0.8,0.9c0.3,0.2,0.7,0.3,1.2,0.3
			c0.5,0,0.9-0.1,1.3-0.3c0.3-0.2,0.6-0.5,0.8-0.8l0.9,0.5c-0.2,0.3-0.4,0.6-0.7,0.8c-0.3,0.2-0.6,0.4-1,0.5
			S155.1,273.9,154.6,273.9z"/>
		<path class="st8" d="M166.6,266.6c0.7,0,1.2,0.1,1.8,0.4s0.9,0.7,1.2,1.3c0.3,0.5,0.4,1.2,0.4,2s-0.1,1.4-0.4,2
			c-0.3,0.5-0.7,1-1.2,1.3s-1.1,0.4-1.8,0.4c-0.7,0-1.2-0.1-1.8-0.4c-0.5-0.3-0.9-0.7-1.2-1.3c-0.3-0.5-0.4-1.2-0.4-2s0.1-1.4,0.4-2
			c0.3-0.5,0.7-1,1.2-1.3C165.4,266.7,165.9,266.6,166.6,266.6z M166.6,267.6c-0.5,0-0.9,0.1-1.2,0.3s-0.6,0.5-0.8,0.9
			c-0.2,0.4-0.3,0.9-0.3,1.4c0,0.6,0.1,1,0.3,1.4s0.4,0.7,0.8,0.9c0.3,0.2,0.7,0.3,1.2,0.3c0.5,0,0.9-0.1,1.2-0.3
			c0.3-0.2,0.6-0.5,0.8-0.9c0.2-0.4,0.3-0.9,0.3-1.4c0-0.6-0.1-1-0.3-1.4c-0.2-0.4-0.4-0.7-0.8-0.9S167.1,267.6,166.6,267.6z"/>
	</g>
	<g class="st7">
		<path class="st8" d="M171.8,273.7v-7h0.9l0.2,1.1c0.2-0.4,0.5-0.8,0.9-1c0.4-0.2,0.8-0.3,1.4-0.3c0.1,0,0.3,0,0.4,0
			c0.1,0,0.3,0.1,0.4,0.1l-0.2,1c-0.1,0-0.2-0.1-0.3-0.1c-0.1,0-0.3,0-0.5,0c-0.3,0-0.6,0.1-0.9,0.3s-0.5,0.4-0.7,0.8
			c-0.2,0.3-0.3,0.8-0.3,1.3v3.8H171.8z"/>
	</g>
	<g class="st7">
	</g>
	<g class="st7">
		<path class="st8" d="M185.4,266.7h1.2l-2.9,7h-1.1l-2.9-7h1.3l2.2,5.9L185.4,266.7z"/>
		<path class="st8" d="M188.2,265.4c-0.3,0-0.5-0.1-0.6-0.2c-0.2-0.2-0.2-0.4-0.2-0.6s0.1-0.5,0.2-0.6c0.2-0.2,0.4-0.2,0.6-0.2
			s0.5,0.1,0.6,0.2c0.2,0.2,0.2,0.4,0.2,0.6s-0.1,0.5-0.2,0.6C188.6,265.3,188.4,265.4,188.2,265.4z M188.7,266.7v7h-1.1v-7H188.7z"
			/>
		<path class="st8" d="M193.4,273.9c-0.7,0-1.3-0.1-1.9-0.4c-0.6-0.3-1-0.7-1.3-1.2l1-0.7c0.2,0.4,0.5,0.8,0.9,1
			c0.4,0.2,0.9,0.4,1.4,0.4c0.5,0,0.9-0.1,1.2-0.3c0.3-0.2,0.4-0.4,0.4-0.7c0-0.2-0.1-0.4-0.2-0.5s-0.4-0.3-0.7-0.4l-1.7-0.3
			c-0.7-0.1-1.2-0.4-1.5-0.7c-0.3-0.3-0.4-0.7-0.4-1.2c0-0.4,0.1-0.7,0.3-1c0.2-0.3,0.5-0.6,0.9-0.8c0.4-0.2,0.9-0.3,1.4-0.3
			c0.7,0,1.3,0.1,1.8,0.4c0.5,0.3,0.8,0.7,1.1,1.1l-0.9,0.6c-0.2-0.4-0.4-0.7-0.8-0.9c-0.4-0.2-0.7-0.3-1.1-0.3
			c-0.3,0-0.6,0-0.9,0.1c-0.2,0.1-0.4,0.2-0.5,0.4s-0.2,0.3-0.2,0.6s0.1,0.4,0.2,0.6s0.4,0.3,0.8,0.4l1.8,0.4
			c0.7,0.1,1.1,0.3,1.4,0.6s0.4,0.7,0.4,1.1c0,0.4-0.1,0.8-0.4,1.2s-0.6,0.6-1,0.8C194.5,273.8,194,273.9,193.4,273.9z"/>
		<path class="st8" d="M198.4,265.4c-0.3,0-0.5-0.1-0.6-0.2c-0.2-0.2-0.2-0.4-0.2-0.6s0.1-0.5,0.2-0.6c0.2-0.2,0.4-0.2,0.6-0.2
			s0.5,0.1,0.6,0.2c0.2,0.2,0.2,0.4,0.2,0.6s-0.1,0.5-0.2,0.6C198.9,265.3,198.7,265.4,198.4,265.4z M199,266.7v7h-1.1v-7H199z"/>
		<path class="st8" d="M205.4,266.7v1h-5.1v-1H205.4z M202.8,264.8v7.1c0,0.3,0.1,0.6,0.3,0.8c0.2,0.2,0.4,0.3,0.8,0.3
			c0.3,0,0.5,0,0.7-0.1c0.2-0.1,0.4-0.2,0.5-0.4l0.4,0.9c-0.2,0.2-0.5,0.4-0.8,0.5c-0.3,0.1-0.6,0.2-1,0.2c-0.4,0-0.7-0.1-1-0.2
			s-0.6-0.3-0.7-0.6c-0.2-0.3-0.3-0.6-0.3-1.1v-6.9L202.8,264.8z"/>
	</g>
	<g class="st7">
	</g>
	<g class="st7">
		<path class="st8" d="M215,266.7v1h-5.1v-1H215z M212.4,264.8v7.1c0,0.3,0.1,0.6,0.3,0.8s0.4,0.3,0.8,0.3c0.3,0,0.5,0,0.7-0.1
			c0.2-0.1,0.4-0.2,0.5-0.4l0.4,0.9c-0.2,0.2-0.5,0.4-0.8,0.5c-0.3,0.1-0.6,0.2-1,0.2c-0.4,0-0.7-0.1-1-0.2
			c-0.3-0.1-0.6-0.3-0.7-0.6c-0.2-0.3-0.3-0.6-0.3-1.1v-6.9L212.4,264.8z"/>
		<path class="st8" d="M216.2,273.7v-10.2h1.1v4.3c0.2-0.4,0.6-0.7,1-0.9c0.4-0.2,0.8-0.3,1.3-0.3c0.5,0,1,0.1,1.4,0.3
			c0.4,0.2,0.7,0.5,1,0.9c0.2,0.4,0.4,0.9,0.4,1.5v4.5h-1.1v-4.1c0-0.8-0.2-1.3-0.5-1.6c-0.3-0.3-0.7-0.5-1.2-0.5
			c-0.3,0-0.7,0.1-1,0.2c-0.3,0.2-0.6,0.4-0.8,0.8c-0.2,0.4-0.3,0.8-0.3,1.4v3.7H216.2z"/>
		<path class="st8" d="M227.4,273.9c-0.7,0-1.3-0.1-1.8-0.4c-0.5-0.3-0.9-0.7-1.2-1.3c-0.3-0.5-0.4-1.2-0.4-2s0.1-1.4,0.4-2
			c0.3-0.5,0.7-1,1.2-1.3s1.1-0.4,1.7-0.4c0.7,0,1.2,0.1,1.7,0.4c0.5,0.3,0.8,0.7,1.1,1.1c0.2,0.5,0.4,1,0.4,1.6c0,0.2,0,0.3,0,0.4
			c0,0.1,0,0.2,0,0.4h-5.7v-1h5.2l-0.6,0.1c0-0.7-0.2-1.2-0.6-1.6c-0.4-0.4-0.9-0.5-1.4-0.5c-0.5,0-0.9,0.1-1.2,0.3
			c-0.3,0.2-0.6,0.5-0.8,0.9c-0.2,0.4-0.3,0.9-0.3,1.4c0,0.6,0.1,1,0.3,1.4s0.5,0.7,0.8,0.9s0.7,0.3,1.2,0.3c0.5,0,0.9-0.1,1.3-0.3
			c0.3-0.2,0.6-0.5,0.8-0.8l0.9,0.5c-0.2,0.3-0.4,0.6-0.7,0.8s-0.6,0.4-1,0.5C228.3,273.8,227.8,273.9,227.4,273.9z"/>
	</g>
	<g class="st7">
		<path class="st8" d="M44,291.5v8.4c0,0.4,0.1,0.6,0.2,0.7c0.1,0.1,0.3,0.2,0.6,0.2c0.2,0,0.3,0,0.5,0c0.1,0,0.3-0.1,0.5-0.2
			l-0.2,1c-0.1,0.1-0.3,0.1-0.5,0.1c-0.2,0-0.4,0-0.5,0c-0.6,0-1-0.2-1.3-0.5c-0.3-0.3-0.4-0.8-0.4-1.4v-8.5H44z"/>
	</g>
	<g class="st7">
		<path class="st8" d="M47.4,293.4c-0.3,0-0.5-0.1-0.6-0.2c-0.2-0.2-0.2-0.4-0.2-0.6s0.1-0.5,0.2-0.6c0.2-0.2,0.4-0.2,0.6-0.2
			s0.5,0.1,0.6,0.2c0.2,0.2,0.2,0.4,0.2,0.6s-0.1,0.5-0.2,0.6C47.9,293.3,47.7,293.4,47.4,293.4z M48,294.7v7h-1.1v-7H48z"/>
		<path class="st8" d="M50.1,301.7v-7h1l0.1,1.6l-0.2-0.2c0.1-0.4,0.3-0.7,0.6-0.9c0.3-0.2,0.5-0.4,0.9-0.5c0.3-0.1,0.7-0.2,1-0.2
			c0.5,0,1,0.1,1.4,0.3c0.4,0.2,0.7,0.5,1,0.9c0.2,0.4,0.4,0.9,0.4,1.5v4.5h-1.1v-4.1c0-0.8-0.2-1.3-0.5-1.6
			c-0.3-0.3-0.7-0.5-1.2-0.5c-0.3,0-0.7,0.1-1,0.2c-0.3,0.2-0.6,0.4-0.8,0.8c-0.2,0.4-0.3,0.8-0.3,1.4v3.7H50.1z"/>
	</g>
	<g class="st7">
		<path class="st8" d="M59.5,291.5v10.2h-1.1v-10.2H59.5z M64.6,294.7l-3,3l-0.3,0.3l-2.3,2.3v-1.4l4.2-4.2H64.6z M61.6,297.2
			l3.1,4.5h-1.4l-2.7-3.9L61.6,297.2z"/>
	</g>
	<g class="st7">
		<path class="st8" d="M73.4,301.9c-0.4,0-0.8-0.1-1.1-0.2c-0.3-0.1-0.6-0.3-0.9-0.6s-0.4-0.5-0.5-0.9l0.2-0.2l-0.1,1.7h-1v-10.2
			h1.1v4.8l-0.1-0.2c0.2-0.4,0.5-0.8,0.9-1.1s0.9-0.4,1.5-0.4c0.6,0,1.1,0.1,1.6,0.4s0.9,0.7,1.2,1.2c0.3,0.5,0.4,1.2,0.4,2
			c0,0.8-0.1,1.4-0.4,2s-0.7,1-1.2,1.3C74.5,301.7,74,301.9,73.4,301.9z M73.3,300.9c0.7,0,1.2-0.2,1.6-0.7c0.4-0.5,0.6-1.1,0.6-1.9
			s-0.2-1.4-0.6-1.9c-0.4-0.5-0.9-0.7-1.6-0.7c-0.4,0-0.8,0.1-1.2,0.3c-0.3,0.2-0.6,0.5-0.8,0.9c-0.2,0.4-0.3,0.9-0.3,1.4
			c0,0.5,0.1,1,0.3,1.4c0.2,0.4,0.4,0.7,0.8,0.9C72.5,300.8,72.9,300.9,73.3,300.9z"/>
		<path class="st8" d="M81.3,301.9c-0.7,0-1.3-0.1-1.8-0.4s-0.9-0.7-1.2-1.3c-0.3-0.5-0.4-1.2-0.4-2s0.1-1.4,0.4-2
			c0.3-0.5,0.7-1,1.2-1.3s1.1-0.4,1.7-0.4c0.7,0,1.2,0.1,1.7,0.4c0.5,0.3,0.8,0.7,1.1,1.1c0.2,0.5,0.4,1,0.4,1.6c0,0.2,0,0.3,0,0.4
			c0,0.1,0,0.2,0,0.4h-5.7v-1h5.2l-0.6,0.1c0-0.7-0.2-1.2-0.6-1.6c-0.4-0.4-0.9-0.5-1.4-0.5c-0.5,0-0.9,0.1-1.2,0.3
			c-0.3,0.2-0.6,0.5-0.8,0.9c-0.2,0.4-0.3,0.9-0.3,1.4c0,0.6,0.1,1,0.3,1.4c0.2,0.4,0.5,0.7,0.8,0.9c0.3,0.2,0.7,0.3,1.2,0.3
			c0.5,0,0.9-0.1,1.3-0.3c0.3-0.2,0.6-0.5,0.8-0.8l0.9,0.5c-0.2,0.3-0.4,0.6-0.7,0.8c-0.3,0.2-0.6,0.4-1,0.5S81.7,301.9,81.3,301.9z
			"/>
		<path class="st8" d="M87.1,291.5v8.4c0,0.4,0.1,0.6,0.2,0.7c0.1,0.1,0.3,0.2,0.6,0.2c0.2,0,0.3,0,0.5,0c0.1,0,0.3-0.1,0.5-0.2
			l-0.2,1c-0.1,0.1-0.3,0.1-0.5,0.1c-0.2,0-0.4,0-0.5,0c-0.6,0-1-0.2-1.3-0.5c-0.3-0.3-0.4-0.8-0.4-1.4v-8.5H87.1z"/>
	</g>
	<g class="st7">
		<path class="st8" d="M92.8,294.6c0.7,0,1.2,0.1,1.8,0.4s0.9,0.7,1.2,1.3c0.3,0.5,0.4,1.2,0.4,2s-0.1,1.4-0.4,2
			c-0.3,0.5-0.7,1-1.2,1.3s-1.1,0.4-1.8,0.4c-0.7,0-1.2-0.1-1.8-0.4c-0.5-0.3-0.9-0.7-1.2-1.3c-0.3-0.5-0.4-1.2-0.4-2s0.1-1.4,0.4-2
			c0.3-0.5,0.7-1,1.2-1.3C91.6,294.7,92.2,294.6,92.8,294.6z M92.8,295.6c-0.5,0-0.9,0.1-1.2,0.3s-0.6,0.5-0.8,0.9
			c-0.2,0.4-0.3,0.9-0.3,1.4c0,0.6,0.1,1,0.3,1.4s0.4,0.7,0.8,0.9c0.3,0.2,0.7,0.3,1.2,0.3c0.5,0,0.9-0.1,1.2-0.3
			c0.3-0.2,0.6-0.5,0.8-0.9c0.2-0.4,0.3-0.9,0.3-1.4c0-0.6-0.1-1-0.3-1.4c-0.2-0.4-0.4-0.7-0.8-0.9S93.3,295.6,92.8,295.6z"/>
	</g>
	<g class="st7">
		<path class="st8" d="M106.5,294.7h1.2l-2.4,7h-1.1l-2-5.6l-1.9,5.6h-1.1l-2.4-7H98l1.8,5.7l1.9-5.7h1.1l1.9,5.7L106.5,294.7z"/>
	</g>
	<g class="st7">
	</g>
	<g class="st7">
		<path class="st8" d="M117,294.7v1h-5.1v-1H117z M114.4,292.8v7.1c0,0.3,0.1,0.6,0.3,0.8c0.2,0.2,0.4,0.3,0.8,0.3
			c0.3,0,0.5,0,0.7-0.1c0.2-0.1,0.4-0.2,0.5-0.4l0.4,0.9c-0.2,0.2-0.5,0.4-0.8,0.5c-0.3,0.1-0.6,0.2-1,0.2c-0.4,0-0.7-0.1-1-0.2
			s-0.6-0.3-0.7-0.6c-0.2-0.3-0.3-0.6-0.3-1.1v-6.9L114.4,292.8z"/>
		<path class="st8" d="M121.1,294.6c0.7,0,1.2,0.1,1.8,0.4s0.9,0.7,1.2,1.3c0.3,0.5,0.4,1.2,0.4,2s-0.1,1.4-0.4,2
			c-0.3,0.5-0.7,1-1.2,1.3s-1.1,0.4-1.8,0.4c-0.7,0-1.2-0.1-1.8-0.4c-0.5-0.3-0.9-0.7-1.2-1.3c-0.3-0.5-0.4-1.2-0.4-2s0.1-1.4,0.4-2
			c0.3-0.5,0.7-1,1.2-1.3C119.9,294.7,120.5,294.6,121.1,294.6z M121.1,295.6c-0.5,0-0.9,0.1-1.2,0.3s-0.6,0.5-0.8,0.9
			c-0.2,0.4-0.3,0.9-0.3,1.4c0,0.6,0.1,1,0.3,1.4s0.4,0.7,0.8,0.9c0.3,0.2,0.7,0.3,1.2,0.3c0.5,0,0.9-0.1,1.2-0.3
			c0.3-0.2,0.6-0.5,0.8-0.9c0.2-0.4,0.3-0.9,0.3-1.4c0-0.6-0.1-1-0.3-1.4c-0.2-0.4-0.4-0.7-0.8-0.9S121.6,295.6,121.1,295.6z"/>
		<path class="st8" d="M134,301.9c-0.4,0-0.8-0.1-1.1-0.2c-0.3-0.1-0.6-0.3-0.9-0.6s-0.4-0.5-0.5-0.9l0.2-0.2l-0.1,1.7h-1v-10.2h1.1
			v4.8l-0.1-0.2c0.2-0.4,0.5-0.8,0.9-1.1s0.9-0.4,1.5-0.4c0.6,0,1.1,0.1,1.6,0.4s0.9,0.7,1.2,1.2c0.3,0.5,0.4,1.2,0.4,2
			c0,0.8-0.1,1.4-0.4,2s-0.7,1-1.2,1.3C135.1,301.7,134.6,301.9,134,301.9z M133.9,300.9c0.7,0,1.2-0.2,1.6-0.7
			c0.4-0.5,0.6-1.1,0.6-1.9s-0.2-1.4-0.6-1.9c-0.4-0.5-0.9-0.7-1.6-0.7c-0.4,0-0.8,0.1-1.2,0.3c-0.3,0.2-0.6,0.5-0.8,0.9
			c-0.2,0.4-0.3,0.9-0.3,1.4c0,0.5,0.1,1,0.3,1.4c0.2,0.4,0.4,0.7,0.8,0.9C133,300.8,133.4,300.9,133.9,300.9z"/>
		<path class="st8" d="M141.8,301.9c-0.7,0-1.3-0.1-1.8-0.4s-0.9-0.7-1.2-1.3c-0.3-0.5-0.4-1.2-0.4-2s0.1-1.4,0.4-2
			c0.3-0.5,0.7-1,1.2-1.3s1.1-0.4,1.7-0.4c0.7,0,1.2,0.1,1.7,0.4c0.5,0.3,0.8,0.7,1.1,1.1c0.2,0.5,0.4,1,0.4,1.6c0,0.2,0,0.3,0,0.4
			c0,0.1,0,0.2,0,0.4h-5.7v-1h5.2l-0.6,0.1c0-0.7-0.2-1.2-0.6-1.6c-0.4-0.4-0.9-0.5-1.4-0.5c-0.5,0-0.9,0.1-1.2,0.3
			c-0.3,0.2-0.6,0.5-0.8,0.9c-0.2,0.4-0.3,0.9-0.3,1.4c0,0.6,0.1,1,0.3,1.4c0.2,0.4,0.5,0.7,0.8,0.9c0.3,0.2,0.7,0.3,1.2,0.3
			c0.5,0,0.9-0.1,1.3-0.3c0.3-0.2,0.6-0.5,0.8-0.8l0.9,0.5c-0.2,0.3-0.4,0.6-0.7,0.8c-0.3,0.2-0.6,0.4-1,0.5
			S142.3,301.9,141.8,301.9z"/>
	</g>
	<g class="st7">
		<path class="st8" d="M151,301.7v-7h0.9l0.2,1.1c0.2-0.4,0.5-0.8,0.9-1c0.4-0.2,0.8-0.3,1.4-0.3c0.1,0,0.3,0,0.4,0
			c0.1,0,0.3,0.1,0.4,0.1l-0.2,1c-0.1,0-0.2-0.1-0.3-0.1c-0.1,0-0.3,0-0.5,0c-0.3,0-0.6,0.1-0.9,0.3s-0.5,0.4-0.7,0.8
			c-0.2,0.3-0.3,0.8-0.3,1.3v3.8H151z"/>
	</g>
	<g class="st7">
		<path class="st8" d="M159,301.9c-0.7,0-1.3-0.1-1.8-0.4s-0.9-0.7-1.2-1.3c-0.3-0.5-0.4-1.2-0.4-2s0.1-1.4,0.4-2
			c0.3-0.5,0.7-1,1.2-1.3s1.1-0.4,1.7-0.4c0.7,0,1.2,0.1,1.7,0.4c0.5,0.3,0.8,0.7,1.1,1.1c0.2,0.5,0.4,1,0.4,1.6c0,0.2,0,0.3,0,0.4
			c0,0.1,0,0.2,0,0.4h-5.7v-1h5.2l-0.6,0.1c0-0.7-0.2-1.2-0.6-1.6c-0.4-0.4-0.9-0.5-1.4-0.5c-0.5,0-0.9,0.1-1.2,0.3
			c-0.3,0.2-0.6,0.5-0.8,0.9c-0.2,0.4-0.3,0.9-0.3,1.4c0,0.6,0.1,1,0.3,1.4c0.2,0.4,0.5,0.7,0.8,0.9c0.3,0.2,0.7,0.3,1.2,0.3
			c0.5,0,0.9-0.1,1.3-0.3c0.3-0.2,0.6-0.5,0.8-0.8l0.9,0.5c-0.2,0.3-0.4,0.6-0.7,0.8c-0.3,0.2-0.6,0.4-1,0.5S159.5,301.9,159,301.9z
			"/>
		<path class="st8" d="M166.5,301.9c-0.6,0-1.1-0.1-1.6-0.4s-0.9-0.7-1.2-1.3c-0.3-0.5-0.4-1.2-0.4-2c0-0.8,0.2-1.4,0.5-2
			c0.3-0.5,0.7-1,1.2-1.2s1-0.4,1.6-0.4s1.1,0.1,1.5,0.4c0.4,0.3,0.7,0.7,0.8,1.2l-0.1,0.1v-4.8h1.1v10.2h-1l-0.1-1.7l0.2-0.1
			c-0.1,0.4-0.2,0.8-0.5,1c-0.2,0.3-0.6,0.5-0.9,0.7S166.9,301.9,166.5,301.9z M166.6,300.9c0.4,0,0.8-0.1,1.2-0.3
			c0.3-0.2,0.6-0.5,0.8-1s0.3-0.9,0.3-1.5c0-0.5-0.1-1-0.3-1.4s-0.4-0.7-0.8-0.9c-0.3-0.2-0.7-0.3-1.1-0.3c-0.7,0-1.3,0.2-1.7,0.7
			s-0.6,1.1-0.6,1.9s0.2,1.4,0.6,1.9C165.3,300.7,165.9,300.9,166.6,300.9z"/>
		<path class="st8" d="M172.6,293.4c-0.3,0-0.5-0.1-0.6-0.2c-0.2-0.2-0.2-0.4-0.2-0.6s0.1-0.5,0.2-0.6c0.2-0.2,0.4-0.2,0.6-0.2
			s0.5,0.1,0.6,0.2c0.2,0.2,0.2,0.4,0.2,0.6s-0.1,0.5-0.2,0.6C173.1,293.3,172.9,293.4,172.6,293.4z M173.2,294.7v7h-1.1v-7H173.2z"
			/>
	</g>
	<g class="st7">
		<path class="st8" d="M175.4,301.7v-7h0.9l0.2,1.1c0.2-0.4,0.5-0.8,0.9-1c0.4-0.2,0.8-0.3,1.4-0.3c0.1,0,0.3,0,0.4,0
			c0.1,0,0.3,0.1,0.4,0.1l-0.2,1c-0.1,0-0.2-0.1-0.3-0.1c-0.1,0-0.3,0-0.5,0c-0.3,0-0.6,0.1-0.9,0.3s-0.5,0.4-0.7,0.8
			c-0.2,0.3-0.3,0.8-0.3,1.3v3.8H175.4z"/>
	</g>
	<g class="st7">
		<path class="st8" d="M183.4,301.9c-0.7,0-1.3-0.1-1.8-0.4s-0.9-0.7-1.2-1.3c-0.3-0.5-0.4-1.2-0.4-2s0.1-1.4,0.4-2
			c0.3-0.5,0.7-1,1.2-1.3s1.1-0.4,1.7-0.4c0.7,0,1.2,0.1,1.7,0.4c0.5,0.3,0.8,0.7,1.1,1.1c0.2,0.5,0.4,1,0.4,1.6c0,0.2,0,0.3,0,0.4
			c0,0.1,0,0.2,0,0.4h-5.7v-1h5.2l-0.6,0.1c0-0.7-0.2-1.2-0.6-1.6c-0.4-0.4-0.9-0.5-1.4-0.5c-0.5,0-0.9,0.1-1.2,0.3
			c-0.3,0.2-0.6,0.5-0.8,0.9c-0.2,0.4-0.3,0.9-0.3,1.4c0,0.6,0.1,1,0.3,1.4c0.2,0.4,0.5,0.7,0.8,0.9c0.3,0.2,0.7,0.3,1.2,0.3
			c0.5,0,0.9-0.1,1.3-0.3c0.3-0.2,0.6-0.5,0.8-0.8l0.9,0.5c-0.2,0.3-0.4,0.6-0.7,0.8c-0.3,0.2-0.6,0.4-1,0.5
			S183.9,301.9,183.4,301.9z"/>
		<path class="st8" d="M191.1,294.6c0.5,0,0.9,0.1,1.3,0.2s0.7,0.4,1,0.6c0.3,0.3,0.5,0.6,0.7,1l-1.1,0.5c-0.1-0.4-0.4-0.8-0.7-1
			c-0.3-0.2-0.7-0.4-1.2-0.4c-0.5,0-0.9,0.1-1.2,0.3c-0.3,0.2-0.6,0.5-0.8,0.9c-0.2,0.4-0.3,0.9-0.3,1.4c0,0.6,0.1,1,0.3,1.4
			c0.2,0.4,0.4,0.7,0.8,0.9c0.3,0.2,0.7,0.3,1.2,0.3c0.4,0,0.7-0.1,0.9-0.2c0.3-0.1,0.5-0.3,0.7-0.5s0.3-0.5,0.4-0.8l1,0.4
			c-0.2,0.4-0.4,0.8-0.7,1.1c-0.3,0.3-0.6,0.5-1,0.7c-0.4,0.2-0.8,0.2-1.3,0.2c-0.7,0-1.2-0.1-1.8-0.4c-0.5-0.3-0.9-0.7-1.2-1.3
			c-0.3-0.5-0.4-1.2-0.4-2s0.1-1.4,0.4-2c0.3-0.5,0.7-1,1.2-1.3C189.8,294.7,190.4,294.6,191.1,294.6z"/>
		<path class="st8" d="M199.8,294.7v1h-5.1v-1H199.8z M197.2,292.8v7.1c0,0.3,0.1,0.6,0.3,0.8c0.2,0.2,0.4,0.3,0.8,0.3
			c0.3,0,0.5,0,0.7-0.1c0.2-0.1,0.4-0.2,0.5-0.4l0.4,0.9c-0.2,0.2-0.5,0.4-0.8,0.5c-0.3,0.1-0.6,0.2-1,0.2c-0.4,0-0.7-0.1-1-0.2
			s-0.6-0.3-0.7-0.6c-0.2-0.3-0.3-0.6-0.3-1.1v-6.9L197.2,292.8z"/>
		<path class="st8" d="M204,301.9c-0.7,0-1.3-0.1-1.8-0.4s-0.9-0.7-1.2-1.3c-0.3-0.5-0.4-1.2-0.4-2s0.1-1.4,0.4-2
			c0.3-0.5,0.7-1,1.2-1.3s1.1-0.4,1.7-0.4c0.7,0,1.2,0.1,1.7,0.4c0.5,0.3,0.8,0.7,1.1,1.1c0.2,0.5,0.4,1,0.4,1.6c0,0.2,0,0.3,0,0.4
			c0,0.1,0,0.2,0,0.4h-5.7v-1h5.2l-0.6,0.1c0-0.7-0.2-1.2-0.6-1.6c-0.4-0.4-0.9-0.5-1.4-0.5c-0.5,0-0.9,0.1-1.2,0.3
			c-0.3,0.2-0.6,0.5-0.8,0.9c-0.2,0.4-0.3,0.9-0.3,1.4c0,0.6,0.1,1,0.3,1.4c0.2,0.4,0.5,0.7,0.8,0.9c0.3,0.2,0.7,0.3,1.2,0.3
			c0.5,0,0.9-0.1,1.3-0.3c0.3-0.2,0.6-0.5,0.8-0.8l0.9,0.5c-0.2,0.3-0.4,0.6-0.7,0.8c-0.3,0.2-0.6,0.4-1,0.5S204.4,301.9,204,301.9z
			"/>
		<path class="st8" d="M211.4,301.9c-0.6,0-1.1-0.1-1.6-0.4s-0.9-0.7-1.2-1.3c-0.3-0.5-0.4-1.2-0.4-2c0-0.8,0.2-1.4,0.5-2
			c0.3-0.5,0.7-1,1.2-1.2s1-0.4,1.6-0.4c0.6,0,1.1,0.1,1.5,0.4c0.4,0.3,0.7,0.7,0.8,1.2l-0.1,0.1v-4.8h1.1v10.2h-1l-0.1-1.7l0.2-0.1
			c-0.1,0.4-0.2,0.8-0.5,1c-0.2,0.3-0.6,0.5-0.9,0.7S211.8,301.9,211.4,301.9z M211.5,300.9c0.4,0,0.8-0.1,1.2-0.3
			c0.3-0.2,0.6-0.5,0.8-1c0.2-0.4,0.3-0.9,0.3-1.5c0-0.5-0.1-1-0.3-1.4c-0.2-0.4-0.4-0.7-0.8-0.9c-0.3-0.2-0.7-0.3-1.1-0.3
			c-0.7,0-1.3,0.2-1.7,0.7s-0.6,1.1-0.6,1.9s0.2,1.4,0.6,1.9C210.3,300.7,210.8,300.9,211.5,300.9z"/>
	</g>
	<g class="st7">
		<path class="st8" d="M47.8,456.5v4.3h-1.4V457c0-1.4-0.2-3-1.8-3c-1.2,0-2.2,0.9-2.2,2.3v4.6H41v-11.4h1.4v4.2h0.2
			c0.4-0.4,1.1-0.9,2.2-0.9C46.7,452.8,47.8,454.3,47.8,456.5z"/>
	</g>
	<g class="st7">
		<path class="st8" d="M53.7,460.4c-0.2,0.2-0.7,0.5-1.4,0.5c-1.4,0-2.2-1-2.2-2.5v-4.4h-1.4v-1h0.5c0.6,0,1.1-0.4,1.1-1.1v-1.4h1.2
			v2.4h1.9v1.2h-1.9v4.3c0,1,0.5,1.4,1,1.4c0.3,0,0.5-0.1,0.6-0.2L53.7,460.4z"/>
	</g>
	<g class="st7">
		<path class="st8" d="M59,460.4c-0.2,0.2-0.7,0.5-1.4,0.5c-1.4,0-2.2-1-2.2-2.5v-4.4H54v-1h0.5c0.6,0,1.1-0.4,1.1-1.1v-1.4h1.2v2.4
			h1.9v1.2h-1.9v4.3c0,1,0.5,1.4,1,1.4c0.3,0,0.5-0.1,0.6-0.2L59,460.4z"/>
	</g>
	<g class="st7">
		<path class="st8" d="M67.5,456.9c0,2.4-1.7,4.1-3.7,4.1c-1.1,0-1.9-0.5-2.4-1.3v4.4h-1.4v-11.2H61l0.3,1h0.3
			c0.5-0.7,1.3-1.1,2.3-1.1C65.9,452.8,67.5,454.5,67.5,456.9z M66.1,456.9c0-1.7-1.2-2.8-2.4-2.8c-1.1,0-2.3,0.8-2.3,2.8
			s1.2,2.8,2.3,2.8C64.9,459.6,66.1,458.6,66.1,456.9z"/>
	</g>
	<g class="st7">
		<path class="st8" d="M71.7,461c-1.8,0-3-1.2-3-2.7h1.3c0,1,0.8,1.5,1.7,1.5c0.8,0,1.5-0.4,1.5-1.2c0-0.8-0.8-1.1-1.7-1.3
			c-1.1-0.3-2.6-0.7-2.6-2.3c0-1.4,1.2-2.2,2.6-2.2c1.8,0,2.8,1.2,2.8,2.3H73c0-0.6-0.6-1.1-1.5-1.1c-0.7,0-1.3,0.4-1.3,1.1
			c0,0.7,0.8,1,1.5,1.2c1.2,0.3,2.7,0.7,2.7,2.4C74.4,460.1,73.2,461,71.7,461z"/>
	</g>
	<g class="st7">
		<path class="st8" d="M75.5,453.8c0-0.5,0.4-1,1-1s1,0.4,1,1c0,0.5-0.4,1-1,1S75.5,454.3,75.5,453.8z M75.5,460c0-0.5,0.4-1,1-1
			s1,0.4,1,1c0,0.5-0.4,1-1,1S75.5,460.5,75.5,460z"/>
	</g>
	<g class="st7">
		<path class="st8" d="M79.7,461.7h-1.4l5.7-12.8h1.4L79.7,461.7z"/>
	</g>
	<g class="st7">
		<path class="st8" d="M83.3,461.7h-1.4l5.7-12.8h1.4L83.3,461.7z"/>
	</g>
	<g class="st7">
		<path class="st8" d="M91.2,449.5v11.4h-1.4v-11.4H91.2z"/>
	</g>
	<g class="st7">
		<path class="st8" d="M92.5,450.5c0-0.6,0.5-1,1-1c0.6,0,1,0.4,1,1c0,0.6-0.5,1-1,1C93,451.5,92.5,451,92.5,450.5z M94.3,460.9
			h-1.4v-8h1.4V460.9z"/>
	</g>
	<g class="st7">
		<path class="st8" d="M103.1,456.5v4.3h-1.4V457c0-1.4-0.2-3-1.8-3c-1.2,0-2.2,0.9-2.2,2.3v4.6h-1.4v-8h0.9l0.3,0.9h0.2
			c0.3-0.4,1-1,2.4-1C102.1,452.8,103.1,454.3,103.1,456.5z"/>
	</g>
	<g class="st7">
		<path class="st8" d="M108.4,456.3l3.2,4.6H110l-2.6-3.6l-1.2,1.3v2.3h-1.4v-11.4h1.4v6.9h0.3l3.4-3.6h1.7L108.4,456.3z"/>
	</g>
	<g class="st7">
		<path class="st8" d="M112.8,460c0-0.5,0.4-1,1-1s1,0.4,1,1c0,0.5-0.4,1-1,1S112.8,460.5,112.8,460z"/>
	</g>
	<g class="st7">
		<path class="st8" d="M119.7,461c-2,0-3.8-1.7-3.8-4.1c0-2.4,1.8-4.1,3.8-4.1c1.7,0,3.4,1.2,3.7,3h-1.4c-0.3-1-1.2-1.7-2.3-1.7
			c-1.4,0-2.4,1.2-2.4,2.8c0,1.6,1,2.8,2.4,2.8c1.1,0,1.9-0.6,2.2-1.6h1.4C123,459.8,121.3,461,119.7,461z"/>
	</g>
	<g class="st7">
		<path class="st8" d="M124.5,456.9c0-2.4,1.8-4.1,3.8-4.1c2,0,3.8,1.7,3.8,4.1c0,2.4-1.8,4.1-3.8,4.1
			C126.3,461,124.5,459.2,124.5,456.9z M130.8,456.9c0-1.6-1-2.8-2.4-2.8c-1.4,0-2.4,1.2-2.4,2.8c0,1.6,1,2.8,2.4,2.8
			C129.8,459.6,130.8,458.4,130.8,456.9z"/>
	</g>
	<g class="st7">
		<path class="st8" d="M144.8,456.5v4.3h-1.4V457c0-1.6-0.2-3-1.6-3c-1,0-1.9,0.8-1.9,2.2v4.7h-1.4V457c0-1.6-0.2-3-1.6-3
			c-1,0-1.9,0.8-1.9,2.3v4.6h-1.4v-8h0.9l0.3,0.9h0.2c0.3-0.4,1-1,2-1s1.8,0.6,2.2,1.3h0.3c0.4-0.6,1.2-1.3,2.4-1.3
			C143.8,452.8,144.8,454.3,144.8,456.5z"/>
	</g>
	<g class="st7">
		<path class="st8" d="M147.5,461.7h-1.4l5.7-12.8h1.4L147.5,461.7z"/>
	</g>
	<g class="st7">
		<path class="st8" d="M160.6,456.9c0,2.4-1.7,4.1-3.7,4.1c-1.1,0-1.9-0.5-2.4-1.3v4.4h-1.4v-11.2h0.9l0.3,1h0.3
			c0.5-0.7,1.3-1.1,2.3-1.1C158.9,452.8,160.6,454.5,160.6,456.9z M159.2,456.9c0-1.7-1.2-2.8-2.4-2.8c-1.1,0-2.3,0.8-2.3,2.8
			s1.2,2.8,2.3,2.8C158,459.6,159.2,458.6,159.2,456.9z"/>
	</g>
	<g class="st7">
		<path class="st8" d="M169.1,457.2h-6.1c0.1,1.5,1.1,2.4,2.4,2.4c0.9,0,1.6-0.4,2-1h1.5c-0.6,1.5-2,2.3-3.4,2.3
			c-2,0-3.8-1.6-3.8-4.1c0-2.5,1.8-4,3.8-4C167.4,452.8,169.3,454.2,169.1,457.2z M163.1,456.1h4.5c-0.2-1.2-1-2.1-2.2-2.1
			C164.3,454,163.4,454.8,163.1,456.1z"/>
	</g>
	<g class="st7">
		<path class="st8" d="M174.6,452.8v1.4c-0.2,0-0.4-0.1-0.7-0.1c-1,0-2,0.6-2,2v4.7h-1.4v-8h0.9l0.3,0.9h0.2c0.3-0.4,1-1,2.2-1
			H174.6z"/>
	</g>
	<g class="st7">
		<path class="st8" d="M178.5,461c-1.8,0-3-1.2-3-2.7h1.3c0,1,0.8,1.5,1.7,1.5c0.8,0,1.5-0.4,1.5-1.2c0-0.8-0.8-1.1-1.7-1.3
			c-1.1-0.3-2.6-0.7-2.6-2.3c0-1.4,1.2-2.2,2.6-2.2c1.8,0,2.8,1.2,2.8,2.3h-1.3c0-0.6-0.6-1.1-1.5-1.1c-0.7,0-1.3,0.4-1.3,1.1
			c0,0.7,0.8,1,1.5,1.2c1.2,0.3,2.7,0.7,2.7,2.4C181.2,460.1,180,461,178.5,461z"/>
	</g>
	<g class="st7">
		<path class="st8" d="M182.4,456.9c0-2.4,1.8-4.1,3.8-4.1c2,0,3.8,1.7,3.8,4.1c0,2.4-1.8,4.1-3.8,4.1
			C184.2,461,182.4,459.2,182.4,456.9z M188.6,456.9c0-1.6-1-2.8-2.4-2.8c-1.4,0-2.4,1.2-2.4,2.8c0,1.6,1,2.8,2.4,2.8
			C187.7,459.6,188.6,458.4,188.6,456.9z"/>
	</g>
	<g class="st7">
		<path class="st8" d="M198.2,456.5v4.3h-1.4V457c0-1.4-0.2-3-1.8-3c-1.2,0-2.2,0.9-2.2,2.3v4.6h-1.4v-8h0.9l0.3,0.9h0.2
			c0.3-0.4,1-1,2.4-1C197.2,452.8,198.2,454.3,198.2,456.5z"/>
	</g>
	<g class="st7">
		<path class="st8" d="M206.6,459.8v1.1h-0.6c-0.7,0-1.2-0.3-1.4-1c-0.5,0.7-1.3,1-2.3,1c-1.6,0-2.7-0.9-2.7-2.3
			c0-2.4,3.1-2.6,4.9-2.8c0-1-0.4-1.8-1.7-1.8c-1.4,0-1.6,1-1.6,1h-1.4c0.1-1.1,1.2-2.3,3-2.3c1.7,0,2.9,0.9,2.9,3.3v2.8
			C205.8,459.6,206,459.8,206.6,459.8z M204.5,457.9v-0.8c-1.9,0.2-3.6,0.4-3.6,1.6C200.9,460.4,204.4,460,204.5,457.9z"/>
	</g>
	<g class="st7">
		<path class="st8" d="M209.2,449.5v11.4h-1.4v-11.4H209.2z"/>
	</g>
	<g class="st7">
		<path class="st8" d="M216.9,455.3v1.2h-5.8v-1.2H216.9z"/>
	</g>
	<g class="st7">
		<path class="st8" d="M225.5,452.9v8h-0.9l-0.3-0.8h-0.2c-0.4,0.4-1,0.9-2.2,0.9c-2.1,0-3.1-1.5-3.1-3.7v-4.3h1.4v3.9
			c0,1.5,0.3,3,1.9,3c1.2,0,2-0.8,2-2.6v-4.2H225.5z"/>
	</g>
	<g class="st7">
		<path class="st8" d="M231.3,452.8v1.4c-0.2,0-0.4-0.1-0.7-0.1c-1,0-2,0.6-2,2v4.7h-1.4v-8h0.9l0.3,0.9h0.2c0.3-0.4,1-1,2.2-1
			H231.3z"/>
	</g>
	<g class="st7">
		<path class="st8" d="M234.1,449.5v11.4h-1.4v-11.4H234.1z"/>
	</g>
	<g class="st0">
		<defs>
			<rect id="SVGID_17_" y="0.2" width="420" height="518"/>
		</defs>
		<clipPath id="SVGID_18_">
			<use xlink:href="#SVGID_17_"  style="overflow:visible;"/>
		</clipPath>
		<g class="st16">
			<path class="st17" d="M361,474.1h-69c-9.9,0-18-8.1-18-18s8.1-18,18-18h69c9.9,0,18,8.1,18,18S370.9,474.1,361,474.1"/>
		</g>
	</g>
	<g class="st7">
		<path class="st8" d="M307.5,451.6l-2.9,9.8h-2.9l-2.9-9.8h2l2.1,7.6h0.3l2.1-7.6H307.5z"/>
	</g>
	<g class="st7">
		<path class="st8" d="M307.6,452.5c0-0.7,0.5-1.2,1.2-1.2c0.6,0,1.2,0.5,1.2,1.2c0,0.6-0.5,1.2-1.2,1.2
			C308.2,453.7,307.6,453.1,307.6,452.5z M309.7,461.4h-1.8v-7h1.8V461.4z"/>
	</g>
	<g class="st7">
		<path class="st8" d="M314,455.9c-0.6,0-0.8,0.3-0.8,0.6c0,0.5,0.6,0.6,1.1,0.7c1.2,0.3,2.5,0.6,2.5,2.1c0,1.4-1.2,2.2-2.6,2.2
			c-1.6,0-2.9-1-2.9-2.5h1.7c0,0.4,0.3,1,1.2,1c0.7,0,0.9-0.4,0.9-0.7c0-0.5-0.5-0.7-1-0.8c-0.8-0.2-2.6-0.5-2.6-2.1
			c0-1.4,1.3-2.1,2.7-2.1c1.6,0,2.6,1,2.7,2.1H315C314.9,456.3,314.7,455.9,314,455.9z"/>
	</g>
	<g class="st7">
		<path class="st8" d="M317.7,452.5c0-0.7,0.5-1.2,1.2-1.2c0.6,0,1.2,0.5,1.2,1.2c0,0.6-0.5,1.2-1.2,1.2
			C318.3,453.7,317.7,453.1,317.7,452.5z M319.8,461.4H318v-7h1.8V461.4z"/>
	</g>
	<g class="st7">
		<path class="st8" d="M326.5,460.9c0,0-0.6,0.6-1.7,0.6c-1.3,0-2.5-0.9-2.5-2.3v-3.2H321v-1.4h0.7c0.5,0,0.8-0.3,0.8-0.8v-1.4h1.7
			v2.1h1.8v1.5h-1.8v3.1c0,0.5,0.4,0.8,0.9,0.8c0.4,0,0.8-0.2,0.8-0.2L326.5,460.9z"/>
	</g>
	<g class="st7">
	</g>
	<g class="st7">
		<path class="st8" d="M333.6,451.5v9.9h-1.8v-9.9H333.6z"/>
	</g>
	<g class="st7">
		<path class="st8" d="M335.1,452.5c0-0.7,0.5-1.2,1.2-1.2c0.6,0,1.2,0.5,1.2,1.2c0,0.6-0.5,1.2-1.2,1.2
			C335.6,453.7,335.1,453.1,335.1,452.5z M337.2,461.4h-1.8v-7h1.8V461.4z"/>
	</g>
	<g class="st7">
		<path class="st8" d="M345.8,457.6v3.8h-1.9v-3.4c0-0.2,0.2-2-1.2-2.1c-0.7,0-1.8,0.3-1.8,2.2v3.3H339v-7h1.4l0.2,0.9h0.2
			c0.3-0.4,1-0.9,2.1-0.9C344.9,454.4,345.8,455.7,345.8,457.6z"/>
	</g>
	<g class="st7">
		<path class="st8" d="M351.1,457.4l2.8,4h-2l-1.9-2.8l-0.7,0.8l0,0v2h-1.8v-9.9h1.8v5.3h0.3l2.3-2.4h2.1L351.1,457.4z"/>
	</g>
	<g class="st0">
		<defs>
			<rect id="SVGID_19_" y="0.2" width="420" height="518"/>
		</defs>
		<clipPath id="SVGID_20_">
			<use xlink:href="#SVGID_19_"  style="overflow:visible;"/>
		</clipPath>
		<polygon class="st18" points="326.8,184.5 309.9,164.3 311.4,163 326.6,181.1 347.3,150 349,151.1 		"/>
		<path class="st18" d="M330.5,203.1c-20.2,0-36.5-16.3-36.5-36.5s16.3-36.5,36.5-36.5s36.5,16.3,36.5,36.5l0,0
			C367,186.8,350.6,203.1,330.5,203.1 M330.5,132.1c-19.1,0-34.5,15.4-34.5,34.5s15.4,34.5,34.5,34.5s34.5-15.4,34.5-34.5
			C365,147.6,349.5,132.2,330.5,132.1"/>
	</g>
</g>
<path class="st8" d="M305.4,296.6H302v-3.3h-6.6v3.3h-3.3v6.6h-3.3V290H302v-3.3h3.3v-3.3H302v3.3h-3.3v-3.4h-1.1l-5.6-0.1V280h6.7
	v-6.6h23.2v3.3h-3.2v3.3h3.3v3.3h3.3v3.4H322v6.5c0.1,0,0.1,0.1,0.2,0.1h9.8v3.4h-3.4v3.3h-3.2v3.2h6.7v3.4l0,0h-3.4v3.4l0,0
	l-3.4,0.1v-3.4h-6.5v3.3h2.1l4.5,0.1v3.2h-2.7c-0.3,0-0.6,0-0.6,0.5c0,3.1,0,6.1,0,9.2c0,0.1,0,0.2,0.1,0.2h3.2v6.6H322v-6.6h-3.3
	v-3.3h-3.3V300h3.3v-6.7h-3.3V290h-9.9L305.4,296.6L305.4,296.6z M308.7,286.6h6.6v-3.3h3.3V280h-3.3v-3.3h-6.5v3.3h3.2v3.3h-3.2
	V286.6z M321.9,299.9h-3.2v3.2h3.2V299.9z"/>
<path class="st8" d="M338.5,326.3v-3.2h-3.3v-3.3h-3.3v3.2h-3.3v-3.2h3.2v-3.3h-3.2v-6.6l0,0h3.4v-3.4l0,0h3.2v3.3
	c2.2,0,4.2,0,6.3,0c0.1,0,0.3-0.3,0.4-0.5c0-1.9,0-3.8,0-5.7c0-0.4-0.1-0.5-0.5-0.5c-0.9,0-1.9,0-2.8,0V300l0,0l5.7,0h0.9v-3.3h9.9
	l0,0c0,0.9,0.1,1.8,0,2.7c0,0.5,0.1,0.6,0.6,0.6c0.9,0,1.8,0,2.7,0l0,0v16.5h-6.6v3.3h-3.4v3.2h-3.3v-6.5h-3.3v9.9h6.5v3.3h-6.5
	v-3.4L338.5,326.3L338.5,326.3z M355,313.1c0-0.2,0.1-0.3,0.1-0.3c0-3,0-6.1,0-9.1c0-0.5-0.2-0.5-0.6-0.5c-2.9,0-5.8,0-8.7,0
	c-0.5,0-0.6,0.2-0.6,0.6c0,2.9,0,5.8,0,8.7c0,0.5,0.2,0.7,0.7,0.7c1.9,0,3.8,0,5.7,0L355,313.1z M331.9,313.1v3.2h3.2v-3.2H331.9z"
	/>
<path class="st8" d="M311.9,270h-23.1v-23.1h23.1V270z M308.5,266.5v-16.2h-16.2v16.2L308.5,266.5z"/>
<path class="st8" d="M371.7,270h-23.2v-23.1h23.2V270z M352,250.3v16.2h16.1v-16.2H352z"/>
<path class="st8" d="M288.9,306.5h23.1v23.1h-23.1V306.5z M308.5,326.2V310h-16.2v16.2H308.5z"/>
<path class="st8" d="M321.9,273.4v-6.6h-3.2v3.2h-3.3v-3.2h3.2l0.1-3.4h3.2v-9.9h-3.2v3.2h-3.3v-9.9h6.6v6.6h3.3v3.3h3.4v-6.5h3.3
	v3.3h3.3v6.6l0,0h-3.2c0-0.9,0-1.9-0.1-2.8c0-0.2-0.2-0.5-0.3-0.5c-1,0-2,0-3,0v3.3h-3.4v13.3L321.9,273.4L321.9,273.4z"/>
<path class="st8" d="M368.3,279.9c0.8,0,1.6,0.1,2.4,0.1h0.9v10h-3.3l0,0v-3.4H355v-3.3h3.3V280h-6.5v-3.3h3.2v-3.3h3.3v3.2h3.4
	v-3.2h9.9v3.3h-3.3L368.3,279.9c-0.2,0.1-0.5,0.1-0.7,0.1h-5.8v3.3h6.5L368.3,279.9z"/>
<path class="st8" d="M368.3,300v6.6l0,0h-6.5V300h-3.4v-3.4H355V290h-6.5v-3.3h6.5v3.3h3.4v3.3h6.6V290h3.3l0,0v3.2h3.3v6.6
	L368.3,300l0-3.4h-3.2v3.4H368.3z"/>
<path class="st8" d="M358.4,326.4h-6.5v-3.3h3.2v-3.3h9.9v-9.9h3.3l0,0v3.3h3.3v16.5h-3.3v-3.3h-6.6v-3.2h-3.3L358.4,326.4
	L358.4,326.4z"/>
<path class="st8" d="M335.2,273.4h6.7v-13.2h3.3v13.2h3.3v3.4h-6.5v3.3h3.2v3.3h-6.6v3.4l0,0h-3.4L335.2,273.4L335.2,273.4z"/>
<path class="st8" d="M338.5,286.6h6.6v6.6h-3.2v3.4h-3.3l0,0V286.6L338.5,286.6z"/>
<path class="st8" d="M311.9,299.9v3.2h-9.9v-3.2h3.3v-3.3l0,0h3.4v3.4L311.9,299.9L311.9,299.9z"/>
<path class="st8" d="M335.2,260.1h3.3v9.9h-3.3l0,0L335.2,260.1L335.2,260.1z"/>
<path class="st8" d="M338.5,326.3v3.4h-9.9v-3.3h9.1C338,326.4,338.3,326.4,338.5,326.3L338.5,326.3z"/>
<path class="st8" d="M341.9,246.9h3.2v9.9h-3.2V246.9z"/>
<path class="st8" d="M335.2,270v3.4l0,0h-3.3V270h-3.2v-3.2h3.3v3.2H335.2z"/>
<path class="st8" d="M315.3,299.9H312v-3.4h3.4L315.3,299.9L315.3,299.9z"/>
<path class="st8" d="M338.5,296.6v3.4l0,0h-3.4v-3.4L338.5,296.6L338.5,296.6z"/>
<path class="st8" d="M335.2,246.8h3.2v3.2h-3.2V246.8z"/>
<path class="st8" d="M292,283.2v3.4h-3.2v-3.3L292,283.2L292,283.2z"/>
<path class="st8" d="M368.3,306.6h3.4v3.3h-3.3l0,0C368.3,308.7,368.3,307.6,368.3,306.6L368.3,306.6z"/>
<path class="st8" d="M288.8,276.6v-3.3h3.2v3.3H288.8z"/>
<path class="st8" d="M318.7,263.4h-3.4v-3.2h3.4L318.7,263.4L318.7,263.4z"/>
<path class="st8" d="M315.4,326.4h3.2v3.2h-3.2V326.4z"/>
<path class="st8" d="M361.8,326.4v3.3h-3.4v-3.3L361.8,326.4L361.8,326.4z"/>
<path class="st8" d="M295.5,303.1v-3.2h3.2v3.2H295.5z"/>
<path class="st8" d="M325.2,283.3v-10h3.4v10H325.2z"/>
<path class="st8" d="M332,290h-3.4v-6.7h3.3c0,1.2,0,2.4,0,3.5S332,288.9,332,290z"/>
<path class="st8" d="M328.6,260h3.4v3.3h-3.4L328.6,260z"/>
<path class="st8" d="M335.2,299.9v3.2H332v-3.2H335.2z"/>
<path class="st8" d="M332,293.2V290h3.2v3.2L332,293.2z"/>
<path class="st8" d="M312,296.6h-3.2v-3.3h3.2V296.6z"/>
<path class="st8" d="M335.2,303.1h3.4v3.4h-3.4V303.1z"/>
<path class="st8" d="M351.8,306.5v3.2h-3.2v-3.2H351.8z"/>
<path class="st8" d="M305.4,253.5v9.8h-9.9v-9.8H305.4z"/>
<path class="st8" d="M365,263.4h-9.9v-9.9h9.9V263.4z"/>
<path class="st8" d="M305.3,313.2v9.8h-9.9v-9.9L305.3,313.2z"/>
</svg>
