<?xml version="1.0" encoding="utf-8"?>
<!-- Generator: Adobe Illustrator 23.1.1, SVG Export Plug-In . SVG Version: 6.00 Build 0)  -->
<svg version="1.1" id="Livello_1" xmlns="http://www.w3.org/2000/svg" xmlns:xlink="http://www.w3.org/1999/xlink" x="0px" y="0px"
	 viewBox="0 0 420 518.2" style="enable-background:new 0 0 420 518.2;" xml:space="preserve">
<style type="text/css">
	.st0{clip-path:url(#SVGID_2_);}
	.st1{clip-path:url(#SVGID_4_);fill:#E9EDD9;}
	.st2{clip-path:url(#SVGID_6_);fill:#F2F5EC;}
	.st3{clip-path:url(#SVGID_6_);fill:#2FF141;}
	.st4{clip-path:url(#SVGID_2_);fill:#2B4835;}
	.st5{clip-path:url(#SVGID_2_);fill:#2FF141;}
	.st6{clip-path:url(#SVGID_8_);fill:#E9EDD9;}
	.st7{clip-path:url(#SVGID_8_);fill:#2B4835;}
	.st8{clip-path:url(#SVGID_8_);fill:#2FF141;}
	.st9{clip-path:url(#SVGID_10_);fill:#F8F9F4;}
	.st10{clip-path:url(#SVGID_10_);}
	.st11{clip-path:url(#SVGID_12_);fill:#2B4835;}
	.st12{clip-path:url(#SVGID_10_);fill:#2B4835;}
	.st13{clip-path:url(#SVGID_14_);fill:#2B4835;}
	.st14{clip-path:url(#SVGID_16_);fill:#2B4835;}
	.st15{clip-path:url(#SVGID_18_);fill:#2B4835;}
	.st16{clip-path:url(#SVGID_20_);fill:#2B4835;}
</style>
<g>
	<g>
		<defs>
			<rect id="SVGID_1_" y="0.2" width="420" height="518"/>
		</defs>
		<clipPath id="SVGID_2_">
			<use xlink:href="#SVGID_1_"  style="overflow:visible;"/>
		</clipPath>
		<g class="st0">
			<defs>
				<rect id="SVGID_3_" y="0.2" width="420" height="518"/>
			</defs>
			<clipPath id="SVGID_4_">
				<use xlink:href="#SVGID_3_"  style="overflow:visible;"/>
			</clipPath>
			<path class="st1" d="M402.2,518.2H17.8c-9.8,0-17.8-8-17.8-17.8V19C0,9.2,8,1.2,17.8,1.1h384.3c9.8,0,17.8,8,17.8,17.9v481.3
				C420,510.2,412,518.1,402.2,518.2"/>
		</g>
		<g class="st0">
			<defs>
				<rect id="SVGID_5_" y="0.2" width="420" height="518"/>
			</defs>
			<clipPath id="SVGID_6_">
				<use xlink:href="#SVGID_5_"  style="overflow:visible;"/>
			</clipPath>
			<path class="st2" d="M420,288.1H0V16C0,7.2,7.2,0,16,0h388c8.8,0,16,7.2,16,16V288.1z"/>
			<path class="st3" d="M360,476.1h-43c-9.9,0-18-8.1-18-18s8.1-18,18-18h43c9.9,0,18,8.1,18,18S369.9,476.1,360,476.1"/>
		</g>
		<path class="st4" d="M331.6,452.6v9.8h-1.8l-3.9-6.3h-0.2v6.3h-1.8v-9.8h1.8l3.9,6.2h0.2v-6.2H331.6z"/>
		<path class="st4" d="M339.9,459.5h-5.1c0.2,1.1,1.1,1.5,1.8,1.5c1,0,1.4-0.6,1.4-0.6h1.8c-0.5,1.4-1.8,2.2-3.2,2.2
			c-1.9,0-3.5-1.4-3.5-3.6s1.6-3.5,3.5-3.5C338.3,455.4,340.1,456.6,339.9,459.5z M334.9,458.1h3.2c-0.2-0.8-0.8-1.2-1.5-1.2
			C335.8,456.9,335.1,457.3,334.9,458.1z"/>
		<path class="st4" d="M343.9,460.1h-0.2l-1.4,2.4h-2l2.3-3.6l-2.2-3.4h2l1.4,2.1h0.2l1.3-2.1h2l-2.2,3.4l2.3,3.6h-2L343.9,460.1z"
			/>
		<path class="st4" d="M353.6,461.9c0,0-0.6,0.6-1.7,0.6c-1.3,0-2.5-0.9-2.5-2.3V457H348v-1.4h0.7c0.5,0,0.8-0.3,0.8-0.8v-1.4h1.7
			v2.1h1.8v1.5h-1.8v3.1c0,0.5,0.4,0.8,0.9,0.8c0.4,0,0.8-0.2,0.8-0.2L353.6,461.9z"/>
		<path class="st4" d="M57.8,156.9c-1.4-3.2-2.8-6.4-4.3-9.6c-1.4-3.2-2.8-6.4-4.2-9.7c-0.4-1-0.9-2.1-1.3-3.1
			c-0.4-1-0.8-2.1-1.2-3.1c-0.4-1.1-0.8-2.1-1.2-3.2c0,0.4,0,0.7,0,1.1c0,0.4,0,0.7,0,1.1c0,1.2-0.1,2.5-0.1,4.2
			c0,1.6-0.1,3.3-0.2,5.2c-0.1,1.8-0.1,3.7-0.1,5.5s-0.1,3.6-0.1,5.2c0,0.7-0.1,1.4-0.1,2.1s-0.1,1.4-0.1,2c0.6,0,1.2-0.1,1.8-0.1
			s1.2-0.1,1.8-0.1v2.1h-9.2v-1.6c1,0,1.7-0.2,2.2-0.6c0.5-0.4,0.8-0.9,0.9-1.6c0.1-0.7,0.2-1.4,0.2-2.2l0.9-21.9
			c0-0.6,0.1-1.3,0.1-1.9s0-1.3,0.1-1.9c-0.6,0-1.2,0.1-1.7,0.1c-0.6,0-1.2,0-1.7,0.1v-2.1h7.3l8.3,19.1c0.4,1,0.8,1.9,1.2,2.9
			s0.8,1.9,1.2,2.9s0.9,1.9,1.3,2.9h0.1c0.4-0.9,0.8-1.9,1.2-3.1s0.9-2.2,1.2-3.1c1.4-3.5,2.9-7,4.4-10.6c1.5-3.5,3-7.2,4.5-11h7
			v1.6c-0.8,0-1.5,0.1-2,0.5c-0.5,0.3-0.9,0.9-1.1,1.7c-0.2,0.8-0.3,1.8-0.2,3.1l1.2,21.8C76,152,76,152.5,76,153s0,1,0,1.4
			c0.6,0,1.2-0.1,1.8-0.1c0.6,0,1.2,0,1.8-0.1v2.1H68.8v-1.6c1,0,1.7-0.3,2.2-0.7s0.8-1.1,0.9-1.9c0.1-0.8,0.1-1.9,0.1-3.1l-1-15.8
			c0-0.5-0.1-1-0.1-1.5s-0.1-1-0.1-1.5s-0.1-1-0.1-1.5c-0.1,0.2-0.2,0.5-0.3,0.7c-0.1,0.3-0.2,0.5-0.3,0.8l-10.8,26.7L57.8,156.9
			L57.8,156.9z"/>
		<path class="st4" d="M94.8,157.2c-2.2,0-4.3-0.5-6.1-1.6c-1.8-1-3.3-2.5-4.3-4.3c-1.1-1.8-1.6-3.9-1.6-6.3c0-2.5,0.5-4.8,1.6-6.8
			s2.5-3.6,4.3-4.8s3.9-1.8,6.1-1.8s4.3,0.5,6.1,1.6c1.8,1.1,3.3,2.5,4.4,4.3s1.6,3.9,1.6,6.2c0,2.5-0.5,4.7-1.6,6.7
			s-2.5,3.6-4.3,4.8C99.1,156.6,97.1,157.2,94.8,157.2z M95.2,155.2c1.7,0,3-0.5,4-1.4c1-1,1.7-2.2,2.1-3.7s0.6-3.2,0.6-4.8
			c0-1.4-0.1-2.9-0.4-4.2c-0.3-1.4-0.7-2.7-1.3-3.8c-0.6-1.1-1.3-2-2.2-2.7c-0.9-0.7-2-1-3.3-1c-1.7,0-3,0.5-4.1,1.4
			s-1.8,2.2-2.3,3.7s-0.7,3.2-0.7,4.9c0,2,0.3,3.9,0.8,5.6c0.5,1.8,1.4,3.2,2.5,4.3S93.5,155.2,95.2,155.2z"/>
		<path class="st4" d="M112.5,126.4c0-0.5,0-1,0-1.5s0.1-1,0.1-1.7c-0.6,0-1.1,0.1-1.7,0.1s-1.1,0.1-1.7,0.1v-2
			c1.4,0,2.5-0.1,3.3-0.2s1.4-0.3,1.8-0.5s0.7-0.4,0.9-0.6h1.4v14.3c0.9-0.9,2-1.6,3.2-2.1s2.6-0.7,4.1-0.7c2,0,3.9,0.5,5.5,1.5
			c1.6,1,3,2.4,3.9,4.2c1,1.8,1.4,4,1.4,6.5c0,2.7-0.6,5.1-1.8,7.1s-2.7,3.5-4.6,4.6c-1.9,1.1-3.9,1.6-6.1,1.6
			c-1.1,0-2.3-0.2-3.6-0.6c-1.3-0.4-2.5-1.2-3.5-2.3l-1.2,2.2h-1.7L112.5,126.4z M116.7,148.9c0,1.7,0.3,3,0.8,3.9s1.2,1.5,2.1,1.9
			s1.8,0.5,2.7,0.5c1.5,0,2.9-0.4,4-1.3s2-2.1,2.6-3.6s0.9-3.3,0.9-5.3c0-2.2-0.3-4.1-0.8-5.7c-0.5-1.6-1.4-2.9-2.4-3.9
			c-1.1-0.9-2.5-1.4-4.1-1.4c-1.1,0-2.1,0.2-3.1,0.7s-1.9,1.2-2.7,2C116.7,136.7,116.7,148.9,116.7,148.9z"/>
		<path class="st4" d="M138.9,154.9c1,0,1.7-0.2,2.1-0.7c0.4-0.5,0.6-1.2,0.7-2.1c0.1-0.9,0.1-1.9,0.1-3v-10.9c0-0.5,0-1,0-1.5
			s0.1-1,0.1-1.7c-0.6,0-1.1,0.1-1.7,0.1c-0.6,0-1.1,0.1-1.7,0.1v-2c1.4,0,2.5-0.1,3.3-0.2c0.8-0.1,1.4-0.3,1.8-0.5
			c0.4-0.2,0.7-0.4,0.9-0.6h1.4v19.4c0,0.6,0,1.2,0,1.7s-0.1,1-0.2,1.6c0.5,0,1-0.1,1.5-0.1s1,0,1.5-0.1v2h-9.8L138.9,154.9
			L138.9,154.9z M143.6,127.2c-0.7,0-1.3-0.3-1.8-0.8s-0.8-1.2-0.8-2s0.3-1.5,0.8-2c0.5-0.6,1.1-0.8,1.8-0.8s1.4,0.3,1.8,0.8
			c0.5,0.6,0.7,1.2,0.7,2s-0.3,1.5-0.8,2C144.9,126.9,144.3,127.2,143.6,127.2z"/>
		<path class="st4" d="M151.9,154.9c1,0,1.7-0.2,2.1-0.7c0.4-0.5,0.6-1.2,0.7-2.1c0.1-0.9,0.1-1.9,0.1-3v-22.7c0-0.5,0-1,0-1.5
			s0.1-1,0.1-1.7c-0.6,0-1.1,0.1-1.7,0.1c-0.6,0-1.1,0.1-1.7,0.1v-2c1.4,0,2.5-0.1,3.3-0.2s1.4-0.3,1.8-0.5c0.4-0.2,0.7-0.4,0.9-0.6
			h1.4v31.2c0,0.6,0,1.2,0,1.7s-0.1,1-0.2,1.6c0.5,0,1-0.1,1.5-0.1s1,0,1.5-0.1v2h-9.8L151.9,154.9L151.9,154.9z"/>
		<path class="st4" d="M177.1,157.2c-2.2,0-4.2-0.5-6-1.6s-3.2-2.5-4.2-4.4s-1.5-4.2-1.5-6.7c0-2.2,0.5-4.3,1.5-6.3s2.4-3.5,4.2-4.7
			s3.9-1.8,6.3-1.8c1.3,0,2.6,0.2,3.8,0.6c1.2,0.4,2.2,1.1,3.1,2c0.9,0.9,1.6,2,2.1,3.3s0.8,2.9,0.8,4.7l-16.9,0.3
			c0,2.4,0.3,4.6,0.8,6.4c0.5,1.8,1.4,3.3,2.6,4.3c1.2,1,2.7,1.5,4.6,1.5c1,0,2-0.2,3-0.5c1-0.4,2-0.8,2.9-1.4
			c0.9-0.6,1.6-1.3,2.2-2l1.2,1c-0.9,1.3-1.9,2.4-3.1,3.2c-1.2,0.8-2.5,1.4-3.7,1.7C179.4,157,178.2,157.2,177.1,157.2z
			 M170.5,140.5h12.2c0-1.2-0.2-2.3-0.5-3.3s-0.9-2-1.7-2.6c-0.8-0.7-1.8-1-3-1c-1.9,0-3.4,0.6-4.6,1.7
			C171.7,136.3,170.9,138,170.5,140.5z"/>
		<path class="st5" d="M231.5,122.8v33.6h-6l-15.8-26.7h-0.5v26.7H205v-33.6h5.4l16.3,27.4h0.6v-27.4
			C227.3,122.8,231.5,122.8,231.5,122.8z"/>
		<path class="st5" d="M254.6,132.4v24h-2.8l-0.8-2.5h-0.6c-1.1,1.2-3.1,2.8-6.7,2.8c-6.2,0-9.2-4.6-9.2-11.2v-13h4.2V144
			c0,4.4,0.9,9,5.8,9c3.6,0,5.9-2.5,5.9-7.9v-12.7L254.6,132.4L254.6,132.4z"/>
		<path class="st5" d="M293.5,143.4v13h-4.2v-11.6c0-4.7-0.6-9-4.7-9c-3,0-5.7,2.4-5.8,6.6v14h-4.2v-11.6c0-4.7-0.6-9-4.7-9
			c-3.1,0-5.8,2.5-5.8,6.9v13.7h-4.2v-24h2.8l0.8,2.7h0.7c0.9-1.1,3-2.9,6.1-2.9c3.2,0,5.3,1.9,6.7,3.8h0.8c1.3-1.8,3.6-3.8,7.3-3.8
			C290.7,132.1,293.5,136.8,293.5,143.4z"/>
		<path class="st5" d="M321.4,144.4c0,7.2-5,12.2-11.1,12.2c-3.2,0-5.4-1.3-7-3.3h-0.7l-0.9,3.1H299v-34.1h4.1v13.6
			c1.5-2.3,3.9-3.7,7.2-3.7C316.4,132.1,321.4,137.1,321.4,144.4z M317.2,144.4c0-5.2-3.6-8.3-7.2-8.3c-3.2,0-6.9,2.4-6.9,8.3
			s3.7,8.3,6.9,8.3C313.6,152.7,317.2,149.6,317.2,144.4z"/>
		<path class="st5" d="M347,145.5h-18.1c0.4,4.5,3.2,7.2,7.3,7.2c2.7,0,4.8-1.2,5.9-3.1h4.4c-1.8,4.4-6,7-10.3,7
			c-6,0-11.4-4.9-11.4-12.4c0-7.4,5.4-12,11.4-12C341.9,132.1,347.5,136.4,347,145.5z M329.1,142h13.6c-0.6-3.7-3-6.3-6.6-6.3
			S329.8,138.1,329.1,142z"/>
		<path class="st5" d="M363.5,132.1v4.1c-0.5-0.1-1.3-0.2-2-0.2c-3.1,0-6.1,1.7-6.1,6.1v14.2h-4.2v-24h2.8l0.8,2.7h0.7
			c0.9-1.1,2.9-2.9,6.5-2.9L363.5,132.1L363.5,132.1z"/>
		<path class="st4" d="M47.8,101.8c0,1.9-1.4,3.2-3,3.2h-2v3.6H41v-9.8h3.7C46.4,98.8,47.8,99.8,47.8,101.8z M46,101.8
			c0-0.8-0.5-1.3-1.3-1.3h-1.8v2.7h1.8C45.5,103.2,46,102.6,46,101.8z"/>
		<path class="st4" d="M51.2,98.6v9.9h-1.8v-9.9H51.2z"/>
		<path class="st4" d="M59.4,105.6h-5.1c0.2,1.1,1.1,1.5,1.8,1.5c1,0,1.4-0.6,1.4-0.6h1.8c-0.5,1.4-1.8,2.2-3.2,2.2
			c-1.9,0-3.5-1.4-3.5-3.6s1.6-3.5,3.5-3.5C57.8,101.5,59.6,102.8,59.4,105.6z M54.4,104.2h3.2c-0.2-0.8-0.8-1.2-1.5-1.2
			C55.3,103,54.7,103.5,54.4,104.2z"/>
		<path class="st4" d="M67.3,107.2v1.3h-0.4c-0.8,0-1.4-0.3-1.6-0.9c-0.4,0.6-1.1,1-2.2,1c-1.6,0-2.6-0.8-2.6-2.1
			c0-2.2,3-2.4,4.3-2.5c0-0.8-0.5-1.1-1.2-1.1c-1,0-1.1,0.6-1.1,0.6h-1.8c0.1-1.2,1.1-2.1,2.9-2.1c1.7,0,2.8,0.8,2.8,2.9v1.9
			C66.5,107,66.8,107.2,67.3,107.2z M64.8,105.6L64.8,105.6c-1.3,0-2.5,0.2-2.5,0.9C62.2,107.6,64.7,107.5,64.8,105.6z"/>
		<path class="st4" d="M71,103c-0.6,0-0.8,0.3-0.8,0.6c0,0.5,0.6,0.6,1.1,0.7c1.2,0.3,2.5,0.6,2.5,2.1c0,1.4-1.2,2.2-2.6,2.2
			c-1.6,0-2.9-1-2.9-2.5H70c0,0.4,0.3,1,1.2,1c0.7,0,0.9-0.4,0.9-0.7c0-0.5-0.5-0.7-1-0.8c-0.8-0.2-2.6-0.5-2.6-2.1
			c0-1.4,1.3-2.1,2.7-2.1c1.6,0,2.6,1,2.7,2.1H72C71.9,103.4,71.7,103,71,103z"/>
		<path class="st4" d="M81.6,105.6h-5.1c0.2,1.1,1.1,1.5,1.8,1.5c1,0,1.4-0.6,1.4-0.6h1.8c-0.5,1.4-1.8,2.2-3.2,2.2
			c-1.9,0-3.5-1.4-3.5-3.6s1.6-3.5,3.5-3.5C80,101.5,81.8,102.8,81.6,105.6z M76.6,104.2h3.2c-0.2-0.8-0.8-1.2-1.5-1.2
			C77.5,103,76.9,103.5,76.6,104.2z"/>
		<path class="st4" d="M93.4,105.6h-5.1c0.2,1.1,1.1,1.5,1.8,1.5c1,0,1.4-0.6,1.4-0.6h1.8c-0.5,1.4-1.8,2.2-3.2,2.2
			c-1.9,0-3.5-1.4-3.5-3.6s1.6-3.5,3.5-3.5C91.8,101.5,93.6,102.8,93.4,105.6z M88.4,104.2h3.2c-0.2-0.8-0.8-1.2-1.5-1.2
			C89.3,103,88.7,103.5,88.4,104.2z"/>
		<path class="st4" d="M101.5,104.8v3.8h-1.9v-3.4c0-0.2,0.2-2-1.2-2.1c-0.7,0-1.8,0.3-1.8,2.2v3.3h-1.8v-7h1.4l0.2,0.9h0.2
			c0.3-0.4,1-0.9,2.1-0.9C100.6,101.5,101.5,102.9,101.5,104.8z"/>
		<path class="st4" d="M107.9,108.1c0,0-0.6,0.6-1.7,0.6c-1.3,0-2.5-0.9-2.5-2.3v-3.2h-1.4v-1.4h0.7c0.5,0,0.8-0.3,0.8-0.8v-1.4h1.7
			v2.1h1.8v1.5h-1.8v3.1c0,0.5,0.4,0.8,0.9,0.8c0.4,0,0.8-0.2,0.8-0.2L107.9,108.1z"/>
		<path class="st4" d="M115.3,105.6h-5.1c0.2,1.1,1.1,1.5,1.8,1.5c1,0,1.4-0.6,1.4-0.6h1.8c-0.5,1.4-1.8,2.2-3.2,2.2
			c-1.9,0-3.5-1.4-3.5-3.6s1.6-3.5,3.5-3.5C113.7,101.5,115.5,102.8,115.3,105.6z M110.3,104.2h3.2c-0.2-0.8-0.8-1.2-1.5-1.2
			C111.2,103,110.6,103.5,110.3,104.2z"/>
		<path class="st4" d="M121.1,101.5v1.8c-0.1,0-0.4-0.1-0.6-0.1c-1,0-2,0.5-2,1.8v3.5h-1.9v-7h1.4l0.3,0.8h0.2
			c0.3-0.3,1-0.8,2.1-0.8C120.6,101.5,121.1,101.5,121.1,101.5z"/>
		<path class="st4" d="M132.9,101.6l-2.4,7.3c-0.4,1.2-0.9,2.6-3,2.6c-1.3,0-1.9-0.5-2.1-0.8l0.9-1.2c0.1,0.1,0.5,0.4,1.1,0.4
			s1-0.2,1.1-0.7l0.2-0.6h-0.9l-2.4-7h1.9l1.8,5.1h0.3l1.7-5.1C131.1,101.6,132.9,101.6,132.9,101.6z"/>
		<path class="st4" d="M133.4,105.1c0-2.2,1.7-3.6,3.6-3.6c1.9,0,3.5,1.4,3.5,3.6s-1.7,3.6-3.6,3.6
			C135,108.7,133.4,107.3,133.4,105.1z M138.7,105.1c0-1.1-0.6-1.9-1.7-1.9s-1.8,0.9-1.8,1.9s0.7,1.9,1.8,1.9
			S138.7,106.2,138.7,105.1z"/>
		<path class="st4" d="M148.1,101.6v7h-1.4l-0.3-0.8h-0.2c-0.3,0.3-0.9,0.9-2,0.9c-1.9,0-2.8-1.3-2.8-3.3v-3.8h1.9v3.4
			c0,0.9,0.1,2.1,1.3,2.1c0.6,0,1.6-0.3,1.6-2.2v-3.3C146.2,101.6,148.1,101.6,148.1,101.6z"/>
		<path class="st4" d="M154.4,101.5v1.8c-0.1,0-0.4-0.1-0.6-0.1c-1,0-2,0.5-2,1.8v3.5h-1.9v-7h1.4l0.3,0.8h0.2
			c0.3-0.3,1-0.8,2.1-0.8C153.9,101.5,154.4,101.5,154.4,101.5z"/>
		<path class="st4" d="M44.9,207.7l-2.7-9.2h1.2l2.3,8.2l2.2-8.2h1.3l2.2,8.2l2.3-8.2h1.1l-2.7,9.2h-1.4l-1.6-6l-0.5-2.1l0,0
			l-0.5,2.1l-1.6,6H44.9z"/>
		<path class="st4" d="M58.5,207.9c-0.7,0-1.3-0.1-1.8-0.4s-0.9-0.7-1.2-1.3c-0.3-0.5-0.4-1.2-0.4-2s0.1-1.4,0.4-2
			c0.3-0.5,0.7-1,1.2-1.3s1.1-0.4,1.7-0.4c0.7,0,1.2,0.1,1.7,0.4c0.5,0.3,0.8,0.7,1.1,1.1c0.2,0.5,0.4,1,0.4,1.6c0,0.2,0,0.3,0,0.4
			c0,0.1,0,0.2,0,0.4h-5.7v-1H61l-0.6,0.1c0-0.7-0.2-1.2-0.6-1.6c-0.4-0.4-0.9-0.5-1.4-0.5s-0.9,0.1-1.2,0.3s-0.6,0.5-0.8,0.9
			s-0.3,0.9-0.3,1.4c0,0.6,0.1,1,0.3,1.4s0.5,0.7,0.8,0.9s0.7,0.3,1.2,0.3s0.9-0.1,1.3-0.3c0.3-0.2,0.6-0.5,0.8-0.8l0.9,0.5
			c-0.2,0.3-0.4,0.6-0.7,0.8s-0.6,0.4-1,0.5S58.9,207.9,58.5,207.9z"/>
		<path class="st4" d="M76.1,200.7h1.2l-2.4,7h-1.1l-2-5.6l-1.9,5.6h-1.1l-2.4-7h1.2l1.8,5.7l1.9-5.7h1.1l1.9,5.7L76.1,200.7z"/>
		<path class="st4" d="M79.1,199.4c-0.3,0-0.5-0.1-0.6-0.2c-0.2-0.2-0.2-0.4-0.2-0.6s0.1-0.5,0.2-0.6c0.2-0.2,0.4-0.2,0.6-0.2
			s0.5,0.1,0.6,0.2c0.2,0.2,0.2,0.4,0.2,0.6s-0.1,0.5-0.2,0.6S79.4,199.4,79.1,199.4z M79.7,200.7v7h-1.1v-7H79.7z"/>
		<path class="st4" d="M82.9,197.5v8.4c0,0.4,0.1,0.6,0.2,0.7c0.1,0.1,0.3,0.2,0.6,0.2c0.2,0,0.3,0,0.5,0c0.1,0,0.3-0.1,0.5-0.2
			l-0.2,1c-0.1,0.1-0.3,0.1-0.5,0.1s-0.4,0-0.5,0c-0.6,0-1-0.2-1.3-0.5s-0.4-0.8-0.4-1.4v-8.5h1.1V197.5z"/>
		<path class="st4" d="M86.8,197.5v8.4c0,0.4,0.1,0.6,0.2,0.7c0.1,0.1,0.3,0.2,0.6,0.2c0.2,0,0.3,0,0.5,0c0.1,0,0.3-0.1,0.5-0.2
			l-0.2,1c-0.1,0.1-0.3,0.1-0.5,0.1s-0.4,0-0.5,0c-0.6,0-1-0.2-1.3-0.5s-0.4-0.8-0.4-1.4v-8.5h1.1V197.5z"/>
		<path class="st4" d="M96,207.9c-0.7,0-1.3-0.1-1.9-0.4c-0.6-0.3-1-0.7-1.3-1.2l1-0.7c0.2,0.4,0.5,0.8,0.9,1s0.9,0.4,1.4,0.4
			s0.9-0.1,1.2-0.3c0.3-0.2,0.4-0.4,0.4-0.7c0-0.2-0.1-0.4-0.2-0.5s-0.4-0.3-0.7-0.4l-1.7-0.3c-0.7-0.1-1.2-0.4-1.5-0.7
			s-0.4-0.7-0.4-1.2c0-0.4,0.1-0.7,0.3-1c0.2-0.3,0.5-0.6,0.9-0.8s0.9-0.3,1.4-0.3c0.7,0,1.3,0.1,1.8,0.4c0.5,0.3,0.8,0.7,1.1,1.1
			l-0.9,0.6c-0.2-0.4-0.4-0.7-0.8-0.9s-0.7-0.3-1.1-0.3c-0.3,0-0.6,0-0.9,0.1c-0.2,0.1-0.4,0.2-0.5,0.4s-0.2,0.3-0.2,0.6
			s0.1,0.4,0.2,0.6s0.4,0.3,0.8,0.4L97,204c0.7,0.1,1.1,0.3,1.4,0.6s0.4,0.7,0.4,1.1c0,0.4-0.1,0.8-0.4,1.2s-0.6,0.6-1,0.8
			C97,207.8,96.5,207.9,96,207.9z"/>
		<path class="st4" d="M103.4,207.9c-0.7,0-1.3-0.1-1.8-0.4s-0.9-0.7-1.2-1.3c-0.3-0.5-0.4-1.2-0.4-2s0.1-1.4,0.4-2
			c0.3-0.5,0.7-1,1.2-1.3s1.1-0.4,1.7-0.4c0.7,0,1.2,0.1,1.7,0.4c0.5,0.3,0.8,0.7,1.1,1.1c0.2,0.5,0.4,1,0.4,1.6c0,0.2,0,0.3,0,0.4
			c0,0.1,0,0.2,0,0.4h-5.7v-1h5.2l-0.6,0.1c0-0.7-0.2-1.2-0.6-1.6c-0.4-0.4-0.9-0.5-1.4-0.5s-0.9,0.1-1.2,0.3
			c-0.3,0.2-0.6,0.5-0.8,0.9c-0.2,0.4-0.3,0.9-0.3,1.4c0,0.6,0.1,1,0.3,1.4c0.2,0.4,0.5,0.7,0.8,0.9s0.7,0.3,1.2,0.3
			s0.9-0.1,1.3-0.3c0.3-0.2,0.6-0.5,0.8-0.8l0.9,0.5c-0.2,0.3-0.4,0.6-0.7,0.8c-0.3,0.2-0.6,0.4-1,0.5S103.8,207.9,103.4,207.9z"/>
		<path class="st4" d="M108.1,207.7v-7h1l0.1,1.6l-0.2-0.2c0.1-0.4,0.3-0.7,0.6-0.9c0.3-0.2,0.5-0.4,0.9-0.5c0.3-0.1,0.7-0.2,1-0.2
			c0.5,0,1,0.1,1.4,0.3s0.7,0.5,1,0.9c0.2,0.4,0.4,0.9,0.4,1.5v4.5h-1.1v-4.1c0-0.8-0.2-1.3-0.5-1.6s-0.7-0.5-1.2-0.5
			c-0.3,0-0.7,0.1-1,0.2c-0.3,0.2-0.6,0.4-0.8,0.8c-0.2,0.4-0.3,0.8-0.3,1.4v3.7h-1.3V207.7z"/>
		<path class="st4" d="M119.1,207.9c-0.6,0-1.1-0.1-1.6-0.4s-0.9-0.7-1.2-1.3c-0.3-0.5-0.4-1.2-0.4-2s0.2-1.4,0.5-2
			c0.3-0.5,0.7-1,1.2-1.2s1-0.4,1.6-0.4s1.1,0.1,1.5,0.4c0.4,0.3,0.7,0.7,0.8,1.2l-0.1,0.1v-4.8h1.1v10.2h-1l-0.1-1.7l0.2-0.1
			c-0.1,0.4-0.2,0.8-0.5,1c-0.2,0.3-0.6,0.5-0.9,0.7S119.5,207.9,119.1,207.9z M119.2,206.9c0.4,0,0.8-0.1,1.2-0.3
			c0.3-0.2,0.6-0.5,0.8-1s0.3-0.9,0.3-1.5c0-0.5-0.1-1-0.3-1.4s-0.4-0.7-0.8-0.9c-0.3-0.2-0.7-0.3-1.1-0.3c-0.7,0-1.3,0.2-1.7,0.7
			s-0.6,1.1-0.6,1.9s0.2,1.4,0.6,1.9C118,206.7,118.5,206.9,119.2,206.9z"/>
		<path class="st4" d="M134.5,200.7l-3.3,8.2c-0.2,0.5-0.4,0.8-0.6,1.1c-0.2,0.3-0.4,0.5-0.7,0.6s-0.6,0.2-0.9,0.2
			c-0.3,0-0.6,0-0.9-0.1c-0.3-0.1-0.5-0.2-0.7-0.4l0.3-1c0.2,0.2,0.4,0.3,0.6,0.4s0.4,0.1,0.6,0.1c0.2,0,0.5-0.1,0.7-0.2
			c0.2-0.1,0.4-0.5,0.6-0.9l0.4-0.9l-0.7-1.7l-2.2-5.3h1.3l1.8,4.6l0.4,1.2l0.5-1.4l1.6-4.4h1.2V200.7z"/>
		<path class="st4" d="M138.5,200.6c0.7,0,1.2,0.1,1.8,0.4s0.9,0.7,1.2,1.3c0.3,0.5,0.4,1.2,0.4,2s-0.1,1.4-0.4,2
			c-0.3,0.5-0.7,1-1.2,1.3s-1.1,0.4-1.8,0.4s-1.2-0.1-1.8-0.4c-0.5-0.3-0.9-0.7-1.2-1.3c-0.3-0.5-0.4-1.2-0.4-2s0.1-1.4,0.4-2
			c0.3-0.5,0.7-1,1.2-1.3S137.8,200.6,138.5,200.6z M138.5,201.6c-0.5,0-0.9,0.1-1.2,0.3s-0.6,0.5-0.8,0.9s-0.3,0.9-0.3,1.4
			c0,0.6,0.1,1,0.3,1.4s0.4,0.7,0.8,0.9c0.3,0.2,0.7,0.3,1.2,0.3s0.9-0.1,1.2-0.3s0.6-0.5,0.8-0.9s0.3-0.9,0.3-1.4
			c0-0.6-0.1-1-0.3-1.4s-0.4-0.7-0.8-0.9S138.9,201.6,138.5,201.6z"/>
		<path class="st4" d="M146.1,207.9c-0.4,0-0.9-0.1-1.3-0.3c-0.4-0.2-0.7-0.4-1-0.8c-0.2-0.4-0.4-0.9-0.4-1.5v-4.6h1.1v4.3
			c0,0.7,0.2,1.2,0.5,1.5s0.7,0.4,1.3,0.4c0.3,0,0.5,0,0.8-0.1s0.5-0.2,0.7-0.4s0.4-0.4,0.5-0.7s0.2-0.7,0.2-1.1v-3.8h1.1v7h-1
			l-0.1-1.1c-0.2,0.4-0.6,0.7-1,0.9C147.1,207.8,146.6,207.9,146.1,207.9z"/>
		<path class="st4" d="M160.3,203.2c0-0.5-0.1-0.9-0.4-1.2c-0.3-0.3-0.7-0.4-1.2-0.4s-0.9,0.1-1.2,0.3s-0.6,0.5-0.7,1l-0.9-0.6
			c0.2-0.5,0.5-0.9,1-1.3c0.5-0.3,1.1-0.5,1.9-0.5c0.5,0,1,0.1,1.4,0.3s0.7,0.4,1,0.8c0.2,0.3,0.4,0.8,0.4,1.4v3.4
			c0,0.3,0.2,0.5,0.5,0.5c0.2,0,0.4,0,0.5-0.1l-0.1,0.9c-0.2,0.1-0.4,0.1-0.7,0.1s-0.5-0.1-0.7-0.2s-0.4-0.3-0.5-0.5
			s-0.2-0.5-0.2-0.8v-0.1h0.3c-0.1,0.4-0.3,0.7-0.6,0.9s-0.6,0.4-0.9,0.5c-0.3,0.1-0.7,0.2-1,0.2c-0.4,0-0.8-0.1-1.1-0.2
			c-0.4-0.1-0.6-0.4-0.8-0.6c-0.2-0.3-0.3-0.6-0.3-1.1s0.2-1,0.5-1.3s0.8-0.6,1.5-0.7l2.8-0.5v0.9l-2.3,0.5c-0.5,0.1-0.8,0.2-1,0.4
			s-0.3,0.4-0.3,0.7s0.1,0.5,0.3,0.7s0.6,0.3,1,0.3c0.3,0,0.5,0,0.8-0.1c0.2-0.1,0.5-0.2,0.7-0.3s0.4-0.3,0.5-0.5s0.2-0.5,0.2-0.8
			v-2H160.3z"/>
		<path class="st4" d="M170.9,198.4c0.8,0,1.5,0.2,2.1,0.5s1.1,0.8,1.5,1.5l-0.9,0.7c-0.3-0.6-0.7-1-1.2-1.3s-1-0.4-1.6-0.4
			c-0.5,0-0.9,0.1-1.2,0.2c-0.3,0.1-0.6,0.3-0.7,0.6c-0.1,0.2-0.2,0.5-0.2,0.8s0.1,0.6,0.3,0.9c0.2,0.2,0.6,0.4,1.2,0.6l2,0.4
			c0.9,0.2,1.5,0.5,1.9,0.9s0.5,0.9,0.5,1.5c0,0.5-0.1,1-0.4,1.4c-0.3,0.4-0.7,0.7-1.2,0.9s-1.2,0.3-1.9,0.3s-1.3-0.1-1.8-0.3
			s-0.9-0.4-1.3-0.7c-0.4-0.3-0.7-0.7-0.9-1l1-0.8c0.2,0.4,0.4,0.7,0.7,0.9c0.3,0.3,0.6,0.5,1,0.6s0.9,0.2,1.4,0.2s0.9-0.1,1.2-0.2
			c0.3-0.1,0.6-0.3,0.8-0.5s0.3-0.5,0.3-0.8s-0.1-0.6-0.3-0.8s-0.6-0.4-1.1-0.5l-2.2-0.5c-0.6-0.1-1-0.3-1.4-0.5s-0.6-0.5-0.8-0.8
			s-0.2-0.7-0.2-1c0-0.5,0.1-1,0.4-1.4c0.3-0.4,0.7-0.7,1.2-1S170.2,198.4,170.9,198.4z"/>
		<path class="st4" d="M179.2,207.9c-0.7,0-1.3-0.1-1.8-0.4s-0.9-0.7-1.2-1.3c-0.3-0.5-0.4-1.2-0.4-2s0.1-1.4,0.4-2
			c0.3-0.5,0.7-1,1.2-1.3s1.1-0.4,1.7-0.4c0.7,0,1.2,0.1,1.7,0.4c0.5,0.3,0.8,0.7,1.1,1.1c0.2,0.5,0.4,1,0.4,1.6c0,0.2,0,0.3,0,0.4
			c0,0.1,0,0.2,0,0.4h-5.7v-1h5.2l-0.6,0.1c0-0.7-0.2-1.2-0.6-1.6c-0.4-0.4-0.9-0.5-1.4-0.5s-0.9,0.1-1.2,0.3s-0.6,0.5-0.8,0.9
			s-0.3,0.9-0.3,1.4c0,0.6,0.1,1,0.3,1.4s0.5,0.7,0.8,0.9s0.7,0.3,1.2,0.3s0.9-0.1,1.3-0.3c0.3-0.2,0.6-0.5,0.8-0.8l0.9,0.5
			c-0.2,0.3-0.4,0.6-0.7,0.8s-0.6,0.4-1,0.5S179.6,207.9,179.2,207.9z"/>
		<path class="st4" d="M186.9,200.6c0.5,0,0.9,0.1,1.3,0.2s0.7,0.4,1,0.6c0.3,0.3,0.5,0.6,0.7,1l-1.1,0.5c-0.1-0.4-0.4-0.8-0.7-1
			s-0.7-0.4-1.2-0.4s-0.9,0.1-1.2,0.3s-0.6,0.5-0.8,0.9s-0.3,0.9-0.3,1.4c0,0.6,0.1,1,0.3,1.4s0.4,0.7,0.8,0.9
			c0.3,0.2,0.7,0.3,1.2,0.3c0.4,0,0.7-0.1,0.9-0.2c0.3-0.1,0.5-0.3,0.7-0.5s0.3-0.5,0.4-0.8l1,0.4c-0.2,0.4-0.4,0.8-0.7,1.1
			s-0.6,0.5-1,0.7s-0.8,0.2-1.3,0.2c-0.7,0-1.2-0.1-1.8-0.4c-0.5-0.3-0.9-0.7-1.2-1.3c-0.3-0.5-0.4-1.2-0.4-2s0.1-1.4,0.4-2
			c0.3-0.5,0.7-1,1.2-1.3C185.6,200.7,186.2,200.6,186.9,200.6z"/>
		<path class="st4" d="M191.4,207.7v-7h0.9l0.2,1.1c0.2-0.4,0.5-0.8,0.9-1s0.8-0.3,1.4-0.3c0.1,0,0.3,0,0.4,0c0.1,0,0.3,0.1,0.4,0.1
			l-0.2,1c-0.1,0-0.2-0.1-0.3-0.1s-0.3,0-0.5,0c-0.3,0-0.6,0.1-0.9,0.3s-0.5,0.4-0.7,0.8c-0.2,0.3-0.3,0.8-0.3,1.3v3.8L191.4,207.7
			L191.4,207.7z"/>
		<path class="st4" d="M199.4,207.9c-0.7,0-1.3-0.1-1.8-0.4s-0.9-0.7-1.2-1.3c-0.3-0.5-0.4-1.2-0.4-2s0.1-1.4,0.4-2
			c0.3-0.5,0.7-1,1.2-1.3s1.1-0.4,1.7-0.4c0.7,0,1.2,0.1,1.7,0.4c0.5,0.3,0.8,0.7,1.1,1.1c0.2,0.5,0.4,1,0.4,1.6c0,0.2,0,0.3,0,0.4
			c0,0.1,0,0.2,0,0.4h-5.7v-1h5.2l-0.6,0.1c0-0.7-0.2-1.2-0.6-1.6c-0.4-0.4-0.9-0.5-1.4-0.5s-0.9,0.1-1.2,0.3s-0.6,0.5-0.8,0.9
			s-0.3,0.9-0.3,1.4c0,0.6,0.1,1,0.3,1.4s0.5,0.7,0.8,0.9s0.7,0.3,1.2,0.3s0.9-0.1,1.3-0.3c0.3-0.2,0.6-0.5,0.8-0.8l0.9,0.5
			c-0.2,0.3-0.4,0.6-0.7,0.8s-0.6,0.4-1,0.5S199.8,207.9,199.4,207.9z"/>
		<path class="st4" d="M208.1,200.7v1H203v-1H208.1z M205.6,198.8v7.1c0,0.3,0.1,0.6,0.3,0.8s0.4,0.3,0.8,0.3c0.3,0,0.5,0,0.7-0.1
			s0.4-0.2,0.5-0.4l0.4,0.9c-0.2,0.2-0.5,0.4-0.8,0.5s-0.6,0.2-1,0.2s-0.7-0.1-1-0.2s-0.6-0.3-0.7-0.6c-0.2-0.3-0.3-0.6-0.3-1.1
			v-6.9L205.6,198.8z"/>
		<path class="st4" d="M221.4,205.4c-0.2,0.5-0.5,1-0.8,1.4c-0.4,0.4-0.8,0.7-1.3,0.9s-1,0.3-1.6,0.3c-0.9,0-1.6-0.2-2.3-0.6
			c-0.6-0.4-1.1-0.9-1.5-1.6c-0.3-0.7-0.5-1.6-0.5-2.5c0-1,0.2-1.8,0.5-2.5c0.4-0.7,0.8-1.3,1.5-1.6c0.6-0.4,1.4-0.6,2.2-0.6
			c0.6,0,1.1,0.1,1.6,0.2s0.9,0.4,1.2,0.7s0.6,0.7,0.8,1.2l-1.1,0.5c-0.2-0.5-0.5-0.9-0.9-1.2s-0.9-0.4-1.5-0.4s-1.2,0.1-1.7,0.4
			c-0.5,0.3-0.8,0.7-1.1,1.3s-0.4,1.2-0.4,2s0.1,1.4,0.4,2s0.6,1,1.1,1.3s1,0.4,1.7,0.4c0.6,0,1.2-0.2,1.6-0.5s0.8-0.8,1-1.4
			L221.4,205.4z"/>
		<path class="st4" d="M225.8,200.6c0.7,0,1.2,0.1,1.8,0.4s0.9,0.7,1.2,1.3c0.3,0.5,0.4,1.2,0.4,2s-0.1,1.4-0.4,2
			c-0.3,0.5-0.7,1-1.2,1.3s-1.1,0.4-1.8,0.4s-1.2-0.1-1.8-0.4c-0.5-0.3-0.9-0.7-1.2-1.3c-0.3-0.5-0.4-1.2-0.4-2s0.1-1.4,0.4-2
			c0.3-0.5,0.7-1,1.2-1.3C224.6,200.7,225.1,200.6,225.8,200.6z M225.8,201.6c-0.5,0-0.9,0.1-1.2,0.3s-0.6,0.5-0.8,0.9
			s-0.3,0.9-0.3,1.4c0,0.6,0.1,1,0.3,1.4s0.4,0.7,0.8,0.9c0.3,0.2,0.7,0.3,1.2,0.3s0.9-0.1,1.2-0.3s0.6-0.5,0.8-0.9s0.3-0.9,0.3-1.4
			c0-0.6-0.1-1-0.3-1.4s-0.4-0.7-0.8-0.9S226.3,201.6,225.8,201.6z"/>
		<path class="st4" d="M233.6,207.9c-0.6,0-1.1-0.1-1.6-0.4s-0.9-0.7-1.2-1.3c-0.3-0.5-0.4-1.2-0.4-2s0.2-1.4,0.5-2
			c0.3-0.5,0.7-1,1.2-1.2s1-0.4,1.6-0.4s1.1,0.1,1.5,0.4c0.4,0.3,0.7,0.7,0.8,1.2l-0.1,0.1v-4.8h1.1v10.2h-1l0-1.7l0.2-0.1
			c-0.1,0.4-0.2,0.8-0.5,1c-0.2,0.3-0.6,0.5-0.9,0.7S234,207.9,233.6,207.9z M233.7,206.9c0.4,0,0.8-0.1,1.2-0.3
			c0.3-0.2,0.6-0.5,0.8-1c0.2-0.4,0.3-0.9,0.3-1.5c0-0.5-0.1-1-0.3-1.4s-0.4-0.7-0.8-0.9c-0.3-0.2-0.7-0.3-1.1-0.3
			c-0.7,0-1.3,0.2-1.7,0.7s-0.6,1.1-0.6,1.9s0.2,1.4,0.6,1.9C232.5,206.7,233,206.9,233.7,206.9z"/>
		<path class="st4" d="M242.2,207.9c-0.7,0-1.3-0.1-1.8-0.4c-0.5-0.3-0.9-0.7-1.2-1.3c-0.3-0.5-0.4-1.2-0.4-2s0.1-1.4,0.4-2
			c0.3-0.5,0.7-1,1.2-1.3s1.1-0.4,1.7-0.4c0.7,0,1.2,0.1,1.7,0.4c0.5,0.3,0.8,0.7,1.1,1.1c0.2,0.5,0.4,1,0.4,1.6c0,0.2,0,0.3,0,0.4
			c0,0.1,0,0.2,0,0.4h-5.7v-1h5.2l-0.6,0.1c0-0.7-0.2-1.2-0.6-1.6c-0.4-0.4-0.9-0.5-1.4-0.5s-0.9,0.1-1.2,0.3s-0.6,0.5-0.8,0.9
			s-0.3,0.9-0.3,1.4c0,0.6,0.1,1,0.3,1.4s0.5,0.7,0.8,0.9s0.7,0.3,1.2,0.3s0.9-0.1,1.3-0.3c0.3-0.2,0.6-0.5,0.8-0.8l0.9,0.5
			c-0.2,0.3-0.4,0.6-0.7,0.8s-0.6,0.4-1,0.5C243,207.8,242.6,207.9,242.2,207.9z"/>
		<path class="st4" d="M254.4,199.4c-0.3,0-0.5-0.1-0.6-0.2c-0.2-0.2-0.2-0.4-0.2-0.6s0.1-0.5,0.2-0.6s0.4-0.2,0.6-0.2
			s0.5,0.1,0.6,0.2c0.2,0.2,0.2,0.4,0.2,0.6s-0.1,0.5-0.2,0.6S254.7,199.4,254.4,199.4z M255,200.7v7h-1.1v-7H255z"/>
		<path class="st4" d="M257.2,207.7v-7h1l0.1,1.6l-0.2-0.2c0.1-0.4,0.3-0.7,0.6-0.9c0.3-0.2,0.5-0.4,0.9-0.5c0.3-0.1,0.7-0.2,1-0.2
			c0.5,0,1,0.1,1.4,0.3s0.7,0.5,1,0.9c0.2,0.4,0.4,0.9,0.4,1.5v4.5h-1.1v-4.1c0-0.8-0.2-1.3-0.5-1.6s-0.7-0.5-1.2-0.5
			c-0.3,0-0.7,0.1-1,0.2c-0.3,0.2-0.6,0.4-0.8,0.8c-0.2,0.4-0.3,0.8-0.3,1.4v3.7h-1.3V207.7z"/>
		<path class="st4" d="M272.7,200.6c0.7,0,1.2,0.1,1.8,0.4c0.5,0.3,0.9,0.7,1.2,1.3c0.3,0.5,0.4,1.2,0.4,2s-0.1,1.4-0.4,2
			c-0.3,0.5-0.7,1-1.2,1.3s-1.1,0.4-1.8,0.4c-0.7,0-1.2-0.1-1.8-0.4s-0.9-0.7-1.2-1.3c-0.3-0.5-0.4-1.2-0.4-2s0.1-1.4,0.4-2
			c0.3-0.5,0.7-1,1.2-1.3S272,200.6,272.7,200.6z M272.7,201.6c-0.5,0-0.9,0.1-1.2,0.3s-0.6,0.5-0.8,0.9c-0.2,0.4-0.3,0.9-0.3,1.4
			c0,0.6,0.1,1,0.3,1.4c0.2,0.4,0.4,0.7,0.8,0.9c0.3,0.2,0.7,0.3,1.2,0.3s0.9-0.1,1.2-0.3c0.3-0.2,0.6-0.5,0.8-0.9
			c0.2-0.4,0.3-0.9,0.3-1.4c0-0.6-0.1-1-0.3-1.4c-0.2-0.4-0.4-0.7-0.8-0.9S273.1,201.6,272.7,201.6z"/>
		<path class="st4" d="M277.8,207.7v-7h0.9l0.2,1.1c0.2-0.4,0.5-0.8,0.9-1s0.8-0.3,1.4-0.3c0.1,0,0.3,0,0.4,0s0.3,0.1,0.4,0.1
			l-0.2,1c-0.1,0-0.2-0.1-0.3-0.1c-0.1,0-0.3,0-0.5,0c-0.3,0-0.6,0.1-0.9,0.3s-0.5,0.4-0.7,0.8c-0.2,0.3-0.3,0.8-0.3,1.3v3.8
			L277.8,207.7L277.8,207.7z"/>
		<path class="st4" d="M285.6,207.9c-0.6,0-1.1-0.1-1.6-0.4s-0.9-0.7-1.2-1.3s-0.4-1.2-0.4-2s0.2-1.4,0.5-2c0.3-0.5,0.7-1,1.2-1.2
			s1-0.4,1.6-0.4s1.1,0.1,1.5,0.4c0.4,0.3,0.7,0.7,0.8,1.2l-0.1,0.1v-4.8h1.1v10.2h-1l-0.1-1.7l0.2-0.1c-0.1,0.4-0.2,0.8-0.5,1
			c-0.2,0.3-0.6,0.5-0.9,0.7S286,207.9,285.6,207.9z M285.7,206.9c0.4,0,0.8-0.1,1.2-0.3c0.3-0.2,0.6-0.5,0.8-1
			c0.2-0.4,0.3-0.9,0.3-1.5c0-0.5-0.1-1-0.3-1.4c-0.2-0.4-0.4-0.7-0.8-0.9c-0.3-0.2-0.7-0.3-1.1-0.3c-0.7,0-1.3,0.2-1.7,0.7
			c-0.4,0.5-0.6,1.1-0.6,1.9s0.2,1.4,0.6,1.9C284.5,206.7,285,206.9,285.7,206.9z"/>
		<path class="st4" d="M294.2,207.9c-0.7,0-1.3-0.1-1.8-0.4c-0.5-0.3-0.9-0.7-1.2-1.3s-0.4-1.2-0.4-2s0.1-1.4,0.4-2s0.7-1,1.2-1.3
			s1.1-0.4,1.7-0.4c0.7,0,1.2,0.1,1.7,0.4c0.5,0.3,0.8,0.7,1.1,1.1c0.2,0.5,0.4,1,0.4,1.6c0,0.2,0,0.3,0,0.4c0,0.1,0,0.2,0,0.4h-5.7
			v-1h5.2l-0.6,0.1c0-0.7-0.2-1.2-0.6-1.6c-0.4-0.4-0.9-0.5-1.4-0.5s-0.9,0.1-1.2,0.3s-0.6,0.5-0.8,0.9c-0.2,0.4-0.3,0.9-0.3,1.4
			c0,0.6,0.1,1,0.3,1.4c0.2,0.4,0.5,0.7,0.8,0.9s0.7,0.3,1.2,0.3s0.9-0.1,1.3-0.3c0.3-0.2,0.6-0.5,0.8-0.8l0.9,0.5
			c-0.2,0.3-0.4,0.6-0.7,0.8c-0.3,0.2-0.6,0.4-1,0.5C295,207.8,294.6,207.9,294.2,207.9z"/>
		<path class="st4" d="M298.9,207.7v-7h0.9l0.2,1.1c0.2-0.4,0.5-0.8,0.9-1s0.8-0.3,1.4-0.3c0.1,0,0.3,0,0.4,0s0.3,0.1,0.4,0.1
			l-0.2,1c-0.1,0-0.2-0.1-0.3-0.1c-0.1,0-0.3,0-0.5,0c-0.3,0-0.6,0.1-0.9,0.3s-0.5,0.4-0.7,0.8c-0.2,0.3-0.3,0.8-0.3,1.3v3.8
			L298.9,207.7L298.9,207.7z"/>
		<path class="st4" d="M47.2,228.7v1h-5.1v-1H47.2z M44.6,226.8v7.1c0,0.3,0.1,0.6,0.3,0.8s0.4,0.3,0.8,0.3c0.3,0,0.5,0,0.7-0.1
			s0.4-0.2,0.5-0.4l0.4,0.9c-0.2,0.2-0.5,0.4-0.8,0.5s-0.6,0.2-1,0.2s-0.7-0.1-1-0.2s-0.6-0.3-0.7-0.6c-0.2-0.3-0.3-0.6-0.3-1.1
			v-6.9L44.6,226.8z"/>
		<path class="st4" d="M51.3,228.6c0.7,0,1.2,0.1,1.8,0.4s0.9,0.7,1.2,1.3c0.3,0.5,0.4,1.2,0.4,2s-0.1,1.4-0.4,2
			c-0.3,0.5-0.7,1-1.2,1.3S52,236,51.3,236s-1.2-0.1-1.8-0.4c-0.5-0.3-0.9-0.7-1.2-1.3c-0.3-0.5-0.4-1.2-0.4-2s0.1-1.4,0.4-2
			c0.3-0.5,0.7-1,1.2-1.3C50.1,228.7,50.7,228.6,51.3,228.6z M51.3,229.6c-0.5,0-0.9,0.1-1.2,0.3s-0.6,0.5-0.8,0.9s-0.3,0.9-0.3,1.4
			c0,0.6,0.1,1,0.3,1.4s0.4,0.7,0.8,0.9c0.3,0.2,0.7,0.3,1.2,0.3s0.9-0.1,1.2-0.3s0.6-0.5,0.8-0.9s0.3-0.9,0.3-1.4
			c0-0.6-0.1-1-0.3-1.4s-0.4-0.7-0.8-0.9S51.8,229.6,51.3,229.6z"/>
		<path class="st4" d="M65.1,228.7h1.2l-2.9,7h-1.1l-2.9-7h1.3l2.2,5.9L65.1,228.7z"/>
		<path class="st4" d="M70.2,235.9c-0.7,0-1.3-0.1-1.8-0.4s-0.9-0.7-1.2-1.3c-0.3-0.5-0.4-1.2-0.4-2s0.1-1.4,0.4-2
			c0.3-0.5,0.7-1,1.2-1.3s1.1-0.4,1.7-0.4c0.7,0,1.2,0.1,1.7,0.4c0.5,0.3,0.8,0.7,1.1,1.1c0.2,0.5,0.4,1,0.4,1.6c0,0.2,0,0.3,0,0.4
			c0,0.1,0,0.2,0,0.4h-5.7v-1h5.2l-0.6,0.1c0-0.7-0.2-1.2-0.6-1.6c-0.4-0.4-0.9-0.5-1.4-0.5s-0.9,0.1-1.2,0.3
			c-0.3,0.2-0.6,0.5-0.8,0.9c-0.2,0.4-0.3,0.9-0.3,1.4c0,0.6,0.1,1,0.3,1.4c0.2,0.4,0.5,0.7,0.8,0.9s0.7,0.3,1.2,0.3
			s0.9-0.1,1.3-0.3c0.3-0.2,0.6-0.5,0.8-0.8l0.9,0.5c-0.2,0.3-0.4,0.6-0.7,0.8c-0.3,0.2-0.6,0.4-1,0.5S70.7,235.9,70.2,235.9z"/>
		<path class="st4" d="M75,235.7v-7h0.9l0.2,1.1c0.2-0.4,0.5-0.8,0.9-1s0.8-0.3,1.4-0.3c0.1,0,0.3,0,0.4,0s0.3,0.1,0.4,0.1l-0.2,1
			c-0.1,0-0.2-0.1-0.3-0.1c-0.1,0-0.3,0-0.5,0c-0.3,0-0.6,0.1-0.9,0.3s-0.5,0.4-0.7,0.8c-0.2,0.3-0.3,0.8-0.3,1.3v3.8L75,235.7
			L75,235.7z"/>
		<path class="st4" d="M80.8,227.4c-0.3,0-0.5-0.1-0.6-0.2c-0.2-0.2-0.2-0.4-0.2-0.6s0.1-0.5,0.2-0.6c0.2-0.2,0.4-0.2,0.6-0.2
			s0.5,0.1,0.6,0.2c0.2,0.2,0.2,0.4,0.2,0.6s-0.1,0.5-0.2,0.6S81.1,227.4,80.8,227.4z M81.4,228.7v7h-1.1v-7H81.4z"/>
		<path class="st4" d="M87.6,228.7v1h-4.9v-1H87.6z M86.4,225.5c0.2,0,0.5,0,0.7,0.1s0.4,0.1,0.5,0.2l-0.3,0.9
			c-0.1-0.1-0.2-0.1-0.4-0.2c-0.1,0-0.3,0-0.4,0c-0.4,0-0.7,0.1-0.9,0.3c-0.2,0.2-0.3,0.5-0.3,0.9v1.1v0.4v6.6h-1.1v-8.2
			c0-0.3,0-0.6,0.1-0.9c0.1-0.3,0.2-0.5,0.4-0.7c0.2-0.2,0.4-0.3,0.7-0.4C85.7,225.5,86,225.5,86.4,225.5z"/>
		<path class="st4" d="M94.5,228.7l-3.3,8.2c-0.2,0.5-0.4,0.8-0.6,1.1s-0.4,0.5-0.7,0.6c-0.3,0.1-0.6,0.2-0.9,0.2s-0.6,0-0.9-0.1
			s-0.5-0.2-0.7-0.4l0.3-1c0.2,0.2,0.4,0.3,0.6,0.4s0.4,0.1,0.6,0.1s0.5-0.1,0.7-0.2c0.2-0.1,0.4-0.5,0.6-0.9l0.4-0.9l-0.7-1.7
			l-2.2-5.3H89l1.8,4.6l0.4,1.2l0.5-1.4l1.6-4.4h1.2V228.7z"/>
		<path class="st4" d="M103.5,228.7v1h-5.1v-1H103.5z M100.9,226.8v7.1c0,0.3,0.1,0.6,0.3,0.8c0.2,0.2,0.4,0.3,0.8,0.3
			c0.3,0,0.5,0,0.7-0.1s0.4-0.2,0.5-0.4l0.4,0.9c-0.2,0.2-0.5,0.4-0.8,0.5s-0.6,0.2-1,0.2s-0.7-0.1-1-0.2s-0.6-0.3-0.7-0.6
			c-0.2-0.3-0.3-0.6-0.3-1.1v-6.9L100.9,226.8z"/>
		<path class="st4" d="M104.7,235.7v-10.2h1.1v4.3c0.2-0.4,0.6-0.7,1-0.9s0.8-0.3,1.3-0.3s1,0.1,1.4,0.3s0.7,0.5,1,0.9
			c0.2,0.4,0.4,0.9,0.4,1.5v4.5h-1.1v-4.1c0-0.8-0.2-1.3-0.5-1.6s-0.7-0.5-1.2-0.5c-0.3,0-0.7,0.1-1,0.2c-0.3,0.2-0.6,0.4-0.8,0.8
			s-0.3,0.8-0.3,1.4v3.7L104.7,235.7L104.7,235.7z"/>
		<path class="st4" d="M117.1,231.2c0-0.5-0.1-0.9-0.4-1.2s-0.7-0.4-1.2-0.4s-0.9,0.1-1.2,0.3s-0.6,0.5-0.7,1l-0.9-0.6
			c0.2-0.5,0.5-0.9,1-1.3c0.5-0.3,1.1-0.5,1.9-0.5c0.5,0,1,0.1,1.4,0.3s0.7,0.4,1,0.8c0.2,0.3,0.4,0.8,0.4,1.4v3.4
			c0,0.3,0.2,0.5,0.5,0.5c0.2,0,0.4,0,0.5-0.1l-0.1,0.9c-0.2,0.1-0.4,0.1-0.7,0.1c-0.3,0-0.5-0.1-0.7-0.2s-0.4-0.3-0.5-0.5
			s-0.2-0.5-0.2-0.8v-0.1h0.3c-0.1,0.4-0.3,0.7-0.6,0.9c-0.3,0.2-0.6,0.4-0.9,0.5s-0.7,0.2-1,0.2c-0.4,0-0.8-0.1-1.1-0.2
			c-0.4-0.1-0.6-0.4-0.8-0.6c-0.2-0.3-0.3-0.6-0.3-1.1s0.2-1,0.5-1.3s0.8-0.6,1.5-0.7l2.8-0.5v0.9l-2.3,0.5c-0.5,0.1-0.8,0.2-1,0.4
			s-0.3,0.4-0.3,0.7s0.1,0.5,0.3,0.7c0.2,0.2,0.6,0.3,1,0.3c0.3,0,0.5,0,0.8-0.1c0.2-0.1,0.5-0.2,0.7-0.3s0.4-0.3,0.5-0.5
			s0.2-0.5,0.2-0.8v-2H117.1z"/>
		<path class="st4" d="M124.4,228.7v1h-5.1v-1H124.4z M121.9,226.8v7.1c0,0.3,0.1,0.6,0.3,0.8c0.2,0.2,0.4,0.3,0.8,0.3
			c0.3,0,0.5,0,0.7-0.1s0.4-0.2,0.5-0.4l0.4,0.9c-0.2,0.2-0.5,0.4-0.8,0.5s-0.6,0.2-1,0.2s-0.7-0.1-1-0.2s-0.6-0.3-0.7-0.6
			c-0.2-0.3-0.3-0.6-0.3-1.1v-6.9L121.9,226.8z"/>
		<path class="st4" d="M135.4,228.7l-3.3,8.2c-0.2,0.5-0.4,0.8-0.6,1.1c-0.2,0.3-0.4,0.5-0.7,0.6s-0.6,0.2-0.9,0.2
			c-0.3,0-0.6,0-0.9-0.1c-0.3-0.1-0.5-0.2-0.7-0.4l0.3-1c0.2,0.2,0.4,0.3,0.6,0.4s0.4,0.1,0.6,0.1c0.2,0,0.5-0.1,0.7-0.2
			c0.2-0.1,0.4-0.5,0.6-0.9l0.4-0.9l-0.7-1.7l-2.2-5.3h1.3l1.8,4.6l0.4,1.2l0.5-1.4l1.6-4.4h1.2V228.7z"/>
		<path class="st4" d="M139.4,228.6c0.7,0,1.2,0.1,1.8,0.4s0.9,0.7,1.2,1.3c0.3,0.5,0.4,1.2,0.4,2s-0.1,1.4-0.4,2
			c-0.3,0.5-0.7,1-1.2,1.3s-1.1,0.4-1.8,0.4s-1.2-0.1-1.8-0.4c-0.5-0.3-0.9-0.7-1.2-1.3c-0.3-0.5-0.4-1.2-0.4-2s0.1-1.4,0.4-2
			c0.3-0.5,0.7-1,1.2-1.3C138.2,228.7,138.7,228.6,139.4,228.6z M139.4,229.6c-0.5,0-0.9,0.1-1.2,0.3s-0.6,0.5-0.8,0.9
			s-0.3,0.9-0.3,1.4c0,0.6,0.1,1,0.3,1.4s0.4,0.7,0.8,0.9c0.3,0.2,0.7,0.3,1.2,0.3s0.9-0.1,1.2-0.3s0.6-0.5,0.8-0.9s0.3-0.9,0.3-1.4
			c0-0.6-0.1-1-0.3-1.4s-0.4-0.7-0.8-0.9S139.9,229.6,139.4,229.6z"/>
		<path class="st4" d="M147,235.9c-0.4,0-0.9-0.1-1.3-0.3c-0.4-0.2-0.7-0.4-1-0.8c-0.2-0.4-0.4-0.9-0.4-1.5v-4.6h1.1v4.3
			c0,0.7,0.2,1.2,0.5,1.5s0.7,0.4,1.3,0.4c0.3,0,0.5,0,0.8-0.1s0.5-0.2,0.7-0.4s0.4-0.4,0.5-0.7s0.2-0.7,0.2-1.1v-3.8h1.1v7h-1
			l-0.1-1.1c-0.2,0.4-0.6,0.7-1,0.9C148.1,235.8,147.6,235.9,147,235.9z"/>
		<path class="st4" d="M161.1,231.2c0-0.5-0.1-0.9-0.4-1.2c-0.3-0.3-0.7-0.4-1.2-0.4s-0.9,0.1-1.2,0.3s-0.6,0.5-0.7,1l-0.9-0.6
			c0.2-0.5,0.5-0.9,1-1.3c0.5-0.3,1.1-0.5,1.9-0.5c0.5,0,1,0.1,1.4,0.3s0.7,0.4,1,0.8c0.2,0.3,0.4,0.8,0.4,1.4v3.4
			c0,0.3,0.2,0.5,0.5,0.5c0.2,0,0.4,0,0.5-0.1l-0.1,0.9c-0.2,0.1-0.4,0.1-0.7,0.1s-0.5-0.1-0.7-0.2s-0.4-0.3-0.5-0.5
			s-0.2-0.5-0.2-0.8v-0.1h0.3c-0.1,0.4-0.3,0.7-0.6,0.9s-0.6,0.4-0.9,0.5c-0.3,0.1-0.7,0.2-1,0.2c-0.4,0-0.8-0.1-1.1-0.2
			c-0.4-0.1-0.6-0.4-0.8-0.6c-0.2-0.3-0.3-0.6-0.3-1.1s0.2-1,0.5-1.3s0.8-0.6,1.5-0.7l2.8-0.5v0.9l-2.3,0.5c-0.5,0.1-0.8,0.2-1,0.4
			s-0.3,0.4-0.3,0.7s0.1,0.5,0.3,0.7s0.6,0.3,1,0.3c0.3,0,0.5,0,0.8-0.1c0.2-0.1,0.5-0.2,0.7-0.3s0.4-0.3,0.5-0.5s0.2-0.5,0.2-0.8
			v-2H161.1z"/>
		<path class="st4" d="M164.6,235.7v-7h0.9l0.2,1.1c0.2-0.4,0.5-0.8,0.9-1s0.8-0.3,1.4-0.3c0.1,0,0.3,0,0.4,0c0.1,0,0.3,0.1,0.4,0.1
			l-0.2,1c-0.1,0-0.2-0.1-0.3-0.1s-0.3,0-0.5,0c-0.3,0-0.6,0.1-0.9,0.3s-0.5,0.4-0.7,0.8c-0.2,0.3-0.3,0.8-0.3,1.3v3.8L164.6,235.7
			L164.6,235.7z"/>
		<path class="st4" d="M172.6,235.9c-0.7,0-1.3-0.1-1.8-0.4s-0.9-0.7-1.2-1.3c-0.3-0.5-0.4-1.2-0.4-2s0.1-1.4,0.4-2
			c0.3-0.5,0.7-1,1.2-1.3s1.1-0.4,1.7-0.4c0.7,0,1.2,0.1,1.7,0.4c0.5,0.3,0.8,0.7,1.1,1.1c0.2,0.5,0.4,1,0.4,1.6c0,0.2,0,0.3,0,0.4
			c0,0.1,0,0.2,0,0.4H170v-1h5.2l-0.6,0.1c0-0.7-0.2-1.2-0.6-1.6c-0.4-0.4-0.9-0.5-1.4-0.5s-0.9,0.1-1.2,0.3s-0.6,0.5-0.8,0.9
			s-0.3,0.9-0.3,1.4c0,0.6,0.1,1,0.3,1.4s0.5,0.7,0.8,0.9s0.7,0.3,1.2,0.3s0.9-0.1,1.3-0.3c0.3-0.2,0.6-0.5,0.8-0.8l0.9,0.5
			c-0.2,0.3-0.4,0.6-0.7,0.8s-0.6,0.4-1,0.5S173.1,235.9,172.6,235.9z"/>
		<path class="st4" d="M181.7,235.7v-7h1l0.1,1.6l-0.2-0.2c0.1-0.4,0.3-0.7,0.6-0.9s0.5-0.4,0.9-0.5c0.3-0.1,0.7-0.2,1-0.2
			c0.5,0,1,0.1,1.4,0.3s0.7,0.5,1,0.9c0.2,0.4,0.4,0.9,0.4,1.5v4.5h-1.1v-4.1c0-0.8-0.2-1.3-0.5-1.6s-0.7-0.5-1.2-0.5
			c-0.3,0-0.7,0.1-1,0.2c-0.3,0.2-0.6,0.4-0.8,0.8c-0.2,0.4-0.3,0.8-0.3,1.4v3.7h-1.3V235.7z"/>
		<path class="st4" d="M192.9,228.6c0.7,0,1.2,0.1,1.8,0.4s0.9,0.7,1.2,1.3c0.3,0.5,0.4,1.2,0.4,2s-0.1,1.4-0.4,2
			c-0.3,0.5-0.7,1-1.2,1.3s-1.1,0.4-1.8,0.4s-1.2-0.1-1.8-0.4c-0.5-0.3-0.9-0.7-1.2-1.3c-0.3-0.5-0.4-1.2-0.4-2s0.1-1.4,0.4-2
			c0.3-0.5,0.7-1,1.2-1.3C191.7,228.7,192.2,228.6,192.9,228.6z M192.9,229.6c-0.5,0-0.9,0.1-1.2,0.3s-0.6,0.5-0.8,0.9
			s-0.3,0.9-0.3,1.4c0,0.6,0.1,1,0.3,1.4s0.4,0.7,0.8,0.9c0.3,0.2,0.7,0.3,1.2,0.3s0.9-0.1,1.2-0.3s0.6-0.5,0.8-0.9s0.3-0.9,0.3-1.4
			c0-0.6-0.1-1-0.3-1.4s-0.4-0.7-0.8-0.9S193.4,229.6,192.9,229.6z"/>
		<path class="st4" d="M202.1,228.7v1H197v-1H202.1z M199.5,226.8v7.1c0,0.3,0.1,0.6,0.3,0.8s0.4,0.3,0.8,0.3c0.3,0,0.5,0,0.7-0.1
			s0.4-0.2,0.5-0.4l0.4,0.9c-0.2,0.2-0.5,0.4-0.8,0.5s-0.6,0.2-1,0.2s-0.7-0.1-1-0.2s-0.6-0.3-0.7-0.6c-0.2-0.3-0.3-0.6-0.3-1.1
			v-6.9L199.5,226.8z"/>
		<path class="st4" d="M211.8,231.2c0-0.5-0.1-0.9-0.4-1.2c-0.3-0.3-0.7-0.4-1.2-0.4s-0.9,0.1-1.2,0.3s-0.6,0.5-0.7,1l-0.9-0.6
			c0.2-0.5,0.5-0.9,1-1.3c0.5-0.3,1.1-0.5,1.9-0.5c0.5,0,1,0.1,1.4,0.3s0.7,0.4,1,0.8c0.2,0.3,0.4,0.8,0.4,1.4v3.4
			c0,0.3,0.2,0.5,0.5,0.5c0.2,0,0.3,0,0.5-0.1l-0.1,0.9c-0.2,0.1-0.4,0.1-0.7,0.1s-0.5-0.1-0.7-0.2s-0.4-0.3-0.5-0.5
			s-0.2-0.5-0.2-0.8v-0.1h0.3c-0.1,0.4-0.3,0.7-0.6,0.9s-0.6,0.4-0.9,0.5c-0.3,0.1-0.7,0.2-1,0.2c-0.4,0-0.8-0.1-1.1-0.2
			c-0.4-0.1-0.6-0.4-0.8-0.6c-0.2-0.3-0.3-0.6-0.3-1.1s0.2-1,0.5-1.3s0.8-0.6,1.5-0.7l2.8-0.5v0.9l-2.3,0.5c-0.5,0.1-0.8,0.2-1,0.4
			s-0.3,0.4-0.3,0.7s0.1,0.5,0.3,0.7s0.6,0.3,1,0.3c0.3,0,0.5,0,0.8-0.1c0.2-0.1,0.5-0.2,0.7-0.3s0.3-0.3,0.5-0.5
			c0.1-0.2,0.2-0.5,0.2-0.8v-2H211.8z"/>
		<path class="st4" d="M219.5,235.7v-9.2h3.3c1.1,0,1.9,0.2,2.4,0.7s0.8,1.1,0.8,1.9c0,0.5-0.1,0.9-0.4,1.3s-0.7,0.6-1.1,0.7l0,0
			c0.6,0.1,1,0.4,1.3,0.7c0.3,0.4,0.5,0.8,0.5,1.4c0,0.8-0.3,1.4-0.9,1.9c-0.6,0.5-1.4,0.7-2.5,0.7L219.5,235.7L219.5,235.7z
			 M220.6,230.6h2.2c1.3,0,2-0.5,2-1.5s-0.7-1.5-2-1.5h-2.2V230.6z M220.6,234.7h2.4c0.7,0,1.2-0.1,1.5-0.4c0.3-0.3,0.5-0.6,0.5-1.1
			s-0.2-0.9-0.5-1.1c-0.3-0.3-0.8-0.4-1.5-0.4h-2.4V234.7z"/>
		<path class="st4" d="M231.9,226.4c0.9,0,1.6,0.2,2.3,0.6c0.6,0.4,1.1,0.9,1.5,1.6c0.4,0.7,0.5,1.6,0.5,2.5c0,1-0.2,1.8-0.5,2.5
			s-0.8,1.3-1.5,1.6c-0.6,0.4-1.4,0.6-2.3,0.6c-0.9,0-1.6-0.2-2.3-0.6c-0.6-0.4-1.1-0.9-1.5-1.6c-0.4-0.7-0.5-1.6-0.5-2.5
			c0-1,0.2-1.8,0.5-2.5s0.8-1.3,1.5-1.6C230.3,226.6,231,226.4,231.9,226.4z M231.9,227.4c-0.6,0-1.2,0.1-1.7,0.4s-0.8,0.7-1.1,1.3
			s-0.4,1.2-0.4,2s0.1,1.4,0.4,2s0.6,1,1.1,1.3s1,0.4,1.7,0.4c0.6,0,1.2-0.1,1.7-0.4s0.8-0.7,1.1-1.3s0.4-1.2,0.4-2s-0.1-1.4-0.4-2
			c-0.3-0.6-0.6-1-1.1-1.3S232.5,227.4,231.9,227.4z"/>
		<path class="st4" d="M244.4,226.5v1h-3.2v8.2h-1.1v-8.2h-3.2v-1H244.4z"/>
		<path class="st4" d="M245,234.1c0.3,0,0.5,0.1,0.7,0.3s0.3,0.4,0.3,0.7s-0.1,0.5-0.3,0.7s-0.4,0.3-0.7,0.3s-0.5-0.1-0.7-0.3
			s-0.3-0.4-0.3-0.7s0.1-0.5,0.3-0.7S244.7,234.1,245,234.1z"/>
		<g class="st0">
			<defs>
				<rect id="SVGID_7_" y="0.2" width="420" height="518"/>
			</defs>
			<clipPath id="SVGID_8_">
				<use xlink:href="#SVGID_7_"  style="overflow:visible;"/>
			</clipPath>
			
				<rect x="362.1" y="46.6" transform="matrix(0.7071 -0.7071 0.7071 0.7071 75.6285 276.817)" class="st6" width="19.8" height="1"/>
			
				<rect x="371.5" y="37.3" transform="matrix(0.7071 -0.7071 0.7071 0.7071 75.5992 276.8877)" class="st6" width="1" height="19.8"/>
			<path class="st7" d="M257,457.1H77c-1.1,0-2-0.9-2-2s0.9-2,2-2h180c1.1,0,2,0.9,2,2S258.1,457.1,257,457.1"/>
			<path class="st8" d="M186,457.1H77c-1.1,0-2-0.9-2-2s0.9-2,2-2h109c1.1,0,2,0.9,2,2S187.1,457.1,186,457.1"/>
		</g>
		<path class="st4" d="M44.1,457.2h4.4v1.2h-5.7v-0.7c0-2.1,1.3-2.7,2.4-3.4c1.1-0.6,2.1-1.2,2.1-2.3c0-0.8-0.6-1.5-1.5-1.5
			c-1.2,0-1.7,1-1.7,1.8h-1.2c0-1.2,0.9-3,3-3c1.6,0,2.8,1,2.8,2.6c0,1.7-1.4,2.5-2.4,3.1C44.9,455.8,44.1,456.4,44.1,457.2z"/>
		<path class="st4" d="M51,459.1h-1.2l5-11.2H56L51,459.1z"/>
		<path class="st4" d="M62.4,455.8c0,1.4-1.1,2.7-3,2.7c-1.8,0-2.9-1.2-2.9-2.6h1.2c0.1,0.6,0.6,1.4,1.7,1.4c1.1,0,1.7-0.8,1.7-1.6
			c0-0.8-0.5-1.5-1.7-1.5H59v-1.1h0.4c0.9,0,1.5-0.5,1.5-1.3c0-0.7-0.5-1.3-1.4-1.3c-0.7,0-1.3,0.4-1.4,1h-1.2
			c0-1.3,1.2-2.2,2.6-2.2c1.5,0,2.6,1,2.6,2.3c0,0.8-0.4,1.5-1,1.8v0.2C61.9,453.9,62.4,454.8,62.4,455.8z"/>
		<g class="st0">
			<defs>
				<rect id="SVGID_9_" y="0.2" width="420" height="518"/>
			</defs>
			<clipPath id="SVGID_10_">
				<use xlink:href="#SVGID_9_"  style="overflow:visible;"/>
			</clipPath>
			<path class="st9" d="M354,384.2H65.5c-13.8,0-25-11.2-25-25s11.2-25,25-25H354c13.8,0,25,11.2,25,25S367.8,384.2,354,384.2"/>
			<g class="st10">
				<defs>
					<rect id="SVGID_11_" x="68.7" y="353.1" width="221.3" height="22"/>
				</defs>
				<clipPath id="SVGID_12_">
					<use xlink:href="#SVGID_11_"  style="overflow:visible;"/>
				</clipPath>
				<path class="st11" d="M71.3,355.5v9.2h-1.1v-9.2H71.3z"/>
				<path class="st11" d="M73.7,364.7v-7h1l0.1,1.6l-0.2-0.2c0.1-0.4,0.3-0.7,0.6-0.9c0.3-0.2,0.5-0.4,0.9-0.5
					c0.3-0.1,0.7-0.2,1-0.2c0.5,0,1,0.1,1.4,0.3c0.4,0.2,0.7,0.5,1,0.9c0.2,0.4,0.4,0.9,0.4,1.5v4.5h-1.1v-4.1
					c0-0.8-0.2-1.3-0.5-1.6c-0.3-0.3-0.7-0.5-1.2-0.5c-0.3,0-0.7,0.1-1,0.2c-0.3,0.2-0.6,0.4-0.8,0.8c-0.2,0.4-0.3,0.8-0.3,1.4v3.7
					h-1.3V364.7z"/>
				<path class="st11" d="M84.4,364.9c-0.7,0-1.3-0.1-1.9-0.4s-1-0.7-1.3-1.2l1-0.7c0.2,0.4,0.5,0.8,0.9,1s0.9,0.4,1.4,0.4
					s0.9-0.1,1.2-0.3c0.3-0.2,0.4-0.4,0.4-0.7c0-0.2-0.1-0.4-0.2-0.5s-0.4-0.3-0.7-0.4l-1.7-0.3c-0.7-0.1-1.2-0.4-1.5-0.7
					c-0.3-0.3-0.4-0.7-0.4-1.2c0-0.4,0.1-0.7,0.3-1c0.2-0.3,0.5-0.6,0.9-0.8c0.4-0.2,0.9-0.3,1.4-0.3c0.7,0,1.3,0.1,1.8,0.4
					s0.8,0.7,1.1,1.1l-0.9,0.6c-0.2-0.4-0.4-0.7-0.8-0.9c-0.4-0.2-0.7-0.3-1.1-0.3c-0.3,0-0.6,0-0.9,0.1c-0.2,0.1-0.4,0.2-0.5,0.4
					s-0.2,0.3-0.2,0.6s0.1,0.4,0.2,0.6s0.4,0.3,0.8,0.4l1.8,0.4c0.7,0.1,1.1,0.3,1.4,0.6s0.4,0.7,0.4,1.1s-0.1,0.8-0.4,1.2
					s-0.6,0.6-1,0.8C85.5,364.8,85,364.9,84.4,364.9z"/>
				<path class="st11" d="M91.8,364.9c-0.7,0-1.3-0.1-1.8-0.4s-0.9-0.7-1.2-1.3c-0.3-0.5-0.4-1.2-0.4-2s0.1-1.4,0.4-2
					c0.3-0.5,0.7-1,1.2-1.3s1.1-0.4,1.7-0.4c0.7,0,1.2,0.1,1.7,0.4s0.8,0.7,1.1,1.1c0.2,0.5,0.4,1,0.4,1.6c0,0.2,0,0.3,0,0.4
					s0,0.2,0,0.4h-5.7v-1h5.2l-0.6,0.1c0-0.7-0.2-1.2-0.6-1.6s-0.9-0.5-1.4-0.5s-0.9,0.1-1.2,0.3c-0.3,0.2-0.6,0.5-0.8,0.9
					c-0.2,0.4-0.3,0.9-0.3,1.4c0,0.6,0.1,1,0.3,1.4c0.2,0.4,0.5,0.7,0.8,0.9c0.3,0.2,0.7,0.3,1.2,0.3s0.9-0.1,1.3-0.3
					c0.3-0.2,0.6-0.5,0.8-0.8l0.9,0.5c-0.2,0.3-0.4,0.6-0.7,0.8c-0.3,0.2-0.6,0.4-1,0.5S92.3,364.9,91.8,364.9z"/>
				<path class="st11" d="M96.5,364.7v-7h0.9l0.2,1.1c0.2-0.4,0.5-0.8,0.9-1s0.8-0.3,1.4-0.3c0.1,0,0.3,0,0.4,0s0.3,0.1,0.4,0.1
					l-0.2,1c-0.1,0-0.2-0.1-0.3-0.1c-0.1,0-0.3,0-0.5,0c-0.3,0-0.6,0.1-0.9,0.3s-0.5,0.4-0.7,0.8s-0.3,0.8-0.3,1.3v3.8L96.5,364.7
					L96.5,364.7z"/>
				<path class="st11" d="M105.6,357.7v1h-5.1v-1H105.6z M103.1,355.8v7.1c0,0.3,0.1,0.6,0.3,0.8c0.2,0.2,0.4,0.3,0.8,0.3
					c0.3,0,0.5,0,0.7-0.1s0.4-0.2,0.5-0.4l0.4,0.9c-0.2,0.2-0.5,0.4-0.8,0.5s-0.6,0.2-1,0.2s-0.7-0.1-1-0.2s-0.6-0.3-0.7-0.6
					c-0.2-0.3-0.3-0.6-0.3-1.1v-6.9L103.1,355.8z"/>
				<path class="st11" d="M116.6,357.7l-3.3,8.2c-0.2,0.5-0.4,0.8-0.6,1.1c-0.2,0.3-0.4,0.5-0.7,0.6c-0.3,0.1-0.6,0.2-0.9,0.2
					s-0.6,0-0.9-0.1s-0.5-0.2-0.7-0.4l0.3-1c0.2,0.2,0.4,0.3,0.6,0.4s0.4,0.1,0.6,0.1s0.5-0.1,0.7-0.2s0.4-0.5,0.6-0.9l0.4-0.9
					l-0.7-1.7l-2.2-5.3h1.3l1.8,4.6l0.4,1.2l0.5-1.4l1.6-4.4h1.2V357.7z"/>
				<path class="st11" d="M120.6,357.6c0.7,0,1.2,0.1,1.8,0.4s0.9,0.7,1.2,1.3c0.3,0.5,0.4,1.2,0.4,2s-0.1,1.4-0.4,2
					c-0.3,0.5-0.7,1-1.2,1.3s-1.1,0.4-1.8,0.4c-0.7,0-1.2-0.1-1.8-0.4c-0.5-0.3-0.9-0.7-1.2-1.3c-0.3-0.5-0.4-1.2-0.4-2
					s0.1-1.4,0.4-2c0.3-0.5,0.7-1,1.2-1.3C119.4,357.7,119.9,357.6,120.6,357.6z M120.6,358.6c-0.5,0-0.9,0.1-1.2,0.3
					s-0.6,0.5-0.8,0.9c-0.2,0.4-0.3,0.9-0.3,1.4c0,0.6,0.1,1,0.3,1.4s0.4,0.7,0.8,0.9c0.3,0.2,0.7,0.3,1.2,0.3s0.9-0.1,1.2-0.3
					c0.3-0.2,0.6-0.5,0.8-0.9c0.2-0.4,0.3-0.9,0.3-1.4c0-0.6-0.1-1-0.3-1.4c-0.2-0.4-0.4-0.7-0.8-0.9S121.1,358.6,120.6,358.6z"/>
				<path class="st11" d="M128.2,364.9c-0.4,0-0.9-0.1-1.3-0.3c-0.4-0.2-0.7-0.4-1-0.8c-0.2-0.4-0.4-0.9-0.4-1.5v-4.6h1.1v4.3
					c0,0.7,0.2,1.2,0.5,1.5s0.7,0.4,1.3,0.4c0.3,0,0.5,0,0.8-0.1s0.5-0.2,0.7-0.4s0.4-0.4,0.5-0.7s0.2-0.7,0.2-1.1v-3.8h1.1v7h-1
					l-0.1-1.1c-0.2,0.4-0.6,0.7-1,0.9C129.3,364.8,128.8,364.9,128.2,364.9z"/>
				<path class="st11" d="M133.9,364.7v-7h0.9l0.2,1.1c0.2-0.4,0.5-0.8,0.9-1s0.8-0.3,1.4-0.3c0.1,0,0.3,0,0.4,0
					c0.1,0,0.3,0.1,0.4,0.1l-0.2,1c-0.1,0-0.2-0.1-0.3-0.1s-0.3,0-0.5,0c-0.3,0-0.6,0.1-0.9,0.3s-0.5,0.4-0.7,0.8
					c-0.2,0.3-0.3,0.8-0.3,1.3v3.8L133.9,364.7L133.9,364.7z"/>
				<path class="st11" d="M143.3,367.7v-9.9h1l0.1,1.7l-0.2-0.2c0.1-0.3,0.3-0.6,0.5-0.9s0.5-0.4,0.9-0.6c0.3-0.1,0.7-0.2,1.1-0.2
					c0.6,0,1.1,0.1,1.6,0.4s0.9,0.7,1.2,1.2s0.4,1.2,0.4,2s-0.1,1.4-0.4,2s-0.7,1-1.2,1.3s-1,0.4-1.6,0.4s-1.1-0.1-1.5-0.4
					s-0.7-0.6-0.9-1.1l0.1-0.2v4.5L143.3,367.7L143.3,367.7z M146.6,363.9c0.7,0,1.2-0.2,1.6-0.7c0.4-0.5,0.6-1.1,0.6-1.9
					s-0.2-1.4-0.6-1.9s-0.9-0.7-1.6-0.7c-0.4,0-0.8,0.1-1.2,0.3c-0.3,0.2-0.6,0.5-0.8,0.9s-0.3,0.9-0.3,1.4s0.1,1,0.3,1.4
					s0.4,0.7,0.8,0.9C145.8,363.8,146.1,363.9,146.6,363.9z"/>
				<path class="st11" d="M151.6,364.7v-10.2h1.1v4.3c0.2-0.4,0.6-0.7,1-0.9c0.4-0.2,0.8-0.3,1.3-0.3s1,0.1,1.4,0.3
					c0.4,0.2,0.7,0.5,1,0.9c0.2,0.4,0.4,0.9,0.4,1.5v4.5h-1.1v-4.1c0-0.8-0.2-1.3-0.5-1.6c-0.3-0.3-0.7-0.5-1.2-0.5
					c-0.3,0-0.7,0.1-1,0.2c-0.3,0.2-0.6,0.4-0.8,0.8s-0.3,0.8-0.3,1.4v3.7L151.6,364.7L151.6,364.7z"/>
				<path class="st11" d="M162.8,357.6c0.7,0,1.2,0.1,1.8,0.4s0.9,0.7,1.2,1.3c0.3,0.5,0.4,1.2,0.4,2s-0.1,1.4-0.4,2
					c-0.3,0.5-0.7,1-1.2,1.3s-1.1,0.4-1.8,0.4s-1.2-0.1-1.8-0.4c-0.5-0.3-0.9-0.7-1.2-1.3c-0.3-0.5-0.4-1.2-0.4-2s0.1-1.4,0.4-2
					c0.3-0.5,0.7-1,1.2-1.3S162.1,357.6,162.8,357.6z M162.8,358.6c-0.5,0-0.9,0.1-1.2,0.3s-0.6,0.5-0.8,0.9s-0.3,0.9-0.3,1.4
					c0,0.6,0.1,1,0.3,1.4s0.4,0.7,0.8,0.9c0.3,0.2,0.7,0.3,1.2,0.3s0.9-0.1,1.2-0.3c0.3-0.2,0.6-0.5,0.8-0.9s0.3-0.9,0.3-1.4
					c0-0.6-0.1-1-0.3-1.4s-0.4-0.7-0.8-0.9S163.2,358.6,162.8,358.6z"/>
				<path class="st11" d="M167.8,364.7v-7h1l0.1,1.6l-0.2-0.2c0.1-0.4,0.3-0.7,0.6-0.9c0.3-0.2,0.5-0.4,0.9-0.5
					c0.3-0.1,0.7-0.2,1-0.2c0.5,0,1,0.1,1.4,0.3c0.4,0.2,0.7,0.5,1,0.9c0.2,0.4,0.4,0.9,0.4,1.5v4.5h-1.1v-4.1
					c0-0.8-0.2-1.3-0.5-1.6c-0.3-0.3-0.7-0.5-1.2-0.5c-0.3,0-0.7,0.1-1,0.2c-0.3,0.2-0.6,0.4-0.8,0.8s-0.3,0.8-0.3,1.4v3.7h-1.3
					V364.7z"/>
				<path class="st11" d="M179.1,364.9c-0.7,0-1.3-0.1-1.8-0.4s-0.9-0.7-1.2-1.3c-0.3-0.5-0.4-1.2-0.4-2s0.1-1.4,0.4-2
					c0.3-0.5,0.7-1,1.2-1.3s1.1-0.4,1.7-0.4c0.7,0,1.2,0.1,1.7,0.4s0.8,0.7,1.1,1.1c0.2,0.5,0.4,1,0.4,1.6c0,0.2,0,0.3,0,0.4
					s0,0.2,0,0.4h-5.7v-1h5.2l-0.6,0.1c0-0.7-0.2-1.2-0.6-1.6c-0.4-0.4-0.9-0.5-1.4-0.5s-0.9,0.1-1.2,0.3c-0.3,0.2-0.6,0.5-0.8,0.9
					s-0.3,0.9-0.3,1.4c0,0.6,0.1,1,0.3,1.4s0.5,0.7,0.8,0.9c0.3,0.2,0.7,0.3,1.2,0.3s0.9-0.1,1.3-0.3c0.3-0.2,0.6-0.5,0.8-0.8
					l0.9,0.5c-0.2,0.3-0.4,0.6-0.7,0.8c-0.3,0.2-0.6,0.4-1,0.5S179.6,364.9,179.1,364.9z"/>
				<path class="st11" d="M188.2,364.7v-7h1l0.1,1.6l-0.2-0.2c0.1-0.4,0.3-0.7,0.6-0.9c0.3-0.2,0.5-0.4,0.9-0.5
					c0.3-0.1,0.7-0.2,1-0.2c0.5,0,1,0.1,1.4,0.3c0.4,0.2,0.7,0.5,1,0.9c0.2,0.4,0.4,0.9,0.4,1.5v4.5h-1.1v-4.1
					c0-0.8-0.2-1.3-0.5-1.6c-0.3-0.3-0.7-0.5-1.2-0.5c-0.3,0-0.7,0.1-1,0.2c-0.3,0.2-0.6,0.4-0.8,0.8s-0.3,0.8-0.3,1.4v3.7h-1.3
					V364.7z"/>
				<path class="st11" d="M199,364.9c-0.4,0-0.9-0.1-1.3-0.3c-0.4-0.2-0.7-0.4-1-0.8c-0.2-0.4-0.4-0.9-0.4-1.5v-4.6h1.1v4.3
					c0,0.7,0.2,1.2,0.5,1.5s0.7,0.4,1.3,0.4c0.3,0,0.5,0,0.8-0.1s0.5-0.2,0.7-0.4s0.4-0.4,0.5-0.7s0.2-0.7,0.2-1.1v-3.8h1.1v7h-1
					l-0.1-1.1c-0.2,0.4-0.6,0.7-1,0.9C200,364.8,199.5,364.9,199,364.9z"/>
				<path class="st11" d="M204.6,364.7v-7h1l0.1,1.1c0.3-0.4,0.6-0.7,1-0.9c0.4-0.2,0.8-0.3,1.3-0.3s1,0.1,1.4,0.3
					c0.4,0.2,0.8,0.6,1,1c0.1-0.3,0.4-0.6,0.6-0.8c0.3-0.2,0.6-0.3,0.9-0.4c0.3-0.1,0.6-0.1,0.9-0.1c0.4,0,0.9,0.1,1.3,0.3
					c0.4,0.2,0.7,0.5,1,0.9s0.4,0.9,0.4,1.5v4.5h-1.1v-4.4c0-0.6-0.2-1.1-0.5-1.4s-0.7-0.4-1.2-0.4c-0.4,0-0.7,0.1-1,0.3
					c-0.3,0.2-0.6,0.4-0.8,0.8c-0.2,0.3-0.3,0.8-0.3,1.3v3.8h-1.1v-4.4c0-0.6-0.2-1.1-0.5-1.4s-0.7-0.4-1.2-0.4
					c-0.3,0-0.6,0.1-0.9,0.2c-0.3,0.2-0.6,0.4-0.8,0.8s-0.3,0.8-0.3,1.4v3.7H204.6z"/>
				<path class="st11" d="M221,364.9c-0.4,0-0.8-0.1-1.1-0.2s-0.6-0.3-0.9-0.6c-0.2-0.3-0.4-0.5-0.5-0.9l0.2-0.2l-0.1,1.7h-1v-10.2
					h1.1v4.8l-0.1-0.2c0.2-0.4,0.5-0.8,0.9-1.1s1-0.4,1.5-0.4c0.6,0,1.1,0.1,1.6,0.4s0.9,0.7,1.2,1.2s0.4,1.2,0.4,2s-0.1,1.4-0.4,2
					s-0.7,1-1.2,1.3C222.1,364.7,221.6,364.9,221,364.9z M220.9,363.9c0.7,0,1.2-0.2,1.6-0.7c0.4-0.5,0.6-1.1,0.6-1.9
					s-0.2-1.4-0.6-1.9c-0.4-0.5-0.9-0.7-1.6-0.7c-0.4,0-0.8,0.1-1.2,0.3c-0.3,0.2-0.6,0.5-0.8,0.9s-0.3,0.9-0.3,1.4s0.1,1,0.3,1.4
					s0.4,0.7,0.8,0.9S220.5,363.9,220.9,363.9z"/>
				<path class="st11" d="M228.9,364.9c-0.7,0-1.3-0.1-1.8-0.4s-0.9-0.7-1.2-1.3s-0.4-1.2-0.4-2s0.1-1.4,0.4-2s0.7-1,1.2-1.3
					s1.1-0.4,1.7-0.4c0.7,0,1.2,0.1,1.7,0.4s0.8,0.7,1.1,1.1c0.2,0.5,0.4,1,0.4,1.6c0,0.2,0,0.3,0,0.4s0,0.2,0,0.4h-5.7v-1h5.2
					l-0.6,0.1c0-0.7-0.2-1.2-0.6-1.6c-0.4-0.4-0.9-0.5-1.4-0.5s-0.9,0.1-1.2,0.3s-0.6,0.5-0.8,0.9s-0.3,0.9-0.3,1.4
					c0,0.6,0.1,1,0.3,1.4s0.5,0.7,0.8,0.9c0.3,0.2,0.7,0.3,1.2,0.3s0.9-0.1,1.3-0.3c0.3-0.2,0.6-0.5,0.8-0.8l0.9,0.5
					c-0.2,0.3-0.4,0.6-0.7,0.8c-0.3,0.2-0.6,0.4-1,0.5C229.7,364.8,229.3,364.9,228.9,364.9z"/>
				<path class="st11" d="M233.7,364.7v-7h0.9l0.2,1.1c0.2-0.4,0.5-0.8,0.9-1s0.8-0.3,1.4-0.3c0.1,0,0.3,0,0.4,0
					c0.1,0,0.3,0.1,0.4,0.1l-0.2,1c-0.1,0-0.2-0.1-0.3-0.1s-0.3,0-0.5,0c-0.3,0-0.6,0.1-0.9,0.3s-0.5,0.4-0.7,0.8s-0.3,0.8-0.3,1.3
					v3.8L233.7,364.7L233.7,364.7z"/>
				<path class="st11" d="M243,364.7v-10.2h1.1v4.3c0.2-0.4,0.6-0.7,1-0.9c0.4-0.2,0.8-0.3,1.3-0.3s1,0.1,1.4,0.3
					c0.4,0.2,0.7,0.5,1,0.9c0.2,0.4,0.4,0.9,0.4,1.5v4.5H248v-4.1c0-0.8-0.2-1.3-0.5-1.6c-0.3-0.3-0.7-0.5-1.2-0.5
					c-0.3,0-0.7,0.1-1,0.2c-0.3,0.2-0.6,0.4-0.8,0.8s-0.3,0.8-0.3,1.4v3.7L243,364.7L243,364.7z"/>
				<path class="st11" d="M254.2,364.9c-0.7,0-1.3-0.1-1.8-0.4s-0.9-0.7-1.2-1.3s-0.4-1.2-0.4-2s0.1-1.4,0.4-2s0.7-1,1.2-1.3
					s1.1-0.4,1.7-0.4c0.7,0,1.2,0.1,1.7,0.4s0.8,0.7,1.1,1.1c0.2,0.5,0.4,1,0.4,1.6c0,0.2,0,0.3,0,0.4s0,0.2,0,0.4h-5.7v-1h5.2
					l-0.6,0.1c0-0.7-0.2-1.2-0.6-1.6c-0.4-0.4-0.9-0.5-1.4-0.5s-0.9,0.1-1.2,0.3s-0.6,0.5-0.8,0.9s-0.3,0.9-0.3,1.4
					c0,0.6,0.1,1,0.3,1.4s0.5,0.7,0.8,0.9c0.3,0.2,0.7,0.3,1.2,0.3s0.9-0.1,1.3-0.3c0.3-0.2,0.6-0.5,0.8-0.8l0.9,0.5
					c-0.2,0.3-0.4,0.6-0.7,0.8c-0.3,0.2-0.6,0.4-1,0.5C255,364.8,254.6,364.9,254.2,364.9z"/>
				<path class="st11" d="M259,364.7v-7h0.9l0.2,1.1c0.2-0.4,0.5-0.8,0.9-1s0.8-0.3,1.4-0.3c0.1,0,0.3,0,0.4,0s0.3,0.1,0.4,0.1
					l-0.2,1c-0.1,0-0.2-0.1-0.3-0.1c-0.1,0-0.3,0-0.5,0c-0.3,0-0.6,0.1-0.9,0.3s-0.5,0.4-0.7,0.8s-0.3,0.8-0.3,1.3v3.8L259,364.7
					L259,364.7z"/>
				<path class="st11" d="M267,364.9c-0.7,0-1.3-0.1-1.8-0.4s-0.9-0.7-1.2-1.3c-0.3-0.5-0.4-1.2-0.4-2s0.1-1.4,0.4-2
					c0.3-0.5,0.7-1,1.2-1.3s1.1-0.4,1.7-0.4c0.7,0,1.2,0.1,1.7,0.4s0.8,0.7,1.1,1.1c0.2,0.5,0.4,1,0.4,1.6c0,0.2,0,0.3,0,0.4
					s0,0.2,0,0.4h-5.7v-1h5.2l-0.6,0.1c0-0.7-0.2-1.2-0.6-1.6s-0.9-0.5-1.4-0.5s-0.9,0.1-1.2,0.3c-0.3,0.2-0.6,0.5-0.8,0.9
					c-0.2,0.4-0.3,0.9-0.3,1.4c0,0.6,0.1,1,0.3,1.4s0.5,0.7,0.8,0.9s0.7,0.3,1.2,0.3s0.9-0.1,1.3-0.3c0.3-0.2,0.6-0.5,0.8-0.8
					l0.9,0.5c-0.2,0.3-0.4,0.6-0.7,0.8s-0.6,0.4-1,0.5C267.8,364.8,267.4,364.9,267,364.9z"/>
			</g>
			<path class="st12" d="M62.7,48.8V49c0,1.1,0.9,2,2,2c0.1,0,0.2,0,0.2,0c1.2,0,2.1-0.7,2.1-1.6c0-0.7-0.4-1.3-1.5-1.7L63.9,47
				c-1.8-0.7-2.8-1.6-2.8-3.1c0-1.9,1.8-3.2,4-3.2s3.7,1,3.8,2.8l-2.2,0.3v-0.2c-0.1-1.1-1-1.9-2.1-1.8c-0.9,0.1-1.6,0.7-1.7,1.5
				c0,0.6,0.4,1.3,1.8,1.8l1.8,0.7c1.7,0.7,2.5,1.6,2.5,2.9c0,2.2-2,3.3-4.3,3.3s-4.1-1-4.1-3L62.7,48.8z M71.9,46.6
				c0.3,2.5,1.8,3.7,3.6,3.7c1.3,0,2.5-0.5,3.3-1.4c-0.3,1.9-2,3.3-3.9,3.1c-2.8,0-4.9-2.3-4.9-5.5c0-3,1.8-5.8,5.1-5.8
				c2,0,4,1.2,4,3.5c0,0.1,0,0.3,0,0.4L71.9,46.6z M71.9,45h4.9c0-2.4-1.1-3.1-2.2-3.1S72.2,42.6,71.9,45 M81.9,46.6
				c0.3,2.5,1.8,3.7,3.6,3.7c1.3,0,2.5-0.5,3.4-1.4c-0.3,1.9-2,3.2-3.9,3.1c-2.8,0-4.9-2.3-4.9-5.5c0-3,1.8-5.8,5.1-5.8
				c2,0,4,1.2,4,3.5c0,0.1,0,0.3,0,0.4L81.9,46.6z M82,45h4.9c0-2.4-1.1-3.1-2.2-3.1S82.2,42.6,82,45 M99.6,51.9h-1.9v-1.6
				c-0.7,1.1-1.9,1.8-3.2,1.8c-2.2,0-4.3-1.9-4.3-5.4s2.2-6,5.2-6c0.8,0,1.6,0.2,2.3,0.5v-4.6l1.9-0.3V51.9z M97.7,49.8V43
				c-0.6-0.7-1.5-1.1-2.4-1.1c-1.6,0-3.1,1.2-3.1,4.3c0,2.5,1.1,4.4,3.4,4.4C96.3,50.5,97,50.3,97.7,49.8 M102.9,48.9L102.9,48.9
				c0,1.2,0.9,2.1,2,2.1c0.1,0,0.2,0,0.2,0c1.2,0,2.1-0.7,2.1-1.6c0-0.7-0.4-1.3-1.5-1.7l-1.7-0.6c-1.8-0.7-2.8-1.6-2.8-3.1
				c0-1.9,1.8-3.2,4-3.2s3.7,1,3.8,2.8l-2.2,0.3v-0.2c-0.1-1.1-1-1.9-2.1-1.8c-0.9,0.1-1.6,0.7-1.8,1.6c0,0.6,0.4,1.3,1.8,1.8
				l1.8,0.7c1.7,0.7,2.5,1.6,2.5,2.9c0,2.2-2,3.3-4.3,3.3s-4.1-1-4.1-3L102.9,48.9z M111.7,49.2c-0.7,0-1.3,0.6-1.3,1.4
				c0,0.7,0.6,1.3,1.4,1.3s1.3-0.6,1.3-1.4l0,0C113,49.8,112.4,49.2,111.7,49.2"/>
			<g class="st10">
				<defs>
					<rect id="SVGID_13_" x="46.8" y="39.3" width="10.2" height="6.4"/>
				</defs>
				<clipPath id="SVGID_14_">
					<use xlink:href="#SVGID_13_"  style="overflow:visible;"/>
				</clipPath>
				<path class="st13" d="M46.8,45.3l0.2-0.1L46.8,45C46.8,45.1,46.8,45.2,46.8,45.3"/>
				<path class="st13" d="M57,40.3c-1.1-0.7-2.3-1-3.5-1c-3.1,0-5.9,2.2-6.5,5.2c0.2,0.2,0.4,0.3,0.6,0.4c0.2-0.1,0.5-0.2,0.7-0.3
					l0,0c0.6-0.2,1.3-0.3,2-0.3c1.5,0,3,0.5,4.2,1.3C56.1,44.5,57,42.5,57,40.3"/>
			</g>
			<g class="st10">
				<defs>
					<rect id="SVGID_15_" x="47.9" y="44.8" width="9.1" height="7.9"/>
				</defs>
				<clipPath id="SVGID_16_">
					<use xlink:href="#SVGID_15_"  style="overflow:visible;"/>
				</clipPath>
				<path class="st14" d="M56.1,48.2c-1.6-2.8-5.1-4.1-8.2-2.9c1.3,0.8,2.3,2,2.8,3.4l0.1,0.3c0.3,0.8,0.4,1.6,0.5,2.4v0.3
					c0,0.2,0,0.5,0,0.7c1.9,0.6,4,0.4,5.7-0.7C57,50.5,56.7,49.3,56.1,48.2"/>
			</g>
			<g class="st10">
				<defs>
					<rect id="SVGID_17_" x="37.2" y="46.3" width="10.2" height="6.4"/>
				</defs>
				<clipPath id="SVGID_18_">
					<use xlink:href="#SVGID_17_"  style="overflow:visible;"/>
				</clipPath>
				<path class="st15" d="M47.4,46.7l-0.3,0.1l0.2,0.2C47.4,46.9,47.4,46.8,47.4,46.7"/>
				<path class="st15" d="M47.3,47.5c-0.2-0.1-0.4-0.3-0.6-0.4c-0.2,0.1-0.3,0.1-0.5,0.2l0,0c-1.1,0.4-2.3,0.5-3.4,0.3
					c-1.1-0.2-2.1-0.6-3-1.3c-0.7,0.5-1.2,1.2-1.6,1.9c-0.6,1.1-0.9,2.3-0.9,3.5c3.1,1.9,7.3,1,9.2-2.2
					C46.9,48.9,47.2,48.2,47.3,47.5"/>
			</g>
			<g class="st10">
				<defs>
					<rect id="SVGID_19_" x="37.2" y="39.3" width="9.1" height="7.9"/>
				</defs>
				<clipPath id="SVGID_20_">
					<use xlink:href="#SVGID_19_"  style="overflow:visible;"/>
				</clipPath>
				<path class="st16" d="M46.3,46.8c-1.3-0.8-2.3-2-2.8-3.4l-0.1-0.3c-0.3-0.8-0.4-1.6-0.5-2.4v-0.3c0-0.2,0-0.5,0-0.7
					c-0.7-0.2-1.4-0.3-2.1-0.3c-1.2,0-2.5,0.3-3.5,1c0,1.2,0.3,2.5,0.9,3.5C39.7,46.7,43.2,48,46.3,46.8"/>
			</g>
			<path class="st12" d="M50.4,54.3c0-0.1,0.1-0.2,0.1-0.3c0.3-0.7,0.4-1.5,0.4-2.3v-0.3c0-0.8-0.2-1.6-0.4-2.3l-0.1-0.3
				c-0.6-1.4-1.7-2.6-3-3.4c-0.9-0.5-1.6-1.2-2.1-2.1c-0.1-0.2-0.3-0.6-0.4-0.8c-0.5-1.4-0.5-3,0.1-4.3l0.3-0.5l0.1-0.1
				c0.4-0.7,1-1.3,1.7-1.7c0.7,0.5,1.3,1.1,1.8,1.9c0.4,0.7,0.7,1.5,0.7,2.3c0.4-0.3,0.8-0.5,1.3-0.7c-0.2-0.9-0.5-1.9-1-2.7
				c-0.6-0.9-1.4-1.7-2.4-2.2l-0.3-0.2h-0.1H47l-0.3,0.2c-1.3,0.8-2.4,1.9-3,3.4l-0.1,0.3c-0.3,0.7-0.4,1.5-0.5,2.3v0.3
				c0,0.8,0.2,1.6,0.4,2.3l0.1,0.3c0.6,1.4,1.7,2.6,3,3.4c0.9,0.5,1.6,1.2,2.1,2.1c0.1,0.2,0.3,0.6,0.4,0.8c0.5,1.4,0.5,3-0.1,4.3
				c-0.1,0.2-0.3,0.5-0.3,0.5l-0.1,0.1c-0.4,0.7-1,1.3-1.7,1.7c-0.7-0.5-1.3-1.1-1.8-1.9c-0.4-0.7-0.6-1.4-0.7-2.1
				c-0.4,0.2-0.8,0.5-1.3,0.7c0.2,0.9,0.5,1.7,1,2.5c0.6,0.9,1.4,1.7,2.4,2.2l0.3,0.2h0.1l0,0c0.1,0,0.2-0.1,0.3-0.2
				C48.8,56.9,49.8,55.7,50.4,54.3"/>
		</g>
	</g>
</g>
</svg>
