<?xml version="1.0" encoding="utf-8"?>
<!-- Generator: Adobe Illustrator 23.1.1, SVG Export Plug-In . SVG Version: 6.00 Build 0)  -->
<svg version="1.1" id="Livello_1" xmlns="http://www.w3.org/2000/svg" xmlns:xlink="http://www.w3.org/1999/xlink" x="0px" y="0px"
	 viewBox="0 0 420 517" style="enable-background:new 0 0 420 517;" xml:space="preserve">
<style type="text/css">
	.st0{clip-path:url(#SVGID_2_);}
	.st1{clip-path:url(#SVGID_4_);}
	.st2{fill:#E9EDD9;}
	.st3{fill:#F2F5EC;}
	.st4{clip-path:url(#SVGID_6_);}
	.st5{fill:#2FF141;}
	.st6{enable-background:new    ;}
	.st7{fill:#2B4835;}
	.st8{clip-path:url(#SVGID_8_);}
	.st9{opacity:0.6;}
	.st10{clip-path:url(#SVGID_10_);}
	.st11{clip-path:url(#SVGID_12_);}
	.st12{clip-path:url(#SVGID_14_);}
	.st13{clip-path:url(#SVGID_16_);}
	.st14{clip-path:url(#SVGID_18_);}
</style>
<title>Risorsa 1</title>
<g>
	<g id="Livello_1-2">
		<g>
			<defs>
				<rect id="SVGID_1_" y="-1" width="420" height="518"/>
			</defs>
			<clipPath id="SVGID_2_">
				<use xlink:href="#SVGID_1_"  style="overflow:visible;"/>
			</clipPath>
			<g class="st0">
				<g>
					<defs>
						<rect id="SVGID_3_" y="-1" width="420" height="518"/>
					</defs>
					<clipPath id="SVGID_4_">
						<use xlink:href="#SVGID_3_"  style="overflow:visible;"/>
					</clipPath>
					<g class="st1">
						<g>
							<path class="st2" d="M402.2,517H17.8C8,517,0,509,0,499.2V17.8C0,8,8,0,17.8,0h384.3C412,0,420,8,420,17.8v481.3
								C420,509,412,517,402.2,517"/>
						</g>
						<g>
							<path class="st3" d="M420,242H0V16.1c0-8.8,7.2-16,16-16h388c8.8,0,16,7.2,16,16V242z"/>
						</g>
					</g>
				</g>
				<g>
					<defs>
						<rect id="SVGID_5_" y="-1" width="420" height="518"/>
					</defs>
					<clipPath id="SVGID_6_">
						<use xlink:href="#SVGID_5_"  style="overflow:visible;"/>
					</clipPath>
					<g class="st4">
						<g>
							<path class="st5" d="M360,474h-43c-9.9,0-18-8.1-18-18s8.1-18,18-18h43c9.9,0,18,8.1,18,18S369.9,474,360,474"/>
						</g>
					</g>
				</g>
				<g class="st6">
					<path class="st7" d="M56.4,147.8c0-1.4-0.2-2.4-0.6-3c-0.4-0.6-1-1-1.8-1.1c-0.8-0.1-1.9-0.2-3.3-0.1l-3.5,0.1v11
						c0,0.9,0,1.6,0,2.2c0,0.6-0.1,1.1-0.1,1.5l9.2-0.1c1.4,0,2.6-0.3,3.6-0.7c1-0.4,1.8-1.2,2.4-2.3c0.6-1.1,0.9-2.6,0.9-4.5h1.6
						l-0.3,9.4H39.7v-1.6c1.2-0.1,2-0.3,2.5-0.8c0.4-0.5,0.7-1.2,0.7-2.1c0-0.9,0.1-1.9,0.1-3V132c0-0.6,0-1.3,0-1.8
						c0-0.6,0.1-1.1,0.1-1.6c-0.6,0-1.2,0.1-1.7,0.1c-0.6,0-1.2,0.1-1.7,0.1v-2.1h23.1L63,135h-1.6c0-1.9-0.3-3.3-0.9-4.3
						c-0.6-1-1.4-1.6-2.3-2c-1-0.3-2.1-0.5-3.3-0.5l-4.1,0.1c-1.2,0-2,0.3-2.5,0.7c-0.5,0.4-0.8,1-0.9,1.8c-0.1,0.8-0.2,1.9-0.2,3.2
						v7.7l9,0l-0.3-4.1H58v10.1H56.4z"/>
				</g>
				<g class="st6">
					<path class="st7" d="M80.8,161c-2.1,0-4.1-0.5-5.9-1.5c-1.8-1-3.2-2.4-4.3-4.2c-1.1-1.8-1.6-4.1-1.6-6.6c0-1.7,0.3-3.3,0.9-4.8
						c0.6-1.6,1.5-3,2.6-4.2c1.1-1.3,2.4-2.3,4-3c1.5-0.7,3.2-1.1,5.1-1.1c1.8,0,3.4,0.3,4.7,0.8c1.3,0.5,2.4,1.3,3.1,2.2
						c0.7,0.9,1.1,1.9,1.1,2.9c0,0.7-0.2,1.3-0.6,1.8c-0.4,0.5-0.9,0.7-1.7,0.7c-0.8,0-1.4-0.2-1.7-0.7c-0.3-0.5-0.5-1-0.5-1.4
						c0-0.3,0-0.6,0.1-1c0.1-0.3,0.3-0.6,0.6-0.9c-0.3-0.8-0.7-1.3-1.3-1.7c-0.6-0.4-1.3-0.6-2-0.7c-0.7-0.1-1.3-0.2-1.7-0.2
						c-2.2,0-4,0.9-5.5,2.6c-1.5,1.7-2.2,4.3-2.2,7.6c0,2.1,0.3,4,1,5.7c0.7,1.7,1.7,3,2.9,3.9c1.2,0.9,2.7,1.4,4.3,1.4
						c1.5,0,2.9-0.4,4.3-1.2c1.4-0.8,2.4-1.8,3.2-2.9l1.2,1c-0.8,1.3-1.8,2.4-3,3.3c-1.2,0.8-2.4,1.4-3.6,1.8
						C83,160.8,81.9,161,80.8,161z"/>
				</g>
				<g class="st6">
					<path class="st7" d="M106.3,161c-2.2,0-4.3-0.5-6.1-1.6c-1.8-1-3.3-2.5-4.3-4.3c-1.1-1.8-1.6-3.9-1.6-6.3
						c0-2.5,0.5-4.8,1.6-6.8c1.1-2,2.5-3.6,4.3-4.8c1.8-1.2,3.9-1.8,6.1-1.8c2.2,0,4.3,0.5,6.1,1.6c1.8,1.1,3.3,2.5,4.4,4.3
						c1.1,1.8,1.6,3.9,1.6,6.2c0,2.5-0.5,4.7-1.6,6.7c-1.1,2-2.5,3.6-4.3,4.8C110.6,160.4,108.6,161,106.3,161z M106.7,159.1
						c1.7,0,3-0.5,4-1.4c1-1,1.7-2.2,2.1-3.7c0.4-1.5,0.6-3.2,0.6-4.8c0-1.4-0.1-2.9-0.4-4.2c-0.3-1.4-0.7-2.7-1.3-3.8
						c-0.6-1.1-1.3-2-2.2-2.7c-0.9-0.7-2-1-3.3-1c-1.7,0-3,0.5-4.1,1.4s-1.8,2.2-2.3,3.7c-0.5,1.5-0.7,3.2-0.7,4.9
						c0,2,0.3,3.9,0.8,5.6c0.5,1.8,1.4,3.2,2.5,4.3S105,159.1,106.7,159.1z"/>
					<path class="st7" d="M122.5,160.2v-1.4c1,0,1.7-0.2,2.1-0.7c0.4-0.5,0.6-1.2,0.7-2.1c0.1-0.9,0.1-1.9,0.1-3l0-10.9
						c0-0.5,0-1,0-1.5c0-0.5,0.1-1,0.2-1.6c-0.6,0-1.1,0.1-1.7,0.1c-0.6,0-1.1,0.1-1.7,0.1v-2c1.4,0,2.5-0.1,3.2-0.2
						c0.7-0.1,1.3-0.3,1.6-0.5c0.4-0.2,0.6-0.4,0.9-0.6h1.4c0,0.2,0.1,0.5,0.1,0.8s0,0.6,0.1,1c0,0.4,0,0.8,0,1.2
						c0.7-0.6,1.5-1.2,2.3-1.6c0.8-0.5,1.7-0.9,2.7-1.2c0.9-0.3,1.9-0.4,2.8-0.4c2.8,0,4.8,0.9,6.1,2.6c1.3,1.7,1.9,4.5,1.9,8.1v8.9
						c0,0.6,0,1.2,0,1.7s-0.1,1-0.2,1.6c0.5,0,1-0.1,1.5-0.1c0.5,0,1,0,1.5-0.1v2h-9.8v-1.4c1,0,1.7-0.2,2.1-0.7
						c0.4-0.5,0.6-1.2,0.7-2.1c0.1-0.9,0.1-1.9,0.1-3v-6.7c0-2.8-0.5-4.8-1.4-6.2c-0.9-1.4-2.3-2.1-4.2-2.1c-1.2,0-2.3,0.3-3.4,0.9
						s-2,1.3-2.8,2.2c0,0.3,0,0.5,0,0.9c0,0.3,0,0.7,0,1l0,12.2c0,0.6,0,1.2,0,1.7s-0.1,1-0.2,1.6c0.5,0,1-0.1,1.5-0.1
						c0.5,0,1,0,1.5-0.1v2H122.5z"/>
					<path class="st7" d="M163.5,161c-2.2,0-4.3-0.5-6.1-1.6c-1.8-1-3.3-2.5-4.3-4.3c-1.1-1.8-1.6-3.9-1.6-6.3
						c0-2.5,0.5-4.8,1.6-6.8c1.1-2,2.5-3.6,4.3-4.8c1.8-1.2,3.9-1.8,6.1-1.8c2.2,0,4.3,0.5,6.1,1.6c1.8,1.1,3.3,2.5,4.4,4.3
						c1.1,1.8,1.6,3.9,1.6,6.2c0,2.5-0.5,4.7-1.6,6.7c-1.1,2-2.5,3.6-4.3,4.8C167.8,160.4,165.8,161,163.5,161z M163.9,159.1
						c1.7,0,3-0.5,4-1.4c1-1,1.7-2.2,2.1-3.7c0.4-1.5,0.6-3.2,0.6-4.8c0-1.4-0.1-2.9-0.4-4.2c-0.3-1.4-0.7-2.7-1.3-3.8
						c-0.6-1.1-1.3-2-2.2-2.7c-0.9-0.7-2-1-3.3-1c-1.7,0-3,0.5-4.1,1.4s-1.8,2.2-2.3,3.7c-0.5,1.5-0.7,3.2-0.7,4.9
						c0,2,0.3,3.9,0.8,5.6c0.5,1.8,1.4,3.2,2.5,4.3S162.2,159.1,163.9,159.1z"/>
					<path class="st7" d="M179.7,160.2v-1.4c1,0,1.7-0.2,2.1-0.7c0.4-0.5,0.6-1.2,0.7-2.1c0.1-0.9,0.1-1.9,0.1-3V142
						c0-0.5,0-1,0-1.5c0-0.5,0.1-1,0.2-1.6c-0.6,0-1.1,0.1-1.7,0.1c-0.6,0-1.1,0.1-1.7,0.1v-2c1.4,0,2.5-0.1,3.2-0.2
						c0.7-0.1,1.3-0.3,1.6-0.5c0.4-0.2,0.6-0.4,0.9-0.6h1.4c0.1,0.3,0.1,0.7,0.1,1.1c0,0.4,0,0.9,0.1,1.4c1-0.8,2.1-1.5,3.3-2
						c1.2-0.5,2.5-0.8,3.7-0.8c1.6,0,2.9,0.3,4,0.9c1.1,0.6,1.9,1.4,2.5,2.4c1.1-0.9,2.3-1.7,3.8-2.3c1.4-0.6,2.8-0.9,4.2-0.9
						c2.8,0,4.8,0.8,6.1,2.5c1.3,1.7,1.9,4.4,1.9,8.2l0,8.9c0,0.6,0,1.2,0,1.7c0,0.5-0.1,1-0.2,1.6c0.5,0,1-0.1,1.5-0.1
						c0.5,0,1,0,1.5-0.1v2h-9.8v-1.4c1,0,1.7-0.2,2.1-0.7c0.4-0.5,0.6-1.2,0.7-2.1c0.1-0.9,0.1-1.9,0.1-3v-6.7
						c0-2.8-0.4-4.8-1.3-6.2c-0.9-1.4-2.3-2-4.2-2c-1,0-2,0.2-3,0.7c-1,0.4-1.9,1-2.6,1.7c0.2,0.5,0.3,1.1,0.4,1.7
						c0.1,0.6,0.1,1.2,0.1,1.8c0,1.9,0,3.7,0,5.6c0,1.9,0,3.8,0,5.7c0,0.6,0,1.2,0,1.7s-0.1,1-0.2,1.6c0.5,0,1-0.1,1.5-0.1
						c0.5,0,1,0,1.5-0.1v2h-9.8v-1.4c1,0,1.7-0.2,2-0.7c0.4-0.5,0.6-1.2,0.7-2.1c0.1-0.9,0.1-1.9,0.1-3l0-6.7c0-2.8-0.4-4.8-1.2-6.2
						c-0.8-1.4-2.2-2.1-4.1-2.1c-1,0-2,0.2-2.9,0.6s-1.8,1-2.4,1.7c0,0.4,0,0.8,0,1.2s0,0.9,0,1.4v12.3c0,0.6,0,1.2,0,1.7
						s-0.1,1-0.2,1.6c0.5,0,1-0.1,1.5-0.1c0.5,0,1,0,1.5-0.1v2H179.7z"/>
					<path class="st7" d="M222.6,158.8c1,0,1.7-0.2,2.1-0.7s0.6-1.2,0.7-2.1c0.1-0.9,0.1-1.9,0.1-3V142c0-0.5,0-1,0-1.5
						c0-0.5,0.1-1,0.1-1.7c-0.6,0-1.1,0.1-1.7,0.1c-0.6,0-1.1,0.1-1.7,0.1v-2c1.4,0,2.5-0.1,3.3-0.2c0.8-0.1,1.4-0.3,1.8-0.5
						c0.4-0.2,0.7-0.4,0.9-0.6h1.4v19.4c0,0.6,0,1.2,0,1.7c0,0.5-0.1,1-0.2,1.6c0.5,0,1-0.1,1.5-0.1c0.5,0,1,0,1.5-0.1v2h-9.8V158.8
						z M227.3,131c-0.7,0-1.3-0.3-1.8-0.8c-0.5-0.5-0.8-1.2-0.8-2c0-0.8,0.3-1.5,0.8-2s1.1-0.8,1.8-0.8c0.7,0,1.4,0.3,1.8,0.8
						c0.5,0.6,0.7,1.2,0.7,2c0,0.8-0.3,1.5-0.8,2C228.6,130.7,228,131,227.3,131z"/>
					<path class="st7" d="M247.8,161c-2.1,0-4.1-0.5-5.9-1.5s-3.2-2.4-4.3-4.2c-1.1-1.8-1.6-4.1-1.6-6.6c0-1.7,0.3-3.3,0.9-4.8
						c0.6-1.6,1.5-3,2.6-4.2c1.1-1.3,2.4-2.3,4-3c1.5-0.7,3.2-1.1,5.1-1.1c1.8,0,3.4,0.3,4.7,0.8c1.3,0.5,2.4,1.3,3.1,2.2
						c0.7,0.9,1.1,1.9,1.1,2.9c0,0.7-0.2,1.3-0.6,1.8c-0.4,0.5-0.9,0.7-1.7,0.7c-0.8,0-1.4-0.2-1.7-0.7c-0.3-0.5-0.5-1-0.5-1.4
						c0-0.3,0-0.6,0.1-1s0.3-0.6,0.6-0.9c-0.3-0.8-0.7-1.3-1.3-1.7c-0.6-0.4-1.3-0.6-2-0.7c-0.7-0.1-1.3-0.2-1.7-0.2
						c-2.2,0-4,0.9-5.5,2.6s-2.2,4.3-2.2,7.6c0,2.1,0.3,4,1,5.7s1.7,3,2.9,3.9c1.2,0.9,2.7,1.4,4.3,1.4c1.5,0,2.9-0.4,4.3-1.2
						s2.4-1.8,3.2-2.9l1.2,1c-0.8,1.3-1.8,2.4-3,3.3s-2.4,1.4-3.6,1.8C250,160.8,248.9,161,247.8,161z"/>
				</g>
				<g class="st6">
					<path class="st5" d="M59.9,202.2L51,188.8h-6v13.4h-4.1v-33.6h11.6c5.5,0,10.7,3.5,10.7,9.8c0,5.1-3.3,8.7-7.5,9.9l9.1,13.9
						H59.9z M45,184.9h7.1c3.4,0,6.9-1.9,6.9-6.4c0-4.5-3.6-5.9-6.9-5.9H45V184.9z"/>
				</g>
				<g class="st6">
					<path class="st5" d="M88.5,191.3H70.3c0.4,4.5,3.2,7.2,7.3,7.2c2.7,0,4.8-1.2,5.9-3.1H88c-1.8,4.4-6,7-10.3,7
						c-6,0-11.4-4.9-11.4-12.4c0-7.4,5.4-12,11.4-12C83.4,178,89,182.3,88.5,191.3z M70.5,187.8h13.6c-0.6-3.7-3-6.3-6.6-6.3
						C74,181.6,71.3,184,70.5,187.8z"/>
				</g>
				<g class="st6">
					<path class="st5" d="M113.1,189.2v13h-4.2v-11.6c0-4.3-0.7-9-5.5-9c-3.6,0-6.5,2.7-6.5,6.9v13.7h-4.2v-24h2.8l0.9,2.7h0.6
						c0.9-1.1,3.1-3,7.1-3C110,178,113.1,182.6,113.1,189.2z"/>
				</g>
				<g class="st6">
					<path class="st5" d="M138.3,199.1v3.2h-1.7c-2.2,0-3.6-0.9-4.3-2.9c-1.5,2-3.9,3.1-7,3.1c-4.8,0-8.1-2.8-8.1-7
						c0-7.1,9.2-7.7,14.7-8.4c-0.1-3-1.3-5.3-5.1-5.3c-4.2,0-4.8,3-4.8,3h-4.1c0.4-3.3,3.6-6.8,9.1-6.8c5,0,8.7,2.8,8.7,9.8v8.3
						C135.7,198.4,136.4,199.1,138.3,199.1z M131.8,193.3v-2.5c-5.7,0.6-10.7,1.3-10.7,4.8C121.2,200.8,131.6,199.7,131.8,193.3z"/>
				</g>
				<g class="st6">
					<path class="st5" d="M140.4,171c0-1.7,1.4-3.1,3.1-3.1c1.7,0,3.1,1.3,3.1,3.1c0,1.7-1.4,3.1-3.1,3.1
						C141.8,174.1,140.4,172.7,140.4,171z M145.6,202.2h-4.2v-24h4.2V202.2z"/>
				</g>
				<g class="st6">
					<path class="st5" d="M159.1,202.5c-5.5,0-9.1-3.6-9.1-8h3.9c0,3,2.5,4.5,5.2,4.5c2.3,0,4.4-1.1,4.4-3.5c0-2.4-2.4-3.2-5-3.9
						c-3.3-0.9-7.7-2.2-7.7-7c0-4.3,3.5-6.7,7.9-6.7c5.4,0,8.3,3.5,8.3,6.8H163c0-1.8-1.9-3.4-4.4-3.4c-2.2,0-3.9,1.2-3.9,3.2
						c0,2.2,2.3,3,4.6,3.6c3.6,1,8.1,2.2,8.1,7.2C167.4,199.8,163.8,202.5,159.1,202.5z"/>
				</g>
				<g class="st6">
					<path class="st5" d="M179.4,202.5c-5.5,0-9.1-3.6-9.1-8h3.9c0,3,2.5,4.5,5.2,4.5c2.3,0,4.4-1.1,4.4-3.5c0-2.4-2.4-3.2-5-3.9
						c-3.3-0.9-7.7-2.2-7.7-7c0-4.3,3.5-6.7,7.9-6.7c5.4,0,8.3,3.5,8.3,6.8h-3.9c0-1.8-1.9-3.4-4.4-3.4c-2.2,0-3.9,1.2-3.9,3.2
						c0,2.2,2.3,3,4.6,3.6c3.6,1,8.1,2.2,8.1,7.2C187.7,199.8,184.1,202.5,179.4,202.5z"/>
				</g>
				<g class="st6">
					<path class="st5" d="M211.8,199.1v3.2h-1.7c-2.2,0-3.6-0.9-4.3-2.9c-1.5,2-3.9,3.1-7,3.1c-4.8,0-8.1-2.8-8.1-7
						c0-7.1,9.2-7.7,14.7-8.4c-0.1-3-1.3-5.3-5.1-5.3c-4.2,0-4.8,3-4.8,3h-4.1c0.4-3.3,3.6-6.8,9.1-6.8c5,0,8.7,2.8,8.7,9.8v8.3
						C209.2,198.4,209.9,199.1,211.8,199.1z M205.3,193.3v-2.5c-5.7,0.6-10.7,1.3-10.7,4.8C194.7,200.8,205.1,199.7,205.3,193.3z"/>
				</g>
				<g class="st6">
					<path class="st5" d="M235.8,189.2v13h-4.2v-11.6c0-4.3-0.7-9-5.5-9c-3.6,0-6.5,2.7-6.5,6.9v13.7h-4.2v-24h2.8l0.9,2.7h0.6
						c0.9-1.1,3.1-3,7.1-3C232.7,178,235.8,182.6,235.8,189.2z"/>
				</g>
				<g class="st6">
					<path class="st5" d="M251.2,202.5c-6,0-11.5-5.1-11.5-12.2s5.5-12.2,11.5-12.2c5,0,10.2,3.6,11.1,9h-4.3c-1-3-3.5-5.1-6.8-5.1
						c-4.3,0-7.3,3.6-7.3,8.3s3,8.3,7.3,8.3c3.2,0,5.6-1.9,6.7-4.8h4.3C261,199,256.2,202.5,251.2,202.5z"/>
				</g>
				<g class="st6">
					<path class="st5" d="M287.8,191.3h-18.1c0.4,4.5,3.2,7.2,7.3,7.2c2.7,0,4.8-1.2,5.9-3.1h4.4c-1.8,4.4-6,7-10.3,7
						c-6,0-11.4-4.9-11.4-12.4c0-7.4,5.4-12,11.4-12C282.7,178,288.3,182.3,287.8,191.3z M269.9,187.8h13.6c-0.6-3.7-3-6.3-6.6-6.3
						C273.3,181.6,270.6,184,269.9,187.8z"/>
				</g>
				<g class="st6">
					<path class="st7" d="M53.1,97.6l-2.1,9.8h-2.9l-1.1-6.3h-0.3l-1.2,6.3h-2.9l-1.9-9.8h1.9l1.4,7.7h0.3l1.4-7h2.5l1.3,7h0.3
						l1.5-7.7H53.1z"/>
				</g>
				<g class="st6">
					<path class="st7" d="M59,104.5h-5.1c0.2,1.1,1.1,1.5,1.8,1.5c1,0,1.4-0.6,1.4-0.6h1.8c-0.5,1.4-1.8,2.2-3.2,2.2
						c-1.9,0-3.5-1.4-3.5-3.6c0-2.2,1.6-3.5,3.5-3.5C57.4,100.4,59.2,101.6,59,104.5z M54,103.1h3.2c-0.2-0.8-0.8-1.2-1.5-1.2
						C54.9,101.9,54.3,102.3,54,103.1z"/>
				</g>
				<g class="st6">
					<path class="st7" d="M62.2,97.5v9.9h-1.8v-9.9H62.2z"/>
				</g>
				<g class="st6">
					<path class="st7" d="M67.1,107.5c-1.9,0-3.5-1.5-3.5-3.6c0-2.1,1.7-3.6,3.6-3.6c1.6,0,3,1,3.3,2.6h-1.9
						c-0.3-0.6-0.8-0.9-1.5-0.9c-1,0-1.8,0.8-1.8,1.9s0.8,1.9,1.8,1.9c0.6,0,1.1-0.3,1.4-0.8h1.9C70,106.6,68.6,107.5,67.1,107.5z"
						/>
				</g>
				<g class="st6">
					<path class="st7" d="M71.6,104c0-2.2,1.7-3.6,3.6-3.6c1.9,0,3.5,1.4,3.5,3.6c0,2.2-1.7,3.6-3.6,3.6
						C73.2,107.5,71.6,106.2,71.6,104z M76.9,103.9c0-1.1-0.6-1.9-1.7-1.9s-1.8,0.9-1.8,1.9s0.7,1.9,1.8,1.9S76.9,105,76.9,103.9z"
						/>
				</g>
				<g class="st6">
					<path class="st7" d="M90.6,103.6v3.8h-1.9v-3.4c0-1,0.1-2.2-1.2-2.1c-0.3,0-1.3,0.2-1.3,2.2v3.3h-1.8v-3.4c0-1,0.1-2.2-1.2-2.1
						c-0.3,0-1.3,0.2-1.3,2.2v3.3h-1.8v-7h1.4l0.2,0.8H82c0.3-0.4,0.8-0.8,1.7-0.8c0.8,0,1.5,0.4,1.9,1h0.2c0.4-0.4,1-1,2.1-1
						C89.7,100.3,90.6,101.7,90.6,103.6z"/>
				</g>
				<g class="st6">
					<path class="st7" d="M98.8,104.5h-5.1c0.2,1.1,1.1,1.5,1.8,1.5c1,0,1.4-0.6,1.4-0.6h1.8c-0.5,1.4-1.8,2.2-3.2,2.2
						c-1.9,0-3.5-1.4-3.5-3.6c0-2.2,1.6-3.5,3.5-3.5C97.2,100.4,99,101.6,98.8,104.5z M93.8,103.1h3.2c-0.2-0.8-0.8-1.2-1.5-1.2
						C94.7,101.9,94.1,102.3,93.8,103.1z"/>
				</g>
				<g class="st6">
				</g>
				<g class="st6">
					<path class="st7" d="M109,106.9c0,0-0.6,0.6-1.7,0.6c-1.3,0-2.5-0.9-2.5-2.3v-3.2h-1.4v-1.4h0.7c0.5,0,0.8-0.3,0.8-0.8v-1.4
						h1.7v2.1h1.8v1.5h-1.8v3.1c0,0.5,0.4,0.8,0.9,0.8c0.4,0,0.8-0.2,0.8-0.2L109,106.9z"/>
				</g>
				<g class="st6">
					<path class="st7" d="M109.5,104c0-2.2,1.7-3.6,3.6-3.6c1.9,0,3.5,1.4,3.5,3.6c0,2.2-1.7,3.6-3.6,3.6
						C111.2,107.5,109.5,106.2,109.5,104z M114.9,103.9c0-1.1-0.6-1.9-1.7-1.9s-1.8,0.9-1.8,1.9s0.7,1.9,1.8,1.9
						S114.9,105,114.9,103.9z"/>
				</g>
				<g class="st6">
					<path class="st7" d="M126.3,106.9c0,0-0.6,0.6-1.7,0.6c-1.3,0-2.5-0.9-2.5-2.3v-3.2h-1.4v-1.4h0.7c0.5,0,0.8-0.3,0.8-0.8v-1.4
						h1.7v2.1h1.8v1.5h-1.8v3.1c0,0.5,0.4,0.8,0.9,0.8c0.4,0,0.8-0.2,0.8-0.2L126.3,106.9z"/>
				</g>
				<g class="st6">
					<path class="st7" d="M134.7,103.6v3.8h-1.9v-3.4c0-0.7,0.1-2.1-1.1-2.1c-0.6,0-1.8,0.3-1.8,2.2v3.3H128v-9.9h1.8v3.7h0.2
						c0.3-0.4,1-0.8,2-0.8C133.8,100.4,134.7,101.7,134.7,103.6z"/>
				</g>
				<g class="st6">
					<path class="st7" d="M143.1,104.5H138c0.2,1.1,1.1,1.5,1.8,1.5c1,0,1.4-0.6,1.4-0.6h1.8c-0.5,1.4-1.8,2.2-3.2,2.2
						c-1.9,0-3.5-1.4-3.5-3.6c0-2.2,1.6-3.5,3.5-3.5C141.5,100.4,143.3,101.6,143.1,104.5z M138.1,103.1h3.2
						c-0.2-0.8-0.8-1.2-1.5-1.2C139,101.9,138.4,102.3,138.1,103.1z"/>
				</g>
				<g class="st6">
					<path class="st7" d="M46.2,282.2c0.8,0,1.5,0.2,2.1,0.5s1.1,0.8,1.5,1.5l-0.9,0.7c-0.3-0.6-0.7-1-1.2-1.3s-1-0.4-1.6-0.4
						c-0.5,0-0.9,0.1-1.2,0.2c-0.3,0.1-0.6,0.3-0.7,0.6c-0.1,0.2-0.2,0.5-0.2,0.8c0,0.3,0.1,0.6,0.3,0.9c0.2,0.2,0.6,0.4,1.2,0.6
						l2,0.4c0.9,0.2,1.5,0.5,1.9,0.9s0.5,0.9,0.5,1.5c0,0.5-0.1,1-0.4,1.4c-0.3,0.4-0.7,0.7-1.2,0.9c-0.5,0.2-1.2,0.3-1.9,0.3
						c-0.7,0-1.3-0.1-1.8-0.3c-0.5-0.2-0.9-0.4-1.3-0.7c-0.4-0.3-0.7-0.7-0.9-1l1-0.8c0.2,0.4,0.4,0.7,0.7,0.9
						c0.3,0.3,0.6,0.5,1,0.6c0.4,0.1,0.9,0.2,1.4,0.2c0.5,0,0.9-0.1,1.2-0.2c0.3-0.1,0.6-0.3,0.8-0.5c0.2-0.2,0.3-0.5,0.3-0.8
						c0-0.3-0.1-0.6-0.3-0.8c-0.2-0.2-0.6-0.4-1.1-0.5l-2.2-0.5c-0.6-0.1-1-0.3-1.4-0.5s-0.6-0.5-0.8-0.8c-0.2-0.3-0.2-0.7-0.2-1
						c0-0.5,0.1-1,0.4-1.4c0.3-0.4,0.7-0.7,1.2-1S45.5,282.2,46.2,282.2z"/>
					<path class="st7" d="M51.7,291.6v-9.2h6.5v1h-5.4v3H57v1h-4.2v3.1h5.6v1H51.7z"/>
					<path class="st7" d="M60.3,291.6v-9.2h6.5v1h-5.4v3h4.2v1h-4.2v3.1h5.6v1H60.3z"/>
					<path class="st7" d="M71.8,282.3c1.4,0,2.6,0.4,3.4,1.2c0.8,0.8,1.2,1.9,1.2,3.4c0,1.5-0.4,2.6-1.2,3.4c-0.8,0.8-2,1.2-3.4,1.2
						h-3v-9.2H71.8z M71.9,290.5c1.1,0,1.9-0.3,2.5-0.9c0.6-0.6,0.9-1.5,0.9-2.6s-0.3-2-0.9-2.6c-0.6-0.6-1.4-0.9-2.5-0.9h-2v7.1
						H71.9z"/>
					<path class="st7" d="M81.4,282.2c0.8,0,1.5,0.2,2.1,0.5s1.1,0.8,1.5,1.5l-0.9,0.7c-0.3-0.6-0.7-1-1.2-1.3s-1-0.4-1.6-0.4
						c-0.5,0-0.9,0.1-1.2,0.2c-0.3,0.1-0.6,0.3-0.7,0.6c-0.1,0.2-0.2,0.5-0.2,0.8c0,0.3,0.1,0.6,0.3,0.9c0.2,0.2,0.6,0.4,1.2,0.6
						l2,0.4c0.9,0.2,1.5,0.5,1.9,0.9s0.5,0.9,0.5,1.5c0,0.5-0.1,1-0.4,1.4c-0.3,0.4-0.7,0.7-1.2,0.9c-0.5,0.2-1.2,0.3-1.9,0.3
						c-0.7,0-1.3-0.1-1.8-0.3c-0.5-0.2-0.9-0.4-1.3-0.7c-0.4-0.3-0.7-0.7-0.9-1l1-0.8c0.2,0.4,0.4,0.7,0.7,0.9
						c0.3,0.3,0.6,0.5,1,0.6c0.4,0.1,0.9,0.2,1.4,0.2c0.5,0,0.9-0.1,1.2-0.2c0.3-0.1,0.6-0.3,0.8-0.5c0.2-0.2,0.3-0.5,0.3-0.8
						c0-0.3-0.1-0.6-0.3-0.8c-0.2-0.2-0.6-0.4-1.1-0.5l-2.2-0.5c-0.6-0.1-1-0.3-1.4-0.5s-0.6-0.5-0.8-0.8c-0.2-0.3-0.2-0.7-0.2-1
						c0-0.5,0.1-1,0.4-1.4c0.3-0.4,0.7-0.7,1.2-1S80.7,282.2,81.4,282.2z"/>
					<path class="st7" d="M91.7,283.2c-0.3,0-0.5-0.1-0.6-0.2c-0.2-0.2-0.2-0.4-0.2-0.6s0.1-0.5,0.2-0.6c0.2-0.2,0.4-0.2,0.6-0.2
						s0.5,0.1,0.6,0.2c0.2,0.2,0.2,0.4,0.2,0.6s-0.1,0.5-0.2,0.6C92.2,283.2,92,283.2,91.7,283.2z M92.3,284.6v7h-1.1v-7H92.3z"/>
					<path class="st7" d="M97,291.7c-0.7,0-1.3-0.1-1.9-0.4c-0.6-0.3-1-0.7-1.3-1.2l1-0.7c0.2,0.4,0.5,0.8,0.9,1
						c0.4,0.2,0.9,0.4,1.4,0.4c0.5,0,0.9-0.1,1.2-0.3c0.3-0.2,0.4-0.4,0.4-0.7c0-0.2-0.1-0.4-0.2-0.5s-0.4-0.3-0.7-0.4l-1.7-0.3
						c-0.7-0.1-1.2-0.4-1.5-0.7c-0.3-0.3-0.4-0.7-0.4-1.2c0-0.4,0.1-0.7,0.3-1c0.2-0.3,0.5-0.6,0.9-0.8c0.4-0.2,0.9-0.3,1.4-0.3
						c0.7,0,1.3,0.1,1.8,0.4c0.5,0.3,0.8,0.7,1.1,1.1l-0.9,0.6c-0.2-0.4-0.4-0.7-0.8-0.9c-0.4-0.2-0.7-0.3-1.1-0.3
						c-0.3,0-0.6,0-0.9,0.1c-0.2,0.1-0.4,0.2-0.5,0.4s-0.2,0.3-0.2,0.6s0.1,0.4,0.2,0.6s0.4,0.3,0.8,0.4l1.8,0.4
						c0.7,0.1,1.1,0.3,1.4,0.6s0.4,0.7,0.4,1.1c0,0.4-0.1,0.8-0.4,1.2s-0.6,0.6-1,0.8C98,291.6,97.5,291.7,97,291.7z"/>
				</g>
				<g class="st6">
					<path class="st7" d="M110,287.1c0-0.5-0.1-0.9-0.4-1.2c-0.3-0.3-0.7-0.4-1.2-0.4c-0.5,0-0.9,0.1-1.2,0.3s-0.6,0.5-0.7,1
						l-0.9-0.6c0.2-0.5,0.5-0.9,1-1.3c0.5-0.3,1.1-0.5,1.9-0.5c0.5,0,1,0.1,1.4,0.3c0.4,0.2,0.7,0.4,1,0.8c0.2,0.3,0.4,0.8,0.4,1.4
						v3.4c0,0.3,0.2,0.5,0.5,0.5c0.2,0,0.4,0,0.5-0.1l-0.1,0.9c-0.2,0.1-0.4,0.1-0.7,0.1c-0.3,0-0.5-0.1-0.7-0.2s-0.4-0.3-0.5-0.5
						c-0.1-0.2-0.2-0.5-0.2-0.8v-0.1l0.3,0c-0.1,0.4-0.3,0.7-0.6,0.9c-0.3,0.2-0.6,0.4-0.9,0.5c-0.3,0.1-0.7,0.2-1,0.2
						c-0.4,0-0.8-0.1-1.1-0.2c-0.4-0.1-0.6-0.4-0.8-0.6c-0.2-0.3-0.3-0.6-0.3-1.1c0-0.5,0.2-1,0.5-1.3s0.8-0.6,1.5-0.7l2.8-0.5v0.9
						l-2.3,0.5c-0.5,0.1-0.8,0.2-1,0.4c-0.2,0.2-0.3,0.4-0.3,0.7c0,0.3,0.1,0.5,0.3,0.7c0.2,0.2,0.6,0.3,1,0.3c0.3,0,0.5,0,0.8-0.1
						c0.2-0.1,0.5-0.2,0.7-0.3c0.2-0.1,0.4-0.3,0.5-0.5c0.1-0.2,0.2-0.5,0.2-0.8V287.1z"/>
				</g>
				<g class="st6">
					<path class="st7" d="M117.4,291.6v-7h1l0.1,1.1c0.3-0.4,0.6-0.7,1-0.9c0.4-0.2,0.8-0.3,1.3-0.3c0.5,0,1,0.1,1.4,0.3
						c0.4,0.2,0.8,0.6,1,1c0.1-0.3,0.4-0.6,0.6-0.8c0.3-0.2,0.6-0.3,0.9-0.4c0.3-0.1,0.6-0.1,0.9-0.1c0.4,0,0.9,0.1,1.3,0.3
						c0.4,0.2,0.7,0.5,1,0.9c0.3,0.4,0.4,0.9,0.4,1.5v4.5h-1.1v-4.4c0-0.6-0.2-1.1-0.5-1.4c-0.3-0.3-0.7-0.4-1.2-0.4
						c-0.4,0-0.7,0.1-1,0.3c-0.3,0.2-0.6,0.4-0.8,0.8c-0.2,0.3-0.3,0.8-0.3,1.3v3.8h-1.1v-4.4c0-0.6-0.2-1.1-0.5-1.4
						c-0.3-0.3-0.7-0.4-1.2-0.4c-0.3,0-0.6,0.1-0.9,0.2s-0.6,0.4-0.8,0.8c-0.2,0.4-0.3,0.8-0.3,1.4v3.7H117.4z"/>
					<path class="st7" d="M133.2,284.4c0.7,0,1.2,0.1,1.8,0.4s0.9,0.7,1.2,1.3c0.3,0.5,0.4,1.2,0.4,2s-0.1,1.4-0.4,2
						c-0.3,0.5-0.7,1-1.2,1.3s-1.1,0.4-1.8,0.4c-0.7,0-1.2-0.1-1.8-0.4c-0.5-0.3-0.9-0.7-1.2-1.3c-0.3-0.5-0.4-1.2-0.4-2
						s0.1-1.4,0.4-2c0.3-0.5,0.7-1,1.2-1.3C132,284.6,132.6,284.4,133.2,284.4z M133.2,285.4c-0.5,0-0.9,0.1-1.2,0.3
						s-0.6,0.5-0.8,0.9c-0.2,0.4-0.3,0.9-0.3,1.4c0,0.6,0.1,1,0.3,1.4c0.2,0.4,0.4,0.7,0.8,0.9c0.3,0.2,0.7,0.3,1.2,0.3
						c0.5,0,0.9-0.1,1.2-0.3c0.3-0.2,0.6-0.5,0.8-0.9c0.2-0.4,0.3-0.9,0.3-1.4c0-0.6-0.1-1-0.3-1.4c-0.2-0.4-0.4-0.7-0.8-0.9
						S133.7,285.4,133.2,285.4z"/>
					<path class="st7" d="M143,284.6h1.2l-2.9,7h-1.1l-2.9-7h1.3l2.2,5.9L143,284.6z"/>
				</g>
				<g class="st6">
					<path class="st7" d="M148.2,291.7c-0.7,0-1.3-0.1-1.8-0.4s-0.9-0.7-1.2-1.3c-0.3-0.5-0.4-1.2-0.4-2s0.1-1.4,0.4-2
						c0.3-0.5,0.7-1,1.2-1.3s1.1-0.4,1.7-0.4c0.7,0,1.2,0.1,1.7,0.4c0.5,0.3,0.8,0.7,1.1,1.1c0.2,0.5,0.4,1,0.4,1.6
						c0,0.2,0,0.3,0,0.4c0,0.1,0,0.2,0,0.4h-5.7v-1h5.2l-0.6,0.1c0-0.7-0.2-1.2-0.6-1.6c-0.4-0.4-0.9-0.5-1.4-0.5
						c-0.5,0-0.9,0.1-1.2,0.3c-0.3,0.2-0.6,0.5-0.8,0.9c-0.2,0.4-0.3,0.9-0.3,1.4c0,0.6,0.1,1,0.3,1.4c0.2,0.4,0.5,0.7,0.8,0.9
						c0.3,0.2,0.7,0.3,1.2,0.3c0.5,0,0.9-0.1,1.3-0.3c0.3-0.2,0.6-0.5,0.8-0.8l0.9,0.5c-0.2,0.3-0.4,0.6-0.7,0.8
						c-0.3,0.2-0.6,0.4-1,0.5S148.6,291.7,148.2,291.7z"/>
				</g>
				<g class="st6">
					<path class="st7" d="M152.9,291.6v-7h1l0.1,1.1c0.3-0.4,0.6-0.7,1-0.9c0.4-0.2,0.8-0.3,1.3-0.3c0.5,0,1,0.1,1.4,0.3
						c0.4,0.2,0.8,0.6,1,1c0.1-0.3,0.4-0.6,0.6-0.8c0.3-0.2,0.6-0.3,0.9-0.4c0.3-0.1,0.6-0.1,0.9-0.1c0.4,0,0.9,0.1,1.3,0.3
						c0.4,0.2,0.7,0.5,1,0.9c0.3,0.4,0.4,0.9,0.4,1.5v4.5h-1.1v-4.4c0-0.6-0.2-1.1-0.5-1.4c-0.3-0.3-0.7-0.4-1.2-0.4
						c-0.4,0-0.7,0.1-1,0.3c-0.3,0.2-0.6,0.4-0.8,0.8c-0.2,0.3-0.3,0.8-0.3,1.3v3.8h-1.1v-4.4c0-0.6-0.2-1.1-0.5-1.4
						c-0.3-0.3-0.7-0.4-1.2-0.4c-0.3,0-0.6,0.1-0.9,0.2c-0.3,0.2-0.6,0.4-0.8,0.8c-0.2,0.4-0.3,0.8-0.3,1.4v3.7H152.9z"/>
				</g>
				<g class="st6">
					<path class="st7" d="M168.8,291.7c-0.7,0-1.3-0.1-1.8-0.4s-0.9-0.7-1.2-1.3c-0.3-0.5-0.4-1.2-0.4-2s0.1-1.4,0.4-2
						c0.3-0.5,0.7-1,1.2-1.3s1.1-0.4,1.7-0.4c0.7,0,1.2,0.1,1.7,0.4c0.5,0.3,0.8,0.7,1.1,1.1c0.2,0.5,0.4,1,0.4,1.6
						c0,0.2,0,0.3,0,0.4c0,0.1,0,0.2,0,0.4h-5.7v-1h5.2l-0.6,0.1c0-0.7-0.2-1.2-0.6-1.6c-0.4-0.4-0.9-0.5-1.4-0.5
						c-0.5,0-0.9,0.1-1.2,0.3c-0.3,0.2-0.6,0.5-0.8,0.9c-0.2,0.4-0.3,0.9-0.3,1.4c0,0.6,0.1,1,0.3,1.4c0.2,0.4,0.5,0.7,0.8,0.9
						c0.3,0.2,0.7,0.3,1.2,0.3c0.5,0,0.9-0.1,1.3-0.3c0.3-0.2,0.6-0.5,0.8-0.8l0.9,0.5c-0.2,0.3-0.4,0.6-0.7,0.8
						c-0.3,0.2-0.6,0.4-1,0.5S169.2,291.7,168.8,291.7z"/>
				</g>
				<g class="st6">
					<path class="st7" d="M173.5,291.6v-7h1l0.1,1.6l-0.2-0.2c0.1-0.4,0.3-0.7,0.6-0.9c0.3-0.2,0.5-0.4,0.9-0.5
						c0.3-0.1,0.7-0.2,1-0.2c0.5,0,1,0.1,1.4,0.3c0.4,0.2,0.7,0.5,1,0.9c0.2,0.4,0.4,0.9,0.4,1.5v4.5h-1.1v-4.1
						c0-0.8-0.2-1.3-0.5-1.6c-0.3-0.3-0.7-0.5-1.2-0.5c-0.3,0-0.7,0.1-1,0.2c-0.3,0.2-0.6,0.4-0.8,0.8c-0.2,0.4-0.3,0.8-0.3,1.4v3.7
						H173.5z"/>
				</g>
				<g class="st6">
					<path class="st7" d="M185.9,284.6v1h-5.1v-1H185.9z M183.3,282.6v7.1c0,0.3,0.1,0.6,0.3,0.8c0.2,0.2,0.4,0.3,0.8,0.3
						c0.3,0,0.5,0,0.7-0.1c0.2-0.1,0.4-0.2,0.5-0.4l0.4,0.9c-0.2,0.2-0.5,0.4-0.8,0.5c-0.3,0.1-0.6,0.2-1,0.2c-0.4,0-0.7-0.1-1-0.2
						s-0.6-0.3-0.7-0.6c-0.2-0.3-0.3-0.6-0.3-1.1v-6.9L183.3,282.6z"/>
				</g>
				<g class="st6">
					<path class="st7" d="M194.4,284.4c0.7,0,1.2,0.1,1.8,0.4s0.9,0.7,1.2,1.3c0.3,0.5,0.4,1.2,0.4,2s-0.1,1.4-0.4,2
						c-0.3,0.5-0.7,1-1.2,1.3s-1.1,0.4-1.8,0.4c-0.7,0-1.2-0.1-1.8-0.4c-0.5-0.3-0.9-0.7-1.2-1.3c-0.3-0.5-0.4-1.2-0.4-2
						s0.1-1.4,0.4-2c0.3-0.5,0.7-1,1.2-1.3C193.1,284.6,193.7,284.4,194.4,284.4z M194.4,285.4c-0.5,0-0.9,0.1-1.2,0.3
						s-0.6,0.5-0.8,0.9c-0.2,0.4-0.3,0.9-0.3,1.4c0,0.6,0.1,1,0.3,1.4s0.4,0.7,0.8,0.9c0.3,0.2,0.7,0.3,1.2,0.3
						c0.5,0,0.9-0.1,1.2-0.3c0.3-0.2,0.6-0.5,0.8-0.9c0.2-0.4,0.3-0.9,0.3-1.4c0-0.6-0.1-1-0.3-1.4c-0.2-0.4-0.4-0.7-0.8-0.9
						S194.9,285.4,194.4,285.4z"/>
				</g>
				<g class="st6">
					<path class="st7" d="M203.3,284.6v1h-4.9v-1H203.3z M202.2,281.3c0.2,0,0.5,0,0.7,0.1c0.2,0.1,0.4,0.1,0.5,0.2l-0.3,0.9
						c-0.1-0.1-0.2-0.1-0.4-0.2c-0.1,0-0.3,0-0.4,0c-0.4,0-0.7,0.1-0.9,0.3c-0.2,0.2-0.3,0.5-0.3,0.9v1.1v0.4v6.6h-1.1v-8.2
						c0-0.3,0-0.6,0.1-0.9c0.1-0.3,0.2-0.5,0.4-0.7c0.2-0.2,0.4-0.3,0.7-0.4C201.5,281.3,201.8,281.3,202.2,281.3z"/>
				</g>
				<g class="st6">
					<path class="st7" d="M208.2,291.6v-7h1l0.1,1.1c0.3-0.4,0.6-0.7,1-0.9c0.4-0.2,0.8-0.3,1.3-0.3c0.5,0,1,0.1,1.4,0.3
						c0.4,0.2,0.8,0.6,1,1c0.1-0.3,0.4-0.6,0.6-0.8c0.3-0.2,0.6-0.3,0.9-0.4c0.3-0.1,0.6-0.1,0.9-0.1c0.4,0,0.9,0.1,1.3,0.3
						c0.4,0.2,0.7,0.5,1,0.9c0.3,0.4,0.4,0.9,0.4,1.5v4.5h-1.1v-4.4c0-0.6-0.2-1.1-0.5-1.4c-0.3-0.3-0.7-0.4-1.2-0.4
						c-0.4,0-0.7,0.1-1,0.3c-0.3,0.2-0.6,0.4-0.8,0.8c-0.2,0.3-0.3,0.8-0.3,1.3v3.8h-1.1v-4.4c0-0.6-0.2-1.1-0.5-1.4
						c-0.3-0.3-0.7-0.4-1.2-0.4c-0.3,0-0.6,0.1-0.9,0.2c-0.3,0.2-0.6,0.4-0.8,0.8c-0.2,0.4-0.3,0.8-0.3,1.4v3.7H208.2z"/>
					<path class="st7" d="M224.1,284.4c0.7,0,1.2,0.1,1.8,0.4s0.9,0.7,1.2,1.3s0.4,1.2,0.4,2s-0.1,1.4-0.4,2s-0.7,1-1.2,1.3
						s-1.1,0.4-1.8,0.4c-0.7,0-1.2-0.1-1.8-0.4s-0.9-0.7-1.2-1.3s-0.4-1.2-0.4-2s0.1-1.4,0.4-2s0.7-1,1.2-1.3
						S223.4,284.4,224.1,284.4z M224.1,285.4c-0.5,0-0.9,0.1-1.2,0.3s-0.6,0.5-0.8,0.9c-0.2,0.4-0.3,0.9-0.3,1.4
						c0,0.6,0.1,1,0.3,1.4c0.2,0.4,0.4,0.7,0.8,0.9c0.3,0.2,0.7,0.3,1.2,0.3s0.9-0.1,1.2-0.3c0.3-0.2,0.6-0.5,0.8-0.9
						s0.3-0.9,0.3-1.4c0-0.6-0.1-1-0.3-1.4c-0.2-0.4-0.4-0.7-0.8-0.9S224.5,285.4,224.1,285.4z"/>
					<path class="st7" d="M233.8,284.6h1.2l-2.9,7h-1.1l-2.9-7h1.3l2.2,5.9L233.8,284.6z"/>
					<path class="st7" d="M238.9,291.7c-0.7,0-1.3-0.1-1.8-0.4c-0.5-0.3-0.9-0.7-1.2-1.3c-0.3-0.5-0.4-1.2-0.4-2s0.1-1.4,0.4-2
						c0.3-0.5,0.7-1,1.2-1.3s1.1-0.4,1.7-0.4c0.7,0,1.2,0.1,1.7,0.4c0.5,0.3,0.8,0.7,1.1,1.1c0.2,0.5,0.4,1,0.4,1.6
						c0,0.2,0,0.3,0,0.4c0,0.1,0,0.2,0,0.4h-5.7v-1h5.2l-0.6,0.1c0-0.7-0.2-1.2-0.6-1.6c-0.4-0.4-0.9-0.5-1.4-0.5
						c-0.5,0-0.9,0.1-1.2,0.3c-0.3,0.2-0.6,0.5-0.8,0.9c-0.2,0.4-0.3,0.9-0.3,1.4c0,0.6,0.1,1,0.3,1.4s0.5,0.7,0.8,0.9
						s0.7,0.3,1.2,0.3c0.5,0,0.9-0.1,1.3-0.3c0.3-0.2,0.6-0.5,0.8-0.8l0.9,0.5c-0.2,0.3-0.4,0.6-0.7,0.8s-0.6,0.4-1,0.5
						C239.8,291.7,239.4,291.7,238.9,291.7z"/>
					<path class="st7" d="M243.7,291.6v-7h1l0.1,1.1c0.3-0.4,0.6-0.7,1-0.9c0.4-0.2,0.8-0.3,1.3-0.3c0.5,0,1,0.1,1.4,0.3
						c0.4,0.2,0.8,0.6,1,1c0.1-0.3,0.4-0.6,0.6-0.8c0.3-0.2,0.6-0.3,0.9-0.4c0.3-0.1,0.6-0.1,0.9-0.1c0.4,0,0.9,0.1,1.3,0.3
						c0.4,0.2,0.7,0.5,1,0.9c0.3,0.4,0.4,0.9,0.4,1.5v4.5h-1.1v-4.4c0-0.6-0.2-1.1-0.5-1.4c-0.3-0.3-0.7-0.4-1.2-0.4
						c-0.4,0-0.7,0.1-1,0.3c-0.3,0.2-0.6,0.4-0.8,0.8c-0.2,0.3-0.3,0.8-0.3,1.3v3.8h-1.1v-4.4c0-0.6-0.2-1.1-0.5-1.4
						c-0.3-0.3-0.7-0.4-1.2-0.4c-0.3,0-0.6,0.1-0.9,0.2s-0.6,0.4-0.8,0.8c-0.2,0.4-0.3,0.8-0.3,1.4v3.7H243.7z"/>
				</g>
				<g class="st6">
					<path class="st7" d="M259.6,291.7c-0.7,0-1.3-0.1-1.8-0.4c-0.5-0.3-0.9-0.7-1.2-1.3c-0.3-0.5-0.4-1.2-0.4-2s0.1-1.4,0.4-2
						c0.3-0.5,0.7-1,1.2-1.3s1.1-0.4,1.7-0.4c0.7,0,1.2,0.1,1.7,0.4c0.5,0.3,0.8,0.7,1.1,1.1c0.2,0.5,0.4,1,0.4,1.6
						c0,0.2,0,0.3,0,0.4c0,0.1,0,0.2,0,0.4h-5.7v-1h5.2l-0.6,0.1c0-0.7-0.2-1.2-0.6-1.6c-0.4-0.4-0.9-0.5-1.4-0.5
						c-0.5,0-0.9,0.1-1.2,0.3c-0.3,0.2-0.6,0.5-0.8,0.9c-0.2,0.4-0.3,0.9-0.3,1.4c0,0.6,0.1,1,0.3,1.4s0.5,0.7,0.8,0.9
						s0.7,0.3,1.2,0.3c0.5,0,0.9-0.1,1.3-0.3c0.3-0.2,0.6-0.5,0.8-0.8l0.9,0.5c-0.2,0.3-0.4,0.6-0.7,0.8s-0.6,0.4-1,0.5
						C260.5,291.7,260,291.7,259.6,291.7z"/>
				</g>
				<g class="st6">
					<path class="st7" d="M264.3,291.6v-7h1l0.1,1.6l-0.2-0.2c0.1-0.4,0.3-0.7,0.6-0.9c0.3-0.2,0.5-0.4,0.9-0.5
						c0.3-0.1,0.7-0.2,1-0.2c0.5,0,1,0.1,1.4,0.3s0.7,0.5,1,0.9c0.2,0.4,0.4,0.9,0.4,1.5v4.5h-1.1v-4.1c0-0.8-0.2-1.3-0.5-1.6
						c-0.3-0.3-0.7-0.5-1.2-0.5c-0.3,0-0.7,0.1-1,0.2c-0.3,0.2-0.6,0.4-0.8,0.8c-0.2,0.4-0.3,0.8-0.3,1.4v3.7H264.3z"/>
				</g>
				<g class="st6">
					<path class="st7" d="M276.7,284.6v1h-5.1v-1H276.7z M274.1,282.6v7.1c0,0.3,0.1,0.6,0.3,0.8s0.4,0.3,0.8,0.3
						c0.3,0,0.5,0,0.7-0.1c0.2-0.1,0.4-0.2,0.5-0.4l0.4,0.9c-0.2,0.2-0.5,0.4-0.8,0.5c-0.3,0.1-0.6,0.2-1,0.2c-0.4,0-0.7-0.1-1-0.2
						c-0.3-0.1-0.6-0.3-0.7-0.6c-0.2-0.3-0.3-0.6-0.3-1.1v-6.9L274.1,282.6z"/>
				</g>
				<g class="st6">
					<path class="st7" d="M280.5,291.7c-0.7,0-1.3-0.1-1.9-0.4s-1-0.7-1.3-1.2l1-0.7c0.2,0.4,0.5,0.8,0.9,1c0.4,0.2,0.9,0.4,1.4,0.4
						c0.5,0,0.9-0.1,1.2-0.3s0.4-0.4,0.4-0.7c0-0.2-0.1-0.4-0.2-0.5s-0.4-0.3-0.7-0.4l-1.7-0.3c-0.7-0.1-1.2-0.4-1.5-0.7
						c-0.3-0.3-0.4-0.7-0.4-1.2c0-0.4,0.1-0.7,0.3-1c0.2-0.3,0.5-0.6,0.9-0.8c0.4-0.2,0.9-0.3,1.4-0.3c0.7,0,1.3,0.1,1.8,0.4
						c0.5,0.3,0.8,0.7,1.1,1.1l-0.9,0.6c-0.2-0.4-0.4-0.7-0.8-0.9c-0.4-0.2-0.7-0.3-1.1-0.3c-0.3,0-0.6,0-0.9,0.1
						c-0.2,0.1-0.4,0.2-0.5,0.4s-0.2,0.3-0.2,0.6s0.1,0.4,0.2,0.6c0.1,0.2,0.4,0.3,0.8,0.4l1.8,0.4c0.7,0.1,1.1,0.3,1.4,0.6
						c0.3,0.3,0.4,0.7,0.4,1.1c0,0.4-0.1,0.8-0.4,1.2s-0.6,0.6-1,0.8S281,291.7,280.5,291.7z"/>
				</g>
				<g class="st6">
					<path class="st7" d="M285.5,289.9c0.3,0,0.5,0.1,0.7,0.3s0.3,0.4,0.3,0.7c0,0.3-0.1,0.5-0.3,0.7s-0.4,0.3-0.7,0.3
						s-0.5-0.1-0.7-0.3s-0.3-0.4-0.3-0.7c0-0.3,0.1-0.5,0.3-0.7S285.2,289.9,285.5,289.9z"/>
					<path class="st7" d="M293.9,282.3v9.2h-1.1v-9.2H293.9z"/>
					<path class="st7" d="M300.5,284.6v1h-5.1v-1H300.5z M297.9,282.6v7.1c0,0.3,0.1,0.6,0.3,0.8c0.2,0.2,0.4,0.3,0.8,0.3
						c0.3,0,0.5,0,0.7-0.1c0.2-0.1,0.4-0.2,0.5-0.4l0.4,0.9c-0.2,0.2-0.5,0.4-0.8,0.5c-0.3,0.1-0.6,0.2-1,0.2c-0.4,0-0.7-0.1-1-0.2
						c-0.3-0.1-0.6-0.3-0.7-0.6c-0.2-0.3-0.3-0.6-0.3-1.1v-6.9L297.9,282.6z"/>
				</g>
				<g class="st6">
					<path class="st7" d="M302.3,281.8c0.2,0,0.4,0.1,0.6,0.2c0.2,0.1,0.3,0.3,0.4,0.5c0.1,0.2,0.1,0.4,0.1,0.7
						c0,0.3-0.1,0.6-0.2,0.9s-0.3,0.6-0.5,0.8s-0.5,0.5-0.9,0.6l-0.6-0.5c0.3-0.1,0.5-0.2,0.7-0.3c0.2-0.1,0.3-0.3,0.5-0.5
						c0.1-0.2,0.2-0.4,0.2-0.6l-0.1,0c0,0-0.1,0.1-0.1,0.1c-0.1,0-0.1,0-0.3,0c-0.1,0-0.2,0-0.3-0.1s-0.2-0.2-0.3-0.3
						s-0.1-0.3-0.1-0.5c0-0.2,0-0.3,0.1-0.5s0.2-0.3,0.3-0.3C302,281.8,302.1,281.8,302.3,281.8z"/>
				</g>
				<g class="st6">
					<path class="st7" d="M306.8,291.7c-0.7,0-1.3-0.1-1.9-0.4c-0.6-0.3-1-0.7-1.3-1.2l1-0.7c0.2,0.4,0.5,0.8,0.9,1
						c0.4,0.2,0.9,0.4,1.4,0.4c0.5,0,0.9-0.1,1.2-0.3c0.3-0.2,0.4-0.4,0.4-0.7c0-0.2-0.1-0.4-0.2-0.5s-0.4-0.3-0.7-0.4l-1.7-0.3
						c-0.7-0.1-1.2-0.4-1.5-0.7c-0.3-0.3-0.4-0.7-0.4-1.2c0-0.4,0.1-0.7,0.3-1c0.2-0.3,0.5-0.6,0.9-0.8s0.9-0.3,1.4-0.3
						c0.7,0,1.3,0.1,1.8,0.4c0.5,0.3,0.8,0.7,1.1,1.1l-0.9,0.6c-0.2-0.4-0.4-0.7-0.8-0.9s-0.7-0.3-1.1-0.3c-0.3,0-0.6,0-0.9,0.1
						c-0.2,0.1-0.4,0.2-0.5,0.4s-0.2,0.3-0.2,0.6s0.1,0.4,0.2,0.6c0.1,0.2,0.4,0.3,0.8,0.4l1.8,0.4c0.7,0.1,1.1,0.3,1.4,0.6
						c0.3,0.3,0.4,0.7,0.4,1.1c0,0.4-0.1,0.8-0.3,1.2s-0.6,0.6-1,0.8C307.8,291.6,307.4,291.7,306.8,291.7z"/>
				</g>
				<g class="st6">
				</g>
				<g class="st6">
					<path class="st7" d="M319.7,287.1c0-0.5-0.1-0.9-0.4-1.2c-0.3-0.3-0.7-0.4-1.2-0.4c-0.5,0-0.9,0.1-1.2,0.3s-0.6,0.5-0.7,1
						l-0.9-0.6c0.2-0.5,0.5-0.9,1-1.3c0.5-0.3,1.1-0.5,1.9-0.5c0.5,0,1,0.1,1.4,0.3c0.4,0.2,0.7,0.4,1,0.8c0.2,0.3,0.4,0.8,0.4,1.4
						v3.4c0,0.3,0.2,0.5,0.5,0.5c0.2,0,0.4,0,0.5-0.1l-0.1,0.9c-0.2,0.1-0.4,0.1-0.7,0.1c-0.3,0-0.5-0.1-0.7-0.2s-0.4-0.3-0.5-0.5
						s-0.2-0.5-0.2-0.8v-0.1l0.3,0c-0.1,0.4-0.3,0.7-0.6,0.9c-0.3,0.2-0.6,0.4-0.9,0.5c-0.3,0.1-0.7,0.2-1,0.2
						c-0.4,0-0.8-0.1-1.1-0.2c-0.4-0.1-0.6-0.4-0.8-0.6c-0.2-0.3-0.3-0.6-0.3-1.1c0-0.5,0.2-1,0.5-1.3c0.4-0.3,0.8-0.6,1.5-0.7
						l2.8-0.5v0.9l-2.3,0.5c-0.5,0.1-0.8,0.2-1,0.4c-0.2,0.2-0.3,0.4-0.3,0.7c0,0.3,0.1,0.5,0.3,0.7c0.2,0.2,0.6,0.3,1,0.3
						c0.3,0,0.5,0,0.8-0.1c0.2-0.1,0.5-0.2,0.7-0.3c0.2-0.1,0.4-0.3,0.5-0.5c0.1-0.2,0.2-0.5,0.2-0.8V287.1z"/>
				</g>
				<g class="st6">
					<path class="st7" d="M327.1,291.6v-7h1l0.1,1.6L328,286c0.1-0.4,0.3-0.7,0.6-0.9c0.3-0.2,0.5-0.4,0.9-0.5
						c0.3-0.1,0.7-0.2,1-0.2c0.5,0,1,0.1,1.4,0.3s0.7,0.5,1,0.9c0.2,0.4,0.4,0.9,0.4,1.5v4.5h-1.1v-4.1c0-0.8-0.2-1.3-0.5-1.6
						c-0.3-0.3-0.7-0.5-1.2-0.5c-0.3,0-0.7,0.1-1,0.2c-0.3,0.2-0.6,0.4-0.8,0.8c-0.2,0.4-0.3,0.8-0.3,1.4v3.7H327.1z"/>
				</g>
				<g class="st6">
					<path class="st7" d="M338.3,291.7c-0.7,0-1.3-0.1-1.8-0.4c-0.5-0.3-0.9-0.7-1.2-1.3c-0.3-0.5-0.4-1.2-0.4-2s0.1-1.4,0.4-2
						c0.3-0.5,0.7-1,1.2-1.3s1.1-0.4,1.7-0.4c0.7,0,1.2,0.1,1.7,0.4c0.5,0.3,0.8,0.7,1.1,1.1c0.2,0.5,0.4,1,0.4,1.6
						c0,0.2,0,0.3,0,0.4c0,0.1,0,0.2,0,0.4h-5.7v-1h5.2l-0.6,0.1c0-0.7-0.2-1.2-0.6-1.6c-0.4-0.4-0.9-0.5-1.4-0.5
						c-0.5,0-0.9,0.1-1.2,0.3c-0.3,0.2-0.6,0.5-0.8,0.9c-0.2,0.4-0.3,0.9-0.3,1.4c0,0.6,0.1,1,0.3,1.4s0.5,0.7,0.8,0.9
						s0.7,0.3,1.2,0.3c0.5,0,0.9-0.1,1.3-0.3c0.3-0.2,0.6-0.5,0.8-0.8l0.9,0.5c-0.2,0.3-0.4,0.6-0.7,0.8s-0.6,0.4-1,0.5
						C339.2,291.7,338.8,291.7,338.3,291.7z"/>
				</g>
				<g class="st6">
					<path class="st7" d="M351.7,284.6h1.2l-2.4,7h-1.1l-2-5.6l-1.9,5.6h-1.1l-2.4-7h1.2l1.8,5.7l1.9-5.7h1.1l1.9,5.7L351.7,284.6z"
						/>
				</g>
				<g class="st6">
					<path class="st7" d="M45.9,319.7c-0.7,0-1.3-0.1-1.8-0.4s-0.9-0.7-1.2-1.3c-0.3-0.5-0.4-1.2-0.4-2s0.1-1.4,0.4-2
						c0.3-0.5,0.7-1,1.2-1.3s1.1-0.4,1.7-0.4c0.7,0,1.2,0.1,1.7,0.4c0.5,0.3,0.8,0.7,1.1,1.1c0.2,0.5,0.4,1,0.4,1.6
						c0,0.2,0,0.3,0,0.4c0,0.1,0,0.2,0,0.4h-5.7v-1h5.2l-0.6,0.1c0-0.7-0.2-1.2-0.6-1.6c-0.4-0.4-0.9-0.5-1.4-0.5
						c-0.5,0-0.9,0.1-1.2,0.3c-0.3,0.2-0.6,0.5-0.8,0.9c-0.2,0.4-0.3,0.9-0.3,1.4c0,0.6,0.1,1,0.3,1.4c0.2,0.4,0.5,0.7,0.8,0.9
						c0.3,0.2,0.7,0.3,1.2,0.3c0.5,0,0.9-0.1,1.3-0.3c0.3-0.2,0.6-0.5,0.8-0.8l0.9,0.5c-0.2,0.3-0.4,0.6-0.7,0.8
						c-0.3,0.2-0.6,0.4-1,0.5S46.4,319.7,45.9,319.7z"/>
					<path class="st7" d="M53.5,312.4c0.5,0,0.9,0.1,1.3,0.2s0.7,0.4,1,0.6c0.3,0.3,0.5,0.6,0.7,1l-1.1,0.5c-0.1-0.4-0.4-0.8-0.7-1
						c-0.3-0.2-0.7-0.4-1.2-0.4c-0.5,0-0.9,0.1-1.2,0.3c-0.3,0.2-0.6,0.5-0.8,0.9c-0.2,0.4-0.3,0.9-0.3,1.4c0,0.6,0.1,1,0.3,1.4
						c0.2,0.4,0.4,0.7,0.8,0.9c0.3,0.2,0.7,0.3,1.2,0.3c0.4,0,0.7-0.1,0.9-0.2c0.3-0.1,0.5-0.3,0.7-0.5s0.3-0.5,0.4-0.8l1,0.4
						c-0.2,0.4-0.4,0.8-0.7,1.1c-0.3,0.3-0.6,0.5-1,0.7c-0.4,0.2-0.8,0.2-1.3,0.2c-0.7,0-1.2-0.1-1.8-0.4c-0.5-0.3-0.9-0.7-1.2-1.3
						c-0.3-0.5-0.4-1.2-0.4-2s0.1-1.4,0.4-2c0.3-0.5,0.7-1,1.2-1.3C52.3,312.6,52.9,312.4,53.5,312.4z"/>
					<path class="st7" d="M61,312.4c0.7,0,1.2,0.1,1.8,0.4s0.9,0.7,1.2,1.3c0.3,0.5,0.4,1.2,0.4,2s-0.1,1.4-0.4,2
						c-0.3,0.5-0.7,1-1.2,1.3s-1.1,0.4-1.8,0.4c-0.7,0-1.2-0.1-1.8-0.4c-0.5-0.3-0.9-0.7-1.2-1.3c-0.3-0.5-0.4-1.2-0.4-2
						s0.1-1.4,0.4-2c0.3-0.5,0.7-1,1.2-1.3C59.7,312.6,60.3,312.4,61,312.4z M61,313.4c-0.5,0-0.9,0.1-1.2,0.3s-0.6,0.5-0.8,0.9
						c-0.2,0.4-0.3,0.9-0.3,1.4c0,0.6,0.1,1,0.3,1.4s0.4,0.7,0.8,0.9c0.3,0.2,0.7,0.3,1.2,0.3c0.5,0,0.9-0.1,1.2-0.3
						c0.3-0.2,0.6-0.5,0.8-0.9c0.2-0.4,0.3-0.9,0.3-1.4c0-0.6-0.1-1-0.3-1.4c-0.2-0.4-0.4-0.7-0.8-0.9S61.4,313.4,61,313.4z"/>
					<path class="st7" d="M66,319.6v-7h1l0.1,1.6l-0.2-0.2c0.1-0.4,0.3-0.7,0.6-0.9c0.3-0.2,0.5-0.4,0.9-0.5c0.3-0.1,0.7-0.2,1-0.2
						c0.5,0,1,0.1,1.4,0.3c0.4,0.2,0.7,0.5,1,0.9c0.2,0.4,0.4,0.9,0.4,1.5v4.5h-1.1v-4.1c0-0.8-0.2-1.3-0.5-1.6
						c-0.3-0.3-0.7-0.5-1.2-0.5c-0.3,0-0.7,0.1-1,0.2c-0.3,0.2-0.6,0.4-0.8,0.8c-0.2,0.4-0.3,0.8-0.3,1.4v3.7H66z"/>
					<path class="st7" d="M77.2,312.4c0.7,0,1.2,0.1,1.8,0.4s0.9,0.7,1.2,1.3c0.3,0.5,0.4,1.2,0.4,2s-0.1,1.4-0.4,2
						c-0.3,0.5-0.7,1-1.2,1.3s-1.1,0.4-1.8,0.4c-0.7,0-1.2-0.1-1.8-0.4c-0.5-0.3-0.9-0.7-1.2-1.3c-0.3-0.5-0.4-1.2-0.4-2
						s0.1-1.4,0.4-2c0.3-0.5,0.7-1,1.2-1.3C75.9,312.6,76.5,312.4,77.2,312.4z M77.2,313.4c-0.5,0-0.9,0.1-1.2,0.3s-0.6,0.5-0.8,0.9
						c-0.2,0.4-0.3,0.9-0.3,1.4c0,0.6,0.1,1,0.3,1.4s0.4,0.7,0.8,0.9c0.3,0.2,0.7,0.3,1.2,0.3c0.5,0,0.9-0.1,1.2-0.3
						c0.3-0.2,0.6-0.5,0.8-0.9c0.2-0.4,0.3-0.9,0.3-1.4c0-0.6-0.1-1-0.3-1.4c-0.2-0.4-0.4-0.7-0.8-0.9S77.7,313.4,77.2,313.4z"/>
				</g>
				<g class="st6">
					<path class="st7" d="M82.3,319.6v-7h1l0.1,1.1c0.3-0.4,0.6-0.7,1-0.9c0.4-0.2,0.8-0.3,1.3-0.3c0.5,0,1,0.1,1.4,0.3
						c0.4,0.2,0.8,0.6,1,1c0.1-0.3,0.4-0.6,0.6-0.8c0.3-0.2,0.6-0.3,0.9-0.4c0.3-0.1,0.6-0.1,0.9-0.1c0.4,0,0.9,0.1,1.3,0.3
						c0.4,0.2,0.7,0.5,1,0.9c0.3,0.4,0.4,0.9,0.4,1.5v4.5H92v-4.4c0-0.6-0.2-1.1-0.5-1.4c-0.3-0.3-0.7-0.4-1.2-0.4
						c-0.4,0-0.7,0.1-1,0.3c-0.3,0.2-0.6,0.4-0.8,0.8c-0.2,0.3-0.3,0.8-0.3,1.3v3.8h-1.1v-4.4c0-0.6-0.2-1.1-0.5-1.4
						c-0.3-0.3-0.7-0.4-1.2-0.4c-0.3,0-0.6,0.1-0.9,0.2c-0.3,0.2-0.6,0.4-0.8,0.8c-0.2,0.4-0.3,0.8-0.3,1.4v3.7H82.3z"/>
				</g>
				<g class="st6">
					<path class="st7" d="M100.8,312.6l-3.3,8.2c-0.2,0.5-0.4,0.8-0.6,1.1c-0.2,0.3-0.4,0.5-0.7,0.6c-0.3,0.1-0.6,0.2-0.9,0.2
						c-0.3,0-0.6,0-0.9-0.1c-0.3-0.1-0.5-0.2-0.7-0.4l0.3-1c0.2,0.2,0.4,0.3,0.6,0.4s0.4,0.1,0.6,0.1c0.2,0,0.5-0.1,0.7-0.2
						c0.2-0.1,0.4-0.5,0.6-0.9l0.4-0.9l-0.7-1.7l-2.2-5.3h1.3l1.8,4.6l0.4,1.2L98,317l1.6-4.4H100.8z"/>
				</g>
				<g class="st6">
					<path class="st7" d="M101.4,317.9c0.2,0,0.4,0.1,0.6,0.2c0.2,0.1,0.3,0.3,0.4,0.5c0.1,0.2,0.1,0.4,0.1,0.7
						c0,0.3-0.1,0.6-0.2,0.9s-0.3,0.6-0.5,0.8s-0.5,0.5-0.9,0.6l-0.6-0.5c0.3-0.1,0.5-0.2,0.7-0.3c0.2-0.1,0.3-0.3,0.5-0.5
						c0.1-0.2,0.2-0.4,0.2-0.6l-0.1,0c0,0-0.1,0.1-0.1,0.1c-0.1,0-0.1,0-0.3,0c-0.1,0-0.2,0-0.3-0.1s-0.2-0.2-0.3-0.3
						s-0.1-0.3-0.1-0.5c0-0.2,0-0.3,0.1-0.5s0.2-0.3,0.3-0.3C101.1,317.9,101.3,317.9,101.4,317.9z"/>
				</g>
				<g class="st6">
					<path class="st7" d="M112.6,315.1c0-0.5-0.1-0.9-0.4-1.2c-0.3-0.3-0.7-0.4-1.2-0.4c-0.5,0-0.9,0.1-1.2,0.3s-0.6,0.5-0.7,1
						l-0.9-0.6c0.2-0.5,0.5-0.9,1-1.3c0.5-0.3,1.1-0.5,1.9-0.5c0.5,0,1,0.1,1.4,0.3s0.7,0.4,1,0.8c0.2,0.3,0.4,0.8,0.4,1.4v3.4
						c0,0.3,0.2,0.5,0.5,0.5c0.2,0,0.3,0,0.5-0.1l-0.1,0.9c-0.2,0.1-0.4,0.1-0.7,0.1c-0.3,0-0.5-0.1-0.7-0.2s-0.4-0.3-0.5-0.5
						c-0.1-0.2-0.2-0.5-0.2-0.8v-0.1l0.3,0c-0.1,0.4-0.3,0.7-0.6,0.9c-0.3,0.2-0.6,0.4-0.9,0.5c-0.3,0.1-0.7,0.2-1,0.2
						c-0.4,0-0.8-0.1-1.1-0.2c-0.4-0.1-0.6-0.4-0.8-0.6c-0.2-0.3-0.3-0.6-0.3-1.1c0-0.5,0.2-1,0.5-1.3c0.3-0.3,0.8-0.6,1.5-0.7
						l2.8-0.5v0.9l-2.3,0.5c-0.5,0.1-0.8,0.2-1,0.4c-0.2,0.2-0.3,0.4-0.3,0.7c0,0.3,0.1,0.5,0.3,0.7c0.2,0.2,0.6,0.3,1,0.3
						c0.3,0,0.5,0,0.8-0.1c0.2-0.1,0.5-0.2,0.7-0.3s0.3-0.3,0.5-0.5c0.1-0.2,0.2-0.5,0.2-0.8V315.1z"/>
				</g>
				<g class="st6">
				</g>
				<g class="st6">
					<path class="st7" d="M123.8,312.6v1H119v-1H123.8z M122.7,309.3c0.2,0,0.5,0,0.7,0.1c0.2,0.1,0.4,0.1,0.5,0.2l-0.3,0.9
						c-0.1-0.1-0.2-0.1-0.4-0.2c-0.1,0-0.3,0-0.4,0c-0.4,0-0.7,0.1-0.9,0.3c-0.2,0.2-0.3,0.5-0.3,0.9v1.1v0.4v6.6h-1.1v-8.2
						c0-0.3,0-0.6,0.1-0.9c0.1-0.3,0.2-0.5,0.4-0.7c0.2-0.2,0.4-0.3,0.7-0.4C122,309.3,122.3,309.3,122.7,309.3z M125.9,311.2
						c-0.3,0-0.5-0.1-0.6-0.2c-0.2-0.2-0.2-0.4-0.2-0.6s0.1-0.5,0.2-0.6c0.2-0.2,0.4-0.2,0.6-0.2c0.3,0,0.5,0.1,0.6,0.2
						c0.2,0.2,0.2,0.4,0.2,0.6s-0.1,0.5-0.2,0.6C126.4,311.2,126.2,311.2,125.9,311.2z M126.5,312.6v7h-1.1v-7H126.5z"/>
					<path class="st7" d="M128.6,319.6v-7h1l0.1,1.6l-0.2-0.2c0.1-0.4,0.3-0.7,0.6-0.9c0.3-0.2,0.5-0.4,0.9-0.5
						c0.3-0.1,0.7-0.2,1-0.2c0.5,0,1,0.1,1.4,0.3c0.4,0.2,0.7,0.5,1,0.9c0.2,0.4,0.4,0.9,0.4,1.5v4.5h-1.1v-4.1
						c0-0.8-0.2-1.3-0.5-1.6c-0.3-0.3-0.7-0.5-1.2-0.5c-0.3,0-0.7,0.1-1,0.2c-0.3,0.2-0.6,0.4-0.8,0.8c-0.2,0.4-0.3,0.8-0.3,1.4v3.7
						H128.6z"/>
					<path class="st7" d="M141,315.1c0-0.5-0.1-0.9-0.4-1.2c-0.3-0.3-0.7-0.4-1.2-0.4c-0.5,0-0.9,0.1-1.2,0.3s-0.6,0.5-0.7,1
						l-0.9-0.6c0.2-0.5,0.5-0.9,1-1.3c0.5-0.3,1.1-0.5,1.9-0.5c0.5,0,1,0.1,1.4,0.3c0.4,0.2,0.7,0.4,1,0.8c0.2,0.3,0.4,0.8,0.4,1.4
						v3.4c0,0.3,0.2,0.5,0.5,0.5c0.2,0,0.4,0,0.5-0.1l-0.1,0.9c-0.2,0.1-0.4,0.1-0.7,0.1c-0.3,0-0.5-0.1-0.7-0.2s-0.4-0.3-0.5-0.5
						c-0.1-0.2-0.2-0.5-0.2-0.8v-0.1l0.3,0c-0.1,0.4-0.3,0.7-0.6,0.9c-0.3,0.2-0.6,0.4-0.9,0.5c-0.3,0.1-0.7,0.2-1,0.2
						c-0.4,0-0.8-0.1-1.1-0.2c-0.4-0.1-0.6-0.4-0.8-0.6c-0.2-0.3-0.3-0.6-0.3-1.1c0-0.5,0.2-1,0.5-1.3s0.8-0.6,1.5-0.7l2.8-0.5v0.9
						l-2.3,0.5c-0.5,0.1-0.8,0.2-1,0.4c-0.2,0.2-0.3,0.4-0.3,0.7c0,0.3,0.1,0.5,0.3,0.7c0.2,0.2,0.6,0.3,1,0.3c0.3,0,0.5,0,0.8-0.1
						c0.2-0.1,0.5-0.2,0.7-0.3c0.2-0.1,0.4-0.3,0.5-0.5c0.1-0.2,0.2-0.5,0.2-0.8V315.1z"/>
					<path class="st7" d="M144.4,319.6v-7h1l0.1,1.6l-0.2-0.2c0.1-0.4,0.3-0.7,0.6-0.9c0.3-0.2,0.5-0.4,0.9-0.5
						c0.3-0.1,0.7-0.2,1-0.2c0.5,0,1,0.1,1.4,0.3c0.4,0.2,0.7,0.5,1,0.9c0.2,0.4,0.4,0.9,0.4,1.5v4.5h-1.1v-4.1
						c0-0.8-0.2-1.3-0.5-1.6c-0.3-0.3-0.7-0.5-1.2-0.5c-0.3,0-0.7,0.1-1,0.2c-0.3,0.2-0.6,0.4-0.8,0.8c-0.2,0.4-0.3,0.8-0.3,1.4v3.7
						H144.4z"/>
					<path class="st7" d="M155.5,312.4c0.5,0,0.9,0.1,1.3,0.2s0.7,0.4,1,0.6c0.3,0.3,0.5,0.6,0.7,1l-1.1,0.5c-0.1-0.4-0.4-0.8-0.7-1
						c-0.3-0.2-0.7-0.4-1.2-0.4c-0.5,0-0.9,0.1-1.2,0.3c-0.3,0.2-0.6,0.5-0.8,0.9c-0.2,0.4-0.3,0.9-0.3,1.4c0,0.6,0.1,1,0.3,1.4
						c0.2,0.4,0.4,0.7,0.8,0.9c0.3,0.2,0.7,0.3,1.2,0.3c0.4,0,0.7-0.1,0.9-0.2c0.3-0.1,0.5-0.3,0.7-0.5s0.3-0.5,0.4-0.8l1,0.4
						c-0.2,0.4-0.4,0.8-0.7,1.1c-0.3,0.3-0.6,0.5-1,0.7c-0.4,0.2-0.8,0.2-1.3,0.2c-0.7,0-1.2-0.1-1.8-0.4c-0.5-0.3-0.9-0.7-1.2-1.3
						c-0.3-0.5-0.4-1.2-0.4-2s0.1-1.4,0.4-2c0.3-0.5,0.7-1,1.2-1.3C154.3,312.6,154.9,312.4,155.5,312.4z"/>
					<path class="st7" d="M160.6,311.2c-0.3,0-0.5-0.1-0.6-0.2c-0.2-0.2-0.2-0.4-0.2-0.6s0.1-0.5,0.2-0.6c0.2-0.2,0.4-0.2,0.6-0.2
						s0.5,0.1,0.6,0.2c0.2,0.2,0.2,0.4,0.2,0.6s-0.1,0.5-0.2,0.6C161.1,311.2,160.9,311.2,160.6,311.2z M161.2,312.6v7h-1.1v-7
						H161.2z"/>
					<path class="st7" d="M167.5,315.1c0-0.5-0.1-0.9-0.4-1.2c-0.3-0.3-0.7-0.4-1.2-0.4c-0.5,0-0.9,0.1-1.2,0.3s-0.6,0.5-0.7,1
						l-0.9-0.6c0.2-0.5,0.5-0.9,1-1.3c0.5-0.3,1.1-0.5,1.9-0.5c0.5,0,1,0.1,1.4,0.3c0.4,0.2,0.7,0.4,1,0.8c0.2,0.3,0.4,0.8,0.4,1.4
						v3.4c0,0.3,0.2,0.5,0.5,0.5c0.2,0,0.4,0,0.5-0.1l-0.1,0.9c-0.2,0.1-0.4,0.1-0.7,0.1c-0.3,0-0.5-0.1-0.7-0.2s-0.4-0.3-0.5-0.5
						c-0.1-0.2-0.2-0.5-0.2-0.8v-0.1l0.3,0c-0.1,0.4-0.3,0.7-0.6,0.9c-0.3,0.2-0.6,0.4-0.9,0.5c-0.3,0.1-0.7,0.2-1,0.2
						c-0.4,0-0.8-0.1-1.1-0.2c-0.4-0.1-0.6-0.4-0.8-0.6c-0.2-0.3-0.3-0.6-0.3-1.1c0-0.5,0.2-1,0.5-1.3s0.8-0.6,1.5-0.7l2.8-0.5v0.9
						l-2.3,0.5c-0.5,0.1-0.8,0.2-1,0.4c-0.2,0.2-0.3,0.4-0.3,0.7c0,0.3,0.1,0.5,0.3,0.7c0.2,0.2,0.6,0.3,1,0.3c0.3,0,0.5,0,0.8-0.1
						c0.2-0.1,0.5-0.2,0.7-0.3c0.2-0.1,0.4-0.3,0.5-0.5c0.1-0.2,0.2-0.5,0.2-0.8V315.1z"/>
				</g>
				<g class="st6">
					<path class="st7" d="M172,309.4v8.4c0,0.4,0.1,0.6,0.2,0.7c0.1,0.1,0.3,0.2,0.6,0.2c0.2,0,0.3,0,0.5,0c0.1,0,0.3-0.1,0.5-0.2
						l-0.2,1c-0.1,0.1-0.3,0.1-0.5,0.1c-0.2,0-0.4,0-0.5,0c-0.6,0-1-0.2-1.3-0.5c-0.3-0.3-0.4-0.8-0.4-1.4v-8.5H172z"/>
				</g>
				<g class="st6">
					<path class="st7" d="M181.6,319.7c-0.7,0-1.3-0.1-1.8-0.4s-0.9-0.7-1.2-1.3c-0.3-0.5-0.4-1.2-0.4-2s0.1-1.4,0.4-2
						c0.3-0.5,0.7-1,1.2-1.3s1.1-0.4,1.7-0.4c0.7,0,1.2,0.1,1.7,0.4c0.5,0.3,0.8,0.7,1.1,1.1c0.2,0.5,0.4,1,0.4,1.6
						c0,0.2,0,0.3,0,0.4c0,0.1,0,0.2,0,0.4h-5.7v-1h5.2l-0.6,0.1c0-0.7-0.2-1.2-0.6-1.6c-0.4-0.4-0.9-0.5-1.4-0.5
						c-0.5,0-0.9,0.1-1.2,0.3c-0.3,0.2-0.6,0.5-0.8,0.9c-0.2,0.4-0.3,0.9-0.3,1.4c0,0.6,0.1,1,0.3,1.4c0.2,0.4,0.5,0.7,0.8,0.9
						c0.3,0.2,0.7,0.3,1.2,0.3c0.5,0,0.9-0.1,1.3-0.3c0.3-0.2,0.6-0.5,0.8-0.8l0.9,0.5c-0.2,0.3-0.4,0.6-0.7,0.8
						c-0.3,0.2-0.6,0.4-1,0.5S182.1,319.7,181.6,319.7z"/>
					<path class="st7" d="M189.3,312.4c0.5,0,0.9,0.1,1.3,0.2s0.7,0.4,1,0.6c0.3,0.3,0.5,0.6,0.7,1l-1.1,0.5c-0.1-0.4-0.4-0.8-0.7-1
						c-0.3-0.2-0.7-0.4-1.2-0.4c-0.5,0-0.9,0.1-1.2,0.3c-0.3,0.2-0.6,0.5-0.8,0.9c-0.2,0.4-0.3,0.9-0.3,1.4c0,0.6,0.1,1,0.3,1.4
						c0.2,0.4,0.4,0.7,0.8,0.9c0.3,0.2,0.7,0.3,1.2,0.3c0.4,0,0.7-0.1,0.9-0.2c0.3-0.1,0.5-0.3,0.7-0.5s0.3-0.5,0.4-0.8l1,0.4
						c-0.2,0.4-0.4,0.8-0.7,1.1c-0.3,0.3-0.6,0.5-1,0.7c-0.4,0.2-0.8,0.2-1.3,0.2c-0.7,0-1.2-0.1-1.8-0.4c-0.5-0.3-0.9-0.7-1.2-1.3
						c-0.3-0.5-0.4-1.2-0.4-2s0.1-1.4,0.4-2c0.3-0.5,0.7-1,1.2-1.3C188,312.6,188.6,312.4,189.3,312.4z"/>
					<path class="st7" d="M196.7,312.4c0.7,0,1.2,0.1,1.8,0.4s0.9,0.7,1.2,1.3c0.3,0.5,0.4,1.2,0.4,2s-0.1,1.4-0.4,2
						c-0.3,0.5-0.7,1-1.2,1.3s-1.1,0.4-1.8,0.4c-0.7,0-1.2-0.1-1.8-0.4c-0.5-0.3-0.9-0.7-1.2-1.3c-0.3-0.5-0.4-1.2-0.4-2
						s0.1-1.4,0.4-2c0.3-0.5,0.7-1,1.2-1.3C195.4,312.6,196,312.4,196.7,312.4z M196.7,313.4c-0.5,0-0.9,0.1-1.2,0.3
						s-0.6,0.5-0.8,0.9c-0.2,0.4-0.3,0.9-0.3,1.4c0,0.6,0.1,1,0.3,1.4s0.4,0.7,0.8,0.9c0.3,0.2,0.7,0.3,1.2,0.3
						c0.5,0,0.9-0.1,1.2-0.3c0.3-0.2,0.6-0.5,0.8-0.9c0.2-0.4,0.3-0.9,0.3-1.4c0-0.6-0.1-1-0.3-1.4c-0.2-0.4-0.4-0.7-0.8-0.9
						S197.1,313.4,196.7,313.4z"/>
				</g>
				<g class="st6">
					<path class="st7" d="M204.3,319.7c-0.7,0-1.3-0.1-1.9-0.4s-1-0.7-1.3-1.2l1-0.7c0.2,0.4,0.5,0.8,0.9,1c0.4,0.2,0.9,0.4,1.4,0.4
						c0.5,0,0.9-0.1,1.2-0.3s0.4-0.4,0.4-0.7c0-0.2-0.1-0.4-0.2-0.5s-0.4-0.3-0.7-0.4l-1.7-0.3c-0.7-0.1-1.2-0.4-1.5-0.7
						c-0.3-0.3-0.4-0.7-0.4-1.2c0-0.4,0.1-0.7,0.3-1c0.2-0.3,0.5-0.6,0.9-0.8c0.4-0.2,0.9-0.3,1.4-0.3c0.7,0,1.3,0.1,1.8,0.4
						c0.5,0.3,0.8,0.7,1.1,1.1l-0.9,0.6c-0.2-0.4-0.4-0.7-0.8-0.9c-0.4-0.2-0.7-0.3-1.1-0.3c-0.3,0-0.6,0-0.9,0.1
						c-0.2,0.1-0.4,0.2-0.5,0.4s-0.2,0.3-0.2,0.6s0.1,0.4,0.2,0.6c0.1,0.2,0.4,0.3,0.8,0.4l1.8,0.4c0.7,0.1,1.1,0.3,1.4,0.6
						c0.3,0.3,0.4,0.7,0.4,1.1c0,0.4-0.1,0.8-0.4,1.2s-0.6,0.6-1,0.8S204.9,319.7,204.3,319.7z"/>
				</g>
				<g class="st6">
					<path class="st7" d="M214.1,312.6l-3.3,8.2c-0.2,0.5-0.4,0.8-0.6,1.1c-0.2,0.3-0.4,0.5-0.7,0.6c-0.3,0.1-0.6,0.2-0.9,0.2
						c-0.3,0-0.6,0-0.9-0.1c-0.3-0.1-0.5-0.2-0.7-0.4l0.3-1c0.2,0.2,0.4,0.3,0.6,0.4s0.4,0.1,0.6,0.1c0.2,0,0.5-0.1,0.7-0.2
						c0.2-0.1,0.4-0.5,0.6-0.9l0.4-0.9l-0.7-1.7l-2.2-5.3h1.3l1.8,4.6l0.4,1.2l0.5-1.4l1.6-4.4H214.1z"/>
				</g>
				<g class="st6">
					<path class="st7" d="M217.5,319.7c-0.7,0-1.3-0.1-1.9-0.4c-0.6-0.3-1-0.7-1.3-1.2l1-0.7c0.2,0.4,0.5,0.8,0.9,1
						c0.4,0.2,0.9,0.4,1.4,0.4c0.5,0,0.9-0.1,1.2-0.3c0.3-0.2,0.4-0.4,0.4-0.7c0-0.2-0.1-0.4-0.2-0.5s-0.4-0.3-0.7-0.4l-1.7-0.3
						c-0.7-0.1-1.2-0.4-1.5-0.7c-0.3-0.3-0.4-0.7-0.4-1.2c0-0.4,0.1-0.7,0.3-1c0.2-0.3,0.5-0.6,0.9-0.8s0.9-0.3,1.4-0.3
						c0.7,0,1.3,0.1,1.8,0.4c0.5,0.3,0.8,0.7,1.1,1.1l-0.9,0.6c-0.2-0.4-0.4-0.7-0.8-0.9s-0.7-0.3-1.1-0.3c-0.3,0-0.6,0-0.9,0.1
						c-0.2,0.1-0.4,0.2-0.5,0.4s-0.2,0.3-0.2,0.6s0.1,0.4,0.2,0.6c0.1,0.2,0.4,0.3,0.8,0.4l1.8,0.4c0.7,0.1,1.1,0.3,1.4,0.6
						c0.3,0.3,0.4,0.7,0.4,1.1c0,0.4-0.1,0.8-0.3,1.2s-0.6,0.6-1,0.8C218.6,319.6,218.1,319.7,217.5,319.7z"/>
					<path class="st7" d="M226.2,312.6v1h-5.1v-1H226.2z M223.6,310.6v7.1c0,0.3,0.1,0.6,0.3,0.8c0.2,0.2,0.4,0.3,0.8,0.3
						c0.3,0,0.5,0,0.7-0.1c0.2-0.1,0.4-0.2,0.5-0.4l0.4,0.9c-0.2,0.2-0.5,0.4-0.8,0.5c-0.3,0.1-0.6,0.2-1,0.2c-0.4,0-0.7-0.1-1-0.2
						c-0.3-0.1-0.6-0.3-0.7-0.6c-0.2-0.3-0.3-0.6-0.3-1.1v-6.9L223.6,310.6z"/>
					<path class="st7" d="M230.3,319.7c-0.7,0-1.3-0.1-1.8-0.4c-0.5-0.3-0.9-0.7-1.2-1.3s-0.4-1.2-0.4-2s0.1-1.4,0.4-2
						s0.7-1,1.2-1.3s1.1-0.4,1.7-0.4c0.7,0,1.2,0.1,1.7,0.4c0.5,0.3,0.8,0.7,1.1,1.1c0.2,0.5,0.4,1,0.4,1.6c0,0.2,0,0.3,0,0.4
						c0,0.1,0,0.2,0,0.4h-5.7v-1h5.2l-0.6,0.1c0-0.7-0.2-1.2-0.6-1.6c-0.4-0.4-0.9-0.5-1.4-0.5c-0.5,0-0.9,0.1-1.2,0.3
						s-0.6,0.5-0.8,0.9c-0.2,0.4-0.3,0.9-0.3,1.4c0,0.6,0.1,1,0.3,1.4c0.2,0.4,0.5,0.7,0.8,0.9c0.3,0.2,0.7,0.3,1.2,0.3
						c0.5,0,0.9-0.1,1.3-0.3c0.3-0.2,0.6-0.5,0.8-0.8l0.9,0.5c-0.2,0.3-0.4,0.6-0.7,0.8c-0.3,0.2-0.6,0.4-1,0.5
						C231.2,319.7,230.8,319.7,230.3,319.7z"/>
					<path class="st7" d="M235.1,319.6v-7h1l0.1,1.1c0.3-0.4,0.6-0.7,1-0.9c0.4-0.2,0.8-0.3,1.3-0.3c0.5,0,1,0.1,1.4,0.3
						c0.4,0.2,0.8,0.6,1,1c0.1-0.3,0.4-0.6,0.6-0.8c0.3-0.2,0.6-0.3,0.9-0.4c0.3-0.1,0.6-0.1,0.9-0.1c0.4,0,0.9,0.1,1.3,0.3
						c0.4,0.2,0.7,0.5,1,0.9c0.3,0.4,0.4,0.9,0.4,1.5v4.5h-1.1v-4.4c0-0.6-0.2-1.1-0.5-1.4c-0.3-0.3-0.7-0.4-1.2-0.4
						c-0.4,0-0.7,0.1-1,0.3c-0.3,0.2-0.6,0.4-0.8,0.8c-0.2,0.3-0.3,0.8-0.3,1.3v3.8h-1.1v-4.4c0-0.6-0.2-1.1-0.5-1.4
						c-0.3-0.3-0.7-0.4-1.2-0.4c-0.3,0-0.6,0.1-0.9,0.2s-0.6,0.4-0.8,0.8c-0.2,0.4-0.3,0.8-0.3,1.4v3.7H235.1z"/>
				</g>
				<g class="st6">
				</g>
				<g class="st6">
					<path class="st7" d="M256.3,312.6v1h-5.1v-1H256.3z M253.8,310.6v7.1c0,0.3,0.1,0.6,0.3,0.8c0.2,0.2,0.4,0.3,0.8,0.3
						c0.3,0,0.5,0,0.7-0.1c0.2-0.1,0.4-0.2,0.5-0.4l0.4,0.9c-0.2,0.2-0.5,0.4-0.8,0.5c-0.3,0.1-0.6,0.2-1,0.2c-0.4,0-0.7-0.1-1-0.2
						c-0.3-0.1-0.6-0.3-0.7-0.6c-0.2-0.3-0.3-0.6-0.3-1.1v-6.9L253.8,310.6z"/>
					<path class="st7" d="M257.6,319.6v-10.2h1.1v4.3c0.2-0.4,0.6-0.7,1-0.9c0.4-0.2,0.8-0.3,1.3-0.3c0.5,0,1,0.1,1.4,0.3
						s0.7,0.5,1,0.9c0.2,0.4,0.4,0.9,0.4,1.5v4.5h-1.1v-4.1c0-0.8-0.2-1.3-0.5-1.6c-0.3-0.3-0.7-0.5-1.2-0.5c-0.3,0-0.7,0.1-1,0.2
						c-0.3,0.2-0.6,0.4-0.8,0.8c-0.2,0.4-0.3,0.8-0.3,1.4v3.7H257.6z"/>
				</g>
				<g class="st6">
					<path class="st7" d="M269.9,315.1c0-0.5-0.1-0.9-0.4-1.2c-0.3-0.3-0.7-0.4-1.2-0.4c-0.5,0-0.9,0.1-1.2,0.3s-0.6,0.5-0.7,1
						l-0.9-0.6c0.2-0.5,0.5-0.9,1-1.3c0.5-0.3,1.1-0.5,1.9-0.5c0.5,0,1,0.1,1.4,0.3s0.7,0.4,1,0.8c0.2,0.3,0.4,0.8,0.4,1.4v3.4
						c0,0.3,0.2,0.5,0.5,0.5c0.2,0,0.3,0,0.5-0.1l-0.1,0.9c-0.2,0.1-0.4,0.1-0.7,0.1c-0.3,0-0.5-0.1-0.7-0.2s-0.4-0.3-0.5-0.5
						c-0.1-0.2-0.2-0.5-0.2-0.8v-0.1l0.3,0c-0.1,0.4-0.3,0.7-0.6,0.9c-0.3,0.2-0.6,0.4-0.9,0.5c-0.3,0.1-0.7,0.2-1,0.2
						c-0.4,0-0.8-0.1-1.1-0.2c-0.4-0.1-0.6-0.4-0.8-0.6c-0.2-0.3-0.3-0.6-0.3-1.1c0-0.5,0.2-1,0.5-1.3c0.3-0.3,0.8-0.6,1.5-0.7
						l2.8-0.5v0.9l-2.3,0.5c-0.5,0.1-0.8,0.2-1,0.4c-0.2,0.2-0.3,0.4-0.3,0.7c0,0.3,0.1,0.5,0.3,0.7c0.2,0.2,0.6,0.3,1,0.3
						c0.3,0,0.5,0,0.8-0.1c0.2-0.1,0.5-0.2,0.7-0.3s0.3-0.3,0.5-0.5c0.1-0.2,0.2-0.5,0.2-0.8V315.1z"/>
				</g>
				<g class="st6">
					<path class="st7" d="M277.3,312.6v1h-5.1v-1H277.3z M274.7,310.6v7.1c0,0.3,0.1,0.6,0.3,0.8c0.2,0.2,0.4,0.3,0.8,0.3
						c0.3,0,0.5,0,0.7-0.1c0.2-0.1,0.4-0.2,0.5-0.4l0.4,0.9c-0.2,0.2-0.5,0.4-0.8,0.5c-0.3,0.1-0.6,0.2-1,0.2c-0.4,0-0.7-0.1-1-0.2
						c-0.3-0.1-0.6-0.3-0.7-0.6c-0.2-0.3-0.3-0.6-0.3-1.1v-6.9L274.7,310.6z"/>
				</g>
				<g class="st6">
					<path class="st7" d="M279.1,309.8c0.2,0,0.4,0.1,0.6,0.2c0.2,0.1,0.3,0.3,0.4,0.5c0.1,0.2,0.1,0.4,0.1,0.7
						c0,0.3-0.1,0.6-0.2,0.9s-0.3,0.6-0.5,0.8c-0.2,0.3-0.5,0.5-0.9,0.6L278,313c0.3-0.1,0.5-0.2,0.7-0.3s0.3-0.3,0.5-0.5
						c0.1-0.2,0.2-0.4,0.2-0.6l-0.1,0c0,0-0.1,0.1-0.1,0.1c-0.1,0-0.1,0-0.3,0c-0.1,0-0.2,0-0.3-0.1c-0.1-0.1-0.2-0.2-0.3-0.3
						s-0.1-0.3-0.1-0.5c0-0.2,0-0.3,0.1-0.5s0.2-0.3,0.3-0.3C278.8,309.8,278.9,309.8,279.1,309.8z"/>
				</g>
				<g class="st6">
					<path class="st7" d="M283.6,319.7c-0.7,0-1.3-0.1-1.9-0.4s-1-0.7-1.3-1.2l1-0.7c0.2,0.4,0.5,0.8,0.9,1c0.4,0.2,0.9,0.4,1.4,0.4
						c0.5,0,0.9-0.1,1.2-0.3c0.3-0.2,0.4-0.4,0.4-0.7c0-0.2-0.1-0.4-0.2-0.5s-0.4-0.3-0.7-0.4l-1.7-0.3c-0.7-0.1-1.2-0.4-1.5-0.7
						c-0.3-0.3-0.4-0.7-0.4-1.2c0-0.4,0.1-0.7,0.3-1c0.2-0.3,0.5-0.6,0.9-0.8c0.4-0.2,0.9-0.3,1.4-0.3c0.7,0,1.3,0.1,1.8,0.4
						c0.5,0.3,0.8,0.7,1.1,1.1l-0.9,0.6c-0.2-0.4-0.4-0.7-0.8-0.9s-0.7-0.3-1.1-0.3c-0.3,0-0.6,0-0.9,0.1c-0.2,0.1-0.4,0.2-0.5,0.4
						s-0.2,0.3-0.2,0.6s0.1,0.4,0.2,0.6c0.1,0.2,0.4,0.3,0.8,0.4l1.8,0.4c0.7,0.1,1.1,0.3,1.4,0.6s0.4,0.7,0.4,1.1
						c0,0.4-0.1,0.8-0.3,1.2s-0.6,0.6-1,0.8C284.6,319.6,284.1,319.7,283.6,319.7z"/>
					<path class="st7" d="M295.1,319.7c-0.6,0-1.1-0.1-1.6-0.4c-0.5-0.3-0.9-0.7-1.2-1.3c-0.3-0.5-0.4-1.2-0.4-2
						c0-0.8,0.2-1.4,0.5-2c0.3-0.5,0.7-1,1.2-1.2s1-0.4,1.6-0.4c0.6,0,1.1,0.1,1.5,0.4c0.4,0.3,0.7,0.7,0.8,1.2l-0.1,0.1v-4.8h1.1
						v10.2h-1l-0.1-1.7l0.2-0.1c-0.1,0.4-0.2,0.8-0.5,1c-0.2,0.3-0.6,0.5-0.9,0.7S295.5,319.7,295.1,319.7z M295.2,318.7
						c0.4,0,0.8-0.1,1.2-0.3c0.3-0.2,0.6-0.5,0.8-1s0.3-0.9,0.3-1.5c0-0.5-0.1-1-0.3-1.4s-0.4-0.7-0.8-0.9c-0.3-0.2-0.7-0.3-1.1-0.3
						c-0.7,0-1.3,0.2-1.7,0.7s-0.6,1.1-0.6,1.9s0.2,1.4,0.6,1.9C294,318.5,294.5,318.7,295.2,318.7z"/>
					<path class="st7" d="M303.6,319.7c-0.7,0-1.3-0.1-1.8-0.4s-0.9-0.7-1.2-1.3s-0.4-1.2-0.4-2s0.1-1.4,0.4-2s0.7-1,1.2-1.3
						s1.1-0.4,1.7-0.4c0.7,0,1.2,0.1,1.7,0.4c0.5,0.3,0.8,0.7,1.1,1.1c0.2,0.5,0.4,1,0.4,1.6c0,0.2,0,0.3,0,0.4c0,0.1,0,0.2,0,0.4
						H301v-1h5.2l-0.6,0.1c0-0.7-0.2-1.2-0.6-1.6c-0.4-0.4-0.9-0.5-1.4-0.5c-0.5,0-0.9,0.1-1.2,0.3c-0.3,0.2-0.6,0.5-0.8,0.9
						c-0.2,0.4-0.3,0.9-0.3,1.4c0,0.6,0.1,1,0.3,1.4c0.2,0.4,0.5,0.7,0.8,0.9c0.3,0.2,0.8,0.3,1.2,0.3c0.5,0,0.9-0.1,1.3-0.3
						c0.3-0.2,0.6-0.5,0.8-0.8l0.9,0.5c-0.2,0.3-0.4,0.6-0.7,0.8c-0.3,0.2-0.6,0.4-1,0.5S304.1,319.7,303.6,319.7z"/>
					<path class="st7" d="M310.9,319.7c-0.7,0-1.3-0.1-1.9-0.4c-0.6-0.3-1-0.7-1.3-1.2l1-0.7c0.2,0.4,0.5,0.8,0.9,1
						c0.4,0.2,0.9,0.4,1.4,0.4c0.5,0,0.9-0.1,1.2-0.3s0.4-0.4,0.4-0.7c0-0.2-0.1-0.4-0.2-0.5c-0.1-0.2-0.4-0.3-0.7-0.4l-1.7-0.3
						c-0.7-0.1-1.2-0.4-1.5-0.7c-0.3-0.3-0.4-0.7-0.4-1.2c0-0.4,0.1-0.7,0.3-1s0.5-0.6,0.9-0.8c0.4-0.2,0.9-0.3,1.4-0.3
						c0.7,0,1.3,0.1,1.8,0.4c0.5,0.3,0.8,0.7,1.1,1.1l-0.9,0.6c-0.2-0.4-0.4-0.7-0.8-0.9c-0.4-0.2-0.7-0.3-1.1-0.3
						c-0.3,0-0.6,0-0.9,0.1c-0.2,0.1-0.4,0.2-0.5,0.4c-0.1,0.2-0.2,0.3-0.2,0.6s0.1,0.4,0.2,0.6s0.4,0.3,0.8,0.4l1.8,0.4
						c0.7,0.1,1.1,0.3,1.4,0.6c0.3,0.3,0.4,0.7,0.4,1.1c0,0.4-0.1,0.8-0.3,1.2c-0.2,0.3-0.6,0.6-1,0.8S311.5,319.7,310.9,319.7z"/>
					<path class="st7" d="M315.9,311.2c-0.3,0-0.5-0.1-0.6-0.2c-0.2-0.2-0.2-0.4-0.2-0.6s0.1-0.5,0.2-0.6s0.4-0.2,0.6-0.2
						s0.5,0.1,0.6,0.2c0.2,0.2,0.2,0.4,0.2,0.6s-0.1,0.5-0.2,0.6C316.4,311.2,316.1,311.2,315.9,311.2z M316.5,312.6v7h-1.1v-7
						H316.5z"/>
					<path class="st7" d="M322.4,318.7c0.7,0,1.2,0.2,1.6,0.5c0.4,0.3,0.6,0.7,0.6,1.2c0,0.5-0.2,0.9-0.5,1.2s-0.7,0.6-1.2,0.8
						c-0.5,0.2-1.1,0.3-1.7,0.3c-1.1,0-1.9-0.2-2.5-0.6c-0.5-0.4-0.8-0.8-0.8-1.3c0-0.4,0.1-0.7,0.4-1c0.2-0.3,0.7-0.5,1.3-0.5
						l-0.1,0.2c-0.3-0.1-0.6-0.2-0.8-0.4c-0.2-0.2-0.3-0.5-0.3-0.9c0-0.4,0.1-0.7,0.4-1s0.7-0.4,1.3-0.5l0.7,0.4h-0.1
						c-0.5,0-0.8,0.2-1,0.3c-0.2,0.2-0.3,0.4-0.3,0.6c0,0.3,0.1,0.5,0.3,0.6s0.5,0.2,0.8,0.2H322.4z M321,312.4
						c0.6,0,1.1,0.1,1.5,0.3c0.4,0.2,0.8,0.5,1,0.8s0.4,0.8,0.4,1.2c0,0.5-0.1,0.9-0.4,1.2s-0.6,0.6-1,0.8c-0.4,0.2-0.9,0.3-1.5,0.3
						c-0.9,0-1.6-0.2-2.1-0.7s-0.7-1-0.7-1.7c0-0.5,0.1-0.9,0.4-1.2s0.6-0.6,1-0.8C320,312.5,320.5,312.4,321,312.4z M321.1,321.7
						c0.5,0,1-0.1,1.3-0.2c0.3-0.1,0.6-0.3,0.8-0.4c0.2-0.2,0.3-0.4,0.3-0.6c0-0.3-0.1-0.5-0.3-0.6c-0.2-0.1-0.6-0.2-1.1-0.2h-2.2
						c-0.3,0-0.6,0.1-0.8,0.2c-0.2,0.2-0.3,0.4-0.3,0.6c0,0.3,0.2,0.6,0.6,0.8S320.4,321.7,321.1,321.7z M321,313.3
						c-0.5,0-0.9,0.1-1.2,0.4c-0.3,0.3-0.5,0.6-0.5,1.1c0,0.4,0.2,0.8,0.5,1.1c0.3,0.3,0.7,0.4,1.2,0.4c0.5,0,0.9-0.1,1.2-0.4
						s0.5-0.6,0.5-1.1c0-0.4-0.2-0.8-0.5-1.1S321.5,313.3,321,313.3z M324.5,311.3l0.3,1c0,0,0,0,0,0s0,0-0.1,0
						c-0.5,0-0.8,0.1-1.1,0.3c-0.2,0.2-0.4,0.5-0.4,0.9l-0.7-0.3c0-0.4,0.1-0.7,0.3-1c0.2-0.3,0.4-0.5,0.7-0.6
						C323.8,311.4,324.1,311.3,324.5,311.3C324.5,311.3,324.5,311.3,324.5,311.3C324.5,311.3,324.5,311.3,324.5,311.3z"/>
					<path class="st7" d="M325.7,319.6v-7h1l0.1,1.6l-0.2-0.2c0.1-0.4,0.3-0.7,0.6-0.9c0.3-0.2,0.5-0.4,0.9-0.5
						c0.3-0.1,0.7-0.2,1-0.2c0.5,0,1,0.1,1.4,0.3c0.4,0.2,0.7,0.5,1,0.9c0.2,0.4,0.4,0.9,0.4,1.5v4.5h-1.1v-4.1
						c0-0.8-0.2-1.3-0.5-1.6c-0.3-0.3-0.7-0.5-1.2-0.5c-0.3,0-0.7,0.1-1,0.2c-0.3,0.2-0.6,0.4-0.8,0.8c-0.2,0.4-0.3,0.8-0.3,1.4v3.7
						H325.7z"/>
					<path class="st7" d="M336.8,319.7c-0.7,0-1.3-0.1-1.8-0.4s-0.9-0.7-1.2-1.3s-0.4-1.2-0.4-2s0.1-1.4,0.4-2s0.7-1,1.2-1.3
						s1.1-0.4,1.7-0.4c0.7,0,1.2,0.1,1.7,0.4c0.5,0.3,0.8,0.7,1.1,1.1c0.2,0.5,0.4,1,0.4,1.6c0,0.2,0,0.3,0,0.4c0,0.1,0,0.2,0,0.4
						h-5.7v-1h5.2l-0.6,0.1c0-0.7-0.2-1.2-0.6-1.6c-0.4-0.4-0.9-0.5-1.4-0.5c-0.5,0-0.9,0.1-1.2,0.3c-0.3,0.2-0.6,0.5-0.8,0.9
						c-0.2,0.4-0.3,0.9-0.3,1.4c0,0.6,0.1,1,0.3,1.4c0.2,0.4,0.5,0.7,0.8,0.9c0.3,0.2,0.8,0.3,1.2,0.3c0.5,0,0.9-0.1,1.3-0.3
						c0.3-0.2,0.6-0.5,0.8-0.8l0.9,0.5c-0.2,0.3-0.4,0.6-0.7,0.8c-0.3,0.2-0.6,0.4-1,0.5S337.3,319.7,336.8,319.7z"/>
					<path class="st7" d="M344.3,319.7c-0.6,0-1.1-0.1-1.6-0.4s-0.9-0.7-1.2-1.3s-0.4-1.2-0.4-2c0-0.8,0.2-1.4,0.5-2
						c0.3-0.5,0.7-1,1.2-1.2s1-0.4,1.6-0.4s1.1,0.1,1.5,0.4c0.4,0.3,0.7,0.7,0.8,1.2l-0.1,0.1v-4.8h1.1v10.2h-1l-0.1-1.7l0.2-0.1
						c-0.1,0.4-0.2,0.8-0.5,1c-0.2,0.3-0.6,0.5-0.9,0.7S344.7,319.7,344.3,319.7z M344.4,318.7c0.4,0,0.8-0.1,1.2-0.3
						c0.3-0.2,0.6-0.5,0.8-1c0.2-0.4,0.3-0.9,0.3-1.5c0-0.5-0.1-1-0.3-1.4c-0.2-0.4-0.4-0.7-0.8-0.9c-0.3-0.2-0.7-0.3-1.1-0.3
						c-0.7,0-1.3,0.2-1.7,0.7c-0.4,0.5-0.6,1.1-0.6,1.9s0.2,1.4,0.6,1.9C343.2,318.5,343.7,318.7,344.4,318.7z"/>
				</g>
				<g class="st6">
				</g>
				<g class="st6">
					<path class="st7" d="M358.3,312.6v1h-5.1v-1H358.3z M355.8,310.6v7.1c0,0.3,0.1,0.6,0.3,0.8s0.4,0.3,0.8,0.3
						c0.3,0,0.5,0,0.7-0.1c0.2-0.1,0.4-0.2,0.5-0.4l0.4,0.9c-0.2,0.2-0.5,0.4-0.8,0.5c-0.3,0.1-0.6,0.2-1,0.2c-0.4,0-0.7-0.1-1-0.2
						c-0.3-0.1-0.6-0.3-0.7-0.6c-0.2-0.3-0.3-0.6-0.3-1.1v-6.9L355.8,310.6z"/>
					<path class="st7" d="M362.5,312.4c0.7,0,1.2,0.1,1.8,0.4s0.9,0.7,1.2,1.3c0.3,0.5,0.4,1.2,0.4,2s-0.1,1.4-0.4,2
						c-0.3,0.5-0.7,1-1.2,1.3s-1.1,0.4-1.8,0.4c-0.7,0-1.2-0.1-1.8-0.4c-0.5-0.3-0.9-0.7-1.2-1.3c-0.3-0.5-0.4-1.2-0.4-2
						s0.1-1.4,0.4-2c0.3-0.5,0.7-1,1.2-1.3C361.2,312.6,361.8,312.4,362.5,312.4z M362.5,313.4c-0.5,0-0.9,0.1-1.2,0.3
						s-0.6,0.5-0.8,0.9c-0.2,0.4-0.3,0.9-0.3,1.4c0,0.6,0.1,1,0.3,1.4c0.2,0.4,0.4,0.7,0.8,0.9c0.3,0.2,0.7,0.3,1.2,0.3
						c0.5,0,0.9-0.1,1.2-0.3c0.3-0.2,0.6-0.5,0.8-0.9c0.2-0.4,0.3-0.9,0.3-1.4c0-0.6-0.1-1-0.3-1.4c-0.2-0.4-0.4-0.7-0.8-0.9
						S363,313.4,362.5,313.4z"/>
				</g>
				<g class="st6">
					<path class="st7" d="M46.4,347.7c-0.4,0-0.8-0.1-1.1-0.2c-0.3-0.1-0.6-0.3-0.9-0.6s-0.4-0.5-0.5-0.9l0.2-0.2l-0.1,1.7h-1v-10.2
						h1.1v4.8L44,342c0.2-0.4,0.5-0.8,0.9-1.1s0.9-0.4,1.5-0.4c0.6,0,1.1,0.1,1.6,0.4s0.9,0.7,1.2,1.2c0.3,0.5,0.4,1.2,0.4,2
						c0,0.8-0.1,1.4-0.4,2s-0.7,1-1.2,1.3C47.5,347.6,47,347.7,46.4,347.7z M46.3,346.7c0.7,0,1.2-0.2,1.6-0.7
						c0.4-0.5,0.6-1.1,0.6-1.9s-0.2-1.4-0.6-1.9c-0.4-0.5-0.9-0.7-1.6-0.7c-0.4,0-0.8,0.1-1.2,0.3c-0.3,0.2-0.6,0.5-0.8,0.9
						c-0.2,0.4-0.3,0.9-0.3,1.4c0,0.5,0.1,1,0.3,1.4c0.2,0.4,0.4,0.7,0.8,0.9C45.5,346.6,45.9,346.7,46.3,346.7z"/>
					<path class="st7" d="M54.3,347.7c-0.7,0-1.3-0.1-1.8-0.4s-0.9-0.7-1.2-1.3c-0.3-0.5-0.4-1.2-0.4-2s0.1-1.4,0.4-2
						c0.3-0.5,0.7-1,1.2-1.3s1.1-0.4,1.7-0.4c0.7,0,1.2,0.1,1.7,0.4c0.5,0.3,0.8,0.7,1.1,1.1c0.2,0.5,0.4,1,0.4,1.6
						c0,0.2,0,0.3,0,0.4c0,0.1,0,0.2,0,0.4h-5.7v-1h5.2l-0.6,0.1c0-0.7-0.2-1.2-0.6-1.6c-0.4-0.4-0.9-0.5-1.4-0.5
						c-0.5,0-0.9,0.1-1.2,0.3c-0.3,0.2-0.6,0.5-0.8,0.9c-0.2,0.4-0.3,0.9-0.3,1.4c0,0.6,0.1,1,0.3,1.4c0.2,0.4,0.5,0.7,0.8,0.9
						c0.3,0.2,0.7,0.3,1.2,0.3c0.5,0,0.9-0.1,1.3-0.3c0.3-0.2,0.6-0.5,0.8-0.8l0.9,0.5c-0.2,0.3-0.4,0.6-0.7,0.8
						c-0.3,0.2-0.6,0.4-1,0.5S54.7,347.7,54.3,347.7z"/>
					<path class="st7" d="M66.3,347.7c-0.7,0-1.3-0.1-1.8-0.4s-0.9-0.7-1.2-1.3c-0.3-0.5-0.4-1.2-0.4-2s0.1-1.4,0.4-2
						c0.3-0.5,0.7-1,1.2-1.3s1.1-0.4,1.7-0.4c0.7,0,1.2,0.1,1.7,0.4c0.5,0.3,0.8,0.7,1.1,1.1c0.2,0.5,0.4,1,0.4,1.6
						c0,0.2,0,0.3,0,0.4c0,0.1,0,0.2,0,0.4h-5.7v-1h5.2l-0.6,0.1c0-0.7-0.2-1.2-0.6-1.6c-0.4-0.4-0.9-0.5-1.4-0.5
						c-0.5,0-0.9,0.1-1.2,0.3c-0.3,0.2-0.6,0.5-0.8,0.9c-0.2,0.4-0.3,0.9-0.3,1.4c0,0.6,0.1,1,0.3,1.4c0.2,0.4,0.5,0.7,0.8,0.9
						c0.3,0.2,0.7,0.3,1.2,0.3c0.5,0,0.9-0.1,1.3-0.3c0.3-0.2,0.6-0.5,0.8-0.8l0.9,0.5c-0.2,0.3-0.4,0.6-0.7,0.8
						c-0.3,0.2-0.6,0.4-1,0.5S66.7,347.7,66.3,347.7z"/>
					<path class="st7" d="M76.1,350.5v-4.9l0.2,0.1c-0.1,0.4-0.2,0.8-0.5,1c-0.2,0.3-0.6,0.5-0.9,0.7s-0.7,0.2-1.1,0.2
						c-0.6,0-1.1-0.1-1.6-0.4s-0.9-0.7-1.2-1.3c-0.3-0.5-0.4-1.2-0.4-2c0-0.8,0.2-1.4,0.5-2c0.3-0.5,0.7-1,1.2-1.2s1-0.4,1.6-0.4
						c0.4,0,0.8,0.1,1.1,0.2s0.6,0.3,0.9,0.6c0.2,0.3,0.4,0.6,0.5,0.9h-0.2l0.1-1.6h1v9.9H76.1z M73.9,346.7c0.4,0,0.8-0.1,1.2-0.3
						c0.3-0.2,0.6-0.5,0.8-0.9c0.2-0.4,0.3-0.9,0.3-1.4c0-0.6-0.1-1-0.3-1.4s-0.4-0.7-0.8-0.9c-0.3-0.2-0.7-0.3-1.1-0.3
						c-0.7,0-1.2,0.2-1.6,0.7s-0.6,1.1-0.6,1.9s0.2,1.4,0.6,1.9C72.6,346.5,73.2,346.7,73.9,346.7z"/>
					<path class="st7" d="M81.9,347.7c-0.4,0-0.9-0.1-1.3-0.3c-0.4-0.2-0.7-0.4-1-0.8c-0.2-0.4-0.4-0.9-0.4-1.5v-4.6h1.1v4.3
						c0,0.7,0.2,1.2,0.5,1.5c0.3,0.3,0.7,0.4,1.3,0.4c0.3,0,0.5,0,0.8-0.1c0.3-0.1,0.5-0.2,0.7-0.4s0.4-0.4,0.5-0.7s0.2-0.7,0.2-1.1
						v-3.8h1.1v7h-1l-0.1-1.1c-0.2,0.4-0.6,0.7-1,0.9C82.9,347.6,82.5,347.7,81.9,347.7z"/>
					<path class="st7" d="M88.1,339.2c-0.3,0-0.5-0.1-0.6-0.2c-0.2-0.2-0.2-0.4-0.2-0.6s0.1-0.5,0.2-0.6c0.2-0.2,0.4-0.2,0.6-0.2
						s0.5,0.1,0.6,0.2c0.2,0.2,0.2,0.4,0.2,0.6s-0.1,0.5-0.2,0.6C88.6,339.2,88.4,339.2,88.1,339.2z M88.7,340.6v7h-1.1v-7H88.7z"/>
					<path class="st7" d="M95.1,340.6v1H90v-1H95.1z M92.5,338.6v7.1c0,0.3,0.1,0.6,0.3,0.8c0.2,0.2,0.4,0.3,0.8,0.3
						c0.3,0,0.5,0,0.7-0.1c0.2-0.1,0.4-0.2,0.5-0.4l0.4,0.9c-0.2,0.2-0.5,0.4-0.8,0.5c-0.3,0.1-0.6,0.2-1,0.2c-0.4,0-0.7-0.1-1-0.2
						s-0.6-0.3-0.7-0.6c-0.2-0.3-0.3-0.6-0.3-1.1v-6.9L92.5,338.6z"/>
					<path class="st7" d="M100.4,343.1c0-0.5-0.1-0.9-0.4-1.2c-0.3-0.3-0.7-0.4-1.2-0.4c-0.5,0-0.9,0.1-1.2,0.3s-0.6,0.5-0.7,1
						l-0.9-0.6c0.2-0.5,0.5-0.9,1-1.3c0.5-0.3,1.1-0.5,1.9-0.5c0.5,0,1,0.1,1.4,0.3c0.4,0.2,0.7,0.4,1,0.8c0.2,0.3,0.4,0.8,0.4,1.4
						v3.4c0,0.3,0.2,0.5,0.5,0.5c0.2,0,0.4,0,0.5-0.1l-0.1,0.9c-0.2,0.1-0.4,0.1-0.7,0.1c-0.3,0-0.5-0.1-0.7-0.2s-0.4-0.3-0.5-0.5
						c-0.1-0.2-0.2-0.5-0.2-0.8v-0.1l0.3,0c-0.1,0.4-0.3,0.7-0.6,0.9c-0.3,0.2-0.6,0.4-0.9,0.5c-0.3,0.1-0.7,0.2-1,0.2
						c-0.4,0-0.8-0.1-1.1-0.2c-0.4-0.1-0.6-0.4-0.8-0.6c-0.2-0.3-0.3-0.6-0.3-1.1c0-0.5,0.2-1,0.5-1.3s0.8-0.6,1.5-0.7l2.8-0.5v0.9
						l-2.3,0.5c-0.5,0.1-0.8,0.2-1,0.4c-0.2,0.2-0.3,0.4-0.3,0.7c0,0.3,0.1,0.5,0.3,0.7c0.2,0.2,0.6,0.3,1,0.3c0.3,0,0.5,0,0.8-0.1
						c0.2-0.1,0.5-0.2,0.7-0.3c0.2-0.1,0.4-0.3,0.5-0.5c0.1-0.2,0.2-0.5,0.2-0.8V343.1z"/>
					<path class="st7" d="M107.3,347.7c-0.4,0-0.8-0.1-1.1-0.2c-0.3-0.1-0.6-0.3-0.9-0.6s-0.4-0.5-0.5-0.9l0.2-0.2l-0.1,1.7h-1
						v-10.2h1.1v4.8l-0.1-0.2c0.2-0.4,0.5-0.8,0.9-1.1s0.9-0.4,1.5-0.4c0.6,0,1.1,0.1,1.6,0.4s0.9,0.7,1.2,1.2
						c0.3,0.5,0.4,1.2,0.4,2c0,0.8-0.1,1.4-0.4,2s-0.7,1-1.2,1.3C108.4,347.6,107.8,347.7,107.3,347.7z M107.2,346.7
						c0.7,0,1.2-0.2,1.6-0.7c0.4-0.5,0.6-1.1,0.6-1.9s-0.2-1.4-0.6-1.9c-0.4-0.5-0.9-0.7-1.6-0.7c-0.4,0-0.8,0.1-1.2,0.3
						c-0.3,0.2-0.6,0.5-0.8,0.9c-0.2,0.4-0.3,0.9-0.3,1.4c0,0.5,0.1,1,0.3,1.4c0.2,0.4,0.4,0.7,0.8,0.9
						C106.3,346.6,106.7,346.7,107.2,346.7z"/>
					<path class="st7" d="M113.3,337.4v8.4c0,0.4,0.1,0.6,0.2,0.7c0.1,0.1,0.3,0.2,0.6,0.2c0.2,0,0.3,0,0.5,0c0.1,0,0.3-0.1,0.5-0.2
						l-0.2,1c-0.1,0.1-0.3,0.1-0.5,0.1c-0.2,0-0.4,0-0.5,0c-0.6,0-1-0.2-1.3-0.5c-0.3-0.3-0.4-0.8-0.4-1.4v-8.5H113.3z"/>
					<path class="st7" d="M119,347.7c-0.7,0-1.3-0.1-1.8-0.4s-0.9-0.7-1.2-1.3c-0.3-0.5-0.4-1.2-0.4-2s0.1-1.4,0.4-2
						c0.3-0.5,0.7-1,1.2-1.3s1.1-0.4,1.7-0.4c0.7,0,1.2,0.1,1.7,0.4c0.5,0.3,0.8,0.7,1.1,1.1c0.2,0.5,0.4,1,0.4,1.6
						c0,0.2,0,0.3,0,0.4c0,0.1,0,0.2,0,0.4h-5.7v-1h5.2l-0.6,0.1c0-0.7-0.2-1.2-0.6-1.6c-0.4-0.4-0.9-0.5-1.4-0.5
						c-0.5,0-0.9,0.1-1.2,0.3c-0.3,0.2-0.6,0.5-0.8,0.9c-0.2,0.4-0.3,0.9-0.3,1.4c0,0.6,0.1,1,0.3,1.4c0.2,0.4,0.5,0.7,0.8,0.9
						c0.3,0.2,0.7,0.3,1.2,0.3c0.5,0,0.9-0.1,1.3-0.3c0.3-0.2,0.6-0.5,0.8-0.8l0.9,0.5c-0.2,0.3-0.4,0.6-0.7,0.8
						c-0.3,0.2-0.6,0.4-1,0.5S119.4,347.7,119,347.7z"/>
				</g>
				<g class="st6">
				</g>
				<g class="st6">
					<path class="st7" d="M132,340.6v1h-4.9v-1H132z M130.8,337.3c0.2,0,0.5,0,0.7,0.1c0.2,0.1,0.4,0.1,0.5,0.2l-0.3,0.9
						c-0.1-0.1-0.2-0.1-0.4-0.2c-0.1,0-0.3,0-0.4,0c-0.4,0-0.7,0.1-0.9,0.3c-0.2,0.2-0.3,0.5-0.3,0.9v1.1v0.4v6.6h-1.1v-8.2
						c0-0.3,0-0.6,0.1-0.9c0.1-0.3,0.2-0.5,0.4-0.7c0.2-0.2,0.4-0.3,0.7-0.4C130.1,337.3,130.5,337.3,130.8,337.3z"/>
				</g>
				<g class="st6">
					<path class="st7" d="M135.8,340.4c0.7,0,1.2,0.1,1.8,0.4s0.9,0.7,1.2,1.3c0.3,0.5,0.4,1.2,0.4,2s-0.1,1.4-0.4,2
						c-0.3,0.5-0.7,1-1.2,1.3s-1.1,0.4-1.8,0.4c-0.7,0-1.2-0.1-1.8-0.4c-0.5-0.3-0.9-0.7-1.2-1.3c-0.3-0.5-0.4-1.2-0.4-2
						s0.1-1.4,0.4-2c0.3-0.5,0.7-1,1.2-1.3C134.6,340.6,135.1,340.4,135.8,340.4z M135.8,341.4c-0.5,0-0.9,0.1-1.2,0.3
						s-0.6,0.5-0.8,0.9c-0.2,0.4-0.3,0.9-0.3,1.4c0,0.6,0.1,1,0.3,1.4s0.4,0.7,0.8,0.9c0.3,0.2,0.7,0.3,1.2,0.3
						c0.5,0,0.9-0.1,1.2-0.3c0.3-0.2,0.6-0.5,0.8-0.9c0.2-0.4,0.3-0.9,0.3-1.4c0-0.6-0.1-1-0.3-1.4c-0.2-0.4-0.4-0.7-0.8-0.9
						S136.3,341.4,135.8,341.4z"/>
				</g>
				<g class="st6">
					<path class="st7" d="M140.9,347.6v-7h0.9l0.2,1.1c0.2-0.4,0.5-0.8,0.9-1c0.4-0.2,0.8-0.3,1.4-0.3c0.1,0,0.3,0,0.4,0
						c0.1,0,0.3,0.1,0.4,0.1l-0.2,1c-0.1,0-0.2-0.1-0.3-0.1c-0.1,0-0.3,0-0.5,0c-0.3,0-0.6,0.1-0.9,0.3s-0.5,0.4-0.7,0.8
						c-0.2,0.3-0.3,0.8-0.3,1.3v3.8H140.9z"/>
				</g>
				<g class="st6">
				</g>
				<g class="st6">
					<path class="st7" d="M154.2,340.6v1h-5.1v-1H154.2z M151.6,338.6v7.1c0,0.3,0.1,0.6,0.3,0.8c0.2,0.2,0.4,0.3,0.8,0.3
						c0.3,0,0.5,0,0.7-0.1c0.2-0.1,0.4-0.2,0.5-0.4l0.4,0.9c-0.2,0.2-0.5,0.4-0.8,0.5c-0.3,0.1-0.6,0.2-1,0.2c-0.4,0-0.7-0.1-1-0.2
						s-0.6-0.3-0.7-0.6c-0.2-0.3-0.3-0.6-0.3-1.1v-6.9L151.6,338.6z"/>
					<path class="st7" d="M155.4,347.6v-10.2h1.1v4.3c0.2-0.4,0.6-0.7,1-0.9c0.4-0.2,0.8-0.3,1.3-0.3c0.5,0,1,0.1,1.4,0.3
						c0.4,0.2,0.7,0.5,1,0.9c0.2,0.4,0.4,0.9,0.4,1.5v4.5h-1.1v-4.1c0-0.8-0.2-1.3-0.5-1.6c-0.3-0.3-0.7-0.5-1.2-0.5
						c-0.3,0-0.7,0.1-1,0.2c-0.3,0.2-0.6,0.4-0.8,0.8s-0.3,0.8-0.3,1.4v3.7H155.4z"/>
					<path class="st7" d="M166.6,347.7c-0.7,0-1.3-0.1-1.8-0.4s-0.9-0.7-1.2-1.3c-0.3-0.5-0.4-1.2-0.4-2s0.1-1.4,0.4-2
						c0.3-0.5,0.7-1,1.2-1.3s1.1-0.4,1.7-0.4c0.7,0,1.2,0.1,1.7,0.4c0.5,0.3,0.8,0.7,1.1,1.1c0.2,0.5,0.4,1,0.4,1.6
						c0,0.2,0,0.3,0,0.4c0,0.1,0,0.2,0,0.4h-5.7v-1h5.2l-0.6,0.1c0-0.7-0.2-1.2-0.6-1.6c-0.4-0.4-0.9-0.5-1.4-0.5
						c-0.5,0-0.9,0.1-1.2,0.3c-0.3,0.2-0.6,0.5-0.8,0.9c-0.2,0.4-0.3,0.9-0.3,1.4c0,0.6,0.1,1,0.3,1.4c0.2,0.4,0.5,0.7,0.8,0.9
						c0.3,0.2,0.7,0.3,1.2,0.3c0.5,0,0.9-0.1,1.3-0.3c0.3-0.2,0.6-0.5,0.8-0.8l0.9,0.5c-0.2,0.3-0.4,0.6-0.7,0.8
						c-0.3,0.2-0.6,0.4-1,0.5S167,347.7,166.6,347.7z"/>
					<path class="st7" d="M175.7,350.5v-9.9h1l0.1,1.7l-0.2-0.2c0.1-0.3,0.3-0.6,0.5-0.9s0.5-0.4,0.9-0.6c0.3-0.1,0.7-0.2,1.1-0.2
						c0.6,0,1.1,0.1,1.6,0.4c0.5,0.3,0.9,0.7,1.2,1.2c0.3,0.5,0.4,1.2,0.4,2c0,0.8-0.1,1.4-0.4,2s-0.7,1-1.2,1.3
						c-0.5,0.3-1,0.4-1.6,0.4s-1.1-0.1-1.5-0.4c-0.4-0.3-0.7-0.6-0.9-1.1l0.1-0.2v4.5H175.7z M179,346.7c0.7,0,1.2-0.2,1.6-0.7
						c0.4-0.5,0.6-1.1,0.6-1.9s-0.2-1.4-0.6-1.9s-0.9-0.7-1.6-0.7c-0.4,0-0.8,0.1-1.2,0.3c-0.3,0.2-0.6,0.5-0.8,0.9
						c-0.2,0.4-0.3,0.9-0.3,1.4c0,0.5,0.1,1,0.3,1.4c0.2,0.4,0.4,0.7,0.8,0.9C178.1,346.6,178.5,346.7,179,346.7z"/>
					<path class="st7" d="M186.9,347.7c-0.7,0-1.3-0.1-1.8-0.4s-0.9-0.7-1.2-1.3c-0.3-0.5-0.4-1.2-0.4-2s0.1-1.4,0.4-2
						c0.3-0.5,0.7-1,1.2-1.3s1.1-0.4,1.7-0.4c0.7,0,1.2,0.1,1.7,0.4c0.5,0.3,0.8,0.7,1.1,1.1c0.2,0.5,0.4,1,0.4,1.6
						c0,0.2,0,0.3,0,0.4c0,0.1,0,0.2,0,0.4h-5.7v-1h5.2l-0.6,0.1c0-0.7-0.2-1.2-0.6-1.6c-0.4-0.4-0.9-0.5-1.4-0.5
						c-0.5,0-0.9,0.1-1.2,0.3c-0.3,0.2-0.6,0.5-0.8,0.9c-0.2,0.4-0.3,0.9-0.3,1.4c0,0.6,0.1,1,0.3,1.4c0.2,0.4,0.5,0.7,0.8,0.9
						c0.3,0.2,0.7,0.3,1.2,0.3c0.5,0,0.9-0.1,1.3-0.3c0.3-0.2,0.6-0.5,0.8-0.8l0.9,0.5c-0.2,0.3-0.4,0.6-0.7,0.8
						c-0.3,0.2-0.6,0.4-1,0.5S187.4,347.7,186.9,347.7z"/>
					<path class="st7" d="M194.6,340.4c0.7,0,1.2,0.1,1.8,0.4s0.9,0.7,1.2,1.3c0.3,0.5,0.4,1.2,0.4,2s-0.1,1.4-0.4,2
						c-0.3,0.5-0.7,1-1.2,1.3s-1.1,0.4-1.8,0.4c-0.7,0-1.2-0.1-1.8-0.4c-0.5-0.3-0.9-0.7-1.2-1.3c-0.3-0.5-0.4-1.2-0.4-2
						s0.1-1.4,0.4-2c0.3-0.5,0.7-1,1.2-1.3C193.3,340.6,193.9,340.4,194.6,340.4z M194.6,341.4c-0.5,0-0.9,0.1-1.2,0.3
						s-0.6,0.5-0.8,0.9c-0.2,0.4-0.3,0.9-0.3,1.4c0,0.6,0.1,1,0.3,1.4s0.4,0.7,0.8,0.9c0.3,0.2,0.7,0.3,1.2,0.3
						c0.5,0,0.9-0.1,1.2-0.3c0.3-0.2,0.6-0.5,0.8-0.9c0.2-0.4,0.3-0.9,0.3-1.4c0-0.6-0.1-1-0.3-1.4c-0.2-0.4-0.4-0.7-0.8-0.9
						S195,341.4,194.6,341.4z"/>
					<path class="st7" d="M199.7,350.5v-9.9h1l0.1,1.7l-0.2-0.2c0.1-0.3,0.3-0.6,0.5-0.9s0.5-0.4,0.9-0.6c0.3-0.1,0.7-0.2,1.1-0.2
						c0.6,0,1.1,0.1,1.6,0.4c0.5,0.3,0.9,0.7,1.2,1.2c0.3,0.5,0.4,1.2,0.4,2c0,0.8-0.1,1.4-0.4,2s-0.7,1-1.2,1.3
						c-0.5,0.3-1,0.4-1.6,0.4s-1.1-0.1-1.5-0.4c-0.4-0.3-0.7-0.6-0.9-1.1l0.1-0.2v4.5H199.7z M203,346.7c0.7,0,1.2-0.2,1.6-0.7
						c0.4-0.5,0.6-1.1,0.6-1.9s-0.2-1.4-0.6-1.9s-0.9-0.7-1.6-0.7c-0.4,0-0.8,0.1-1.2,0.3c-0.3,0.2-0.6,0.5-0.8,0.9
						c-0.2,0.4-0.3,0.9-0.3,1.4c0,0.5,0.1,1,0.3,1.4c0.2,0.4,0.4,0.7,0.8,0.9C202.1,346.6,202.5,346.7,203,346.7z"/>
					<path class="st7" d="M209.1,337.4v8.4c0,0.4,0.1,0.6,0.2,0.7c0.1,0.1,0.3,0.2,0.6,0.2c0.2,0,0.3,0,0.5,0c0.1,0,0.3-0.1,0.5-0.2
						l-0.2,1c-0.1,0.1-0.3,0.1-0.5,0.1c-0.2,0-0.4,0-0.5,0c-0.6,0-1-0.2-1.3-0.5c-0.3-0.3-0.4-0.8-0.4-1.4v-8.5H209.1z"/>
					<path class="st7" d="M214.8,347.7c-0.7,0-1.3-0.1-1.8-0.4c-0.5-0.3-0.9-0.7-1.2-1.3s-0.4-1.2-0.4-2s0.1-1.4,0.4-2
						s0.7-1,1.2-1.3s1.1-0.4,1.7-0.4c0.7,0,1.2,0.1,1.7,0.4c0.5,0.3,0.8,0.7,1.1,1.1c0.2,0.5,0.4,1,0.4,1.6c0,0.2,0,0.3,0,0.4
						c0,0.1,0,0.2,0,0.4h-5.7v-1h5.2l-0.6,0.1c0-0.7-0.2-1.2-0.6-1.6c-0.4-0.4-0.9-0.5-1.4-0.5c-0.5,0-0.9,0.1-1.2,0.3
						s-0.6,0.5-0.8,0.9c-0.2,0.4-0.3,0.9-0.3,1.4c0,0.6,0.1,1,0.3,1.4c0.2,0.4,0.5,0.7,0.8,0.9c0.3,0.2,0.7,0.3,1.2,0.3
						c0.5,0,0.9-0.1,1.3-0.3c0.3-0.2,0.6-0.5,0.8-0.8l0.9,0.5c-0.2,0.3-0.4,0.6-0.7,0.8c-0.3,0.2-0.6,0.4-1,0.5
						C215.7,347.7,215.3,347.7,214.8,347.7z"/>
					<path class="st7" d="M228,343.1c0-0.5-0.1-0.9-0.4-1.2c-0.3-0.3-0.7-0.4-1.2-0.4c-0.5,0-0.9,0.1-1.2,0.3s-0.6,0.5-0.7,1
						l-0.9-0.6c0.2-0.5,0.5-0.9,1-1.3c0.5-0.3,1.1-0.5,1.9-0.5c0.5,0,1,0.1,1.4,0.3c0.4,0.2,0.7,0.4,1,0.8c0.2,0.3,0.4,0.8,0.4,1.4
						v3.4c0,0.3,0.2,0.5,0.5,0.5c0.2,0,0.4,0,0.5-0.1l-0.1,0.9c-0.2,0.1-0.4,0.1-0.7,0.1c-0.3,0-0.5-0.1-0.7-0.2s-0.4-0.3-0.5-0.5
						s-0.2-0.5-0.2-0.8v-0.1l0.3,0c-0.1,0.4-0.3,0.7-0.6,0.9c-0.3,0.2-0.6,0.4-0.9,0.5c-0.3,0.1-0.7,0.2-1,0.2
						c-0.4,0-0.8-0.1-1.1-0.2c-0.4-0.1-0.6-0.4-0.8-0.6c-0.2-0.3-0.3-0.6-0.3-1.1c0-0.5,0.2-1,0.5-1.3c0.4-0.3,0.8-0.6,1.5-0.7
						l2.8-0.5v0.9l-2.3,0.5c-0.5,0.1-0.8,0.2-1,0.4c-0.2,0.2-0.3,0.4-0.3,0.7c0,0.3,0.1,0.5,0.3,0.7c0.2,0.2,0.6,0.3,1,0.3
						c0.3,0,0.5,0,0.8-0.1c0.2-0.1,0.5-0.2,0.7-0.3c0.2-0.1,0.4-0.3,0.5-0.5c0.1-0.2,0.2-0.5,0.2-0.8V343.1z"/>
					<path class="st7" d="M231.4,347.6v-7h1l0.1,1.6l-0.2-0.2c0.1-0.4,0.3-0.7,0.6-0.9c0.3-0.2,0.5-0.4,0.9-0.5
						c0.3-0.1,0.7-0.2,1-0.2c0.5,0,1,0.1,1.4,0.3s0.7,0.5,1,0.9c0.2,0.4,0.4,0.9,0.4,1.5v4.5h-1.1v-4.1c0-0.8-0.2-1.3-0.5-1.6
						c-0.3-0.3-0.7-0.5-1.2-0.5c-0.3,0-0.7,0.1-1,0.2c-0.3,0.2-0.6,0.4-0.8,0.8c-0.2,0.4-0.3,0.8-0.3,1.4v3.7H231.4z"/>
					<path class="st7" d="M242.4,347.7c-0.6,0-1.1-0.1-1.6-0.4s-0.9-0.7-1.2-1.3s-0.4-1.2-0.4-2c0-0.8,0.2-1.4,0.5-2
						c0.3-0.5,0.7-1,1.2-1.2s1-0.4,1.6-0.4c0.6,0,1.1,0.1,1.5,0.4c0.4,0.3,0.7,0.7,0.8,1.2l-0.1,0.1v-4.8h1.1v10.2h-1l-0.1-1.7
						l0.2-0.1c-0.1,0.4-0.2,0.8-0.5,1c-0.2,0.3-0.6,0.5-0.9,0.7S242.8,347.7,242.4,347.7z M242.5,346.7c0.4,0,0.8-0.1,1.2-0.3
						c0.3-0.2,0.6-0.5,0.8-1c0.2-0.4,0.3-0.9,0.3-1.5c0-0.5-0.1-1-0.3-1.4c-0.2-0.4-0.4-0.7-0.8-0.9c-0.3-0.2-0.7-0.3-1.1-0.3
						c-0.7,0-1.3,0.2-1.7,0.7c-0.4,0.5-0.6,1.1-0.6,1.9s0.2,1.4,0.6,1.9C241.2,346.5,241.8,346.7,242.5,346.7z"/>
				</g>
				<g class="st6">
					<path class="st7" d="M252.6,347.6v-7h0.9l0.2,1.1c0.2-0.4,0.5-0.8,0.9-1c0.4-0.2,0.8-0.3,1.4-0.3c0.1,0,0.3,0,0.4,0
						c0.1,0,0.3,0.1,0.4,0.1l-0.2,1c-0.1,0-0.2-0.1-0.3-0.1c-0.1,0-0.3,0-0.5,0c-0.3,0-0.6,0.1-0.9,0.3s-0.5,0.4-0.7,0.8
						c-0.2,0.3-0.3,0.8-0.3,1.3v3.8H252.6z"/>
				</g>
				<g class="st6">
					<path class="st7" d="M260.6,347.7c-0.7,0-1.3-0.1-1.8-0.4c-0.5-0.3-0.9-0.7-1.2-1.3s-0.4-1.2-0.4-2s0.1-1.4,0.4-2
						s0.7-1,1.2-1.3s1.1-0.4,1.7-0.4c0.7,0,1.2,0.1,1.7,0.4c0.5,0.3,0.8,0.7,1.1,1.1c0.2,0.5,0.4,1,0.4,1.6c0,0.2,0,0.3,0,0.4
						c0,0.1,0,0.2,0,0.4h-5.7v-1h5.2l-0.6,0.1c0-0.7-0.2-1.2-0.6-1.6c-0.4-0.4-0.9-0.5-1.4-0.5c-0.5,0-0.9,0.1-1.2,0.3
						s-0.6,0.5-0.8,0.9c-0.2,0.4-0.3,0.9-0.3,1.4c0,0.6,0.1,1,0.3,1.4c0.2,0.4,0.5,0.7,0.8,0.9c0.3,0.2,0.7,0.3,1.2,0.3
						c0.5,0,0.9-0.1,1.3-0.3c0.3-0.2,0.6-0.5,0.8-0.8l0.9,0.5c-0.2,0.3-0.4,0.6-0.7,0.8c-0.3,0.2-0.6,0.4-1,0.5
						C261.4,347.7,261,347.7,260.6,347.7z"/>
					<path class="st7" d="M269.1,346.7c0.7,0,1.2,0.2,1.6,0.5c0.4,0.3,0.6,0.7,0.6,1.2c0,0.5-0.2,0.9-0.5,1.2
						c-0.3,0.3-0.7,0.6-1.2,0.8c-0.5,0.2-1.1,0.3-1.7,0.3c-1.1,0-1.9-0.2-2.5-0.6c-0.5-0.4-0.8-0.8-0.8-1.3c0-0.4,0.1-0.7,0.4-1
						c0.2-0.3,0.7-0.5,1.3-0.5l-0.1,0.2c-0.3-0.1-0.6-0.2-0.8-0.4c-0.2-0.2-0.3-0.5-0.3-0.9c0-0.4,0.1-0.7,0.4-1
						c0.3-0.3,0.7-0.4,1.3-0.5l0.7,0.4h-0.1c-0.5,0-0.8,0.2-1,0.3c-0.2,0.2-0.3,0.4-0.3,0.6c0,0.3,0.1,0.5,0.3,0.6s0.5,0.2,0.8,0.2
						H269.1z M267.7,340.4c0.6,0,1.1,0.1,1.5,0.3c0.4,0.2,0.8,0.5,1,0.8c0.2,0.4,0.4,0.8,0.4,1.2c0,0.5-0.1,0.9-0.4,1.2
						c-0.2,0.4-0.6,0.6-1,0.8c-0.4,0.2-0.9,0.3-1.5,0.3c-0.9,0-1.6-0.2-2.1-0.7s-0.7-1-0.7-1.7c0-0.5,0.1-0.9,0.4-1.2s0.6-0.6,1-0.8
						C266.6,340.5,267.1,340.4,267.7,340.4z M267.8,349.7c0.5,0,1-0.1,1.3-0.2c0.3-0.1,0.6-0.3,0.8-0.4c0.2-0.2,0.3-0.4,0.3-0.6
						c0-0.3-0.1-0.5-0.3-0.6c-0.2-0.1-0.6-0.2-1.1-0.2h-2.2c-0.3,0-0.6,0.1-0.8,0.2c-0.2,0.2-0.3,0.4-0.3,0.6c0,0.3,0.2,0.6,0.6,0.8
						S267.1,349.7,267.8,349.7z M267.7,341.3c-0.5,0-0.9,0.1-1.2,0.4c-0.3,0.3-0.5,0.6-0.5,1.1c0,0.4,0.2,0.8,0.5,1.1
						c0.3,0.3,0.7,0.4,1.2,0.4s0.9-0.1,1.2-0.4c0.3-0.3,0.5-0.6,0.5-1.1c0-0.4-0.2-0.8-0.5-1.1C268.6,341.5,268.2,341.3,267.7,341.3
						z M271.2,339.3l0.3,1c0,0,0,0,0,0c0,0,0,0-0.1,0c-0.5,0-0.8,0.1-1.1,0.3c-0.2,0.2-0.4,0.5-0.4,0.9l-0.7-0.3
						c0-0.4,0.1-0.7,0.3-1c0.2-0.3,0.4-0.5,0.7-0.6C270.5,339.4,270.8,339.3,271.2,339.3C271.1,339.3,271.1,339.3,271.2,339.3
						C271.2,339.3,271.2,339.3,271.2,339.3z"/>
					<path class="st7" d="M275.3,347.7c-0.7,0-1.3-0.1-1.8-0.4c-0.5-0.3-0.9-0.7-1.2-1.3c-0.3-0.5-0.4-1.2-0.4-2s0.1-1.4,0.4-2
						c0.3-0.5,0.7-1,1.2-1.3s1.1-0.4,1.7-0.4c0.7,0,1.2,0.1,1.7,0.4c0.5,0.3,0.8,0.7,1.1,1.1c0.2,0.5,0.4,1,0.4,1.6
						c0,0.2,0,0.3,0,0.4c0,0.1,0,0.2,0,0.4h-5.7v-1h5.2l-0.6,0.1c0-0.7-0.2-1.2-0.6-1.6c-0.4-0.4-0.9-0.5-1.4-0.5
						c-0.5,0-0.9,0.1-1.2,0.3c-0.3,0.2-0.6,0.5-0.8,0.9c-0.2,0.4-0.3,0.9-0.3,1.4c0,0.6,0.1,1,0.3,1.4s0.5,0.7,0.8,0.9
						s0.7,0.3,1.2,0.3c0.5,0,0.9-0.1,1.3-0.3c0.3-0.2,0.6-0.5,0.8-0.8l0.9,0.5c-0.2,0.3-0.4,0.6-0.7,0.8s-0.6,0.4-1,0.5
						C276.1,347.7,275.7,347.7,275.3,347.7z"/>
					<path class="st7" d="M280,347.6v-7h1l0.1,1.6l-0.2-0.2c0.1-0.4,0.3-0.7,0.6-0.9c0.3-0.2,0.5-0.4,0.9-0.5c0.3-0.1,0.7-0.2,1-0.2
						c0.5,0,1,0.1,1.4,0.3s0.7,0.5,1,0.9c0.2,0.4,0.4,0.9,0.4,1.5v4.5H285v-4.1c0-0.8-0.2-1.3-0.5-1.6c-0.3-0.3-0.7-0.5-1.2-0.5
						c-0.3,0-0.7,0.1-1,0.2c-0.3,0.2-0.6,0.4-0.8,0.8c-0.2,0.4-0.3,0.8-0.3,1.4v3.7H280z"/>
					<path class="st7" d="M291.2,347.7c-0.7,0-1.3-0.1-1.8-0.4c-0.5-0.3-0.9-0.7-1.2-1.3s-0.4-1.2-0.4-2s0.1-1.4,0.4-2
						s0.7-1,1.2-1.3s1.1-0.4,1.7-0.4c0.7,0,1.2,0.1,1.7,0.4c0.5,0.3,0.8,0.7,1.1,1.1c0.2,0.5,0.4,1,0.4,1.6c0,0.2,0,0.3,0,0.4
						c0,0.1,0,0.2,0,0.4h-5.7v-1h5.2l-0.6,0.1c0-0.7-0.2-1.2-0.6-1.6c-0.4-0.4-0.9-0.5-1.4-0.5c-0.5,0-0.9,0.1-1.2,0.3
						s-0.6,0.5-0.8,0.9c-0.2,0.4-0.3,0.9-0.3,1.4c0,0.6,0.1,1,0.3,1.4c0.2,0.4,0.5,0.7,0.8,0.9c0.3,0.2,0.7,0.3,1.2,0.3
						c0.5,0,0.9-0.1,1.3-0.3c0.3-0.2,0.6-0.5,0.8-0.8l0.9,0.5c-0.2,0.3-0.4,0.6-0.7,0.8c-0.3,0.2-0.6,0.4-1,0.5
						C292,347.7,291.6,347.7,291.2,347.7z"/>
				</g>
				<g class="st6">
					<path class="st7" d="M296,347.6v-7h0.9l0.2,1.1c0.2-0.4,0.5-0.8,0.9-1c0.4-0.2,0.8-0.3,1.4-0.3c0.1,0,0.3,0,0.4,0
						c0.1,0,0.3,0.1,0.4,0.1l-0.2,1c-0.1,0-0.2-0.1-0.3-0.1c-0.1,0-0.3,0-0.5,0c-0.3,0-0.6,0.1-0.9,0.3s-0.5,0.4-0.7,0.8
						s-0.3,0.8-0.3,1.3v3.8H296z"/>
				</g>
				<g class="st6">
					<path class="st7" d="M305.2,343.1c0-0.5-0.1-0.9-0.4-1.2c-0.3-0.3-0.7-0.4-1.2-0.4c-0.5,0-0.9,0.1-1.2,0.3s-0.6,0.5-0.7,1
						l-0.9-0.6c0.2-0.5,0.5-0.9,1-1.3c0.5-0.3,1.1-0.5,1.9-0.5c0.5,0,1,0.1,1.4,0.3c0.4,0.2,0.7,0.4,1,0.8c0.2,0.3,0.4,0.8,0.4,1.4
						v3.4c0,0.3,0.2,0.5,0.5,0.5c0.2,0,0.4,0,0.5-0.1l-0.1,0.9c-0.2,0.1-0.4,0.1-0.7,0.1c-0.3,0-0.5-0.1-0.7-0.2s-0.4-0.3-0.5-0.5
						s-0.2-0.5-0.2-0.8v-0.1l0.3,0c-0.1,0.4-0.3,0.7-0.6,0.9c-0.3,0.2-0.6,0.4-0.9,0.5c-0.3,0.1-0.7,0.2-1,0.2
						c-0.4,0-0.8-0.1-1.1-0.2c-0.4-0.1-0.6-0.4-0.8-0.6c-0.2-0.3-0.3-0.6-0.3-1.1c0-0.5,0.2-1,0.5-1.3c0.4-0.3,0.8-0.6,1.5-0.7
						l2.8-0.5v0.9l-2.3,0.5c-0.5,0.1-0.8,0.2-1,0.4c-0.2,0.2-0.3,0.4-0.3,0.7c0,0.3,0.1,0.5,0.3,0.7c0.2,0.2,0.6,0.3,1,0.3
						c0.3,0,0.5,0,0.8-0.1c0.2-0.1,0.5-0.2,0.7-0.3c0.2-0.1,0.4-0.3,0.5-0.5c0.1-0.2,0.2-0.5,0.2-0.8V343.1z"/>
				</g>
				<g class="st6">
					<path class="st7" d="M312.5,340.6v1h-5.1v-1H312.5z M309.9,338.6v7.1c0,0.3,0.1,0.6,0.3,0.8c0.2,0.2,0.4,0.3,0.8,0.3
						c0.3,0,0.5,0,0.7-0.1c0.2-0.1,0.4-0.2,0.5-0.4l0.4,0.9c-0.2,0.2-0.5,0.4-0.8,0.5c-0.3,0.1-0.6,0.2-1,0.2c-0.4,0-0.7-0.1-1-0.2
						c-0.3-0.1-0.6-0.3-0.7-0.6c-0.2-0.3-0.3-0.6-0.3-1.1v-6.9L309.9,338.6z"/>
					<path class="st7" d="M314.3,339.2c-0.3,0-0.5-0.1-0.6-0.2c-0.2-0.2-0.2-0.4-0.2-0.6s0.1-0.5,0.2-0.6c0.2-0.2,0.4-0.2,0.6-0.2
						s0.5,0.1,0.6,0.2c0.2,0.2,0.2,0.4,0.2,0.6s-0.1,0.5-0.2,0.6C314.8,339.2,314.5,339.2,314.3,339.2z M314.9,340.6v7h-1.1v-7
						H314.9z"/>
					<path class="st7" d="M321.7,340.6h1.2l-2.9,7h-1.1l-2.9-7h1.3l2.2,5.9L321.7,340.6z"/>
					<path class="st7" d="M326.8,347.7c-0.7,0-1.3-0.1-1.8-0.4c-0.5-0.3-0.9-0.7-1.2-1.3c-0.3-0.5-0.4-1.2-0.4-2s0.1-1.4,0.4-2
						c0.3-0.5,0.7-1,1.2-1.3s1.1-0.4,1.7-0.4c0.7,0,1.2,0.1,1.7,0.4c0.5,0.3,0.8,0.7,1.1,1.1c0.2,0.5,0.4,1,0.4,1.6
						c0,0.2,0,0.3,0,0.4c0,0.1,0,0.2,0,0.4h-5.7v-1h5.2l-0.6,0.1c0-0.7-0.2-1.2-0.6-1.6c-0.4-0.4-0.9-0.5-1.4-0.5
						c-0.5,0-0.9,0.1-1.2,0.3c-0.3,0.2-0.6,0.5-0.8,0.9c-0.2,0.4-0.3,0.9-0.3,1.4c0,0.6,0.1,1,0.3,1.4s0.5,0.7,0.8,0.9
						s0.7,0.3,1.2,0.3c0.5,0,0.9-0.1,1.3-0.3c0.3-0.2,0.6-0.5,0.8-0.8l0.9,0.5c-0.2,0.3-0.4,0.6-0.7,0.8s-0.6,0.4-1,0.5
						C327.7,347.7,327.3,347.7,326.8,347.7z"/>
				</g>
				<g class="st6">
				</g>
				<g class="st6">
					<path class="st7" d="M339.7,340.6v1h-4.9v-1H339.7z M338.6,337.3c0.2,0,0.5,0,0.7,0.1s0.4,0.1,0.5,0.2l-0.3,0.9
						c-0.1-0.1-0.2-0.1-0.4-0.2c-0.1,0-0.3,0-0.4,0c-0.4,0-0.7,0.1-0.9,0.3c-0.2,0.2-0.3,0.5-0.3,0.9v1.1v0.4v6.6h-1.1v-8.2
						c0-0.3,0-0.6,0.1-0.9c0.1-0.3,0.2-0.5,0.4-0.7s0.4-0.3,0.7-0.4C337.8,337.3,338.2,337.3,338.6,337.3z"/>
				</g>
				<g class="st6">
					<path class="st7" d="M343.5,340.4c0.7,0,1.2,0.1,1.8,0.4s0.9,0.7,1.2,1.3c0.3,0.5,0.4,1.2,0.4,2s-0.1,1.4-0.4,2
						c-0.3,0.5-0.7,1-1.2,1.3s-1.1,0.4-1.8,0.4c-0.7,0-1.2-0.1-1.8-0.4c-0.5-0.3-0.9-0.7-1.2-1.3c-0.3-0.5-0.4-1.2-0.4-2
						s0.1-1.4,0.4-2c0.3-0.5,0.7-1,1.2-1.3C342.3,340.6,342.9,340.4,343.5,340.4z M343.5,341.4c-0.5,0-0.9,0.1-1.2,0.3
						s-0.6,0.5-0.8,0.9c-0.2,0.4-0.3,0.9-0.3,1.4c0,0.6,0.1,1,0.3,1.4c0.2,0.4,0.4,0.7,0.8,0.9c0.3,0.2,0.7,0.3,1.2,0.3
						c0.5,0,0.9-0.1,1.2-0.3c0.3-0.2,0.6-0.5,0.8-0.9c0.2-0.4,0.3-0.9,0.3-1.4c0-0.6-0.1-1-0.3-1.4c-0.2-0.4-0.4-0.7-0.8-0.9
						S344,341.4,343.5,341.4z"/>
				</g>
				<g class="st6">
					<path class="st7" d="M348.6,347.6v-7h0.9l0.2,1.1c0.2-0.4,0.5-0.8,0.9-1c0.4-0.2,0.8-0.3,1.4-0.3c0.1,0,0.3,0,0.4,0
						c0.1,0,0.3,0.1,0.4,0.1l-0.2,1c-0.1,0-0.2-0.1-0.3-0.1c-0.1,0-0.3,0-0.5,0c-0.3,0-0.6,0.1-0.9,0.3s-0.5,0.4-0.7,0.8
						c-0.2,0.3-0.3,0.8-0.3,1.3v3.8H348.6z"/>
				</g>
				<g class="st6">
					<path class="st7" d="M47.2,368.6v1h-5.1v-1H47.2z M44.6,366.6v7.1c0,0.3,0.1,0.6,0.3,0.8c0.2,0.2,0.4,0.3,0.8,0.3
						c0.3,0,0.5,0,0.7-0.1c0.2-0.1,0.4-0.2,0.5-0.4l0.4,0.9c-0.2,0.2-0.5,0.4-0.8,0.5c-0.3,0.1-0.6,0.2-1,0.2c-0.4,0-0.7-0.1-1-0.2
						s-0.6-0.3-0.7-0.6c-0.2-0.3-0.3-0.6-0.3-1.1v-6.9L44.6,366.6z"/>
					<path class="st7" d="M48.4,375.6v-10.2h1.1v4.3c0.2-0.4,0.6-0.7,1-0.9c0.4-0.2,0.8-0.3,1.3-0.3c0.5,0,1,0.1,1.4,0.3
						c0.4,0.2,0.7,0.5,1,0.9c0.2,0.4,0.4,0.9,0.4,1.5v4.5h-1.1v-4.1c0-0.8-0.2-1.3-0.5-1.6c-0.3-0.3-0.7-0.5-1.2-0.5
						c-0.3,0-0.7,0.1-1,0.2c-0.3,0.2-0.6,0.4-0.8,0.8s-0.3,0.8-0.3,1.4v3.7H48.4z"/>
					<path class="st7" d="M59.6,375.7c-0.7,0-1.3-0.1-1.8-0.4s-0.9-0.7-1.2-1.3c-0.3-0.5-0.4-1.2-0.4-2s0.1-1.4,0.4-2
						c0.3-0.5,0.7-1,1.2-1.3s1.1-0.4,1.7-0.4c0.7,0,1.2,0.1,1.7,0.4c0.5,0.3,0.8,0.7,1.1,1.1c0.2,0.5,0.4,1,0.4,1.6
						c0,0.2,0,0.3,0,0.4c0,0.1,0,0.2,0,0.4h-5.7v-1h5.2l-0.6,0.1c0-0.7-0.2-1.2-0.6-1.6c-0.4-0.4-0.9-0.5-1.4-0.5
						c-0.5,0-0.9,0.1-1.2,0.3c-0.3,0.2-0.6,0.5-0.8,0.9c-0.2,0.4-0.3,0.9-0.3,1.4c0,0.6,0.1,1,0.3,1.4c0.2,0.4,0.5,0.7,0.8,0.9
						c0.3,0.2,0.7,0.3,1.2,0.3c0.5,0,0.9-0.1,1.3-0.3c0.3-0.2,0.6-0.5,0.8-0.8l0.9,0.5c-0.2,0.3-0.4,0.6-0.7,0.8
						c-0.3,0.2-0.6,0.4-1,0.5S60.1,375.7,59.6,375.7z"/>
					<path class="st7" d="M68.7,378.5v-9.9h1l0.1,1.7l-0.2-0.2c0.1-0.3,0.3-0.6,0.5-0.9s0.5-0.4,0.9-0.6c0.3-0.1,0.7-0.2,1.1-0.2
						c0.6,0,1.1,0.1,1.6,0.4c0.5,0.3,0.9,0.7,1.2,1.2c0.3,0.5,0.4,1.2,0.4,2c0,0.8-0.1,1.4-0.4,2s-0.7,1-1.2,1.3
						c-0.5,0.3-1,0.4-1.6,0.4s-1.1-0.1-1.5-0.4c-0.4-0.3-0.7-0.6-0.9-1.1l0.1-0.2v4.5H68.7z M72,374.7c0.7,0,1.2-0.2,1.6-0.7
						c0.4-0.5,0.6-1.1,0.6-1.9s-0.2-1.4-0.6-1.9s-0.9-0.7-1.6-0.7c-0.4,0-0.8,0.1-1.2,0.3c-0.3,0.2-0.6,0.5-0.8,0.9
						c-0.2,0.4-0.3,0.9-0.3,1.4c0,0.5,0.1,1,0.3,1.4c0.2,0.4,0.4,0.7,0.8,0.9C71.2,374.6,71.6,374.7,72,374.7z"/>
					<path class="st7" d="M78.1,365.4v8.4c0,0.4,0.1,0.6,0.2,0.7c0.1,0.1,0.3,0.2,0.6,0.2c0.2,0,0.3,0,0.5,0c0.1,0,0.3-0.1,0.5-0.2
						l-0.2,1c-0.1,0.1-0.3,0.1-0.5,0.1c-0.2,0-0.4,0-0.5,0c-0.6,0-1-0.2-1.3-0.5c-0.3-0.3-0.4-0.8-0.4-1.4v-8.5H78.1z"/>
					<path class="st7" d="M85,371.1c0-0.5-0.1-0.9-0.4-1.2c-0.3-0.3-0.7-0.4-1.2-0.4c-0.5,0-0.9,0.1-1.2,0.3s-0.6,0.5-0.7,1
						l-0.9-0.6c0.2-0.5,0.5-0.9,1-1.3c0.5-0.3,1.1-0.5,1.9-0.5c0.5,0,1,0.1,1.4,0.3c0.4,0.2,0.7,0.4,1,0.8c0.2,0.3,0.4,0.8,0.4,1.4
						v3.4c0,0.3,0.2,0.5,0.5,0.5c0.2,0,0.4,0,0.5-0.1l-0.1,0.9c-0.2,0.1-0.4,0.1-0.7,0.1c-0.3,0-0.5-0.1-0.7-0.2s-0.4-0.3-0.5-0.5
						c-0.1-0.2-0.2-0.5-0.2-0.8v-0.1l0.3,0c-0.1,0.4-0.3,0.7-0.6,0.9c-0.3,0.2-0.6,0.4-0.9,0.5c-0.3,0.1-0.7,0.2-1,0.2
						c-0.4,0-0.8-0.1-1.1-0.2c-0.4-0.1-0.6-0.4-0.8-0.6c-0.2-0.3-0.3-0.6-0.3-1.1c0-0.5,0.2-1,0.5-1.3s0.8-0.6,1.5-0.7l2.8-0.5v0.9
						l-2.3,0.5c-0.5,0.1-0.8,0.2-1,0.4c-0.2,0.2-0.3,0.4-0.3,0.7c0,0.3,0.1,0.5,0.3,0.7c0.2,0.2,0.6,0.3,1,0.3c0.3,0,0.5,0,0.8-0.1
						c0.2-0.1,0.5-0.2,0.7-0.3c0.2-0.1,0.4-0.3,0.5-0.5c0.1-0.2,0.2-0.5,0.2-0.8V371.1z"/>
					<path class="st7" d="M88.4,375.6v-7h1l0.1,1.6l-0.2-0.2c0.1-0.4,0.3-0.7,0.6-0.9c0.3-0.2,0.5-0.4,0.9-0.5
						c0.3-0.1,0.7-0.2,1-0.2c0.5,0,1,0.1,1.4,0.3c0.4,0.2,0.7,0.5,1,0.9c0.2,0.4,0.4,0.9,0.4,1.5v4.5h-1.1v-4.1
						c0-0.8-0.2-1.3-0.5-1.6c-0.3-0.3-0.7-0.5-1.2-0.5c-0.3,0-0.7,0.1-1,0.2c-0.3,0.2-0.6,0.4-0.8,0.8c-0.2,0.4-0.3,0.8-0.3,1.4v3.7
						H88.4z"/>
				</g>
				<g class="st6">
					<path class="st7" d="M99.7,375.7c-0.7,0-1.3-0.1-1.8-0.4s-0.9-0.7-1.2-1.3c-0.3-0.5-0.4-1.2-0.4-2s0.1-1.4,0.4-2
						c0.3-0.5,0.7-1,1.2-1.3s1.1-0.4,1.7-0.4c0.7,0,1.2,0.1,1.7,0.4c0.5,0.3,0.8,0.7,1.1,1.1c0.2,0.5,0.4,1,0.4,1.6
						c0,0.2,0,0.3,0,0.4c0,0.1,0,0.2,0,0.4H97v-1h5.2l-0.6,0.1c0-0.7-0.2-1.2-0.6-1.6c-0.4-0.4-0.9-0.5-1.4-0.5
						c-0.5,0-0.9,0.1-1.2,0.3c-0.3,0.2-0.6,0.5-0.8,0.9c-0.2,0.4-0.3,0.9-0.3,1.4c0,0.6,0.1,1,0.3,1.4c0.2,0.4,0.5,0.7,0.8,0.9
						c0.3,0.2,0.7,0.3,1.2,0.3c0.5,0,0.9-0.1,1.3-0.3c0.3-0.2,0.6-0.5,0.8-0.8l0.9,0.5c-0.2,0.3-0.4,0.6-0.7,0.8
						c-0.3,0.2-0.6,0.4-1,0.5S100.2,375.7,99.7,375.7z"/>
				</g>
				<g class="st6">
					<path class="st7" d="M108.4,368.6v1h-5.1v-1H108.4z M105.9,366.6v7.1c0,0.3,0.1,0.6,0.3,0.8c0.2,0.2,0.4,0.3,0.8,0.3
						c0.3,0,0.5,0,0.7-0.1c0.2-0.1,0.4-0.2,0.5-0.4l0.4,0.9c-0.2,0.2-0.5,0.4-0.8,0.5c-0.3,0.1-0.6,0.2-1,0.2c-0.4,0-0.7-0.1-1-0.2
						s-0.6-0.3-0.7-0.6c-0.2-0.3-0.3-0.6-0.3-1.1v-6.9L105.9,366.6z"/>
				</g>
				<g class="st6">
					<path class="st7" d="M110.3,373.9c0.3,0,0.5,0.1,0.7,0.3s0.3,0.4,0.3,0.7c0,0.3-0.1,0.5-0.3,0.7s-0.4,0.3-0.7,0.3
						c-0.3,0-0.5-0.1-0.7-0.3s-0.3-0.4-0.3-0.7c0-0.3,0.1-0.5,0.3-0.7S110,373.9,110.3,373.9z"/>
				</g>
				<g>
					<defs>
						<rect id="SVGID_7_" y="-1" width="420" height="518"/>
					</defs>
					<clipPath id="SVGID_8_">
						<use xlink:href="#SVGID_7_"  style="overflow:visible;"/>
					</clipPath>
					<g class="st8">
						<g>
							
								<rect x="362.1" y="45.5" transform="matrix(0.7071 -0.7071 0.7071 0.7071 76.4294 276.5168)" class="st7" width="19.8" height="1"/>
						</g>
						<g>
							
								<rect x="371.5" y="36.1" transform="matrix(0.7071 -0.7071 0.7071 0.7071 76.4294 276.5168)" class="st7" width="1" height="19.8"/>
						</g>
						<g>
							<path class="st7" d="M63.7,45.7v0.2c0,1.1,0.9,2,2,2c0.1,0,0.2,0,0.2,0c1.2,0,2.1-0.7,2.1-1.6c0-0.7-0.4-1.3-1.5-1.7
								l-1.7-0.7c-1.8-0.7-2.8-1.6-2.8-3.1c0-1.9,1.8-3.2,4-3.2c2.2,0,3.7,1,3.8,2.8l-2.2,0.3v-0.2c-0.1-1.1-1-1.9-2.1-1.8
								c-0.9,0.1-1.6,0.7-1.7,1.5c0,0.6,0.4,1.3,1.8,1.8l1.8,0.7c1.7,0.7,2.5,1.6,2.5,2.9c0,2.2-2,3.3-4.3,3.3s-4.1-1-4.1-3
								L63.7,45.7z M72.9,43.5c0.3,2.5,1.8,3.7,3.6,3.7c1.3,0,2.5-0.5,3.3-1.4c-0.3,1.9-2,3.3-3.9,3.2c-2.8,0-4.9-2.3-4.9-5.5
								c0-3,1.8-5.9,5.1-5.9c2,0,4,1.2,4,3.5c0,0.1,0,0.3,0,0.4L72.9,43.5z M72.9,41.8h4.9c0-2.4-1.1-3.2-2.2-3.2
								S73.2,39.5,72.9,41.8 M82.9,43.5c0.3,2.5,1.8,3.7,3.6,3.7c1.3,0,2.5-0.5,3.3-1.4c-0.3,1.9-2,3.3-3.9,3.2
								c-2.8,0-4.9-2.3-4.9-5.5c0-3,1.8-5.9,5.1-5.9c2,0,4,1.2,4,3.5c0,0.1,0,0.3,0,0.4L82.9,43.5z M82.9,41.8h4.9
								c0-2.4-1.1-3.2-2.2-3.2S83.2,39.5,82.9,41.8 M100.5,48.7h-1.9v-1.6c-0.7,1.1-1.8,1.8-3.1,1.9c-2.2,0-4.3-1.9-4.3-5.4
								s2.2-6,5.2-6c0.8,0,1.6,0.2,2.3,0.5v-4.7l1.9-0.3L100.5,48.7z M98.6,46.6v-6.8c-0.6-0.7-1.5-1.1-2.4-1.1
								c-1.6,0-3.1,1.2-3.1,4.3c0,2.5,1.1,4.4,3.4,4.4C97.2,47.4,98,47.1,98.6,46.6 M103.9,45.7v0.2c0,1.1,0.9,2,2,2
								c0.1,0,0.2,0,0.2,0c1.2,0,2.1-0.7,2.1-1.6c0-0.7-0.4-1.3-1.5-1.7l-1.7-0.7c-1.8-0.7-2.8-1.6-2.8-3.1c0-1.9,1.8-3.2,4-3.2
								s3.7,1,3.8,2.8l-2.2,0.3v-0.2c-0.1-1.1-1-1.9-2.1-1.8c-0.9,0.1-1.6,0.7-1.8,1.6c0,0.6,0.4,1.3,1.8,1.8l1.8,0.7
								c1.7,0.7,2.5,1.6,2.5,2.9c0,2.2-2,3.3-4.3,3.3s-4.1-1-4.1-3L103.9,45.7z M112.6,46.1c-0.7,0-1.3,0.7-1.2,1.4
								c0,0.7,0.7,1.3,1.4,1.2c0.7,0,1.2-0.6,1.2-1.3C114,46.7,113.4,46.1,112.6,46.1"/>
						</g>
						<g class="st9">
							<g>
								<defs>
									<rect id="SVGID_9_" x="47.8" y="36.2" width="10.2" height="6.4"/>
								</defs>
								<clipPath id="SVGID_10_">
									<use xlink:href="#SVGID_9_"  style="overflow:visible;"/>
								</clipPath>
								<g class="st10">
									<g>
										<path class="st7" d="M47.8,42.1l0.2-0.1l-0.2-0.2C47.8,42,47.8,42,47.8,42.1"/>
									</g>
									<g>
										<path class="st7" d="M58,37.2c-3.1-1.9-7.3-1-9.2,2.2c-0.4,0.6-0.7,1.3-0.8,2.1c0.2,0.1,0.4,0.3,0.6,0.4
											c0.2-0.1,0.5-0.2,0.7-0.3l0,0c2.1-0.7,4.4-0.3,6.2,1C57.1,41.3,58,39.3,58,37.2"/>
									</g>
								</g>
							</g>
						</g>
						<g class="st9">
							<g>
								<defs>
									<rect id="SVGID_11_" x="48.9" y="41.7" width="9.1" height="7.9"/>
								</defs>
								<clipPath id="SVGID_12_">
									<use xlink:href="#SVGID_11_"  style="overflow:visible;"/>
								</clipPath>
								<g class="st11">
									<g>
										<path class="st7" d="M57.1,45c-1.6-2.8-5.1-4.1-8.2-2.9c1.3,0.8,2.3,2,2.8,3.4l0.1,0.3c0.3,0.8,0.4,1.6,0.5,2.4v0.3
											c0,0.2,0,0.5,0,0.7c0.7,0.2,1.4,0.4,2.1,0.3c1.2,0,2.5-0.3,3.5-1C58,47.3,57.7,46.1,57.1,45"/>
									</g>
								</g>
							</g>
						</g>
						<g class="st9">
							<g>
								<defs>
									<rect id="SVGID_13_" x="38.2" y="43.1" width="10.2" height="6.4"/>
								</defs>
								<clipPath id="SVGID_14_">
									<use xlink:href="#SVGID_13_"  style="overflow:visible;"/>
								</clipPath>
								<g class="st12">
									<g>
										<path class="st7" d="M48.4,43.6l-0.3,0.1l0.2,0.2C48.4,43.8,48.4,43.7,48.4,43.6"/>
									</g>
									<g>
										<path class="st7" d="M48.3,44.3c-0.2-0.1-0.4-0.3-0.6-0.4c-0.2,0.1-0.3,0.1-0.5,0.2l0,0c-1.1,0.4-2.3,0.5-3.4,0.3
											c-1.1-0.2-2.1-0.6-3-1.2c-0.7,0.5-1.2,1.1-1.7,1.9c-0.6,1.1-0.9,2.3-0.9,3.5c3.1,1.9,7.3,1,9.2-2.2
											C47.9,45.7,48.1,45,48.3,44.3"/>
									</g>
								</g>
							</g>
						</g>
						<g class="st9">
							<g>
								<defs>
									<rect id="SVGID_15_" x="38.2" y="36.2" width="9.1" height="7.9"/>
								</defs>
								<clipPath id="SVGID_16_">
									<use xlink:href="#SVGID_15_"  style="overflow:visible;"/>
								</clipPath>
								<g class="st13">
									<g>
										<path class="st7" d="M47.3,43.6c-1.3-0.8-2.3-2-2.8-3.4c0,0-0.1-0.3-0.1-0.3c-0.3-0.8-0.4-1.6-0.5-2.4v-0.3
											c0-0.2,0-0.5,0-0.7c-0.7-0.2-1.4-0.4-2.1-0.4c-1.2,0-2.5,0.3-3.5,1c-0.1,3,1.9,5.7,4.8,6.6C44.4,44.2,45.9,44.2,47.3,43.6
											"/>
									</g>
								</g>
							</g>
						</g>
						<g>
							<path class="st7" d="M51.4,51.1c0-0.1,0.1-0.2,0.1-0.3c0.3-0.7,0.4-1.5,0.4-2.3v-0.3c0-0.8-0.2-1.6-0.4-2.3l-0.1-0.3
								c-0.6-1.4-1.7-2.6-3-3.4c-0.9-0.5-1.6-1.2-2.1-2.1C46.2,40,46,39.6,46,39.4c-0.5-1.4-0.5-3,0.1-4.3l0.3-0.5l0.1-0.1
								c0.4-0.7,1-1.3,1.7-1.7c0.7,0.5,1.3,1.1,1.8,1.9c0.4,0.7,0.6,1.5,0.7,2.3c0.4-0.3,0.8-0.5,1.3-0.7c-0.2-0.9-0.5-1.9-1-2.7
								c-0.6-0.9-1.4-1.7-2.4-2.2l-0.3-0.2h-0.1h-0.1l-0.3,0.2c-1.3,0.8-2.4,1.9-3,3.4c0,0.1-0.1,0.2-0.1,0.3
								c-0.3,0.7-0.4,1.5-0.5,2.3v0.3c0,0.8,0.2,1.6,0.5,2.3l0.1,0.3c0.6,1.4,1.7,2.6,3,3.4c0.9,0.5,1.6,1.2,2.1,2.1
								c0.1,0.2,0.3,0.6,0.4,0.8c0.5,1.4,0.5,3-0.1,4.3c-0.1,0.2-0.3,0.5-0.3,0.5l-0.1,0.1c-0.4,0.7-1,1.3-1.7,1.7
								c-0.7-0.5-1.3-1.1-1.8-1.9c-0.4-0.7-0.6-1.4-0.7-2.1c-0.4,0.2-0.8,0.5-1.3,0.7c0.2,0.9,0.5,1.8,1,2.5
								c0.6,0.9,1.4,1.7,2.4,2.2l0.3,0.2h0.1l0,0l0.3-0.2C49.8,53.7,50.8,52.5,51.4,51.1"/>
						</g>
						<g>
							<path class="st7" d="M257,458H77c-1.1,0-2-0.9-2-2s0.9-2,2-2h180c1.1,0,2,0.9,2,2S258.1,458,257,458"/>
						</g>
					</g>
				</g>
				<g class="st6">
					<path class="st7" d="M44.3,453.7h-1.7v-1h1c0.4,0,0.8-0.3,0.8-0.8v-0.6h1.1l0,9h-1.2V453.7z"/>
				</g>
				<g class="st6">
					<path class="st7" d="M48.4,460.9h-1.2l5-11.2h1.2L48.4,460.9z"/>
				</g>
				<g class="st6">
					<path class="st7" d="M59.8,457.6c0,1.4-1.1,2.7-3,2.7c-1.8,0-2.9-1.2-2.9-2.6h1.2c0.1,0.6,0.6,1.4,1.7,1.4
						c1.1,0,1.7-0.8,1.7-1.6c0-0.8-0.5-1.5-1.7-1.5h-0.5v-1.1h0.4c0.9,0,1.5-0.5,1.5-1.3c0-0.7-0.5-1.3-1.4-1.3
						c-0.7,0-1.3,0.4-1.4,1h-1.2c0-1.3,1.2-2.2,2.6-2.2c1.5,0,2.6,1,2.6,2.3c0,0.8-0.4,1.5-1,1.8v0.2
						C59.2,455.8,59.8,456.6,59.8,457.6z"/>
				</g>
				<g class="st6">
					<path class="st7" d="M332.6,450.5v9.8h-1.8l-3.9-6.3h-0.2v6.3h-1.8v-9.8h1.8l3.9,6.2h0.2v-6.2H332.6z"/>
				</g>
				<g class="st6">
					<path class="st7" d="M340.8,457.3h-5.1c0.2,1.1,1.1,1.5,1.8,1.5c1,0,1.4-0.6,1.4-0.6h1.8c-0.5,1.4-1.8,2.2-3.2,2.2
						c-1.9,0-3.5-1.4-3.5-3.6c0-2.2,1.6-3.5,3.5-3.5C339.3,453.2,341.1,454.5,340.8,457.3z M335.8,455.9h3.2
						c-0.2-0.8-0.8-1.2-1.5-1.2C336.7,454.7,336.1,455.2,335.8,455.9z"/>
				</g>
				<g class="st6">
					<path class="st7" d="M344.9,457.9h-0.2l-1.4,2.4h-2l2.3-3.6l-2.2-3.4h2l1.4,2.1h0.2l1.3-2.1h2l-2.2,3.4l2.3,3.6h-2L344.9,457.9
						z"/>
				</g>
				<g class="st6">
					<path class="st7" d="M354.6,459.8c0,0-0.6,0.6-1.7,0.6c-1.3,0-2.5-0.9-2.5-2.3v-3.2h-1.4v-1.4h0.7c0.5,0,0.8-0.3,0.8-0.8v-1.4
						h1.7v2.1h1.8v1.5h-1.8v3.1c0,0.5,0.4,0.8,0.9,0.8c0.4,0,0.8-0.2,0.8-0.2L354.6,459.8z"/>
				</g>
				<g>
					<defs>
						<rect id="SVGID_17_" y="-1" width="420" height="518"/>
					</defs>
					<clipPath id="SVGID_18_">
						<use xlink:href="#SVGID_17_"  style="overflow:visible;"/>
					</clipPath>
					<g class="st14">
						<g>
							<path class="st5" d="M134,458H77c-1.1,0-2-0.9-2-2s0.9-2,2-2h57c1.1,0,2,0.9,2,2S135.1,458,134,458"/>
						</g>
					</g>
				</g>
			</g>
		</g>
	</g>
</g>
</svg>
