<svg id="Livello_1" data-name="Livello 1" xmlns="http://www.w3.org/2000/svg" xmlns:xlink="http://www.w3.org/1999/xlink" viewBox="0 0 351.45 457.02"><defs><style>.cls-1{fill:none;}.cls-2{fill:#2b4835;}.cls-10,.cls-11,.cls-3,.cls-7,.cls-9{isolation:isolate;}.cls-4,.cls-7{fill:#2ff141;}.cls-5{fill:#e9edd9;}.cls-6,.cls-7{opacity:0.4;}.cls-8{clip-path:url(#clip-path);}.cls-10,.cls-11,.cls-9{opacity:0.3;}.cls-9{fill:url(#Sfumatura_senza_nome);}.cls-10{fill:url(#Sfumatura_senza_nome_2);}.cls-11{fill:url(#Sfumatura_senza_nome_3);}</style><clipPath id="clip-path"><path class="cls-1" d="M351.45,260.24H37.65V0h293.8a20,20,0,0,1,20,20V260.24Z"/></clipPath><linearGradient id="Sfumatura_senza_nome" x1="-65.45" y1="1734.1" x2="124.99" y2="1734.1" gradientTransform="matrix(-0.16, -0.99, -0.99, 0.16, 2066.29, -251.78)" gradientUnits="userSpaceOnUse"><stop offset="0" stop-color="#1eaf32"/><stop offset="0.09" stop-color="#1eaf32" stop-opacity="0.84"/><stop offset="0.24" stop-color="#1eaf32" stop-opacity="0.58"/><stop offset="0.39" stop-color="#1eaf32" stop-opacity="0.37"/><stop offset="0.55" stop-color="#1eaf32" stop-opacity="0.21"/><stop offset="0.7" stop-color="#1eaf32" stop-opacity="0.09"/><stop offset="0.85" stop-color="#1eaf32" stop-opacity="0.02"/><stop offset="1" stop-color="#1eaf32" stop-opacity="0"/></linearGradient><linearGradient id="Sfumatura_senza_nome_2" x1="366.38" y1="1764.39" x2="556.83" y2="1764.39" gradientTransform="matrix(-0.52, -0.86, -0.86, 0.52, 2112.02, -475.03)" xlink:href="#Sfumatura_senza_nome"/><linearGradient id="Sfumatura_senza_nome_3" x1="768.05" y1="1593.92" x2="958.49" y2="1593.92" gradientTransform="matrix(-0.8, -0.6, -0.6, 0.8, 2050.02, -677.51)" gradientUnits="userSpaceOnUse"><stop offset="0" stop-color="#1eaf32"/><stop offset="0.05" stop-color="#1eaf32" stop-opacity="0.88"/><stop offset="0.15" stop-color="#1eaf32" stop-opacity="0.65"/><stop offset="0.26" stop-color="#1eaf32" stop-opacity="0.45"/><stop offset="0.37" stop-color="#1eaf32" stop-opacity="0.29"/><stop offset="0.5" stop-color="#1eaf32" stop-opacity="0.16"/><stop offset="0.63" stop-color="#1eaf32" stop-opacity="0.07"/><stop offset="0.78" stop-color="#1eaf32" stop-opacity="0.02"/><stop offset="1" stop-color="#1eaf32" stop-opacity="0"/></linearGradient></defs><title>Tavola disegno 1</title><rect class="cls-2" y="0.14" width="351.45" height="456.88" rx="17.83"/><g class="cls-3"><path class="cls-4" d="M41.67,413.61v-7.33h.81v3.06a1.54,1.54,0,0,1,.69-.65,2.26,2.26,0,0,1,.94-.2,2.31,2.31,0,0,1,1,.21,1.56,1.56,0,0,1,.7.62,2,2,0,0,1,.27,1.08v3.21h-.8v-2.93a1.52,1.52,0,0,0-.36-1.16,1.25,1.25,0,0,0-.88-.33,1.72,1.72,0,0,0-.72.17,1.46,1.46,0,0,0-.6.56,2,2,0,0,0-.23,1v2.66Z"/></g><g class="cls-3"><path class="cls-4" d="M50.53,408.59v.69H46.89v-.69Zm-1.83-1.42v5.05a.7.7,0,0,0,.21.56.8.8,0,0,0,.54.18,1.24,1.24,0,0,0,.5-.1,1.46,1.46,0,0,0,.38-.27l.29.67a1.79,1.79,0,0,1-.55.33,2,2,0,0,1-.73.12,1.87,1.87,0,0,1-.71-.13,1.2,1.2,0,0,1-.53-.44,1.35,1.35,0,0,1-.2-.77v-5Z"/></g><g class="cls-3"><path class="cls-4" d="M53.8,408.59v.69H50.16v-.69ZM52,407.17v5.05a.7.7,0,0,0,.21.56.8.8,0,0,0,.54.18,1.24,1.24,0,0,0,.5-.1,1.46,1.46,0,0,0,.38-.27l.29.67a1.79,1.79,0,0,1-.55.33,2,2,0,0,1-.73.12,1.87,1.87,0,0,1-.71-.13,1.2,1.2,0,0,1-.53-.44,1.35,1.35,0,0,1-.2-.77v-5Z"/><path class="cls-4" d="M54.69,415.72v-7.13h.7l.07,1.23-.11-.15a1.77,1.77,0,0,1,.39-.61,1.87,1.87,0,0,1,.64-.42,2.07,2.07,0,0,1,.8-.15,2.14,2.14,0,0,1,1.13.31,2.38,2.38,0,0,1,.83.89,3.06,3.06,0,0,1,.31,1.41,2.92,2.92,0,0,1-.32,1.4,2.28,2.28,0,0,1-.84.9,2.15,2.15,0,0,1-1.14.31,1.89,1.89,0,0,1-1.09-.31,1.77,1.77,0,0,1-.67-.77l.1-.15v3.24ZM57.07,413a1.43,1.43,0,0,0,1.16-.52,2.15,2.15,0,0,0,.42-1.39,2.21,2.21,0,0,0-.41-1.39,1.38,1.38,0,0,0-1.14-.52,1.48,1.48,0,0,0-.84.24,1.6,1.6,0,0,0-.57.66,2.43,2.43,0,0,0-.2,1,2.38,2.38,0,0,0,.2,1,1.47,1.47,0,0,0,.55.67A1.45,1.45,0,0,0,57.07,413Z"/><path class="cls-4" d="M62.49,413.71a2.91,2.91,0,0,1-1.35-.31,2.25,2.25,0,0,1-1-.88l.68-.5a1.77,1.77,0,0,0,.65.73,2,2,0,0,0,1,.26,1.41,1.41,0,0,0,.83-.21.61.61,0,0,0,.17-.92.87.87,0,0,0-.52-.26l-1.2-.25a1.91,1.91,0,0,1-1-.5,1.28,1.28,0,0,1-.32-.87,1.29,1.29,0,0,1,.24-.76,1.65,1.65,0,0,1,.67-.54,2.34,2.34,0,0,1,1-.21,2.58,2.58,0,0,1,1.26.29,1.88,1.88,0,0,1,.76.82l-.67.45a1.2,1.2,0,0,0-.56-.65,1.61,1.61,0,0,0-.79-.21,1.87,1.87,0,0,0-.62.1.89.89,0,0,0-.39.28.64.64,0,0,0-.13.4.62.62,0,0,0,.15.4.92.92,0,0,0,.56.27l1.25.26a1.76,1.76,0,0,1,1,.46,1.2,1.2,0,0,1,.28.78,1.43,1.43,0,0,1-.25.83,1.59,1.59,0,0,1-.71.55A2.57,2.57,0,0,1,62.49,413.71Z"/><path class="cls-4" d="M66.23,408.49a.62.62,0,0,1,.65.65.63.63,0,0,1-.18.47.6.6,0,0,1-.47.18.61.61,0,0,1-.48-.18.63.63,0,0,1-.18-.47.64.64,0,0,1,.18-.47A.65.65,0,0,1,66.23,408.49Zm0,3.92a.64.64,0,0,1,.47.18.63.63,0,0,1,.18.47.62.62,0,0,1-.65.65.65.65,0,0,1-.48-.18.64.64,0,0,1-.18-.47.63.63,0,0,1,.18-.47A.65.65,0,0,1,66.23,412.41Z"/></g><g class="cls-3"><path class="cls-4" d="M71.52,406.28l-3.08,8h-.75l3.07-8Z"/></g><g class="cls-3"><g class="cls-3"><path class="cls-4" d="M74,406.28l-3.08,8h-.75l3.07-8Z"/><path class="cls-4" d="M75.62,406.28v6.05a.77.77,0,0,0,.14.53.62.62,0,0,0,.46.15,1.55,1.55,0,0,0,.33,0l.35-.11-.13.7a2,2,0,0,1-.35.11,2.6,2.6,0,0,1-.4,0,1.14,1.14,0,0,1-.9-.33,1.47,1.47,0,0,1-.3-1v-6.09Z"/><path class="cls-4" d="M78,407.63a.58.58,0,0,1-.43-.17.59.59,0,0,1-.17-.44.58.58,0,0,1,.6-.6.6.6,0,0,1,.44.17.57.57,0,0,1,.16.43.58.58,0,0,1-.16.44A.6.6,0,0,1,78,407.63Zm.4,1v5h-.8v-5Z"/><path class="cls-4" d="M80,413.61v-5h.7l.07,1.12-.13-.11a1.76,1.76,0,0,1,.43-.64,1.53,1.53,0,0,1,.63-.36,2.65,2.65,0,0,1,.74-.11,2.24,2.24,0,0,1,1,.21,1.58,1.58,0,0,1,.71.62,2,2,0,0,1,.27,1.08v3.21h-.81v-2.93a1.52,1.52,0,0,0-.35-1.16,1.25,1.25,0,0,0-.88-.33,1.72,1.72,0,0,0-.72.17,1.46,1.46,0,0,0-.6.56,1.88,1.88,0,0,0-.24,1v2.67Z"/></g><g class="cls-3"><path class="cls-4" d="M86.72,406.28v7.33h-.81v-7.33Zm3.6,2.31-2.17,2.17L88,411l-1.64,1.65v-1l3-3Zm-2.1,1.76,2.22,3.26h-1l-1.92-2.81Z"/></g></g><g class="cls-3"><path class="cls-4" d="M91.71,412.41a.64.64,0,0,1,.47.18.63.63,0,0,1,.18.47.62.62,0,0,1-.65.65.65.65,0,0,1-.48-.18.64.64,0,0,1-.18-.47.63.63,0,0,1,.18-.47A.65.65,0,0,1,91.71,412.41Z"/></g><g class="cls-3"><path class="cls-4" d="M95.55,408.49a2.36,2.36,0,0,1,.92.16,2.14,2.14,0,0,1,.69.46,2.43,2.43,0,0,1,.47.72l-.76.36a1.53,1.53,0,0,0-.49-.74,1.35,1.35,0,0,0-.85-.26,1.6,1.6,0,0,0-.86.23,1.41,1.41,0,0,0-.55.65,2.49,2.49,0,0,0-.19,1,2.41,2.41,0,0,0,.19,1,1.39,1.39,0,0,0,.55.66,1.6,1.6,0,0,0,.86.23,1.76,1.76,0,0,0,.68-.12,1.19,1.19,0,0,0,.47-.35,1.36,1.36,0,0,0,.26-.57l.74.27a2.4,2.4,0,0,1-.47.79,1.93,1.93,0,0,1-.71.51,2.55,2.55,0,0,1-1,.17,2.47,2.47,0,0,1-1.25-.31,2.22,2.22,0,0,1-.87-.9,3.32,3.32,0,0,1,0-2.8,2.22,2.22,0,0,1,.87-.9A2.47,2.47,0,0,1,95.55,408.49Z"/><path class="cls-4" d="M100.87,408.49a2.45,2.45,0,0,1,1.26.31,2.2,2.2,0,0,1,.86.9,3.32,3.32,0,0,1,0,2.8,2.2,2.2,0,0,1-.86.9,2.7,2.7,0,0,1-2.51,0,2.22,2.22,0,0,1-.87-.9,3.32,3.32,0,0,1,0-2.8,2.22,2.22,0,0,1,.87-.9A2.47,2.47,0,0,1,100.87,408.49Zm0,.69a1.61,1.61,0,0,0-.87.23,1.58,1.58,0,0,0-.56.66,2.49,2.49,0,0,0-.19,1,2.41,2.41,0,0,0,.19,1,1.55,1.55,0,0,0,.56.67,1.61,1.61,0,0,0,.87.23,1.65,1.65,0,0,0,.88-.23,1.53,1.53,0,0,0,.55-.67,2.41,2.41,0,0,0,.2-1,2.49,2.49,0,0,0-.2-1,1.55,1.55,0,0,0-.55-.66A1.65,1.65,0,0,0,100.87,409.18Z"/><path class="cls-4" d="M104.52,413.61v-5h.7l0,.78a1.69,1.69,0,0,1,.71-.67,2,2,0,0,1,.9-.21,2.17,2.17,0,0,1,1,.24,1.57,1.57,0,0,1,.72.74,1.45,1.45,0,0,1,.46-.55,1.88,1.88,0,0,1,.63-.32,2.28,2.28,0,0,1,.66-.11,2.24,2.24,0,0,1,.92.2,1.79,1.79,0,0,1,.72.62,2,2,0,0,1,.28,1.09v3.21h-.8v-3.13a1.25,1.25,0,0,0-.35-1,1.2,1.2,0,0,0-.84-.3,1.56,1.56,0,0,0-.73.19,1.44,1.44,0,0,0-.55.57,1.8,1.8,0,0,0-.21.91v2.75H108v-3.13a1.25,1.25,0,0,0-.34-1,1.24,1.24,0,0,0-.84-.3,1.5,1.5,0,0,0-1.26.74,1.92,1.92,0,0,0-.23,1v2.68Z"/></g><g class="cls-3"><path class="cls-4" d="M117,406.28l-3.08,8h-.75l3.07-8Z"/></g><g class="cls-3"><path class="cls-4" d="M117.62,415.72v-7.13h.71l.07,1.23-.11-.15a1.52,1.52,0,0,1,.39-.61,1.74,1.74,0,0,1,.63-.42,2.15,2.15,0,0,1,.8-.15,2.11,2.11,0,0,1,1.13.31,2.3,2.3,0,0,1,.83.89,3.34,3.34,0,0,1,0,2.81,2.28,2.28,0,0,1-.84.9,2.18,2.18,0,0,1-1.15.31,1.93,1.93,0,0,1-1.09-.31,1.68,1.68,0,0,1-.66-.77l.1-.15v3.24ZM120,413a1.42,1.42,0,0,0,1.16-.52,2.15,2.15,0,0,0,.42-1.39,2.21,2.21,0,0,0-.41-1.39,1.38,1.38,0,0,0-1.14-.52,1.48,1.48,0,0,0-.84.24,1.58,1.58,0,0,0-.56.66,2.28,2.28,0,0,0-.2,1,2.38,2.38,0,0,0,.19,1,1.54,1.54,0,0,0,.55.67A1.47,1.47,0,0,0,120,413Z"/><path class="cls-4" d="M125.72,413.71a2.52,2.52,0,0,1-1.27-.31,2.1,2.1,0,0,1-.87-.9,3.32,3.32,0,0,1,0-2.8,2.17,2.17,0,0,1,.85-.9,2.4,2.4,0,0,1,1.24-.31,2.32,2.32,0,0,1,1.2.3,1.92,1.92,0,0,1,.75.82,2.45,2.45,0,0,1,.26,1.16,3,3,0,0,1,0,.31,1,1,0,0,1,0,.25h-4v-.71h3.7l-.41.08a1.51,1.51,0,0,0-.4-1.12,1.4,1.4,0,0,0-1-.39,1.54,1.54,0,0,0-.85.23,1.56,1.56,0,0,0-.56.65,2.49,2.49,0,0,0-.19,1,2.41,2.41,0,0,0,.2,1,1.42,1.42,0,0,0,.57.66,1.62,1.62,0,0,0,.88.23,1.7,1.7,0,0,0,.89-.21,1.49,1.49,0,0,0,.56-.58l.63.38a2.07,2.07,0,0,1-1.18,1A2.71,2.71,0,0,1,125.72,413.71Z"/></g><g class="cls-3"><path class="cls-4" d="M129.11,413.61v-5h.66l.11.82a1.52,1.52,0,0,1,.61-.69,2.07,2.07,0,0,1,1-.23l.29,0a.77.77,0,0,1,.27.08l-.14.73-.25-.06-.37,0a1.25,1.25,0,0,0-.62.18,1.41,1.41,0,0,0-.53.55,1.83,1.83,0,0,0-.21.93v2.71Z"/></g><g class="cls-3"><g class="cls-3"><path class="cls-4" d="M134.5,413.71a2.91,2.91,0,0,1-1.35-.31,2.25,2.25,0,0,1-1-.88l.68-.5a1.77,1.77,0,0,0,.65.73,2,2,0,0,0,1,.26,1.41,1.41,0,0,0,.83-.21.6.6,0,0,0,.31-.54.62.62,0,0,0-.14-.38.87.87,0,0,0-.52-.26l-1.2-.25a1.91,1.91,0,0,1-1.05-.5,1.28,1.28,0,0,1-.32-.87,1.29,1.29,0,0,1,.24-.76,1.65,1.65,0,0,1,.67-.54,2.37,2.37,0,0,1,1-.21,2.58,2.58,0,0,1,1.26.29,1.88,1.88,0,0,1,.76.82l-.67.45a1.2,1.2,0,0,0-.56-.65,1.61,1.61,0,0,0-.79-.21,1.87,1.87,0,0,0-.62.1.89.89,0,0,0-.39.28.64.64,0,0,0-.13.4.62.62,0,0,0,.15.4.92.92,0,0,0,.56.27l1.25.26a1.76,1.76,0,0,1,1,.46,1.15,1.15,0,0,1,.28.78,1.36,1.36,0,0,1-.25.83,1.59,1.59,0,0,1-.71.55A2.57,2.57,0,0,1,134.5,413.71Z"/><path class="cls-4" d="M139.76,408.49a2.45,2.45,0,0,1,1.26.31,2.2,2.2,0,0,1,.86.9,3.32,3.32,0,0,1,0,2.8,2.2,2.2,0,0,1-.86.9,2.7,2.7,0,0,1-2.51,0,2.22,2.22,0,0,1-.87-.9,3.32,3.32,0,0,1,0-2.8,2.22,2.22,0,0,1,.87-.9A2.47,2.47,0,0,1,139.76,408.49Zm0,.69a1.61,1.61,0,0,0-.87.23,1.58,1.58,0,0,0-.56.66,2.49,2.49,0,0,0-.19,1,2.41,2.41,0,0,0,.19,1,1.55,1.55,0,0,0,.56.67,1.76,1.76,0,0,0,1.74,0,1.48,1.48,0,0,0,.56-.67,2.41,2.41,0,0,0,.2-1,2.49,2.49,0,0,0-.2-1,1.51,1.51,0,0,0-.56-.66A1.61,1.61,0,0,0,139.76,409.18Z"/><path class="cls-4" d="M143.41,413.61v-5h.7l.07,1.12-.13-.11a1.76,1.76,0,0,1,.43-.64,1.53,1.53,0,0,1,.63-.36,2.6,2.6,0,0,1,.74-.11,2.24,2.24,0,0,1,1,.21,1.63,1.63,0,0,1,.71.62,2.06,2.06,0,0,1,.26,1.08v3.21H147v-2.93a1.52,1.52,0,0,0-.36-1.16,1.22,1.22,0,0,0-.87-.33,1.73,1.73,0,0,0-.73.17,1.38,1.38,0,0,0-.59.56,1.88,1.88,0,0,0-.24,1v2.67Z"/></g><g class="cls-3"><path class="cls-4" d="M152.26,410.37a1.14,1.14,0,0,0-.31-.87,1.11,1.11,0,0,0-.85-.31,1.62,1.62,0,0,0-.88.23,1.29,1.29,0,0,0-.53.73l-.66-.4a1.75,1.75,0,0,1,.75-.91,2.45,2.45,0,0,1,1.34-.35,2.38,2.38,0,0,1,1,.19,1.5,1.5,0,0,1,.7.56,1.68,1.68,0,0,1,.26,1v2.43c0,.24.13.36.38.36a1.5,1.5,0,0,0,.37-.05l0,.63a1.12,1.12,0,0,1-.52.1,1.24,1.24,0,0,1-.52-.11.74.74,0,0,1-.36-.34,1.08,1.08,0,0,1-.13-.56v-.1l.2,0a1.26,1.26,0,0,1-.42.63,1.83,1.83,0,0,1-.65.37,2.56,2.56,0,0,1-.71.11,2.18,2.18,0,0,1-.82-.15,1.29,1.29,0,0,1-.61-.46,1.22,1.22,0,0,1-.23-.75,1.24,1.24,0,0,1,.38-.93,2,2,0,0,1,1.05-.5l2-.39v.66l-1.62.33a1.88,1.88,0,0,0-.73.28.59.59,0,0,0-.24.5.63.63,0,0,0,.24.51,1.12,1.12,0,0,0,.7.2,2.1,2.1,0,0,0,.56-.08,1.37,1.37,0,0,0,.47-.23,1.17,1.17,0,0,0,.34-.39,1.22,1.22,0,0,0,.12-.56Z"/></g></g><g class="cls-3"><path class="cls-4" d="M155.47,406.28v6.05a.72.72,0,0,0,.14.53.58.58,0,0,0,.45.15,1.55,1.55,0,0,0,.33,0l.35-.11-.13.7a1.79,1.79,0,0,1-.35.11l-.39,0a1.16,1.16,0,0,1-.91-.33,1.47,1.47,0,0,1-.3-1v-6.09Z"/></g><g class="cls-3"><g class="cls-3"><path class="cls-4" d="M160.34,410.57v.83H157v-.83Z"/><path class="cls-4" d="M163.69,413.71a2.34,2.34,0,0,1-.91-.18,1.57,1.57,0,0,1-.69-.59,1.87,1.87,0,0,1-.27-1.06v-3.29h.81v3.08a1.35,1.35,0,0,0,.33,1.05,1.38,1.38,0,0,0,.93.29,1.49,1.49,0,0,0,.55-.1,1.25,1.25,0,0,0,.49-.3,1.43,1.43,0,0,0,.34-.53,1.92,1.92,0,0,0,.13-.76v-2.73h.8v5h-.7l-.05-.76a1.53,1.53,0,0,1-.71.65A2.46,2.46,0,0,1,163.69,413.71Z"/></g><g class="cls-3"><path class="cls-4" d="M167.76,413.61v-5h.66l.11.82a1.52,1.52,0,0,1,.61-.69,2.07,2.07,0,0,1,1-.23l.29,0a.77.77,0,0,1,.27.08l-.15.73-.24-.06-.37,0a1.25,1.25,0,0,0-.62.18,1.41,1.41,0,0,0-.53.55,1.83,1.83,0,0,0-.21.93v2.71Z"/></g></g><g class="cls-3"><path class="cls-4" d="M172.33,406.28v6.05a.72.72,0,0,0,.14.53.58.58,0,0,0,.45.15,1.55,1.55,0,0,0,.33,0l.35-.11-.13.7a1.79,1.79,0,0,1-.35.11l-.39,0a1.16,1.16,0,0,1-.91-.33,1.47,1.47,0,0,1-.3-1v-6.09Z"/></g><path class="cls-5" d="M53.31,38.24v.12A1.73,1.73,0,0,0,55,40.07h.16c1,0,1.75-.56,1.75-1.37,0-.58-.31-1.06-1.26-1.44l-1.39-.59c-1.54-.6-2.34-1.37-2.34-2.56,0-1.62,1.5-2.67,3.33-2.67s3.07.84,3.18,2.32L56.64,34v-.14a1.62,1.62,0,0,0-3.2-.2c0,.51.31,1.07,1.48,1.53l1.48.57c1.43.56,2.12,1.31,2.12,2.41,0,1.81-1.7,2.8-3.58,2.8s-3.44-.84-3.44-2.53ZM61,36.39c.22,2.1,1.49,3.12,3,3.12a3.83,3.83,0,0,0,2.8-1.16A3.15,3.15,0,0,1,63.51,41c-2.32,0-4.13-1.92-4.13-4.61,0-2.48,1.48-4.9,4.24-4.9A3,3,0,0,1,67,34.06h0v.3a2.29,2.29,0,0,1,0,.37ZM61,35h4.12c0-2-.9-2.63-1.81-2.63S61.24,33.05,61,35Zm8.41,1.37c.22,2.1,1.5,3.12,3,3.12a3.83,3.83,0,0,0,2.8-1.16A3.15,3.15,0,0,1,72,41c-2.32,0-4.13-1.92-4.13-4.61,0-2.48,1.48-4.9,4.24-4.9a3,3,0,0,1,3.3,2.67h0v.22a2.29,2.29,0,0,1,0,.37Zm0-1.37h4.11c0-2-.9-2.63-1.81-2.63s-2,.66-2.25,2.63ZM84.1,40.79H82.56V39.42A3.32,3.32,0,0,1,79.91,41c-1.88,0-3.64-1.57-3.64-4.5s1.81-5,4.33-5a4.75,4.75,0,0,1,2,.41V28l1.59-.24ZM82.51,39V33.34a2.69,2.69,0,0,0-2-.93c-1.3,0-2.62,1-2.62,3.58,0,2.06,1,3.67,2.82,3.67A2.91,2.91,0,0,0,82.56,39Zm4.42-.76v.12a1.73,1.73,0,0,0,1.71,1.71h.15c1,0,1.76-.56,1.76-1.37,0-.58-.31-1.06-1.26-1.44L88,36.66c-1.54-.6-2.34-1.37-2.34-2.56,0-1.62,1.5-2.67,3.33-2.67s3.07.84,3.18,2.32L90.36,34v-.14a1.62,1.62,0,0,0-3.2-.2c0,.51.31,1.07,1.48,1.53l1.48.57c1.43.56,2.12,1.31,2.12,2.41,0,1.81-1.7,2.8-3.58,2.8s-3.44-.84-3.44-2.53Zm7.29.31a1.12,1.12,0,0,0,.1,2.24h0a1.12,1.12,0,0,0,0-2.24h-.1Z"/><g class="cls-6"><path class="cls-4" d="M39.82,35.66l.2-.09-.17-.12Z"/><path class="cls-4" d="M47.69,31.8A5,5,0,0,0,45,31a5.19,5.19,0,0,0-5.06,4.06,4.48,4.48,0,0,0,.44.32,5.2,5.2,0,0,1,.55-.21h0A5.42,5.42,0,0,1,42.48,35a5.58,5.58,0,0,1,3.23,1A5.3,5.3,0,0,0,47,34.54,5.16,5.16,0,0,0,47.69,31.8Z"/></g><path class="cls-7" d="M47,37.87a5.2,5.2,0,0,0-6.31-2.21,5.7,5.7,0,0,1,2.21,2.62l.09.22a6,6,0,0,1,.36,1.88v.26h0v.53a5.25,5.25,0,0,0,1.66.27,5.15,5.15,0,0,0,2.72-.78A5.25,5.25,0,0,0,47,37.87Z"/><g class="cls-6"><path class="cls-4" d="M40.3,36.76l-.21.1a1.09,1.09,0,0,1,.17.13A1.85,1.85,0,0,0,40.3,36.76Z"/><path class="cls-4" d="M40.2,37.33a3.43,3.43,0,0,0-.43-.32c-.13.05-.26.11-.4.15h0a5.48,5.48,0,0,1-5-.75,5,5,0,0,0-1.26,1.46,5.2,5.2,0,0,0-.7,2.75,5.26,5.26,0,0,0,2.73.77,5.17,5.17,0,0,0,5-4.06Z"/></g><path class="cls-7" d="M39.43,36.8a5.85,5.85,0,0,1-2.21-2.61h0L37.13,34h0a5.5,5.5,0,0,1-.36-1.88v-.25a4.69,4.69,0,0,1,0-.53A5.23,5.23,0,0,0,35.11,31a5,5,0,0,0-2.72.77,5.18,5.18,0,0,0,5,5.33,5.26,5.26,0,0,0,2-.33Z"/><path class="cls-4" d="M42.62,42.58l.09-.22a5.41,5.41,0,0,0,.34-1.78v-.24a5.41,5.41,0,0,0-.34-1.78l-.09-.22a5.42,5.42,0,0,0-2.29-2.6,4.34,4.34,0,0,1-1.62-1.62c-.1-.2-.2-.4-.28-.6a4.1,4.1,0,0,1-.29-1.66,4.46,4.46,0,0,1,.37-1.69l.21-.41.06-.09h0a4.1,4.1,0,0,1,1.28-1.34,4.6,4.6,0,0,1,1.35,1.46A4.42,4.42,0,0,1,42,31.56,4.27,4.27,0,0,1,43,31a5.48,5.48,0,0,0-2.64-3.8.94.94,0,0,0-.22-.12h0a.94.94,0,0,0-.22.12,5.33,5.33,0,0,0-2.29,2.6,1,1,0,0,0-.09.21,5.41,5.41,0,0,0-.34,1.78V32a5.41,5.41,0,0,0,.34,1.78l.09.21a5.33,5.33,0,0,0,2.21,2.59,4.34,4.34,0,0,1,1.62,1.62c.08.14.22.47.28.6A4.39,4.39,0,0,1,42,40.56a4.29,4.29,0,0,1-.38,1.69,1.47,1.47,0,0,1-.2.4l-.06.1h0a4.31,4.31,0,0,1-1.28,1.34,4.36,4.36,0,0,1-1.37-1.43A4.44,4.44,0,0,1,38.17,41a9.4,9.4,0,0,1-1,.51,5.23,5.23,0,0,0,.83,2,5.38,5.38,0,0,0,1.83,1.75l.22.11h.05l.21-.12A5.39,5.39,0,0,0,42.62,42.58Z"/><g class="cls-8"><path class="cls-9" d="M189.11,21.06c19.66-61.62,72.81-108.15,141-119.13A177.11,177.11,0,0,1,500.37-29a177.09,177.09,0,0,1-140,119C292.16,100.93,227.1,73.42,189.11,21.06Z"/><path class="cls-10" d="M230.17,127.31C225.17,62.82,257-.28,316.05-36.11a177.12,177.12,0,0,1,183.71,0,177.15,177.15,0,0,1-85,162.87C355.7,162.57,285.06,161.54,230.17,127.31Z"/><path class="cls-11" d="M305.05,203.2c-28.53-58-22.46-128.43,19.13-183.62A177.1,177.1,0,0,1,494.76-48.59a177.09,177.09,0,0,1-18.48,182.77C434.7,189.37,368.72,214.66,305.05,203.2Z"/></g><g class="cls-3"><path class="cls-5" d="M43.57,81.13a5.64,5.64,0,0,1,2.4.47,3.51,3.51,0,0,1,1.53,1.34,4.32,4.32,0,0,1,0,4.22A3.51,3.51,0,0,1,46,88.5a5.5,5.5,0,0,1-2.4.47H41v4.31H38.47V81.13ZM43.19,87a2.6,2.6,0,0,0,1.71-.49,1.78,1.78,0,0,0,.57-1.43,1.74,1.74,0,0,0-.57-1.43,2.6,2.6,0,0,0-1.71-.48H41V87Z"/></g><g class="cls-3"><path class="cls-5" d="M54.8,87.41a1.67,1.67,0,0,0-.45-1.24,1.65,1.65,0,0,0-1.19-.44,2.08,2.08,0,0,0-1.19.35,2,2,0,0,0-.76,1.16l-2.15-.66a3.3,3.3,0,0,1,1.37-2,4.9,4.9,0,0,1,2.84-.74,5.5,5.5,0,0,1,2.12.38A3.11,3.11,0,0,1,56.8,85.4a3.32,3.32,0,0,1,.51,1.9V91c0,.47.22.7.66.7a1.92,1.92,0,0,0,.59-.09l-.15,1.57a2.67,2.67,0,0,1-1.2.24,2.89,2.89,0,0,1-1.16-.23,1.77,1.77,0,0,1-.81-.67A2.06,2.06,0,0,1,55,91.42v-.07l.44-.08a2,2,0,0,1-.61,1.19,3.22,3.22,0,0,1-1.2.75,4.28,4.28,0,0,1-1.47.25,4.23,4.23,0,0,1-1.62-.28,2.32,2.32,0,0,1-1.05-.84A2.44,2.44,0,0,1,49.08,91a2.28,2.28,0,0,1,.66-1.69,3.63,3.63,0,0,1,1.9-.89l3.46-.7,0,1.57-2.21.44a2.72,2.72,0,0,0-.95.34.77.77,0,0,0-.32.69.79.79,0,0,0,.34.7,1.39,1.39,0,0,0,.82.24,3.08,3.08,0,0,0,.75-.09,1.94,1.94,0,0,0,.67-.3,1.39,1.39,0,0,0,.46-.55,2,2,0,0,0,.16-.85Z"/></g><g class="cls-3"><path class="cls-5" d="M67.65,84.08l-3.72,9.77a7.51,7.51,0,0,1-1,2,3.24,3.24,0,0,1-1.25,1.07,3.93,3.93,0,0,1-1.68.33,4.58,4.58,0,0,1-1.32-.18,3.8,3.8,0,0,1-1-.45l.54-1.82a2.28,2.28,0,0,0,.73.4,3,3,0,0,0,.89.12,1.71,1.71,0,0,0,.89-.23,1.65,1.65,0,0,0,.63-.88l.32-.79-1-2.39-2.81-6.94h2.8l1.74,5.52.48,1.84.57-2,1.68-5.41Z"/></g><g class="cls-3"><path class="cls-5" d="M84.64,84.08h2.69l-3,9.2H81.47l-2-6.26-1.94,6.26H74.62l-2.94-9.2h2.69l1.84,7,2-7h2.51l2.06,7Z"/><path class="cls-5" d="M89.61,82.75a1.73,1.73,0,0,1-1.18-.34,1.25,1.25,0,0,1-.38-1,1.29,1.29,0,0,1,.38-1,2.22,2.22,0,0,1,2.36,0,1.3,1.3,0,0,1,.39,1,1.26,1.26,0,0,1-.39,1A1.73,1.73,0,0,1,89.61,82.75Zm1.25,1.33v9.2H88.34v-9.2Z"/></g><g class="cls-3"><path class="cls-5" d="M99.19,84.08V86H92V84.08Zm-3-2.82v9a1.28,1.28,0,0,0,.34,1,1.37,1.37,0,0,0,.93.3,2.19,2.19,0,0,0,.82-.14A2.07,2.07,0,0,0,99,91l.41,1.68a3.39,3.39,0,0,1-1.11.55,5,5,0,0,1-3-.07,2.26,2.26,0,0,1-1.1-.89,2.86,2.86,0,0,1-.4-1.62V82Z"/></g><g class="cls-3"><path class="cls-5" d="M100.5,93.28V80H103v5.6a3,3,0,0,1,1.21-1.32,3.63,3.63,0,0,1,1.75-.43,3.7,3.7,0,0,1,1.7.37,2.74,2.74,0,0,1,1.18,1.11,3.67,3.67,0,0,1,.44,1.87v6h-2.53V88a2.28,2.28,0,0,0-.46-1.65,1.61,1.61,0,0,0-1.18-.45,2.2,2.2,0,0,0-1,.25,1.82,1.82,0,0,0-.79.81,3.14,3.14,0,0,0-.3,1.48v4.86Z"/></g><g class="cls-3"><g class="cls-3"><path class="cls-4" d="M121.11,81a6.93,6.93,0,0,1,2.91.57,5.73,5.73,0,0,1,2.14,1.69l-1.42,1.64a5,5,0,0,0-1.65-1.41A4.54,4.54,0,0,0,121,83a3.58,3.58,0,0,0-1.28.2,1.59,1.59,0,0,0-.74.54,1.26,1.26,0,0,0-.23.73,1.08,1.08,0,0,0,.39.84,3.15,3.15,0,0,0,1.33.56l2.26.52a5.26,5.26,0,0,1,2.59,1.2,2.86,2.86,0,0,1,.78,2.07,3.38,3.38,0,0,1-.63,2.06,3.85,3.85,0,0,1-1.75,1.3,6.82,6.82,0,0,1-2.57.45,8.49,8.49,0,0,1-2.33-.3,6.79,6.79,0,0,1-1.89-.84,5.48,5.48,0,0,1-1.38-1.23L117,89.38a4.92,4.92,0,0,0,1,1.05,5.19,5.19,0,0,0,1.43.72,5.29,5.29,0,0,0,1.69.27,4.31,4.31,0,0,0,1.28-.17,1.77,1.77,0,0,0,.79-.5,1.19,1.19,0,0,0,.26-.78,1.12,1.12,0,0,0-.32-.82,2.32,2.32,0,0,0-1.18-.53l-2.47-.55a7.79,7.79,0,0,1-1.83-.67,2.94,2.94,0,0,1-1.16-1.07,2.9,2.9,0,0,1-.4-1.56,3.42,3.42,0,0,1,.59-2,4.05,4.05,0,0,1,1.7-1.37A6.41,6.41,0,0,1,121.11,81Z"/><path class="cls-4" d="M132,93.46a5.34,5.34,0,0,1-2.53-.57,4,4,0,0,1-1.67-1.64,6,6,0,0,1,0-5.15,4.13,4.13,0,0,1,1.65-1.64,5,5,0,0,1,2.42-.57,4.76,4.76,0,0,1,2.38.56A3.91,3.91,0,0,1,135.73,86a4.64,4.64,0,0,1,.51,2.2c0,.25,0,.48,0,.7s0,.42-.06.59h-7.34V87.72h6.24l-1.22.44a2.68,2.68,0,0,0-.52-1.78,1.84,1.84,0,0,0-1.49-.63,2.16,2.16,0,0,0-1.2.33,2.05,2.05,0,0,0-.77,1,4.53,4.53,0,0,0-.25,1.64,4,4,0,0,0,.28,1.62,2,2,0,0,0,.81.94,2.74,2.74,0,0,0,2.57,0,2,2,0,0,0,.77-.86l2,.77a3.3,3.3,0,0,1-.89,1.24,4.16,4.16,0,0,1-1.42.78A5.59,5.59,0,0,1,132,93.46Z"/><path class="cls-4" d="M142.1,93.46a5.34,5.34,0,0,1-2.53-.57,3.94,3.94,0,0,1-1.67-1.64,5.91,5.91,0,0,1,0-5.15,4,4,0,0,1,1.65-1.64,5,5,0,0,1,2.42-.57,4.72,4.72,0,0,1,2.37.56,3.87,3.87,0,0,1,1.5,1.53,4.64,4.64,0,0,1,.51,2.2c0,.25,0,.48,0,.7s0,.42-.05.59h-7.35V87.72h6.24l-1.21.44a2.68,2.68,0,0,0-.53-1.78,1.82,1.82,0,0,0-1.48-.63,2.11,2.11,0,0,0-1.2.33,2,2,0,0,0-.77,1,4.51,4.51,0,0,0-.26,1.64,4,4,0,0,0,.29,1.62,2,2,0,0,0,.81.94,2.74,2.74,0,0,0,2.57,0,2,2,0,0,0,.77-.86l2,.77a3.33,3.33,0,0,1-.9,1.24,4.11,4.11,0,0,1-1.41.78A5.64,5.64,0,0,1,142.1,93.46Z"/><path class="cls-4" d="M151.41,93.46a3.67,3.67,0,0,1-2-.57,3.78,3.78,0,0,1-1.4-1.64,5.86,5.86,0,0,1-.51-2.55,5.79,5.79,0,0,1,.54-2.61,3.93,3.93,0,0,1,1.44-1.64,3.88,3.88,0,0,1,2.06-.56,2.89,2.89,0,0,1,2,.7,3.27,3.27,0,0,1,1,1.8l-.24.3V80h2.53V93.28h-2.27l-.16-2.8.29.15a3.1,3.1,0,0,1-.57,1.5,3.14,3.14,0,0,1-1.16,1A3.33,3.33,0,0,1,151.41,93.46Zm.74-1.93a1.9,1.9,0,0,0,1.14-.34,2.23,2.23,0,0,0,.75-1,4.41,4.41,0,0,0,.26-1.59,3.92,3.92,0,0,0-.25-1.5,2.14,2.14,0,0,0-.74-.94,1.86,1.86,0,0,0-1.12-.34,2,2,0,0,0-1.61.73,4.21,4.21,0,0,0,0,4.25A1.88,1.88,0,0,0,152.15,91.53Z"/><path class="cls-4" d="M162.61,93.46a6.34,6.34,0,0,1-2.55-.49,4.74,4.74,0,0,1-1.87-1.4l1.45-1.47a3.51,3.51,0,0,0,1.18,1.08,3.46,3.46,0,0,0,1.75.42,2.66,2.66,0,0,0,1.15-.21.69.69,0,0,0,.43-.67.72.72,0,0,0-.2-.51,1.63,1.63,0,0,0-.81-.34l-1.62-.33a4.45,4.45,0,0,1-2.27-1,2.35,2.35,0,0,1-.67-1.74,2.49,2.49,0,0,1,.45-1.42,3.15,3.15,0,0,1,1.35-1.07,5.3,5.3,0,0,1,2.24-.42,6.29,6.29,0,0,1,2.41.43,3.67,3.67,0,0,1,1.61,1.28l-1.51,1.48a2.72,2.72,0,0,0-1.06-1,2.9,2.9,0,0,0-1.37-.34,3.2,3.2,0,0,0-.88.11,1.25,1.25,0,0,0-.56.31.66.66,0,0,0-.18.48.64.64,0,0,0,.26.51,2.34,2.34,0,0,0,.94.36l1.87.38a3.56,3.56,0,0,1,1.95.93,2.25,2.25,0,0,1,.59,1.58,2.67,2.67,0,0,1-.47,1.57,3.13,3.13,0,0,1-1.38,1.09A5.64,5.64,0,0,1,162.61,93.46Z"/></g></g><g class="cls-3"><path class="cls-5" d="M192.67,219.65v6.63h-.81v-6.63Zm4,2.89v.76h-4.34v-.76Zm.44-2.89v6.63h-.81v-6.63Z"/></g><g class="cls-3"><path class="cls-5" d="M200.8,226.38a2.54,2.54,0,0,1-1.27-.31,2.22,2.22,0,0,1-.87-.9,3.32,3.32,0,0,1,0-2.8,2.26,2.26,0,0,1,.86-.9,2.39,2.39,0,0,1,1.23-.31,2.27,2.27,0,0,1,1.2.3,1.94,1.94,0,0,1,.76.82,2.57,2.57,0,0,1,.26,1.16,3,3,0,0,1,0,.31c0,.09,0,.18,0,.25h-4.05v-.71h3.7l-.41.08a1.51,1.51,0,0,0-.4-1.12,1.41,1.41,0,0,0-1-.39,1.56,1.56,0,0,0-.85.23,1.54,1.54,0,0,0-.55.65,2.49,2.49,0,0,0-.2,1,2.26,2.26,0,0,0,.21,1,1.46,1.46,0,0,0,.56.66,1.67,1.67,0,0,0,.88.23,1.71,1.71,0,0,0,.9-.21,1.56,1.56,0,0,0,.56-.58l.63.38a2.3,2.3,0,0,1-.49.59,2.1,2.1,0,0,1-.69.39A2.73,2.73,0,0,1,200.8,226.38Z"/></g><g class="cls-3"><path class="cls-5" d="M204.19,226.28v-5h.66l.11.82a1.47,1.47,0,0,1,.61-.69,2,2,0,0,1,1-.23l.29,0a.77.77,0,0,1,.27.08L207,222l-.24-.06-.37,0a1.25,1.25,0,0,0-.62.18,1.41,1.41,0,0,0-.53.55,1.83,1.83,0,0,0-.21.93v2.71Z"/></g><g class="cls-3"><path class="cls-5" d="M209.93,226.38a2.54,2.54,0,0,1-1.27-.31,2.22,2.22,0,0,1-.87-.9,3.32,3.32,0,0,1,0-2.8,2.26,2.26,0,0,1,.86-.9,2.39,2.39,0,0,1,1.23-.31,2.27,2.27,0,0,1,1.2.3,1.94,1.94,0,0,1,.76.82,2.57,2.57,0,0,1,.26,1.16,3,3,0,0,1,0,.31c0,.09,0,.18,0,.25H208v-.71h3.71l-.41.08a1.51,1.51,0,0,0-.4-1.12,1.41,1.41,0,0,0-1-.39,1.56,1.56,0,0,0-.85.23,1.54,1.54,0,0,0-.55.65,2.49,2.49,0,0,0-.19,1,2.26,2.26,0,0,0,.2,1,1.46,1.46,0,0,0,.56.66,1.67,1.67,0,0,0,.88.23,1.71,1.71,0,0,0,.9-.21,1.56,1.56,0,0,0,.56-.58l.63.38a2.3,2.3,0,0,1-.49.59,2.21,2.21,0,0,1-.69.39A2.73,2.73,0,0,1,209.93,226.38Z"/></g><g class="cls-3"><path class="cls-5" d="M219.26,221.26V222h-3.64v-.69Zm-1.83-1.43v5.06a.7.7,0,0,0,.21.56.8.8,0,0,0,.54.18,1.24,1.24,0,0,0,.5-.1,1.46,1.46,0,0,0,.38-.27l.29.67a1.79,1.79,0,0,1-.55.33,2.07,2.07,0,0,1-.73.12,1.87,1.87,0,0,1-.71-.13,1.2,1.2,0,0,1-.53-.44,1.43,1.43,0,0,1-.21-.77v-5Z"/><path class="cls-5" d="M220.15,226.28V219h.8V222a1.65,1.65,0,0,1,.69-.65,2.31,2.31,0,0,1,1-.2,2.24,2.24,0,0,1,1,.21,1.58,1.58,0,0,1,.71.62,2,2,0,0,1,.27,1.08v3.21h-.81v-2.93a1.56,1.56,0,0,0-.35-1.16,1.25,1.25,0,0,0-.88-.33,1.72,1.72,0,0,0-.72.17,1.35,1.35,0,0,0-.6.56,1.94,1.94,0,0,0-.24,1v2.66Z"/><path class="cls-5" d="M228.16,226.38a2.54,2.54,0,0,1-1.27-.31,2.22,2.22,0,0,1-.87-.9,3.32,3.32,0,0,1,0-2.8,2.2,2.2,0,0,1,.86-.9,2.39,2.39,0,0,1,1.23-.31,2.27,2.27,0,0,1,1.2.3,2,2,0,0,1,.76.82,2.57,2.57,0,0,1,.26,1.16,3,3,0,0,1,0,.31c0,.09,0,.18,0,.25h-4.06v-.71h3.71l-.41.08a1.55,1.55,0,0,0-.4-1.12,1.41,1.41,0,0,0-1-.39,1.56,1.56,0,0,0-.85.23,1.47,1.47,0,0,0-.55.65,2.49,2.49,0,0,0-.2,1,2.26,2.26,0,0,0,.21,1,1.46,1.46,0,0,0,.56.66,1.67,1.67,0,0,0,.88.23,1.71,1.71,0,0,0,.9-.21,1.56,1.56,0,0,0,.56-.58l.63.38a2.3,2.3,0,0,1-.49.59,2.33,2.33,0,0,1-.69.39A2.73,2.73,0,0,1,228.16,226.38Z"/></g><g class="cls-3"><path class="cls-5" d="M231.55,226.28v-5h.66l.11.82a1.47,1.47,0,0,1,.61-.69,2.07,2.07,0,0,1,1-.23l.29,0a.77.77,0,0,1,.27.08l-.15.73-.24-.06-.37,0a1.29,1.29,0,0,0-.63.18,1.46,1.46,0,0,0-.52.55,1.83,1.83,0,0,0-.21.93v2.71Z"/></g><g class="cls-3"><path class="cls-5" d="M237.29,226.38a2.54,2.54,0,0,1-1.27-.31,2.22,2.22,0,0,1-.87-.9,3.32,3.32,0,0,1,0-2.8,2.26,2.26,0,0,1,.86-.9,2.39,2.39,0,0,1,1.23-.31,2.27,2.27,0,0,1,1.2.3,1.94,1.94,0,0,1,.76.82,2.57,2.57,0,0,1,.26,1.16,3,3,0,0,1,0,.31c0,.09,0,.18,0,.25h-4.06v-.71h3.71l-.41.08a1.51,1.51,0,0,0-.4-1.12,1.41,1.41,0,0,0-1-.39,1.56,1.56,0,0,0-.85.23,1.54,1.54,0,0,0-.55.65,2.49,2.49,0,0,0-.2,1,2.26,2.26,0,0,0,.21,1,1.46,1.46,0,0,0,.56.66,1.67,1.67,0,0,0,.88.23,1.71,1.71,0,0,0,.9-.21,1.56,1.56,0,0,0,.56-.58l.63.38a2.3,2.3,0,0,1-.49.59,2.1,2.1,0,0,1-.69.39A2.73,2.73,0,0,1,237.29,226.38Z"/></g><g class="cls-3"><g class="cls-3"><path class="cls-5" d="M249.88,221.26h.89l-1.74,5h-.81l-1.41-4-1.34,4h-.8l-1.75-5h.89l1.27,4.09,1.37-4.09h.8l1.36,4.09Z"/><path class="cls-5" d="M252.08,220.3a.6.6,0,0,1-.44-.17.58.58,0,0,1-.16-.44.57.57,0,0,1,.16-.43.6.6,0,0,1,.44-.17.58.58,0,0,1,.6.6.59.59,0,0,1-.17.44A.58.58,0,0,1,252.08,220.3Zm.4,1v5h-.8v-5Z"/></g><g class="cls-3"><path class="cls-5" d="M254.81,219V225a.72.72,0,0,0,.14.53.58.58,0,0,0,.45.15,1.55,1.55,0,0,0,.33,0l.35-.11-.13.7a1.79,1.79,0,0,1-.35.11,2.56,2.56,0,0,1-.39,0,1.16,1.16,0,0,1-.91-.33,1.47,1.47,0,0,1-.3-1V219Z"/></g></g><g class="cls-3"><path class="cls-5" d="M257.59,219V225a.72.72,0,0,0,.14.53.58.58,0,0,0,.45.15,1.55,1.55,0,0,0,.33,0l.35-.11-.13.7a1.79,1.79,0,0,1-.35.11,2.56,2.56,0,0,1-.39,0,1.16,1.16,0,0,1-.91-.33,1.47,1.47,0,0,1-.3-1V219Z"/></g><g class="cls-3"><g class="cls-3"><path class="cls-5" d="M264.83,226.38a2,2,0,0,1-.79-.15,1.79,1.79,0,0,1-.62-.42,2,2,0,0,1-.39-.61l.11-.14-.07,1.22h-.7V219h.8v3.44l-.1-.15a1.67,1.67,0,0,1,.68-.77,1.9,1.9,0,0,1,1.08-.31,2.18,2.18,0,0,1,1.15.31,2.23,2.23,0,0,1,.83.89,3.34,3.34,0,0,1,0,2.81,2.28,2.28,0,0,1-.84.9A2.17,2.17,0,0,1,264.83,226.38Zm-.08-.7a1.4,1.4,0,0,0,1.15-.52,2.15,2.15,0,0,0,.42-1.39,2.21,2.21,0,0,0-.41-1.39,1.54,1.54,0,0,0-2-.28,1.57,1.57,0,0,0-.56.68,2.69,2.69,0,0,0,0,2,1.65,1.65,0,0,0,.56.66A1.5,1.5,0,0,0,264.75,225.68Z"/><path class="cls-5" d="M270.46,226.38a2.52,2.52,0,0,1-1.27-.31,2.22,2.22,0,0,1-.87-.9,3.32,3.32,0,0,1,0-2.8,2.24,2.24,0,0,1,.85-.9,2.43,2.43,0,0,1,1.24-.31,2.27,2.27,0,0,1,1.2.3,2,2,0,0,1,.76.82,2.57,2.57,0,0,1,.26,1.16c0,.11,0,.22,0,.31s0,.18,0,.25h-4.06v-.71h3.71l-.42.08a1.54,1.54,0,0,0-.39-1.12,1.43,1.43,0,0,0-1-.39,1.56,1.56,0,0,0-.85.23,1.47,1.47,0,0,0-.55.65,2.49,2.49,0,0,0-.2,1,2.41,2.41,0,0,0,.2,1,1.55,1.55,0,0,0,.57.66,1.65,1.65,0,0,0,.88.23,1.71,1.71,0,0,0,.9-.21,1.54,1.54,0,0,0,.55-.58l.64.38a2.3,2.3,0,0,1-.49.59,2.33,2.33,0,0,1-.69.39A2.77,2.77,0,0,1,270.46,226.38Z"/></g></g><g class="cls-3"><path class="cls-5" d="M279.79,221.26V222h-3.64v-.69ZM278,219.83v5.06a.7.7,0,0,0,.21.56.8.8,0,0,0,.54.18,1.24,1.24,0,0,0,.5-.1,1.46,1.46,0,0,0,.38-.27l.29.67a1.79,1.79,0,0,1-.55.33,2,2,0,0,1-.73.12,1.87,1.87,0,0,1-.71-.13,1.2,1.2,0,0,1-.53-.44,1.35,1.35,0,0,1-.2-.77v-5Z"/><path class="cls-5" d="M280.68,226.28V219h.8V222a1.65,1.65,0,0,1,.69-.65,2.31,2.31,0,0,1,.95-.2,2.24,2.24,0,0,1,1,.21,1.58,1.58,0,0,1,.71.62,2,2,0,0,1,.27,1.08v3.21h-.81v-2.93a1.56,1.56,0,0,0-.35-1.16,1.25,1.25,0,0,0-.88-.33,1.72,1.72,0,0,0-.72.17,1.4,1.4,0,0,0-.6.56,1.94,1.94,0,0,0-.24,1v2.66Z"/><path class="cls-5" d="M288.69,226.38a2.54,2.54,0,0,1-1.27-.31,2.22,2.22,0,0,1-.87-.9,3.32,3.32,0,0,1,0-2.8,2.2,2.2,0,0,1,.86-.9,2.39,2.39,0,0,1,1.23-.31,2.27,2.27,0,0,1,1.2.3,2,2,0,0,1,.76.82,2.57,2.57,0,0,1,.26,1.16,3,3,0,0,1,0,.31c0,.09,0,.18,0,.25h-4.06v-.71h3.71l-.41.08a1.55,1.55,0,0,0-.4-1.12,1.41,1.41,0,0,0-1-.39,1.56,1.56,0,0,0-.85.23,1.54,1.54,0,0,0-.55.65,2.49,2.49,0,0,0-.2,1,2.26,2.26,0,0,0,.21,1,1.46,1.46,0,0,0,.56.66,1.67,1.67,0,0,0,.88.23,1.71,1.71,0,0,0,.9-.21,1.56,1.56,0,0,0,.56-.58l.63.38a2.3,2.3,0,0,1-.49.59,2.21,2.21,0,0,1-.69.39A2.73,2.73,0,0,1,288.69,226.38Z"/></g><g class="cls-3"><path class="cls-5" d="M191.71,241.34v-5h.71l.05.78a1.61,1.61,0,0,1,.7-.67,2.11,2.11,0,0,1,.9-.21,2.21,2.21,0,0,1,1,.24,1.66,1.66,0,0,1,.72.74,1.52,1.52,0,0,1,.45-.55,2,2,0,0,1,.64-.32,2,2,0,0,1,.66-.11,2.28,2.28,0,0,1,.92.2,1.63,1.63,0,0,1,.71.62,1.92,1.92,0,0,1,.28,1.09v3.21h-.8v-3.13a1.25,1.25,0,0,0-.34-1,1.24,1.24,0,0,0-.84-.3,1.6,1.6,0,0,0-.74.19,1.46,1.46,0,0,0-.54.56,1.87,1.87,0,0,0-.21.92v2.75h-.8v-3.13a1.29,1.29,0,0,0-.34-1,1.24,1.24,0,0,0-.85-.3,1.43,1.43,0,0,0-.67.18,1.3,1.3,0,0,0-.58.56,1.83,1.83,0,0,0-.23,1v2.68Z"/></g><g class="cls-3"><path class="cls-5" d="M203.08,241.44a2.54,2.54,0,0,1-1.27-.31,2.22,2.22,0,0,1-.87-.9,3.32,3.32,0,0,1,0-2.8,2.26,2.26,0,0,1,.86-.9,2.39,2.39,0,0,1,1.23-.31,2.27,2.27,0,0,1,1.2.3,1.94,1.94,0,0,1,.76.82,2.57,2.57,0,0,1,.26,1.16,3,3,0,0,1,0,.31c0,.09,0,.18,0,.25h-4.06v-.71h3.71l-.41.08a1.51,1.51,0,0,0-.4-1.12,1.41,1.41,0,0,0-1-.39,1.56,1.56,0,0,0-.85.23,1.54,1.54,0,0,0-.55.65,2.46,2.46,0,0,0-.19,1,2.29,2.29,0,0,0,.2,1,1.46,1.46,0,0,0,.56.66,1.67,1.67,0,0,0,.88.23,1.71,1.71,0,0,0,.9-.21,1.56,1.56,0,0,0,.56-.58l.63.38a2.3,2.3,0,0,1-.49.59,1.92,1.92,0,0,1-.69.38A2.48,2.48,0,0,1,203.08,241.44Z"/></g><g class="cls-3"><path class="cls-5" d="M209.34,236.32V237H205.7v-.69Zm-1.83-1.43V240a.7.7,0,0,0,.21.56.8.8,0,0,0,.54.18,1.24,1.24,0,0,0,.5-.1,1.46,1.46,0,0,0,.38-.27l.29.67a1.79,1.79,0,0,1-.55.33,2.07,2.07,0,0,1-.73.12,1.7,1.7,0,0,1-.71-.14,1.12,1.12,0,0,1-.53-.43,1.36,1.36,0,0,1-.2-.78v-5Z"/><path class="cls-5" d="M213.16,238.1a1.18,1.18,0,0,0-.3-.87,1.13,1.13,0,0,0-.85-.31,1.66,1.66,0,0,0-.89.23,1.29,1.29,0,0,0-.53.73l-.65-.41a1.75,1.75,0,0,1,.74-.9,2.71,2.71,0,0,1,2.33-.16,1.55,1.55,0,0,1,.7.56,1.68,1.68,0,0,1,.25,1v2.43q0,.36.39.36a1.57,1.57,0,0,0,.37,0l0,.63a1.17,1.17,0,0,1-.53.1,1.27,1.27,0,0,1-.52-.11.84.84,0,0,1-.36-.34,1.08,1.08,0,0,1-.13-.56v-.1l.2,0a1.31,1.31,0,0,1-.41.63,1.83,1.83,0,0,1-.65.37,2.57,2.57,0,0,1-.72.11,2.25,2.25,0,0,1-.82-.15,1.34,1.34,0,0,1-.61-.46,1.21,1.21,0,0,1-.22-.75,1.23,1.23,0,0,1,.37-.93,2,2,0,0,1,1.05-.5l2-.39v.66l-1.61.33a1.94,1.94,0,0,0-.74.28.59.59,0,0,0-.24.5.61.61,0,0,0,.25.51,1.07,1.07,0,0,0,.69.2,2,2,0,0,0,.56-.08,1.34,1.34,0,0,0,.48-.23A1,1,0,0,0,213,240a1.22,1.22,0,0,0,.12-.56Z"/><path class="cls-5" d="M217.57,241.44a2.18,2.18,0,0,1-1.15-.31,2.34,2.34,0,0,1-.83-.9,2.92,2.92,0,0,1-.31-1.4,2.84,2.84,0,0,1,.33-1.42,2.33,2.33,0,0,1,2-1.19,1.88,1.88,0,0,1,1.08.32,1.52,1.52,0,0,1,.6.85l-.1.07V234H220v7.33h-.71l-.07-1.22.12-.06a1.44,1.44,0,0,1-.34.75,1.78,1.78,0,0,1-.65.47A2.07,2.07,0,0,1,217.57,241.44Zm.08-.7a1.48,1.48,0,0,0,.84-.24,1.6,1.6,0,0,0,.55-.69,2.62,2.62,0,0,0,.19-1.05,2.26,2.26,0,0,0-.19-1,1.49,1.49,0,0,0-.54-.64,1.53,1.53,0,0,0-.81-.22,1.48,1.48,0,0,0-1.19.52,2.15,2.15,0,0,0-.42,1.39,2.21,2.21,0,0,0,.41,1.39A1.42,1.42,0,0,0,217.65,240.74Z"/><path class="cls-5" d="M223.7,241.44a2.54,2.54,0,0,1-1.27-.31,2.22,2.22,0,0,1-.87-.9,3.32,3.32,0,0,1,0-2.8,2.26,2.26,0,0,1,.86-.9,2.39,2.39,0,0,1,1.23-.31,2.27,2.27,0,0,1,1.2.3,1.94,1.94,0,0,1,.76.82,2.57,2.57,0,0,1,.26,1.16,3,3,0,0,1,0,.31c0,.09,0,.18,0,.25h-4.05v-.71h3.7l-.41.08a1.51,1.51,0,0,0-.4-1.12,1.41,1.41,0,0,0-1-.39,1.56,1.56,0,0,0-.85.23,1.54,1.54,0,0,0-.55.65,2.46,2.46,0,0,0-.19,1,2.29,2.29,0,0,0,.2,1,1.46,1.46,0,0,0,.56.66,1.67,1.67,0,0,0,.88.23,1.71,1.71,0,0,0,.9-.21,1.56,1.56,0,0,0,.56-.58l.63.38a2.3,2.3,0,0,1-.49.59,1.92,1.92,0,0,1-.69.38A2.48,2.48,0,0,1,223.7,241.44Z"/><path class="cls-5" d="M228.9,241.44a2.94,2.94,0,0,1-1.35-.31,2.31,2.31,0,0,1-1-.88l.69-.5a1.68,1.68,0,0,0,.64.73,2,2,0,0,0,1,.26,1.45,1.45,0,0,0,.84-.21.62.62,0,0,0,.3-.54.62.62,0,0,0-.14-.38.87.87,0,0,0-.51-.26l-1.21-.25a1.91,1.91,0,0,1-1.05-.5,1.27,1.27,0,0,1-.31-.87,1.29,1.29,0,0,1,.23-.76,1.76,1.76,0,0,1,.67-.55,2.82,2.82,0,0,1,2.29.09,1.88,1.88,0,0,1,.76.82l-.67.45a1.23,1.23,0,0,0-.55-.65,1.65,1.65,0,0,0-.8-.21,1.81,1.81,0,0,0-.61.1.87.87,0,0,0-.4.28.64.64,0,0,0-.13.4.62.62,0,0,0,.15.4,1,1,0,0,0,.56.27l1.26.26a1.76,1.76,0,0,1,1,.46,1.13,1.13,0,0,1,.28.78,1.38,1.38,0,0,1-.25.83,1.61,1.61,0,0,1-.7.55A2.62,2.62,0,0,1,228.9,241.44Z"/><path class="cls-5" d="M234.16,236.22a2.36,2.36,0,0,1,.92.16,1.94,1.94,0,0,1,.69.46,2.51,2.51,0,0,1,.47.71l-.76.37a1.49,1.49,0,0,0-.49-.74,1.35,1.35,0,0,0-.85-.26,1.6,1.6,0,0,0-.86.23,1.47,1.47,0,0,0-.55.65,2.86,2.86,0,0,0,0,2,1.44,1.44,0,0,0,.55.66,1.6,1.6,0,0,0,.86.23,1.72,1.72,0,0,0,.68-.12,1.19,1.19,0,0,0,.47-.35,1.36,1.36,0,0,0,.26-.57l.74.26a2.5,2.5,0,0,1-.46.8,1.91,1.91,0,0,1-.72.5,2.37,2.37,0,0,1-1,.18,2.49,2.49,0,0,1-1.25-.31,2.14,2.14,0,0,1-.86-.9,3.22,3.22,0,0,1,0-2.8,2.14,2.14,0,0,1,.86-.9A2.49,2.49,0,0,1,234.16,236.22Z"/><path class="cls-5" d="M237.41,241.34v-5h.65l.11.82a1.45,1.45,0,0,1,.62-.69,2,2,0,0,1,1-.23l.28,0a.71.71,0,0,1,.27.08l-.14.73L240,237l-.37,0a1.26,1.26,0,0,0-.63.18,1.48,1.48,0,0,0-.53.55,1.83,1.83,0,0,0-.21.93v2.71Z"/><path class="cls-5" d="M241.6,235.36a.58.58,0,0,1-.43-.17.6.6,0,0,1-.17-.44.58.58,0,0,1,.6-.6.6.6,0,0,1,.44.17.58.58,0,0,1,.17.43.58.58,0,0,1-.61.61Zm.4,1v5h-.8v-5Z"/></g><g class="cls-3"><path class="cls-5" d="M243.57,243.45v-7.13h.71l.07,1.22-.11-.14a1.52,1.52,0,0,1,.39-.61,1.74,1.74,0,0,1,.63-.42,2.15,2.15,0,0,1,.8-.15,2.11,2.11,0,0,1,1.13.31,2.3,2.3,0,0,1,.83.89,3.34,3.34,0,0,1,0,2.81,2.28,2.28,0,0,1-.84.9,2.18,2.18,0,0,1-1.15.31,1.91,1.91,0,0,1-1.09-.31,1.68,1.68,0,0,1-.66-.77l.1-.15v3.24Zm2.38-2.71a1.42,1.42,0,0,0,1.16-.52,2.15,2.15,0,0,0,.42-1.39,2.21,2.21,0,0,0-.41-1.39,1.38,1.38,0,0,0-1.14-.52,1.48,1.48,0,0,0-.84.24,1.58,1.58,0,0,0-.56.66,2.28,2.28,0,0,0-.2,1,2.38,2.38,0,0,0,.19,1,1.6,1.6,0,0,0,.55.67A1.47,1.47,0,0,0,246,240.74Z"/></g><g class="cls-3"><path class="cls-5" d="M252.5,236.32V237h-3.64v-.69Zm-1.83-1.43V240a.7.7,0,0,0,.21.56.8.8,0,0,0,.54.18,1.24,1.24,0,0,0,.5-.1,1.46,1.46,0,0,0,.38-.27l.29.67a1.79,1.79,0,0,1-.55.33,2.07,2.07,0,0,1-.73.12,1.7,1.7,0,0,1-.71-.14,1.12,1.12,0,0,1-.53-.43,1.36,1.36,0,0,1-.2-.78v-5Z"/><path class="cls-5" d="M253.79,235.36a.6.6,0,0,1-.44-.17.6.6,0,0,1-.16-.44.57.57,0,0,1,.16-.43.65.65,0,0,1,.88,0,.57.57,0,0,1,.16.43.6.6,0,0,1-.16.44A.6.6,0,0,1,253.79,235.36Zm.4,1v5h-.8v-5Z"/><path class="cls-5" d="M257.84,236.22a2.5,2.5,0,0,1,1.26.31,2.26,2.26,0,0,1,.86.9,3.32,3.32,0,0,1,0,2.8,2.26,2.26,0,0,1-.86.9,2.72,2.72,0,0,1-2.52,0,2.2,2.2,0,0,1-.86-.9,3.32,3.32,0,0,1,0-2.8,2.2,2.2,0,0,1,.86-.9A2.5,2.5,0,0,1,257.84,236.22Zm0,.69a1.65,1.65,0,0,0-.88.23,1.55,1.55,0,0,0-.55.66,2.73,2.73,0,0,0,0,2,1.53,1.53,0,0,0,.55.67,1.65,1.65,0,0,0,.88.23,1.61,1.61,0,0,0,.87-.23,1.55,1.55,0,0,0,.56-.67,2.86,2.86,0,0,0,0-2,1.58,1.58,0,0,0-.56-.66A1.61,1.61,0,0,0,257.84,236.91Z"/></g><g class="cls-3"><path class="cls-5" d="M266.68,236.22a2.45,2.45,0,0,1,1.26.31,2.2,2.2,0,0,1,.86.9,3.32,3.32,0,0,1,0,2.8,2.2,2.2,0,0,1-.86.9,2.7,2.7,0,0,1-2.51,0,2.22,2.22,0,0,1-.87-.9,3.32,3.32,0,0,1,0-2.8,2.22,2.22,0,0,1,.87-.9A2.44,2.44,0,0,1,266.68,236.22Zm0,.69a1.61,1.61,0,0,0-.87.23,1.58,1.58,0,0,0-.56.66,2.86,2.86,0,0,0,0,2,1.55,1.55,0,0,0,.56.67,1.61,1.61,0,0,0,.87.23,1.67,1.67,0,0,0,.88-.23,1.53,1.53,0,0,0,.55-.67,2.73,2.73,0,0,0,0-2,1.55,1.55,0,0,0-.55-.66A1.67,1.67,0,0,0,266.68,236.91Z"/></g><g class="cls-3"><path class="cls-5" d="M273.11,236.32V237h-3.49v-.69Zm-.84-2.36a1.88,1.88,0,0,1,.49.06.86.86,0,0,1,.36.17l-.21.65a.76.76,0,0,0-.26-.11,1.37,1.37,0,0,0-.31,0,1,1,0,0,0-.67.21.83.83,0,0,0-.24.66v5.78h-.81v-5.86a1.8,1.8,0,0,1,.11-.62,1.22,1.22,0,0,1,.3-.48,1.41,1.41,0,0,1,.52-.31A2.27,2.27,0,0,1,272.27,234Z"/></g><g class="cls-3"><path class="cls-5" d="M280.48,236.32l-2.36,5.86a3.1,3.1,0,0,1-.42.78,1.28,1.28,0,0,1-.5.41,1.41,1.41,0,0,1-.64.13,1.79,1.79,0,0,1-.62-.1,2,2,0,0,1-.51-.25l.22-.71a1.54,1.54,0,0,0,.43.27,1.19,1.19,0,0,0,.44.09.86.86,0,0,0,.5-.17,1.39,1.39,0,0,0,.42-.65l.26-.65-.5-1.2-1.6-3.81h.91l1.26,3.27.31.9.36-1,1.18-3.17Z"/><path class="cls-5" d="M283.31,236.22a2.45,2.45,0,0,1,1.26.31,2.2,2.2,0,0,1,.86.9,3.32,3.32,0,0,1,0,2.8,2.2,2.2,0,0,1-.86.9,2.7,2.7,0,0,1-2.51,0,2.22,2.22,0,0,1-.87-.9,3.32,3.32,0,0,1,0-2.8,2.22,2.22,0,0,1,.87-.9A2.44,2.44,0,0,1,283.31,236.22Zm0,.69a1.61,1.61,0,0,0-.87.23,1.58,1.58,0,0,0-.56.66,2.86,2.86,0,0,0,0,2,1.55,1.55,0,0,0,.56.67,1.76,1.76,0,0,0,1.74,0,1.48,1.48,0,0,0,.56-.67,2.73,2.73,0,0,0,0-2,1.51,1.51,0,0,0-.56-.66A1.61,1.61,0,0,0,283.31,236.91Z"/><path class="cls-5" d="M288.77,241.44a2.34,2.34,0,0,1-.91-.18,1.57,1.57,0,0,1-.69-.59,1.87,1.87,0,0,1-.26-1.06v-3.29h.8v3.08a1.35,1.35,0,0,0,.33,1,1.38,1.38,0,0,0,.93.29,1.54,1.54,0,0,0,.56-.1,1.22,1.22,0,0,0,.48-.3,1.31,1.31,0,0,0,.34-.53,1.92,1.92,0,0,0,.13-.76v-2.73h.8v5h-.7l-.05-.76a1.49,1.49,0,0,1-.71.65A2.46,2.46,0,0,1,288.77,241.44Z"/></g><g class="cls-3"><path class="cls-5" d="M292.84,241.34v-5h.66l.11.82a1.43,1.43,0,0,1,.61-.69,2.07,2.07,0,0,1,1-.23l.29,0a.77.77,0,0,1,.27.08l-.15.73-.24-.06-.37,0a1.29,1.29,0,0,0-.63.18,1.46,1.46,0,0,0-.52.55,1.83,1.83,0,0,0-.21.93v2.71Z"/></g><g class="cls-3"><path class="cls-5" d="M191.71,258.51v-7.13h.71l.07,1.23-.11-.15a1.52,1.52,0,0,1,.39-.61,1.74,1.74,0,0,1,.63-.42,2.15,2.15,0,0,1,.8-.15,2.11,2.11,0,0,1,1.13.31,2.3,2.3,0,0,1,.83.89,3.34,3.34,0,0,1,0,2.81,2.28,2.28,0,0,1-.84.9,2.18,2.18,0,0,1-1.15.31,1.93,1.93,0,0,1-1.09-.31,1.68,1.68,0,0,1-.66-.77l.1-.15v3.24Zm2.38-2.71a1.42,1.42,0,0,0,1.16-.52,2.15,2.15,0,0,0,.42-1.39,2.21,2.21,0,0,0-.41-1.39,1.38,1.38,0,0,0-1.14-.52,1.48,1.48,0,0,0-.84.24,1.58,1.58,0,0,0-.56.66,2.28,2.28,0,0,0-.2,1,2.38,2.38,0,0,0,.19,1,1.54,1.54,0,0,0,.55.67A1.47,1.47,0,0,0,194.09,255.8Z"/><path class="cls-5" d="M199.81,256.5a2.52,2.52,0,0,1-1.27-.31,2.16,2.16,0,0,1-.87-.9,3.32,3.32,0,0,1,0-2.8,2.24,2.24,0,0,1,.85-.9,2.4,2.4,0,0,1,1.24-.31,2.32,2.32,0,0,1,1.2.3,1.92,1.92,0,0,1,.75.82,2.45,2.45,0,0,1,.26,1.16,3,3,0,0,1,0,.31,1,1,0,0,1,0,.25h-4.05v-.71h3.7l-.41.08a1.51,1.51,0,0,0-.4-1.12,1.4,1.4,0,0,0-1-.39,1.54,1.54,0,0,0-.85.23,1.56,1.56,0,0,0-.56.65,2.49,2.49,0,0,0-.19,1,2.41,2.41,0,0,0,.2,1,1.42,1.42,0,0,0,.57.66,1.62,1.62,0,0,0,.88.23,1.7,1.7,0,0,0,.89-.21,1.49,1.49,0,0,0,.56-.58l.63.38a2.07,2.07,0,0,1-1.18,1A2.71,2.71,0,0,1,199.81,256.5Z"/></g><g class="cls-3"><path class="cls-5" d="M203.2,256.4v-5h.66l.11.82a1.52,1.52,0,0,1,.61-.69,2.07,2.07,0,0,1,1-.23l.29,0a.66.66,0,0,1,.26.08l-.14.73-.24-.06-.37,0a1.25,1.25,0,0,0-.62.18,1.41,1.41,0,0,0-.53.55,1.83,1.83,0,0,0-.21.93v2.71Z"/></g><g class="cls-3"><g class="cls-3"><path class="cls-5" d="M208.59,256.5a2.91,2.91,0,0,1-1.35-.31,2.25,2.25,0,0,1-1-.88l.68-.5a1.77,1.77,0,0,0,.65.73,2,2,0,0,0,1,.26,1.41,1.41,0,0,0,.83-.21.6.6,0,0,0,.31-.54.62.62,0,0,0-.14-.38.87.87,0,0,0-.52-.26l-1.2-.25a1.91,1.91,0,0,1-1.05-.5,1.28,1.28,0,0,1-.32-.87,1.29,1.29,0,0,1,.24-.76,1.65,1.65,0,0,1,.67-.54,2.37,2.37,0,0,1,1-.21,2.58,2.58,0,0,1,1.26.29,1.88,1.88,0,0,1,.76.82l-.67.45a1.2,1.2,0,0,0-.56-.65,1.61,1.61,0,0,0-.79-.21,1.87,1.87,0,0,0-.62.1.89.89,0,0,0-.39.28.64.64,0,0,0-.13.4.62.62,0,0,0,.15.4.87.87,0,0,0,.56.27l1.25.26a1.76,1.76,0,0,1,1,.46,1.15,1.15,0,0,1,.28.78,1.43,1.43,0,0,1-.25.83,1.59,1.59,0,0,1-.71.55A2.57,2.57,0,0,1,208.59,256.5Z"/><path class="cls-5" d="M213.85,251.28a2.45,2.45,0,0,1,1.26.31,2.2,2.2,0,0,1,.86.9,3.32,3.32,0,0,1,0,2.8,2.2,2.2,0,0,1-.86.9,2.7,2.7,0,0,1-2.51,0,2.22,2.22,0,0,1-.87-.9,3.32,3.32,0,0,1,0-2.8,2.22,2.22,0,0,1,.87-.9A2.44,2.44,0,0,1,213.85,251.28Zm0,.69a1.61,1.61,0,0,0-.87.23,1.58,1.58,0,0,0-.56.66,2.49,2.49,0,0,0-.19,1,2.41,2.41,0,0,0,.19,1,1.55,1.55,0,0,0,.56.67,1.76,1.76,0,0,0,1.74,0,1.48,1.48,0,0,0,.56-.67,2.41,2.41,0,0,0,.2-1,2.49,2.49,0,0,0-.2-1,1.51,1.51,0,0,0-.56-.66A1.61,1.61,0,0,0,213.85,252Z"/><path class="cls-5" d="M217.5,256.4v-5h.7l.07,1.12-.13-.11a1.76,1.76,0,0,1,.43-.64,1.53,1.53,0,0,1,.63-.36,2.6,2.6,0,0,1,.74-.11,2.27,2.27,0,0,1,1,.21,1.63,1.63,0,0,1,.71.62,2.06,2.06,0,0,1,.26,1.08v3.21h-.8v-2.93a1.52,1.52,0,0,0-.36-1.16,1.22,1.22,0,0,0-.87-.33,1.73,1.73,0,0,0-.73.17,1.38,1.38,0,0,0-.59.56,1.88,1.88,0,0,0-.24,1v2.67Z"/></g><g class="cls-3"><path class="cls-5" d="M226.35,253.16a1.14,1.14,0,0,0-.31-.87,1.11,1.11,0,0,0-.85-.31,1.62,1.62,0,0,0-.88.23,1.29,1.29,0,0,0-.53.73l-.66-.4a1.75,1.75,0,0,1,.75-.91,2.71,2.71,0,0,1,2.33-.16,1.52,1.52,0,0,1,.69.56,1.68,1.68,0,0,1,.26,1v2.43c0,.24.13.36.38.36a1.5,1.5,0,0,0,.37,0l0,.63a1.12,1.12,0,0,1-.52.1,1.24,1.24,0,0,1-.52-.11.74.74,0,0,1-.36-.34,1.08,1.08,0,0,1-.13-.56v-.1l.2,0a1.26,1.26,0,0,1-.42.63,1.83,1.83,0,0,1-.65.37,2.56,2.56,0,0,1-.71.11,2.21,2.21,0,0,1-.82-.15,1.29,1.29,0,0,1-.61-.46,1.22,1.22,0,0,1-.23-.75,1.24,1.24,0,0,1,.38-.93,2,2,0,0,1,1.05-.5l2-.39V254l-1.62.33a1.88,1.88,0,0,0-.73.28.59.59,0,0,0-.24.5.63.63,0,0,0,.24.51,1.12,1.12,0,0,0,.7.2,2.1,2.1,0,0,0,.56-.08,1.37,1.37,0,0,0,.47-.23,1.17,1.17,0,0,0,.34-.39,1.22,1.22,0,0,0,.12-.56Z"/></g></g><g class="cls-3"><path class="cls-5" d="M229.56,249.07v6.05a.72.72,0,0,0,.14.53.58.58,0,0,0,.45.15,1.55,1.55,0,0,0,.33,0l.35-.11-.13.7a1.79,1.79,0,0,1-.35.11l-.39,0a1.16,1.16,0,0,1-.91-.33,1.47,1.47,0,0,1-.3-1v-6.09Z"/></g><g class="cls-3"><path class="cls-5" d="M240.41,251.38h.89l-1.74,5h-.81l-1.41-4-1.34,4h-.8l-1.75-5h.89l1.27,4.09,1.36-4.09h.81l1.36,4.09Z"/></g><g class="cls-3"><path class="cls-5" d="M244.15,256.5a2.54,2.54,0,0,1-1.27-.31,2.22,2.22,0,0,1-.87-.9,3.32,3.32,0,0,1,0-2.8,2.26,2.26,0,0,1,.86-.9,2.39,2.39,0,0,1,1.23-.31,2.27,2.27,0,0,1,1.2.3,1.94,1.94,0,0,1,.76.82,2.57,2.57,0,0,1,.26,1.16,3,3,0,0,1,0,.31c0,.09,0,.18,0,.25h-4.06v-.71h3.71l-.41.08a1.55,1.55,0,0,0-.4-1.12,1.41,1.41,0,0,0-1-.39,1.56,1.56,0,0,0-.85.23,1.54,1.54,0,0,0-.55.65,2.49,2.49,0,0,0-.19,1,2.26,2.26,0,0,0,.2,1,1.46,1.46,0,0,0,.56.66,1.67,1.67,0,0,0,.88.23,1.71,1.71,0,0,0,.9-.21,1.56,1.56,0,0,0,.56-.58l.63.38a2.3,2.3,0,0,1-.49.59,2.21,2.21,0,0,1-.69.39A2.73,2.73,0,0,1,244.15,256.5Z"/><path class="cls-5" d="M250,256.5a2,2,0,0,1-.78-.15,1.79,1.79,0,0,1-.62-.42,1.81,1.81,0,0,1-.39-.61l.11-.14-.07,1.22h-.71v-7.33h.81v3.44l-.1-.15a1.67,1.67,0,0,1,.68-.77,1.9,1.9,0,0,1,1.08-.31,2.18,2.18,0,0,1,1.15.31,2.23,2.23,0,0,1,.83.89,3.34,3.34,0,0,1,0,2.81,2.28,2.28,0,0,1-.84.9A2.18,2.18,0,0,1,250,256.5Zm-.08-.7a1.41,1.41,0,0,0,1.16-.52,2.15,2.15,0,0,0,.42-1.39,2.21,2.21,0,0,0-.41-1.39,1.54,1.54,0,0,0-2-.28,1.57,1.57,0,0,0-.56.68,2.69,2.69,0,0,0,0,2,1.58,1.58,0,0,0,.56.66A1.49,1.49,0,0,0,249.92,255.8Z"/><path class="cls-5" d="M255.35,256.5a2.91,2.91,0,0,1-1.35-.31,2.19,2.19,0,0,1-.95-.88l.68-.5a1.7,1.7,0,0,0,.65.73,1.94,1.94,0,0,0,1,.26,1.44,1.44,0,0,0,.83-.21.61.61,0,0,0,.3-.54.6.6,0,0,0-.13-.38.9.9,0,0,0-.52-.26l-1.21-.25a2,2,0,0,1-1.05-.5,1.27,1.27,0,0,1-.31-.87,1.36,1.36,0,0,1,.23-.76,1.69,1.69,0,0,1,.68-.54,2.34,2.34,0,0,1,1-.21,2.54,2.54,0,0,1,1.25.29,1.82,1.82,0,0,1,.76.82l-.67.45a1.19,1.19,0,0,0-.55-.65,1.64,1.64,0,0,0-.79-.21,1.87,1.87,0,0,0-.62.1.89.89,0,0,0-.39.28.65.65,0,0,0-.14.4.62.62,0,0,0,.15.4.89.89,0,0,0,.56.27l1.26.26a1.69,1.69,0,0,1,1,.46,1.15,1.15,0,0,1,.28.78,1.36,1.36,0,0,1-.25.83,1.56,1.56,0,0,1-.7.55A2.61,2.61,0,0,1,255.35,256.5Z"/><path class="cls-5" d="M258.93,250.42a.6.6,0,0,1-.44-.17.58.58,0,0,1-.16-.44.57.57,0,0,1,.16-.43.65.65,0,0,1,.88,0,.57.57,0,0,1,.16.43.58.58,0,0,1-.16.44A.6.6,0,0,1,258.93,250.42Zm.4,1v5h-.8v-5Z"/><path class="cls-5" d="M263.91,251.38v.69h-3.63v-.69ZM262.08,250v5a.7.7,0,0,0,.21.56.83.83,0,0,0,.55.18,1.27,1.27,0,0,0,.5-.1,1.46,1.46,0,0,0,.38-.27l.28.67a1.68,1.68,0,0,1-.55.33,2,2,0,0,1-.72.12,1.88,1.88,0,0,1-.72-.13,1.18,1.18,0,0,1-.52-.44,1.43,1.43,0,0,1-.21-.77v-5Z"/><path class="cls-5" d="M266.9,256.5a2.54,2.54,0,0,1-1.27-.31,2.22,2.22,0,0,1-.87-.9,3.32,3.32,0,0,1,0-2.8,2.26,2.26,0,0,1,.86-.9,2.39,2.39,0,0,1,1.23-.31,2.27,2.27,0,0,1,1.2.3,1.94,1.94,0,0,1,.76.82,2.57,2.57,0,0,1,.26,1.16,3,3,0,0,1,0,.31c0,.09,0,.18,0,.25H265v-.71h3.71l-.41.08a1.51,1.51,0,0,0-.4-1.12,1.41,1.41,0,0,0-1-.39,1.56,1.56,0,0,0-.85.23,1.54,1.54,0,0,0-.55.65,2.49,2.49,0,0,0-.19,1,2.26,2.26,0,0,0,.2,1,1.46,1.46,0,0,0,.56.66,1.67,1.67,0,0,0,.88.23,1.71,1.71,0,0,0,.9-.21,1.56,1.56,0,0,0,.56-.58l.63.38a2.3,2.3,0,0,1-.49.59,2.1,2.1,0,0,1-.69.39A2.73,2.73,0,0,1,266.9,256.5Z"/></g><g class="cls-3"><path class="cls-5" d="M197.91,195.65l-2.58,4.08v4.11h-1.62v-4.11l-2.58-4.08H193l1.46,2.5h.14l1.47-2.5Z"/></g><g class="cls-3"><path class="cls-5" d="M197,200.93a2.93,2.93,0,0,1,3-3,2.88,2.88,0,0,1,3,3,2.93,2.93,0,0,1-3,3A2.88,2.88,0,0,1,197,200.93Zm4.44,0a1.46,1.46,0,0,0-1.43-1.62,1.63,1.63,0,0,0,0,3.25A1.47,1.47,0,0,0,201.43,200.91Z"/></g><g class="cls-3"><path class="cls-5" d="M209.29,198v5.85h-1.17l-.21-.66h-.15a2.06,2.06,0,0,1-1.71.72c-1.55,0-2.35-1.1-2.35-2.74V198h1.59v2.82c0,.72.06,1.73,1.07,1.73.51,0,1.35-.27,1.35-1.8V198Z"/></g><g class="cls-3"><path class="cls-5" d="M214.54,197.93v1.5a2.24,2.24,0,0,0-.51-.05,1.5,1.5,0,0,0-1.67,1.5v3H210.8V198H212l.21.64h.19a2.46,2.46,0,0,1,1.79-.7Z"/></g><g class="cls-3"><path class="cls-5" d="M226.8,198l-1.39,5.85h-2.06l-.79-3.42h-.17l-.79,3.42h-2.06l-1.4-5.85h1.5l.9,4.08h.2l.81-3.61h1.85l.82,3.61h.19l.9-4.08Z"/></g><g class="cls-3"><path class="cls-5" d="M233.12,201.36h-4.27a1.48,1.48,0,0,0,1.53,1.22,1.38,1.38,0,0,0,1.14-.5H233a2.79,2.79,0,0,1-2.65,1.82,2.94,2.94,0,0,1-3-3,2.84,2.84,0,0,1,2.91-2.94C231.79,197.93,233.31,199,233.12,201.36Zm-4.18-1.18h2.64a1.19,1.19,0,0,0-1.24-1A1.45,1.45,0,0,0,228.94,200.18Z"/></g><g class="cls-3"><path class="cls-5" d="M240,200.91a2.81,2.81,0,0,1-2.73,3,1.9,1.9,0,0,1-1.48-.62h-.18l-.16.56h-1.15v-8.31h1.46v3a2,2,0,0,1,1.51-.63A2.8,2.8,0,0,1,240,200.91Zm-1.52,0a1.43,1.43,0,0,0-1.43-1.54c-.76,0-1.29.57-1.29,1.54s.53,1.55,1.29,1.55A1.44,1.44,0,0,0,238.44,200.91Z"/></g><g class="cls-3"><path class="cls-5" d="M243.27,199.17c-.49,0-.7.25-.7.49,0,.4.52.52.88.59,1,.22,2.09.54,2.09,1.78a2,2,0,0,1-2.2,1.87,2.27,2.27,0,0,1-2.46-2.06h1.44a.89.89,0,0,0,1,.81c.6,0,.74-.32.74-.57,0-.43-.41-.56-.81-.65-.69-.15-2.17-.43-2.17-1.77,0-1.15,1.1-1.73,2.23-1.73a2.06,2.06,0,0,1,2.25,1.78H244.1A.75.75,0,0,0,243.27,199.17Z"/></g><g class="cls-3"><path class="cls-5" d="M246.4,196.35a1,1,0,0,1,1-1,1,1,0,0,1,0,2A1,1,0,0,1,246.4,196.35Zm1.75,7.49h-1.49V198h1.49Z"/></g><g class="cls-3"><path class="cls-5" d="M253.76,203.41a2,2,0,0,1-1.39.49,2,2,0,0,1-2.09-1.94v-2.72h-1.17v-1.15h.58a.64.64,0,0,0,.67-.69v-1.17h1.41V198h1.48v1.25h-1.48v2.62a.71.71,0,0,0,.75.7,1.56,1.56,0,0,0,.68-.19Z"/></g><g class="cls-3"><path class="cls-5" d="M260,201.36h-4.27a1.48,1.48,0,0,0,1.53,1.22,1.38,1.38,0,0,0,1.14-.5h1.47a2.79,2.79,0,0,1-2.65,1.82,3,3,0,0,1-3-3,2.85,2.85,0,0,1,2.92-2.94C258.63,197.93,260.15,199,260,201.36Zm-4.18-1.18h2.64a1.19,1.19,0,0,0-1.24-1A1.45,1.45,0,0,0,255.78,200.18Z"/></g><g class="cls-3"><path class="cls-5" d="M268.49,203.41a2,2,0,0,1-1.39.49A2,2,0,0,1,265,202v-2.72h-1.18v-1.15h.59a.64.64,0,0,0,.67-.69v-1.17h1.41V198H268v1.25H266.5v2.62a.71.71,0,0,0,.75.7,1.56,1.56,0,0,0,.68-.19Z"/></g><g class="cls-3"><path class="cls-5" d="M269,196.35a1,1,0,0,1,1-1,1,1,0,0,1,0,2A1,1,0,0,1,269,196.35Zm1.75,7.49h-1.49V198h1.49Z"/></g><g class="cls-3"><path class="cls-5" d="M276.36,203.41a2,2,0,0,1-1.39.49,2,2,0,0,1-2.09-1.94v-2.72h-1.17v-1.15h.58a.64.64,0,0,0,.67-.69v-1.17h1.41V198h1.48v1.25h-1.48v2.62a.71.71,0,0,0,.75.7,1.56,1.56,0,0,0,.68-.19Z"/></g><g class="cls-3"><path class="cls-5" d="M278.81,195.53v8.31h-1.52v-8.31Z"/></g><g class="cls-3"><path class="cls-5" d="M285.7,201.36h-4.27a1.48,1.48,0,0,0,1.53,1.22,1.38,1.38,0,0,0,1.14-.5h1.47a2.79,2.79,0,0,1-2.65,1.82,2.94,2.94,0,0,1-3-3,2.84,2.84,0,0,1,2.91-2.94C284.37,197.93,285.89,199,285.7,201.36Zm-4.18-1.18h2.64a1.19,1.19,0,0,0-1.24-1A1.45,1.45,0,0,0,281.52,200.18Z"/></g><rect class="cls-4" x="37.65" y="194.27" width="134.72" height="80.33"/><g class="cls-3"><path class="cls-5" d="M48.75,134.47a13.65,13.65,0,0,1-4.52-.71,9.47,9.47,0,0,1-3.45-2.06,8.33,8.33,0,0,1-2.11-3.2l1.65-1.26a7.2,7.2,0,0,0,1.73,3,7.91,7.91,0,0,0,3,1.86,10.92,10.92,0,0,0,3.87.66A9,9,0,0,0,54,131.45a4.2,4.2,0,0,0,1.92-3.71,3.67,3.67,0,0,0-1.08-2.68,7.18,7.18,0,0,0-3.69-1.64L46,122.31a11.86,11.86,0,0,1-3.68-1.37,5.45,5.45,0,0,1-2-2.1,6.22,6.22,0,0,1,.45-6.23,7.79,7.79,0,0,1,3-2.56,10.53,10.53,0,0,1,4.73-1A10.64,10.64,0,0,1,54,110.42a8.66,8.66,0,0,1,3.52,4.15L56,115.76a7.71,7.71,0,0,0-3-3.79,8.93,8.93,0,0,0-4.68-1.17,8.8,8.8,0,0,0-3.62.67,5.24,5.24,0,0,0-2.27,1.83,4.57,4.57,0,0,0-.77,2.58,4.44,4.44,0,0,0,.46,2,3.88,3.88,0,0,0,1.56,1.52,10.79,10.79,0,0,0,3,1.06l4.88,1.08a9.53,9.53,0,0,1,4.89,2.21,5.16,5.16,0,0,1,1.47,3.79,5.87,5.87,0,0,1-1.16,3.62,7.58,7.58,0,0,1-3.19,2.41A12.19,12.19,0,0,1,48.75,134.47Zm-1,3.89v-33.1h1.65v33.1Z"/><path class="cls-5" d="M69.81,108.72A8.28,8.28,0,0,1,75,110.34a9.77,9.77,0,0,1,3.16,4.54,20.52,20.52,0,0,1,1.06,6.93A19.92,19.92,0,0,1,78.1,129a9.38,9.38,0,0,1-3.23,4.38,8.49,8.49,0,0,1-5,1.48,9.47,9.47,0,0,1-5.38-1.48,7.53,7.53,0,0,1-3.08-4.1l1.88-1a6.61,6.61,0,0,0,2.22,3.43,7.79,7.79,0,0,0,8.08.4,6.61,6.61,0,0,0,2.33-2.58,13.53,13.53,0,0,0,1.23-3.81,26,26,0,0,0,.38-4.6,12.26,12.26,0,0,0-.07-1.36c-.05-.45-.11-.88-.16-1.29h-.11a6.49,6.49,0,0,1-1.41,3.54,7.15,7.15,0,0,1-2.81,2,9,9,0,0,1-3.33.65,9.45,9.45,0,0,1-4.37-1,7,7,0,0,1-2.9-2.73,8.1,8.1,0,0,1-1-4.16,8.75,8.75,0,0,1,1-4.35,7.11,7.11,0,0,1,2.94-2.83A9.61,9.61,0,0,1,69.81,108.72Zm0,1.81A6.53,6.53,0,0,0,65,112.26,6.37,6.37,0,0,0,63.3,117a5.67,5.67,0,0,0,1.77,4.37,7.44,7.44,0,0,0,8.08.79,6.19,6.19,0,0,0,2.29-2.28,6.12,6.12,0,0,0,.83-3.19,5.88,5.88,0,0,0-.84-3.14,6.23,6.23,0,0,0-2.3-2.17A6.58,6.58,0,0,0,69.84,110.53Z"/></g><g class="cls-3"><path class="cls-5" d="M91.48,108.72a8.29,8.29,0,0,1,5.22,1.62,9.76,9.76,0,0,1,3.15,4.54,20.28,20.28,0,0,1,1.06,6.93A19.92,19.92,0,0,1,99.77,129a9.31,9.31,0,0,1-3.23,4.38,8.46,8.46,0,0,1-5,1.48,9.5,9.5,0,0,1-5.39-1.48,7.53,7.53,0,0,1-3.08-4.1l1.89-1a6.6,6.6,0,0,0,2.21,3.43,7.79,7.79,0,0,0,8.08.4,6.54,6.54,0,0,0,2.33-2.58,13.22,13.22,0,0,0,1.23-3.81,26,26,0,0,0,.39-4.6,12.26,12.26,0,0,0-.08-1.36q-.07-.67-.15-1.29h-.12a6.41,6.41,0,0,1-1.4,3.54,7.22,7.22,0,0,1-2.81,2,9,9,0,0,1-3.33.65,9.42,9.42,0,0,1-4.37-1A7,7,0,0,1,84,121.08a8.1,8.1,0,0,1-1-4.16,8.75,8.75,0,0,1,1-4.35,7.07,7.07,0,0,1,3-2.83A9.54,9.54,0,0,1,91.48,108.72Zm0,1.81a6.5,6.5,0,0,0-4.81,1.73A6.34,6.34,0,0,0,85,117a5.64,5.64,0,0,0,1.78,4.37A6.63,6.63,0,0,0,91.44,123a6.71,6.71,0,0,0,3.39-.84A6.2,6.2,0,0,0,98,116.65a5.88,5.88,0,0,0-.85-3.14,6.28,6.28,0,0,0-2.29-2.17A6.6,6.6,0,0,0,91.52,110.53Z"/></g><g class="cls-3"><path class="cls-5" d="M105.79,131.35a1.85,1.85,0,0,1,1.14.37,2.28,2.28,0,0,1,.73,1,3.81,3.81,0,0,1,.25,1.46,6.16,6.16,0,0,1-.35,2,5.72,5.72,0,0,1-1.07,1.84,6,6,0,0,1-1.89,1.43l-1.08-1a4.38,4.38,0,0,0,1.64-1,5.15,5.15,0,0,0,1-1.46,3.16,3.16,0,0,0,.32-1.52l-.11,0a.72.72,0,0,1-.31.29,1.26,1.26,0,0,1-.58.1,1.32,1.32,0,0,1-.69-.21,2,2,0,0,1-.58-.58,1.71,1.71,0,0,1-.23-.91,1.65,1.65,0,0,1,.25-.9,2,2,0,0,1,.64-.64A1.7,1.7,0,0,1,105.79,131.35Z"/></g><g class="cls-3"><path class="cls-5" d="M119.69,134.89a8,8,0,0,1-6.81-3.36q-2.46-3.37-2.46-9.72t2.46-9.72a8.55,8.55,0,0,1,13.6,0q2.45,3.36,2.45,9.72t-2.45,9.72A7.92,7.92,0,0,1,119.69,134.89Zm0-1.73a6.17,6.17,0,0,0,4-1.29,8,8,0,0,0,2.46-3.83,23.29,23.29,0,0,0,0-12.47,8.07,8.07,0,0,0-2.46-3.83,6.17,6.17,0,0,0-4-1.29,6.23,6.23,0,0,0-4,1.29,8,8,0,0,0-2.49,3.83,23.49,23.49,0,0,0,0,12.45,7.93,7.93,0,0,0,2.49,3.85A6.23,6.23,0,0,0,119.69,133.16Z"/><path class="cls-5" d="M141.9,134.89a8,8,0,0,1-6.81-3.36q-2.47-3.37-2.47-9.72t2.47-9.72a8.55,8.55,0,0,1,13.6,0q2.44,3.36,2.45,9.72t-2.45,9.72A7.92,7.92,0,0,1,141.9,134.89Zm0-1.73a6.14,6.14,0,0,0,4-1.29,8,8,0,0,0,2.47-3.83,23.56,23.56,0,0,0,0-12.47,8,8,0,0,0-2.47-3.83,6.14,6.14,0,0,0-4-1.29,6.21,6.21,0,0,0-4,1.29,8,8,0,0,0-2.49,3.83,23.49,23.49,0,0,0,0,12.45,7.93,7.93,0,0,0,2.49,3.85A6.21,6.21,0,0,0,141.9,133.16Z"/></g><g class="cls-3"><path class="cls-5" d="M43.11,311.49a3,3,0,0,1,1.51.36,2.93,2.93,0,0,1,1.05,1l-.67.52a2.42,2.42,0,0,0-.84-.91,2.62,2.62,0,0,0-2-.11,1.07,1.07,0,0,0-.5.39,1,1,0,0,0-.16.56.94.94,0,0,0,.22.62,1.56,1.56,0,0,0,.88.41l1.44.33a2.5,2.5,0,0,1,1.33.63,1.56,1.56,0,0,1,.37,1.06,1.65,1.65,0,0,1-.31,1,2.06,2.06,0,0,1-.89.68,3.46,3.46,0,0,1-1.35.24,3.8,3.8,0,0,1-1.27-.2,3.17,3.17,0,0,1-.94-.52,3,3,0,0,1-.64-.75l.7-.57a2.6,2.6,0,0,0,.5.68,2.2,2.2,0,0,0,.72.45,3,3,0,0,0,1,.16,2.65,2.65,0,0,0,.89-.13,1.27,1.27,0,0,0,.58-.37.92.92,0,0,0,.2-.6.87.87,0,0,0-.21-.57,1.39,1.39,0,0,0-.79-.39l-1.56-.35a3,3,0,0,1-1-.39,1.48,1.48,0,0,1-.54-.58,1.66,1.66,0,0,1-.17-.73,1.74,1.74,0,0,1,.3-1,2.09,2.09,0,0,1,.85-.72A3,3,0,0,1,43.11,311.49Z"/><path class="cls-5" d="M49.05,313.1a2.35,2.35,0,0,1,.91.16,1.94,1.94,0,0,1,.69.46,2.31,2.31,0,0,1,.47.71l-.76.37a1.49,1.49,0,0,0-.49-.74,1.32,1.32,0,0,0-.84-.26,1.61,1.61,0,0,0-.87.23,1.47,1.47,0,0,0-.55.65,2.86,2.86,0,0,0,0,2.05,1.44,1.44,0,0,0,.55.66,1.61,1.61,0,0,0,.87.23,1.71,1.71,0,0,0,.67-.12,1.3,1.3,0,0,0,.48-.35,1.48,1.48,0,0,0,.25-.57l.74.26a2.33,2.33,0,0,1-.46.8,2,2,0,0,1-.71.5,2.4,2.4,0,0,1-1,.18,2.5,2.5,0,0,1-1.26-.31,2.2,2.2,0,0,1-.86-.9,3.32,3.32,0,0,1,0-2.8,2.2,2.2,0,0,1,.86-.9A2.5,2.5,0,0,1,49.05,313.1Z"/><path class="cls-5" d="M55.22,315a1.18,1.18,0,0,0-.3-.87,1.13,1.13,0,0,0-.85-.31,1.66,1.66,0,0,0-.89.23,1.29,1.29,0,0,0-.53.73l-.65-.41a1.75,1.75,0,0,1,.74-.9,2.71,2.71,0,0,1,2.33-.16,1.55,1.55,0,0,1,.7.56,1.68,1.68,0,0,1,.25,1v2.43q0,.36.39.36a1.57,1.57,0,0,0,.37-.05l0,.63a1.17,1.17,0,0,1-.53.1,1.27,1.27,0,0,1-.52-.11.84.84,0,0,1-.36-.34,1.08,1.08,0,0,1-.13-.56v-.1l.2,0a1.31,1.31,0,0,1-.41.63,1.83,1.83,0,0,1-.65.37,2.57,2.57,0,0,1-.72.11,2.25,2.25,0,0,1-.82-.15,1.34,1.34,0,0,1-.61-.46A1.21,1.21,0,0,1,52,317a1.23,1.23,0,0,1,.37-.93,2.07,2.07,0,0,1,1-.5l2-.39v.66l-1.61.33a1.94,1.94,0,0,0-.74.28.59.59,0,0,0-.24.5.61.61,0,0,0,.25.51,1.07,1.07,0,0,0,.69.2,2,2,0,0,0,.56-.08,1.34,1.34,0,0,0,.48-.23,1,1,0,0,0,.33-.39,1.22,1.22,0,0,0,.12-.56Z"/><path class="cls-5" d="M57.67,318.22v-5h.7l.07,1.12-.13-.11a1.76,1.76,0,0,1,.43-.64,1.59,1.59,0,0,1,.63-.36,2.65,2.65,0,0,1,.74-.11,2.38,2.38,0,0,1,1,.2,1.66,1.66,0,0,1,.71.63,2,2,0,0,1,.27,1.08v3.21h-.81v-2.93a1.52,1.52,0,0,0-.35-1.16,1.25,1.25,0,0,0-.88-.33,1.72,1.72,0,0,0-.72.17,1.46,1.46,0,0,0-.6.56,1.88,1.88,0,0,0-.24,1v2.67Z"/></g><g class="cls-3"><path class="cls-5" d="M69.53,313.2v.69H65.89v-.69Zm-1.83-1.43v5.06a.7.7,0,0,0,.21.56.8.8,0,0,0,.54.18,1.24,1.24,0,0,0,.5-.1,1.46,1.46,0,0,0,.38-.27l.29.67a1.79,1.79,0,0,1-.55.33,2,2,0,0,1-.73.12,1.7,1.7,0,0,1-.71-.14,1.12,1.12,0,0,1-.53-.43,1.36,1.36,0,0,1-.2-.78v-5Z"/><path class="cls-5" d="M70.42,318.22v-7.33h.8V314a1.56,1.56,0,0,1,.7-.65,2.23,2.23,0,0,1,.94-.2,2.38,2.38,0,0,1,1,.2,1.66,1.66,0,0,1,.71.63,2,2,0,0,1,.27,1.08v3.21H74v-2.93a1.56,1.56,0,0,0-.35-1.16,1.25,1.25,0,0,0-.88-.33,1.72,1.72,0,0,0-.72.17,1.4,1.4,0,0,0-.6.56,1.94,1.94,0,0,0-.24,1v2.66Z"/><path class="cls-5" d="M78.43,318.32a2.54,2.54,0,0,1-1.27-.31,2.22,2.22,0,0,1-.87-.9,3.32,3.32,0,0,1,0-2.8,2.2,2.2,0,0,1,.86-.9,2.39,2.39,0,0,1,1.23-.31,2.27,2.27,0,0,1,1.2.3,2,2,0,0,1,.76.82,2.57,2.57,0,0,1,.26,1.16,3,3,0,0,1,0,.31c0,.09,0,.18,0,.25H76.5v-.71h3.71l-.41.08a1.55,1.55,0,0,0-.4-1.12,1.41,1.41,0,0,0-1-.39,1.56,1.56,0,0,0-.85.23,1.47,1.47,0,0,0-.55.65,2.46,2.46,0,0,0-.2,1,2.29,2.29,0,0,0,.21,1,1.46,1.46,0,0,0,.56.66,1.67,1.67,0,0,0,.88.23,1.71,1.71,0,0,0,.9-.21,1.56,1.56,0,0,0,.56-.58l.63.38a2.3,2.3,0,0,1-.49.59,2.11,2.11,0,0,1-.69.38A2.48,2.48,0,0,1,78.43,318.32Z"/><path class="cls-5" d="M87.77,311.49a3.07,3.07,0,0,1,1.63.42,2.76,2.76,0,0,1,1.06,1.18,4.52,4.52,0,0,1,0,3.63,2.71,2.71,0,0,1-1.06,1.18,3.37,3.37,0,0,1-3.26,0,2.73,2.73,0,0,1-1.07-1.18,4.64,4.64,0,0,1,0-3.63,2.79,2.79,0,0,1,1.07-1.18A3.07,3.07,0,0,1,87.77,311.49Zm0,.76a2.2,2.2,0,0,0-1.19.31,2.07,2.07,0,0,0-.77.92,3.41,3.41,0,0,0-.27,1.43,3.48,3.48,0,0,0,.27,1.43,2,2,0,0,0,.77.91,2.2,2.2,0,0,0,1.19.32,2.18,2.18,0,0,0,1.19-.32,2,2,0,0,0,.77-.91,3.48,3.48,0,0,0,.27-1.43,3.41,3.41,0,0,0-.27-1.43,2.07,2.07,0,0,0-.77-.92A2.18,2.18,0,0,0,87.77,312.25Zm1.6,7.93a2.57,2.57,0,0,1-1-.19,1.62,1.62,0,0,1-.74-.66,2.38,2.38,0,0,1-.28-1.26v-.2c0-.07,0-.14,0-.2l.71,0c0,.06,0,.13,0,.18V318a1.58,1.58,0,0,0,.18.85.85.85,0,0,0,.48.38,2.13,2.13,0,0,0,.63.09,2.17,2.17,0,0,0,.69-.1,1.26,1.26,0,0,0,.5-.27l.26.75a1.55,1.55,0,0,1-.67.32A2.93,2.93,0,0,1,89.37,320.18Z"/><path class="cls-5" d="M94.82,311.59a2.41,2.41,0,0,1,1.62.53,1.74,1.74,0,0,1,.61,1.41,1.68,1.68,0,0,1-.61,1.39,2.54,2.54,0,0,1-1.63.5l-.07.05H93.11v2.75h-.8v-6.63Zm0,3.13a1.61,1.61,0,0,0,1.06-.3,1.1,1.1,0,0,0,.34-.89,1.12,1.12,0,0,0-.34-.89,1.67,1.67,0,0,0-1.06-.29h-1.7v2.37Zm.46.16,2.19,3.34h-1l-1.9-2.9Z"/><path class="cls-5" d="M103.73,313.1a2.36,2.36,0,0,1,.92.16,2.14,2.14,0,0,1,.69.46,2.51,2.51,0,0,1,.47.71l-.76.37a1.49,1.49,0,0,0-.49-.74,1.35,1.35,0,0,0-.85-.26,1.6,1.6,0,0,0-.86.23,1.41,1.41,0,0,0-.55.65,2.73,2.73,0,0,0,0,2.05,1.39,1.39,0,0,0,.55.66,1.6,1.6,0,0,0,.86.23,1.76,1.76,0,0,0,.68-.12,1.19,1.19,0,0,0,.47-.35,1.49,1.49,0,0,0,.26-.57l.74.26a2.35,2.35,0,0,1-.47.8,1.8,1.8,0,0,1-.71.5,2.37,2.37,0,0,1-1,.18,2.44,2.44,0,0,1-1.25-.31,2.22,2.22,0,0,1-.87-.9,3.32,3.32,0,0,1,0-2.8,2.22,2.22,0,0,1,.87-.9A2.44,2.44,0,0,1,103.73,313.1Z"/><path class="cls-5" d="M109.05,313.1a2.45,2.45,0,0,1,1.26.31,2.2,2.2,0,0,1,.86.9,3.32,3.32,0,0,1,0,2.8,2.2,2.2,0,0,1-.86.9,2.7,2.7,0,0,1-2.51,0,2.22,2.22,0,0,1-.87-.9,3.32,3.32,0,0,1,0-2.8,2.22,2.22,0,0,1,.87-.9A2.47,2.47,0,0,1,109.05,313.1Zm0,.69a1.61,1.61,0,0,0-.87.23,1.58,1.58,0,0,0-.56.66,2.86,2.86,0,0,0,0,2.05,1.55,1.55,0,0,0,.56.67,1.61,1.61,0,0,0,.87.23,1.65,1.65,0,0,0,.88-.23,1.53,1.53,0,0,0,.55-.67,2.73,2.73,0,0,0,0-2.05,1.55,1.55,0,0,0-.55-.66A1.65,1.65,0,0,0,109.05,313.79Z"/><path class="cls-5" d="M114.65,318.32a2.17,2.17,0,0,1-1.14-.31,2.19,2.19,0,0,1-.83-.9,2.92,2.92,0,0,1-.31-1.4,2.84,2.84,0,0,1,.33-1.42,2.3,2.3,0,0,1,.87-.88,2.27,2.27,0,0,1,1.16-.31,1.84,1.84,0,0,1,1.08.32,1.49,1.49,0,0,1,.61.85l-.1.07v-3.45h.8v7.33h-.7l-.07-1.22.11-.06a1.43,1.43,0,0,1-.33.75,1.74,1.74,0,0,1-.66.47A2,2,0,0,1,114.65,318.32Zm.08-.7a1.43,1.43,0,0,0,.84-.24,1.55,1.55,0,0,0,.56-.69,2.62,2.62,0,0,0,.19-1.05,2.26,2.26,0,0,0-.19-1,1.43,1.43,0,0,0-1.35-.86,1.47,1.47,0,0,0-1.19.52,2.15,2.15,0,0,0-.42,1.39,2.21,2.21,0,0,0,.41,1.39A1.4,1.4,0,0,0,114.73,317.62Z"/><path class="cls-5" d="M120.79,318.32a2.52,2.52,0,0,1-1.27-.31,2.22,2.22,0,0,1-.87-.9,3.32,3.32,0,0,1,0-2.8,2.24,2.24,0,0,1,.85-.9,2.46,2.46,0,0,1,1.24-.31,2.27,2.27,0,0,1,1.2.3,2,2,0,0,1,.76.82,2.57,2.57,0,0,1,.26,1.16c0,.11,0,.22,0,.31s0,.18,0,.25h-4.06v-.71h3.71l-.42.08a1.54,1.54,0,0,0-.39-1.12,1.43,1.43,0,0,0-1-.39,1.56,1.56,0,0,0-.85.23,1.47,1.47,0,0,0-.55.65,2.73,2.73,0,0,0,0,2.05,1.55,1.55,0,0,0,.57.66,1.65,1.65,0,0,0,.88.23,1.71,1.71,0,0,0,.9-.21,1.54,1.54,0,0,0,.55-.58l.64.38a2.3,2.3,0,0,1-.49.59,2.11,2.11,0,0,1-.69.38A2.52,2.52,0,0,1,120.79,318.32Z"/><path class="cls-5" d="M130.24,315a1.18,1.18,0,0,0-.3-.87,1.15,1.15,0,0,0-.86-.31,1.62,1.62,0,0,0-.88.23,1.29,1.29,0,0,0-.53.73l-.66-.41a1.82,1.82,0,0,1,.75-.9,2.37,2.37,0,0,1,1.34-.35,2.46,2.46,0,0,1,1,.19,1.52,1.52,0,0,1,.69.56,1.68,1.68,0,0,1,.26,1v2.43c0,.24.13.36.38.36a1.5,1.5,0,0,0,.37-.05l0,.63a1.12,1.12,0,0,1-.52.1,1.24,1.24,0,0,1-.52-.11.74.74,0,0,1-.36-.34,1.08,1.08,0,0,1-.13-.56v-.1l.2,0a1.31,1.31,0,0,1-.41.63,2,2,0,0,1-.66.37,2.56,2.56,0,0,1-.71.11,2.21,2.21,0,0,1-.82-.15,1.29,1.29,0,0,1-.61-.46A1.22,1.22,0,0,1,127,317a1.24,1.24,0,0,1,.38-.93,2,2,0,0,1,1-.5l2-.39v.66l-1.62.33a1.88,1.88,0,0,0-.73.28.59.59,0,0,0-.24.5.63.63,0,0,0,.24.51,1.12,1.12,0,0,0,.7.2,2.1,2.1,0,0,0,.56-.08,1.37,1.37,0,0,0,.47-.23,1,1,0,0,0,.34-.39,1.22,1.22,0,0,0,.12-.56Z"/><path class="cls-5" d="M135.15,318.32a2,2,0,0,1-.79-.15,1.79,1.79,0,0,1-.62-.42,2,2,0,0,1-.39-.61l.11-.14-.07,1.22h-.7v-7.33h.8v3.44l-.1-.15a1.67,1.67,0,0,1,.68-.77,1.91,1.91,0,0,1,1.09-.31,2.17,2.17,0,0,1,1.14.31,2.23,2.23,0,0,1,.83.89,3.24,3.24,0,0,1,0,2.81,2.28,2.28,0,0,1-.84.9A2.17,2.17,0,0,1,135.15,318.32Zm-.08-.7a1.43,1.43,0,0,0,1.16-.52,2.56,2.56,0,0,0,0-2.78,1.4,1.4,0,0,0-1.15-.52,1.42,1.42,0,0,0-.83.24,1.57,1.57,0,0,0-.56.68,2.39,2.39,0,0,0-.2,1,2.26,2.26,0,0,0,.2,1,1.55,1.55,0,0,0,.55.66A1.5,1.5,0,0,0,135.07,317.62Z"/><path class="cls-5" d="M140.76,313.1a2.5,2.5,0,0,1,1.26.31,2.26,2.26,0,0,1,.86.9,3.32,3.32,0,0,1,0,2.8,2.26,2.26,0,0,1-.86.9,2.72,2.72,0,0,1-2.52,0,2.26,2.26,0,0,1-.86-.9,3.32,3.32,0,0,1,0-2.8,2.26,2.26,0,0,1,.86-.9A2.5,2.5,0,0,1,140.76,313.1Zm0,.69a1.61,1.61,0,0,0-.87.23,1.51,1.51,0,0,0-.56.66,2.73,2.73,0,0,0,0,2.05,1.48,1.48,0,0,0,.56.67,1.76,1.76,0,0,0,1.74,0,1.55,1.55,0,0,0,.56-.67,2.73,2.73,0,0,0,0-2.05,1.58,1.58,0,0,0-.56-.66A1.61,1.61,0,0,0,140.76,313.79Z"/><path class="cls-5" d="M147.73,313.2h.84l-2.09,5h-.8l-2.09-5h.91l1.59,4.21Z"/><path class="cls-5" d="M151.42,318.32a2.54,2.54,0,0,1-1.27-.31,2.22,2.22,0,0,1-.87-.9,3.32,3.32,0,0,1,0-2.8,2.2,2.2,0,0,1,.86-.9,2.39,2.39,0,0,1,1.23-.31,2.27,2.27,0,0,1,1.2.3,2,2,0,0,1,.76.82,2.57,2.57,0,0,1,.26,1.16,3,3,0,0,1,0,.31c0,.09,0,.18,0,.25h-4.06v-.71h3.71l-.41.08a1.55,1.55,0,0,0-.4-1.12,1.43,1.43,0,0,0-1-.39,1.56,1.56,0,0,0-.85.23,1.47,1.47,0,0,0-.55.65,2.46,2.46,0,0,0-.2,1,2.29,2.29,0,0,0,.21,1,1.46,1.46,0,0,0,.56.66,1.67,1.67,0,0,0,.88.23,1.71,1.71,0,0,0,.9-.21,1.56,1.56,0,0,0,.56-.58l.63.38a2.3,2.3,0,0,1-.49.59,2.11,2.11,0,0,1-.69.38A2.52,2.52,0,0,1,151.42,318.32Z"/><path class="cls-5" d="M160,313.1a2.44,2.44,0,0,1,1.25.31,2.14,2.14,0,0,1,.86.9,3.32,3.32,0,0,1,0,2.8,2.14,2.14,0,0,1-.86.9,2.44,2.44,0,0,1-1.25.31,2.5,2.5,0,0,1-1.26-.31,2.14,2.14,0,0,1-.86-.9,3.32,3.32,0,0,1,0-2.8,2.14,2.14,0,0,1,.86-.9A2.5,2.5,0,0,1,160,313.1Zm0,.69a1.62,1.62,0,0,0-.88.23,1.58,1.58,0,0,0-.56.66,2.86,2.86,0,0,0,0,2.05,1.55,1.55,0,0,0,.56.67,1.57,1.57,0,0,0,2.31-.67,2.86,2.86,0,0,0,0-2.05,1.65,1.65,0,0,0-.56-.66A1.61,1.61,0,0,0,160,313.79Z"/></g><g class="cls-3"><path class="cls-5" d="M163.66,318.22v-5h.66l.11.82a1.43,1.43,0,0,1,.61-.69,2.07,2.07,0,0,1,1-.23l.29,0a.77.77,0,0,1,.27.08l-.15.73-.24-.06-.37,0a1.23,1.23,0,0,0-.62.18,1.41,1.41,0,0,0-.53.55,1.83,1.83,0,0,0-.21.93v2.71Z"/></g><g class="cls-3"><path class="cls-5" d="M173.43,313.2h.84l-2.09,5h-.8l-2.09-5h.91l1.59,4.21Z"/><path class="cls-5" d="M175.42,312.24a.58.58,0,0,1-.43-.17.6.6,0,0,1-.17-.44.58.58,0,0,1,.6-.6.59.59,0,0,1,.44.17.58.58,0,0,1,.17.43.6.6,0,0,1-.17.44A.59.59,0,0,1,175.42,312.24Zm.41,1v5H175v-5Z"/><path class="cls-5" d="M179.2,318.32a2.91,2.91,0,0,1-1.35-.31,2.21,2.21,0,0,1-.95-.89l.68-.49a1.77,1.77,0,0,0,.65.73,2,2,0,0,0,1,.26,1.41,1.41,0,0,0,.83-.21.62.62,0,0,0,.3-.54.6.6,0,0,0-.13-.38.87.87,0,0,0-.52-.26l-1.2-.25a1.91,1.91,0,0,1-1-.5,1.28,1.28,0,0,1-.32-.87,1.29,1.29,0,0,1,.24-.76,1.67,1.67,0,0,1,.67-.55,2.49,2.49,0,0,1,1-.2,2.58,2.58,0,0,1,1.26.29,1.83,1.83,0,0,1,.76.82l-.67.45a1.2,1.2,0,0,0-.56-.65,1.61,1.61,0,0,0-.79-.21,1.87,1.87,0,0,0-.62.1.89.89,0,0,0-.39.28.65.65,0,0,0-.14.4.64.64,0,0,0,.16.4.92.92,0,0,0,.56.27l1.25.26a1.76,1.76,0,0,1,1,.46,1.18,1.18,0,0,1,.28.78,1.45,1.45,0,0,1-.25.83,1.59,1.59,0,0,1-.71.55A2.61,2.61,0,0,1,179.2,318.32Z"/><path class="cls-5" d="M182.78,312.24a.58.58,0,0,1-.43-.17.6.6,0,0,1-.17-.44.58.58,0,0,1,.6-.6.6.6,0,0,1,.44.17.58.58,0,0,1,.17.43.58.58,0,0,1-.61.61Zm.41,1v5h-.81v-5Z"/><path class="cls-5" d="M187.76,313.2v.69h-3.63v-.69Zm-1.82-1.43v5.06a.7.7,0,0,0,.21.56.8.8,0,0,0,.54.18,1.27,1.27,0,0,0,.5-.1,1.46,1.46,0,0,0,.38-.27l.28.67a1.63,1.63,0,0,1-.54.33,2.07,2.07,0,0,1-.73.12,1.67,1.67,0,0,1-.71-.14,1.12,1.12,0,0,1-.53-.43,1.44,1.44,0,0,1-.21-.78v-5Z"/></g><g class="cls-3"><path class="cls-5" d="M194.6,313.2v.69H191v-.69Zm-1.83-1.43v5.06a.7.7,0,0,0,.21.56.8.8,0,0,0,.54.18,1.24,1.24,0,0,0,.5-.1,1.7,1.7,0,0,0,.39-.27l.28.67a1.79,1.79,0,0,1-.55.33,2,2,0,0,1-.73.12,1.7,1.7,0,0,1-.71-.14,1.12,1.12,0,0,1-.53-.43,1.36,1.36,0,0,1-.2-.78v-5Z"/><path class="cls-5" d="M195.49,318.22v-7.33h.8V314a1.56,1.56,0,0,1,.7-.65,2.23,2.23,0,0,1,.94-.2,2.38,2.38,0,0,1,1,.2,1.66,1.66,0,0,1,.71.63,2,2,0,0,1,.27,1.08v3.21h-.81v-2.93a1.56,1.56,0,0,0-.35-1.16,1.25,1.25,0,0,0-.88-.33,1.72,1.72,0,0,0-.72.17,1.4,1.4,0,0,0-.6.56,1.94,1.94,0,0,0-.24,1v2.66Z"/><path class="cls-5" d="M203.5,318.32a2.54,2.54,0,0,1-1.27-.31,2.22,2.22,0,0,1-.87-.9,3.32,3.32,0,0,1,0-2.8,2.2,2.2,0,0,1,.86-.9,2.39,2.39,0,0,1,1.23-.31,2.27,2.27,0,0,1,1.2.3,2,2,0,0,1,.76.82,2.57,2.57,0,0,1,.26,1.16,3,3,0,0,1,0,.31c0,.09,0,.18,0,.25h-4.06v-.71h3.71l-.41.08a1.55,1.55,0,0,0-.4-1.12,1.41,1.41,0,0,0-1-.39,1.56,1.56,0,0,0-.85.23,1.47,1.47,0,0,0-.55.65,2.46,2.46,0,0,0-.2,1,2.29,2.29,0,0,0,.21,1,1.46,1.46,0,0,0,.56.66,1.67,1.67,0,0,0,.88.23,1.71,1.71,0,0,0,.9-.21,1.56,1.56,0,0,0,.56-.58l.63.38a2.3,2.3,0,0,1-.49.59,2.11,2.11,0,0,1-.69.38A2.52,2.52,0,0,1,203.5,318.32Z"/><path class="cls-5" d="M210.78,310.89v6.05a.77.77,0,0,0,.14.53.6.6,0,0,0,.45.15,1.42,1.42,0,0,0,.33,0l.35-.11-.13.7a1.6,1.6,0,0,1-.35.11,2.38,2.38,0,0,1-.39,0,1.16,1.16,0,0,1-.91-.33,1.53,1.53,0,0,1-.29-1v-6.08Z"/><path class="cls-5" d="M213.19,312.24a.6.6,0,0,1-.44-.17.6.6,0,0,1-.16-.44.57.57,0,0,1,.16-.43.65.65,0,0,1,.88,0,.57.57,0,0,1,.16.43.6.6,0,0,1-.16.44A.6.6,0,0,1,213.19,312.24Zm.4,1v5h-.8v-5Z"/><path class="cls-5" d="M215.16,318.22v-5h.7l.07,1.12-.13-.11a1.76,1.76,0,0,1,.43-.64,1.53,1.53,0,0,1,.63-.36,2.6,2.6,0,0,1,.74-.11,2.38,2.38,0,0,1,1,.2,1.66,1.66,0,0,1,.71.63,2,2,0,0,1,.26,1.08v3.21h-.8v-2.93a1.52,1.52,0,0,0-.36-1.16,1.22,1.22,0,0,0-.87-.33,1.77,1.77,0,0,0-.73.17,1.38,1.38,0,0,0-.59.56,1.88,1.88,0,0,0-.24,1v2.67Z"/></g><g class="cls-3"><path class="cls-5" d="M221.88,310.89v7.33h-.81v-7.33Zm3.6,2.31-2.17,2.17-.19.19-1.64,1.65v-1l3-3Zm-2.1,1.76,2.22,3.26h-1l-1.92-2.81Z"/></g><g class="cls-3"><g class="cls-3"><path class="cls-5" d="M231.83,318.32a2,2,0,0,1-.79-.15,1.79,1.79,0,0,1-.62-.42,2,2,0,0,1-.39-.61l.11-.14-.07,1.22h-.7v-7.33h.8v3.44l-.1-.15a1.67,1.67,0,0,1,.68-.77,1.9,1.9,0,0,1,1.08-.31,2.18,2.18,0,0,1,1.15.31,2.23,2.23,0,0,1,.83.89,3.34,3.34,0,0,1,0,2.81,2.28,2.28,0,0,1-.84.9A2.17,2.17,0,0,1,231.83,318.32Zm-.08-.7a1.4,1.4,0,0,0,1.15-.52,2.15,2.15,0,0,0,.42-1.39,2.21,2.21,0,0,0-.41-1.39,1.54,1.54,0,0,0-2-.28,1.57,1.57,0,0,0-.56.68,2.69,2.69,0,0,0,0,2,1.65,1.65,0,0,0,.56.66A1.5,1.5,0,0,0,231.75,317.62Z"/><path class="cls-5" d="M237.46,318.32a2.52,2.52,0,0,1-1.27-.31,2.22,2.22,0,0,1-.87-.9,3.32,3.32,0,0,1,0-2.8,2.24,2.24,0,0,1,.85-.9,2.43,2.43,0,0,1,1.24-.31,2.27,2.27,0,0,1,1.2.3,2,2,0,0,1,.76.82,2.57,2.57,0,0,1,.26,1.16c0,.11,0,.22,0,.31s0,.18,0,.25h-4.06v-.71h3.71l-.42.08a1.54,1.54,0,0,0-.39-1.12,1.43,1.43,0,0,0-1-.39,1.56,1.56,0,0,0-.85.23,1.47,1.47,0,0,0-.55.65,2.73,2.73,0,0,0,0,2.05,1.55,1.55,0,0,0,.57.66,1.65,1.65,0,0,0,.88.23,1.71,1.71,0,0,0,.9-.21,1.54,1.54,0,0,0,.55-.58l.64.38a2.3,2.3,0,0,1-.49.59,2.11,2.11,0,0,1-.69.38A2.52,2.52,0,0,1,237.46,318.32Z"/></g><g class="cls-3"><path class="cls-5" d="M241.62,310.89v6.05a.72.72,0,0,0,.14.53.58.58,0,0,0,.45.15,1.55,1.55,0,0,0,.33,0l.35-.11-.13.7a1.79,1.79,0,0,1-.35.11l-.39,0a1.16,1.16,0,0,1-.91-.33,1.48,1.48,0,0,1-.3-1v-6.08Z"/></g></g><g class="cls-3"><path class="cls-5" d="M245.7,313.1a2.45,2.45,0,0,1,1.26.31,2.2,2.2,0,0,1,.86.9,3.32,3.32,0,0,1,0,2.8,2.2,2.2,0,0,1-.86.9,2.7,2.7,0,0,1-2.51,0,2.22,2.22,0,0,1-.87-.9,3.32,3.32,0,0,1,0-2.8,2.22,2.22,0,0,1,.87-.9A2.47,2.47,0,0,1,245.7,313.1Zm0,.69a1.61,1.61,0,0,0-.87.23,1.58,1.58,0,0,0-.56.66,2.86,2.86,0,0,0,0,2.05,1.55,1.55,0,0,0,.56.67,1.61,1.61,0,0,0,.87.23,1.67,1.67,0,0,0,.88-.23,1.53,1.53,0,0,0,.55-.67,2.73,2.73,0,0,0,0-2.05,1.55,1.55,0,0,0-.55-.66A1.67,1.67,0,0,0,245.7,313.79Z"/></g><g class="cls-3"><path class="cls-5" d="M255.48,313.2h.89l-1.75,5h-.8l-1.41-4-1.34,4h-.8l-1.75-5h.89l1.27,4.09L252,313.2h.81l1.36,4.09Z"/></g><g class="cls-3"><path class="cls-5" d="M263,313.2v.69h-3.64v-.69Zm-1.83-1.43v5.06a.7.7,0,0,0,.21.56.8.8,0,0,0,.54.18,1.24,1.24,0,0,0,.5-.1,1.46,1.46,0,0,0,.38-.27l.29.67a1.79,1.79,0,0,1-.55.33,2.07,2.07,0,0,1-.73.12,1.7,1.7,0,0,1-.71-.14,1.12,1.12,0,0,1-.53-.43,1.36,1.36,0,0,1-.2-.78v-5Z"/><path class="cls-5" d="M266,313.1a2.5,2.5,0,0,1,1.26.31,2.26,2.26,0,0,1,.86.9,3.32,3.32,0,0,1,0,2.8,2.26,2.26,0,0,1-.86.9,2.72,2.72,0,0,1-2.52,0,2.2,2.2,0,0,1-.86-.9,3.32,3.32,0,0,1,0-2.8,2.2,2.2,0,0,1,.86-.9A2.5,2.5,0,0,1,266,313.1Zm0,.69a1.65,1.65,0,0,0-.88.23,1.55,1.55,0,0,0-.55.66,2.73,2.73,0,0,0,0,2.05,1.53,1.53,0,0,0,.55.67,1.65,1.65,0,0,0,.88.23,1.61,1.61,0,0,0,.87-.23,1.55,1.55,0,0,0,.56-.67,2.86,2.86,0,0,0,0-2.05,1.58,1.58,0,0,0-.56-.66A1.61,1.61,0,0,0,266,313.79Z"/><path class="cls-5" d="M272.73,320.33V313.2h.71l.07,1.22-.11-.14a1.52,1.52,0,0,1,.39-.61,1.74,1.74,0,0,1,.63-.42,2.15,2.15,0,0,1,.8-.15,2.11,2.11,0,0,1,1.13.31,2.3,2.3,0,0,1,.83.89,3.34,3.34,0,0,1,0,2.81,2.28,2.28,0,0,1-.84.9,2.18,2.18,0,0,1-1.15.31,1.93,1.93,0,0,1-1.09-.31,1.68,1.68,0,0,1-.66-.77l.1-.16v3.25Zm2.38-2.71a1.41,1.41,0,0,0,1.16-.52,2.15,2.15,0,0,0,.42-1.39,2.21,2.21,0,0,0-.41-1.39,1.38,1.38,0,0,0-1.14-.52,1.48,1.48,0,0,0-.84.24,1.58,1.58,0,0,0-.56.66,2.28,2.28,0,0,0-.2,1,2.38,2.38,0,0,0,.19,1,1.55,1.55,0,0,0,.56.67A1.41,1.41,0,0,0,275.11,317.62Z"/></g><g class="cls-3"><path class="cls-5" d="M278.72,318.22v-5h.66l.11.82a1.43,1.43,0,0,1,.61-.69,2.07,2.07,0,0,1,1-.23l.29,0a.77.77,0,0,1,.27.08l-.15.73-.24-.06-.37,0a1.29,1.29,0,0,0-.63.18,1.46,1.46,0,0,0-.52.55,1.83,1.83,0,0,0-.21.93v2.71Z"/></g><g class="cls-3"><path class="cls-5" d="M284.44,313.1a2.45,2.45,0,0,1,1.26.31,2.2,2.2,0,0,1,.86.9,3.32,3.32,0,0,1,0,2.8,2.2,2.2,0,0,1-.86.9,2.7,2.7,0,0,1-2.51,0,2.22,2.22,0,0,1-.87-.9,3.32,3.32,0,0,1,0-2.8,2.22,2.22,0,0,1,.87-.9A2.44,2.44,0,0,1,284.44,313.1Zm0,.69a1.61,1.61,0,0,0-.87.23,1.58,1.58,0,0,0-.56.66,2.86,2.86,0,0,0,0,2.05,1.55,1.55,0,0,0,.56.67,1.61,1.61,0,0,0,.87.23,1.67,1.67,0,0,0,.88-.23,1.53,1.53,0,0,0,.55-.67,2.73,2.73,0,0,0,0-2.05,1.55,1.55,0,0,0-.55-.66A1.67,1.67,0,0,0,284.44,313.79Z"/><path class="cls-5" d="M290.17,313.1a2.35,2.35,0,0,1,.91.16,1.94,1.94,0,0,1,.69.46,2.51,2.51,0,0,1,.47.71l-.76.37a1.49,1.49,0,0,0-.49-.74,1.33,1.33,0,0,0-.85-.26,1.6,1.6,0,0,0-.86.23,1.47,1.47,0,0,0-.55.65,2.86,2.86,0,0,0,0,2.05,1.44,1.44,0,0,0,.55.66,1.6,1.6,0,0,0,.86.23,1.72,1.72,0,0,0,.68-.12,1.19,1.19,0,0,0,.47-.35,1.36,1.36,0,0,0,.26-.57l.74.26a2.5,2.5,0,0,1-.46.8,1.91,1.91,0,0,1-.72.5,2.32,2.32,0,0,1-.94.18,2.5,2.5,0,0,1-1.26-.31,2.14,2.14,0,0,1-.86-.9,3.32,3.32,0,0,1,0-2.8,2.14,2.14,0,0,1,.86-.9A2.5,2.5,0,0,1,290.17,313.1Z"/><path class="cls-5" d="M295.51,318.32a2.52,2.52,0,0,1-1.27-.31,2.16,2.16,0,0,1-.87-.9,3.32,3.32,0,0,1,0-2.8,2.24,2.24,0,0,1,.85-.9,2.4,2.4,0,0,1,1.24-.31,2.32,2.32,0,0,1,1.2.3,1.92,1.92,0,0,1,.75.82,2.45,2.45,0,0,1,.26,1.16v.31a1.64,1.64,0,0,1,0,.25h-4.05v-.71h3.7l-.41.08a1.51,1.51,0,0,0-.4-1.12,1.4,1.4,0,0,0-1-.39,1.56,1.56,0,0,0-.85.23,1.47,1.47,0,0,0-.55.65,2.31,2.31,0,0,0-.2,1,2.44,2.44,0,0,0,.2,1,1.42,1.42,0,0,0,.57.66,1.62,1.62,0,0,0,.88.23,1.7,1.7,0,0,0,.89-.21,1.49,1.49,0,0,0,.56-.58l.63.38a2.26,2.26,0,0,1-.48.59,2.06,2.06,0,0,1-.7.38A2.46,2.46,0,0,1,295.51,318.32Z"/><path class="cls-5" d="M300.71,318.32a2.91,2.91,0,0,1-1.35-.31,2.16,2.16,0,0,1-.95-.89l.68-.49a1.7,1.7,0,0,0,.65.73,2,2,0,0,0,1,.26,1.44,1.44,0,0,0,.83-.21.62.62,0,0,0,.3-.54.6.6,0,0,0-.13-.38.9.9,0,0,0-.52-.26L300,316a1.91,1.91,0,0,1-1-.5,1.23,1.23,0,0,1-.32-.87,1.36,1.36,0,0,1,.23-.76,1.71,1.71,0,0,1,.68-.55,2.49,2.49,0,0,1,1-.2,2.54,2.54,0,0,1,1.25.29,1.78,1.78,0,0,1,.76.82l-.67.45a1.19,1.19,0,0,0-.55-.65,1.61,1.61,0,0,0-.79-.21,1.87,1.87,0,0,0-.62.1.89.89,0,0,0-.39.28.65.65,0,0,0-.14.4.62.62,0,0,0,.15.4,1,1,0,0,0,.56.27l1.26.26a1.69,1.69,0,0,1,1,.46,1.13,1.13,0,0,1,.28.78,1.38,1.38,0,0,1-.25.83,1.56,1.56,0,0,1-.7.55A2.61,2.61,0,0,1,300.71,318.32Z"/><path class="cls-5" d="M305.7,318.32a2.91,2.91,0,0,1-1.35-.31,2.16,2.16,0,0,1-1-.89l.68-.49a1.7,1.7,0,0,0,.65.73,1.94,1.94,0,0,0,1,.26,1.44,1.44,0,0,0,.83-.21.62.62,0,0,0,.3-.54.6.6,0,0,0-.13-.38.9.9,0,0,0-.52-.26L305,316a2,2,0,0,1-1-.5,1.27,1.27,0,0,1-.31-.87,1.36,1.36,0,0,1,.23-.76,1.71,1.71,0,0,1,.68-.55,2.49,2.49,0,0,1,1-.2,2.54,2.54,0,0,1,1.25.29,1.78,1.78,0,0,1,.76.82l-.67.45a1.19,1.19,0,0,0-.55-.65,1.64,1.64,0,0,0-.79-.21,1.87,1.87,0,0,0-.62.1.89.89,0,0,0-.39.28.65.65,0,0,0-.14.4.62.62,0,0,0,.15.4,1,1,0,0,0,.56.27l1.26.26a1.69,1.69,0,0,1,1,.46,1.13,1.13,0,0,1,.28.78,1.38,1.38,0,0,1-.25.83,1.56,1.56,0,0,1-.7.55A2.61,2.61,0,0,1,305.7,318.32Z"/></g><g class="cls-3"><path class="cls-5" d="M43.85,328.26V329H40.21v-.69ZM42,326.83v5.06a.7.7,0,0,0,.21.56.8.8,0,0,0,.54.18,1.24,1.24,0,0,0,.5-.1,1.46,1.46,0,0,0,.38-.27l.29.67a1.79,1.79,0,0,1-.55.33,2,2,0,0,1-.73.12,1.87,1.87,0,0,1-.71-.13,1.2,1.2,0,0,1-.53-.44,1.35,1.35,0,0,1-.2-.77v-5Z"/><path class="cls-5" d="M44.74,333.28V326h.8V329a1.65,1.65,0,0,1,.69-.65,2.31,2.31,0,0,1,1-.2,2.24,2.24,0,0,1,1,.21,1.58,1.58,0,0,1,.71.62,2,2,0,0,1,.27,1.08v3.21h-.81v-2.93a1.56,1.56,0,0,0-.35-1.16,1.25,1.25,0,0,0-.88-.33,1.72,1.72,0,0,0-.72.17,1.4,1.4,0,0,0-.6.56,1.94,1.94,0,0,0-.24,1v2.66Z"/><path class="cls-5" d="M52.75,333.38a2.54,2.54,0,0,1-1.27-.31,2.22,2.22,0,0,1-.87-.9,3.32,3.32,0,0,1,0-2.8,2.2,2.2,0,0,1,.86-.9,2.39,2.39,0,0,1,1.23-.31,2.27,2.27,0,0,1,1.2.3,2,2,0,0,1,.76.82,2.57,2.57,0,0,1,.26,1.16,3,3,0,0,1,0,.31c0,.09,0,.18,0,.25H50.82v-.71h3.71l-.41.08a1.55,1.55,0,0,0-.4-1.12,1.41,1.41,0,0,0-1-.39,1.56,1.56,0,0,0-.85.23,1.47,1.47,0,0,0-.55.65,2.49,2.49,0,0,0-.2,1,2.26,2.26,0,0,0,.21,1,1.46,1.46,0,0,0,.56.66,1.67,1.67,0,0,0,.88.23,1.71,1.71,0,0,0,.9-.21,1.56,1.56,0,0,0,.56-.58l.63.38a2.3,2.3,0,0,1-.49.59,2.33,2.33,0,0,1-.69.39A2.73,2.73,0,0,1,52.75,333.38Z"/><path class="cls-5" d="M59.27,335.39v-7.13H60l.07,1.23-.11-.15a1.77,1.77,0,0,1,.39-.61,1.93,1.93,0,0,1,.63-.42,2.16,2.16,0,0,1,.81-.15,2.14,2.14,0,0,1,1.13.31,2.28,2.28,0,0,1,.82.89,3.24,3.24,0,0,1,0,2.81,2.28,2.28,0,0,1-.84.9,2.17,2.17,0,0,1-1.14.31,1.89,1.89,0,0,1-1.09-.31,1.71,1.71,0,0,1-.67-.77l.1-.15v3.24Zm2.38-2.71a1.43,1.43,0,0,0,1.16-.52,2.59,2.59,0,0,0,0-2.78,1.39,1.39,0,0,0-1.14-.52,1.49,1.49,0,0,0-.85.24,1.58,1.58,0,0,0-.56.66,2.43,2.43,0,0,0-.2,1,2.38,2.38,0,0,0,.2,1,1.47,1.47,0,0,0,.55.67A1.45,1.45,0,0,0,61.65,332.68Z"/></g><g class="cls-3"><path class="cls-5" d="M68.2,330a1.14,1.14,0,0,0-.31-.87,1.11,1.11,0,0,0-.85-.31,1.62,1.62,0,0,0-.88.23,1.35,1.35,0,0,0-.54.73l-.65-.4a1.75,1.75,0,0,1,.75-.91,2.45,2.45,0,0,1,1.34-.35,2.38,2.38,0,0,1,1,.19,1.5,1.5,0,0,1,.7.56,1.68,1.68,0,0,1,.26,1v2.43c0,.24.13.36.38.36a1.5,1.5,0,0,0,.37-.05l0,.63a1.12,1.12,0,0,1-.52.1,1.24,1.24,0,0,1-.52-.11.74.74,0,0,1-.36-.34,1.08,1.08,0,0,1-.13-.56v-.1l.2,0a1.26,1.26,0,0,1-.42.63,1.83,1.83,0,0,1-.65.37,2.56,2.56,0,0,1-.71.11,2.18,2.18,0,0,1-.82-.15,1.29,1.29,0,0,1-.61-.46,1.22,1.22,0,0,1-.23-.75,1.24,1.24,0,0,1,.38-.93,2,2,0,0,1,1.05-.5l2-.39v.66l-1.62.33a1.88,1.88,0,0,0-.73.28.59.59,0,0,0-.24.5.63.63,0,0,0,.24.51,1.12,1.12,0,0,0,.7.2,2.1,2.1,0,0,0,.56-.08,1.37,1.37,0,0,0,.47-.23,1.17,1.17,0,0,0,.34-.39,1.22,1.22,0,0,0,.12-.56Z"/></g><g class="cls-3"><path class="cls-5" d="M74.48,328.26l-2.36,5.86a3.1,3.1,0,0,1-.42.78,1.28,1.28,0,0,1-.5.41,1.41,1.41,0,0,1-.64.13,1.79,1.79,0,0,1-.62-.1,2,2,0,0,1-.51-.25l.22-.71a1.41,1.41,0,0,0,.43.27,1.19,1.19,0,0,0,.44.09.93.93,0,0,0,.5-.16,1.5,1.5,0,0,0,.42-.66l.26-.65-.5-1.19-1.6-3.82h.91l1.26,3.27.31.9.36-1,1.18-3.17Z"/><path class="cls-5" d="M75.23,333.28v-5h.71l0,.78a1.67,1.67,0,0,1,.7-.67,2,2,0,0,1,.9-.21,2.21,2.21,0,0,1,1,.24,1.66,1.66,0,0,1,.72.74,1.52,1.52,0,0,1,.45-.55,2,2,0,0,1,.64-.32,2.28,2.28,0,0,1,.66-.11,2.19,2.19,0,0,1,.91.2,1.67,1.67,0,0,1,.72.62,1.92,1.92,0,0,1,.28,1.09v3.21h-.8v-3.13a1.25,1.25,0,0,0-.34-1,1.24,1.24,0,0,0-.84-.3,1.57,1.57,0,0,0-.74.19,1.42,1.42,0,0,0-.54.57,1.8,1.8,0,0,0-.21.91v2.75h-.8v-3.13a1.29,1.29,0,0,0-.34-1,1.24,1.24,0,0,0-.85-.3,1.5,1.5,0,0,0-.68.18,1.39,1.39,0,0,0-.57.56,1.83,1.83,0,0,0-.23,1v2.68Z"/><path class="cls-5" d="M86.6,333.38a2.52,2.52,0,0,1-1.27-.31,2.22,2.22,0,0,1-.87-.9,3.32,3.32,0,0,1,0-2.8,2.24,2.24,0,0,1,.85-.9,2.43,2.43,0,0,1,1.24-.31,2.27,2.27,0,0,1,1.2.3,2,2,0,0,1,.76.82,2.57,2.57,0,0,1,.26,1.16c0,.11,0,.22,0,.31s0,.18,0,.25H84.67v-.71h3.71l-.42.08a1.54,1.54,0,0,0-.39-1.12,1.43,1.43,0,0,0-1-.39,1.56,1.56,0,0,0-.85.23,1.47,1.47,0,0,0-.55.65,2.49,2.49,0,0,0-.2,1,2.41,2.41,0,0,0,.2,1,1.55,1.55,0,0,0,.57.66,1.65,1.65,0,0,0,.88.23,1.71,1.71,0,0,0,.9-.21,1.54,1.54,0,0,0,.55-.58l.64.38a2.3,2.3,0,0,1-.49.59,2.33,2.33,0,0,1-.69.39A2.77,2.77,0,0,1,86.6,333.38Z"/></g><g class="cls-3"><path class="cls-5" d="M90,333.28v-5h.71l.07,1.12-.13-.11a1.64,1.64,0,0,1,.43-.64,1.53,1.53,0,0,1,.63-.36,2.53,2.53,0,0,1,.73-.11,2.31,2.31,0,0,1,1,.21,1.56,1.56,0,0,1,.7.62,2,2,0,0,1,.27,1.08v3.21h-.8v-2.93a1.52,1.52,0,0,0-.36-1.16,1.25,1.25,0,0,0-.88-.33,1.72,1.72,0,0,0-.72.17,1.46,1.46,0,0,0-.6.56,2,2,0,0,0-.23,1v2.67Z"/></g><g class="cls-3"><path class="cls-5" d="M98.86,328.26V329H95.22v-.69ZM97,326.83v5.06a.7.7,0,0,0,.21.56.8.8,0,0,0,.54.18,1.24,1.24,0,0,0,.5-.1,1.7,1.7,0,0,0,.39-.27l.28.67a1.79,1.79,0,0,1-.55.33,2,2,0,0,1-.73.12,1.87,1.87,0,0,1-.71-.13,1.2,1.2,0,0,1-.53-.44,1.35,1.35,0,0,1-.2-.77v-5Z"/><path class="cls-5" d="M105,328.16a2.45,2.45,0,0,1,1.26.31,2.26,2.26,0,0,1,.86.9,3.32,3.32,0,0,1,0,2.8,2.26,2.26,0,0,1-.86.9,2.45,2.45,0,0,1-1.26.31,2.5,2.5,0,0,1-1.26-.31,2.26,2.26,0,0,1-.86-.9,3.32,3.32,0,0,1,0-2.8,2.26,2.26,0,0,1,.86-.9A2.5,2.5,0,0,1,105,328.16Zm0,.69a1.61,1.61,0,0,0-.87.23,1.58,1.58,0,0,0-.56.66,2.49,2.49,0,0,0-.2,1,2.41,2.41,0,0,0,.2,1,1.55,1.55,0,0,0,.56.67,1.76,1.76,0,0,0,1.74,0,1.55,1.55,0,0,0,.56-.67,2.41,2.41,0,0,0,.2-1,2.49,2.49,0,0,0-.2-1,1.58,1.58,0,0,0-.56-.66A1.61,1.61,0,0,0,105,328.85Z"/><path class="cls-5" d="M108.59,333.28v-5h.71l.07,1.12-.13-.11a1.64,1.64,0,0,1,.43-.64,1.53,1.53,0,0,1,.63-.36,2.53,2.53,0,0,1,.73-.11,2.28,2.28,0,0,1,1,.21,1.63,1.63,0,0,1,.71.62,2.06,2.06,0,0,1,.26,1.08v3.21h-.8v-2.93a1.52,1.52,0,0,0-.36-1.16,1.25,1.25,0,0,0-.88-.33,1.72,1.72,0,0,0-.72.17,1.46,1.46,0,0,0-.6.56,2,2,0,0,0-.23,1v2.67Z"/></g><g class="cls-3"><path class="cls-5" d="M121.5,328.26l-2.36,5.86a3.1,3.1,0,0,1-.42.78,1.28,1.28,0,0,1-.5.41,1.41,1.41,0,0,1-.64.13,1.79,1.79,0,0,1-.62-.1,2,2,0,0,1-.51-.25l.22-.71a1.41,1.41,0,0,0,.43.27,1.19,1.19,0,0,0,.44.09.93.93,0,0,0,.5-.16,1.5,1.5,0,0,0,.42-.66l.26-.65-.5-1.19-1.6-3.82h.91l1.26,3.27.31.9.36-1,1.18-3.17Z"/><path class="cls-5" d="M124.33,328.16a2.45,2.45,0,0,1,1.26.31,2.2,2.2,0,0,1,.86.9,3.32,3.32,0,0,1,0,2.8,2.2,2.2,0,0,1-.86.9,2.7,2.7,0,0,1-2.51,0,2.22,2.22,0,0,1-.87-.9,3.32,3.32,0,0,1,0-2.8,2.22,2.22,0,0,1,.87-.9A2.44,2.44,0,0,1,124.33,328.16Zm0,.69a1.61,1.61,0,0,0-.87.23,1.58,1.58,0,0,0-.56.66,2.49,2.49,0,0,0-.19,1,2.41,2.41,0,0,0,.19,1,1.55,1.55,0,0,0,.56.67,1.76,1.76,0,0,0,1.74,0,1.48,1.48,0,0,0,.56-.67,2.41,2.41,0,0,0,.2-1,2.49,2.49,0,0,0-.2-1,1.51,1.51,0,0,0-.56-.66A1.61,1.61,0,0,0,124.33,328.85Z"/><path class="cls-5" d="M129.79,333.38a2.34,2.34,0,0,1-.91-.18,1.57,1.57,0,0,1-.69-.59,1.87,1.87,0,0,1-.26-1.06v-3.29h.8v3.08a1.35,1.35,0,0,0,.33,1.05,1.38,1.38,0,0,0,.93.29,1.54,1.54,0,0,0,.56-.1,1.22,1.22,0,0,0,.48-.3,1.31,1.31,0,0,0,.34-.53,1.92,1.92,0,0,0,.13-.76v-2.73h.8v5h-.7l0-.76a1.49,1.49,0,0,1-.71.65A2.46,2.46,0,0,1,129.79,333.38Z"/></g><g class="cls-3"><path class="cls-5" d="M133.87,333.28v-5h.66l.11.82a1.47,1.47,0,0,1,.61-.69,2,2,0,0,1,1-.23l.29,0a.77.77,0,0,1,.27.08l-.15.73-.24-.06-.37,0a1.23,1.23,0,0,0-.62.18,1.41,1.41,0,0,0-.53.55,1.83,1.83,0,0,0-.21.93v2.71Z"/></g><g class="cls-3"><g class="cls-3"><path class="cls-5" d="M142.84,326.55a3,3,0,0,1,1.51.36,3,3,0,0,1,1.06,1l-.68.52a2.34,2.34,0,0,0-.84-.91,2.3,2.3,0,0,0-1.13-.26,2.19,2.19,0,0,0-.87.15,1.16,1.16,0,0,0-.51.39,1,1,0,0,0-.16.56.92.92,0,0,0,.22.62,1.67,1.67,0,0,0,.88.42l1.44.32a2.5,2.5,0,0,1,1.33.63,1.56,1.56,0,0,1,.37,1.06,1.65,1.65,0,0,1-.31,1,2.06,2.06,0,0,1-.89.68,3.45,3.45,0,0,1-1.34.24,3.49,3.49,0,0,1-1.27-.2,2.94,2.94,0,0,1-.94-.52,3.23,3.23,0,0,1-.65-.74l.71-.58a2.36,2.36,0,0,0,.49.68,2.15,2.15,0,0,0,.73.45,2.92,2.92,0,0,0,1,.16,2.59,2.59,0,0,0,.88-.13,1.22,1.22,0,0,0,.58-.37.94.94,0,0,0,0-1.17,1.42,1.42,0,0,0-.79-.39l-1.56-.35a3,3,0,0,1-1-.39,1.48,1.48,0,0,1-.54-.58,1.63,1.63,0,0,1-.16-.73,1.73,1.73,0,0,1,.29-1,2.17,2.17,0,0,1,.85-.72A3.05,3.05,0,0,1,142.84,326.55Z"/><path class="cls-5" d="M148.8,333.38a2.52,2.52,0,0,1-1.27-.31,2.22,2.22,0,0,1-.87-.9,3.32,3.32,0,0,1,0-2.8,2.24,2.24,0,0,1,.85-.9,2.46,2.46,0,0,1,1.24-.31,2.27,2.27,0,0,1,1.2.3,2,2,0,0,1,.76.82,2.57,2.57,0,0,1,.26,1.16c0,.11,0,.22,0,.31s0,.18,0,.25h-4.06v-.71h3.71l-.42.08a1.54,1.54,0,0,0-.39-1.12,1.43,1.43,0,0,0-1-.39,1.56,1.56,0,0,0-.85.23,1.47,1.47,0,0,0-.55.65,2.49,2.49,0,0,0-.2,1,2.41,2.41,0,0,0,.2,1,1.55,1.55,0,0,0,.57.66,1.65,1.65,0,0,0,.88.23,1.71,1.71,0,0,0,.9-.21,1.54,1.54,0,0,0,.55-.58l.64.38a2.3,2.3,0,0,1-.49.59,2.33,2.33,0,0,1-.69.39A2.77,2.77,0,0,1,148.8,333.38Z"/><path class="cls-5" d="M154.29,333.38a2.54,2.54,0,0,1-1.27-.31,2.22,2.22,0,0,1-.87-.9,3.32,3.32,0,0,1,0-2.8,2.2,2.2,0,0,1,.86-.9,2.39,2.39,0,0,1,1.23-.31,2.27,2.27,0,0,1,1.2.3,2,2,0,0,1,.76.82,2.57,2.57,0,0,1,.26,1.16,3,3,0,0,1,0,.31c0,.09,0,.18,0,.25h-4.06v-.71h3.71l-.41.08a1.55,1.55,0,0,0-.4-1.12,1.41,1.41,0,0,0-1-.39,1.56,1.56,0,0,0-.85.23,1.47,1.47,0,0,0-.55.65,2.49,2.49,0,0,0-.2,1,2.26,2.26,0,0,0,.21,1,1.46,1.46,0,0,0,.56.66,1.67,1.67,0,0,0,.88.23,1.71,1.71,0,0,0,.9-.21,1.56,1.56,0,0,0,.56-.58l.63.38a2.3,2.3,0,0,1-.49.59,2.33,2.33,0,0,1-.69.39A2.73,2.73,0,0,1,154.29,333.38Z"/><path class="cls-5" d="M159.64,333.38a2.15,2.15,0,0,1-1.14-.31,2.28,2.28,0,0,1-.84-.9,3,3,0,0,1-.31-1.4,2.84,2.84,0,0,1,.33-1.42,2.4,2.4,0,0,1,.88-.88,2.27,2.27,0,0,1,1.16-.31,1.84,1.84,0,0,1,1.08.32,1.53,1.53,0,0,1,.61.85l-.1.08V326h.8v7.33h-.7l-.07-1.21.11-.07a1.44,1.44,0,0,1-.34.75,1.63,1.63,0,0,1-.65.47A2.07,2.07,0,0,1,159.64,333.38Zm.08-.7a1.48,1.48,0,0,0,.84-.24,1.53,1.53,0,0,0,.55-.69,2.62,2.62,0,0,0,.2-1.05,2.25,2.25,0,0,0-.2-1,1.49,1.49,0,0,0-.54-.64,1.53,1.53,0,0,0-.81-.22,1.45,1.45,0,0,0-1.18.52,2.54,2.54,0,0,0,0,2.78A1.4,1.4,0,0,0,159.72,332.68Z"/><path class="cls-5" d="M165.49,333.38a3,3,0,0,1-1.36-.31,2.22,2.22,0,0,1-.94-.88l.68-.5a1.7,1.7,0,0,0,.65.73,1.94,1.94,0,0,0,1,.26,1.44,1.44,0,0,0,.83-.21.62.62,0,0,0,.3-.54.62.62,0,0,0-.14-.38.87.87,0,0,0-.51-.26l-1.21-.25a1.91,1.91,0,0,1-1-.5,1.27,1.27,0,0,1-.31-.87,1.36,1.36,0,0,1,.23-.76,1.62,1.62,0,0,1,.68-.54,2.32,2.32,0,0,1,1-.21,2.55,2.55,0,0,1,1.26.29,1.82,1.82,0,0,1,.76.82l-.67.45a1.19,1.19,0,0,0-.55-.65,1.65,1.65,0,0,0-.8-.21,1.81,1.81,0,0,0-.61.1.89.89,0,0,0-.39.28.65.65,0,0,0-.14.4.62.62,0,0,0,.15.4,1,1,0,0,0,.56.27l1.26.26a1.73,1.73,0,0,1,1,.46,1.15,1.15,0,0,1,.28.78,1.36,1.36,0,0,1-.25.83,1.61,1.61,0,0,1-.7.55A2.61,2.61,0,0,1,165.49,333.38Z"/></g></g><g class="cls-3"><path class="cls-5" d="M170.72,333.28l2.58-6.63h.95l2.58,6.63H176l-1.89-4.94-.31-.92h0l-.29.89-1.9,5Zm1.27-1.84v-.75h3.54v.75Z"/><path class="cls-5" d="M177.72,335.39v-7.13h.7l.07,1.23-.11-.15a1.77,1.77,0,0,1,.39-.61,1.87,1.87,0,0,1,.64-.42,2.07,2.07,0,0,1,.8-.15,2.14,2.14,0,0,1,1.13.31,2.38,2.38,0,0,1,.83.89,3.06,3.06,0,0,1,.31,1.41,2.92,2.92,0,0,1-.32,1.4,2.28,2.28,0,0,1-.84.9,2.15,2.15,0,0,1-1.14.31,1.89,1.89,0,0,1-1.09-.31,1.77,1.77,0,0,1-.67-.77l.1-.15v3.24Zm2.38-2.71a1.43,1.43,0,0,0,1.16-.52,2.15,2.15,0,0,0,.41-1.39,2.21,2.21,0,0,0-.4-1.39,1.38,1.38,0,0,0-1.14-.52,1.48,1.48,0,0,0-.84.24,1.6,1.6,0,0,0-.57.66,2.43,2.43,0,0,0-.2,1,2.38,2.38,0,0,0,.2,1,1.47,1.47,0,0,0,.55.67A1.45,1.45,0,0,0,180.1,332.68Z"/></g><g class="cls-3"><path class="cls-5" d="M183.71,335.39v-7.13h.71l.07,1.23-.11-.15a1.52,1.52,0,0,1,.39-.61,1.74,1.74,0,0,1,.63-.42,2.15,2.15,0,0,1,.8-.15,2.11,2.11,0,0,1,1.13.31,2.3,2.3,0,0,1,.83.89,3.34,3.34,0,0,1,0,2.81,2.28,2.28,0,0,1-.84.9,2.18,2.18,0,0,1-1.15.31,1.93,1.93,0,0,1-1.09-.31,1.68,1.68,0,0,1-.66-.77l.1-.15v3.24Zm2.38-2.71a1.42,1.42,0,0,0,1.16-.52,2.15,2.15,0,0,0,.42-1.39,2.21,2.21,0,0,0-.41-1.39,1.38,1.38,0,0,0-1.14-.52,1.48,1.48,0,0,0-.84.24,1.58,1.58,0,0,0-.56.66,2.28,2.28,0,0,0-.2,1,2.38,2.38,0,0,0,.19,1,1.54,1.54,0,0,0,.55.67A1.47,1.47,0,0,0,186.09,332.68Z"/></g><g class="cls-3"><path class="cls-5" d="M189.91,332.08a.64.64,0,0,1,.47.18.63.63,0,0,1,.18.47.62.62,0,0,1-.65.65.65.65,0,0,1-.48-.18.64.64,0,0,1-.18-.47.63.63,0,0,1,.18-.47A.65.65,0,0,1,189.91,332.08Z"/></g><g class="cls-3"><path class="cls-2" d="M57.41,231.63l-2.58,4.08v4.11H53.21v-4.11l-2.58-4.08h1.85l1.46,2.5h.14l1.47-2.5Z"/></g><g class="cls-3"><path class="cls-2" d="M56.48,236.91a2.94,2.94,0,0,1,3-3,2.88,2.88,0,0,1,3,3,2.93,2.93,0,0,1-3,3A2.89,2.89,0,0,1,56.48,236.91Zm4.45,0a1.46,1.46,0,0,0-1.43-1.62,1.63,1.63,0,0,0,0,3.25A1.47,1.47,0,0,0,60.93,236.89Z"/></g><g class="cls-3"><path class="cls-2" d="M68.79,234v5.85H67.62l-.21-.65h-.15a2.09,2.09,0,0,1-1.71.71c-1.55,0-2.35-1.1-2.35-2.74V234h1.59v2.82c0,.72.06,1.73,1.07,1.73.51,0,1.35-.27,1.35-1.8V234Z"/></g><g class="cls-3"><path class="cls-2" d="M74,233.91v1.5a2.24,2.24,0,0,0-.51,0,1.5,1.5,0,0,0-1.67,1.5v3H70.3V234h1.19l.21.64h.19a2.46,2.46,0,0,1,1.79-.7Z"/></g><g class="cls-3"><path class="cls-2" d="M86.3,234l-1.39,5.85H82.85l-.79-3.42h-.17l-.79,3.42H79L77.64,234h1.5l.9,4.08h.2l.81-3.61H82.9l.82,3.61h.19l.9-4.08Z"/></g><g class="cls-3"><path class="cls-2" d="M92.62,237.34H88.35a1.48,1.48,0,0,0,1.53,1.22,1.38,1.38,0,0,0,1.14-.5h1.47a2.77,2.77,0,0,1-2.65,1.82,2.94,2.94,0,0,1-3-3,2.84,2.84,0,0,1,2.91-2.94C91.29,233.91,92.81,235,92.62,237.34Zm-4.18-1.18h2.64a1.19,1.19,0,0,0-1.24-1A1.45,1.45,0,0,0,88.44,236.16Z"/></g><g class="cls-3"><path class="cls-2" d="M99.47,236.89a2.81,2.81,0,0,1-2.73,3,1.9,1.9,0,0,1-1.48-.62h-.18l-.16.56H93.77v-8.31h1.46v3a2,2,0,0,1,1.51-.63A2.8,2.8,0,0,1,99.47,236.89Zm-1.52,0a1.43,1.43,0,0,0-1.43-1.54c-.76,0-1.29.57-1.29,1.54s.53,1.55,1.29,1.55A1.44,1.44,0,0,0,98,236.89Z"/></g><g class="cls-3"><path class="cls-2" d="M102.77,235.15c-.49,0-.7.25-.7.49,0,.4.52.52.88.59,1,.22,2.09.54,2.09,1.78a2,2,0,0,1-2.2,1.87,2.27,2.27,0,0,1-2.46-2.06h1.44a.89.89,0,0,0,1,.81c.59,0,.73-.32.73-.57,0-.43-.41-.56-.81-.65-.69-.15-2.17-.43-2.17-1.77,0-1.14,1.1-1.73,2.23-1.73a2.06,2.06,0,0,1,2.25,1.78H103.6A.75.75,0,0,0,102.77,235.15Z"/></g><g class="cls-3"><path class="cls-2" d="M105.9,232.33a1,1,0,0,1,1-1,1,1,0,0,1,0,2A1,1,0,0,1,105.9,232.33Zm1.75,7.49h-1.49V234h1.49Z"/></g><g class="cls-3"><path class="cls-2" d="M113.26,239.39a2,2,0,0,1-1.39.49,2,2,0,0,1-2.09-1.94v-2.72H108.6v-1.15h.59a.64.64,0,0,0,.67-.69v-1.17h1.41V234h1.48v1.25h-1.48v2.62a.71.71,0,0,0,.75.7,1.56,1.56,0,0,0,.68-.19Z"/></g><g class="cls-3"><path class="cls-2" d="M119.46,237.34h-4.27a1.48,1.48,0,0,0,1.53,1.22,1.38,1.38,0,0,0,1.14-.5h1.47a2.77,2.77,0,0,1-2.65,1.82,3,3,0,0,1-3-3,2.85,2.85,0,0,1,2.92-2.94C118.13,233.91,119.65,235,119.46,237.34Zm-4.18-1.18h2.64a1.19,1.19,0,0,0-1.24-1A1.45,1.45,0,0,0,115.28,236.16Z"/></g><g class="cls-3"><path class="cls-2" d="M124.05,232.33a1,1,0,0,1,1-1,1,1,0,0,1,0,2A1,1,0,0,1,124.05,232.33Zm1.75,7.49h-1.49V234h1.49Z"/></g><g class="cls-3"><path class="cls-2" d="M136.12,236.65v3.17h-1.55V237c0-.81.08-1.83-1-1.73-.28,0-1,.15-1,1.8v2.75H131V237c0-.81.08-1.83-1-1.73-.28,0-1.06.15-1.06,1.8v2.75h-1.54V234h1.19l.18.63h.19a1.79,1.79,0,0,1,1.41-.69,1.93,1.93,0,0,1,1.61.81h.17a2.18,2.18,0,0,1,1.78-.82C135.43,233.89,136.12,235,136.12,236.65Z"/></g><g class="cls-3"><path class="cls-2" d="M143,238.7v1.12h-.35a1.32,1.32,0,0,1-1.36-.75,2.15,2.15,0,0,1-1.85.81c-1.32,0-2.17-.68-2.17-1.73,0-1.83,2.5-2,3.62-2.05a.86.86,0,0,0-1-.93c-.83,0-.89.51-.89.51h-1.47c.11-1,1-1.77,2.39-1.77a2.14,2.14,0,0,1,2.38,2.39v1.55C142.29,238.53,142.53,238.7,143,238.7Zm-2.13-1.34v-.11c-1.07.11-2.12.24-2.12.85C138.73,239,140.75,238.92,140.85,237.36Z"/></g><g class="cls-3"><path class="cls-2" d="M149,240.29c-.05,1.32-1.25,1.93-2.64,1.93-1.82,0-2.86-1-2.59-2.31l.67-.53a1.22,1.22,0,0,1-.62-1,1.2,1.2,0,0,1,.72-1,1.83,1.83,0,0,1-.6-1.4,2.08,2.08,0,0,1,2.35-2,2.87,2.87,0,0,1,1.33.29,2.86,2.86,0,0,0,1-.76l.73,1a3.78,3.78,0,0,1-.94.43,1.74,1.74,0,0,1,.34,1.06,2.22,2.22,0,0,1-2.49,2,3,3,0,0,1-.83-.11.37.37,0,0,0-.18.3c0,.42.65.35,1.05.35h.81A1.75,1.75,0,0,1,149,240.29Zm-1.44,0c0-.31-.26-.56-.91-.56h-1.13l-.39.42c-.07.29.22.77,1.25.77C147.1,240.86,147.52,240.62,147.52,240.24Zm-2.21-4.36c0,.44.31.77,1,.77s1-.33,1-.77-.33-.74-1-.74S145.31,235.43,145.31,235.88Z"/></g><g class="cls-3"><path class="cls-2" d="M155.45,237.34h-4.27a1.48,1.48,0,0,0,1.53,1.22,1.38,1.38,0,0,0,1.14-.5h1.47a2.77,2.77,0,0,1-2.65,1.82,2.94,2.94,0,0,1-3-3,2.84,2.84,0,0,1,2.91-2.94C154.12,233.91,155.64,235,155.45,237.34Zm-4.18-1.18h2.64a1.19,1.19,0,0,0-1.24-1A1.45,1.45,0,0,0,151.27,236.16Z"/></g><path class="cls-4" d="M249.36,395.8H307.1a15.06,15.06,0,0,1,15.06,15.06h0a15.06,15.06,0,0,1-15.06,15.06H249.36a15.06,15.06,0,0,1-15.06-15.06h0A15.06,15.06,0,0,1,249.36,395.8Z"/><g class="cls-3"><path class="cls-2" d="M264.6,407.07l-2.05,7H260.5l-2.05-7h1.44l1.53,5.46h.21l1.54-5.46Z"/></g><g class="cls-3"><path class="cls-2" d="M264.67,407.67a.85.85,0,0,1,.87-.85.84.84,0,0,1,.84.85.85.85,0,0,1-.84.85A.87.87,0,0,1,264.67,407.67Zm1.51,6.43h-1.29v-5h1.29Z"/></g><g class="cls-3"><path class="cls-2" d="M269.22,410.09c-.42,0-.6.21-.6.43s.45.44.75.5c.89.19,1.8.46,1.8,1.52a1.68,1.68,0,0,1-1.89,1.61,2,2,0,0,1-2.11-1.77h1.24a.76.76,0,0,0,.84.7c.51,0,.63-.28.63-.49,0-.37-.35-.48-.69-.56-.59-.13-1.87-.37-1.87-1.51,0-1,.95-1.49,1.92-1.49a1.76,1.76,0,0,1,1.93,1.53h-1.24A.64.64,0,0,0,269.22,410.09Z"/></g><g class="cls-3"><path class="cls-2" d="M271.9,407.67a.85.85,0,0,1,.87-.85.84.84,0,0,1,.84.85.85.85,0,0,1-.84.85A.87.87,0,0,1,271.9,407.67Zm1.51,6.43h-1.29v-5h1.29Z"/></g><g class="cls-3"><path class="cls-2" d="M278.22,413.73a1.77,1.77,0,0,1-1.2.42,1.69,1.69,0,0,1-1.79-1.67v-2.33h-1v-1h.5a.55.55,0,0,0,.58-.59v-1h1.21v1.51h1.27v1.07h-1.27v2.25a.61.61,0,0,0,.64.6,1.29,1.29,0,0,0,.59-.17Z"/></g><g class="cls-3"><path class="cls-2" d="M283.24,407v7.13h-1.31V407Z"/></g><g class="cls-3"><path class="cls-2" d="M284.3,407.67a.85.85,0,0,1,.87-.85.84.84,0,0,1,.84.85.85.85,0,0,1-.84.85A.87.87,0,0,1,284.3,407.67Zm1.51,6.43h-1.29v-5h1.29Z"/></g><g class="cls-3"><path class="cls-2" d="M292,411.38v2.72h-1.33v-2.42c0-.17.12-1.44-.85-1.49-.47,0-1.31.23-1.31,1.55v2.36h-1.33v-5h1l.17.61h.17a1.92,1.92,0,0,1,1.52-.66C291.35,409,292,410,292,411.38Z"/></g><g class="cls-3"><path class="cls-2" d="M295.82,411.22l2,2.88h-1.43l-1.39-2-.5.54h0v1.45h-1.27V407h1.27v3.82h.2l1.62-1.71h1.53Z"/></g><path class="cls-4" d="M258.87,121.92h-3V119H250.1v2.88h-2.93v5.81h-2.92v-11.6h11.63v-2.93h2.93v-2.91H255.9v2.92H253v-3h-1l-5-.06v-2.86h6v-5.84h20.45v2.93h-2.8v2.93h2.88v2.88h2.9v3h-2.89v5.74a.68.68,0,0,0,.2.07h8.63v3h-3v2.92H276.5v2.85h5.89v3h-3v3h0l-3,.05v-3h-5.74v2.88h1.82l3.93.06v2.85H274c-.31,0-.51,0-.51.42v8.15a.6.6,0,0,0,.06.19h2.81v5.84H273.5v-5.81h-2.92v-2.91h-2.94V124.89h2.89V119h-2.9v-2.85h-8.76v5.77Zm2.95-8.81h5.84v-2.92h2.88v-2.91h-2.92v-2.87h-5.79v2.88h2.82v3h-2.83Zm11.62,11.79h-2.82v2.82h2.82Z"/><path class="cls-4" d="M288.1,148.2v-2.84h-2.9v-2.9h-2.93v2.83h-2.89v-2.86h2.83v-3h-2.84v-5.77h3v-3h2.85v3h5.56c.11,0,.3-.26.31-.4v-5c0-.35-.13-.46-.48-.46h-2.46V125H294v-3h8.73c0,.79.06,1.58,0,2.37,0,.42.11.58.55.57h2.38v14.54h-5.79v3h-3v2.89H294v-5.78h-2.9v8.73h5.75v2.91h-5.78v-3h-3Zm14.58-11.65a1.57,1.57,0,0,0,.05-.3v-8c0-.41-.18-.47-.53-.47h-7.71c-.43,0-.56.13-.56.56V136c0,.47.14.6.59.59h5Zm-20.38,0v2.84h2.83v-2.84Z"/><path class="cls-4" d="M264.66,98.47H244.27V78.08h20.39Zm-3.06-3.06V81.14H247.31V95.41Z"/><path class="cls-4" d="M317.36,98.47H296.93V78.08h20.43ZM300,81.12v14.3h14.23V81.12Z"/><path class="cls-4" d="M244.28,130.73h20.37v20.42H244.28Zm17.31,17.36V133.83H247.32v14.26Z"/><path class="cls-4" d="M273.43,101.45V95.66h-2.85V98.5h-2.92V95.66h2.86l.13-3h2.8V84H270.6v2.83h-2.92v-8.7h5.81v5.8h2.91v2.88h3V81h2.91v2.9h2.9v5.83h-2.85c0-.82,0-1.63-.07-2.45,0-.15-.16-.43-.26-.43h-2.62v2.89h-3v11.73h-3Z"/><path class="cls-4" d="M314.37,107.18l2.14.1h.83v8.85h-2.91v-3H302.7v-2.95h2.93v-2.93h-5.76v-2.9h2.86v-2.92h2.92v2.87h3v-2.87h8.73v2.91h-2.95v2.82a5,5,0,0,1-.66.08h-5.08v2.89h5.72Z"/><path class="cls-4" d="M314.39,124.93v5.82h-5.76v-5.84h-3v-3h-3v-5.86h-5.78v-2.91h5.77v2.92h3v2.88h5.87v-2.82h2.88v2.82h2.91v5.86l-2.95.14v-3h-2.81v3Z"/><path class="cls-4" d="M305.66,148.22h-5.78v-2.88h2.86v-2.91h8.77v-8.77h2.9v2.89h2.94v14.59h-2.9v-2.92h-5.84v-2.85h-3v2.83Z"/><path class="cls-4" d="M285.15,101.45H291V89.76h3v11.66h2.89v3h-5.75v2.9H294v2.9h-5.81v3h-3V101.43Z"/><path class="cls-4" d="M288.12,113.18h5.79V119h-2.84v3h-2.95v-8.82Z"/><path class="cls-4" d="M264.66,124.89v2.83H256v-2.85h2.91v-3h3v3h2.82Z"/><path class="cls-4" d="M285.15,89.71h2.93v8.75h-2.94V89.71Z"/><path class="cls-4" d="M288.08,148.18v3h-8.7v-2.91h8.05a3,3,0,0,0,.67-.05Z"/><path class="cls-4" d="M291.07,78.06h2.86v8.7h-2.86Z"/><path class="cls-4" d="M285.14,98.46v3H282.2V98.52h-2.84V95.66h2.89v2.83h2.89Z"/><path class="cls-4" d="M267.64,124.89h-3v-3h3Z"/><path class="cls-4" d="M288.12,121.92v3h-3v-3Z"/><path class="cls-4" d="M285.22,78.06h2.86v2.85h-2.86Z"/><path class="cls-4" d="M247.09,110.15v3h-2.84v-3Z"/><path class="cls-4" d="M314.37,130.75h3v2.91h-2.91v-2.94Z"/><path class="cls-4" d="M244.25,104.34v-2.88h2.84v2.88Z"/><path class="cls-4" d="M270.65,92.66h-3V89.81h3Z"/><path class="cls-4" d="M267.67,148.28h2.86v2.87h-2.86Z"/><path class="cls-4" d="M308.61,148.22v2.93h-2.95v-2.91h3Z"/><path class="cls-4" d="M250.11,127.74V124.9H253v2.84Z"/><path class="cls-4" d="M276.39,110.21v-8.78h3v8.78Z"/><path class="cls-4" d="M282.33,116.14h-3v-6h2.92v3.12C282.25,114.33,282.31,115.2,282.33,116.14Z"/><path class="cls-4" d="M279.35,89.66h3v3h-3Z"/><path class="cls-4" d="M285.17,124.89v2.85h-2.86v-2.85Z"/><path class="cls-4" d="M282.31,119v-2.86h2.82V119Z"/><path class="cls-4" d="M264.67,121.94h-2.85V119h2.85Z"/><path class="cls-4" d="M285.15,127.72h3v3h-3Z"/><path class="cls-4" d="M299.81,130.73v2.86H297v-2.86Z"/><path class="cls-4" d="M258.84,83.93v8.73h-8.71V84Z"/><path class="cls-4" d="M311.48,92.66h-8.7V83.94h8.7Z"/><path class="cls-4" d="M258.82,136.59v8.7h-8.69v-8.7Z"/></svg>