<svg id="Livello_1" data-name="Livello 1" xmlns="http://www.w3.org/2000/svg" xmlns:xlink="http://www.w3.org/1999/xlink" viewBox="0 0 420 370"><defs><style>.cls-1,.cls-12,.cls-3{fill:none;}.cls-2{fill:#2b4835;}.cls-3{stroke:#e9edd9;}.cls-12,.cls-3{stroke-miterlimit:10;}.cls-4,.cls-7{fill:#2ff141;}.cls-10,.cls-11,.cls-5,.cls-7,.cls-9{isolation:isolate;}.cls-6{fill:#e9edd9;}.cls-7{opacity:0.4;}.cls-8{clip-path:url(#clip-path);}.cls-10,.cls-11,.cls-9{opacity:0.3;}.cls-9{fill:url(#Sfumatura_senza_nome);}.cls-10{fill:url(#Sfumatura_senza_nome_2);}.cls-11{fill:url(#Sfumatura_senza_nome_3);}.cls-12{stroke:#2ff141;stroke-width:2px;}</style><clipPath id="clip-path"><path class="cls-1" d="M420,312H45V1H400a20,20,0,0,1,20,20V312Z"/></clipPath><linearGradient id="Sfumatura_senza_nome" x1="1228.92" y1="-1979.68" x2="1456.52" y2="-1979.68" gradientTransform="matrix(-0.16, -0.99, 0.99, -0.16, 2586.41, 1006.87)" gradientUnits="userSpaceOnUse"><stop offset="0" stop-color="#1eaf32"/><stop offset="0.09" stop-color="#1eaf32" stop-opacity="0.84"/><stop offset="0.24" stop-color="#1eaf32" stop-opacity="0.58"/><stop offset="0.39" stop-color="#1eaf32" stop-opacity="0.37"/><stop offset="0.55" stop-color="#1eaf32" stop-opacity="0.21"/><stop offset="0.7" stop-color="#1eaf32" stop-opacity="0.09"/><stop offset="0.85" stop-color="#1eaf32" stop-opacity="0.02"/><stop offset="1" stop-color="#1eaf32" stop-opacity="0"/></linearGradient><linearGradient id="Sfumatura_senza_nome_2" x1="3052.23" y1="-2434.81" x2="3279.82" y2="-2434.81" gradientTransform="translate(4165.73 1494.47) rotate(-121.16)" xlink:href="#Sfumatura_senza_nome"/><linearGradient id="Sfumatura_senza_nome_3" x1="4885.49" y1="-2145.57" x2="5113.09" y2="-2145.57" gradientTransform="matrix(-0.8, -0.6, 0.6, -0.8, 5770.19, 1380.62)" gradientUnits="userSpaceOnUse"><stop offset="0" stop-color="#1eaf32"/><stop offset="0.05" stop-color="#1eaf32" stop-opacity="0.88"/><stop offset="0.15" stop-color="#1eaf32" stop-opacity="0.65"/><stop offset="0.26" stop-color="#1eaf32" stop-opacity="0.45"/><stop offset="0.37" stop-color="#1eaf32" stop-opacity="0.29"/><stop offset="0.5" stop-color="#1eaf32" stop-opacity="0.16"/><stop offset="0.63" stop-color="#1eaf32" stop-opacity="0.07"/><stop offset="0.78" stop-color="#1eaf32" stop-opacity="0.02"/><stop offset="1" stop-color="#1eaf32" stop-opacity="0"/></linearGradient></defs><title>Tavola disegno 1</title><rect class="cls-2" y="1.15" width="420" height="370.85" rx="17.83"/><line class="cls-3" x1="379" y1="40.15" x2="365" y2="54.15"/><line class="cls-3" x1="379" y1="54.15" x2="365" y2="40.15"/><path class="cls-4" d="M145,298H256a18,18,0,0,1,18,18h0a18,18,0,0,1-18,18H145a18,18,0,0,1-18-18h0A18,18,0,0,1,145,298Z"/><g class="cls-5"><path class="cls-2" d="M193.86,317.34a3.49,3.49,0,0,1-3.44,2.58c-2.2,0-3.79-1.8-3.79-4.26s1.58-4.25,3.78-4.25a3.53,3.53,0,0,1,3.45,2.57h-1.81a1.66,1.66,0,0,0-1.62-1c-1.37,0-2.15,1.11-2.15,2.67s.8,2.68,2.18,2.68a1.63,1.63,0,0,0,1.59-1Z"/></g><g class="cls-5"><path class="cls-2" d="M196.59,311.34v8.52H195v-8.52Z"/></g><g class="cls-5"><path class="cls-2" d="M197.76,316.87a3,3,0,0,1,3.09-3.07,3,3,0,0,1,3,3.05,3,3,0,0,1-3.08,3.07A3,3,0,0,1,197.76,316.87Zm4.56,0a1.5,1.5,0,0,0-1.47-1.66,1.67,1.67,0,0,0,0,3.33A1.5,1.5,0,0,0,202.32,316.86Z"/></g><g class="cls-5"><path class="cls-2" d="M207.27,315.08c-.51,0-.72.25-.72.5,0,.41.54.53.9.6,1.06.23,2.14.55,2.14,1.82a2,2,0,0,1-2.25,1.92,2.32,2.32,0,0,1-2.52-2.11h1.47a.91.91,0,0,0,1,.83c.61,0,.76-.33.76-.58,0-.44-.42-.57-.83-.67-.71-.16-2.23-.44-2.23-1.81,0-1.18,1.13-1.78,2.29-1.78a2.11,2.11,0,0,1,2.3,1.83h-1.47C208.07,315.42,207.88,315.08,207.27,315.08Z"/></g><g class="cls-5"><path class="cls-2" d="M216.35,317.32H212a1.52,1.52,0,0,0,1.57,1.25,1.42,1.42,0,0,0,1.17-.51h1.51a2.86,2.86,0,0,1-2.73,1.86,3,3,0,0,1-3-3.11,2.92,2.92,0,0,1,3-3C215,313.8,216.54,314.87,216.35,317.32Zm-4.28-1.21h2.7a1.23,1.23,0,0,0-1.28-1A1.47,1.47,0,0,0,212.07,316.11Z"/></g><g class="cls-5"><path class="cls-6" d="M40.72,150.81a3.63,3.63,0,0,0,2.5-.84A3.33,3.33,0,0,0,44,147.9c0-.88.07-1.88.07-3V124.17c0-.64,0-1.26,0-1.85s.06-1.13.1-1.61l-1.73.1-1.73.09v-2.11c1.7,0,3.44-.06,5.23-.07s3.62,0,5.47,0a25.11,25.11,0,0,1,7.83,1.06,10.18,10.18,0,0,1,4.85,3.12A8.57,8.57,0,0,1,65.92,128a11.17,11.17,0,0,1-.55,3.91,9.71,9.71,0,0,1-2.4,3.84,12.42,12.42,0,0,1-4.92,2.9,24.94,24.94,0,0,1-8.11,1.11h-.72c-.36,0-.69,0-1-.05v7c0,.86,0,1.61,0,2.23a10.78,10.78,0,0,1-.12,1.56l1.49-.1L51,150.3c.49,0,1,0,1.46-.07v2.16H40.72Zm7.49-13.06q.91.09,1.56.12c.43,0,.95,0,1.56,0a11.4,11.4,0,0,0,5-1.08,8.87,8.87,0,0,0,3.6-3.09,8.45,8.45,0,0,0,1.34-4.8,9.45,9.45,0,0,0-.72-3.87,6.48,6.48,0,0,0-2-2.59A8.9,8.9,0,0,0,55.36,121a16.85,16.85,0,0,0-4-.45,3,3,0,0,0-2.33.72,3.16,3.16,0,0,0-.72,2c-.05.85-.07,1.85-.07,3Z"/></g><g class="cls-5"><path class="cls-6" d="M83.53,152.39c-.09-.54-.16-1-.19-1.44s-.08-.85-.14-1.3a13.32,13.32,0,0,1-3.53,2.57,8.85,8.85,0,0,1-4,.94q-3.64,0-5.42-1.66a5.3,5.3,0,0,1-1.78-4.05,5.72,5.72,0,0,1,1.37-3.82A10.51,10.51,0,0,1,73.38,141a20.34,20.34,0,0,1,4.75-1.54,23.93,23.93,0,0,1,5-.45v-3a16.11,16.11,0,0,0-.29-3.17,4.56,4.56,0,0,0-1.24-2.44,4.36,4.36,0,0,0-3.08-1,7,7,0,0,0-2.85.53,3.85,3.85,0,0,0-2.14,2,1.87,1.87,0,0,1,.51.89,4.1,4.1,0,0,1,.12.94,2.55,2.55,0,0,1-.48,1.32,1.75,1.75,0,0,1-1.68.69,1.81,1.81,0,0,1-1.54-.69,2.7,2.7,0,0,1-.53-1.66,4.16,4.16,0,0,1,1.23-2.93,8.41,8.41,0,0,1,3.38-2.06,14.61,14.61,0,0,1,4.9-.77c2.68,0,4.67.71,6,2.14s1.9,3.67,1.87,6.74v3.58c0,1.2,0,2.4,0,3.6s0,2.41,0,3.62c0,.51,0,1-.05,1.54s-.08,1.09-.14,1.73l1.7-.1,1.71-.1v2Zm-.43-11.76a20.37,20.37,0,0,0-3.43.41,14.12,14.12,0,0,0-3.31,1.08A6.79,6.79,0,0,0,73.91,144a4.29,4.29,0,0,0-.89,2.86,3.53,3.53,0,0,0,1.18,2.66,3.87,3.87,0,0,0,2.57.89,7.57,7.57,0,0,0,3.43-.74,12.93,12.93,0,0,0,2.9-2.09c0-.35,0-.74,0-1.15v-1.3q0-.24,0-1.53C83.09,142.74,83.1,141.75,83.1,140.63Z"/></g><g class="cls-5"><path class="cls-6" d="M96.93,165.4a4.44,4.44,0,0,1-2.55-.72,2.69,2.69,0,0,1-.48-3.79,1.83,1.83,0,0,1,1.49-.72,1.49,1.49,0,0,1,1.56.72,3,3,0,0,1,.41,1.34v.31a1.63,1.63,0,0,1,0,.36,1,1,0,0,0,.53.1,2.21,2.21,0,0,0,1.25-.48,4.38,4.38,0,0,0,1.2-1.39,25.38,25.38,0,0,0,1.46-3.17q.84-2.11,1.9-5l-7.49-16c-.83-1.8-1.43-3.22-1.8-4.28s-.62-1.84-.74-2.35l-2.31.1v-2h9.94v1.44h-.19c-1.35.1-2.08.6-2.21,1.51a8.37,8.37,0,0,0,1.1,4.15l5.62,12c.73-2,1.44-4.07,2.11-6.07s1.34-4,2-6c.25-.7.52-1.43.79-2.18s.54-1.42.81-2a3,3,0,0,1,.75-1.12l-3.31.19v-2h7.53v1.44a5,5,0,0,0-2.66,2.23,28.62,28.62,0,0,0-1.8,4l-6,16.75q-1.44,4-2.64,6.84a13.76,13.76,0,0,1-2.64,4.27A4.83,4.83,0,0,1,96.93,165.4Z"/><path class="cls-6" d="M118.58,152.39V151a2.48,2.48,0,0,0,2.06-.74,3.79,3.79,0,0,0,.67-2.07c.07-.88.1-1.89.1-3V134.15c0-.51,0-1,0-1.54a11,11,0,0,1,.17-1.58l-1.7.1-1.71.09v-2a19.23,19.23,0,0,0,3.19-.2,5.08,5.08,0,0,0,1.61-.48,4,4,0,0,0,.87-.62h1.39a8.22,8.22,0,0,1,.12,1.1c0,.42,0,.9.07,1.44a12.44,12.44,0,0,1,3.31-2,9.71,9.71,0,0,1,3.75-.79,8.49,8.49,0,0,1,4,.87,6.41,6.41,0,0,1,2.54,2.35,15.84,15.84,0,0,1,3.77-2.28,10.29,10.29,0,0,1,4.2-.94q4.17,0,6.14,2.52c1.32,1.68,1.94,4.43,1.88,8.23L155,147.3q0,1,0,1.71a11.16,11.16,0,0,1-.16,1.56c.51,0,1-.06,1.51-.08s1,0,1.51-.07v2h-9.79V151a2.48,2.48,0,0,0,2.06-.74,3.71,3.71,0,0,0,.67-2.07c.07-.88.1-1.89.1-3v-6.72a11.65,11.65,0,0,0-1.32-6.19,4.46,4.46,0,0,0-4.15-2,7.16,7.16,0,0,0-3,.67,10,10,0,0,0-2.59,1.68,10,10,0,0,1,.36,1.65,13.91,13.91,0,0,1,.12,1.85c0,1.86,0,3.73,0,5.62s0,3.77-.05,5.66c0,.64,0,1.21,0,1.71a11.24,11.24,0,0,1-.17,1.56c.51,0,1-.06,1.51-.08s1,0,1.52-.07v2h-9.8V151a2.39,2.39,0,0,0,2-.74,4.06,4.06,0,0,0,.68-2.07c.08-.88.12-1.89.12-3l0-6.72a12,12,0,0,0-1.2-6.24,4.29,4.29,0,0,0-4.08-2.06,7.08,7.08,0,0,0-2.92.65,8.12,8.12,0,0,0-2.45,1.65c0,.39,0,.8,0,1.23s0,.89,0,1.37V147.3q0,1,0,1.71a9.9,9.9,0,0,1-.17,1.56c.52,0,1-.06,1.52-.08s1,0,1.51-.07v2Z"/><path class="cls-6" d="M173.1,153.16a11.59,11.59,0,0,1-6-1.56,11,11,0,0,1-4.2-4.42,14,14,0,0,1-1.54-6.74,13.61,13.61,0,0,1,1.51-6.29,12.42,12.42,0,0,1,4.25-4.73,11.29,11.29,0,0,1,6.34-1.8,10.86,10.86,0,0,1,3.77.65,8.63,8.63,0,0,1,3.09,2,9.1,9.1,0,0,1,2.11,3.31,12.82,12.82,0,0,1,.77,4.68l-16.89.29a23.27,23.27,0,0,0,.79,6.41,8.5,8.5,0,0,0,2.57,4.27,6.76,6.76,0,0,0,4.56,1.51,9.5,9.5,0,0,0,3-.53,12,12,0,0,0,2.91-1.44,9.13,9.13,0,0,0,2.16-2l1.15,1a10.64,10.64,0,0,1-3.12,3.21,13.13,13.13,0,0,1-3.74,1.73A13.6,13.6,0,0,1,173.1,153.16Zm-6.62-16.66h12.24a11.24,11.24,0,0,0-.5-3.33,5.72,5.72,0,0,0-1.66-2.64,4.36,4.36,0,0,0-3-1,6.73,6.73,0,0,0-4.64,1.66A8.75,8.75,0,0,0,166.48,136.5Z"/></g><g class="cls-5"><path class="cls-6" d="M187.5,152.39V151a2.51,2.51,0,0,0,2.07-.74,3.88,3.88,0,0,0,.67-2.07c.06-.88.09-1.89.09-3l0-10.94c0-.51,0-1,0-1.54a11,11,0,0,1,.16-1.58l-1.7.1-1.7.09v-2a19.31,19.31,0,0,0,3.19-.2,5.17,5.17,0,0,0,1.61-.48,3.74,3.74,0,0,0,.86-.62h1.39a7.56,7.56,0,0,1,.07.77c0,.29,0,.61.08,1s0,.75,0,1.2a14.46,14.46,0,0,1,2.33-1.63,13.65,13.65,0,0,1,2.69-1.16,9.84,9.84,0,0,1,2.81-.43q4.17,0,6.09,2.62t1.92,8.13v8.93c0,.64,0,1.21,0,1.71a11.24,11.24,0,0,1-.17,1.56c.51,0,1-.06,1.51-.08s1,0,1.52-.07v2h-9.8V151a2.5,2.5,0,0,0,2.07-.74,3.79,3.79,0,0,0,.67-2.07c.06-.88.1-1.89.1-3v-6.72a12.28,12.28,0,0,0-1.37-6.24,4.46,4.46,0,0,0-4.15-2.06,7.78,7.78,0,0,0-3.39.91,8.86,8.86,0,0,0-2.76,2.21,7.39,7.39,0,0,1,0,.86v1l0,12.24c0,.64,0,1.21,0,1.71a11.24,11.24,0,0,1-.17,1.56c.51,0,1-.06,1.51-.08s1,0,1.51-.07v2Z"/></g><g class="cls-5"><path class="cls-6" d="M225.24,153.16a9,9,0,0,1-2.26-.31,5.13,5.13,0,0,1-2.14-1.23,6.3,6.3,0,0,1-1.56-2.66,15.37,15.37,0,0,1-.57-4.63l.09-13.92-3.69,0v-2.06a4.75,4.75,0,0,0,2.54-.94A8.86,8.86,0,0,0,220,125a9.45,9.45,0,0,0,1.42-3.36H223v6.72h8.06v1.87l-8.06.1-.1,13.34a16,16,0,0,0,.36,3.67,4.41,4.41,0,0,0,1.18,2.28,2.92,2.92,0,0,0,2.11.77,4.45,4.45,0,0,0,2.52-.77,7.5,7.5,0,0,0,2.09-2.11l1.29,1.06a12.81,12.81,0,0,1-2.08,2.49,8.62,8.62,0,0,1-2,1.37,6.18,6.18,0,0,1-1.77.58A9.89,9.89,0,0,1,225.24,153.16Z"/></g><g class="cls-5"><path class="cls-4" d="M56.18,194.63c-8.16,0-15.22-7-15.22-17s7.06-17,15.17-17a14.78,14.78,0,0,1,13.78,9.84H65a9.32,9.32,0,0,0-8.83-5.57c-6.29,0-10.61,5.14-10.61,12.77s4.32,12.77,10.66,12.77A9.25,9.25,0,0,0,65,184.79h5A14.71,14.71,0,0,1,56.18,194.63Z"/><path class="cls-4" d="M71.58,182.39c0-7.11,5.52-12.24,11.53-12.24s11.52,5.13,11.52,12.24-5.48,12.24-11.52,12.24S71.58,189.49,71.58,182.39Zm18.82,0c0-4.7-3-8.31-7.29-8.31s-7.3,3.61-7.3,8.31,3,8.3,7.3,8.3S90.4,187.09,90.4,182.39Z"/></g><g class="cls-5"><path class="cls-4" d="M133.36,181.38v13h-4.23V182.82c0-4.66-.57-9-4.7-9-3,0-5.66,2.35-5.81,6.57v14H114.4V182.82c0-4.66-.58-9-4.71-9-3.12,0-5.81,2.49-5.81,6.91v13.68H99.66v-24h2.78l.82,2.69h.67a7.85,7.85,0,0,1,12.87.91h.81a8.92,8.92,0,0,1,7.35-3.84C130.48,170.15,133.36,174.76,133.36,181.38Z"/></g><g class="cls-5"><path class="cls-4" d="M160.58,182.39c0,7.1-5,12.24-11.09,12.24a8.39,8.39,0,0,1-7.25-3.84V204h-4.08v-33.6h2.78l.92,3h.76a8.35,8.35,0,0,1,6.87-3.26C155.59,170.15,160.58,175.28,160.58,182.39Zm-4.23,0c0-5.19-3.6-8.31-7.2-8.31-3.17,0-6.91,2.4-6.91,8.31s3.74,8.3,6.91,8.3C152.75,190.69,156.35,187.57,156.35,182.39Z"/></g><g class="cls-5"><path class="cls-4" d="M168.89,160.31v34.08h-4.18V160.31Z"/></g><g class="cls-5"><path class="cls-4" d="M195.33,183.49H177.19c.38,4.47,3.17,7.25,7.3,7.25a6.6,6.6,0,0,0,5.9-3.07h4.42a11.19,11.19,0,0,1-10.32,7c-6.05,0-11.43-4.94-11.43-12.43s5.38-12,11.38-12C190.2,170.15,195.81,174.42,195.33,183.49Zm-18-3.5H191c-.58-3.7-3-6.29-6.58-6.29S178.15,176.15,177.38,180Z"/></g><g class="cls-5"><path class="cls-4" d="M212,193.09a6.09,6.09,0,0,1-4.22,1.54c-4.18,0-6.72-3.12-6.72-7.49v-13.2h-4.18v-3.12h1.49a3.12,3.12,0,0,0,3.21-3.31v-4.32h3.56v7.2H211v3.5h-5.77v12.87c0,3.07,1.44,4.08,3.08,4.08a2.89,2.89,0,0,0,1.92-.67Z"/></g><g class="cls-5"><path class="cls-4" d="M235.31,183.49H217.17c.38,4.47,3.17,7.25,7.29,7.25a6.61,6.61,0,0,0,5.91-3.07h4.42a11.2,11.2,0,0,1-10.33,7c-6,0-11.42-4.94-11.42-12.43s5.38-12,11.38-12C230.18,170.15,235.79,174.42,235.31,183.49ZM217.36,180H231c-.58-3.7-3-6.29-6.58-6.29S218.13,176.15,217.36,180Z"/></g><g class="cls-5"><path class="cls-6" d="M47.19,99.17a3.45,3.45,0,0,1-.84,1.5,3.64,3.64,0,0,1-1.35.9,5.06,5.06,0,0,1-1.73.29,4.72,4.72,0,0,1-2.37-.57,3.87,3.87,0,0,1-1.54-1.64,6.29,6.29,0,0,1,0-5.1,3.87,3.87,0,0,1,1.54-1.64,4.67,4.67,0,0,1,2.35-.57A5.49,5.49,0,0,1,45,92.6a3.31,3.31,0,0,1,1.31.8,3.23,3.23,0,0,1,.79,1.33l-1.75.75a2.15,2.15,0,0,0-.73-1.2,2.09,2.09,0,0,0-1.26-.36,2.3,2.3,0,0,0-2.2,1.44,4.44,4.44,0,0,0-.31,1.74,4.73,4.73,0,0,0,.29,1.74A2.19,2.19,0,0,0,42,99.91a2.4,2.4,0,0,0,1.37.37,2.06,2.06,0,0,0,2.09-1.64Z"/><path class="cls-6" d="M51.42,94.58a3.88,3.88,0,0,1,1.87.43,3.1,3.1,0,0,1,1.26,1.25,4.38,4.38,0,0,1,0,3.91,3.06,3.06,0,0,1-1.26,1.26,4.26,4.26,0,0,1-3.73,0,3.14,3.14,0,0,1-1.27-1.26,4.47,4.47,0,0,1,0-3.91A3.18,3.18,0,0,1,49.56,95,3.87,3.87,0,0,1,51.42,94.58Zm0,1.43a1.63,1.63,0,0,0-.9.24A1.54,1.54,0,0,0,50,97a3.35,3.35,0,0,0-.19,1.23A3.38,3.38,0,0,0,50,99.45a1.54,1.54,0,0,0,.57.74,1.63,1.63,0,0,0,.9.24,1.6,1.6,0,0,0,.89-.24,1.54,1.54,0,0,0,.57-.74,3.38,3.38,0,0,0,.19-1.23A3.35,3.35,0,0,0,52.88,97a1.54,1.54,0,0,0-.57-.74A1.6,1.6,0,0,0,51.42,96Z"/><path class="cls-6" d="M56.2,101.72v-7h1.72l.11,2.1-.24-.22a2.76,2.76,0,0,1,.53-1.13,2.33,2.33,0,0,1,.89-.67,2.92,2.92,0,0,1,1.16-.22,2.81,2.81,0,0,1,1.29.28,2.11,2.11,0,0,1,.9.85,2.76,2.76,0,0,1,.33,1.42v4.59H61v-4a1.75,1.75,0,0,0-.35-1.24,1.28,1.28,0,0,0-.91-.34,1.59,1.59,0,0,0-.76.19,1.41,1.41,0,0,0-.6.61A2.24,2.24,0,0,0,58.11,98v3.71Z"/><path class="cls-6" d="M68.6,100.4a2.78,2.78,0,0,1,1.75.49,1.68,1.68,0,0,1,.62,1.38,2,2,0,0,1-.47,1.35,2.78,2.78,0,0,1-1.29.83,6,6,0,0,1-1.93.28,5.31,5.31,0,0,1-2.63-.5,1.51,1.51,0,0,1-.84-1.32,1.28,1.28,0,0,1,.44-1,2.38,2.38,0,0,1,1.47-.43l-.07.22a2.11,2.11,0,0,1-1.12-.48,1.31,1.31,0,0,1-.38-1,1.27,1.27,0,0,1,.5-1.05A2.35,2.35,0,0,1,66,98.72l.84.4h-.2a1.54,1.54,0,0,0-.85.24.6.6,0,0,0-.24.46.48.48,0,0,0,.23.44,1.3,1.3,0,0,0,.66.14Zm-1.29-5.82a4.58,4.58,0,0,1,1.7.29,2.42,2.42,0,0,1,1.11.82,2.3,2.3,0,0,1,0,2.53A2.49,2.49,0,0,1,69,99a4.58,4.58,0,0,1-1.7.29,3.88,3.88,0,0,1-2.38-.64,2.25,2.25,0,0,1-.43-3,2.44,2.44,0,0,1,1.1-.82A4.63,4.63,0,0,1,67.31,94.58Zm0,8.83a5,5,0,0,0,1.2-.12,2,2,0,0,0,.7-.32.6.6,0,0,0,.23-.44.52.52,0,0,0-.21-.43,1.38,1.38,0,0,0-.76-.16H66.09a.9.9,0,0,0-.55.17.57.57,0,0,0-.22.46c0,.26.18.47.53.62A3.77,3.77,0,0,0,67.3,103.41Zm0-7.63a1.4,1.4,0,0,0-.92.31A1.08,1.08,0,0,0,66,97a1.1,1.1,0,0,0,.37.86,1.35,1.35,0,0,0,.92.31,1.33,1.33,0,0,0,.92-.31,1.09,1.09,0,0,0,.36-.86,1.07,1.07,0,0,0-.36-.86A1.38,1.38,0,0,0,67.31,95.78Zm3.59-2.73.22,1.38h-.25a1.43,1.43,0,0,0-1,.29,1,1,0,0,0-.33.79l-.78-.32a2.47,2.47,0,0,1,.22-1,1.86,1.86,0,0,1,1.72-1.07h.16Z"/></g><g class="cls-5"><path class="cls-6" d="M71.71,101.72v-7h1.66l.13,1.37A2.45,2.45,0,0,1,74.32,95a2.25,2.25,0,0,1,1.35-.39,1.91,1.91,0,0,1,.43,0,1.82,1.82,0,0,1,.33.11l-.23,1.61a2.14,2.14,0,0,0-.34-.08,3.79,3.79,0,0,0-.53,0,1.8,1.8,0,0,0-.81.2,1.73,1.73,0,0,0-.64.62,2,2,0,0,0-.25,1v3.63Z"/></g><g class="cls-5"><path class="cls-6" d="M81.06,97.25a1.23,1.23,0,0,0-.35-.93,1.18,1.18,0,0,0-.9-.34,1.57,1.57,0,0,0-.91.27,1.51,1.51,0,0,0-.57.88l-1.64-.51a2.56,2.56,0,0,1,1-1.48,3.77,3.77,0,0,1,2.17-.56,4.21,4.21,0,0,1,1.61.29,2.34,2.34,0,0,1,1.07.86A2.57,2.57,0,0,1,83,97.17V100c0,.36.17.53.51.53a1.31,1.31,0,0,0,.44-.07l-.11,1.19a1.89,1.89,0,0,1-.91.19,2.26,2.26,0,0,1-.88-.17,1.35,1.35,0,0,1-.62-.51,1.55,1.55,0,0,1-.22-.86v-.06l.34-.06a1.58,1.58,0,0,1-.47.91,2.54,2.54,0,0,1-.91.56,3.26,3.26,0,0,1-1.12.2,3.11,3.11,0,0,1-1.23-.22A1.74,1.74,0,0,1,77,101a1.9,1.9,0,0,1-.28-1,1.71,1.71,0,0,1,.51-1.28A2.7,2.7,0,0,1,78.65,98l2.63-.53v1.19L79.59,99a2.34,2.34,0,0,0-.72.26.57.57,0,0,0-.25.53.61.61,0,0,0,.26.53,1.05,1.05,0,0,0,.62.18,2.25,2.25,0,0,0,.58-.07,1.73,1.73,0,0,0,.5-.22,1,1,0,0,0,.35-.42,1.42,1.42,0,0,0,.13-.65Z"/></g><g class="cls-5"><path class="cls-6" d="M89.13,94.72v1.43H83.68V94.72Zm-2.24-2.14v6.86a.9.9,0,0,0,.26.73,1,1,0,0,0,.7.23,1.74,1.74,0,0,0,.63-.1,1.7,1.7,0,0,0,.46-.29l.31,1.28a2.75,2.75,0,0,1-.84.42,3.67,3.67,0,0,1-1.06.15,3.39,3.39,0,0,1-1.24-.21,1.7,1.7,0,0,1-.84-.67,2.24,2.24,0,0,1-.3-1.23V93.11Z"/><path class="cls-6" d="M92.44,101.86a3,3,0,0,1-1.26-.25,2,2,0,0,1-.89-.81A2.86,2.86,0,0,1,90,99.37V94.72h1.91v4.19a1.51,1.51,0,0,0,.34,1.12,1.37,1.37,0,0,0,1,.32,1.65,1.65,0,0,0,.57-.11,1.36,1.36,0,0,0,.5-.33,1.56,1.56,0,0,0,.34-.58,2.65,2.65,0,0,0,.13-.84V94.72h1.91v7h-1.7l-.07-1.22a2.35,2.35,0,0,1-1,1A3.07,3.07,0,0,1,92.44,101.86Z"/></g><g class="cls-5"><path class="cls-6" d="M100.13,91.65v7.91a1,1,0,0,0,.17.69.69.69,0,0,0,.56.2,2,2,0,0,0,.39,0l.39-.1-.17,1.26a2.14,2.14,0,0,1-.59.21,3.51,3.51,0,0,1-.71.08,2,2,0,0,1-1.49-.5,2.27,2.27,0,0,1-.47-1.59V91.65Z"/></g><g class="cls-5"><path class="cls-6" d="M106.34,97.25a1.23,1.23,0,0,0-.35-.93,1.2,1.2,0,0,0-.9-.34,1.57,1.57,0,0,0-.91.27,1.51,1.51,0,0,0-.57.88L102,96.62a2.56,2.56,0,0,1,1-1.48,3.77,3.77,0,0,1,2.17-.56,4.21,4.21,0,0,1,1.61.29,2.34,2.34,0,0,1,1.07.86,2.57,2.57,0,0,1,.38,1.44V100c0,.36.17.53.51.53a1.31,1.31,0,0,0,.44-.07l-.11,1.19a1.89,1.89,0,0,1-.91.19,2.26,2.26,0,0,1-.88-.17,1.35,1.35,0,0,1-.62-.51,1.55,1.55,0,0,1-.22-.86v-.06l.34-.06a1.58,1.58,0,0,1-.47.91,2.54,2.54,0,0,1-.91.56,3.26,3.26,0,0,1-1.12.2,3.11,3.11,0,0,1-1.23-.22,1.74,1.74,0,0,1-.8-.63,1.9,1.9,0,0,1-.28-1,1.71,1.71,0,0,1,.51-1.28,2.7,2.7,0,0,1,1.44-.68l2.63-.53v1.19l-1.68.33a2.34,2.34,0,0,0-.72.26.57.57,0,0,0-.25.53.61.61,0,0,0,.26.53,1.05,1.05,0,0,0,.62.18,2.25,2.25,0,0,0,.58-.07,1.73,1.73,0,0,0,.5-.22,1,1,0,0,0,.35-.42,1.42,1.42,0,0,0,.13-.65Z"/></g><g class="cls-5"><path class="cls-6" d="M114.41,94.72v1.43H109V94.72Zm-2.24-2.14v6.86a.9.9,0,0,0,.26.73,1,1,0,0,0,.7.23,1.47,1.47,0,0,0,1.09-.39l.31,1.28a2.75,2.75,0,0,1-.84.42,3.67,3.67,0,0,1-1.06.15,3.39,3.39,0,0,1-1.24-.21,1.7,1.7,0,0,1-.84-.67,2.24,2.24,0,0,1-.3-1.23V93.11Z"/><path class="cls-6" d="M116.25,93.71a1.26,1.26,0,0,1-.89-.26.94.94,0,0,1-.3-.76,1,1,0,0,1,.3-.78,1.31,1.31,0,0,1,.89-.26,1.34,1.34,0,0,1,.9.26,1,1,0,0,1,.29.78.93.93,0,0,1-.29.76A1.29,1.29,0,0,1,116.25,93.71Zm1,1v7h-1.92v-7Z"/><path class="cls-6" d="M122,94.58a3.88,3.88,0,0,1,1.87.43,3.22,3.22,0,0,1,1.26,1.25,4.47,4.47,0,0,1,0,3.91,3.18,3.18,0,0,1-1.26,1.26,4.26,4.26,0,0,1-3.73,0,3,3,0,0,1-1.27-1.26,4.38,4.38,0,0,1,0-3.91A3.06,3.06,0,0,1,120.15,95,3.87,3.87,0,0,1,122,94.58ZM122,96a1.65,1.65,0,0,0-.91.24,1.59,1.59,0,0,0-.56.74,3.33,3.33,0,0,0-.2,1.23,3.37,3.37,0,0,0,.2,1.23,1.59,1.59,0,0,0,.56.74,1.65,1.65,0,0,0,.91.24,1.62,1.62,0,0,0,.89-.24,1.59,1.59,0,0,0,.56-.74,3.37,3.37,0,0,0,.2-1.23,3.33,3.33,0,0,0-.2-1.23,1.59,1.59,0,0,0-.56-.74A1.62,1.62,0,0,0,122,96Z"/><path class="cls-6" d="M126.78,101.72v-7h1.72l.12,2.1-.24-.22a2.76,2.76,0,0,1,.53-1.13,2.26,2.26,0,0,1,.89-.67,3.14,3.14,0,0,1,2.45.06,2.11,2.11,0,0,1,.9.85,2.87,2.87,0,0,1,.32,1.42v4.59h-1.91v-4a1.75,1.75,0,0,0-.35-1.24,1.3,1.3,0,0,0-.91-.34,1.62,1.62,0,0,0-.77.19,1.47,1.47,0,0,0-.6.61A2.36,2.36,0,0,0,128.7,98v3.71Z"/><path class="cls-6" d="M137.83,101.86a4.87,4.87,0,0,1-1.94-.38,3.54,3.54,0,0,1-1.42-1.06l1.1-1.12a2.73,2.73,0,0,0,.9.82,2.57,2.57,0,0,0,1.33.33,2.08,2.08,0,0,0,.87-.16.54.54,0,0,0,.33-.52.54.54,0,0,0-.15-.38,1.25,1.25,0,0,0-.62-.26L137,98.88a3.36,3.36,0,0,1-1.73-.77,1.79,1.79,0,0,1-.51-1.32,2,2,0,0,1,.34-1.08,2.54,2.54,0,0,1,1-.82,4.12,4.12,0,0,1,1.71-.31,4.67,4.67,0,0,1,1.83.33,2.69,2.69,0,0,1,1.22,1L139.75,97a2.16,2.16,0,0,0-.81-.75,2.26,2.26,0,0,0-1-.26,2.17,2.17,0,0,0-.67.09.84.84,0,0,0-.42.23.49.49,0,0,0-.14.37.46.46,0,0,0,.19.38,1.8,1.8,0,0,0,.72.28l1.42.29a2.7,2.7,0,0,1,1.49.71,1.72,1.72,0,0,1,.45,1.2,2.06,2.06,0,0,1-.36,1.19,2.39,2.39,0,0,1-1.05.83A4.28,4.28,0,0,1,137.83,101.86Z"/><path class="cls-6" d="M143.06,99.69a1.25,1.25,0,0,1,.87.29,1,1,0,0,1,.32.79,1,1,0,0,1-.32.79,1.44,1.44,0,0,1-1.73,0,1,1,0,0,1-.33-.79,1,1,0,0,1,.33-.79A1.24,1.24,0,0,1,143.06,99.69Zm1-7.21v3.36l-.24,2.9h-1.54l-.23-2.9V92.48Z"/></g><path class="cls-6" d="M63.71,46.68v.16a2,2,0,0,0,2,2h.24c1.22,0,2.1-.68,2.1-1.64,0-.7-.38-1.27-1.51-1.73l-1.66-.65c-1.84-.72-2.8-1.64-2.8-3.06,0-1.94,1.79-3.19,4-3.19s3.67,1,3.8,2.78l-2.16.26v-.18a1.94,1.94,0,0,0-3.83-.24c0,.61.37,1.29,1.77,1.84l1.77.68c1.71.67,2.54,1.57,2.54,2.88,0,2.16-2,3.34-4.29,3.34s-4.1-1-4.1-3Zm9.21-2.2c.26,2.51,1.79,3.73,3.6,3.73a4.52,4.52,0,0,0,3.34-1.4A3.76,3.76,0,0,1,75.93,50C73.16,50,71,47.67,71,44.46c0-3,1.76-5.86,5.06-5.86,2,0,4,1.2,4,3.45a1.62,1.62,0,0,1,0,.44Zm0-1.64h4.91c0-2.4-1.07-3.15-2.16-3.15s-2.49.79-2.73,3.15Zm10,1.64c.27,2.51,1.79,3.73,3.61,3.73a4.52,4.52,0,0,0,3.34-1.4A3.74,3.74,0,0,1,86,50c-2.78,0-4.94-2.29-4.94-5.5,0-3,1.77-5.86,5.07-5.86,2,0,4,1.2,4,3.45a3.23,3.23,0,0,1,0,.44Zm0-1.64h4.91c0-2.4-1.07-3.15-2.16-3.15s-2.42.79-2.67,3.15Zm17.55,6.9h-1.9V48.1A4,4,0,0,1,95.5,50c-2.25,0-4.35-1.88-4.35-5.37s2.16-6,5.18-6a5.66,5.66,0,0,1,2.33.48V34.45l1.9-.28Zm-1.9-2.14V40.83a3.21,3.21,0,0,0-2.4-1.11c-1.55,0-3.12,1.22-3.12,4.28,0,2.47,1.13,4.39,3.36,4.39a3.47,3.47,0,0,0,2.25-.79Zm5.29-.92v.16a2,2,0,0,0,2,2h.24c1.22,0,2.09-.68,2.09-1.64,0-.7-.37-1.27-1.5-1.73L105,44.82c-1.84-.72-2.8-1.64-2.8-3.06,0-1.94,1.79-3.19,4-3.19s3.67,1,3.8,2.78l-2.16.26v-.18a1.93,1.93,0,0,0-3.82-.24c0,.61.37,1.29,1.77,1.84l1.77.68c1.7.67,2.53,1.57,2.53,2.88,0,2.16-2,3.34-4.28,3.34s-4.1-1-4.1-3Zm8.71.38a1.39,1.39,0,1,0,.09,0Z"/><path class="cls-4" d="M47.59,43.58l.24-.11c-.07,0-.14-.09-.21-.15Z"/><path class="cls-4" d="M57,39a6.21,6.21,0,0,0-8.53,2,6.28,6.28,0,0,0-.77,1.9,3.85,3.85,0,0,0,.52.38q.33-.14.66-.24h0a6.36,6.36,0,0,1,1.89-.28A6.61,6.61,0,0,1,54.66,44,6.19,6.19,0,0,0,57,39Z"/><path class="cls-7" d="M56.17,46.25a6.18,6.18,0,0,0-7.54-2.7,6.83,6.83,0,0,1,2.64,3.13l.1.26a6.66,6.66,0,0,1,.43,2.25v.31h0v.63a6.49,6.49,0,0,0,2,.32,6.23,6.23,0,0,0,3.2-.92A6.08,6.08,0,0,0,56.17,46.25Z"/><path class="cls-4" d="M48.16,44.92l-.25.12.21.15A2.51,2.51,0,0,0,48.16,44.92Z"/><path class="cls-4" d="M48.05,45.6a3.94,3.94,0,0,0-.53-.38c-.15.06-.31.13-.47.18h0a6.59,6.59,0,0,1-6-.9,6.15,6.15,0,0,0-1.5,1.75,6.08,6.08,0,0,0-.83,3.28,6.22,6.22,0,0,0,3.25.92,6.13,6.13,0,0,0,4.27-1.71A6.24,6.24,0,0,0,48.05,45.6Z"/><path class="cls-7" d="M47.12,45a6.72,6.72,0,0,1-2.64-3.13h0s-.1-.25-.11-.26h0a6.91,6.91,0,0,1-.43-2.25v-1a6.25,6.25,0,0,0-5.23.6,6.18,6.18,0,0,0,6,6.39A6.1,6.1,0,0,0,47.08,45Z"/><path class="cls-4" d="M50.94,51.87l.1-.25a6.44,6.44,0,0,0,.41-2.13V49.2A6.76,6.76,0,0,0,51,47.07s-.1-.24-.1-.26a6.56,6.56,0,0,0-2.75-3.11,5.21,5.21,0,0,1-1.93-1.94c-.09-.17-.27-.55-.34-.71a5.27,5.27,0,0,1-.34-2,5,5,0,0,1,.45-2,4.52,4.52,0,0,1,.25-.49l.06-.11h0a5.23,5.23,0,0,1,1.53-1.61,5.22,5.22,0,0,1,1.62,1.75,5.47,5.47,0,0,1,.66,2.12,5.5,5.5,0,0,1,1.2-.63,6.46,6.46,0,0,0-1-2.46,6.35,6.35,0,0,0-2.2-2.08l-.26-.15h-.12l-.26.15a6.39,6.39,0,0,0-2.74,3.11l-.1.25A6.28,6.28,0,0,0,44.3,39v.29a6.2,6.2,0,0,0,.41,2.13,2,2,0,0,0,.1.26,6.48,6.48,0,0,0,2.74,3.11,5.14,5.14,0,0,1,1.93,1.94,6.59,6.59,0,0,1,.34.71,5.23,5.23,0,0,1-.1,4l-.25.48-.06.11h0a5.23,5.23,0,0,1-1.53,1.61,5.12,5.12,0,0,1-1.62-1.75,5.27,5.27,0,0,1-.64-2,11.27,11.27,0,0,1-1.2.61A7,7,0,0,0,47.56,55l.26.14h.06l.26-.15A6.49,6.49,0,0,0,50.94,51.87Z"/><g class="cls-8"><path class="cls-9" d="M226,26.16c23.49-73.65,87-129.25,168.55-142.37A211.69,211.69,0,0,1,598-33.67,211.67,211.67,0,0,1,430.69,108.5C349.15,121.61,271.4,88.73,226,26.16Z"/><path class="cls-10" d="M275.07,153.14C269.14,76.06,307.08.65,377.71-42.17a211.68,211.68,0,0,1,219.53,0A211.65,211.65,0,0,1,495.7,152.45C425.08,195.27,340.67,194,275.07,153.14Z"/><path class="cls-11" d="M364.56,243.83c-34.1-69.38-26.84-153.48,22.85-219.44A211.66,211.66,0,0,1,591.27-57.08a211.63,211.63,0,0,1-22.08,218.42C519.49,227.3,440.65,257.47,364.56,243.83Z"/></g><polyline class="cls-12" points="301.66 154.47 317.73 173.64 339.17 141.36"/><circle class="cls-12" cx="321.5" cy="157.5" r="35.5"/></svg>