<svg xmlns="http://www.w3.org/2000/svg" viewBox="0 0 157 60"><defs><style>.cls-1{fill:#e9edd9;}.cls-2{fill:#2b4835;}</style></defs><title>Risorsa 112</title><g id="Livello_2" data-name="Livello 2"><g id="Livello_1-2" data-name="Livello 1"><rect class="cls-1" width="157" height="60" rx="8.77" ry="8.77"/><path class="cls-2" d="M44.46,24.41a4.23,4.23,0,0,1,1.82.36,2.7,2.7,0,0,1,1.17,1,3.32,3.32,0,0,1,0,3.21,2.69,2.69,0,0,1-1.17,1,4.23,4.23,0,0,1-1.82.36H42.51v3.28H40.58V24.41Zm-.29,4.44a2,2,0,0,0,1.3-.37,1.58,1.58,0,0,0,0-2.18,2,2,0,0,0-1.3-.36H42.51v2.91Z"/><path class="cls-2" d="M53.42,29.19a1.26,1.26,0,0,0-.34-.94,1.24,1.24,0,0,0-.9-.34,1.58,1.58,0,0,0-.91.27,1.55,1.55,0,0,0-.57.88L49,28.56a2.53,2.53,0,0,1,1-1.48,3.73,3.73,0,0,1,2.16-.56,4.15,4.15,0,0,1,1.61.29,2.34,2.34,0,0,1,1.07.86,2.53,2.53,0,0,1,.39,1.44v2.84q0,.53.5.53a1.4,1.4,0,0,0,.45-.07l-.11,1.19a2,2,0,0,1-.91.18,2.21,2.21,0,0,1-.88-.17,1.36,1.36,0,0,1-.62-.51,1.54,1.54,0,0,1-.22-.86v-.06l.34-.06a1.58,1.58,0,0,1-.46.9,2.53,2.53,0,0,1-.92.57,3.25,3.25,0,0,1-1.11.2,3.18,3.18,0,0,1-1.23-.22,1.73,1.73,0,0,1-.8-.64,1.83,1.83,0,0,1-.28-1,1.72,1.72,0,0,1,.5-1.28A2.74,2.74,0,0,1,51,29.94l2.63-.53V30.6l-1.68.34a2.12,2.12,0,0,0-.72.26.58.58,0,0,0-.25.53.61.61,0,0,0,.26.53,1,1,0,0,0,.62.18,2.34,2.34,0,0,0,.57-.07,1.54,1.54,0,0,0,.5-.22,1,1,0,0,0,.35-.42,1.5,1.5,0,0,0,.13-.64Z"/><path class="cls-2" d="M63.61,26.65l-2.83,7.43A5.84,5.84,0,0,1,60,35.6a2.51,2.51,0,0,1-1,.81,3,3,0,0,1-1.28.25,3.55,3.55,0,0,1-1-.13,3.17,3.17,0,0,1-.79-.34l.41-1.39a1.73,1.73,0,0,0,.56.3,2.28,2.28,0,0,0,.67.09,1.32,1.32,0,0,0,.68-.17,1.28,1.28,0,0,0,.48-.67l.24-.6-.77-1.82-2.14-5.28h2.13l1.33,4.2.36,1.4.43-1.48,1.27-4.12Z"/><path class="cls-2" d="M77.37,26.65h2l-2.24,7H75l-1.53-4.76L72,33.65H69.76l-2.24-7h2L71,32l1.55-5.36h1.9L76,32Z"/><path class="cls-2" d="M81.57,25.64a1.32,1.32,0,0,1-.9-.26,1,1,0,0,1-.29-.76,1,1,0,0,1,.29-.78,1.68,1.68,0,0,1,1.79,0,1,1,0,0,1,.29.78,1,1,0,0,1-.29.76A1.33,1.33,0,0,1,81.57,25.64Zm1,1v7H80.61v-7Z"/><path class="cls-2" d="M89.27,26.65v1.43H83.83V26.65ZM87,24.51v6.86a.94.94,0,0,0,.26.74,1,1,0,0,0,.71.23,1.65,1.65,0,0,0,.62-.1,1.67,1.67,0,0,0,.47-.29l.31,1.27a2.54,2.54,0,0,1-.84.42,3.62,3.62,0,0,1-1.06.15,3.38,3.38,0,0,1-1.24-.21,1.71,1.71,0,0,1-.84-.67,2.22,2.22,0,0,1-.3-1.23V25Z"/><path class="cls-2" d="M90.69,33.65V23.59H92.6v4.26a2.27,2.27,0,0,1,.92-1,2.68,2.68,0,0,1,1.33-.33,2.89,2.89,0,0,1,1.29.28,2.1,2.1,0,0,1,.9.85,2.8,2.8,0,0,1,.33,1.42v4.59H95.46v-4a1.74,1.74,0,0,0-.35-1.25,1.23,1.23,0,0,0-.9-.34,1.69,1.69,0,0,0-.78.19,1.42,1.42,0,0,0-.6.62A2.37,2.37,0,0,0,92.6,30v3.7Z"/><path class="cls-2" d="M107.21,24.27a5.29,5.29,0,0,1,2.21.43A4.34,4.34,0,0,1,111,26L110,27.24a3.82,3.82,0,0,0-1.25-1.07,3.45,3.45,0,0,0-1.58-.34,2.64,2.64,0,0,0-1,.15,1.2,1.2,0,0,0-.56.41,1,1,0,0,0-.17.56.82.82,0,0,0,.29.64,2.39,2.39,0,0,0,1,.43l1.72.39a3.92,3.92,0,0,1,2,.92,2.16,2.16,0,0,1,.59,1.58,2.57,2.57,0,0,1-.48,1.56,3,3,0,0,1-1.33,1,5.23,5.23,0,0,1-2,.34,6.4,6.4,0,0,1-1.77-.23,5.38,5.38,0,0,1-1.43-.64,4.27,4.27,0,0,1-1-.94l1.09-1.3a3.59,3.59,0,0,0,.8.8A3.88,3.88,0,0,0,106,32a4,4,0,0,0,1.28.2,3.09,3.09,0,0,0,1-.13,1.29,1.29,0,0,0,.6-.38.9.9,0,0,0,.2-.59.88.88,0,0,0-.25-.62,1.76,1.76,0,0,0-.9-.4L106,29.69a5.76,5.76,0,0,1-1.39-.51,2.12,2.12,0,0,1-1.18-2,2.58,2.58,0,0,1,.45-1.48,3,3,0,0,1,1.29-1A4.89,4.89,0,0,1,107.21,24.27Z"/><path class="cls-2" d="M115.9,33.79a4.06,4.06,0,0,1-1.92-.43,3,3,0,0,1-1.27-1.25,4.51,4.51,0,0,1,0-3.92A3.06,3.06,0,0,1,114,26.95a3.82,3.82,0,0,1,1.84-.43,3.56,3.56,0,0,1,1.81.43,2.88,2.88,0,0,1,1.13,1.16,3.5,3.5,0,0,1,.39,1.67c0,.19,0,.36,0,.53s0,.32,0,.45h-5.59V29.42h4.75l-.92.34a2.06,2.06,0,0,0-.4-1.36,1.39,1.39,0,0,0-1.13-.48,1.64,1.64,0,0,0-.92.25,1.52,1.52,0,0,0-.58.75,3.44,3.44,0,0,0-.2,1.25,3,3,0,0,0,.22,1.22,1.54,1.54,0,0,0,.62.72,2.12,2.12,0,0,0,2,0,1.61,1.61,0,0,0,.59-.66l1.53.59a2.45,2.45,0,0,1-.68.94,3.09,3.09,0,0,1-1.08.59A4.27,4.27,0,0,1,115.9,33.79Z"/><path class="cls-2" d="M124,33.79a4.06,4.06,0,0,1-1.92-.43,3,3,0,0,1-1.27-1.25,4.51,4.51,0,0,1,0-3.92,3.06,3.06,0,0,1,1.25-1.25,3.82,3.82,0,0,1,1.84-.43,3.56,3.56,0,0,1,1.81.43,2.88,2.88,0,0,1,1.13,1.16,3.5,3.5,0,0,1,.39,1.67c0,.19,0,.36,0,.53s0,.32,0,.45H121.6V29.42h4.75l-.92.34a2.06,2.06,0,0,0-.4-1.36,1.39,1.39,0,0,0-1.13-.48,1.64,1.64,0,0,0-.92.25,1.52,1.52,0,0,0-.58.75,3.44,3.44,0,0,0-.2,1.25,3,3,0,0,0,.22,1.22,1.54,1.54,0,0,0,.62.72,2.12,2.12,0,0,0,2,0,1.61,1.61,0,0,0,.59-.66l1.53.59a2.45,2.45,0,0,1-.68.94,3.09,3.09,0,0,1-1.08.59A4.27,4.27,0,0,1,124,33.79Z"/><path class="cls-2" d="M131.51,33.79a2.81,2.81,0,0,1-1.55-.43,2.92,2.92,0,0,1-1.06-1.25,4.51,4.51,0,0,1-.38-1.95,4.41,4.41,0,0,1,.41-2,3,3,0,0,1,1.1-1.25,2.91,2.91,0,0,1,1.56-.43,2.22,2.22,0,0,1,1.53.53,2.49,2.49,0,0,1,.78,1.37l-.18.22V23.59h1.92V33.65H133.9l-.13-2.13.22.11a2.44,2.44,0,0,1-.43,1.14,2.39,2.39,0,0,1-.88.75A2.6,2.6,0,0,1,131.51,33.79Zm.56-1.47a1.46,1.46,0,0,0,.87-.26,1.68,1.68,0,0,0,.57-.76,3.23,3.23,0,0,0,.2-1.2,3,3,0,0,0-.2-1.14,1.6,1.6,0,0,0-.56-.72,1.46,1.46,0,0,0-.85-.25,1.48,1.48,0,0,0-1.23.55,2.55,2.55,0,0,0-.44,1.62,2.58,2.58,0,0,0,.43,1.62A1.45,1.45,0,0,0,132.07,32.32Z"/><path class="cls-2" d="M140.44,33.79a4.84,4.84,0,0,1-1.94-.38,3.6,3.6,0,0,1-1.42-1.06l1.11-1.12a2.58,2.58,0,0,0,2.23,1.15,2,2,0,0,0,.88-.16.56.56,0,0,0,.17-.9,1.23,1.23,0,0,0-.62-.26l-1.23-.25a3.42,3.42,0,0,1-1.73-.76,1.79,1.79,0,0,1-.51-1.32,1.88,1.88,0,0,1,.34-1.08,2.43,2.43,0,0,1,1-.82,4.09,4.09,0,0,1,1.71-.31,4.66,4.66,0,0,1,1.83.33,2.76,2.76,0,0,1,1.22,1l-1.15,1.12a2.06,2.06,0,0,0-.8-.75,2.22,2.22,0,0,0-1-.26,2.33,2.33,0,0,0-.67.08.94.94,0,0,0-.42.23.51.51,0,0,0-.14.37.48.48,0,0,0,.2.38,1.79,1.79,0,0,0,.71.27l1.43.29a2.66,2.66,0,0,1,1.48.71,1.72,1.72,0,0,1,.45,1.2,2.08,2.08,0,0,1-.36,1.2,2.36,2.36,0,0,1-1,.83A4.26,4.26,0,0,1,140.44,33.79Z"/><path class="cls-2" d="M21.72,30.1,26,27.65v1.83l-3.76,2.17a11.15,11.15,0,0,1,3.67,8.13c0,6.93-6.45,10.24-6.73,10.37a.79.79,0,0,1-.71,0c-.25-.12-5.56-2.85-6.56-8.5l1.48-.86c.51,4.44,4.25,7,5.44,7.74,1.27-.76,5.5-3.69,5.5-8.75a9.82,9.82,0,0,0-3.53-7.3l-9,5.2V35.86l5.83-3.36ZM17,27.93a9.92,9.92,0,0,1-3.74-7.47c0-5.07,4.23-8,5.5-8.75,1.21.72,5.07,3.4,5.46,8l1.49-.86c-.89-5.83-6.35-8.63-6.6-8.76a.79.79,0,0,0-.71,0c-.27.14-6.73,3.45-6.73,10.37a11.23,11.23,0,0,0,3.86,8.32L11.74,31v1.83l4.5-2.6,3.32-1.92L26,24.6V22.77Z"/></g></g></svg>