<svg xmlns="http://www.w3.org/2000/svg" viewBox="0 0 165 60"><defs><style>.cls-1{fill:#2ff141;}.cls-2,.cls-4{fill:#2b4835;}.cls-3,.cls-4{opacity:0.6;}</style></defs><title>Risorsa 112</title><g id="Livello_2" data-name="Livello 2"><g id="Livello_1-2" data-name="Livello 1"><rect class="cls-1" width="165" height="60" rx="12" ry="12"/><path class="cls-2" d="M65.81,24.22v7.51a4.53,4.53,0,0,1-1.21,3.35,4.62,4.62,0,0,1-3.42,1.21,5.07,5.07,0,0,1-2.57-.58,3,3,0,0,1-1.37-1.62,4.64,4.64,0,0,1-.14-2.39l2.41-.43a3.72,3.72,0,0,0,.2,2.29,1.63,1.63,0,0,0,1.53.7,1.78,1.78,0,0,0,1.63-.72,4,4,0,0,0,.46-2.14V24.22Z"/><path class="cls-2" d="M72,26.92a5,5,0,0,1,2.4.56A4,4,0,0,1,76,29.08a5.7,5.7,0,0,1,0,5,4,4,0,0,1-1.62,1.61,5.44,5.44,0,0,1-4.8,0,4,4,0,0,1-1.63-1.61,5.7,5.7,0,0,1,0-5,4,4,0,0,1,1.63-1.6A5,5,0,0,1,72,26.92Zm0,1.84a2.06,2.06,0,0,0-1.16.31,2,2,0,0,0-.73.95,5.11,5.11,0,0,0,0,3.17,2,2,0,0,0,.73.95,2.06,2.06,0,0,0,1.16.31,2,2,0,0,0,1.14-.31,2,2,0,0,0,.73-.95,5.11,5.11,0,0,0,0-3.17,2,2,0,0,0-.73-.95A2,2,0,0,0,72,28.76Z"/><path class="cls-2" d="M79.33,25.81a1.71,1.71,0,0,1-1.15-.33,1.24,1.24,0,0,1-.38-1,1.26,1.26,0,0,1,.38-1,2.16,2.16,0,0,1,2.3,0,1.26,1.26,0,0,1,.38,1,1.24,1.24,0,0,1-.38,1A1.71,1.71,0,0,1,79.33,25.81Zm1.22,1.3v9H78.09v-9Z"/><path class="cls-2" d="M82.63,36.1v-9h2.21L85,29.8l-.31-.29a3.58,3.58,0,0,1,.68-1.45,3,3,0,0,1,1.14-.85,4,4,0,0,1,3.15.07,2.69,2.69,0,0,1,1.15,1.09,3.6,3.6,0,0,1,.42,1.83v5.9H88.76V30.9a2.21,2.21,0,0,0-.45-1.59,1.6,1.6,0,0,0-1.17-.44,2.13,2.13,0,0,0-1,.24,1.84,1.84,0,0,0-.77.78,3,3,0,0,0-.3,1.44V36.1Z"/><path class="cls-2" d="M102.79,24a6.8,6.8,0,0,1,2.84.56,5.57,5.57,0,0,1,2.09,1.66l-1.39,1.6a4.88,4.88,0,0,0-1.61-1.38,4.44,4.44,0,0,0-2-.44,3.4,3.4,0,0,0-1.25.2,1.54,1.54,0,0,0-.72.52,1.23,1.23,0,0,0-.23.72,1.05,1.05,0,0,0,.38.82,3.09,3.09,0,0,0,1.3.55l2.21.5a5,5,0,0,1,2.53,1.18,2.77,2.77,0,0,1,.77,2,3.3,3.3,0,0,1-.61,2,3.83,3.83,0,0,1-1.71,1.28,6.72,6.72,0,0,1-2.52.44,8.23,8.23,0,0,1-2.28-.3,6.9,6.9,0,0,1-1.84-.82A5.5,5.5,0,0,1,97.37,34l1.4-1.67a4.59,4.59,0,0,0,1,1,5,5,0,0,0,1.39.71,5.18,5.18,0,0,0,1.65.26,4,4,0,0,0,1.25-.17,1.65,1.65,0,0,0,.77-.49,1.16,1.16,0,0,0,.26-.77,1.13,1.13,0,0,0-.31-.8,2.26,2.26,0,0,0-1.16-.51L101.24,31a7.42,7.42,0,0,1-1.79-.66,2.73,2.73,0,0,1-1.52-2.57,3.31,3.31,0,0,1,.58-1.91,3.92,3.92,0,0,1,1.67-1.34A6.32,6.32,0,0,1,102.79,24Z"/><path class="cls-2" d="M109.5,36.1V24.22h8.91v2H112v3H117v1.91H112v3h6.68v2Z"/><path class="cls-2" d="M120.35,36.1V24.22h8.91v2h-6.43v3h5.06v1.91h-5.06v3h6.68v2Z"/><path class="cls-2" d="M135.8,24.22a5.82,5.82,0,0,1,4.32,1.54,6,6,0,0,1,1.53,4.4,6,6,0,0,1-1.53,4.39,5.8,5.8,0,0,1-4.32,1.55h-4.59V24.22Zm-.13,9.9a3.14,3.14,0,0,0,2.55-1,4.46,4.46,0,0,0,.86-2.94,4.46,4.46,0,0,0-.86-2.94,3.14,3.14,0,0,0-2.55-1h-2v7.92Z"/><path class="cls-2" d="M147.88,24a6.8,6.8,0,0,1,2.84.56,5.57,5.57,0,0,1,2.09,1.66l-1.39,1.6a4.88,4.88,0,0,0-1.61-1.38,4.44,4.44,0,0,0-2-.44,3.4,3.4,0,0,0-1.25.2,1.54,1.54,0,0,0-.72.52,1.23,1.23,0,0,0-.23.72,1.05,1.05,0,0,0,.38.82,3.09,3.09,0,0,0,1.3.55l2.21.5A5,5,0,0,1,152,30.53a2.77,2.77,0,0,1,.77,2,3.3,3.3,0,0,1-.61,2,3.83,3.83,0,0,1-1.71,1.28,6.72,6.72,0,0,1-2.52.44,8.23,8.23,0,0,1-2.28-.3,6.9,6.9,0,0,1-1.84-.82A5.5,5.5,0,0,1,142.46,34l1.4-1.67a4.59,4.59,0,0,0,1,1,5,5,0,0,0,1.39.71,5.18,5.18,0,0,0,1.65.26,4,4,0,0,0,1.25-.17,1.65,1.65,0,0,0,.77-.49,1.16,1.16,0,0,0,.26-.77,1.13,1.13,0,0,0-.31-.8,2.26,2.26,0,0,0-1.16-.51L146.33,31a7.42,7.42,0,0,1-1.79-.66A2.73,2.73,0,0,1,143,27.79a3.31,3.31,0,0,1,.58-1.91,3.92,3.92,0,0,1,1.67-1.34A6.32,6.32,0,0,1,147.88,24Z"/><g class="cls-3"><path class="cls-2" d="M28.55,28.55l.44-.2-.37-.27Q28.58,28.31,28.55,28.55Z"/><path class="cls-2" d="M45.82,20.13a11.37,11.37,0,0,0-17.07,7.22,8.91,8.91,0,0,0,1,.69,12.3,12.3,0,0,1,1.21-.45l.06,0a12.09,12.09,0,0,1,10.55,1.78,11.42,11.42,0,0,0,4.29-9.23Z"/></g><path class="cls-4" d="M44.29,33.45a11.36,11.36,0,0,0-13.84-5,12.47,12.47,0,0,1,4.84,5.73l.19.49a12.5,12.5,0,0,1,.79,4.13v.56h0c0,.39,0,.77-.08,1.15a11.4,11.4,0,0,0,9.6-1.1A11.28,11.28,0,0,0,44.29,33.45Z"/><g class="cls-3"><path class="cls-2" d="M29.59,31l-.46.22.39.28C29.56,31.34,29.58,31.17,29.59,31Z"/><path class="cls-2" d="M29.39,32.25a8.91,8.91,0,0,0-1-.69c-.28.12-.57.24-.86.34h0a12.08,12.08,0,0,1-11-1.65,11.38,11.38,0,0,0-4.28,9.23,11.36,11.36,0,0,0,17.06-7.22Z"/></g><path class="cls-4" d="M27.68,31.1a12.45,12.45,0,0,1-4.84-5.73h0l-.19-.49h0a12.5,12.5,0,0,1-.79-4.13v-.56c0-.39,0-.77.08-1.15a11.36,11.36,0,0,0-9.6,1.1,11.36,11.36,0,0,0,15.35,11Z"/><path class="cls-2" d="M34.69,43.77l.19-.47a11.71,11.71,0,0,0,.75-3.91v-.53A11.9,11.9,0,0,0,34.88,35l-.19-.47a11.85,11.85,0,0,0-5-5.7,9.62,9.62,0,0,1-3.54-3.56c-.17-.31-.5-1-.62-1.31a9.58,9.58,0,0,1,.19-7.35c.12-.26.44-.85.46-.89l.12-.2h0a9.48,9.48,0,0,1,2.81-2.95,9.6,9.6,0,0,1,4.18,7.09,10.37,10.37,0,0,1,2.21-1.15,12.08,12.08,0,0,0-1.77-4.52,11.81,11.81,0,0,0-4-3.82l-.48-.26-.11-.06L29,9.86l-.48.26a11.85,11.85,0,0,0-5,5.7l-.19.47a11.72,11.72,0,0,0-.75,3.91v.53a11.9,11.9,0,0,0,.75,3.91l.19.47a11.85,11.85,0,0,0,5,5.7A9.62,9.62,0,0,1,32,34.38c.17.31.5,1,.62,1.31A9.58,9.58,0,0,1,32.46,43c-.12.26-.44.85-.46.89l-.12.2h0a9.48,9.48,0,0,1-2.81,2.95,9.57,9.57,0,0,1-4.14-6.79,20.64,20.64,0,0,1-2.2,1.11,12,12,0,0,0,1.72,4.26,11.81,11.81,0,0,0,4,3.82l.48.26.11.06.1-.07.48-.26A11.81,11.81,0,0,0,34.69,43.77Z"/></g></g></svg>