<svg xmlns="http://www.w3.org/2000/svg" viewBox="0 0 144 60"><defs><style>.cls-1{fill:#2ff141;}.cls-2{fill:#2b4835;}</style></defs><title>Risorsa 112</title><g id="Livello_2" data-name="Livello 2"><g id="Livello_1-2" data-name="Livello 1"><rect class="cls-1" width="144" height="60" rx="12" ry="12"/><path class="cls-2" d="M75.62,24.8a4.55,4.55,0,0,1-2.83,3.08,6.26,6.26,0,0,1-2.21.38,6,6,0,0,1-3.05-.74,4.93,4.93,0,0,1-2-2.11,7.16,7.16,0,0,1-.69-3.28,7.16,7.16,0,0,1,.69-3.28,4.93,4.93,0,0,1,2-2.11,6,6,0,0,1,3-.74,6.9,6.9,0,0,1,2.21.33,4.26,4.26,0,0,1,1.68,1,4.15,4.15,0,0,1,1,1.72l-2.25,1a2.76,2.76,0,0,0-.94-1.54A2.69,2.69,0,0,0,70.65,18a3.08,3.08,0,0,0-1.7.47,3,3,0,0,0-1.12,1.38,5.61,5.61,0,0,0-.4,2.24,6,6,0,0,0,.37,2.23,2.86,2.86,0,0,0,1.09,1.39,3.16,3.16,0,0,0,1.76.47,2.62,2.62,0,0,0,2.68-2.11Z"/><path class="cls-2" d="M79.92,15.13V25.3a1.37,1.37,0,0,0,.22.88.9.9,0,0,0,.72.25,2.38,2.38,0,0,0,.5,0l.5-.14-.22,1.62a2.59,2.59,0,0,1-.76.28,4.35,4.35,0,0,1-.91.1,2.53,2.53,0,0,1-1.92-.64,2.91,2.91,0,0,1-.6-2V15.13Z"/><path class="cls-2" d="M88.45,22.33A1.61,1.61,0,0,0,88,21.13a1.59,1.59,0,0,0-1.16-.43,2,2,0,0,0-1.17.34,2,2,0,0,0-.74,1.13l-2.11-.65a3.25,3.25,0,0,1,1.34-1.91A4.79,4.79,0,0,1,87,18.9a5.34,5.34,0,0,1,2.07.37,3,3,0,0,1,1.38,1.11,3.26,3.26,0,0,1,.5,1.85v3.65q0,.68.65.68a1.82,1.82,0,0,0,.58-.09L92,28a2.6,2.6,0,0,1-1.17.23A2.86,2.86,0,0,1,89.68,28a1.74,1.74,0,0,1-.79-.66,2,2,0,0,1-.29-1.11v-.07l.43-.07a2,2,0,0,1-.59,1.16,3.24,3.24,0,0,1-1.18.73,4.15,4.15,0,0,1-1.43.25A4.09,4.09,0,0,1,84.24,28a2.22,2.22,0,0,1-1-.82,2.35,2.35,0,0,1-.36-1.33,2.22,2.22,0,0,1,.65-1.65,3.53,3.53,0,0,1,1.85-.87l3.38-.68,0,1.53-2.16.43a2.72,2.72,0,0,0-.93.33.75.75,0,0,0-.32.67.78.78,0,0,0,.33.68,1.36,1.36,0,0,0,.8.23,3,3,0,0,0,.74-.09,2,2,0,0,0,.65-.29,1.32,1.32,0,0,0,.45-.54,1.91,1.91,0,0,0,.16-.83Z"/><path class="cls-2" d="M94.9,17.78a1.71,1.71,0,0,1-1.15-.33,1.24,1.24,0,0,1-.38-1,1.26,1.26,0,0,1,.38-1,2.16,2.16,0,0,1,2.3,0,1.26,1.26,0,0,1,.38,1,1.24,1.24,0,0,1-.38,1A1.71,1.71,0,0,1,94.9,17.78Zm1.22,1.3v9H93.65v-9Z"/><path class="cls-2" d="M98.73,28.08v-9h2.21L101,20.7a3.11,3.11,0,0,1,1.23-1.35A3.43,3.43,0,0,1,104,18.9a3.46,3.46,0,0,1,1.75.45,2.83,2.83,0,0,1,1.18,1.33,2.88,2.88,0,0,1,.77-1,3.41,3.41,0,0,1,1.08-.59,3.79,3.79,0,0,1,1.21-.2,3.6,3.6,0,0,1,1.61.36,2.76,2.76,0,0,1,1.16,1.08,3.53,3.53,0,0,1,.43,1.84v5.9h-2.47V22.66a1.89,1.89,0,0,0-.43-1.4,1.55,1.55,0,0,0-1.12-.41,1.93,1.93,0,0,0-1,.27,1.84,1.84,0,0,0-.72.8,3,3,0,0,0-.26,1.32v4.84h-2.47V22.66a1.87,1.87,0,0,0-.44-1.4,1.58,1.58,0,0,0-1.12-.41,1.91,1.91,0,0,0-.93.25,1.94,1.94,0,0,0-.76.79,3,3,0,0,0-.3,1.42v4.77Z"/><path class="cls-2" d="M70.69,32.2a4.77,4.77,0,0,1,3.17,1,3.6,3.6,0,0,1,0,5.28,4.89,4.89,0,0,1-3.15.93l-.25.14H67.9v4.55H65.45V32.2Zm-.29,5.44A2.41,2.41,0,0,0,72,37.21a1.91,1.91,0,0,0,0-2.61,2.41,2.41,0,0,0-1.56-.42H67.9v3.46Zm1.46.52,3.85,5.92H72.92l-3.19-5.2Z"/><path class="cls-2" d="M81.42,44.25a5.21,5.21,0,0,1-2.47-.56,3.92,3.92,0,0,1-1.63-1.6,5.8,5.8,0,0,1,0-5,4,4,0,0,1,1.61-1.6,4.91,4.91,0,0,1,2.37-.56,4.58,4.58,0,0,1,2.32.55,3.72,3.72,0,0,1,1.46,1.49,4.5,4.5,0,0,1,.5,2.15q0,.36,0,.68c0,.22,0,.41-.05.58H78.32V38.64h6.1l-1.19.43a2.65,2.65,0,0,0-.51-1.75,1.79,1.79,0,0,0-1.45-.61,2.1,2.1,0,0,0-1.18.32,2,2,0,0,0-.75,1,4.41,4.41,0,0,0-.25,1.61,3.87,3.87,0,0,0,.28,1.58,2,2,0,0,0,.79.93,2.73,2.73,0,0,0,2.51,0,2.08,2.08,0,0,0,.76-.85l2,.76a3.16,3.16,0,0,1-.87,1.21,4,4,0,0,1-1.39.76A5.53,5.53,0,0,1,81.42,44.25Z"/><path class="cls-2" d="M99,35.08h2.63l-2.88,9H95.92L94,38l-1.89,6.12H89.23l-2.88-9H89L90.78,42l2-6.89h2.45l2,6.89Z"/><path class="cls-2" d="M108.16,38.33a1.61,1.61,0,0,0-.44-1.21,1.59,1.59,0,0,0-1.16-.43,2,2,0,0,0-1.17.34,2,2,0,0,0-.74,1.13l-2.11-.65a3.25,3.25,0,0,1,1.34-1.91,4.79,4.79,0,0,1,2.78-.72,5.34,5.34,0,0,1,2.07.37,3,3,0,0,1,1.38,1.11,3.26,3.26,0,0,1,.5,1.85v3.65q0,.68.65.68a1.82,1.82,0,0,0,.58-.09L111.69,44a2.6,2.6,0,0,1-1.17.23,2.86,2.86,0,0,1-1.13-.22,1.74,1.74,0,0,1-.79-.66,2,2,0,0,1-.29-1.11v-.07l.43-.07a2,2,0,0,1-.59,1.16A3.24,3.24,0,0,1,107,44a4.15,4.15,0,0,1-1.43.25A4.09,4.09,0,0,1,104,44a2.22,2.22,0,0,1-1-.82,2.35,2.35,0,0,1-.36-1.33,2.22,2.22,0,0,1,.65-1.65,3.53,3.53,0,0,1,1.85-.87l3.38-.68,0,1.53-2.16.43a2.72,2.72,0,0,0-.93.33.75.75,0,0,0-.32.67.78.78,0,0,0,.33.68,1.36,1.36,0,0,0,.8.23,3,3,0,0,0,.74-.09,2,2,0,0,0,.65-.29,1.32,1.32,0,0,0,.45-.54,1.91,1.91,0,0,0,.16-.83Z"/><path class="cls-2" d="M113.36,44.08v-9h2.14l.16,1.76a3.1,3.1,0,0,1,1.05-1.44,2.88,2.88,0,0,1,1.74-.5,2.66,2.66,0,0,1,.56.05,1.53,1.53,0,0,1,.41.14l-.29,2.07a1.88,1.88,0,0,0-.44-.11,5,5,0,0,0-.67,0,2.24,2.24,0,0,0-1,.26,2.09,2.09,0,0,0-.83.79,2.54,2.54,0,0,0-.32,1.34v4.66Z"/><path class="cls-2" d="M124.18,44.25a3.61,3.61,0,0,1-2-.56,3.75,3.75,0,0,1-1.37-1.6,5.79,5.79,0,0,1-.5-2.5,5.68,5.68,0,0,1,.52-2.55,3.8,3.8,0,0,1,1.41-1.6,3.74,3.74,0,0,1,2-.55,2.85,2.85,0,0,1,2,.68,3.19,3.19,0,0,1,1,1.76l-.23.29v-6.5h2.47V44.08h-2.21l-.16-2.74.29.14a3.13,3.13,0,0,1-.56,1.47,3.08,3.08,0,0,1-1.13,1A3.34,3.34,0,0,1,124.18,44.25Zm.72-1.89A1.88,1.88,0,0,0,126,42a2.15,2.15,0,0,0,.73-1A4.14,4.14,0,0,0,127,39.5a3.82,3.82,0,0,0-.25-1.47,2.06,2.06,0,0,0-.72-.93,1.88,1.88,0,0,0-1.1-.32,1.9,1.9,0,0,0-1.58.71,3.28,3.28,0,0,0-.57,2.08,3.31,3.31,0,0,0,.56,2.08A1.86,1.86,0,0,0,124.9,42.37Z"/><path class="cls-2" d="M33.55,30.24l3-1.74v1.3l-2.67,1.54a7.92,7.92,0,0,1,2.6,5.78c0,4.92-4.58,7.27-4.78,7.37a.56.56,0,0,1-.5,0c-.18-.09-3.95-2-4.66-6l1.05-.61a7.9,7.9,0,0,0,3.86,5.5c.9-.54,3.9-2.62,3.9-6.22a7,7,0,0,0-2.51-5.18l-6.4,3.69v-1.3l4.14-2.39ZM30.22,28.7a7,7,0,0,1-2.65-5.31c0-3.6,3-5.68,3.9-6.22.86.51,3.6,2.41,3.88,5.69l1.06-.61c-.63-4.14-4.51-6.13-4.69-6.22a.56.56,0,0,0-.5,0c-.2.1-4.78,2.45-4.78,7.37a8,8,0,0,0,2.74,5.91l-2.71,1.57v1.3l3.2-1.85L32,29l4.55-2.62V25Z"/><path class="cls-2" d="M19.5,14.88a19.46,19.46,0,0,1,24.38.33l-1.41,1.35L47.27,18l-1.2-4.84-1.46,1.4A20.49,20.49,0,0,0,11.47,34.64l1-.21A19.62,19.62,0,0,1,19.5,14.88Z"/><path class="cls-2" d="M51.29,24.9l-1,.26A19.49,19.49,0,0,1,19.11,45.3l1.41-1.35-4.79-1.38,1.2,4.84L18.39,46A20.49,20.49,0,0,0,51.29,24.9Z"/></g></g></svg>