<svg xmlns="http://www.w3.org/2000/svg" viewBox="0 0 55 55"><defs><style>.cls-1{fill:#2b4835;}.cls-2{fill:#f2f5ec;}.cls-3{fill:none;stroke:#2ff141;stroke-miterlimit:10;}.cls-4{fill:#2ff141;}</style></defs><title>Risorsa 1212</title><g id="Livello_2" data-name="Livello 2"><g id="contents"><circle class="cls-1" cx="27.5" cy="27.5" r="27.5"/><path class="cls-2" d="M29.8,26.59l3.08-1.78v1.33l-2.73,1.58a8.09,8.09,0,0,1,2.66,5.9c0,5-4.68,7.43-4.88,7.53a.58.58,0,0,1-.52,0c-.18-.09-4-2.07-4.76-6.17l1.08-.62c.37,3.23,3.09,5.1,3.95,5.62.92-.55,4-2.67,4-6.35a7.13,7.13,0,0,0-2.57-5.3L22.55,32.1V30.77l4.23-2.44ZM26.39,25a7.2,7.2,0,0,1-2.71-5.42c0-3.68,3.07-5.8,4-6.35.87.53,3.68,2.47,4,5.81l1.08-.63c-.64-4.23-4.61-6.27-4.79-6.36a.58.58,0,0,0-.52,0c-.2.1-4.88,2.5-4.88,7.53a8.15,8.15,0,0,0,2.8,6l-2.77,1.6v1.33l3.27-1.89,2.41-1.39,4.64-2.68V21.27Z"/><path class="cls-3" d="M5.69,33.48A22,22,0,0,1,41.32,11.29"/><polygon class="cls-4" points="39.02 12.61 43.84 13.85 42.51 9.05 39.02 12.61"/><path class="cls-3" d="M48,21.49A22,22,0,0,1,12.68,44.71"/><polygon class="cls-4" points="14.98 43.39 10.15 42.15 11.49 46.95 14.98 43.39"/></g></g></svg>