<svg xmlns="http://www.w3.org/2000/svg" viewBox="0 0 57 57"><defs><style>.cls-1{fill:#2b4835;stroke:#2ff141;stroke-miterlimit:10;stroke-width:2px;}.cls-2,.cls-4{opacity:0.6;}.cls-3,.cls-4{fill:#2ff141;}</style></defs><title>Risorsa 312</title><g id="Livello_2" data-name="Livello 2"><g id="contents"><circle class="cls-1" cx="28.5" cy="28.5" r="27.5"/><g class="cls-2"><path class="cls-3" d="M28.38,26.93l.45-.21-.39-.28Q28.4,26.69,28.38,26.93Z"/><path class="cls-3" d="M46.3,18.19a11.8,11.8,0,0,0-17.72,7.5,9.25,9.25,0,0,0,1,.72,12.78,12.78,0,0,1,1.25-.46l.07,0a12.56,12.56,0,0,1,11,1.85,11.86,11.86,0,0,0,4.45-9.58Z"/></g><path class="cls-4" d="M44.73,32a11.79,11.79,0,0,0-14.37-5.14,12.94,12.94,0,0,1,5,6l.2.51a13,13,0,0,1,.82,4.28v.58h0c0,.4,0,.8-.08,1.2a11.83,11.83,0,0,0,10-1.14A11.71,11.71,0,0,0,44.73,32Z"/><g class="cls-2"><path class="cls-3" d="M29.46,29.48l-.47.23.4.29C29.42,29.83,29.44,29.66,29.46,29.48Z"/><path class="cls-3" d="M29.25,30.77a9.25,9.25,0,0,0-1-.72c-.29.13-.59.24-.9.35h0A12.55,12.55,0,0,1,16,28.69a11.81,11.81,0,0,0-4.45,9.58,11.79,11.79,0,0,0,17.72-7.5Z"/></g><path class="cls-4" d="M27.48,29.58a12.93,12.93,0,0,1-5-6h0l-.2-.51h0a13,13,0,0,1-.82-4.28v-.58c0-.4,0-.8.08-1.2a11.8,11.8,0,0,0-10,1.14A11.79,11.79,0,0,0,27.48,29.58Z"/><path class="cls-3" d="M34.75,42.74l.2-.49a12.16,12.16,0,0,0,.78-4.06v-.55A12.36,12.36,0,0,0,35,33.58l-.2-.49a12.3,12.3,0,0,0-5.23-5.92,10,10,0,0,1-3.68-3.7c-.18-.33-.52-1.07-.64-1.36a9.95,9.95,0,0,1,.2-7.63c.13-.27.45-.89.47-.93l.12-.21h0a9.84,9.84,0,0,1,2.92-3.06,10,10,0,0,1,4.34,7.36,10.77,10.77,0,0,1,2.3-1.19,12.55,12.55,0,0,0-1.83-4.69,12.26,12.26,0,0,0-4.19-4L29,7.52l-.11-.06-.11.06-.5.27a12.3,12.3,0,0,0-5.23,5.92l-.2.49a12.17,12.17,0,0,0-.78,4.06v.55a12.36,12.36,0,0,0,.78,4.06l.2.49a12.3,12.3,0,0,0,5.23,5.92A10,10,0,0,1,32,33c.18.33.52,1.07.64,1.36a9.95,9.95,0,0,1-.2,7.63c-.13.27-.45.89-.47.93l-.12.21h0a9.84,9.84,0,0,1-2.92,3.06,9.94,9.94,0,0,1-4.3-7,21.43,21.43,0,0,1-2.28,1.15,12.51,12.51,0,0,0,1.79,4.43,12.26,12.26,0,0,0,4.19,4l.5.27.11.06.1-.07.5-.27A12.26,12.26,0,0,0,34.75,42.74Z"/></g></g></svg>