<svg xmlns="http://www.w3.org/2000/svg" viewBox="0 0 56.5 56.5"><defs><style>.cls-1{fill:#2ff141;stroke:#2b4835;stroke-miterlimit:10;stroke-width:1.5px;}.cls-2{fill:#2b4835;}</style></defs><title>Risorsa 912</title><g id="Livello_2" data-name="Livello 2"><g id="contents"><circle class="cls-1" cx="28.25" cy="28.25" r="27.5"/><path class="cls-2" d="M31.12,28.33,35,26.07v1.69l-3.48,2A10.31,10.31,0,0,1,35,37.29c0,6.4-6,9.46-6.22,9.59a.73.73,0,0,1-.66,0c-.23-.12-5.14-2.63-6.07-7.86l1.37-.79c.47,4.11,3.93,6.5,5,7.16,1.17-.7,5.08-3.41,5.08-8.09a9.08,9.08,0,0,0-3.27-6.75l-8.33,4.81V33.66l5.39-3.11Zm-4.34-2a9.17,9.17,0,0,1-3.45-6.91c0-4.69,3.91-7.39,5.08-8.09,1.11.67,4.69,3.14,5,7.4l1.38-.8c-.82-5.39-5.87-8-6.1-8.1a.73.73,0,0,0-.66,0c-.25.13-6.22,3.19-6.22,9.59a10.38,10.38,0,0,0,3.57,7.69l-3.53,2v1.69l4.16-2.4,3.07-1.77L35,23.25V21.56Z"/></g></g></svg>