<svg xmlns="http://www.w3.org/2000/svg" viewBox="0 0 2130 4440"><defs><style>.cls-1{fill:#e8ecd8;}.cls-2{fill:#f2f5ec;}.cls-3{fill:#e8ecd7;}</style></defs><title>Risorsa 1</title><g id="Livello_2" data-name="Livello 2"><g id="Livello_2-2" data-name="Livello 2"><rect class="cls-1" width="2130" height="4440" rx="304.24"/><rect class="cls-2" x="642" y="3424" width="846" height="846"/><rect class="cls-2" y="2123" width="2130" height="1128"/><path class="cls-2" d="M1054.93,1027.79c2.82-1.31,5.55-2.62,8.37-3.83-2.42-1.72-4.84-3.43-7.16-5.25Q1055.38,1023.26,1054.93,1027.79Z"/><path class="cls-2" d="M1387.07,865.7a218.44,218.44,0,0,0-114.88-32.58c-104.09,0-191.84,72.93-213.53,171.47a171.94,171.94,0,0,0,18.46,13.32,235.34,235.34,0,0,1,23.2-8.58,6.79,6.79,0,0,0,1.21-.4,232.75,232.75,0,0,1,203,34.29,219.76,219.76,0,0,0,82.5-177.52Z"/><path class="cls-2" d="M1357.82,1122a218.55,218.55,0,0,0-266.28-95.32,239.82,239.82,0,0,1,93.2,110.35c.2.6,3.43,8.57,3.73,9.48a240.43,240.43,0,0,1,15.23,79.38v10.79h0c-.2,7.46-.7,14.83-1.51,22.19A219.26,219.26,0,0,0,1387,1237.69,217,217,0,0,0,1357.82,1122Z"/><path class="cls-2" d="M1074.9,1075q-4.23,2.12-8.78,4.23c2.53,1.72,5.05,3.53,7.47,5.45C1074.19,1081.45,1074.6,1078.22,1074.9,1075Z"/><path class="cls-2" d="M1071.07,1098.9a171.47,171.47,0,0,0-18.46-13.31c-5.45,2.32-11,4.54-16.64,6.45h-.1a232.48,232.48,0,0,1-210.71-31.77,218.88,218.88,0,0,0-82.41,177.52,218.58,218.58,0,0,0,328.32-138.89Z"/><path class="cls-2" d="M1038.19,1076.81a239.64,239.64,0,0,1-93.1-110.34h0c-.51-1.11-3.63-9.18-3.73-9.49h0a240.08,240.08,0,0,1-15.23-79.38V866.81c.2-7.46.7-14.83,1.51-22.19A218.61,218.61,0,0,0,742.85,865.7a218.54,218.54,0,0,0,295.34,211.11Z"/><path class="cls-2" d="M1173,1320.6c.2-.5,3.53-9,3.63-9.08a225.38,225.38,0,0,0,14.43-75.14v-10.19a229,229,0,0,0-14.43-75.24c-.1-.41-3.33-8.38-3.63-9.08a228,228,0,0,0-96.83-109.74A185.05,185.05,0,0,1,1008,963.64c-3.33-6-9.59-19.77-11.91-25.21A184.41,184.41,0,0,1,999.76,797c2.32-4.94,8.37-16.44,8.77-17.14l2.22-3.94h0a182.46,182.46,0,0,1,54.06-56.68,184.81,184.81,0,0,1,80.39,136.37,199.24,199.24,0,0,1,42.57-22.09,232.69,232.69,0,0,0-34-86.95,227.31,227.31,0,0,0-77.57-73.43c-2.92-1.71-5.85-3.33-9.18-5l-2.12-1.11-2.11,1.11c-3.33,1.71-6.26,3.33-9.18,5a228,228,0,0,0-96.83,109.74c-.1.31-3.53,8.78-3.63,9.08a225.53,225.53,0,0,0-14.43,75.25V877.4a229.09,229.09,0,0,0,14.43,75.25c.1.4,3.33,8.37,3.63,9.08a228,228,0,0,0,96.83,109.74A185.1,185.1,0,0,1,1121.8,1140c3.33,6,9.58,19.77,11.9,25.22a184.33,184.33,0,0,1-3.63,141.41c-2.32,4.94-8.37,16.44-8.77,17.15l-2.22,3.93h0a182.53,182.53,0,0,1-54.07,56.69,184.3,184.3,0,0,1-79.68-130.62,397.65,397.65,0,0,1-42.26,21.38,231.89,231.89,0,0,0,33.08,82,227.31,227.31,0,0,0,77.57,73.43c2.92,1.72,5.85,3.33,9.18,5l2.11,1.11,1.92-1.31c3.33-1.71,6.25-3.33,9.18-5A227.25,227.25,0,0,0,1173,1320.6Z"/><path class="cls-3" d="M470.21,2759.1v4c0,27.08,19.75,52.46,57.54,52.46,31.59,0,54.15-17.48,54.15-42.3,0-18.05-9.59-32.72-38.92-44.57l-42.87-16.92c-47.38-18.61-72.2-42.3-72.2-79,0-50.2,46.26-82.35,102.66-82.35,53,0,94.76,25.95,98.15,71.64l-55.85,6.77v-4.51c0-25.39-16.35-45.7-50.19-45.7-26.52,0-48.51,16.92-48.51,39.49,0,15.79,9.58,33.28,45.68,47.38L565.54,2683c44,17.48,65.43,40.61,65.43,74.45,0,55.84-52.46,86.3-110.55,86.3-55.28,0-106-25.95-106-77.84Zm237.79-57c6.77,64.86,46.26,96.45,93.07,96.45,34.41,0,66-14.1,86.3-36.1-3.38,46.82-50.2,81.22-101.53,81.22-71.64,0-127.47-59.22-127.47-142.14,0-76.72,45.68-151.17,130.86-151.17,51.32,0,102.09,31,102.09,89.12a76.05,76.05,0,0,1-.56,11.28Zm.56-42.31H835.48c0-62-27.64-81.23-55.85-81.23C749.74,2578.6,714.77,2598.91,708.56,2659.83ZM968,2702.14c6.77,64.86,46.26,96.45,93.07,96.45,34.41,0,66-14.1,86.3-36.1-3.38,46.82-50.2,81.22-101.53,81.22-71.64,0-127.47-59.22-127.47-142.14,0-76.72,45.68-151.17,130.86-151.17,51.32,0,102.09,31,102.09,89.12a76.05,76.05,0,0,1-.56,11.28Zm.56-42.31h126.92c0-62-27.64-81.23-55.85-81.23C1009.71,2578.6,974.74,2598.91,968.53,2659.83ZM1422,2838.07H1372.9v-42.3c-19.74,29.89-51.89,47.94-81.79,47.94-58.09,0-112.24-48.51-112.24-138.76,0-93.06,55.83-154.55,133.68-154.55,21.43,0,44,4.51,60.35,12.41V2443.23l49.07-7.33Zm-49.07-55.28V2607.93c-15.23-17.48-37.79-28.76-62-28.76-40.06,0-80.67,31.59-80.67,110.56,0,63.73,29.33,113.37,86.87,113.37C1337.36,2803.1,1358.8,2794.64,1372.9,2782.79Zm136.49-23.69v4c0,27.08,19.74,52.46,57.53,52.46,31.59,0,54.15-17.48,54.15-42.3,0-18.05-9.59-32.72-38.92-44.57l-42.87-16.92c-47.38-18.61-72.2-42.3-72.2-79,0-50.2,46.25-82.35,102.66-82.35,53,0,94.76,25.95,98.14,71.64l-55.83,6.77v-4.51c0-25.39-16.37-45.7-50.21-45.7-26.5,0-48.51,16.92-48.51,39.49,0,15.79,9.6,33.28,45.7,47.38l45.68,17.49c44,17.48,65.43,40.61,65.43,74.45,0,55.84-52.45,86.3-110.56,86.3-55.27,0-106-25.95-106-77.84Zm225,9.66a34.61,34.61,0,1,0,34.61,34.6A34.6,34.6,0,0,0,1734.39,2768.76Z"/></g></g></svg>