<svg xmlns="http://www.w3.org/2000/svg" viewBox="0 0 170.08 297.64"><defs><style>.cls-1{fill:#f2f5ec;}.cls-2{fill:#e9edd9;}.cls-3{fill:#238c32;}</style></defs><title>Risorsa 1</title><g id="Livello_2" data-name="Livello 2"><g id="Livello_1-2" data-name="Livello 1"><rect class="cls-1" width="170.08" height="297.64" rx="27.72"/><path class="cls-2" d="M66.92,42.11v.22a3,3,0,0,0,3.25,3c1.78,0,3.06-1,3.06-2.39,0-1-.54-1.85-2.2-2.52l-2.42-1c-2.68-1-4.08-2.39-4.08-4.46,0-2.84,2.61-4.65,5.8-4.65,3,0,5.35,1.46,5.54,4l-3.15.38v-.26a2.83,2.83,0,0,0-5.58-.35c0,.89.54,1.88,2.58,2.68l2.58,1C74.79,38.8,76,40.1,76,42c0,3.15-3,4.87-6.25,4.87-3.12,0-6-1.46-6-4.4Zm13.44-3.22c.38,3.67,2.61,5.45,5.26,5.45a6.64,6.64,0,0,0,4.87-2c-.19,2.65-2.83,4.59-5.74,4.59-4,0-7.2-3.34-7.2-8,0-4.34,2.58-8.54,7.4-8.54,2.9,0,5.77,1.75,5.77,5a3.39,3.39,0,0,1,0,.64Zm0-2.39h7.17c0-3.51-1.56-4.59-3.16-4.59S80.74,33.06,80.39,36.5Zm14.66,2.39c.38,3.67,2.61,5.45,5.26,5.45a6.62,6.62,0,0,0,4.87-2c-.19,2.65-2.83,4.59-5.73,4.59-4,0-7.21-3.34-7.21-8,0-4.34,2.58-8.54,7.4-8.54,2.9,0,5.77,1.75,5.77,5a4.5,4.5,0,0,1,0,.64Zm0-2.39h7.17c0-3.51-1.56-4.59-3.15-4.59S95.43,33.06,95.08,36.5ZM120.7,46.57h-2.77V44.18a5.78,5.78,0,0,1-4.62,2.71c-3.28,0-6.34-2.74-6.34-7.84,0-5.26,3.15-8.73,7.55-8.73a8.17,8.17,0,0,1,3.41.7V24.26l2.77-.41Zm-2.77-3.12V33.57a4.68,4.68,0,0,0-3.51-1.63c-2.26,0-4.55,1.79-4.55,6.25,0,3.6,1.65,6.41,4.91,6.41A5.16,5.16,0,0,0,117.93,43.45Zm7.71-1.34v.22a3,3,0,0,0,3.26,3c1.78,0,3.06-1,3.06-2.39,0-1-.55-1.85-2.2-2.52l-2.43-1c-2.67-1-4.08-2.39-4.08-4.46,0-2.84,2.62-4.65,5.8-4.65,3,0,5.36,1.46,5.55,4l-3.15.38v-.26a2.83,2.83,0,0,0-5.58-.35c0,.89.54,1.88,2.58,2.68l2.58,1c2.49,1,3.7,2.29,3.7,4.21,0,3.15-3,4.87-6.25,4.87-3.12,0-6-1.46-6-4.4Zm12.72.55a2,2,0,1,0,2,2A2,2,0,0,0,138.36,42.66Z"/><path class="cls-2" d="M57.83,42a10,10,0,0,0-12.15-4.35,10.84,10.84,0,0,1,4.25,5s.16.39.17.43a11,11,0,0,1,.7,3.62v.49h0c0,.35,0,.68-.07,1a10.1,10.1,0,0,0,3.19.52,10,10,0,0,0,5.24-1.49A9.92,9.92,0,0,0,57.83,42Z"/><path class="cls-3" d="M44.92,39.82l-.4.19.34.25A3.32,3.32,0,0,0,44.92,39.82Z"/><path class="cls-2" d="M44.75,40.91a10,10,0,0,0-.84-.61c-.25.11-.51.21-.76.3h0a10.66,10.66,0,0,1-9.61-1.45A9.79,9.79,0,0,0,31.1,42a9.93,9.93,0,0,0-1.33,5.29,10,10,0,0,0,15-6.34Z"/><path class="cls-3" d="M44,37.66l.38-.17-.32-.24C44,37.39,44,37.53,44,37.66Z"/><path class="cls-2" d="M59.17,30.27a10,10,0,0,0-15,6.34,8,8,0,0,0,.84.6c.35-.14.7-.28,1.06-.39l.06,0a10.5,10.5,0,0,1,3-.44,10.61,10.61,0,0,1,6.22,2,10,10,0,0,0,3.77-8.1Z"/><path class="cls-2" d="M43.25,39.9a10.92,10.92,0,0,1-4.25-5h0s-.17-.42-.17-.44h0a10.93,10.93,0,0,1-.7-3.62v-.49c0-.34,0-.68.07-1A9.84,9.84,0,0,0,35,28.78a10,10,0,0,0-5.24,1.49A10,10,0,0,0,43.25,39.9Z"/><path class="cls-2" d="M49.4,51s.16-.41.17-.41a10.33,10.33,0,0,0,.65-3.43v-.46a10.39,10.39,0,0,0-.65-3.44l-.17-.41a10.41,10.41,0,0,0-4.42-5,8.46,8.46,0,0,1-3.11-3.12c-.15-.28-.44-.91-.54-1.15a8.21,8.21,0,0,1-.56-3.21,8.31,8.31,0,0,1,.72-3.25c.11-.22.39-.75.4-.78l.11-.18h0a8.3,8.3,0,0,1,2.46-2.58,8.4,8.4,0,0,1,2.61,2.82,8.5,8.5,0,0,1,1.06,3.4,9,9,0,0,1,1.94-1,10.56,10.56,0,0,0-1.55-4A10.33,10.33,0,0,0,45,21.48l-.42-.23-.09-.05-.1.05-.42.23a10.46,10.46,0,0,0-4.42,5s-.16.4-.16.41a10.1,10.1,0,0,0-.66,3.44v.46a10.4,10.4,0,0,0,.66,3.44l.16.41a10.46,10.46,0,0,0,4.42,5,8.39,8.39,0,0,1,3.11,3.12c.15.28.44.9.55,1.15a8.59,8.59,0,0,1,.56,3.21,8.41,8.41,0,0,1-.73,3.24c-.11.23-.38.75-.4.79l-.1.18h0a8.33,8.33,0,0,1-2.47,2.58,8.41,8.41,0,0,1-3.63-6,16.8,16.8,0,0,1-1.93,1,10.53,10.53,0,0,0,1.51,3.74A10.33,10.33,0,0,0,44,56l.41.23.1,0,.09-.06L45,56A10.33,10.33,0,0,0,49.4,51Z"/><path class="cls-2" d="M94.16,222.72,85,213.61l-9.12,9.11H0v47.2a27.8,27.8,0,0,0,27.72,27.72H142.36a27.8,27.8,0,0,0,27.72-27.72v-47.2Z"/><path class="cls-1" d="M22.85,242.39a4.56,4.56,0,0,1,2.25.53,4.29,4.29,0,0,1,1.57,1.57l-1,.78a3.63,3.63,0,0,0-1.25-1.36,3.43,3.43,0,0,0-1.69-.4,3.27,3.27,0,0,0-1.31.23,1.61,1.61,0,0,0-.76.59,1.47,1.47,0,0,0-.24.83,1.43,1.43,0,0,0,.33.93,2.45,2.45,0,0,0,1.32.62l2.14.48a3.63,3.63,0,0,1,2,.95,2.28,2.28,0,0,1,.56,1.58,2.48,2.48,0,0,1-.47,1.5,3.07,3.07,0,0,1-1.33,1,5.15,5.15,0,0,1-2,.36,5.43,5.43,0,0,1-1.89-.3,4.36,4.36,0,0,1-1.41-.78,4.57,4.57,0,0,1-1-1.11l1-.86a3.71,3.71,0,0,0,.74,1,3.08,3.08,0,0,0,1.09.67,4.1,4.1,0,0,0,1.46.24,4.41,4.41,0,0,0,1.33-.18,1.85,1.85,0,0,0,.86-.56,1.35,1.35,0,0,0,.3-.89,1.31,1.31,0,0,0-.32-.86,2.06,2.06,0,0,0-1.18-.58l-2.33-.53a4.38,4.38,0,0,1-1.47-.58,2.09,2.09,0,0,1-.81-.87,2.32,2.32,0,0,1-.25-1.08,2.61,2.61,0,0,1,.44-1.46,3.12,3.12,0,0,1,1.28-1.08A4.44,4.44,0,0,1,22.85,242.39Z"/><path class="cls-1" d="M32.09,244.79a3.64,3.64,0,0,1,1.37.24,2.92,2.92,0,0,1,1,.69,3.56,3.56,0,0,1,.7,1.06l-1.14.54a2.26,2.26,0,0,0-.72-1.1,2,2,0,0,0-1.27-.38,2.34,2.34,0,0,0-1.29.34,2.14,2.14,0,0,0-.83,1,4.35,4.35,0,0,0,0,3.07,2.17,2.17,0,0,0,.83,1,2.34,2.34,0,0,0,1.29.34,2.57,2.57,0,0,0,1-.18,1.8,1.8,0,0,0,.71-.53,2,2,0,0,0,.38-.84l1.11.39a3.6,3.6,0,0,1-.7,1.19,2.85,2.85,0,0,1-1.06.75,3.56,3.56,0,0,1-1.42.27,3.77,3.77,0,0,1-1.88-.47,3.21,3.21,0,0,1-1.29-1.34,5,5,0,0,1,0-4.18,3.24,3.24,0,0,1,1.29-1.35A3.77,3.77,0,0,1,32.09,244.79Z"/><path class="cls-1" d="M41.69,247.59a1.79,1.79,0,0,0-.45-1.3,1.74,1.74,0,0,0-1.28-.45,2.4,2.4,0,0,0-1.32.34,1.93,1.93,0,0,0-.79,1.08l-1-.6A2.61,2.61,0,0,1,38,245.31a3.62,3.62,0,0,1,2-.52,3.85,3.85,0,0,1,1.47.27,2.38,2.38,0,0,1,1,.85,2.52,2.52,0,0,1,.38,1.44V251q0,.54.57.54a2,2,0,0,0,.55-.07l-.06.94a1.75,1.75,0,0,1-.78.15,1.78,1.78,0,0,1-.78-.16,1.24,1.24,0,0,1-.54-.5,1.7,1.7,0,0,1-.19-.85v-.15l.3,0a2,2,0,0,1-.62,1,2.79,2.79,0,0,1-1,.53,3.38,3.38,0,0,1-1.07.18,3.32,3.32,0,0,1-1.23-.23,2,2,0,0,1-.9-.68,1.83,1.83,0,0,1-.34-1.13,1.88,1.88,0,0,1,.56-1.39,3.07,3.07,0,0,1,1.57-.74l3-.59v1l-2.42.5a2.75,2.75,0,0,0-1.09.42.88.88,0,0,0-.36.75.92.92,0,0,0,.37.76,1.65,1.65,0,0,0,1,.29,3.26,3.26,0,0,0,.83-.11,2.48,2.48,0,0,0,.71-.35,1.65,1.65,0,0,0,.5-.58,1.86,1.86,0,0,0,.18-.84Z"/><path class="cls-1" d="M45.72,252.44v-7.5h1.05l.11,1.68-.2-.17a2.51,2.51,0,0,1,.65-1,2.39,2.39,0,0,1,.94-.54,3.66,3.66,0,0,1,1.1-.16,3.37,3.37,0,0,1,1.47.31,2.44,2.44,0,0,1,1.06.93,3,3,0,0,1,.39,1.61v4.8h-1.2v-4.38a2.29,2.29,0,0,0-.53-1.74,1.87,1.87,0,0,0-1.31-.48,2.5,2.5,0,0,0-1.08.25,2.08,2.08,0,0,0-.89.83,2.84,2.84,0,0,0-.36,1.53v4Z"/><path class="cls-1" d="M64.17,244.94v1H58.74v-1Zm-2.73-2.13v7.56a1,1,0,0,0,.32.82,1.2,1.2,0,0,0,.81.27,1.73,1.73,0,0,0,.75-.15,2,2,0,0,0,.57-.4l.42,1a2.51,2.51,0,0,1-.82.5,3,3,0,0,1-1.09.18,2.67,2.67,0,0,1-1.06-.21,1.65,1.65,0,0,1-.79-.64,2.18,2.18,0,0,1-.31-1.16v-7.44Z"/><path class="cls-1" d="M69,244.79a3.74,3.74,0,0,1,1.88.46,3.27,3.27,0,0,1,1.28,1.35,4.88,4.88,0,0,1,0,4.18,3.25,3.25,0,0,1-1.28,1.34,4,4,0,0,1-3.76,0,3.21,3.21,0,0,1-1.29-1.34,5,5,0,0,1,0-4.18,3.24,3.24,0,0,1,1.29-1.35A3.77,3.77,0,0,1,69,244.79Zm0,1a2.39,2.39,0,0,0-1.31.35,2.29,2.29,0,0,0-.83,1,4.21,4.21,0,0,0,0,3.07,2.26,2.26,0,0,0,.83,1,2.39,2.39,0,0,0,1.31.34,2.35,2.35,0,0,0,1.3-.34,2.2,2.2,0,0,0,.83-1,4.08,4.08,0,0,0,0-3.07,2.22,2.22,0,0,0-.83-1A2.36,2.36,0,0,0,69,245.82Z"/><path class="cls-1" d="M79.85,252.44v-7.5h1l.17,1.23a2.23,2.23,0,0,1,.92-1,3,3,0,0,1,1.48-.34l.43,0a1.12,1.12,0,0,1,.39.12L84,246a1.9,1.9,0,0,0-.36-.09,3.82,3.82,0,0,0-.55,0,1.9,1.9,0,0,0-.94.27,2.23,2.23,0,0,0-.79.82,2.78,2.78,0,0,0-.31,1.39v4.05Z"/><path class="cls-1" d="M88.79,252.59a3.85,3.85,0,0,1-1.9-.47,3.23,3.23,0,0,1-1.3-1.34,5,5,0,0,1,0-4.18,3.27,3.27,0,0,1,1.28-1.35,3.62,3.62,0,0,1,1.84-.46,3.37,3.37,0,0,1,1.79.45,3,3,0,0,1,1.14,1.22,3.79,3.79,0,0,1,.39,1.73c0,.17,0,.33,0,.47a3.5,3.5,0,0,1,0,.37H85.91V248h5.53l-.61.12a2.27,2.27,0,0,0-.59-1.67,2.14,2.14,0,0,0-1.56-.58,2.24,2.24,0,0,0-1.26.34,2.2,2.2,0,0,0-.83,1,4.14,4.14,0,0,0,0,3.07,2.21,2.21,0,0,0,.85,1,2.39,2.39,0,0,0,1.31.34,2.56,2.56,0,0,0,1.34-.32,2.33,2.33,0,0,0,.83-.85l.95.55a3.13,3.13,0,0,1-.73.89,3,3,0,0,1-1,.57A4,4,0,0,1,88.79,252.59Z"/><path class="cls-1" d="M97.34,244.79a3.61,3.61,0,0,1,1.37.24,2.92,2.92,0,0,1,1,.69,3.56,3.56,0,0,1,.7,1.06l-1.14.54a2.26,2.26,0,0,0-.72-1.1,2,2,0,0,0-1.27-.38,2.34,2.34,0,0,0-1.29.34,2.14,2.14,0,0,0-.83,1,4.35,4.35,0,0,0,0,3.07,2.17,2.17,0,0,0,.83,1,2.34,2.34,0,0,0,1.29.34,2.57,2.57,0,0,0,1-.18,1.8,1.8,0,0,0,.71-.53,2,2,0,0,0,.38-.84l1.11.39a3.6,3.6,0,0,1-.7,1.19,2.81,2.81,0,0,1-1.07.75,3.48,3.48,0,0,1-1.41.27,3.77,3.77,0,0,1-1.88-.47,3.21,3.21,0,0,1-1.29-1.34,5,5,0,0,1,0-4.18,3.24,3.24,0,0,1,1.29-1.35A3.77,3.77,0,0,1,97.34,244.79Z"/><path class="cls-1" d="M105.69,252.59a3.78,3.78,0,0,1-1.89-.47,3.17,3.17,0,0,1-1.3-1.34,4.88,4.88,0,0,1,0-4.18,3.25,3.25,0,0,1,1.27-1.35,3.65,3.65,0,0,1,1.85-.46,3.37,3.37,0,0,1,1.79.45,3,3,0,0,1,1.13,1.22,3.79,3.79,0,0,1,.39,1.73c0,.17,0,.33,0,.47a3.33,3.33,0,0,1,0,.37h-6.06V248h5.54l-.62.12a2.23,2.23,0,0,0-.59-1.67,2.1,2.1,0,0,0-1.55-.58,2.3,2.3,0,0,0-1.27.34,2.19,2.19,0,0,0-.82,1,4.08,4.08,0,0,0,0,3.07,2.21,2.21,0,0,0,.85,1,2.41,2.41,0,0,0,1.31.34,2.53,2.53,0,0,0,1.34-.32,2.36,2.36,0,0,0,.84-.85l.94.55a3.28,3.28,0,0,1-.72.89,3.09,3.09,0,0,1-1,.57A4,4,0,0,1,105.69,252.59Z"/><path class="cls-1" d="M111.74,243.5a.89.89,0,0,1-.65-.25.85.85,0,0,1-.25-.65.9.9,0,1,1,1.8,0,.85.85,0,0,1-.25.65A.89.89,0,0,1,111.74,243.5Zm.6,1.44v7.5h-1.2v-7.5Z"/><path class="cls-1" d="M120,244.94h1.26l-3.12,7.5H117l-3.12-7.5h1.36l2.37,6.28Z"/><path class="cls-1" d="M125.91,252.59a3.85,3.85,0,0,1-1.9-.47,3.21,3.21,0,0,1-1.29-1.34,4.88,4.88,0,0,1,0-4.18,3.25,3.25,0,0,1,1.27-1.35,3.65,3.65,0,0,1,1.85-.46,3.4,3.4,0,0,1,1.79.45,3,3,0,0,1,1.13,1.22,3.79,3.79,0,0,1,.39,1.73c0,.17,0,.33,0,.47a3.33,3.33,0,0,1,0,.37H123V248h5.54l-.62.12a2.23,2.23,0,0,0-.59-1.67,2.1,2.1,0,0,0-1.55-.58,2.3,2.3,0,0,0-1.27.34,2.12,2.12,0,0,0-.82,1,4.08,4.08,0,0,0,0,3.07,2.27,2.27,0,0,0,.85,1,2.39,2.39,0,0,0,1.31.34,2.59,2.59,0,0,0,1.35-.32,2.42,2.42,0,0,0,.83-.85l.94.55a3.28,3.28,0,0,1-.72.89,3.09,3.09,0,0,1-1,.57A4,4,0,0,1,125.91,252.59Z"/><path class="cls-1" d="M140.78,247.59a1.79,1.79,0,0,0-.45-1.3,1.74,1.74,0,0,0-1.28-.45,2.4,2.4,0,0,0-1.32.34,1.93,1.93,0,0,0-.79,1.08l-1-.6a2.61,2.61,0,0,1,1.11-1.35,3.62,3.62,0,0,1,2-.52,3.85,3.85,0,0,1,1.47.27,2.38,2.38,0,0,1,1,.85,2.52,2.52,0,0,1,.38,1.44V251q0,.54.57.54a2,2,0,0,0,.55-.07l-.06.94a1.75,1.75,0,0,1-.78.15,1.78,1.78,0,0,1-.78-.16,1.24,1.24,0,0,1-.54-.5,1.7,1.7,0,0,1-.19-.85v-.15l.3,0a2,2,0,0,1-.62,1,2.79,2.79,0,0,1-1,.53,3.38,3.38,0,0,1-1.07.18,3.32,3.32,0,0,1-1.23-.23,2,2,0,0,1-.9-.68,1.83,1.83,0,0,1-.34-1.13,1.88,1.88,0,0,1,.56-1.39,3.07,3.07,0,0,1,1.57-.74l3-.59v1l-2.42.5a2.75,2.75,0,0,0-1.09.42.88.88,0,0,0-.36.75.94.94,0,0,0,.36.76,1.7,1.7,0,0,0,1.05.29,3.26,3.26,0,0,0,.83-.11,2.35,2.35,0,0,0,.71-.35,1.65,1.65,0,0,0,.5-.58,1.86,1.86,0,0,0,.18-.84Z"/><path class="cls-1" d="M144.81,252.44v-7.5h1.05l.11,1.68-.2-.17a2.51,2.51,0,0,1,.65-1,2.39,2.39,0,0,1,.94-.54,3.66,3.66,0,0,1,1.1-.16,3.37,3.37,0,0,1,1.47.31A2.44,2.44,0,0,1,151,246a3,3,0,0,1,.39,1.61v4.8h-1.2v-4.38a2.29,2.29,0,0,0-.53-1.74,1.87,1.87,0,0,0-1.31-.48,2.5,2.5,0,0,0-1.08.25,2.08,2.08,0,0,0-.89.83,2.84,2.84,0,0,0-.36,1.53v4Z"/><path class="cls-1" d="M57.82,263.92a1.21,1.21,0,0,1-.91-.35,1.36,1.36,0,0,1,0-1.82,1.37,1.37,0,0,1,1.83,0,1.26,1.26,0,0,1-.92,2.17Zm.84,2v10.5H57v-10.5Z"/><path class="cls-1" d="M62.46,276.44v-10.5h1.48l.14,2.35-.27-.23a3.6,3.6,0,0,1,.9-1.36A3.48,3.48,0,0,1,66,266a5.33,5.33,0,0,1,1.55-.23,4.81,4.81,0,0,1,2.06.43,3.47,3.47,0,0,1,1.48,1.31,4.17,4.17,0,0,1,.55,2.25v6.72H70v-6.13a3.24,3.24,0,0,0-.74-2.43,2.65,2.65,0,0,0-1.84-.68,3.61,3.61,0,0,0-1.51.35,3,3,0,0,0-1.25,1.16,4,4,0,0,0-.5,2.14v5.59Z"/><path class="cls-1" d="M82,265.94H83.8l-4.37,10.5H77.75l-4.37-10.5H75.3l3.31,8.8Z"/><path class="cls-1" d="M86.74,263.92a1.19,1.19,0,0,1-.91-.35,1.29,1.29,0,0,1,1.82-1.82,1.26,1.26,0,0,1-.91,2.17Zm.84,2v10.5H85.9v-10.5Z"/><path class="cls-1" d="M97.68,265.94v1.45h-7.6v-1.45Zm-3.82-3v10.58a1.43,1.43,0,0,0,.44,1.15,1.64,1.64,0,0,0,1.14.38,2.38,2.38,0,0,0,1-.21,3,3,0,0,0,.8-.56l.59,1.4a3.47,3.47,0,0,1-1.14.7,4.46,4.46,0,0,1-1.53.25,3.92,3.92,0,0,1-1.49-.29,2.31,2.31,0,0,1-1.1-.9,3,3,0,0,1-.43-1.63V263.42Z"/><path class="cls-1" d="M104.46,276.65a5.39,5.39,0,0,1-2.65-.65,4.52,4.52,0,0,1-1.82-1.88,6.93,6.93,0,0,1,0-5.86,4.52,4.52,0,0,1,1.79-1.88,5.1,5.1,0,0,1,2.58-.65,4.75,4.75,0,0,1,2.51.63,4.23,4.23,0,0,1,1.59,1.71,5.35,5.35,0,0,1,.54,2.42c0,.24,0,.46,0,.66s0,.37-.06.52h-8.49v-1.49h7.75l-.86.17a3.13,3.13,0,0,0-.83-2.33,2.94,2.94,0,0,0-2.17-.82,3.3,3.3,0,0,0-1.78.47,3.12,3.12,0,0,0-1.15,1.37,5.15,5.15,0,0,0-.41,2.15,5,5,0,0,0,.42,2.14,3.1,3.1,0,0,0,1.19,1.38,3.46,3.46,0,0,0,1.83.47,3.61,3.61,0,0,0,1.88-.44,3.45,3.45,0,0,0,1.17-1.2l1.32.78a4.34,4.34,0,0,1-1,1.24,4.17,4.17,0,0,1-1.45.8A5.67,5.67,0,0,1,104.46,276.65Z"/><path class="cls-1" d="M112.93,273.92a1.39,1.39,0,0,1,1,2.35,1.39,1.39,0,0,1-2-2A1.3,1.3,0,0,1,112.93,273.92Z"/><rect class="cls-2" x="30.59" y="81.8" width="110.51" height="110.51" rx="19.15"/><rect class="cls-1" x="41.5" y="145.92" width="3.55" height="3.55"/><path class="cls-1" d="M48.6,117.54H66.33V92.71H41.5v24.83h7.1ZM45.05,96.26H62.79V114H45.05Z"/><polygon class="cls-1" points="52.14 138.83 52.14 135.28 48.6 135.28 48.6 131.73 52.14 131.73 55.69 131.73 55.69 128.19 59.24 128.19 59.24 124.64 55.69 124.64 55.69 121.09 52.14 121.09 52.14 124.64 48.6 124.64 48.6 128.19 45.05 128.19 45.05 121.09 41.5 121.09 41.5 131.73 45.05 131.73 45.05 135.28 41.5 135.28 41.5 142.38 45.05 142.38 45.05 145.92 48.6 145.92 48.6 138.83 52.14 138.83"/><polygon class="cls-1" points="55.69 110.45 59.24 110.45 59.24 99.8 55.69 99.8 52.14 99.8 48.6 99.8 48.6 110.45 52.14 110.45 55.69 110.45"/><polygon class="cls-1" points="52.14 145.92 48.6 145.92 48.6 153.02 52.14 153.02 52.14 149.47 55.69 149.47 55.69 142.38 52.14 142.38 52.14 145.92"/><polygon class="cls-1" points="52.14 163.66 48.6 163.66 48.6 174.3 52.14 174.3 55.69 174.3 59.24 174.3 59.24 163.66 55.69 163.66 52.14 163.66"/><rect class="cls-1" x="55.69" y="138.83" width="3.55" height="3.55"/><path class="cls-1" d="M59.24,156.57H41.5V181.4H66.33V156.57H59.24Zm3.55,21.28H45.05V160.11H62.79Z"/><polygon class="cls-1" points="66.33 124.64 66.33 121.09 62.79 121.09 59.24 121.09 59.24 124.64 62.79 124.64 66.33 124.64"/><polygon class="cls-1" points="66.33 131.73 66.33 128.19 62.79 128.19 59.24 128.19 59.24 131.73 55.69 131.73 55.69 135.28 59.24 135.28 62.79 135.28 62.79 131.73 66.33 131.73"/><polygon class="cls-1" points="62.79 135.28 62.79 138.83 66.33 138.83 69.88 138.83 69.88 135.28 66.33 135.28 62.79 135.28"/><rect class="cls-1" x="66.33" y="124.64" width="3.55" height="3.55"/><polygon class="cls-1" points="66.33 149.47 62.79 149.47 62.79 145.92 66.33 145.92 66.33 142.38 62.79 142.38 59.24 142.38 59.24 153.02 62.79 153.02 66.33 153.02 69.88 153.02 69.88 156.56 73.43 156.56 76.98 156.56 76.98 153.02 73.43 153.02 73.43 149.47 69.88 149.47 66.33 149.47"/><rect class="cls-1" x="69.88" y="110.45" width="3.55" height="7.1"/><polygon class="cls-1" points="69.88 135.28 73.43 135.28 76.98 135.28 76.98 131.73 73.43 131.73 73.43 128.19 69.88 128.19 69.88 135.28"/><rect class="cls-1" x="69.88" y="142.38" width="3.55" height="3.55"/><rect class="cls-1" x="69.88" y="167.21" width="3.55" height="3.55"/><polygon class="cls-1" points="69.88 177.85 69.88 181.4 73.43 181.4 76.98 181.4 76.98 170.76 73.43 170.76 73.43 177.85 69.88 177.85"/><rect class="cls-1" x="73.43" y="92.71" width="3.55" height="3.55"/><polygon class="cls-1" points="76.98 103.35 80.52 103.35 80.52 106.9 84.07 106.9 84.07 103.35 87.62 103.35 87.62 96.26 84.07 96.26 84.07 92.71 80.52 92.71 80.52 99.8 76.98 99.8 73.43 99.8 73.43 110.45 76.98 110.45 76.98 103.35"/><polygon class="cls-1" points="73.43 128.19 76.98 128.19 80.52 128.19 84.07 128.19 87.62 128.19 91.17 128.19 91.17 131.73 94.71 131.73 94.71 121.09 91.17 121.09 87.62 121.09 87.62 124.64 84.07 124.64 80.52 124.64 76.98 124.64 76.98 121.09 73.43 121.09 69.88 121.09 69.88 124.64 73.43 124.64 73.43 128.19"/><rect class="cls-1" x="73.43" y="145.92" width="3.55" height="3.55"/><rect class="cls-1" x="76.98" y="113.99" width="3.55" height="3.55"/><rect class="cls-1" x="80.52" y="131.73" width="3.55" height="3.55"/><rect class="cls-1" x="80.52" y="174.3" width="3.55" height="3.55"/><polygon class="cls-1" points="91.17 114 91.17 110.45 94.71 110.45 94.71 114 98.26 114 98.26 121.09 101.81 121.09 101.81 106.9 98.26 106.9 98.26 103.35 94.71 103.35 94.71 99.8 98.26 99.8 98.26 92.71 94.71 92.71 91.17 92.71 91.17 106.9 87.62 106.9 87.62 110.45 84.07 110.45 84.07 117.54 80.52 117.54 80.52 121.09 84.07 121.09 87.62 121.09 87.62 114 91.17 114"/><rect class="cls-1" x="91.17" y="113.99" width="3.55" height="3.55"/><rect class="cls-1" x="98.26" y="124.64" width="3.55" height="3.55"/><rect class="cls-1" x="101.81" y="121.09" width="3.55" height="3.55"/><rect class="cls-1" x="105.36" y="156.57" width="3.55" height="3.55"/><rect class="cls-1" x="105.36" y="174.3" width="3.55" height="3.55"/><rect class="cls-1" x="108.9" y="121.09" width="3.55" height="3.55"/><rect class="cls-1" x="108.9" y="177.85" width="3.55" height="3.55"/><rect class="cls-1" x="112.45" y="131.73" width="3.55" height="3.55"/><polygon class="cls-1" points="116 99.8 112.45 99.8 112.45 110.45 116 110.45 119.55 110.45 123.09 110.45 123.09 99.8 119.55 99.8 116 99.8"/><polygon class="cls-1" points="119.55 142.38 119.55 145.92 123.09 145.92 123.09 138.83 119.55 138.83 119.55 135.28 116 135.28 116 142.38 119.55 142.38"/><path class="cls-1" d="M119.55,145.92H116v3.55h-7.1v-3.55h-7.09v3.55H98.26v-3.55H94.71V153H87.62v-3.55H84.07v-3.55h3.55v3.55h3.55v-3.55h3.54v-3.54H91.17v-3.55h10.64v-3.55h3.55v3.55h-3.55v3.55h7.09v3.54H116v-3.54h-3.55v-7.1H108.9V124.64h-3.54v3.54h-3.55v3.55H98.26v3.55H91.17v-3.55H87.62v3.55H84.07v3.55h3.55v3.55H84.07v-3.55H77v7.09h3.54v10.65h3.55v3.54H80.52v3.55H77v-3.55h-7.1v3.55h3.55v3.55H84.07v-3.55h3.55v-7.09h7.09v3.54h3.55v10.65H91.17v-3.55h3.54v-7.1H91.17v3.55H87.62v3.55H84.07v7.09h3.55v7.1h3.55v-7.1h3.54v7.1h7.1V167.21h10.64v7.09H116v3.55h3.55V174.3h3.54v-7.09h-3.54v3.55H116v-7.1h7.09v3.55h3.55v-3.55h3.55V153h-3.55v3.55h-3.55v3.54H116v-3.54h7.09v-7.1h-3.54Zm-7.1,17.74H101.81V153h10.64Z"/><polygon class="cls-1" points="123.09 135.28 123.09 138.83 126.64 138.83 126.64 145.92 130.19 145.92 130.19 135.28 126.64 135.28 123.09 135.28"/><rect class="cls-1" x="123.09" y="145.92" width="3.55" height="3.55"/><polygon class="cls-1" points="123.09 177.85 123.09 181.4 126.64 181.4 130.19 181.4 130.19 177.85 126.64 177.85 123.09 177.85"/><path class="cls-1" d="M126.64,92.71H105.36v24.83h24.83V92.71Zm0,21.28H108.9V96.26h17.74Z"/><polygon class="cls-1" points="126.64 128.19 123.09 128.19 123.09 131.73 126.64 131.73 130.19 131.73 130.19 124.64 126.64 124.64 126.64 128.19"/><rect class="cls-1" x="126.64" y="170.76" width="3.55" height="3.55"/></g></g></svg>