<svg xmlns="http://www.w3.org/2000/svg" viewBox="0 0 226.17 565.32"><defs><style>.cls-1,.cls-3{fill:#f2f5ec;}.cls-2{fill:#e9edd9;}.cls-3{opacity:0.6;}</style></defs><title>Risorsa 4</title><g id="Livello_2" data-name="Livello 2"><g id="sticker"><rect class="cls-1" width="226.13" height="495.44" rx="36.86"/><path class="cls-2" d="M0,393.92V528.46a37,37,0,0,0,36.86,36.86H189.27a37,37,0,0,0,36.86-36.86V393.92Z"/><path class="cls-1" d="M0,502.44v26A37,37,0,0,0,36.9,565.32H189.31a37,37,0,0,0,36.86-36.86v-26Z"/><rect class="cls-2" x="97.44" y="386.27" width="31.24" height="31.24" transform="translate(-251.07 197.66) rotate(-45)"/><path class="cls-2" d="M109.13,99.23c-3.66-3.14-8.15-8.57-8.15-16.29,0-11,9.22-17.41,12-19.08,2.63,1.58,11.06,7.41,11.9,17.45l3.26-1.88c-1.93-12.7-13.84-18.82-14.39-19.09a1.67,1.67,0,0,0-1.54,0c-.6.3-14.66,7.51-14.66,22.6,0,8.47,4.42,14.45,8.41,18.13l-8.33,4.81v4l9.81-5.67,7.23-4.17,13.95-8V88L109.13,99.23ZM119.36,104l9.24-5.33v4l-8.2,4.73a24.29,24.29,0,0,1,8,17.73c0,15.09-14.06,22.31-14.66,22.61a1.71,1.71,0,0,1-.77.18,1.74,1.74,0,0,1-.77-.18c-.55-.27-12.12-6.21-14.31-18.54l3.23-1.86c1.11,9.69,9.27,15.32,11.85,16.87,2.76-1.66,12-8,12-19.08,0-7.41-4.14-12.71-7.71-15.9L97.61,120.5v-4l12.7-7.33,9-5.23Z"/><rect class="cls-2" x="26.92" y="188.98" width="172.29" height="172.29" rx="29.85"/><rect class="cls-1" x="43.93" y="288.95" width="5.53" height="5.53"/><path class="cls-1" d="M55,244.7H82.64V206H43.93V244.7H55Zm-5.53-33.18H77.11v27.65H49.46Z"/><polygon class="cls-1" points="60.52 277.89 60.52 272.36 54.99 272.36 54.99 266.83 60.52 266.83 66.05 266.83 66.05 261.3 71.58 261.3 71.58 255.76 66.05 255.76 66.05 250.23 60.52 250.23 60.52 255.76 54.99 255.76 54.99 261.3 49.46 261.3 49.46 250.23 43.93 250.23 43.93 266.83 49.46 266.83 49.46 272.36 43.93 272.36 43.93 283.42 49.46 283.42 49.46 288.95 54.99 288.95 54.99 277.89 60.52 277.89"/><polygon class="cls-1" points="66.05 233.64 71.58 233.64 71.58 217.05 66.05 217.05 60.52 217.05 54.99 217.05 54.99 233.64 60.52 233.64 66.05 233.64"/><polygon class="cls-1" points="60.52 288.95 54.99 288.95 54.99 300.01 60.52 300.01 60.52 294.48 66.05 294.48 66.05 283.42 60.52 283.42 60.52 288.95"/><polygon class="cls-1" points="60.52 316.6 54.99 316.6 54.99 333.2 60.52 333.2 66.05 333.2 71.58 333.2 71.58 316.6 66.05 316.6 60.52 316.6"/><rect class="cls-1" x="66.05" y="277.89" width="5.53" height="5.53"/><path class="cls-1" d="M71.58,305.54H43.93v38.72H82.64V305.54H71.58Zm5.53,33.19H49.46V311.07H77.11Z"/><polygon class="cls-1" points="82.64 255.76 82.64 250.23 77.11 250.23 71.58 250.23 71.58 255.76 77.11 255.76 82.64 255.76"/><polygon class="cls-1" points="82.64 266.83 82.64 261.3 77.11 261.3 71.58 261.3 71.58 266.83 66.05 266.83 66.05 272.36 71.58 272.36 77.11 272.36 77.11 266.83 82.64 266.83"/><polygon class="cls-1" points="77.11 272.36 77.11 277.89 82.64 277.89 88.17 277.89 88.17 272.36 82.64 272.36 77.11 272.36"/><rect class="cls-1" x="82.64" y="255.77" width="5.53" height="5.53"/><polygon class="cls-1" points="82.64 294.48 77.11 294.48 77.11 288.95 82.64 288.95 82.64 283.42 77.11 283.42 71.58 283.42 71.58 300.01 77.11 300.01 82.64 300.01 88.17 300.01 88.17 305.54 93.7 305.54 99.24 305.54 99.24 300.01 93.7 300.01 93.7 294.48 88.17 294.48 82.64 294.48"/><rect class="cls-1" x="88.17" y="233.64" width="5.53" height="11.06"/><polygon class="cls-1" points="88.17 272.36 93.7 272.36 99.24 272.36 99.24 266.83 93.7 266.83 93.7 261.3 88.17 261.3 88.17 272.36"/><rect class="cls-1" x="88.17" y="283.42" width="5.53" height="5.53"/><rect class="cls-1" x="88.17" y="322.13" width="5.53" height="5.53"/><polygon class="cls-1" points="88.17 338.73 88.17 344.26 93.7 344.26 99.24 344.26 99.24 327.67 93.7 327.67 93.7 338.73 88.17 338.73"/><rect class="cls-1" x="93.7" y="205.99" width="5.53" height="5.53"/><polygon class="cls-1" points="99.24 222.58 104.77 222.58 104.77 228.11 110.3 228.11 110.3 222.58 115.83 222.58 115.83 211.52 110.3 211.52 110.3 205.99 104.77 205.99 104.77 217.05 99.24 217.05 93.7 217.05 93.7 233.64 99.24 233.64 99.24 222.58"/><polygon class="cls-1" points="93.7 261.3 99.24 261.3 104.77 261.3 110.3 261.3 115.83 261.3 121.36 261.3 121.36 266.83 126.89 266.83 126.89 250.23 121.36 250.23 115.83 250.23 115.83 255.76 110.3 255.76 104.77 255.76 99.24 255.76 99.24 250.23 93.7 250.23 88.17 250.23 88.17 255.76 93.7 255.76 93.7 261.3"/><rect class="cls-1" x="93.7" y="288.95" width="5.53" height="5.53"/><rect class="cls-1" x="99.24" y="239.17" width="5.53" height="5.53"/><rect class="cls-1" x="104.77" y="266.83" width="5.53" height="5.53"/><rect class="cls-1" x="104.77" y="333.2" width="5.53" height="5.53"/><polygon class="cls-1" points="121.36 239.17 121.36 233.64 126.89 233.64 126.89 239.17 132.42 239.17 132.42 250.23 137.95 250.23 137.95 228.11 132.42 228.11 132.42 222.58 126.89 222.58 126.89 217.05 132.42 217.05 132.42 205.99 126.89 205.99 121.36 205.99 121.36 228.11 115.83 228.11 115.83 233.64 110.3 233.64 110.3 244.7 104.77 244.7 104.77 250.23 110.3 250.23 115.83 250.23 115.83 239.17 121.36 239.17"/><rect class="cls-1" x="121.36" y="239.17" width="5.53" height="5.53"/><rect class="cls-1" x="132.42" y="255.77" width="5.53" height="5.53"/><rect class="cls-1" x="137.95" y="250.23" width="5.53" height="5.53"/><rect class="cls-1" x="143.48" y="305.54" width="5.53" height="5.53"/><rect class="cls-1" x="143.48" y="333.2" width="5.53" height="5.53"/><rect class="cls-1" x="149.01" y="250.23" width="5.53" height="5.53"/><rect class="cls-1" x="149.01" y="338.73" width="5.53" height="5.53"/><rect class="cls-1" x="154.54" y="266.83" width="5.53" height="5.53"/><polygon class="cls-1" points="160.07 217.05 154.54 217.05 154.54 233.64 160.07 233.64 165.6 233.64 171.14 233.64 171.14 217.05 165.6 217.05 160.07 217.05"/><polygon class="cls-1" points="165.6 283.42 165.6 288.95 171.14 288.95 171.14 277.89 165.6 277.89 165.6 272.36 160.07 272.36 160.07 283.42 165.6 283.42"/><path class="cls-1" d="M165.6,289h-5.53v5.53H149V289H138v5.53h-5.53V289h-5.53V300H115.83v-5.53H110.3V289h5.53v5.53h5.53V289h5.53v-5.53h-5.53v-5.53H138v-5.53h5.53v5.53H138v5.53H149V289h11.06v-5.53h-5.53V272.36H149V255.77h-5.53v5.53H138v5.53h-5.53v5.53H121.36v-5.53h-5.53v5.53H110.3v5.53h5.53v5.53H110.3v-5.53H99.24V289h5.53v16.59h5.53v5.53h-5.53v5.53H99.24v-5.53H88.17v5.53H93.7v5.53h16.6V316.6h5.53V305.54h11.06v5.53h5.53v16.6H121.36v-5.54h5.53V311.07h-5.53v5.53h-5.53v5.53H110.3V333.2h5.53v11.06h5.53V333.2h5.53v11.06H138V322.13h16.59V333.2h5.53v5.53h5.53V333.2h5.54V322.13H165.6v5.54h-5.53V316.6h11.07v5.53h5.53V316.6h5.53V300h-5.53v5.53h-5.53v5.53H160.07v-5.53h11.07V294.48H165.6ZM154.54,316.6H138V300h16.59Z"/><polygon class="cls-1" points="171.14 272.36 171.14 277.89 176.67 277.89 176.67 288.95 182.2 288.95 182.2 272.36 176.67 272.36 171.14 272.36"/><rect class="cls-1" x="171.14" y="288.95" width="5.53" height="5.53"/><polygon class="cls-1" points="171.14 338.73 171.14 344.26 176.67 344.26 182.2 344.26 182.2 338.73 176.67 338.73 171.14 338.73"/><path class="cls-1" d="M176.67,206H143.48V244.7H182.2V206Zm0,33.18H149V211.52h27.66Z"/><polygon class="cls-1" points="176.67 261.3 171.14 261.3 171.14 266.83 176.67 266.83 182.2 266.83 182.2 255.76 176.67 255.76 176.67 261.3"/><rect class="cls-1" x="176.67" y="327.67" width="5.53" height="5.53"/><path class="cls-1" d="M85.26,456.38v.35c0,2.34,1.71,4.55,5,4.55,2.74,0,4.69-1.52,4.69-3.67,0-1.57-.83-2.84-3.37-3.87l-3.72-1.46c-4.1-1.62-6.26-3.67-6.26-6.85,0-4.35,4-7.14,8.9-7.14,4.6,0,8.22,2.25,8.51,6.21l-4.84.59v-.39c0-2.2-1.42-4-4.35-4-2.3,0-4.21,1.46-4.21,3.42,0,1.37.84,2.88,4,4.11l4,1.51c3.81,1.52,5.67,3.52,5.67,6.46,0,4.84-4.55,7.48-9.59,7.48-4.79,0-9.19-2.25-9.19-6.75Zm20.62-4.93c.58,5.62,4,8.36,8.07,8.36a10.22,10.22,0,0,0,7.48-3.13c-.3,4.06-4.35,7-8.8,7-6.22,0-11.06-5.13-11.06-12.32,0-6.65,4-13.11,11.35-13.11,4.45,0,8.85,2.69,8.85,7.73a6.5,6.5,0,0,1,0,1Zm.05-3.67h11c0-5.38-2.4-7-4.84-7C109.5,440.74,106.46,442.5,105.93,447.78Zm22.48,3.67c.59,5.62,4,8.36,8.07,8.36a10.23,10.23,0,0,0,7.49-3.13c-.3,4.06-4.36,7-8.81,7-6.21,0-11-5.13-11-12.32,0-6.65,4-13.11,11.35-13.11,4.45,0,8.85,2.69,8.85,7.73a6.5,6.5,0,0,1-.05,1Zm.05-3.67h11c0-5.38-2.4-7-4.84-7C132,440.74,129,442.5,128.46,447.78Zm39.31,15.45h-4.25v-3.67a8.87,8.87,0,0,1-7.09,4.16c-5,0-9.73-4.21-9.73-12,0-8.07,4.84-13.4,11.59-13.4a12.55,12.55,0,0,1,5.23,1.08V429l4.25-.64Zm-4.25-4.79V443.28a7.18,7.18,0,0,0-5.38-2.49c-3.47,0-7,2.73-7,9.58,0,5.53,2.54,9.83,7.53,9.83A7.88,7.88,0,0,0,163.52,458.44Zm11.83-2.06v.35c0,2.34,1.71,4.55,5,4.55,2.74,0,4.7-1.52,4.7-3.67,0-1.57-.84-2.84-3.38-3.87l-3.72-1.46c-4.1-1.62-6.25-3.67-6.25-6.85,0-4.35,4-7.14,8.9-7.14,4.59,0,8.21,2.25,8.5,6.21l-4.84.59v-.39c0-2.2-1.42-4-4.35-4-2.3,0-4.2,1.46-4.2,3.42,0,1.37.83,2.88,4,4.11l4,1.51c3.81,1.52,5.67,3.52,5.67,6.46,0,4.84-4.55,7.48-9.59,7.48-4.79,0-9.19-2.25-9.19-6.75Zm19.51.84a3,3,0,1,0,3,3A3,3,0,0,0,194.86,457.22Z"/><path class="cls-3" d="M71.32,456.16a15.3,15.3,0,0,0-18.63-6.68,16.85,16.85,0,0,1,6.52,7.73s.24.6.26.66a17.09,17.09,0,0,1,1.07,5.56v.75h0c0,.53,0,1-.11,1.56a15.39,15.39,0,0,0,12.93-1.49A15.06,15.06,0,0,0,71.32,456.16Z"/><path class="cls-3" d="M51.52,452.87l-.61.29.52.38C51.47,453.32,51.5,453.09,51.52,452.87Z"/><path class="cls-3" d="M51.25,454.54a11.71,11.71,0,0,0-1.29-.93c-.38.16-.77.32-1.16.45h0A16.3,16.3,0,0,1,34,451.84a15.33,15.33,0,0,0-5.77,12.42,15.29,15.29,0,0,0,23-9.72Z"/><path class="cls-3" d="M50.12,449.56l.59-.27-.5-.36Q50.15,449.25,50.12,449.56Z"/><path class="cls-3" d="M73.37,438.22a15.31,15.31,0,0,0-23,9.72,11,11,0,0,0,1.3.93,15.75,15.75,0,0,1,1.62-.6.15.15,0,0,0,.08,0,16.36,16.36,0,0,1,14.22,2.4,15.37,15.37,0,0,0,5.77-12.42Z"/><path class="cls-3" d="M49,453a16.78,16.78,0,0,1-6.52-7.72h0l-.26-.66h0a16.82,16.82,0,0,1-1.06-5.56v-.76c0-.52,0-1,.1-1.55a15.33,15.33,0,0,0-12.93,1.48A15.29,15.29,0,0,0,49,453Z"/><path class="cls-1" d="M58.39,470.06s.25-.63.25-.64a15.54,15.54,0,0,0,1-5.26v-.71a15.9,15.9,0,0,0-1-5.27s-.23-.58-.25-.63a15.9,15.9,0,0,0-6.78-7.68,12.92,12.92,0,0,1-4.77-4.8c-.23-.42-.67-1.38-.83-1.76a12.77,12.77,0,0,1-.86-4.92,12.55,12.55,0,0,1,1.11-5c.16-.35.59-1.15.61-1.2l.16-.28h0a12.87,12.87,0,0,1,3.78-4,12.82,12.82,0,0,1,4,4.32,13.17,13.17,0,0,1,1.63,5.22,14.42,14.42,0,0,1,3-1.55A16.24,16.24,0,0,0,57,429.88a15.82,15.82,0,0,0-5.43-5.14c-.2-.12-.41-.23-.64-.35l-.15-.08-.15.08-.64.35a16,16,0,0,0-6.78,7.68s-.24.62-.25.64a15.5,15.5,0,0,0-1,5.26V439a15.79,15.79,0,0,0,1,5.26l.25.64A16,16,0,0,0,50,452.62a13,13,0,0,1,4.77,4.79c.24.43.67,1.39.84,1.77a13.07,13.07,0,0,1,.86,4.91,12.83,12.83,0,0,1-1.12,5c-.16.34-.58,1.15-.61,1.2l-.16.27h0a12.79,12.79,0,0,1-3.78,4,12.89,12.89,0,0,1-5.58-9.14,27.24,27.24,0,0,1-3,1.49,16.26,16.26,0,0,0,2.32,5.74A15.73,15.73,0,0,0,50,477.75l.64.36.15.07.13-.09c.24-.12.44-.23.64-.35A15.91,15.91,0,0,0,58.39,470.06Z"/><path class="cls-1" d="M92.6,414.4a4.17,4.17,0,0,1,1.81.36,2.65,2.65,0,0,1,1.17,1,3.31,3.31,0,0,1,0,3.19,2.71,2.71,0,0,1-1.17,1,4.17,4.17,0,0,1-1.81.36H90.66v3.26H88.73V414.4Zm-.3,4.43a2,2,0,0,0,1.3-.37,1.35,1.35,0,0,0,.43-1.09,1.32,1.32,0,0,0-.43-1.08,1.94,1.94,0,0,0-1.3-.37H90.66v2.91Z"/><path class="cls-1" d="M101.53,419.16a1.17,1.17,0,0,0-1.24-1.27,1.55,1.55,0,0,0-.91.27,1.51,1.51,0,0,0-.57.88l-1.64-.51a2.59,2.59,0,0,1,1-1.48,3.76,3.76,0,0,1,2.16-.56,4.17,4.17,0,0,1,1.61.29,2.32,2.32,0,0,1,1.06.86,2.49,2.49,0,0,1,.39,1.44v2.83c0,.36.17.53.5.53a1.33,1.33,0,0,0,.45-.07l-.11,1.19a2.08,2.08,0,0,1-.91.18,2.23,2.23,0,0,1-.88-.17,1.28,1.28,0,0,1-.61-.51,1.51,1.51,0,0,1-.23-.86v-.05l.34-.06a1.56,1.56,0,0,1-.46.9,2.47,2.47,0,0,1-.92.57,3.25,3.25,0,0,1-1.11.2,3.29,3.29,0,0,1-1.23-.22,1.74,1.74,0,0,1-.79-.64,1.78,1.78,0,0,1-.28-1,1.74,1.74,0,0,1,.5-1.28,2.85,2.85,0,0,1,1.44-.68l2.62-.53v1.19l-1.67.34a2.12,2.12,0,0,0-.72.25.58.58,0,0,0-.25.53.61.61,0,0,0,.26.53,1.05,1.05,0,0,0,.62.18,2.12,2.12,0,0,0,.57-.07,1.68,1.68,0,0,0,.51-.22,1.09,1.09,0,0,0,.34-.42,1.41,1.41,0,0,0,.13-.64Z"/><path class="cls-1" d="M111.69,416.63l-2.82,7.42a5.81,5.81,0,0,1-.74,1.5,2.4,2.4,0,0,1-.95.81,3,3,0,0,1-1.28.26,3.5,3.5,0,0,1-1-.14,3,3,0,0,1-.79-.34l.41-1.38a1.7,1.7,0,0,0,.56.3,2.26,2.26,0,0,0,.67.09,1.22,1.22,0,0,0,.67-.17,1.26,1.26,0,0,0,.49-.67l.23-.6-.76-1.81-2.14-5.27h2.12l1.33,4.19.36,1.4.43-1.48,1.27-4.11Z"/><path class="cls-1" d="M125.42,416.63h2l-2.23,7H123l-1.53-4.74L120,423.61h-2.21l-2.23-7h2L119,422l1.55-5.35h1.9L124,422Z"/><path class="cls-1" d="M129.6,415.63a1.33,1.33,0,0,1-.89-.26,1,1,0,0,1-.29-.76,1,1,0,0,1,.29-.77,1.28,1.28,0,0,1,.89-.26,1.31,1.31,0,0,1,.9.26,1,1,0,0,1,.29.77,1,1,0,0,1-.29.76A1.36,1.36,0,0,1,129.6,415.63Zm1,1v7h-1.91v-7Z"/><path class="cls-1" d="M137.28,416.63v1.43h-5.43v-1.43Zm-2.23-2.13v6.84a.92.92,0,0,0,.26.73,1,1,0,0,0,.7.23,1.65,1.65,0,0,0,.62-.1,1.61,1.61,0,0,0,.47-.29l.31,1.27a2.45,2.45,0,0,1-.84.42,3.67,3.67,0,0,1-1.06.16,3.39,3.39,0,0,1-1.24-.22,1.72,1.72,0,0,1-.83-.67,2.18,2.18,0,0,1-.3-1.22V415Z"/><path class="cls-1" d="M138.69,423.61v-10h1.91v4.24a2.32,2.32,0,0,1,.93-1,2.75,2.75,0,0,1,1.32-.33,2.92,2.92,0,0,1,1.29.28,2.11,2.11,0,0,1,.9.85,2.89,2.89,0,0,1,.33,1.42v4.57h-1.92v-4a1.73,1.73,0,0,0-.35-1.26,1.25,1.25,0,0,0-.89-.34,1.72,1.72,0,0,0-.77.19,1.39,1.39,0,0,0-.6.62,2.24,2.24,0,0,0-.24,1.12v3.68Z"/><path class="cls-2" d="M47.82,529.32h-5v2.33h3.92v1.56H42.85V537H40.92v-9.21h6.9Z"/><path class="cls-2" d="M51.73,529.86a3.82,3.82,0,0,1,1.86.44,3.07,3.07,0,0,1,1.26,1.24,4.45,4.45,0,0,1,0,3.9,3.1,3.1,0,0,1-1.26,1.25,3.81,3.81,0,0,1-1.86.43,3.87,3.87,0,0,1-1.86-.43,3.1,3.1,0,0,1-1.26-1.25,4.45,4.45,0,0,1,0-3.9,3.07,3.07,0,0,1,1.26-1.24A3.87,3.87,0,0,1,51.73,529.86Zm0,1.43a1.63,1.63,0,0,0-.9.24,1.55,1.55,0,0,0-.56.73,3.37,3.37,0,0,0-.2,1.23,3.29,3.29,0,0,0,.2,1.23,1.45,1.45,0,0,0,.56.73,1.73,1.73,0,0,0,1.79,0,1.51,1.51,0,0,0,.56-.73,3.29,3.29,0,0,0,.2-1.23,3.37,3.37,0,0,0-.2-1.23,1.44,1.44,0,0,0-1.45-1Z"/><path class="cls-2" d="M56.91,537v-7h1.66l.13,1.37a2.49,2.49,0,0,1,.81-1.12,2.25,2.25,0,0,1,1.35-.39,1.88,1.88,0,0,1,.43,0,.86.86,0,0,1,.32.11l-.22,1.6a1.42,1.42,0,0,0-.34-.08,3.74,3.74,0,0,0-.52,0,1.8,1.8,0,0,0-.81.2,1.68,1.68,0,0,0-.65.62,2,2,0,0,0-.25,1V537Z"/><path class="cls-2" d="M66.82,539.91V530h1.72l.13,2.22-.24-.25a2.74,2.74,0,0,1,.47-1.09,2.33,2.33,0,0,1,.87-.74,2.45,2.45,0,0,1,1.18-.28,2.77,2.77,0,0,1,1.53.44,3,3,0,0,1,1,1.23,5.16,5.16,0,0,1,0,3.91,3,3,0,0,1-1.06,1.25,2.83,2.83,0,0,1-1.55.43,2.32,2.32,0,0,1-1.53-.51,2.68,2.68,0,0,1-.83-1.3l.18-.3v4.9Zm3.53-4.25a1.47,1.47,0,0,0,1.21-.55,2.58,2.58,0,0,0,.44-1.62,2.64,2.64,0,0,0-.42-1.61,1.44,1.44,0,0,0-1.2-.55,1.5,1.5,0,0,0-.86.26,1.75,1.75,0,0,0-.58.74,2.9,2.9,0,0,0-.21,1.16,3.07,3.07,0,0,0,.2,1.15,1.55,1.55,0,0,0,.57.76A1.45,1.45,0,0,0,70.35,535.66Z"/><path class="cls-2" d="M78.81,537.12a4.06,4.06,0,0,1-1.92-.43,3.07,3.07,0,0,1-1.26-1.24,4.47,4.47,0,0,1,0-3.91,3.11,3.11,0,0,1,1.25-1.24,3.82,3.82,0,0,1,1.84-.44,3.63,3.63,0,0,1,1.8.43,2.87,2.87,0,0,1,1.13,1.16,3.49,3.49,0,0,1,.39,1.67c0,.18,0,.36,0,.53a2.87,2.87,0,0,1,0,.44H76.41v-1.32h4.74l-.93.33a2.09,2.09,0,0,0-.39-1.35,1.39,1.39,0,0,0-1.13-.48,1.67,1.67,0,0,0-.91.25,1.53,1.53,0,0,0-.58.75,3.44,3.44,0,0,0-.2,1.25,3,3,0,0,0,.22,1.22,1.56,1.56,0,0,0,.61.72,1.85,1.85,0,0,0,1,.24,1.81,1.81,0,0,0,1-.24,1.68,1.68,0,0,0,.59-.65l1.52.58a2.42,2.42,0,0,1-.68.94,3,3,0,0,1-1.07.59A4.18,4.18,0,0,1,78.81,537.12Z"/><path class="cls-2" d="M86.84,529.86a3.82,3.82,0,0,1,1.86.44A3.07,3.07,0,0,1,90,531.54a4.45,4.45,0,0,1,0,3.9,3.1,3.1,0,0,1-1.26,1.25,3.81,3.81,0,0,1-1.86.43,3.87,3.87,0,0,1-1.86-.43,3.1,3.1,0,0,1-1.26-1.25,4.45,4.45,0,0,1,0-3.9A3.07,3.07,0,0,1,85,530.3,3.87,3.87,0,0,1,86.84,529.86Zm0,1.43a1.63,1.63,0,0,0-.9.24,1.49,1.49,0,0,0-.56.73,3.17,3.17,0,0,0-.2,1.23,3.1,3.1,0,0,0,.2,1.23,1.4,1.4,0,0,0,.56.73,1.73,1.73,0,0,0,1.79,0,1.51,1.51,0,0,0,.56-.73,3.29,3.29,0,0,0,.2-1.23,3.37,3.37,0,0,0-.2-1.23,1.44,1.44,0,0,0-1.45-1Z"/><path class="cls-2" d="M92,539.91V530h1.72l.12,2.22-.23-.25a2.73,2.73,0,0,1,.46-1.09,2.56,2.56,0,0,1,2.06-1,2.71,2.71,0,0,1,1.52.44,3,3,0,0,1,1.06,1.23,4.61,4.61,0,0,1,.38,2,4.51,4.51,0,0,1-.39,2,3,3,0,0,1-1.07,1.25,2.77,2.77,0,0,1-1.54.43,2.32,2.32,0,0,1-1.53-.51,2.68,2.68,0,0,1-.83-1.3l.18-.3v4.9Zm3.53-4.25a1.48,1.48,0,0,0,1.21-.55,3.22,3.22,0,0,0,0-3.23,1.4,1.4,0,0,0-1.19-.55,1.48,1.48,0,0,0-.86.26,1.68,1.68,0,0,0-.58.74,2.9,2.9,0,0,0-.21,1.16,3.07,3.07,0,0,0,.2,1.15,1.6,1.6,0,0,0,.56.76A1.5,1.5,0,0,0,95.55,535.66Z"/><path class="cls-2" d="M102.66,527v7.88a1,1,0,0,0,.17.69.68.68,0,0,0,.55.19,2.06,2.06,0,0,0,.39,0,3.63,3.63,0,0,0,.4-.11l-.17,1.26a2.51,2.51,0,0,1-.59.22,3.49,3.49,0,0,1-.71.07,2,2,0,0,1-1.49-.49,2.27,2.27,0,0,1-.46-1.59V527Z"/><path class="cls-2" d="M108.46,537.12a4,4,0,0,1-1.91-.43,3,3,0,0,1-1.27-1.24,4.56,4.56,0,0,1,0-3.91,3.11,3.11,0,0,1,1.25-1.24,3.82,3.82,0,0,1,1.84-.44,3.63,3.63,0,0,1,1.8.43,2.87,2.87,0,0,1,1.13,1.16,3.49,3.49,0,0,1,.39,1.67c0,.18,0,.36,0,.53s0,.31-.05.44h-5.57v-1.32h4.74l-.93.33a2.09,2.09,0,0,0-.39-1.35,1.39,1.39,0,0,0-1.13-.48,1.67,1.67,0,0,0-.91.25,1.53,1.53,0,0,0-.58.75,3.44,3.44,0,0,0-.2,1.25,3,3,0,0,0,.22,1.22,1.52,1.52,0,0,0,.62.72,1.79,1.79,0,0,0,1,.24,1.81,1.81,0,0,0,1-.24,1.68,1.68,0,0,0,.59-.65l1.52.58a2.42,2.42,0,0,1-.68.94,3,3,0,0,1-1.07.59A4.18,4.18,0,0,1,108.46,537.12Z"/><path class="cls-2" d="M121.56,532.53a1.26,1.26,0,0,0-.34-.94,1.25,1.25,0,0,0-.9-.33,1.62,1.62,0,0,0-.91.26,1.58,1.58,0,0,0-.57.88l-1.64-.5a2.56,2.56,0,0,1,1-1.48,3.76,3.76,0,0,1,2.16-.56,4.17,4.17,0,0,1,1.61.29,2.32,2.32,0,0,1,1.06.86,2.49,2.49,0,0,1,.39,1.44v2.83c0,.35.16.53.5.53a1.33,1.33,0,0,0,.45-.07l-.12,1.19a2,2,0,0,1-.9.18,2.23,2.23,0,0,1-.88-.17,1.35,1.35,0,0,1-.62-.51,1.61,1.61,0,0,1-.22-.86v-.05l.34-.06a1.58,1.58,0,0,1-.47.9,2.43,2.43,0,0,1-.91.57,3.24,3.24,0,0,1-1.11.19,3.3,3.3,0,0,1-1.23-.21,1.74,1.74,0,0,1-.79-.64,1.78,1.78,0,0,1-.28-1,1.7,1.7,0,0,1,.5-1.28,2.77,2.77,0,0,1,1.44-.68l2.62-.53v1.19l-1.68.33a2.56,2.56,0,0,0-.72.26.6.6,0,0,0-.24.53.61.61,0,0,0,.26.53,1.05,1.05,0,0,0,.62.18,2.17,2.17,0,0,0,.57-.07,1.68,1.68,0,0,0,.51-.22,1.17,1.17,0,0,0,.34-.42,1.42,1.42,0,0,0,.13-.65Z"/><path class="cls-2" d="M125.59,537v-7h1.72l.11,2.1-.23-.23a2.77,2.77,0,0,1,.52-1.12,2.41,2.41,0,0,1,.89-.66,2.91,2.91,0,0,1,1.15-.23,3,3,0,0,1,1.3.28,2.14,2.14,0,0,1,.89.85,2.75,2.75,0,0,1,.33,1.41V537h-1.92v-4a1.74,1.74,0,0,0-.34-1.24,1.3,1.3,0,0,0-.91-.34,1.59,1.59,0,0,0-.76.19,1.41,1.41,0,0,0-.6.61,2.23,2.23,0,0,0-.23,1.11V537Z"/><path class="cls-2" d="M136.87,537.12a2.79,2.79,0,0,1-1.54-.43,3,3,0,0,1-1.06-1.24,5.12,5.12,0,0,1,0-3.92,2.88,2.88,0,0,1,2.65-1.67,2.26,2.26,0,0,1,1.53.53,2.55,2.55,0,0,1,.78,1.37l-.18.23v-5H141v10h-1.72l-.12-2.12.22.11a2.49,2.49,0,0,1-.43,1.14,2.54,2.54,0,0,1-.88.75A2.72,2.72,0,0,1,136.87,537.12Zm.56-1.46a1.49,1.49,0,0,0,.87-.26,1.65,1.65,0,0,0,.56-.76,3.14,3.14,0,0,0,.21-1.2,3,3,0,0,0-.2-1.14,1.64,1.64,0,0,0-.56-.72,1.42,1.42,0,0,0-.85-.25,1.46,1.46,0,0,0-1.22.55,3.22,3.22,0,0,0,0,3.23A1.46,1.46,0,0,0,137.43,535.66Z"/><path class="cls-2" d="M147.26,539.91V530H149l.12,2.22-.23-.25a2.88,2.88,0,0,1,.46-1.09,2.56,2.56,0,0,1,2.06-1,2.71,2.71,0,0,1,1.52.44,3,3,0,0,1,1.06,1.23,4.61,4.61,0,0,1,.38,2,4.51,4.51,0,0,1-.39,2,3,3,0,0,1-1.07,1.25,2.77,2.77,0,0,1-1.54.43,2.32,2.32,0,0,1-1.53-.51,2.68,2.68,0,0,1-.83-1.3l.18-.3v4.9Zm3.53-4.25a1.48,1.48,0,0,0,1.21-.55,3.22,3.22,0,0,0,0-3.23,1.4,1.4,0,0,0-1.19-.55,1.48,1.48,0,0,0-.86.26,1.68,1.68,0,0,0-.58.74,2.9,2.9,0,0,0-.21,1.16,3.07,3.07,0,0,0,.2,1.15,1.6,1.6,0,0,0,.56.76A1.5,1.5,0,0,0,150.79,535.66Z"/><path class="cls-2" d="M157.9,527v7.88a1,1,0,0,0,.17.69.68.68,0,0,0,.55.19,2.06,2.06,0,0,0,.39,0,3.63,3.63,0,0,0,.4-.11l-.17,1.26a2.51,2.51,0,0,1-.59.22,3.49,3.49,0,0,1-.71.07,2,2,0,0,1-1.49-.49A2.27,2.27,0,0,1,156,535V527Z"/><path class="cls-2" d="M164.51,532.53a1.26,1.26,0,0,0-.34-.94,1.25,1.25,0,0,0-.9-.33,1.67,1.67,0,0,0-.91.26,1.63,1.63,0,0,0-.57.88l-1.63-.5a2.51,2.51,0,0,1,1-1.48,3.74,3.74,0,0,1,2.16-.56,4.15,4.15,0,0,1,1.6.29A2.35,2.35,0,0,1,166,531a2.57,2.57,0,0,1,.38,1.44v2.83a.46.46,0,0,0,.51.53,1.31,1.31,0,0,0,.44-.07l-.11,1.19a2,2,0,0,1-.91.18,2.26,2.26,0,0,1-.88-.17,1.33,1.33,0,0,1-.61-.51,1.53,1.53,0,0,1-.22-.86v-.05l.33-.06a1.56,1.56,0,0,1-.46.9,2.51,2.51,0,0,1-.91.57,3.52,3.52,0,0,1-2.34,0,1.77,1.77,0,0,1-.8-.64,1.86,1.86,0,0,1-.28-1,1.71,1.71,0,0,1,.51-1.28,2.78,2.78,0,0,1,1.43-.68l2.63-.53,0,1.19-1.67.33a2.34,2.34,0,0,0-.72.26.6.6,0,0,0-.24.53.61.61,0,0,0,.25.53,1.09,1.09,0,0,0,.63.18,2.22,2.22,0,0,0,.57-.07,1.73,1.73,0,0,0,.5-.22,1.1,1.1,0,0,0,.35-.42,1.57,1.57,0,0,0,.12-.65Z"/><path class="cls-2" d="M168.55,537v-7h1.72l.11,2.1-.24-.23a2.78,2.78,0,0,1,.53-1.12,2.33,2.33,0,0,1,.89-.66,2.88,2.88,0,0,1,1.15-.23,3,3,0,0,1,1.29.28,2.08,2.08,0,0,1,.89.85,2.75,2.75,0,0,1,.33,1.41V537h-1.91v-4a1.73,1.73,0,0,0-.35-1.24,1.26,1.26,0,0,0-.91-.34,1.61,1.61,0,0,0-.76.19,1.53,1.53,0,0,0-.6.61,2.35,2.35,0,0,0-.23,1.11V537Z"/><path class="cls-2" d="M180.43,537.12a4,4,0,0,1-1.92-.43,3,3,0,0,1-1.26-1.24,4.47,4.47,0,0,1,0-3.91,3,3,0,0,1,1.25-1.24,3.75,3.75,0,0,1,1.83-.44,3.58,3.58,0,0,1,1.8.43,2.8,2.8,0,0,1,1.13,1.16,3.49,3.49,0,0,1,.4,1.67c0,.18,0,.36,0,.53s0,.31,0,.44H178v-1.32h4.73l-.92.33a2,2,0,0,0-.4-1.35,1.37,1.37,0,0,0-1.12-.48,1.71,1.71,0,0,0-.92.25,1.51,1.51,0,0,0-.57.75,3.24,3.24,0,0,0-.2,1.25,3,3,0,0,0,.21,1.22,1.58,1.58,0,0,0,.62.72,2.1,2.1,0,0,0,1.95,0,1.66,1.66,0,0,0,.58-.65l1.52.58a2.5,2.5,0,0,1-.67.94,3,3,0,0,1-1.08.59A4.08,4.08,0,0,1,180.43,537.12Z"/><path class="cls-2" d="M189.85,530v1.43h-5.43V530Zm-2.23-2.13v6.84a.9.9,0,0,0,.26.73,1,1,0,0,0,.7.23,1.65,1.65,0,0,0,.62-.1,1.61,1.61,0,0,0,.47-.29l.31,1.27a2.55,2.55,0,0,1-.84.42,3.72,3.72,0,0,1-1.06.15,3.39,3.39,0,0,1-1.24-.21,1.67,1.67,0,0,1-.83-.67,2.19,2.19,0,0,1-.3-1.23V528.4Z"/></g></g></svg>