<svg xmlns="http://www.w3.org/2000/svg" viewBox="0 0 97.46 87.77"><defs><style>.cls-1,.cls-2{fill:#2ff141;}.cls-1{opacity:0.4;}</style></defs><title>Risorsa 712</title><g id="Livello_2" data-name="Livello 2"><g id="Livello_1-2" data-name="Livello 1"><path class="cls-1" d="M49.53,43.75C56,50,63.09,56.92,69.53,63.21a6.51,6.51,0,0,0,8.69-.12c2.15-2.16,1.93-5.28-.53-7.76L63.59,41.16l-.34-.34c-1.65-1.66-3.3-3.32-4.93-5l1.21-1.23c.44.41,1.62,1.62,1.67,1.67L64,39.09q7.51,7.56,15,15.1A6,6,0,0,0,81,55.5a5.71,5.71,0,0,0,6.76-2.07c1.39-2.12,1-4.7-1-6.73l-7-7.18c-4.67-4.8-9.5-9.77-14.28-14.63-1.65-1.67-3.41-3.3-5.11-4.87l-2.17-2-.09.1c-.08.1-.17.21-.27.3-4.42,4.41-9,9-13.5,13.43a6.62,6.62,0,0,1-9.62.15,7.16,7.16,0,0,1-2.25-5,6.82,6.82,0,0,1,2.14-4.87C36,20.73,37.46,19.34,38.86,18c1.24-1.19,2.49-2.38,3.71-3.59s2.2-2.26,3.33-3.47l1.22-1.3-.79-.73c-.71-.65-1.42-1.3-2.11-2C37.66.71,29.65-1.35,20.4.86,15.72,2,11.58,4.56,7,9.25a24.34,24.34,0,0,0-.77,33.32l3,3.39,2.28,2.54.15.15.2-.35A7.24,7.24,0,0,1,13,46.76l.89-.9c2.19-2.2,4.45-4.48,6.82-6.56a7.1,7.1,0,0,1,8.13-1,7.19,7.19,0,0,1,4.38,6.79A14.11,14.11,0,0,1,33,47.36l-.07.42a7.69,7.69,0,0,1,9.19,10,7.87,7.87,0,0,1,9.32,10,9,9,0,0,1,2-.23A7.55,7.55,0,0,1,60.29,72l.07.14a2.14,2.14,0,0,0,.29.48,5.61,5.61,0,0,0,4,1.75,5,5,0,0,0,3.63-1.25,6.36,6.36,0,0,0,2.25-4.44,5.15,5.15,0,0,0-1.7-3.71q-5.21-5.13-10.47-10.22L52.85,49.4c-1.12-1.09-3.54-3.39-4.65-4.49Z"/><path class="cls-2" d="M39.14,20.17,36,23.25A5.24,5.24,0,0,0,34.25,27a5.15,5.15,0,0,0,1.63,3.7c2.13,2.14,5.08,2.07,7.34-.16,4.14-4.1,9.05-9,14.07-14a1.89,1.89,0,0,1,1.26-.71h0a1.81,1.81,0,0,1,1.21.67q7,7.2,13.94,14.35l6,6.12,6.81,7,2.81,2.9a39.09,39.09,0,0,0,5.33-8.41c3.62-7.86,3.77-15.11.46-22.15-1.89-4-5-7.11-8-9.86A22.94,22.94,0,0,0,71.1.27,27.76,27.76,0,0,0,52.22,7.73C47.76,11.76,43.38,16,39.14,20.17Z"/><path class="cls-2" d="M40.34,60.62c-2.82,2.52-5.27,4.89-7.49,7.25a5.44,5.44,0,0,0-.94,6.4,5.54,5.54,0,0,0,4.9,3.46h.05a6.09,6.09,0,0,0,4.39-1.48c.54-.47,1-1,1.56-1.48l.58-.56,1.53-1.47c1.16-1.1,2.36-2.24,3.47-3.42a5.92,5.92,0,0,0,0-8.15A5.82,5.82,0,0,0,40.34,60.62Z"/><path class="cls-2" d="M14.8,47.34a5.55,5.55,0,0,0-1.91,3.46h0c0,3.33,1.09,5.29,3.47,6.36a5.68,5.68,0,0,0,6.59-1.11c2.37-2.19,4.72-4.52,6.73-6.52a5.94,5.94,0,0,0-4.1-10.24,6.16,6.16,0,0,0-4.29,1.76l-.85.82Z"/><path class="cls-2" d="M53.35,69.3a5.86,5.86,0,0,0-4,1.6c-2.23,2.1-4.5,4.29-6.92,6.68a5.82,5.82,0,0,0-1.32,6.55c1,2.31,2.9,3.44,6,3.64l.66-.24a7.08,7.08,0,0,0,2.34-1.16c2.5-2.16,5-4.55,7.59-7.29a5.88,5.88,0,0,0-4.39-9.78Z"/><path class="cls-2" d="M39.08,51.07a5.83,5.83,0,0,0-4.18-1.79A6.09,6.09,0,0,0,30.68,51c-1.69,1.62-3.36,3.26-5,4.9l-1.78,1.74a5.33,5.33,0,0,0-1.68,4.08h0a5.49,5.49,0,0,0,3.4,5.39,5.51,5.51,0,0,0,6.48-1.08c2.34-2.18,4.64-4.4,6.84-6.6A5.9,5.9,0,0,0,39.08,51.07Z"/></g></g></svg>