<svg xmlns="http://www.w3.org/2000/svg" viewBox="0 0 112.91 97.94"><defs><style>.cls-1,.cls-2{fill:#2ff141;}.cls-2{opacity:0.3;}</style></defs><title>Risorsa 812</title><g id="Livello_2" data-name="Livello 2"><g id="Livello_1-2" data-name="Livello 1"><path class="cls-1" d="M66.77,84A68.25,68.25,0,0,0,73,79.67C76.07,77,78.73,74,76.66,69.34a3.44,3.44,0,0,1,.29-2.62c2.64-4.92,2.84-10.31,3.16-15.66.15-2.46-1.12-3.64-3.71-3.77-3.68-.19-7.35-.63-11-1.11-1.81-.24-3.09-1.21-3-3.34s.86-3.66,3.27-4.11C71.8,37.58,78,36.65,83.89,35a27.63,27.63,0,0,0,18.92-17c1.22-3,2.48-6,3.84-8.92.76-1.65,1.49-3.69,4-3s2.34,2.9,2.27,4.79c-.29,7.43-1.79,14.79-6,20.84-4.77,6.81-4.51,14-4,21.54a129.26,129.26,0,0,1,.29,16.1C102.47,79,93.43,87.32,83.41,88A29.29,29.29,0,0,1,66.77,84Z"/><path class="cls-2" d="M48.58,72.11c-2.2-1.49-4.43-2.94-6.6-4.48-2.85-2-3.45-2.1-6.56-.57-.73-2.2.57-3.43,1.92-5,3.53-4,6.88-8.2,10-12.51a10,10,0,0,0,1.53-5,5.17,5.17,0,0,0-3.13-5.15c-2.06-1-3.62.12-5,1.44-1.75,1.72-3.33,3.62-5.47,6a14.48,14.48,0,0,1,0-2.71c1.29-5.13-.36-9-4.2-12.65A193.44,193.44,0,0,1,17.54,17a8.94,8.94,0,0,1-1.81-5.34c-.06-3.55,2.85-5.05,6-3.34a8.89,8.89,0,0,1,2.59,2.05c9,11.07,21.36,15.36,34.91,17.53,6.74,1.07,13.36,2.88,20,4.43A15.65,15.65,0,0,1,82.1,33.6l0,1c-4.86.74-9.7,1.7-14.59,2.17-5.49.52-5.69.31-6.32,5.82-.41,3.57-.23,7.21-.3,10.83,0,1.38,0,2.76,0,4.38-4.13-.58-7.91.11-10.67,3.24S47.33,67.83,48.58,72.11Z"/><path class="cls-2" d="M30.57,91.27a61.74,61.74,0,0,1-18.7-14.34,3.52,3.52,0,0,1-.54-2.58c1.17-7.1-.48-12.95-5.86-18.22-4-4-5.33-9.69-5.46-15.37a5,5,0,0,1,1.88-3.8c1.75-1.08,2.46.89,3.2,2.11,2,3.32,3.67,6.9,6,10,6.46,8.45,16.34,8.9,23.7,1.25,2.31-2.4,4.39-5,6.57-7.54,1.18-1.36,2.6-2.31,4.36-1.24a3.33,3.33,0,0,1,1.33,4.6c-1.29,2.64-2.46,5.46-4.3,7.69-2.93,3.55-6.44,6.62-9.56,10A5.45,5.45,0,0,0,32,66.93c-.36,5.46-.53,10.92-.82,16.38C31,85.8,30.8,88.29,30.57,91.27Z"/><path class="cls-2" d="M63.57,97.94l-16.72-.83c0-4.29-.07-8.07,0-11.85.06-2.53-.93-4.06-3-5.75-2.68-2.23-4.67-5.34-6.7-8.25-.46-.66.15-2.06.27-3.11a11,11,0,0,1,3.11.42,13.86,13.86,0,0,1,3.46,2.29c5.94,5.21,12.73,6,20,3.9,2.74-.79,5.36-2,8.08-2.9a15.67,15.67,0,0,1,3.38-.33c-.18,1.3.11,3.11-.64,3.79a48.79,48.79,0,0,1-8.51,6.53c-2.19,1.26-3,2.58-2.88,5C63.7,90.26,63.57,93.69,63.57,97.94Z"/><path class="cls-2" d="M54.42,23.4a9.71,9.71,0,0,1-9.72-9.7c.07-5.29,5.19-10.25,10.53-10.2a9.22,9.22,0,0,1,8.95,9.17C64.22,18.54,59.81,23.38,54.42,23.4Z"/><path class="cls-1" d="M84.41,11.63a8.94,8.94,0,1,1-8.85,9.09A8.86,8.86,0,0,1,84.41,11.63Z"/><path class="cls-2" d="M79.34,30.46c-2.92-.84-5.87-1.57-8.73-2.58a3.35,3.35,0,0,1-1.71-2.12,11.15,11.15,0,0,1,0-3.59c.41-4.5.26-8.59-3.43-12.2-1.71-1.67-2.06-4.82-2.74-7.38-.19-.73.6-1.72.95-2.59a8.64,8.64,0,0,1,2,1.55c1.27,1.81,2.17,3.91,3.59,5.58,3.29,3.88,8.32,4,12,.49,1.39-1.35,2.5-3,3.91-4.32a6.7,6.7,0,0,1,2.35-.89,6.61,6.61,0,0,1,.75,2.43,7.23,7.23,0,0,1-5.64,5.83,9.82,9.82,0,0,0-7.65,6.92,9.46,9.46,0,0,0,2.68,10.16,11.74,11.74,0,0,0,3,1.54Z"/><path class="cls-2" d="M16.78,45.54c0-4.54,3-7.67,7.38-7.59,3.81.07,7.24,3.37,7.23,7,0,4.47-3.3,8.26-7.25,8.34A7.46,7.46,0,0,1,16.78,45.54Z"/><path class="cls-2" d="M64.21,66.34a6.78,6.78,0,0,1-6.55,7.13,7,7,0,0,1-7.12-6.66,6.57,6.57,0,0,1,6.7-6.89C61.63,59.88,64.18,62.23,64.21,66.34Z"/><path class="cls-2" d="M42.86,11.36l2.36,11.17-.63.63-9.17-4.8c-.16-.08-.41-.22-.42-.34-.3-3.7-4-4.8-5.67-7.41a7,7,0,0,1-1-2.25c-.37-1.75.48-2.25,2-1.59a8.15,8.15,0,0,1,2.09,1.34A12.33,12.33,0,0,0,42.86,11.36Z"/><path class="cls-2" d="M41.11,1.31c2.61,0,4.25,1.44,4.34,3.93a4.37,4.37,0,0,1-4,4.73,4.51,4.51,0,0,1-4.6-4.21A4.24,4.24,0,0,1,41.11,1.31Z"/><path class="cls-2" d="M75.63,8.86a4.09,4.09,0,0,1-3.76-4.32,3.87,3.87,0,0,1,4-4,4.16,4.16,0,0,1,3.89,3.93C79.7,6.79,77.68,8.94,75.63,8.86Z"/></g></g></svg>