<svg xmlns="http://www.w3.org/2000/svg" viewBox="0 0 19.69 21"><defs><style>.cls-1{fill:#2b4835;}</style></defs><title>Risorsa 1012</title><g id="Livello_2" data-name="Livello 2"><g id="contents"><path class="cls-1" d="M2.24,21l-.86-.32L11,11.06l3.86,3.56L11.47,16.5,4.3,20.45c-.39.21-.81.37-1.21.55Z"/><path class="cls-1" d="M3.08,0c1.49.78,3,1.55,4.48,2.35C9.72,3.52,11.88,4.73,14,5.89L10.8,9.07,1.33.33,2.24,0Z"/><path class="cls-1" d="M9.91,10.05.27,19.7A6.61,6.61,0,0,1,0,18.44Q0,10.51,0,2.57A7.3,7.3,0,0,1,.3,1.19Z"/><path class="cls-1" d="M15.4,6.67c1,.55,2.07,1.1,3.1,1.73a2.43,2.43,0,0,1,.08,4.13c-.73.49-1.53.88-2.31,1.3a.39.39,0,0,1-.35,0c-1.34-1.22-2.67-2.45-4-3.65Z"/></g></g></svg>