<svg xmlns="http://www.w3.org/2000/svg" viewBox="0 0 20.22 24"><defs><style>.cls-1{fill:#2ff141;}</style></defs><title>Risorsa 1</title><g id="Livello_2" data-name="Livello 2"><g id="contents"><path id="path4" class="cls-1" d="M19.79,18.7A13,13,0,0,1,18.5,21a11.79,11.79,0,0,1-1.66,2A3.22,3.22,0,0,1,14.7,24a5.35,5.35,0,0,1-2-.47A5.66,5.66,0,0,0,10.61,23a5.85,5.85,0,0,0-2.18.47,5.88,5.88,0,0,1-1.89.5,3,3,0,0,1-2.18-1A12.38,12.38,0,0,1,2.61,21,14.38,14.38,0,0,1,.77,17.3,13.37,13.37,0,0,1,0,12.95,8,8,0,0,1,1,8.79,6.12,6.12,0,0,1,3.23,6.58a5.88,5.88,0,0,1,3-.83,7,7,0,0,1,2.29.53,7.35,7.35,0,0,0,1.81.53,10.85,10.85,0,0,0,2-.63A6.64,6.64,0,0,1,15,5.7a5.8,5.8,0,0,1,4.55,2.39,5.06,5.06,0,0,0-2.68,4.59,5.07,5.07,0,0,0,1.66,3.82,5.47,5.47,0,0,0,1.66,1.09q-.2.58-.42,1.11ZM15.16.48a5.12,5.12,0,0,1-1.31,3.36,4.47,4.47,0,0,1-3.71,1.83,3.74,3.74,0,0,1,0-.45A5.26,5.26,0,0,1,11.5,1.82,5.36,5.36,0,0,1,13.2.55,5.06,5.06,0,0,1,15.14,0a4.36,4.36,0,0,1,0,.48Z"/></g></g></svg>