<svg xmlns="http://www.w3.org/2000/svg" viewBox="0 0 103.43 110.67"><defs><style>.cls-1{fill:#2ff141;}</style></defs><title>Risorsa 512</title><g id="Livello_2" data-name="Livello 2"><g id="contents"><path class="cls-1" d="M51.62,69.48a14,14,0,1,1,14-14A14,14,0,0,1,51.62,69.48Zm0-27.12a13.1,13.1,0,1,0,13.1,13.1A13.12,13.12,0,0,0,51.62,42.35Z"/><path class="cls-1" d="M51.2,69.48c-3.85,0-6.87-6.16-6.87-14s3-14,6.87-14v.91c-3.23,0-6,6-6,13.1s2.73,13.1,6,13.1Z"/><path class="cls-1" d="M52.15,69.48v-.91c3.23,0,6-6,6-13.1s-2.73-13.1-6-13.1v-.91c3.85,0,6.87,6.16,6.87,14S56,69.48,52.15,69.48Z"/><rect class="cls-1" x="37.96" y="55.11" width="27.33" height="0.91"/></g><g id="content"><path class="cls-1" d="M51.39,16.33a8.17,8.17,0,1,1,8.17-8.17A8.18,8.18,0,0,1,51.39,16.33Zm0-15.42a7.25,7.25,0,1,0,7.25,7.25A7.26,7.26,0,0,0,51.39.91Z"/><path class="cls-1" d="M64,26.95c-2.77-5.2-7.48-8.3-12.59-8.3s-9.82,3.1-12.59,8.3L38,26.52c2.93-5.5,7.94-8.79,13.4-8.79S61.85,21,64.79,26.52Z"/><path class="cls-1" d="M51.39,100.06a8.17,8.17,0,1,1,8.17-8.17A8.18,8.18,0,0,1,51.39,100.06Zm0-15.42a7.25,7.25,0,1,0,7.25,7.25A7.26,7.26,0,0,0,51.39,84.64Z"/><path class="cls-1" d="M64,110.67c-2.77-5.2-7.48-8.3-12.59-8.3s-9.82,3.1-12.59,8.3l-.81-.43c2.93-5.5,7.94-8.79,13.4-8.79s10.46,3.28,13.39,8.79Z"/><path class="cls-1" d="M13.4,36.55a8.17,8.17,0,1,1,8.17-8.17A8.18,8.18,0,0,1,13.4,36.55Zm0-15.42a7.25,7.25,0,1,0,7.25,7.25A7.26,7.26,0,0,0,13.4,21.13Z"/><path class="cls-1" d="M.81,47.16,0,46.73c2.93-5.5,7.94-8.79,13.4-8.79s10.46,3.28,13.39,8.79l-.81.43c-2.77-5.2-7.48-8.3-12.59-8.3S3.58,42,.81,47.16Z"/><path class="cls-1" d="M90,36.55a8.17,8.17,0,1,1,8.17-8.17A8.18,8.18,0,0,1,90,36.55Zm0-15.42a7.25,7.25,0,1,0,7.25,7.25A7.26,7.26,0,0,0,90,21.13Z"/><path class="cls-1" d="M102.62,47.16c-2.77-5.2-7.48-8.3-12.59-8.3s-9.81,3.1-12.59,8.3l-.81-.43c2.93-5.5,7.94-8.79,13.39-8.79s10.46,3.28,13.4,8.79Z"/><path class="cls-1" d="M13.4,79.7a8.17,8.17,0,1,1,8.17-8.17A8.18,8.18,0,0,1,13.4,79.7Zm0-15.42a7.25,7.25,0,1,0,7.25,7.25A7.26,7.26,0,0,0,13.4,64.28Z"/><path class="cls-1" d="M.81,90.31,0,89.88c2.93-5.5,7.94-8.79,13.4-8.79s10.46,3.28,13.39,8.79l-.81.43C23.21,85.11,18.5,82,13.4,82S3.58,85.11.81,90.31Z"/><path class="cls-1" d="M90,77.77A8.17,8.17,0,1,1,98.2,69.6,8.18,8.18,0,0,1,90,77.77Zm0-15.42a7.25,7.25,0,1,0,7.25,7.25A7.26,7.26,0,0,0,90,62.35Z"/><path class="cls-1" d="M102.62,88.38c-2.77-5.2-7.48-8.3-12.59-8.3s-9.81,3.1-12.59,8.3l-.81-.43c2.93-5.5,7.94-8.79,13.39-8.79s10.46,3.28,13.4,8.79Z"/></g></g></svg>