<svg xmlns="http://www.w3.org/2000/svg" viewBox="0 0 30 30"><defs><style>.cls-1{fill:#2ff141;}.cls-2{fill:#2b4835;}</style></defs><title>Risorsa 17</title><g id="Livello_2" data-name="Livello 2"><g id="support"><circle class="cls-1" cx="15" cy="15" r="15"/><path class="cls-2" d="M19.09,20.41c1.13-.65,2.44-1,3.08-2.25-.1-.17-.21-.08-.32,0-.74.37-1.46.76-2.21,1.09a12.15,12.15,0,0,1-6.17.83A13.61,13.61,0,0,1,8.2,18.17C8,18,8,18,7.81,18.13a2.36,2.36,0,0,0,1,1.12c.61.36,1.24.68,1.86,1l.26.14-.44.55c-.2.24-.39.48-.6.71a.26.26,0,0,1-.2.11c-.83-.19-1.67-.35-2.49-.6a6.69,6.69,0,0,1-2.38-1.64,1.47,1.47,0,0,1-.45-1.41A33.44,33.44,0,0,1,5,13.66a23.57,23.57,0,0,1,1.79-5,1.87,1.87,0,0,1,.75-.75,12,12,0,0,1,4-1.54l.59-.13c.09.21,0,.29-.17.37C11,7,10,7.29,9,7.7A6.28,6.28,0,0,0,7.3,8.91c.2.18.37.08.55,0a16.21,16.21,0,0,1,3.44-1.36,16.28,16.28,0,0,1,5.82-.29,14.38,14.38,0,0,1,5,1.64.52.52,0,0,0,.65,0,1.39,1.39,0,0,1-.21-.1,8.53,8.53,0,0,0-2.91-1.66L18,6.59c-.18-.06-.22-.15-.16-.34l.26,0a13.15,13.15,0,0,1,3.3,1c.47.24.91.51,1.36.77A1.8,1.8,0,0,1,23.4,9a23.36,23.36,0,0,1,2.18,8.45c0,.46.07.92.1,1.38a.41.41,0,0,1-.06.25,8,8,0,0,1-2.57,2,12.18,12.18,0,0,1-2.72.68.23.23,0,0,1-.18-.06Zm-5.45-5.2a2.06,2.06,0,1,0-4.12,0,2.09,2.09,0,0,0,2.06,2.05A2.07,2.07,0,0,0,13.64,15.21Zm2.71,0a2.06,2.06,0,0,0,2,2.09,2.09,2.09,0,0,0,2.08-2.06,2.07,2.07,0,0,0-2.06-2.07A2,2,0,0,0,16.35,15.19Z"/></g></g></svg>