<svg xmlns="http://www.w3.org/2000/svg" viewBox="0 0 798.4 589.89"><defs><style>.cls-1{fill:#eaeaea;}</style></defs><title>Risorsa 3</title><g id="Livello_2" data-name="Livello 2"><g id="Livello_1-2" data-name="Livello 1"><path class="cls-1" d="M315.87,23.93c-18.09,4.3-35.53,7.93-52.69,12.62a379,379,0,0,0-98.46,42c-7.35,4.49-10.65,11.17-9.28,18.35,1.41,7.34,6.51,13.24,13.77,13.93,4.19.4,9.25-.35,12.81-2.46,67.92-40.13,142.21-56.12,220.06-56,64.49.06,126.75,13,185.44,40.68,9.47,4.47,18.55,9.8,27.65,15,9.88,5.63,20,3.82,25.38-4.88s2.48-18.88-7.21-24.78c-39.27-23.89-81.86-39.22-126.6-49-7.8-1.7-15.64-3.17-23.45-4.74C486,6.76,493.22-1.69,508.62.28c58.23,7.45,113.9,22.18,164.29,53.86,18.74,11.78,30,28.9,39.66,47.73C737.19,150,754,201.06,767.85,253.12c14.41,54,24.38,108.86,28.67,164.64,1.24,16.1,1.71,32.28,1.88,48.43a26.87,26.87,0,0,1-3.7,13.16c-14.54,24.85-35.21,43.74-59.28,59-38.21,24.3-80.28,38.6-124.51,46.94-10.61,2-21.42,3-32.16,4.3-7.65.91-13.49-2.14-18-8.44-9-12.62-18.2-25.08-27.3-37.62-.94-1.29-1.76-2.67-2.88-4.38,9.07-2.74,17.68-5.16,26.17-7.93,33.59-10.94,65.48-25.44,94.53-45.78a106.57,106.57,0,0,0,11-8.6,17.2,17.2,0,0,0-21.51-26.75c-45.94,34.66-98.57,53.13-154.47,62.85-74.43,12.95-148.35,10-221.2-10.76-35.27-10.08-68.71-24.41-98.91-45.61-2.59-1.82-5.06-3.8-7.57-5.73-7.79-6-18.09-5.05-24.21,2.22s-5.79,18.21,2.07,24.09a366,366,0,0,0,36.05,24.15c28.27,16.33,58.66,27.7,90.14,36.22,1.55.42,3.06,1,5.17,1.7-3.08,4.3-5.84,8.2-8.65,12.06-7,9.71-14.31,19.26-21.12,29.14-5,7.22-11.42,10.1-20.07,9.29-35.58-3.33-69.84-12.09-103-25.07C87.19,553.82,61.2,539.78,38.4,520.27,24.88,508.71,13,495.69,4.16,480.18a31.89,31.89,0,0,1-4.16-15C0,415,6.15,365.5,15.87,316.38,28.48,252.67,46.2,190.46,71.94,130.72c5.53-12.83,12.12-25.2,18.35-37.72,9-18.15,22.94-31.42,40.25-41.88C166.35,29.48,205.18,16,245.86,7.56c15.3-3.18,30.85-5.23,46.36-7.31C301.73-1,307.79,3,311.45,11.83,313.08,15.79,314.4,19.88,315.87,23.93ZM572.82,330.19c-.33-15.46-3.94-29.12-11.85-41.55-21-33-63.2-38.1-89.46-10.79-26.09,27.13-27.16,72.59-2.39,100.93,22.5,25.74,58.45,27.17,82.72,3.06C566.33,367.44,572.33,349.47,572.82,330.19ZM347,335.11c0-25.13-6.69-42.58-19.54-56.55-21.33-23.2-56.38-24.5-79.3-2.94-28.56,26.86-30.31,74.67-3.81,104.11,22.17,24.64,57.73,25.86,81.35,2.61C340.39,367.88,346.76,349.93,347,335.11Z"/></g></g></svg>