<svg xmlns="http://www.w3.org/2000/svg" viewBox="0 0 296.34 637"><defs><style>.cls-1{fill:#eaeaea;}</style></defs><title>Risorsa 1</title><g id="Livello_2" data-name="Livello 2"><g id="Livello_1-2" data-name="Livello 1"><path class="cls-1" d="M63,477.56c0-50.83-.06-101.66.1-152.49,0-4.75-1.22-6.32-6.13-6.24-17.16.28-34.33,0-51.49.19-4.06,0-5.5-1.1-5.49-5.31q.21-51.49,0-103C0,206.28,1.53,205,5.82,205c16.5.19,33,.07,49.49.07,7.69,0,7.69,0,7.7-7.45,0-24.66-.79-49.36.22-74,1.38-33.37,11.59-63.76,35.4-88.29,17.56-18.09,39.5-28.17,64.08-32.08A277.57,277.57,0,0,1,201.91.24c28.66-.44,57.33,0,86-.24,4.86,0,6.16,1.47,6.13,6.24-.19,33-.1,66-.1,99,0,6.63,0,6.65-6.47,6.66-21.33,0-42.66,0-64,0-15.75,0-26.39,10.45-26.53,26.28-.18,20.66,0,41.33-.16,62,0,4.18,1.59,5,5.32,5,29.33-.11,58.66-.07,88-.06,6.75,0,6.57,0,6,6.58-1.5,16.88-2.75,33.79-4.24,50.67-1.56,17.71-3.39,35.4-4.85,53.12-.33,3.94-2.71,3.47-5.19,3.47q-37.75,0-75.49,0c-10.59,0-9.42-1.33-9.42,9.2q0,150.49,0,301c0,7.74,0,7.75-7.58,7.75-40,0-80-.09-120,.11-5.07,0-6.42-1.4-6.4-6.45C63.08,579.55,63,528.55,63,477.56Z"/></g></g></svg>