<svg id="Livello_1" data-name="Livello 1" xmlns="http://www.w3.org/2000/svg" xmlns:xlink="http://www.w3.org/1999/xlink" viewBox="0 0 70 70"><defs><style>.cls-1{fill:none;}.cls-2{fill:#2ff141;}.cls-3{clip-path:url(#clip-path);}.cls-4{fill:#2b4835;}</style><clipPath id="clip-path"><circle class="cls-1" cx="35" cy="35" r="35"/></clipPath></defs><title>Tavola disegno 1</title><g id="contents"><circle class="cls-2" cx="35" cy="35" r="35"/><g class="cls-3"><path class="cls-4" d="M55.37,93.16v2.93l2.94.24v2.85l-2.94.19v18.19l.06-.06H52.5v3.1h2.93l-.06-.06v2.94H49.43v-15l2.78-.13v-2.89l-2.84-.18V99.35h-6v-3l2.75-.13V93.33H40.26v5.78H34.15V90.26h-6v8.87h-3v-18h2.79L28.18,84H31V78.12l-2.9-.26V69l-2.92-.17v-6h2.91L28,62.74v3h6.15v3h9.12l-.06,3.1.06-.06h-3L40,74.68H37.22L37.06,72H31.21v2.8l2.82.26L34.2,78h5.85v9.12H37.12V84.2H34.26v2.88h2.92v3.13h12l.27,3h6Z"/><path class="cls-4" d="M28.05,62.8V59.87l-2.95-.25v-12H40.05l.26,3h2.95l-.06-.06v3.1h3.1l-.06-.06v3.14H40.11v6h-3V59.87h-3V62.8L28,62.74Zm.12-9.07v2.78H31V53.73Z"/><path class="cls-4" d="M25.08,44.36v-21h21v21Zm3-3h15v-15h-15Z"/><path class="cls-4" d="M61.51,87.07h-3.1l.06.07V81h-3V78.09h-6v5.82h2.8l.27-2.8,3-.21q-.07,3.12-.13,6.24l.06-.06h-12v-2.9l2.78-.26V81.14l-2.77-.25V78l2.76-.13V75.05l-2.89-.25V71.86l-.06.06h3v-3.1h6.15v3l3,.25.13,2.81,2.86.2.27,3h5.81V80.9l-3,.26v5.91Z"/><path class="cls-4" d="M43.26,50.63V47.7h15v2.8l-2.72.18v5.84h2.73l.25-2.76h5.87v2.79l-3,.25v6l.06-.06-3.1.06V59.87h-3V62.8h-6v-3l2.77-.13V56.79l-3-.25V53.62h2.94V50.75H49.34v2.93l-3.1-.07.06.06v-3.1H43.2Z"/><path class="cls-4" d="M61.45,62.8H73.68l-.06-.06v3l3,.24v2.85l-2.8.13v6h2.93l-.06-.06.06,3.1h-6l-.26-3-3-.23v-2.9h2.94V69H67.59v2.93h-3l-.24,2.92H61.6V68.92l2.79-.15V65.91l-2.88-.24V62.74Z"/><path class="cls-4" d="M61.38,35.51l12.3-.09-.06-.06v3.1h9.19l-.06-.06v6h-3l-.12-2.77H76.8l-.25,2.89H73.62l.06.06v-3h-3.1v2.92l.06-.06h-3.1l.06.06v-3.1H64.5l.06.06V38.57l-3-.25c0-1-.09-1.91-.14-2.88Z"/><path class="cls-4" d="M79.77,59.75v-6h-9l-.27-3-2.9-.24v-3l-.06.06h3.1V44.48l-.06.06h3.1l-.06-.06v6h3l.13-2.76h2.86l.26,3h6l-.06-.06v3l-3.09.27v5.89h-3Z"/><path class="cls-4" d="M55.43,35.35h-6V32.44l2.79-.18V29.44l-2.79-.24V26.35l2.82-.17.14-2.8h2.92v5.8h3l.15-2.76h5.87v2.79l-3,.19v6.11l.06-.07-3-.09.06.07V32.49h-3.1v2.93Z"/><path class="cls-4" d="M67.6,47.53H64.67l-.24,2.93H61.61v-9h3l-.06-.06v3.1h3.1l-.06-.06v3.09Z"/><path class="cls-4" d="M58.41,35.35v9h-3v-9l-.06.07h3.1Z"/><path class="cls-4" d="M49.46,38.52h2.78v5.9H49.46Z"/><path class="cls-4" d="M70.51,59.64h-2.8V56.8h2.8Z"/><path class="cls-4" d="M67.66,32.2V29.41h2.78V32.2Z"/><path class="cls-4" d="M55.37,62.74h3.1v6.14H52.33V66l3-.25Z"/><path class="cls-4" d="M46.14,62.73H43.4V59.88h2.74Z"/><path class="cls-4" d="M46.3,68.88H43.2V66h3.1Z"/><path class="cls-4" d="M34.07,62.74h3.11v3.1H34.07Z"/><path class="cls-4" d="M40.1,29.47V38.3H31.17V29.47Z"/></g></g></svg>