<svg xmlns="http://www.w3.org/2000/svg" viewBox="0 0 224.43 224.43"><defs><style>.cls-1{fill:#eaeaea;}</style></defs><title>Risorsa 2</title><g id="Livello_2" data-name="Livello 2"><g id="Livello_1-2" data-name="Livello 1"><path class="cls-1" d="M224.43,72.75v79.5c-.26,3.09-.58,6.17-.79,9.26-1.07,15.82-5.11,30.5-16.08,42.59-12.38,13.64-28.39,19.61-46.17,19.92-33,.57-65.94.51-98.9,0-15.7-.24-30.23-5.06-42.21-15.94C6.65,195.71.71,179.69.4,161.91-.17,129-.09,96,.39,63c.22-15.16,4.78-29.27,15-41.07C26.07,9.57,40,3.5,55.86,1.51,61.27.83,66.74.49,72.18,0h79.5c3.2.27,6.39.64,9.59.79C196.42,2.51,219,23.46,223.11,58.31,223.68,63.11,224,67.93,224.43,72.75ZM19.3,112.27h1.19c0,16-.53,32,.12,47.95,1.07,26.35,14.31,41.84,40.36,43,34,1.57,68.2,1.52,102.21,0,25.08-1.15,38.35-14.44,39.48-39.58,1.55-34.14,1.5-68.45,0-102.59-1.12-24.81-14.46-38.14-39.37-39.27-34.14-1.55-68.45-1.57-102.58,0-25.16,1.15-37.47,14.66-39.73,40C19.44,78.49,19.78,95.42,19.3,112.27Z"/><path class="cls-1" d="M112,170.26a57.76,57.76,0,1,1,57.72-57.62A57.6,57.6,0,0,1,112,170.26ZM111.91,75a37.49,37.49,0,1,0,37.51,37.37A37.61,37.61,0,0,0,111.91,75Z"/><path class="cls-1" d="M172,66a13.52,13.52,0,1,1,.17-27A13.52,13.52,0,0,1,172,66Z"/></g></g></svg>