<svg xmlns="http://www.w3.org/2000/svg" viewBox="0 0 138.8 45"><defs><style>.cls-1{fill:#fff;}.cls-2,.cls-4{opacity:0.3;}.cls-3,.cls-4{fill:#2ff141;}</style></defs><title>Risorsa 1</title><g id="Livello_2" data-name="Livello 2"><g id="loghis"><path class="cls-1" d="M48.66,26.7V27a3.66,3.66,0,0,0,4,3.64c2.19,0,3.76-1.21,3.76-2.94,0-1.25-.67-2.27-2.7-3.09l-3-1.17c-3.29-1.29-5-2.94-5-5.48,0-3.48,3.21-5.72,7.12-5.72,3.68,0,6.58,1.8,6.81,5l-3.88.47v-.31c0-1.76-1.14-3.17-3.48-3.17-1.84,0-3.37,1.17-3.37,2.74,0,1.1.67,2.31,3.17,3.29l3.17,1.21c3.05,1.21,4.54,2.82,4.54,5.17,0,3.88-3.64,6-7.67,6-3.84,0-7.36-1.8-7.36-5.4Zm16.5-4c.47,4.5,3.21,6.69,6.46,6.69a8.19,8.19,0,0,0,6-2.51c-.23,3.25-3.48,5.64-7,5.64-5,0-8.85-4.11-8.85-9.86,0-5.32,3.17-10.49,9.08-10.49,3.56,0,7.09,2.15,7.09,6.18a5.24,5.24,0,0,1,0,.78Zm0-2.94H74c0-4.31-1.92-5.64-3.88-5.64S65.63,15.59,65.2,19.81Zm18,2.94c.47,4.5,3.21,6.69,6.46,6.69a8.19,8.19,0,0,0,6-2.51c-.23,3.25-3.48,5.64-7,5.64-5,0-8.85-4.11-8.85-9.86,0-5.32,3.17-10.49,9.08-10.49,3.56,0,7.09,2.15,7.09,6.18a5.24,5.24,0,0,1,0,.78Zm0-2.94h8.81c0-4.31-1.92-5.64-3.88-5.64S83.67,15.59,83.24,19.81Zm31.47,12.37h-3.41V29.25a7.11,7.11,0,0,1-5.68,3.33c-4,0-7.79-3.37-7.79-9.63,0-6.46,3.88-10.73,9.28-10.73a10.12,10.12,0,0,1,4.19.86V4.78l3.41-.51Zm-3.41-3.84V16.21a5.76,5.76,0,0,0-4.31-2c-2.78,0-5.6,2.19-5.6,7.67,0,4.42,2,7.87,6,7.87A6.33,6.33,0,0,0,111.31,28.35Zm9.47-1.64V27a3.66,3.66,0,0,0,4,3.64c2.19,0,3.76-1.21,3.76-2.94,0-1.25-.67-2.27-2.7-3.09l-3-1.17c-3.29-1.29-5-2.94-5-5.48,0-3.48,3.21-5.72,7.12-5.72,3.68,0,6.58,1.8,6.81,5l-3.88.47v-.31c0-1.76-1.14-3.17-3.48-3.17-1.84,0-3.37,1.17-3.37,2.74,0,1.1.67,2.31,3.17,3.29l3.17,1.21c3.05,1.21,4.54,2.82,4.54,5.17,0,3.88-3.64,6-7.67,6-3.84,0-7.36-1.8-7.36-5.4Zm15.62.67a2.4,2.4,0,1,0,2.4,2.4A2.4,2.4,0,0,0,136.39,27.37Z"/><g class="cls-2"><path class="cls-3" d="M18.26,21.09l.49-.22-.42-.31Q18.28,20.83,18.26,21.09Z"/><path class="cls-3" d="M37.68,11.62a12.79,12.79,0,0,0-19.2,8.12,10,10,0,0,0,1.08.78,13.84,13.84,0,0,1,1.36-.5L21,20a13.6,13.6,0,0,1,11.87,2,12.85,12.85,0,0,0,4.82-10.38Z"/></g><path class="cls-4" d="M36,26.6A12.78,12.78,0,0,0,20.4,21a14,14,0,0,1,5.45,6.45l.22.55A14.06,14.06,0,0,1,27,32.68v.63h0c0,.44,0,.87-.09,1.3a12.82,12.82,0,0,0,10.8-1.24A12.69,12.69,0,0,0,36,26.6Z"/><g class="cls-2"><path class="cls-3" d="M19.42,23.85l-.51.25.44.32C19.38,24.23,19.41,24,19.42,23.85Z"/><path class="cls-3" d="M19.2,25.25a10,10,0,0,0-1.08-.78c-.32.14-.64.27-1,.38h0A13.59,13.59,0,0,1,4.82,23,12.8,12.8,0,0,0,0,33.37,12.78,12.78,0,0,0,19.2,25.25Z"/></g><path class="cls-4" d="M17.28,24a14,14,0,0,1-5.44-6.45h0c0-.06-.21-.54-.22-.55h0a14.06,14.06,0,0,1-.89-4.64v-.63c0-.44,0-.87.09-1.3A12.78,12.78,0,0,0,0,11.62,12.78,12.78,0,0,0,17.28,24Z"/><path class="cls-3" d="M25.16,38.21l.21-.53a13.17,13.17,0,0,0,.84-4.39v-.6a13.39,13.39,0,0,0-.84-4.4l-.21-.53a13.33,13.33,0,0,0-5.66-6.42,10.82,10.82,0,0,1-4-4c-.19-.35-.56-1.16-.7-1.47A10.78,10.78,0,0,1,15,7.6c.14-.29.49-1,.51-1l.13-.23h0a10.66,10.66,0,0,1,3.16-3.31,10.8,10.8,0,0,1,4.7,8A11.67,11.67,0,0,1,26,9.74a13.59,13.59,0,0,0-2-5.08A13.29,13.29,0,0,0,19.5.36L19,.06,18.84,0l-.12.06-.54.29a13.33,13.33,0,0,0-5.66,6.42l-.21.53a13.18,13.18,0,0,0-.84,4.4v.6a13.39,13.39,0,0,0,.84,4.4l.21.53a13.33,13.33,0,0,0,5.66,6.42,10.82,10.82,0,0,1,4,4c.19.35.56,1.16.7,1.47a10.78,10.78,0,0,1-.21,8.27c-.14.29-.49,1-.51,1l-.13.23h0a10.66,10.66,0,0,1-3.16,3.31,10.77,10.77,0,0,1-4.66-7.64,23.22,23.22,0,0,1-2.47,1.25,13.55,13.55,0,0,0,1.93,4.79,13.29,13.29,0,0,0,4.53,4.29l.54.29.12.06.11-.08.54-.29A13.29,13.29,0,0,0,25.16,38.21Z"/></g></g></svg>