<svg xmlns="http://www.w3.org/2000/svg" viewBox="0 0 1222.89 368.16"><defs><style>.cls-1{fill:#2b4835;}</style></defs><title>Risorsa 112</title><g id="Livello_2" data-name="Livello 2"><g id="Livello_1-2" data-name="Livello 1"><path class="cls-1" d="M50.41,291.77v3.56c0,24.45,17.82,47.36,51.94,47.36,28.52,0,48.88-15.78,48.88-38.19,0-16.29-8.66-29.54-35.14-40.23L77.39,249c-42.77-16.8-65.18-38.19-65.18-71.29,0-45.32,41.76-74.34,92.68-74.34,47.86,0,85.55,23.43,88.6,64.67l-50.41,6.11v-4.07c0-22.92-14.76-41.25-45.31-41.25C73.83,128.83,54,144.1,54,164.48c0,14.26,8.65,30,41.24,42.77L136.46,223c39.72,15.78,59.07,36.66,59.07,67.21,0,50.41-47.36,77.91-99.81,77.91C45.82,368.16,0,344.73,0,297.89Zm214.66-51.43c6.11,58.56,41.76,87.07,84,87.07,31.06,0,59.58-12.73,77.9-32.59-3.05,42.26-45.31,73.32-91.66,73.32-64.67,0-115.07-53.47-115.07-128.32,0-69.26,41.24-136.47,118.13-136.47,46.33,0,92.17,28,92.17,80.45a68.14,68.14,0,0,1-.51,10.18Zm.51-38.19H380.15c0-56-24.95-73.33-50.41-73.33C302.75,128.83,271.18,147.16,265.58,202.16Zm234.18,38.19c6.11,58.56,41.76,87.07,84,87.07,31.06,0,59.58-12.73,77.9-32.59-3.05,42.26-45.31,73.32-91.66,73.32C505.36,368.16,455,314.69,455,239.84c0-69.26,41.24-136.47,118.13-136.47,46.33,0,92.17,28,92.17,80.45a68.14,68.14,0,0,1-.51,10.18Zm.51-38.19H614.84c0-56-24.95-73.33-50.41-73.33C537.44,128.83,505.87,147.16,500.27,202.16ZM909.61,363.06h-44.3V324.87c-17.82,27-46.84,43.28-73.83,43.28-52.45,0-101.33-43.79-101.33-125.27,0-84,50.41-139.52,120.68-139.52,19.35,0,39.71,4.07,54.48,11.2V6.62L909.61,0Zm-44.3-49.9V155.31c-13.75-15.78-34.11-26-56-26-36.16,0-72.82,28.52-72.82,99.81,0,57.54,26.48,102.35,78.42,102.35C833.23,331.49,852.59,323.85,865.31,313.16Zm123.22-21.39v3.56c0,24.45,17.82,47.36,51.94,47.36,28.52,0,48.88-15.78,48.88-38.19,0-16.29-8.65-29.54-35.13-40.23L1015.52,249c-42.77-16.8-65.18-38.19-65.18-71.29,0-45.32,41.75-74.34,92.68-74.34,47.86,0,85.55,23.43,88.6,64.67l-50.41,6.11v-4.07c0-22.92-14.77-41.25-45.32-41.25-23.93,0-43.79,15.27-43.79,35.65,0,14.26,8.66,30,41.25,42.77L1074.58,223c39.72,15.78,59.07,36.66,59.07,67.21,0,50.41-47.35,77.91-99.81,77.91-49.9,0-95.73-23.43-95.73-70.27Zm203.12,8.72a31.24,31.24,0,1,0,31.24,31.24A31.24,31.24,0,0,0,1191.65,300.49Z"/></g></g></svg>