<svg xmlns="http://www.w3.org/2000/svg" viewBox="0 0 469.76 561"><defs><style>.cls-1{fill:#238c32;}.cls-2{fill:#2ff141;}</style></defs><title>Risorsa 6</title><g id="Livello_2" data-name="Livello 2"><g id="Livello_1-2" data-name="Livello 1"><path class="cls-1" d="M227.6,263c2.06-1,4.05-1.91,6.1-2.8-1.76-1.25-3.52-2.5-5.21-3.82C228.12,258.56,227.82,260.76,227.6,263Z"/><path class="cls-1" d="M469.69,144.83A159.42,159.42,0,0,0,230.32,246.06a124.82,124.82,0,0,0,13.46,9.7,174.59,174.59,0,0,1,16.9-6.25,4.52,4.52,0,0,0,.89-.29,169.61,169.61,0,0,1,148,25,160.1,160.1,0,0,0,60.14-129.38Z"/><path class="cls-1" d="M448.37,331.63a159.29,159.29,0,0,0-194.08-69.47,174.82,174.82,0,0,1,67.93,80.42c.14.45,2.5,6.25,2.72,6.91A175.41,175.41,0,0,1,336,407.35v7.87h0c-.15,5.44-.52,10.8-1.1,16.17A159.79,159.79,0,0,0,469.62,416,158.27,158.27,0,0,0,448.37,331.63Z"/><path class="cls-1" d="M242.16,297.37q-3.09,1.54-6.4,3.09c1.84,1.25,3.68,2.57,5.44,4C241.64,302.08,241.94,299.72,242.16,297.37Z"/><path class="cls-1" d="M239.37,314.8a124.91,124.91,0,0,0-13.46-9.71c-4,1.69-8,3.31-12.13,4.71h-.07A169.44,169.44,0,0,1,60.13,286.64,159.55,159.55,0,0,0,.07,416,159.32,159.32,0,0,0,239.37,314.8Z"/><path class="cls-1" d="M215.4,298.7a174.74,174.74,0,0,1-67.86-80.43h0c-.36-.81-2.64-6.69-2.72-6.91h0a175.36,175.36,0,0,1-11.1-57.86v-7.86c.15-5.45.52-10.81,1.11-16.18A159.35,159.35,0,0,0,.14,144.83,159.3,159.3,0,0,0,215.4,298.7Z"/><path class="cls-2" d="M313.69,476.38c.15-.36,2.57-6.54,2.65-6.61A164.49,164.49,0,0,0,326.85,415v-7.43a167,167,0,0,0-10.51-54.84c-.08-.29-2.43-6.1-2.65-6.62a166.14,166.14,0,0,0-70.58-80,134.91,134.91,0,0,1-49.69-49.92c-2.43-4.41-7-14.41-8.68-18.38a134.36,134.36,0,0,1,2.65-103.07c1.69-3.6,6.1-12,6.4-12.5l1.61-2.86h0a133,133,0,0,1,39.41-41.32,134.71,134.71,0,0,1,58.59,99.39,145.65,145.65,0,0,1,31-16.1A169.44,169.44,0,0,0,299.65,58,165.62,165.62,0,0,0,243.11,4.48C241,3.23,238.85,2.06,236.42.81L234.88,0l-1.54.81c-2.43,1.25-4.56,2.42-6.69,3.67a166.2,166.2,0,0,0-70.58,80c-.07.22-2.57,6.4-2.64,6.62a164.27,164.27,0,0,0-10.52,54.84v7.42a166.83,166.83,0,0,0,10.52,54.85c.07.29,2.42,6.1,2.64,6.61a166.16,166.16,0,0,0,70.58,80,134.84,134.84,0,0,1,49.69,49.92c2.43,4.41,7,14.41,8.68,18.38a134.33,134.33,0,0,1-2.65,103.06c-1.69,3.61-6.1,12-6.39,12.5l-1.62,2.87h0A133.08,133.08,0,0,1,235,522.85a134.26,134.26,0,0,1-58.07-95.21,289.43,289.43,0,0,1-30.81,15.59A168.93,168.93,0,0,0,170.19,503a165.68,165.68,0,0,0,56.53,53.52c2.13,1.25,4.26,2.42,6.69,3.67L235,561l1.4-1c2.43-1.25,4.56-2.42,6.69-3.67A165.64,165.64,0,0,0,313.69,476.38Z"/></g></g></svg>