<svg xmlns="http://www.w3.org/2000/svg" viewBox="0 0 187.96 224.46"><defs><style>.cls-1,.cls-3{opacity:0.3;}.cls-2,.cls-3{fill:#2ff141;}</style></defs><title>Risorsa 2</title><g id="Livello_2" data-name="Livello 2"><g id="loghis"><g class="cls-1"><path class="cls-2" d="M91.07,105.22c.82-.38,1.62-.76,2.44-1.12-.71-.5-1.41-1-2.09-1.53Q91.2,103.89,91.07,105.22Z"/><path class="cls-2" d="M187.93,57.95a63.79,63.79,0,0,0-95.77,40.5,50,50,0,0,0,5.38,3.88,69,69,0,0,1,6.77-2.5,1.9,1.9,0,0,0,.35-.12,67.86,67.86,0,0,1,59.21,10,64.08,64.08,0,0,0,24.06-51.77Z"/></g><path class="cls-3" d="M179.4,132.69a63.74,63.74,0,0,0-77.66-27.8,70,70,0,0,1,27.18,32.18c.06.18,1,2.5,1.09,2.76A70.13,70.13,0,0,1,134.45,163v3.15h0c-.06,2.18-.21,4.32-.44,6.47a63.95,63.95,0,0,0,53.89-6.18A63.31,63.31,0,0,0,179.4,132.69Z"/><g class="cls-1"><path class="cls-2" d="M96.89,119q-1.24.62-2.56,1.24c.74.5,1.47,1,2.18,1.59C96.69,120.87,96.8,119.92,96.89,119Z"/><path class="cls-2" d="M95.77,126a50,50,0,0,0-5.38-3.88c-1.59.68-3.21,1.32-4.85,1.88h0a67.8,67.8,0,0,1-61.45-9.27A63.84,63.84,0,0,0,0,166.46,63.74,63.74,0,0,0,95.77,126Z"/></g><path class="cls-3" d="M86.18,119.51A69.89,69.89,0,0,1,59,87.33h0c-.15-.32-1.06-2.68-1.09-2.76h0A70.13,70.13,0,0,1,53.5,61.42V58.27c.06-2.18.21-4.32.44-6.47A63.75,63.75,0,0,0,.06,57.95a63.73,63.73,0,0,0,86.13,61.57Z"/><path class="cls-2" d="M125.51,190.61c.06-.15,1-2.62,1.06-2.65A65.71,65.71,0,0,0,130.78,166v-3a66.77,66.77,0,0,0-4.21-21.94c0-.12-1-2.44-1.06-2.65a66.49,66.49,0,0,0-28.24-32,54,54,0,0,1-19.88-20c-1-1.76-2.79-5.77-3.47-7.35A53.77,53.77,0,0,1,75,37.92c.68-1.44,2.44-4.79,2.56-5l.65-1.15h0A53.2,53.2,0,0,1,93.95,15.24,53.89,53.89,0,0,1,117.39,55a58.22,58.22,0,0,1,12.41-6.44,67.8,67.8,0,0,0-9.91-25.36A66.27,66.27,0,0,0,97.27,1.79c-.85-.5-1.71-1-2.68-1.47L94,0l-.62.32c-1,.5-1.82,1-2.68,1.47a66.49,66.49,0,0,0-28.24,32c0,.09-1,2.56-1.06,2.65a65.74,65.74,0,0,0-4.21,21.94v3A66.77,66.77,0,0,0,61.39,83.3c0,.12,1,2.44,1.06,2.65a66.49,66.49,0,0,0,28.24,32,54,54,0,0,1,19.88,20c1,1.76,2.79,5.77,3.47,7.35A53.77,53.77,0,0,1,113,186.52c-.68,1.44-2.44,4.79-2.56,5l-.65,1.15h0A53.2,53.2,0,0,1,94,209.2a53.73,53.73,0,0,1-23.24-38.09,115.82,115.82,0,0,1-12.32,6.24,67.58,67.58,0,0,0,9.65,23.91,66.27,66.27,0,0,0,22.62,21.41c.85.5,1.71,1,2.68,1.47l.62.32.56-.38c1-.5,1.82-1,2.68-1.47A66.27,66.27,0,0,0,125.51,190.61Z"/></g></g></svg>