<svg xmlns="http://www.w3.org/2000/svg" viewBox="0 0 240 190.77"><defs><style>.cls-1{fill:#f3f3f3;}</style></defs><title>Risorsa 7</title><g id="Livello_2" data-name="Livello 2"><g id="Livello_2-2" data-name="Livello 2"><path class="cls-1" d="M240,.1v5c-5.74,5.2-11.42,10.47-17.26,15.57a11.13,11.13,0,0,0-4,9.14c.1,43.83,0,87.65.22,131.48a14.32,14.32,0,0,0,3.72,8.63c5.45,6.05,11.5,11.56,17.32,17.28v3a22.54,22.54,0,0,1-3.42.55q-43.72,0-87.46,0c-1.18,0-2.36-.72-3.55-1.1.48-1.49.55-3.39,1.52-4.4,4.87-5,9.84-10,15-14.64a13.42,13.42,0,0,0,4.75-10.92c-.14-32.84-.07-65.67-.07-98.5V56A10,10,0,0,0,164,60.2q-24.67,62.68-49.34,125.39c-.92,2.32-1.21,4.92-5.16,4.85-3.63-.06-4.77-1.77-6-4.51Q74.88,123.28,46.13,60.68c-.73-1.59-1.54-3.14-2.31-4.71l-.94.13v5.2c0,27.84.06,55.67-.07,83.5A17.18,17.18,0,0,0,47,156.66q11.26,13.38,22.2,27c1.27,1.6,1.74,3.84,2.9,6.51H0v-5c.42-.19,1-.28,1.25-.6,8.29-10,16.65-19.95,24.7-30.15a12.69,12.69,0,0,0,2.5-7.36q.16-54-.17-108A14.38,14.38,0,0,0,25.19,31c-6.45-8.27-13.38-16.17-20-24.34C3.93,5.08,3.39,2.84,2.14.1H8.26C28.08.1,47.9.21,67.72,0c3.73,0,5.48,1.11,7,4.5q24.42,54.14,49.18,108.12c.69,1.51,1.49,3,2.55,5,.82-2,1.27-3,1.71-4.11Q150.09,58.9,171.93,4.22C173.17,1.09,174.62,0,178,0,198.69.19,219.35.1,240,.1Z"/></g></g></svg>