<svg xmlns="http://www.w3.org/2000/svg" xmlns:xlink="http://www.w3.org/1999/xlink" viewBox="0 0 736.89 698.99"><defs><style>.cls-1{fill:none;}.cls-2{clip-path:url(#clip-path);}.cls-3,.cls-4,.cls-5{opacity:0.3;}.cls-3{fill:url(#Sfumatura_senza_nome_11);}.cls-4{fill:url(#Sfumatura_senza_nome_11-2);}.cls-5{fill:url(#Sfumatura_senza_nome_13);}</style><clipPath id="clip-path"><rect class="cls-1" x="366.36" y="229.05" width="716.24" height="594"/></clipPath><linearGradient id="Sfumatura_senza_nome_11" x1="10518.9" y1="-380.69" x2="10953.59" y2="-380.69" gradientTransform="translate(-943.34 10880.94) rotate(-80.88)" gradientUnits="userSpaceOnUse"><stop offset="0" stop-color="#1eaf32"/><stop offset="0.09" stop-color="#1eaf32" stop-opacity="0.84"/><stop offset="0.24" stop-color="#1eaf32" stop-opacity="0.58"/><stop offset="0.39" stop-color="#1eaf32" stop-opacity="0.37"/><stop offset="0.55" stop-color="#1eaf32" stop-opacity="0.21"/><stop offset="0.7" stop-color="#1eaf32" stop-opacity="0.09"/><stop offset="0.85" stop-color="#1eaf32" stop-opacity="0.02"/><stop offset="1" stop-color="#1eaf32" stop-opacity="0"/></linearGradient><linearGradient id="Sfumatura_senza_nome_11-2" x1="7424.05" y1="-1645.98" x2="7858.74" y2="-1645.98" gradientTransform="matrix(0.52, -0.86, 0.86, 0.52, -2215.85, 7721.65)" xlink:href="#Sfumatura_senza_nome_11"/><linearGradient id="Sfumatura_senza_nome_13" x1="4132.2" y1="-1703.87" x2="4566.89" y2="-1703.87" gradientTransform="matrix(0.8, -0.6, 0.6, 0.8, -2191.36, 4384.59)" gradientUnits="userSpaceOnUse"><stop offset="0" stop-color="#1eaf32"/><stop offset="0.05" stop-color="#1eaf32" stop-opacity="0.88"/><stop offset="0.15" stop-color="#1eaf32" stop-opacity="0.65"/><stop offset="0.26" stop-color="#1eaf32" stop-opacity="0.45"/><stop offset="0.37" stop-color="#1eaf32" stop-opacity="0.29"/><stop offset="0.5" stop-color="#1eaf32" stop-opacity="0.16"/><stop offset="0.63" stop-color="#1eaf32" stop-opacity="0.07"/><stop offset="0.78" stop-color="#1eaf32" stop-opacity="0.02"/><stop offset="1" stop-color="#1eaf32" stop-opacity="0"/></linearGradient></defs><title>Risorsa 212</title><g id="Livello_2" data-name="Livello 2"><g id="backgrounds"><g class="cls-2"><path class="cls-3" d="M736.89,277.11C692,136.44,570.71,30.24,415,5.19,261.11-19.56,113.58,46,26.43,162.84,72.55,301.09,192.08,409.62,345.94,434.37,501.68,459.42,650.18,396.61,736.89,277.11Z"/><path class="cls-4" d="M643.16,519.63c11.33-147.21-61.14-291.24-196-373-133.26-80.79-294.62-75.52-419.31,0C18.57,292,88.51,437.52,221.77,518.31,356.66,600.09,517.88,597.74,643.16,519.63Z"/><path class="cls-5" d="M472.25,692.84c65.13-132.5,51.27-293.14-43.65-419.13C334.82,149.25,183,94.29,39.23,118.11-23.32,249.75-12.36,410.82,81.42,535.29,176.34,661.28,326.92,718.9,472.25,692.84Z"/></g></g></g></svg>