<svg xmlns="http://www.w3.org/2000/svg" viewBox="0 0 141.09 45"><defs><style>.cls-1{fill:#2ff141;}.cls-2{fill:#e9edd9;}</style></defs><title>Risorsa 112</title><g id="Livello_2" data-name="Livello 2"><g id="Livello_1-2" data-name="Livello 1"><path class="cls-1" d="M34.36,22.5a12.61,12.61,0,0,0,3.24-3.94,13.91,13.91,0,0,0,1.55-7,.63.63,0,0,0-.3-.51A13.91,13.91,0,0,0,32,8.87a12.64,12.64,0,0,0-5,.83,12.61,12.61,0,0,0-1.8-4.78A13.9,13.9,0,0,0,19.88.07a.63.63,0,0,0-.59,0A13.9,13.9,0,0,0,14,4.92a12.61,12.61,0,0,0-1.8,4.78,12.63,12.63,0,0,0-5-.83A13.91,13.91,0,0,0,.31,11a.63.63,0,0,0-.3.51,13.91,13.91,0,0,0,1.55,7A12.62,12.62,0,0,0,4.8,22.5a12.61,12.61,0,0,0-3.24,3.94,13.91,13.91,0,0,0-1.55,7,.63.63,0,0,0,.3.51,13.91,13.91,0,0,0,6.85,2.16h.49a12.57,12.57,0,0,0,4.54-.85A12.61,12.61,0,0,0,14,40.08a13.91,13.91,0,0,0,5.3,4.85.63.63,0,0,0,.59,0,13.91,13.91,0,0,0,5.3-4.85A12.61,12.61,0,0,0,27,35.3a12.57,12.57,0,0,0,4.54.85H32A13.91,13.91,0,0,0,38.85,34a.64.64,0,0,0,.3-.51,13.91,13.91,0,0,0-1.55-7A12.61,12.61,0,0,0,34.36,22.5ZM32,10.13a12.59,12.59,0,0,1,5.93,1.8,12.59,12.59,0,0,1-1.41,6,11.31,11.31,0,0,1-3.2,3.76l-.47-.29a12.45,12.45,0,0,0-6.73-1.64,13.35,13.35,0,0,0-2.38.31,13.35,13.35,0,0,0,1.46-1.9,12.43,12.43,0,0,0,1.95-6.65h0c0-.18,0-.37,0-.55A11.33,11.33,0,0,1,32,10.13ZM25.85,33.51l-.25.44.25-.44Zm-4.23-4.62a12.51,12.51,0,0,1-1.4-5.29,12.51,12.51,0,0,1,3.88,3.86,11.17,11.17,0,0,1,1.75,5.89A11.17,11.17,0,0,1,21.62,28.89Zm-8.94,4.54h0Zm-5.76-11L6.66,22l.26.44Zm6.4-10.93.25-.44-.25.44Zm4.23,4.62a12.51,12.51,0,0,1,1.4,5.29,12.51,12.51,0,0,1-3.88-3.86,11.17,11.17,0,0,1-1.75-5.9A11.17,11.17,0,0,1,17.54,16.11Zm8.94-4.54h0ZM20.22,21.4a12.51,12.51,0,0,1,1.4-5.29,11.17,11.17,0,0,1,4.23-4.46,11.17,11.17,0,0,1-1.75,5.9A12.51,12.51,0,0,1,20.22,21.4Zm-1.91,1.1A12.51,12.51,0,0,1,13,23.93,11.13,11.13,0,0,1,7,22.5a11.19,11.19,0,0,1,6-1.43A12.51,12.51,0,0,1,18.31,22.5Zm.64,1.1a12.51,12.51,0,0,1-1.4,5.29,11.17,11.17,0,0,1-4.23,4.46,11.17,11.17,0,0,1,1.75-5.89A12.51,12.51,0,0,1,18.94,23.6Zm1.91-1.1a12.51,12.51,0,0,1,5.28-1.43,11.18,11.18,0,0,1,6,1.43,11.14,11.14,0,0,1-6,1.43A12.51,12.51,0,0,1,20.86,22.5ZM15.06,5.6a12.59,12.59,0,0,1,4.52-4.24A12.58,12.58,0,0,1,24.1,5.6a11.32,11.32,0,0,1,1.66,4.65l-.49.26a12.43,12.43,0,0,0-4.78,5,13.34,13.34,0,0,0-.92,2.21,13.35,13.35,0,0,0-.92-2.21,12.43,12.43,0,0,0-4.78-5h0l-.48-.26A11.31,11.31,0,0,1,15.06,5.6ZM2.68,18a12.59,12.59,0,0,1-1.41-6,12.59,12.59,0,0,1,5.93-1.8,11.31,11.31,0,0,1,4.85.88c0,.18,0,.37,0,.55A12.43,12.43,0,0,0,14,18.22a13.34,13.34,0,0,0,1.46,1.9,13.35,13.35,0,0,0-2.38-.31,12.43,12.43,0,0,0-6.73,1.63h0l-.46.29A11.31,11.31,0,0,1,2.68,18ZM7.2,34.87a12.59,12.59,0,0,1-5.93-1.8,12.59,12.59,0,0,1,1.41-6,11.31,11.31,0,0,1,3.2-3.76l.44.28,0,0a12.39,12.39,0,0,0,6.22,1.65h.52a13.35,13.35,0,0,0,2.38-.31A13.35,13.35,0,0,0,14,26.78,12.43,12.43,0,0,0,12,33.43h0c0,.18,0,.37,0,.55A11.28,11.28,0,0,1,7.2,34.87ZM24.1,39.4a12.59,12.59,0,0,1-4.52,4.24,12.59,12.59,0,0,1-4.52-4.24,11.31,11.31,0,0,1-1.66-4.65l.49-.26a12.43,12.43,0,0,0,4.78-5,13.34,13.34,0,0,0,.92-2.21,13.35,13.35,0,0,0,.91,2.21,12.43,12.43,0,0,0,4.78,5h0l.48.26A11.31,11.31,0,0,1,24.1,39.4ZM32,34.87A11.29,11.29,0,0,1,27.1,34c0-.18,0-.37,0-.55a12.43,12.43,0,0,0-1.95-6.65,13.35,13.35,0,0,0-1.46-1.9,13.35,13.35,0,0,0,2.38.31h.51a12.39,12.39,0,0,0,6.22-1.65h0l.45-.28A11.32,11.32,0,0,1,36.48,27a12.58,12.58,0,0,1,1.41,6A12.59,12.59,0,0,1,32,34.87Z"/><path class="cls-2" d="M51,26.72V27a3.66,3.66,0,0,0,4,3.64c2.19,0,3.76-1.21,3.76-2.94,0-1.25-.67-2.27-2.7-3.09l-3-1.17c-3.29-1.29-5-2.94-5-5.48,0-3.48,3.21-5.72,7.12-5.72,3.68,0,6.58,1.8,6.81,5l-3.88.47v-.31c0-1.76-1.14-3.17-3.48-3.17-1.84,0-3.37,1.17-3.37,2.74,0,1.1.67,2.31,3.17,3.29l3.17,1.21c3.05,1.21,4.54,2.82,4.54,5.17,0,3.88-3.64,6-7.67,6-3.84,0-7.36-1.8-7.36-5.4Zm16.5-4c.47,4.5,3.21,6.69,6.46,6.69a8.19,8.19,0,0,0,6-2.51c-.23,3.25-3.48,5.64-7,5.64-5,0-8.85-4.11-8.85-9.86,0-5.32,3.17-10.49,9.08-10.49,3.56,0,7.09,2.15,7.09,6.18a5.24,5.24,0,0,1,0,.78Zm0-2.94h8.81c0-4.31-1.92-5.64-3.88-5.64S67.93,15.6,67.5,19.83Zm18,2.94c.47,4.5,3.21,6.69,6.46,6.69a8.19,8.19,0,0,0,6-2.51c-.23,3.25-3.48,5.64-7,5.64-5,0-8.85-4.11-8.85-9.86,0-5.32,3.17-10.49,9.08-10.49,3.56,0,7.09,2.15,7.09,6.18a5.24,5.24,0,0,1,0,.78Zm0-2.94h8.81c0-4.31-1.92-5.64-3.88-5.64S86,15.6,85.54,19.83ZM117,32.2H113.6V29.26a7.11,7.11,0,0,1-5.68,3.33c-4,0-7.79-3.37-7.79-9.63,0-6.46,3.88-10.73,9.28-10.73a10.12,10.12,0,0,1,4.19.86V4.8L117,4.29Zm-3.41-3.84V16.23a5.76,5.76,0,0,0-4.31-2c-2.78,0-5.6,2.19-5.6,7.67,0,4.42,2,7.87,6,7.87A6.33,6.33,0,0,0,113.6,28.36Zm9.47-1.64V27a3.66,3.66,0,0,0,4,3.64c2.19,0,3.76-1.21,3.76-2.94,0-1.25-.67-2.27-2.7-3.09l-3-1.17c-3.29-1.29-5-2.94-5-5.48,0-3.48,3.21-5.72,7.12-5.72,3.68,0,6.58,1.8,6.81,5l-3.88.47v-.31c0-1.76-1.14-3.17-3.48-3.17-1.84,0-3.37,1.17-3.37,2.74,0,1.1.67,2.31,3.17,3.29l3.17,1.21c3.05,1.21,4.54,2.82,4.54,5.17,0,3.88-3.64,6-7.67,6-3.84,0-7.36-1.8-7.36-5.4Zm15.62.67a2.4,2.4,0,1,0,2.4,2.4A2.4,2.4,0,0,0,138.69,27.39Z"/></g></g></svg>