<svg xmlns="http://www.w3.org/2000/svg" viewBox="0 0 31 20.36"><defs><style>.cls-1{fill:#2ff141;}</style></defs><title>Risorsa 15</title><g id="Livello_2" data-name="Livello 2"><g id="contents"><path class="cls-1" d="M27.13,20.36H3.87A3.88,3.88,0,0,1,0,16.48V3.87A3.88,3.88,0,0,1,3.87,0H27.13A3.88,3.88,0,0,1,31,3.87V16.48A3.88,3.88,0,0,1,27.13,20.36ZM3.87,1A2.88,2.88,0,0,0,1,3.87V16.48a2.88,2.88,0,0,0,2.87,2.88H27.13A2.88,2.88,0,0,0,30,16.48V3.87A2.88,2.88,0,0,0,27.13,1Z"/><path class="cls-1" d="M15.5,13.18a.54.54,0,0,1-.22,0L4.16,7.69a.5.5,0,0,1,.44-.9l10.9,5.33L26.4,6.79a.5.5,0,0,1,.44.9L15.72,13.13A.54.54,0,0,1,15.5,13.18Z"/></g></g></svg>