<svg xmlns="http://www.w3.org/2000/svg" viewBox="0 0 100 100"><defs><style>.cls-1{fill:#2b4835;}</style></defs><title>Risorsa 2</title><g id="Livello_2" data-name="Livello 2"><g id="contents"><path class="cls-1" d="M50.53,0H49.47C22.19,0,0,22.43,0,50s22.19,50,49.47,50h1.06C77.81,100,100,77.57,100,50S77.81,0,50.53,0Zm0,96H49.47C24.37,96,4,75.36,4,50S24.37,4,49.47,4h1.06C75.62,4,96,24.63,96,50S75.62,96,50.53,96Z"/><polygon class="cls-1" points="51.98 24.59 48.02 24.59 48.02 48 24.86 48 24.86 52 48.02 52 48.02 75.41 51.98 75.41 51.98 52 75.14 52 75.14 48 51.98 48 51.98 24.59"/></g></g></svg>