<svg xmlns="http://www.w3.org/2000/svg" viewBox="0 0 757.99 756.05"><defs><style>.cls-1{fill:#1eaf32;}.cls-2{fill:none;stroke:#2ff141;stroke-miterlimit:10;}</style></defs><title>Risorsa 1</title><g id="Livello_2" data-name="Livello 2"><g id="contents"><path class="cls-1" d="M363.49,56.36c15.11,5.3,32.23,1.73,44.57-10.13A43.85,43.85,0,0,0,419.79,2.29a43.85,43.85,0,0,0-44.38,9.94C363.06,24.08,358.81,41,363.49,56.36Z"/><path class="cls-1" d="M297,66.61c15.89,2,31.89-5,41.49-19.17A43.85,43.85,0,0,0,340.77,2a43.85,43.85,0,0,0-41.35,19C289.82,35.13,289.18,52.61,297,66.61Z"/><path class="cls-1" d="M234,90.47c16-1.31,30.15-11.53,36.6-27.38a43.85,43.85,0,0,0-7.17-44.91,43.85,43.85,0,0,0-36.5,27.14C220.48,61.16,223.49,78.39,234,90.47Z"/><path class="cls-1" d="M177.38,126.9c15.34-4.6,27.09-17.55,30.11-34.39a43.85,43.85,0,0,0-16.35-42.44A43.85,43.85,0,0,0,161.08,84.2C158.06,101,164.59,117.27,177.38,126.9Z"/><path class="cls-1" d="M129.58,174.31c14.05-7.69,22.85-22.8,22.3-39.9a43.85,43.85,0,0,0-24.82-38.12,43.85,43.85,0,0,0-22.31,39.64C105.3,153,115.06,167.55,129.58,174.31Z"/><path class="cls-1" d="M92.68,230.62c12.15-10.44,17.61-27.05,13.52-43.67A43.85,43.85,0,0,0,74,154.83a43.85,43.85,0,0,0-13.58,43.41C64.51,214.85,77.07,227,92.68,230.62Z"/><path class="cls-1" d="M68.28,293.37c9.71-12.74,11.6-30.12,4.14-45.52a43.85,43.85,0,0,0-38.18-24.73A43.85,43.85,0,0,0,30,268.4C37.45,283.8,52.27,293.09,68.28,293.37Z"/><path class="cls-1" d="M57.47,359.82c6.85-14.48,5.09-31.88-5.41-45.39A43.85,43.85,0,0,0,9.58,298.18a43.85,43.85,0,0,0,5.25,45.18C25.33,356.87,41.75,362.88,57.47,359.82Z"/><path class="cls-1" d="M60.71,427.06c3.69-15.58-1.65-32.24-14.73-43.27a43.85,43.85,0,0,0-44.93-7.06,43.85,43.85,0,0,0,14.53,43.1C28.66,430.87,46,433.33,60.71,427.06Z"/><path class="cls-1" d="M77.86,492.17c.37-16-8.32-31.19-23.41-39.26A43.85,43.85,0,0,0,9,455.34a43.85,43.85,0,0,0,23.17,39.14C47.3,502.55,64.75,501.36,77.86,492.17Z"/><path class="cls-1" d="M108.18,552.28c-3-15.74-14.62-28.78-31.06-33.54A43.85,43.85,0,0,0,33.2,530.57,43.85,43.85,0,0,0,64,564C80.44,568.79,97.26,564,108.18,552.28Z"/><path class="cls-1" d="M150.32,604.78C144.15,590,130,579.67,113,578.43a43.85,43.85,0,0,0-40.5,20.7,43.85,43.85,0,0,0,37.09,26.33C126.63,626.7,142.08,618.51,150.32,604.78Z"/><path class="cls-1" d="M202.47,647.37c-9.11-13.17-25.06-20.34-42-18A43.85,43.85,0,0,0,125.14,658a43.85,43.85,0,0,0,41.75,18C183.84,673.73,197.26,662.51,202.47,647.37Z"/><path class="cls-1" d="M262.32,678.18c-11.65-11-28.75-14.69-44.84-8.88a43.85,43.85,0,0,0-28.58,35.38,43.85,43.85,0,0,0,44.59,9C249.59,707.85,260.38,694.08,262.32,678.18Z"/><path class="cls-1" d="M327.28,695.88c-13.68-8.33-31.17-8.39-45.71.64A43.85,43.85,0,0,0,261,737.07a43.85,43.85,0,0,0,45.48-.5C321,727.54,328.68,711.84,327.28,695.88Z"/><path class="cls-1" d="M394.5,699.69c-15.11-5.3-32.23-1.73-44.57,10.13a43.85,43.85,0,0,0-11.72,43.95,43.85,43.85,0,0,0,44.38-9.94C394.93,732,399.18,715,394.5,699.69Z"/><path class="cls-1" d="M461,689.44c-15.89-2-31.89,5-41.49,19.17A43.85,43.85,0,0,0,417.22,754a43.85,43.85,0,0,0,41.35-19C468.17,720.92,468.81,703.44,461,689.44Z"/><path class="cls-1" d="M524,665.57c-16,1.31-30.15,11.53-36.6,27.38a43.85,43.85,0,0,0,7.17,44.91,43.85,43.85,0,0,0,36.5-27.14C537.51,694.89,534.5,677.66,524,665.57Z"/><path class="cls-1" d="M580.61,629.14c-15.34,4.6-27.09,17.55-30.11,34.39A43.85,43.85,0,0,0,566.85,706a43.85,43.85,0,0,0,30.06-34.13C599.93,655,593.4,638.78,580.61,629.14Z"/><path class="cls-1" d="M628.41,581.74c-14.05,7.69-22.85,22.8-22.3,39.9a43.85,43.85,0,0,0,24.82,38.12,43.85,43.85,0,0,0,22.31-39.64C652.69,603,642.93,588.5,628.41,581.74Z"/><path class="cls-1" d="M665.31,525.43c-12.15,10.44-17.61,27.05-13.52,43.67A43.85,43.85,0,0,0,684,601.22a43.85,43.85,0,0,0,13.58-43.41C693.48,541.2,680.92,529,665.31,525.43Z"/><path class="cls-1" d="M689.71,462.68c-9.71,12.74-11.6,30.12-4.14,45.52a43.85,43.85,0,0,0,38.18,24.73A43.85,43.85,0,0,0,728,487.64C720.54,472.25,705.72,463,689.71,462.68Z"/><path class="cls-1" d="M700.52,396.23c-6.85,14.48-5.09,31.88,5.41,45.39a43.85,43.85,0,0,0,42.48,16.25,43.85,43.85,0,0,0-5.25-45.18C732.66,399.18,716.24,393.17,700.52,396.23Z"/><path class="cls-1" d="M697.28,329c-3.69,15.58,1.65,32.24,14.73,43.27a43.85,43.85,0,0,0,44.93,7.06,43.85,43.85,0,0,0-14.53-43.1C729.33,325.18,712,322.72,697.28,329Z"/><path class="cls-1" d="M680.13,263.88c-.37,16,8.32,31.19,23.41,39.26a43.85,43.85,0,0,0,45.42-2.44,43.85,43.85,0,0,0-23.17-39.14C710.69,253.5,693.24,254.69,680.13,263.88Z"/><path class="cls-1" d="M649.81,203.77c3,15.74,14.62,28.78,31.06,33.54a43.85,43.85,0,0,0,43.92-11.83A43.85,43.85,0,0,0,694,192C677.55,187.26,660.73,192.05,649.81,203.77Z"/><path class="cls-1" d="M607.67,151.27C613.84,166,628,176.38,645,177.62a43.85,43.85,0,0,0,40.5-20.7,43.85,43.85,0,0,0-37.09-26.33C631.36,129.35,615.91,137.54,607.67,151.27Z"/><path class="cls-1" d="M555.52,108.68c9.11,13.17,25.06,20.34,42,18A43.85,43.85,0,0,0,632.85,98,43.85,43.85,0,0,0,591.1,80C574.15,82.31,560.73,93.54,555.52,108.68Z"/><path class="cls-1" d="M495.67,77.86c11.65,11,28.75,14.69,44.84,8.88a43.85,43.85,0,0,0,28.58-35.38,43.85,43.85,0,0,0-44.59-9C508.4,48.2,497.61,62,495.67,77.86Z"/><path class="cls-1" d="M430.71,60.17c13.68,8.33,31.17,8.39,45.71-.64A43.85,43.85,0,0,0,497,19a43.85,43.85,0,0,0-45.48.5C437,28.5,429.31,44.21,430.71,60.17Z"/><path class="cls-2" d="M233.31,124.76"/></g></g></svg>