<svg xmlns="http://www.w3.org/2000/svg" viewBox="0 0 183.21 55.16"><defs><style>.cls-1{fill:#2b4835;}</style></defs><title>Risorsa 1</title><g id="Livello_2" data-name="Livello 2"><g id="contents"><path class="cls-1" d="M7.55,43.71v.53c0,3.66,2.67,7.1,7.78,7.1,4.27,0,7.32-2.36,7.32-5.72,0-2.44-1.3-4.43-5.26-6l-5.8-2.29c-6.41-2.52-9.76-5.72-9.76-10.68,0-6.79,6.26-11.14,13.88-11.14,7.17,0,12.82,3.51,13.27,9.69l-7.55.92v-.61c0-3.43-2.21-6.18-6.79-6.18-3.59,0-6.56,2.29-6.56,5.34,0,2.14,1.3,4.5,6.18,6.41l6.18,2.36c6,2.36,8.85,5.49,8.85,10.07,0,7.55-7.1,11.67-15,11.67C6.87,55.16,0,51.65,0,44.63ZM39.71,36c.92,8.77,6.26,13,12.59,13A16,16,0,0,0,64,44.17c-.46,6.33-6.79,11-13.73,11-9.69,0-17.24-8-17.24-19.22,0-10.38,6.18-20.45,17.7-20.45,6.94,0,13.81,4.2,13.81,12.05a10.21,10.21,0,0,1-.08,1.53Zm.08-5.72H57c0-8.39-3.74-11-7.55-11C45.36,19.3,40.63,22,39.79,30.29ZM74.87,36c.92,8.77,6.26,13,12.59,13a16,16,0,0,0,11.67-4.88c-.46,6.33-6.79,11-13.73,11-9.69,0-17.24-8-17.24-19.22,0-10.38,6.18-20.45,17.7-20.45,6.94,0,13.81,4.2,13.81,12.05a10.21,10.21,0,0,1-.08,1.53Zm.08-5.72H92.11c0-8.39-3.74-11-7.55-11C80.52,19.3,75.79,22,74.95,30.29Zm61.33,24.11h-6.64V48.67c-2.67,4-7,6.48-11.06,6.48-7.86,0-15.18-6.56-15.18-18.77,0-12.59,7.55-20.9,18.08-20.9a19.72,19.72,0,0,1,8.16,1.68V1l6.64-1Zm-6.64-7.48V23.27a11.22,11.22,0,0,0-8.39-3.89c-5.42,0-10.91,4.27-10.91,15,0,8.62,4,15.33,11.75,15.33A12.34,12.34,0,0,0,129.64,46.92Zm18.46-3.2v.53c0,3.66,2.67,7.1,7.78,7.1,4.27,0,7.32-2.36,7.32-5.72,0-2.44-1.3-4.43-5.26-6l-5.8-2.29c-6.41-2.52-9.76-5.72-9.76-10.68,0-6.79,6.26-11.14,13.88-11.14,7.17,0,12.82,3.51,13.27,9.69l-7.55.92v-.61c0-3.43-2.21-6.18-6.79-6.18-3.58,0-6.56,2.29-6.56,5.34,0,2.14,1.3,4.5,6.18,6.41L161,33.41c6,2.36,8.85,5.49,8.85,10.07,0,7.55-7.09,11.67-15,11.67-7.48,0-14.34-3.51-14.34-10.53ZM178.53,45a4.68,4.68,0,1,0,4.68,4.68A4.68,4.68,0,0,0,178.53,45Z"/></g></g></svg>