<svg xmlns="http://www.w3.org/2000/svg" viewBox="0 0 62.66 64.35"><defs><style>.cls-1{fill:#2ff141;}</style></defs><title>Risorsa 15</title><g id="Livello_2" data-name="Livello 2"><g id="support"><path class="cls-1" d="M2.22,42.89A2.31,2.31,0,0,1,2,41.67a2,2,0,0,1,.49-1.09,2.8,2.8,0,0,1,1.13-.77A2.79,2.79,0,0,1,5,39.58a2,2,0,0,1,1.1.44,2.43,2.43,0,0,1,.73,1A2.39,2.39,0,0,1,7,42.24a2.07,2.07,0,0,1-.48,1.09,3,3,0,0,1-1.13.78,2.78,2.78,0,0,1-1.35.22,2.06,2.06,0,0,1-1.11-.44A2.25,2.25,0,0,1,2.22,42.89Zm.61-.25a1.42,1.42,0,0,0,1.3,1,2.3,2.3,0,0,0,1-.19A2.65,2.65,0,0,0,6,42.86a1.52,1.52,0,0,0,.38-.73,1.46,1.46,0,0,0-.11-.86,1.53,1.53,0,0,0-.51-.69,1.52,1.52,0,0,0-.79-.26,2.29,2.29,0,0,0-1,.2,2.34,2.34,0,0,0-.84.54,1.47,1.47,0,0,0-.38.73A1.51,1.51,0,0,0,2.83,42.64Z"/><path class="cls-1" d="M5.13,34.47a2.18,2.18,0,0,1-.08.88,1.44,1.44,0,0,1-.48.72,1.74,1.74,0,0,1-1,.36l-3.12.36L.38,36l2.93-.33a1.27,1.27,0,0,0,1-.42,1.34,1.34,0,0,0,.17-.92,1.5,1.5,0,0,0-.15-.51A1.18,1.18,0,0,0,4,33.41a1.27,1.27,0,0,0-.53-.27,2,2,0,0,0-.74,0l-2.59.29L0,32.63l4.77-.54.07.67-.72.13a1.43,1.43,0,0,1,.7.6A2.36,2.36,0,0,1,5.13,34.47Z"/><path class="cls-1" d="M4.9,28.9.15,28.3l.07-.62H1A1.46,1.46,0,0,1,.43,27a2,2,0,0,1-.1-1,1.68,1.68,0,0,1,.06-.27.87.87,0,0,1,.1-.24l.68.22a1.43,1.43,0,0,0-.08.22,1.77,1.77,0,0,0-.07.35,1.25,1.25,0,0,0,.1.62,1.35,1.35,0,0,0,.46.56,1.63,1.63,0,0,0,.85.31L5,28.14Z"/><path class="cls-1" d="M6.55,15.29l.69.39L5.67,18.43,5,18Z"/><path class="cls-1" d="M15.75,9.91a2.92,2.92,0,0,1-1.22.52,2.24,2.24,0,0,1-1.23-.14l.25-.77a1.54,1.54,0,0,0,.91.19,1.79,1.79,0,0,0,.94-.38,1.41,1.41,0,0,0,.52-.63.59.59,0,0,0-.07-.58.6.6,0,0,0-.32-.22A.84.84,0,0,0,15,8l-1.07.49a1.8,1.8,0,0,1-1.09.21,1.27,1.27,0,0,1-.74-.5,1.29,1.29,0,0,1-.24-.71,1.5,1.5,0,0,1,.21-.8,2.24,2.24,0,0,1,.68-.74,2.43,2.43,0,0,1,1.13-.49,1.82,1.82,0,0,1,1.05.2l-.27.72a1.13,1.13,0,0,0-.79-.18,1.56,1.56,0,0,0-.73.29,1.61,1.61,0,0,0-.41.42.8.8,0,0,0-.15.44A.62.62,0,0,0,13,8a.92.92,0,0,0,.59-.11l1.11-.51a1.61,1.61,0,0,1,1-.2,1.06,1.06,0,0,1,.66.44,1.27,1.27,0,0,1,.27.78,1.48,1.48,0,0,1-.23.82A2.65,2.65,0,0,1,15.75,9.91Z"/><path class="cls-1" d="M21.34,6.79a2.06,2.06,0,0,1-.87.16,1.45,1.45,0,0,1-.82-.28A1.75,1.75,0,0,1,19,5.82L17.9,2.89l.71-.28,1.07,2.74a1.3,1.3,0,0,0,.66.82,1.34,1.34,0,0,0,.93-.07,1.67,1.67,0,0,0,.46-.28,1.27,1.27,0,0,0,.33-.43,1.41,1.41,0,0,0,.12-.59A1.85,1.85,0,0,0,22,4.08l-.94-2.43.71-.28,1.75,4.46-.63.25-.31-.66a1.51,1.51,0,0,1-.4.83A2.39,2.39,0,0,1,21.34,6.79Z"/><path class="cls-1" d="M26.76,7.11,26.12.33l.67-.06L27,1.43l-.11-.13a1.58,1.58,0,0,1,.31-.62,1.7,1.7,0,0,1,.57-.45A2,2,0,0,1,28.48,0a2.09,2.09,0,0,1,1.1.19,2.3,2.3,0,0,1,.87.78,2.86,2.86,0,0,1,.42,1.31,2.84,2.84,0,0,1-.17,1.36,2.25,2.25,0,0,1-.72.93,2.12,2.12,0,0,1-1.06.4,1.79,1.79,0,0,1-1.06-.2,1.65,1.65,0,0,1-.71-.67L27.23,4,27.53,7Zm2-2.79a1.35,1.35,0,0,0,1-.6,2,2,0,0,0,.28-1.36,2.14,2.14,0,0,0-.52-1.28A1.27,1.27,0,0,0,28.46.69a1.34,1.34,0,0,0-.78.3,1.46,1.46,0,0,0-.47.68,2.2,2.2,0,0,0-.1,1,2.21,2.21,0,0,0,.28.93,1.5,1.5,0,0,0,.58.59A1.38,1.38,0,0,0,28.78,4.32Z"/><path class="cls-1" d="M33.52,6.81,34.74.11l.66.12L35.25,1.4l-.08-.15a1.59,1.59,0,0,1,.48-.52,1.78,1.78,0,0,1,.66-.28,2,2,0,0,1,.78,0,2.07,2.07,0,0,1,1,.48,2.19,2.19,0,0,1,.63,1,2.87,2.87,0,0,1,.05,1.38,2.69,2.69,0,0,1-.54,1.26,2.12,2.12,0,0,1-.94.7,2.06,2.06,0,0,1-1.13.1,1.82,1.82,0,0,1-1-.48A1.58,1.58,0,0,1,34.71,4l.12-.13L34.27,7Zm2.7-2.14a1.33,1.33,0,0,0,1.18-.29A2,2,0,0,0,38,3.15a2.11,2.11,0,0,0-.14-1.37,1.31,1.31,0,0,0-1-.69,1.49,1.49,0,0,0-.84.08,1.54,1.54,0,0,0-.64.53,2.35,2.35,0,0,0-.36.91,2.47,2.47,0,0,0,0,1,1.52,1.52,0,0,0,.41.72A1.33,1.33,0,0,0,36.22,4.67Z"/><path class="cls-1" d="M44.93,3.06a2.36,2.36,0,0,1,1,.8A2,2,0,0,1,46.24,5a2.71,2.71,0,0,1-.32,1.33,2.73,2.73,0,0,1-.85,1.07A2,2,0,0,1,44,7.8a2.33,2.33,0,0,1-1.21-.26,2.44,2.44,0,0,1-.94-.79,2.15,2.15,0,0,1-.37-1.14,3,3,0,0,1,.32-1.33,2.92,2.92,0,0,1,.86-1.07,2.1,2.1,0,0,1,1.12-.41A2.49,2.49,0,0,1,44.93,3.06Zm-.29.6a1.4,1.4,0,0,0-1.6.16,2.33,2.33,0,0,0-.6.8,2.47,2.47,0,0,0-.26,1,1.42,1.42,0,0,0,.2.8A1.52,1.52,0,0,0,43,7a1.4,1.4,0,0,0,1.61-.17,2.29,2.29,0,0,0,.59-.8,2.33,2.33,0,0,0,.27-1,1.42,1.42,0,0,0-.2-.8A1.54,1.54,0,0,0,44.64,3.66Z"/><path class="cls-1" d="M47.19,10.15l3.06-3.69.48.4-.42.67a1.43,1.43,0,0,1,.88-.13,1.87,1.87,0,0,1,.87.43l.19.19a.72.72,0,0,1,.15.22l-.55.45a1.15,1.15,0,0,0-.14-.19,2.25,2.25,0,0,0-.26-.24A1.15,1.15,0,0,0,50.88,8a1.4,1.4,0,0,0-.72.08,1.69,1.69,0,0,0-.72.56l-1.65,2Z"/><path class="cls-1" d="M56.41,10.59l-3.74,3.06a.65.65,0,0,0-.28.49.77.77,0,0,0,.19.51A1.18,1.18,0,0,0,53,15a1.62,1.62,0,0,0,.43.12l-.33.61a1.85,1.85,0,0,1-.57-.2A2.09,2.09,0,0,1,52,15a1.91,1.91,0,0,1-.33-.61,1,1,0,0,1,0-.65,1.46,1.46,0,0,1,.45-.62l3.68-3Zm.05,2.21-.51.42-2.2-2.69.51-.42Z"/><path class="cls-1" d="M59.77,24.49l-.77.22-.88-3,.77-.22Z"/><path class="cls-1" d="M62.13,35.82a2.31,2.31,0,0,1-.28.84,1.76,1.76,0,0,1-.53.59,2.25,2.25,0,0,1-.73.35l-.24-.77a1.46,1.46,0,0,0,.76-.36,1.3,1.3,0,0,0,.36-.77,1.58,1.58,0,0,0-.1-.85,1.43,1.43,0,0,0-.54-.61,2.47,2.47,0,0,0-.95-.32,2.3,2.3,0,0,0-1,0,1.37,1.37,0,0,0-.7.43,1.63,1.63,0,0,0-.33.78,1.78,1.78,0,0,0,0,.66,1.16,1.16,0,0,0,.27.5,1.33,1.33,0,0,0,.5.31l-.35.67a2.5,2.5,0,0,1-.69-.55,1.8,1.8,0,0,1-.38-.74,2.54,2.54,0,0,1,0-.92A2.46,2.46,0,0,1,57.66,34a2,2,0,0,1,1-.69A2.92,2.92,0,0,1,60,33.16a2.89,2.89,0,0,1,1.28.49,2.05,2.05,0,0,1,.74.94A2.5,2.5,0,0,1,62.13,35.82Z"/><path class="cls-1" d="M56.24,39.74l6.42,2.79-.3.7-2.69-1.16a1.42,1.42,0,0,1,.31.86,2.07,2.07,0,0,1-.18.9,2.15,2.15,0,0,1-.55.78,1.52,1.52,0,0,1-.82.38,2,2,0,0,1-1-.17L54.57,43.6l.3-.71L57.44,44a1.51,1.51,0,0,0,1.16.13,1.18,1.18,0,0,0,.61-.65,1.46,1.46,0,0,0,.13-.7,1.3,1.3,0,0,0-.26-.73,1.87,1.87,0,0,0-.81-.6l-2.33-1Z"/><path class="cls-1" d="M53.62,50.33a1.14,1.14,0,0,0,.82.3,1.08,1.08,0,0,0,.74-.46,1.52,1.52,0,0,0,.36-.79,1.26,1.26,0,0,0-.22-.83L56,48.3a1.65,1.65,0,0,1,.24,1.1A2.65,2.65,0,0,1,55,51.23a1.48,1.48,0,0,1-.84.18,1.59,1.59,0,0,1-.87-.38l-1.81-1.45a.32.32,0,0,0-.5.06,1.44,1.44,0,0,0-.19.31l-.44-.41a1,1,0,0,1,.23-.44,1.12,1.12,0,0,1,.4-.33.8.8,0,0,1,.46-.07,1.15,1.15,0,0,1,.5.24L52,49l-.14.14a1.21,1.21,0,0,1-.23-.69,1.67,1.67,0,0,1,.12-.7,2,2,0,0,1,.34-.6,2,2,0,0,1,.6-.53,1.29,1.29,0,0,1,.7-.18,1.29,1.29,0,0,1,1.17,1.12,2,2,0,0,1-.25,1.08l-.9,1.72-.49-.4.71-1.4a1.68,1.68,0,0,0,.23-.72.56.56,0,0,0-.23-.48.61.61,0,0,0-.52-.12,1.06,1.06,0,0,0-.57.41,2.13,2.13,0,0,0-.27.46,1.21,1.21,0,0,0-.11.49,1,1,0,0,0,.09.48,1,1,0,0,0,.34.42Z"/><path class="cls-1" d="M48.44,51.24l2.83,3.87-.54.39L50,54.68h.16a1.71,1.71,0,0,1,0,.74,1.51,1.51,0,0,1-.29.63,2.37,2.37,0,0,1-.5.5,2.25,2.25,0,0,1-.88.4,1.56,1.56,0,0,1-.9-.09,1.87,1.87,0,0,1-.81-.68l-1.81-2.47.62-.46,1.65,2.26a1.53,1.53,0,0,0,.93.7,1.2,1.2,0,0,0,.86-.25,1.44,1.44,0,0,0,.46-.54,1.2,1.2,0,0,0,.15-.76,1.84,1.84,0,0,0-.39-.92l-1.51-2.06Z"/><path class="cls-1" d="M42.34,55.17,44,59.67l-.63.23-.44-1,.15,0a1.54,1.54,0,0,1-.17.73,1.57,1.57,0,0,1-.44.52,2.42,2.42,0,0,1-.63.35,2.12,2.12,0,0,1-1,.14,1.53,1.53,0,0,1-.84-.32,1.93,1.93,0,0,1-.59-.88L38.4,56.63l.72-.26,1,2.62a1.44,1.44,0,0,0,.71.92,1.14,1.14,0,0,0,.89,0,1.6,1.6,0,0,0,.59-.39,1.27,1.27,0,0,0,.35-.69,1.76,1.76,0,0,0-.13-1l-.88-2.39Z"/><path class="cls-1" d="M33.35,57.36a2.39,2.39,0,0,1,1.23.19,2.09,2.09,0,0,1,.91.78,3,3,0,0,1,.41,1.31A2.82,2.82,0,0,1,35.71,61a2,2,0,0,1-.74.92,2.3,2.3,0,0,1-1.15.4,2.08,2.08,0,0,1-1.16-.19,1.83,1.83,0,0,1-.79-.72,2.37,2.37,0,0,1-.34-1.08c0-.11,0-.21,0-.3a1.85,1.85,0,0,1,0-.24l3.86-.33.06.68-3.53.3.39-.11a1.4,1.4,0,0,0,.47,1,1.35,1.35,0,0,0,1,.29,1.56,1.56,0,0,0,.79-.28,1.49,1.49,0,0,0,.47-.67,2.41,2.41,0,0,0,.1-1,2.26,2.26,0,0,0-.27-1,1.39,1.39,0,0,0-.6-.58,1.48,1.48,0,0,0-.85-.15,1.58,1.58,0,0,0-.84.28,1.46,1.46,0,0,0-.48.59l-.64-.31a2.24,2.24,0,0,1,.42-.6,1.88,1.88,0,0,1,.63-.42A2.35,2.35,0,0,1,33.35,57.36Z"/><path class="cls-1" d="M26.81,64.25l.73-5.74a.69.69,0,0,0-.07-.51.52.52,0,0,0-.41-.19,2,2,0,0,0-.32,0,2.28,2.28,0,0,0-.34.07l.21-.65a1.21,1.21,0,0,1,.34-.06,2.41,2.41,0,0,1,.38,0,1.1,1.1,0,0,1,.82.43,1.43,1.43,0,0,1,.16,1l-.74,5.77Z"/><path class="cls-1" d="M22.54,56a2.81,2.81,0,0,1,1.12.7,2.12,2.12,0,0,1,.58,1.09l-.77.24a1.51,1.51,0,0,0-.36-.86,1.91,1.91,0,0,0-.84-.56,1.42,1.42,0,0,0-.82-.07.6.6,0,0,0-.44.39.65.65,0,0,0,0,.39.86.86,0,0,0,.39.4l1,.6a1.79,1.79,0,0,1,.79.78,1.19,1.19,0,0,1,0,.89,1.16,1.16,0,0,1-.45.6,1.59,1.59,0,0,1-.77.29,2.69,2.69,0,0,1-2-.79,1.71,1.71,0,0,1-.43-1l.74-.19a1.15,1.15,0,0,0,.3.75,1.57,1.57,0,0,0,.65.44,1.7,1.7,0,0,0,.59.1.85.85,0,0,0,.44-.13.63.63,0,0,0,.25-.31.67.67,0,0,0,0-.42.9.9,0,0,0-.43-.41L21,58.29a1.62,1.62,0,0,1-.74-.73,1,1,0,0,1,0-.79,1.38,1.38,0,0,1,.48-.67,1.57,1.57,0,0,1,.81-.27A2.44,2.44,0,0,1,22.54,56Z"/><path class="cls-1" d="M10,51.42l.54-.58L12.86,53l-.54.58Z"/></g></g></svg>