<svg xmlns="http://www.w3.org/2000/svg" viewBox="0 0 51.55 42.55"><defs><style>.cls-1{fill:#f3f3f3;}</style></defs><title>Risorsa 9</title><g id="Livello_2" data-name="Livello 2"><g id="Livello_2-2" data-name="Livello 2"><path class="cls-1" d="M51.35,4.6C51,6.17,46.77,26.27,44.56,37.12c-1.28,6.29-2.48,6.81-7.59,3.12-3.08-2.24-6.23-4.38-9.28-6.51-2.07,1.81-3.89,3.32-5.61,4.93-2.58,2.4-3.81,2.14-5-1.23-1.21-3.55-2.24-7.17-3.59-10.66a4.65,4.65,0,0,0-2.44-2.56C7.45,23,3.7,22.05,0,21V17.77C15.94,11.89,31.87,6,47.84.19a2.84,2.84,0,0,1,2.91.48C51.66,1.64,51.69,3,51.35,4.6ZM19.12,33c.67-2.3.68-4.94,2-6.32,3.52-3.7,7.64-6.84,11.47-10.27,2.81-2.51,5.53-5.11,8.29-7.68a3.81,3.81,0,0,0-2.51.75c-5.26,3.32-10.46,6.73-15.77,10-6.28,3.8-6.31,3.73-4.21,10.71C18.66,31.07,18.86,32,19.12,33Z"/></g></g></svg>