<svg xmlns="http://www.w3.org/2000/svg" viewBox="0 0 30 30"><defs><style>.cls-1{fill:#2ff141;}.cls-2{fill:#2b4835;}</style></defs><title>Risorsa 16</title><g id="Livello_2" data-name="Livello 2"><g id="support"><circle class="cls-1" cx="15" cy="15" r="15"/><g id="Livello_2-2" data-name="Livello 2-2"><path class="cls-2" d="M23.7,8.48c-.14.61-1.79,8.45-2.65,12.69-.5,2.45-1,2.65-3,1.21-1.2-.87-2.43-1.71-3.62-2.54-.81.71-1.52,1.3-2.19,1.93-1,.93-1.49.83-1.95-.48s-.87-2.8-1.4-4.16a1.83,1.83,0,0,0-.95-1c-1.41-.47-2.87-.84-4.31-1.25V13.62Q13,10.17,22.33,6.76A1.11,1.11,0,0,1,23.46,7,1.62,1.62,0,0,1,23.7,8.48ZM11.13,19.56c.26-.9.26-1.93.78-2.47,1.37-1.44,3-2.66,4.47-4,1.1-1,2.16-2,3.23-3a1.51,1.51,0,0,0-1,.29c-2.05,1.3-4.08,2.63-6.15,3.91C10,15.77,10,15.74,10.84,18.46,11,18.81,11,19.17,11.13,19.56Z"/></g></g></g></svg>