<svg xmlns="http://www.w3.org/2000/svg" viewBox="0 0 796.3 657.23"><defs><style>.cls-1{fill:#f3f3f3;}</style></defs><title>Risorsa 6</title><g id="Livello_2" data-name="Livello 2"><g id="Livello_2-2" data-name="Livello 2"><path class="cls-1" d="M793.23,71C788,95.34,722.38,405.72,688.34,573.37,668.62,670.51,650,678.62,571.08,621.52,523.45,587,474.78,554,427.7,521.06c-32,28-60,51.27-86.63,76.1-39.8,37.13-58.88,33.14-76.72-19-18.76-54.83-34.66-110.7-55.44-164.72-6.16-16-22.22-34.21-37.8-39.54C115,354.7,57.18,340.55,0,324.49v-50C246.2,183.64,492.24,92.37,739,3c17.86-6.47,36.72-1.53,45,7.39C798,25.34,798.46,46.66,793.23,71ZM295.36,510.4c10.41-35.62,10.48-76.29,30.81-97.64C380.66,355.52,444.26,307,503.41,254.15c43.38-38.79,85.44-79.05,128.1-118.66-17.1-1.21-28.19,4.81-38.83,11.54C511.49,198.29,431.15,251,349.06,300.72c-96.9,58.75-97.48,57.66-64.92,165.46C288.31,480,291.26,494.11,295.36,510.4Z"/></g></g></svg>